<svg width="248" height="320" viewBox="0 0 248 320" fill="none" xmlns="http://www.w3.org/2000/svg">
<path d="M0 6C0 2.6863 2.68629 0 6 0H242C245.314 0 248 2.68629 248 6V314C248 317.314 245.314 320 242 320H5.99999C2.68629 320 0 317.314 0 314V6Z" fill="white"/>
<rect x="0.5" y="0.5" width="247" height="319" rx="5.5" fill="white" stroke="#D4D4D4"/>
<rect x="44" y="44" width="160" height="180" fill="url(#paint0_linear_1062_19267)"/>
<rect x="59" y="44" width="40" height="77" fill="white"/>
<rect x="104" y="113.479" width="10.2666" height="20.9943" transform="rotate(-25.8625 104 113.479)" fill="url(#paint1_linear_1062_19267)"/>
<path d="M110.942 98.0493L130 89L138 91L143.5 87.5L172.091 133.928L136.661 151.103L124 120L124 118.5L119.5 113L114 109L110.942 98.0493Z" fill="url(#paint2_linear_1062_19267)"/>
<path d="M131 65L138 63.5L159 73L205 148.5V224.5H44.5V194.5L73.5 160L92 130L88 150.5L96.5 158L101 149.5L105.5 152.5L102 166.5L109 178L123.5 172.5L119 138L123.5 136.5L138 178H151.5L149 145L167.5 152.5L170 132.5L156 80.5L149 74.5L140 70.5V64.4048L135.5 66L131 70.5V65Z" fill="url(#paint3_linear_1062_19267)"/>
<rect x="97" y="77" width="9" height="26" fill="url(#paint4_linear_1062_19267)"/>
<rect x="90" y="114" width="9" height="26" fill="url(#paint5_linear_1062_19267)"/>
<rect x="102" y="123" width="6" height="26" fill="url(#paint6_linear_1062_19267)"/>
<rect x="118" y="51" width="6" height="18" fill="url(#paint7_linear_1062_19267)"/>
<rect x="109" y="103" width="6" height="6" fill="url(#paint8_linear_1062_19267)"/>
<circle cx="79" cy="57" r="8" stroke="black" stroke-width="2"/>
<circle cx="79" cy="82" r="8" stroke="black" stroke-width="2"/>
<circle cx="79" cy="107" r="8" stroke="black" stroke-width="2"/>
<rect x="59" y="45" width="40" height="76" stroke="black" stroke-width="2"/>
<rect x="59" y="69" width="40" height="52" stroke="black" stroke-width="2"/>
<rect x="71" y="82" width="16" height="25" stroke="black" stroke-width="2"/>
<rect width="16" height="14" transform="matrix(1 0 0 -1 71 121)" stroke="black" stroke-width="2"/>
<rect x="71" y="36" width="16" height="46" stroke="black" stroke-width="2"/>
<rect x="59" y="94" width="40" height="27" stroke="black" stroke-width="2"/>
<path d="M59 45V121H79V25" stroke="black" stroke-width="2"/>
<path d="M96.5 92L99 85.5L107.5 89.5L106.5 94.5L96.5 92Z" stroke="black" stroke-width="2"/>
<path d="M144.499 93.9997L143.282 88.9423L153.264 83.6398L156.2 87.8741L144.499 93.9997Z" stroke="black" stroke-width="2"/>
<path d="M147.195 98.9997L145.978 93.9423L155.96 88.6398L158.895 92.8741L147.195 98.9997Z" stroke="black" stroke-width="2"/>
<path d="M95 97.5L97.5 91L106 95L105 100L95 97.5Z" stroke="black" stroke-width="2"/>
<path d="M92 104.5L94.5 98L103 102L102 107L92 104.5Z" stroke="black" stroke-width="2"/>
<path d="M102 129.5L104.5 123L113 127L112 132L102 129.5Z" stroke="black" stroke-width="2"/>
<path d="M129.877 130.795L127.4 124.538L134.547 124.21L136.969 128.64L129.877 130.795Z" stroke="black" stroke-width="2"/>
<path d="M132.877 136.795L130.4 130.538L137.547 130.21L139.969 134.64L132.877 136.795Z" stroke="black" stroke-width="2"/>
<path d="M133.877 144.795L131.4 138.538L138.547 138.21L140.969 142.64L133.877 144.795Z" stroke="black" stroke-width="2"/>
<path d="M135.877 151.795L133.4 145.538L140.547 145.21L142.969 149.64L135.877 151.795Z" stroke="black" stroke-width="2"/>
<path d="M120 137.5V163.5L106.5 164L104.5 123L108.5 113.5L110.5 110H137.5L147.5 149V164C147.5 164.4 141.5 163.167 138.5 162.5L132 166.5L124 137.5H120Z" stroke="black" stroke-width="2"/>
<path d="M101 136.5L103.5 130L112 134L111 139L101 136.5Z" stroke="black" stroke-width="2"/>
<path d="M101 143.5L103.5 137L112 141L111 146L101 143.5Z" stroke="black" stroke-width="2"/>
<path d="M101 149.5L103.5 143L112 147L111 152L101 149.5Z" stroke="black" stroke-width="2"/>
<path d="M113 89L108 74.5M113 89V78L116 74.5V72H118.5V70L113 66.5L108 74.5M113 89L110.5 90L109.5 87L105.5 85L102.5 87L97 85L100.5 78L108 74.5M107 90.5L110.5 110H118.5M144.5 90L143.5 85C148 84.5 156 81.5 156 81.5C156 81.5 150 71 139 71V65H136L131 72V83.5V90.5L139 91.125L140.5 87.5L141.5 90.5L137.5 110H118.5M118.5 110V91.125L120 81.5" stroke="black" stroke-width="2"/>
<path d="M110 110H118.5H137.5L138.5 113L144 119.5H124.5L118.5 113L111 119.5H102.5L108.5 113L110 110Z" stroke="black" stroke-width="2"/>
<path d="M104.5 124.5L106 119.5H111L117.5 113.5L119.5 114.5L114 125L104.5 124.5Z" stroke="black" stroke-width="2"/>
<path d="M125 53L125 71" stroke="black" stroke-width="2"/>
<path d="M119.5 58.5H130.5" stroke="black" stroke-width="2"/>
<path d="M119 60V70H131V60" stroke="black" stroke-width="2"/>
<path d="M120 53V55H130V53" stroke="black" stroke-width="2"/>
<path d="M144.5 95L123 106L140 141.5C148.5 146 167.5 153.5 167.5 153.5L170 132.5L156.429 83L144.5 95Z" fill="white"/>
<path d="M146.732 107.5L151.095 118L142.364 123.5M151.095 102L156.429 114.5L160 111.5M147.5 127.5L152.5 124.5L158.5 138M162 118L158 122L162 133M139.5 125.5L129 110.5L144 102L145.5 105.5M150.364 101L149 98L157.5 88.5L163 108.5L161 110.5M163 117L165 115L168 126.5L166.162 143.5L162.5 134.5M144.5 129.5L139.5 132.5L142 138.5L163 148L159.5 141M123 106L144.5 95L156.429 83L170 132.5L167.5 153.5C167.5 153.5 148.5 146 140 141.5L123 106Z" stroke="black" stroke-width="2"/>
<path d="M92 116.5C92.8333 113.667 94.5 107.4 94.5 105L100 85.5L107.5 88.5V92.5L109.5 102C108.667 103.333 106.8 106.1 106 106.5C105.2 106.9 104.667 113 104.5 116M92 116.5L104.5 116M92 116.5L92.5 117.5L92 137.5L100 135.5L104.5 116" stroke="black" stroke-width="2"/>
<path d="M91.5 144.5L93.5 139L99.5 138L99 143L96.5 150L99 153.5L95 158L91.5 154.5V144.5Z" stroke="black" stroke-width="2"/>
<path d="M94.5 144L95.5 139L94 139.5L91.5 144V148.5L93.5 152.5L95.5 151.5L94.5 147.5V144Z" stroke="black" stroke-width="2"/>
<path d="M113.5 163.5L109.5 159.5H102.5L103.5 165L102.5 169L106 177C108.5 177.333 113.5 177.8 113.5 177C113.5 176.2 113.833 170.667 114 168L117 167L118.5 163.5V170C119.833 170.333 122.4 170.8 122 170C121.6 169.2 120.5 165.333 120 163.5H113.5Z" stroke="black" stroke-width="2"/>
<path d="M139.542 163.5L140.5 159.5H147.5L149.542 165L148.5 169L152 177C149.5 177.333 137 177.8 137 177C137 176.2 136.667 170.667 136.5 168L136.042 167L134.542 163.5V170C133.209 170.333 133.042 170 133.042 170C133.442 169.2 130.5 167.333 131 165.5L139.542 163.5Z" stroke="black" stroke-width="2"/>
<path d="M105 114.5L102.5 119L95.5 131.5L100 117.672L86.5 110.5L82 109L84 105.5L88 107.5L102.5 113.471L109.5 101.5L105 114.5Z" fill="white"/>
<path d="M105 114.5L102.5 119M105 114.5L109.5 101.5L102.5 113.471M105 114.5L102.5 113.471M88 107.5L86.5 110.5M88 107.5L84 105.5L82 109L86.5 110.5M88 107.5L102.5 113.471M86.5 110.5L100 117.672M102.5 119L100 117.672M102.5 119L95.5 131.5L100 117.672" stroke="black" stroke-width="2"/>
<path d="M135 85.5C135 84.7 135 80.5 135 78.5L141.5 68L158.5 74.5L157.5 76L164.5 80C174.333 98 194.8 135 198 139C201.2 143 203.333 146.333 204 147.5V165.5L199 161L202 168H204V224.5H159.5V221H154.5V224.5H150M108 83.5C108 83.1 106.333 78.3333 105.5 76L107 70.5L102 71.5L103 76M92 127L73.5 161L43.5 194.5V224.5H59V222H62V224.5H67V222H71.5V224.5H77.5" stroke="black" stroke-width="2"/>
<path d="M55 45H43V84.5M55 45V41M55 45V69.5M87 129H43M43 129H39V125H50.5V121C51.6667 121 54.2 121 55 121V101M43 129V189M55 125H87" stroke="black" stroke-width="2"/>
<path d="M111 45H103V69M135 45H187M203 93V45H187M187 45V49H189V50.5H190.5C192.833 50.3333 197.5 50.7 197.5 53.5C197.5 56.3 199.167 55.6667 200 55V61H197.5V63H200V121" stroke="black" stroke-width="2"/>
<path d="M59 69C59 45.5 71 25 79 25" stroke="black" stroke-width="2"/>
<path d="M99 69C99 45.5 87 25 79 25" stroke="black" stroke-width="2"/>
<path d="M24.7539 255C28.7425 255 30.9925 252.52 30.9925 248.429C30.9925 244.364 28.7425 241.909 24.9329 241.909H20.7141V255H24.7539ZM22.2994 253.594V243.315H24.8306C27.8988 243.315 29.4585 245.259 29.4585 248.429C29.4585 251.625 27.8988 253.594 24.6516 253.594H22.2994ZM33.4471 255H34.9556V248.787C34.9556 247.457 36.0039 246.486 37.4357 246.486C37.8384 246.486 38.2539 246.562 38.3562 246.588V245.054C38.1836 245.041 37.7873 245.028 37.5636 245.028C36.3874 245.028 35.3647 245.693 35.0067 246.665H34.9045V245.182H33.4471V255ZM43.0336 255.23C44.7466 255.23 45.6415 254.31 45.9483 253.67H46.025V255H47.5336V248.531C47.5336 245.412 45.1557 245.054 43.9029 245.054C42.4199 245.054 40.7324 245.565 39.9654 247.355L41.3972 247.866C41.7296 247.151 42.5158 246.384 43.954 246.384C45.3411 246.384 46.025 247.119 46.025 248.378V248.429C46.025 249.158 45.2836 249.094 43.4938 249.324C41.6721 249.56 39.6841 249.963 39.6841 252.213C39.6841 254.131 41.1671 255.23 43.0336 255.23ZM43.2637 253.875C42.062 253.875 41.1926 253.338 41.1926 252.29C41.1926 251.139 42.2409 250.781 43.4171 250.628C44.0563 250.551 45.7694 250.372 46.025 250.065V251.446C46.025 252.673 45.0534 253.875 43.2637 253.875ZM52.5114 255H53.9943L56.142 247.457H56.2955L58.4432 255H59.9261L62.9176 245.182H61.3324L59.2102 252.673H59.108L57.0369 245.182H55.4261L53.3295 252.699H53.2273L51.1051 245.182H49.5199L52.5114 255ZM74.2443 245.182H72.1477V242.83H70.6392V245.182H69.1562V246.46H70.6392V252.597C70.6392 254.31 72.0199 255.128 73.2983 255.128C73.8608 255.128 74.2188 255.026 74.4233 254.949L74.1165 253.594C73.9886 253.619 73.7841 253.67 73.4517 253.67C72.7869 253.67 72.1477 253.466 72.1477 252.188V246.46H74.2443V245.182ZM78.233 249.094C78.233 247.381 79.326 246.409 80.8153 246.409C82.2344 246.409 83.0909 247.304 83.0909 248.864V255H84.5994V248.761C84.5994 246.237 83.2571 245.054 81.25 245.054C79.7031 245.054 78.821 245.7 78.3608 246.716H78.233V241.909H76.7244V255H78.233V249.094ZM87.3592 255H88.8677V245.182H87.3592V255ZM88.1262 243.545C88.7143 243.545 89.2001 243.085 89.2001 242.523C89.2001 241.96 88.7143 241.5 88.1262 241.5C87.5382 241.5 87.0524 241.96 87.0524 242.523C87.0524 243.085 87.5382 243.545 88.1262 243.545ZM98.5852 247.381C98.1122 245.987 97.0511 245.054 95.108 245.054C93.0369 245.054 91.5028 246.23 91.5028 247.892C91.5028 249.247 92.3082 250.155 94.1108 250.577L95.7472 250.96C96.7379 251.19 97.2045 251.663 97.2045 252.341C97.2045 253.185 96.3097 253.875 94.9034 253.875C93.6697 253.875 92.8963 253.344 92.6278 252.29L91.196 252.648C91.5476 254.316 92.9219 255.205 94.929 255.205C97.2109 255.205 98.7642 253.958 98.7642 252.264C98.7642 250.896 97.9077 250.033 96.1562 249.605L94.6989 249.247C93.5355 248.96 93.0114 248.57 93.0114 247.815C93.0114 246.972 93.9062 246.358 95.108 246.358C96.4247 246.358 96.968 247.087 97.2301 247.764L98.5852 247.381ZM102.134 255.102C102.767 255.102 103.285 254.585 103.285 253.952C103.285 253.319 102.767 252.801 102.134 252.801C101.502 252.801 100.984 253.319 100.984 253.952C100.984 254.585 101.502 255.102 102.134 255.102ZM113.637 255H115.273L118.162 244.568H118.265L121.154 255H122.79L126.37 241.909H124.759L122.023 252.571H121.895L119.108 241.909H117.319L114.532 252.571H114.404L111.668 241.909H110.057L113.637 255ZM129.649 249.094C129.649 247.381 130.742 246.409 132.231 246.409C133.65 246.409 134.507 247.304 134.507 248.864V255H136.015V248.761C136.015 246.237 134.673 245.054 132.666 245.054C131.119 245.054 130.237 245.7 129.777 246.716H129.649V241.909H128.14V255H129.649V249.094ZM138.775 255H140.284V245.182H138.775V255ZM139.542 243.545C140.13 243.545 140.616 243.085 140.616 242.523C140.616 241.96 140.13 241.5 139.542 241.5C138.954 241.5 138.468 241.96 138.468 242.523C138.468 243.085 138.954 243.545 139.542 243.545ZM144.555 241.909H143.047V255H144.555V241.909ZM151.435 255.205C153.429 255.205 154.886 254.207 155.347 252.724L153.889 252.315C153.506 253.338 152.617 253.849 151.435 253.849C149.664 253.849 148.443 252.705 148.373 250.602H155.5V249.963C155.5 246.307 153.327 245.054 151.281 245.054C148.622 245.054 146.858 247.151 146.858 250.168C146.858 253.185 148.597 255.205 151.435 255.205ZM148.373 249.298C148.475 247.771 149.555 246.409 151.281 246.409C152.918 246.409 153.966 247.636 153.966 249.298H148.373ZM162.857 255H164.366V245.182H162.857V255ZM163.624 243.545C164.212 243.545 164.698 243.085 164.698 242.523C164.698 241.96 164.212 241.5 163.624 241.5C163.036 241.5 162.55 241.96 162.55 242.523C162.55 243.085 163.036 243.545 163.624 243.545ZM168.637 249.094C168.637 247.381 169.698 246.409 171.143 246.409C172.543 246.409 173.393 247.323 173.393 248.864V255H174.901V248.761C174.901 246.256 173.566 245.054 171.578 245.054C170.095 245.054 169.174 245.719 168.714 246.716H168.586V245.182H167.129V255H168.637V249.094ZM184.229 249.094C184.229 247.381 185.322 246.409 186.811 246.409C188.23 246.409 189.087 247.304 189.087 248.864V255H190.596V248.761C190.596 246.237 189.253 245.054 187.246 245.054C185.699 245.054 184.817 245.7 184.357 246.716H184.229V241.909H182.721V255H184.229V249.094ZM196.244 255.23C197.958 255.23 198.852 254.31 199.159 253.67H199.236V255H200.744V248.531C200.744 245.412 198.367 245.054 197.114 245.054C195.631 245.054 193.943 245.565 193.176 247.355L194.608 247.866C194.941 247.151 195.727 246.384 197.165 246.384C198.552 246.384 199.236 247.119 199.236 248.378V248.429C199.236 249.158 198.494 249.094 196.705 249.324C194.883 249.56 192.895 249.963 192.895 252.213C192.895 254.131 194.378 255.23 196.244 255.23ZM196.475 253.875C195.273 253.875 194.404 253.338 194.404 252.29C194.404 251.139 195.452 250.781 196.628 250.628C197.267 250.551 198.98 250.372 199.236 250.065V251.446C199.236 252.673 198.264 253.875 196.475 253.875ZM205.006 249.094C205.006 247.381 206.067 246.409 207.512 246.409C208.912 246.409 209.762 247.323 209.762 248.864V255H211.271V248.761C211.271 246.256 209.935 245.054 207.947 245.054C206.464 245.054 205.543 245.719 205.083 246.716H204.955V245.182H203.498V255H205.006V249.094ZM217.735 255.205C219.627 255.205 220.266 254.028 220.598 253.491H220.777V255H222.235V241.909H220.726V246.741H220.598C220.266 246.23 219.678 245.054 217.76 245.054C215.28 245.054 213.567 247.023 213.567 250.116C213.567 253.236 215.28 255.205 217.735 255.205ZM217.939 253.849C216.047 253.849 215.075 252.188 215.075 250.091C215.075 248.02 216.021 246.409 217.939 246.409C219.78 246.409 220.752 247.892 220.752 250.091C220.752 252.315 219.754 253.849 217.939 253.849ZM227.457 253.21H225.82L225.744 253.926C225.558 255.658 225.194 257.384 225.028 258.196H226.178C226.485 257.327 227.137 255.358 227.355 253.901L227.457 253.21ZM24.9217 280.682H26.4302V275.491H26.5581C26.8904 276.028 27.5297 277.205 29.4217 277.205C31.8762 277.205 33.5893 275.236 33.5893 272.116C33.5893 269.023 31.8762 267.054 29.3961 267.054C27.4785 267.054 26.8904 268.23 26.5581 268.741H26.3791V267.182H24.9217V280.682ZM26.4047 272.091C26.4047 269.892 27.3762 268.409 29.2172 268.409C31.1348 268.409 32.0808 270.02 32.0808 272.091C32.0808 274.188 31.1092 275.849 29.2172 275.849C27.4018 275.849 26.4047 274.315 26.4047 272.091ZM35.8904 277H37.399V267.182H35.8904V277ZM36.6575 265.545C37.2456 265.545 37.7314 265.085 37.7314 264.523C37.7314 263.96 37.2456 263.5 36.6575 263.5C36.0694 263.5 35.5836 263.96 35.5836 264.523C35.5836 265.085 36.0694 265.545 36.6575 265.545ZM44.1506 277.205C46.3239 277.205 47.7557 275.875 48.0114 274.136H46.5028C46.2216 275.21 45.3267 275.849 44.1506 275.849C42.3608 275.849 41.2102 274.366 41.2102 272.091C41.2102 269.866 42.3864 268.409 44.1506 268.409C45.4801 268.409 46.2727 269.227 46.5028 270.122H48.0114C47.7557 268.281 46.196 267.054 44.125 267.054C41.4659 267.054 39.7017 269.151 39.7017 272.142C39.7017 275.082 41.3892 277.205 44.1506 277.205ZM50.2166 277H51.7251V273.325L52.7798 272.347L56.4553 277H58.3729L53.9176 271.375L58.0661 267.182H56.1996L51.9041 271.554H51.7251V263.909H50.2166V277ZM67.9593 277.23C69.6724 277.23 70.5673 276.31 70.8741 275.67H70.9508V277H72.4593V270.531C72.4593 267.412 70.0815 267.054 68.8287 267.054C67.3457 267.054 65.6582 267.565 64.8912 269.355L66.323 269.866C66.6554 269.151 67.4416 268.384 68.8798 268.384C70.2669 268.384 70.9508 269.119 70.9508 270.378V270.429C70.9508 271.158 70.2093 271.094 68.4196 271.324C66.5978 271.56 64.6099 271.963 64.6099 274.213C64.6099 276.131 66.0929 277.23 67.9593 277.23ZM68.1895 275.875C66.9877 275.875 66.1184 275.338 66.1184 274.29C66.1184 273.139 67.1667 272.781 68.3429 272.628C68.9821 272.551 70.6951 272.372 70.9508 272.065V273.446C70.9508 274.673 69.9792 275.875 68.1895 275.875ZM76.7212 271.094C76.7212 269.381 77.7823 268.409 79.2269 268.409C80.6268 268.409 81.4769 269.323 81.4769 270.864V277H82.9854V270.761C82.9854 268.256 81.6495 267.054 79.6616 267.054C78.1786 267.054 77.2582 267.719 76.7979 268.716H76.6701V267.182H75.2127V277H76.7212V271.094ZM86.362 280.682C87.7235 280.682 88.6824 279.96 89.2512 278.432L93.4316 267.207L91.7825 267.182L89.0723 275.006H88.97L86.2598 267.182H84.6234L88.2541 277.051L87.9728 277.818C87.4231 279.314 86.7456 279.455 85.6461 279.173L85.2626 280.503C85.416 280.58 85.8507 280.682 86.362 280.682ZM106.678 272.986C106.678 274.827 105.271 275.67 104.146 275.67C102.893 275.67 101.999 274.75 101.999 273.318V267.182H100.49V273.42C100.49 275.926 101.82 277.128 103.661 277.128C105.143 277.128 106.115 276.335 106.575 275.338H106.678V277H108.186V267.182H106.678V272.986ZM112.458 271.094C112.458 269.381 113.519 268.409 114.963 268.409C116.363 268.409 117.213 269.323 117.213 270.864V277H118.722V270.761C118.722 268.256 117.386 267.054 115.398 267.054C113.915 267.054 112.994 267.719 112.534 268.716H112.406V267.182H110.949V277H112.458V271.094ZM121.478 277H122.987V267.182H121.478V277ZM122.245 265.545C122.833 265.545 123.319 265.085 123.319 264.523C123.319 263.96 122.833 263.5 122.245 263.5C121.657 263.5 121.172 263.96 121.172 264.523C121.172 265.085 121.657 265.545 122.245 265.545ZM130.02 267.182H127.923V264.83H126.415V267.182H124.932V268.46H126.415V274.597C126.415 276.31 127.795 277.128 129.074 277.128C129.636 277.128 129.994 277.026 130.199 276.949L129.892 275.594C129.764 275.619 129.559 275.67 129.227 275.67C128.562 275.67 127.923 275.466 127.923 274.188V268.46H130.02V267.182ZM134.539 275.21H132.903L132.826 275.926C132.64 277.658 132.276 279.384 132.11 280.196H133.26C133.567 279.327 134.219 277.358 134.437 275.901L134.539 275.21ZM142.396 277H143.905V267.182H142.396V277ZM143.163 265.545C143.751 265.545 144.237 265.085 144.237 264.523C144.237 263.96 143.751 263.5 143.163 263.5C142.575 263.5 142.089 263.96 142.089 264.523C142.089 265.085 142.575 265.545 143.163 265.545ZM150.938 267.182H148.841V264.83H147.333V267.182H145.85V268.46H147.333V274.597C147.333 276.31 148.713 277.128 149.992 277.128C150.554 277.128 150.912 277.026 151.117 276.949L150.81 275.594C150.682 275.619 150.477 275.67 150.145 275.67C149.48 275.67 148.841 275.466 148.841 274.188V268.46H150.938V267.182ZM162.258 277.205C164.431 277.205 165.863 275.875 166.119 274.136H164.61C164.329 275.21 163.434 275.849 162.258 275.849C160.468 275.849 159.318 274.366 159.318 272.091C159.318 269.866 160.494 268.409 162.258 268.409C163.588 268.409 164.38 269.227 164.61 270.122H166.119C165.863 268.281 164.303 267.054 162.232 267.054C159.573 267.054 157.809 269.151 157.809 272.142C157.809 275.082 159.497 277.205 162.258 277.205ZM171.213 277.23C172.926 277.23 173.821 276.31 174.128 275.67H174.205V277H175.713V270.531C175.713 267.412 173.335 267.054 172.083 267.054C170.6 267.054 168.912 267.565 168.145 269.355L169.577 269.866C169.909 269.151 170.695 268.384 172.134 268.384C173.521 268.384 174.205 269.119 174.205 270.378V270.429C174.205 271.158 173.463 271.094 171.673 271.324C169.852 271.56 167.864 271.963 167.864 274.213C167.864 276.131 169.347 277.23 171.213 277.23ZM171.443 275.875C170.242 275.875 169.372 275.338 169.372 274.29C169.372 273.139 170.421 272.781 171.597 272.628C172.236 272.551 173.949 272.372 174.205 272.065V273.446C174.205 274.673 173.233 275.875 171.443 275.875ZM179.975 271.094C179.975 269.381 181.036 268.409 182.481 268.409C183.881 268.409 184.731 269.323 184.731 270.864V277H186.239V270.761C186.239 268.256 184.903 267.054 182.915 267.054C181.433 267.054 180.512 267.719 180.052 268.716H179.924V267.182H178.467V277H179.975V271.094ZM190.325 263.909H188.894V265.085C188.894 266.031 188.433 266.849 187.896 267.616L188.715 268.281C189.737 267.463 190.325 266.108 190.325 265.06V263.909ZM196.852 267.182H194.755V264.83H193.247V267.182H191.764V268.46H193.247V274.597C193.247 276.31 194.627 277.128 195.906 277.128C196.468 277.128 196.826 277.026 197.031 276.949L196.724 275.594C196.596 275.619 196.392 275.67 196.059 275.67C195.394 275.67 194.755 275.466 194.755 274.188V268.46H196.852V267.182ZM204.388 277H205.845V275.491H206.024C206.357 276.028 206.996 277.205 208.888 277.205C211.343 277.205 213.056 275.236 213.056 272.116C213.056 269.023 211.343 267.054 208.862 267.054C206.945 267.054 206.357 268.23 206.024 268.741H205.896V263.909H204.388V277ZM205.871 272.091C205.871 269.892 206.843 268.409 208.683 268.409C210.601 268.409 211.547 270.02 211.547 272.091C211.547 274.188 210.575 275.849 208.683 275.849C206.868 275.849 205.871 274.315 205.871 272.091ZM219.48 277.205C221.474 277.205 222.931 276.207 223.392 274.724L221.934 274.315C221.551 275.338 220.662 275.849 219.48 275.849C217.709 275.849 216.488 274.705 216.418 272.602H223.545V271.963C223.545 268.307 221.372 267.054 219.326 267.054C216.667 267.054 214.903 269.151 214.903 272.168C214.903 275.185 216.642 277.205 219.48 277.205ZM216.418 271.298C216.52 269.771 217.6 268.409 219.326 268.409C220.963 268.409 222.011 269.636 222.011 271.298H216.418ZM51.7795 289.182H49.6829V286.83H48.1744V289.182H46.6914V290.46H48.1744V296.597C48.1744 298.31 49.555 299.128 50.8335 299.128C51.396 299.128 51.7539 299.026 51.9585 298.949L51.6516 297.594C51.5238 297.619 51.3192 297.67 50.9869 297.67C50.3221 297.67 49.6829 297.466 49.6829 296.188V290.46H51.7795V289.182ZM56.9379 299.23C58.6509 299.23 59.5458 298.31 59.8526 297.67H59.9293V299H61.4379V292.531C61.4379 289.412 59.06 289.054 57.8072 289.054C56.3242 289.054 54.6367 289.565 53.8697 291.355L55.3015 291.866C55.6339 291.151 56.4201 290.384 57.8583 290.384C59.2454 290.384 59.9293 291.119 59.9293 292.378V292.429C59.9293 293.158 59.1879 293.094 57.3981 293.324C55.5763 293.56 53.5884 293.963 53.5884 296.213C53.5884 298.131 55.0714 299.23 56.9379 299.23ZM57.168 297.875C55.9663 297.875 55.0969 297.338 55.0969 296.29C55.0969 295.139 56.1452 294.781 57.3214 294.628C57.9606 294.551 59.6737 294.372 59.9293 294.065V295.446C59.9293 296.673 58.9577 297.875 57.168 297.875ZM64.1912 299H65.6998V292.787C65.6998 291.457 66.748 290.486 68.1799 290.486C68.5826 290.486 68.998 290.562 69.1003 290.588V289.054C68.9277 289.041 68.5314 289.028 68.3077 289.028C67.1316 289.028 66.1088 289.693 65.7509 290.665H65.6486V289.182H64.1912V299ZM74.5527 302.886C76.905 302.886 78.7971 301.812 78.7971 299.281V289.182H77.3397V290.741H77.1863C76.8539 290.23 76.2402 289.054 74.3226 289.054C71.8425 289.054 70.1294 291.023 70.1294 294.04C70.1294 297.108 71.9192 298.847 74.2971 298.847C76.2147 298.847 76.8283 297.722 77.1607 297.185H77.2885V299.179C77.2885 300.815 76.138 301.557 74.5527 301.557C72.7694 301.557 72.1429 300.617 71.7402 300.074L70.5385 300.918C71.1522 301.947 72.3603 302.886 74.5527 302.886ZM74.5016 297.491C72.6096 297.491 71.638 296.06 71.638 294.014C71.638 292.02 72.584 290.409 74.5016 290.409C76.3425 290.409 77.3141 291.892 77.3141 294.014C77.3141 296.188 76.3169 297.491 74.5016 297.491ZM85.6749 299.205C87.6692 299.205 89.1266 298.207 89.5868 296.724L88.1294 296.315C87.7459 297.338 86.8574 297.849 85.6749 297.849C83.9043 297.849 82.6834 296.705 82.6131 294.602H89.7402V293.963C89.7402 290.307 87.5669 289.054 85.5215 289.054C82.8624 289.054 81.0982 291.151 81.0982 294.168C81.0982 297.185 82.8368 299.205 85.6749 299.205ZM82.6131 293.298C82.7154 291.771 83.7956 290.409 85.5215 290.409C87.1578 290.409 88.2061 291.636 88.2061 293.298H82.6131ZM96.3049 289.182H94.2083V286.83H92.6998V289.182H91.2168V290.46H92.6998V296.597C92.6998 298.31 94.0804 299.128 95.3588 299.128C95.9213 299.128 96.2793 299.026 96.4838 298.949L96.177 297.594C96.0492 297.619 95.8446 297.67 95.5123 297.67C94.8475 297.67 94.2083 297.466 94.2083 296.188V290.46H96.3049V289.182ZM102.585 299.205C104.579 299.205 106.037 298.207 106.497 296.724L105.04 296.315C104.656 297.338 103.768 297.849 102.585 297.849C100.814 297.849 99.5936 296.705 99.5233 294.602H106.65V293.963C106.65 290.307 104.477 289.054 102.432 289.054C99.7725 289.054 98.0083 291.151 98.0083 294.168C98.0083 297.185 99.747 299.205 102.585 299.205ZM99.5233 293.298C99.6255 291.771 100.706 290.409 102.432 290.409C104.068 290.409 105.116 291.636 105.116 293.298H99.5233ZM112.653 299.205C114.545 299.205 115.184 298.028 115.516 297.491H115.695V299H117.153V285.909H115.644V290.741H115.516C115.184 290.23 114.596 289.054 112.678 289.054C110.198 289.054 108.485 291.023 108.485 294.116C108.485 297.236 110.198 299.205 112.653 299.205ZM112.857 297.849C110.965 297.849 109.993 296.188 109.993 294.091C109.993 292.02 110.939 290.409 112.857 290.409C114.698 290.409 115.67 291.892 115.67 294.091C115.67 296.315 114.672 297.849 112.857 297.849ZM125.392 299H126.849V297.491H127.028C127.361 298.028 128 299.205 129.892 299.205C132.346 299.205 134.059 297.236 134.059 294.116C134.059 291.023 132.346 289.054 129.866 289.054C127.949 289.054 127.361 290.23 127.028 290.741H126.9V285.909H125.392V299ZM126.875 294.091C126.875 291.892 127.846 290.409 129.687 290.409C131.605 290.409 132.551 292.02 132.551 294.091C132.551 296.188 131.579 297.849 129.687 297.849C127.872 297.849 126.875 296.315 126.875 294.091ZM136.987 302.682C138.349 302.682 139.307 301.96 139.876 300.432L144.057 289.207L142.407 289.182L139.697 297.006H139.595L136.885 289.182H135.248L138.879 299.051L138.598 299.818C138.048 301.314 137.371 301.455 136.271 301.173L135.888 302.503C136.041 302.58 136.476 302.682 136.987 302.682ZM155.104 299.205C157.277 299.205 158.709 297.875 158.964 296.136H157.456C157.175 297.21 156.28 297.849 155.104 297.849C153.314 297.849 152.163 296.366 152.163 294.091C152.163 291.866 153.339 290.409 155.104 290.409C156.433 290.409 157.226 291.227 157.456 292.122H158.964C158.709 290.281 157.149 289.054 155.078 289.054C152.419 289.054 150.655 291.151 150.655 294.142C150.655 297.082 152.342 299.205 155.104 299.205ZM164.059 299.23C165.772 299.23 166.667 298.31 166.974 297.67H167.05V299H168.559V292.531C168.559 289.412 166.181 289.054 164.928 289.054C163.445 289.054 161.758 289.565 160.991 291.355L162.423 291.866C162.755 291.151 163.541 290.384 164.979 290.384C166.366 290.384 167.05 291.119 167.05 292.378V292.429C167.05 293.158 166.309 293.094 164.519 293.324C162.697 293.56 160.71 293.963 160.71 296.213C160.71 298.131 162.192 299.23 164.059 299.23ZM164.289 297.875C163.087 297.875 162.218 297.338 162.218 296.29C162.218 295.139 163.266 294.781 164.442 294.628C165.082 294.551 166.795 294.372 167.05 294.065V295.446C167.05 296.673 166.079 297.875 164.289 297.875ZM171.312 299H172.821V292.787C172.821 291.457 173.869 290.486 175.301 290.486C175.704 290.486 176.119 290.562 176.221 290.588V289.054C176.049 289.041 175.653 289.028 175.429 289.028C174.253 289.028 173.23 289.693 172.872 290.665H172.77V289.182H171.312V299ZM181.418 299.205C183.31 299.205 183.949 298.028 184.282 297.491H184.461V299H185.918V285.909H184.41V290.741H184.282C183.949 290.23 183.361 289.054 181.444 289.054C178.964 289.054 177.251 291.023 177.251 294.116C177.251 297.236 178.964 299.205 181.418 299.205ZM181.623 297.849C179.731 297.849 178.759 296.188 178.759 294.091C178.759 292.02 179.705 290.409 181.623 290.409C183.464 290.409 184.435 291.892 184.435 294.091C184.435 296.315 183.438 297.849 181.623 297.849ZM195.845 291.381C195.372 289.987 194.311 289.054 192.368 289.054C190.297 289.054 188.763 290.23 188.763 291.892C188.763 293.247 189.568 294.155 191.371 294.577L193.007 294.96C193.998 295.19 194.464 295.663 194.464 296.341C194.464 297.185 193.569 297.875 192.163 297.875C190.93 297.875 190.156 297.344 189.888 296.29L188.456 296.648C188.807 298.316 190.182 299.205 192.189 299.205C194.471 299.205 196.024 297.958 196.024 296.264C196.024 294.896 195.167 294.033 193.416 293.605L191.959 293.247C190.795 292.96 190.271 292.57 190.271 291.815C190.271 290.972 191.166 290.358 192.368 290.358C193.684 290.358 194.228 291.087 194.49 291.764L195.845 291.381ZM199.394 299.102C200.027 299.102 200.545 298.585 200.545 297.952C200.545 297.319 200.027 296.801 199.394 296.801C198.761 296.801 198.244 297.319 198.244 297.952C198.244 298.585 198.761 299.102 199.394 299.102Z" fill="black" fill-opacity="0.87"/>
<path d="M216 160H236V176L228 184.5L236 192V208H226H216V160Z" fill="#FF4B3C" stroke="black" stroke-width="2"/>
<path d="M216 160H236V176L228 184.5L236 192V208H226H216V160Z" fill="black" fill-opacity="0.17"/>
<path d="M224 168L216 160V168H224Z" fill="black" fill-opacity="0.38" stroke="black" stroke-width="2" stroke-linejoin="bevel"/>
<path d="M248 176L240 184L248 192V176Z" fill="#D4D4D4"/>
<path d="M32 160H12V176L20 184.5L12 192V208H22H32V160Z" fill="#FF4B3C" stroke="black" stroke-width="2"/>
<path d="M32 160H12V176L20 184.5L12 192V208H22H32V160Z" fill="black" fill-opacity="0.17"/>
<path d="M24 168L32 160V168H24Z" fill="black" fill-opacity="0.38" stroke="black" stroke-width="2" stroke-linejoin="bevel"/>
<path d="M0 176L8 184L0 192V176Z" fill="#D4D4D4"/>
<path d="M224 168H24V216H224V168Z" fill="#FF4B3C" stroke="black" stroke-width="2"/>
<path d="M32.3686 201.452L34.6006 200.732L40.4326 181.472C41.0086 181.376 41.7886 181.28 42.7726 181.184C43.7566 181.064 44.4286 180.992 44.7886 180.968C44.8846 180.968 45.1006 181.064 45.4366 181.256L51.3406 200.732L53.5726 201.452V203H44.7526V201.236L47.2006 200.552L45.9046 195.908H39.3526L38.1646 200.552L40.7206 201.236V203H32.3686V201.452ZM45.2926 193.748L42.8446 184.46H42.4126L39.9646 193.748H45.2926ZM60.6657 203.36C59.5377 203.36 58.4937 203.072 57.5337 202.496C56.5977 201.92 55.8417 201.056 55.2657 199.904C54.7137 198.752 54.4377 197.348 54.4377 195.692C54.4377 194.516 54.5217 193.412 54.6897 192.38C54.8577 191.348 55.0737 190.58 55.3377 190.076C55.6017 189.716 56.1297 189.236 56.9217 188.636C57.7137 188.012 58.5057 187.472 59.2977 187.016C60.1137 186.56 60.6777 186.332 60.9897 186.332C62.3097 186.332 63.3897 186.548 64.2297 186.98C65.0697 187.412 65.7177 188.228 66.1737 189.428C66.6297 190.604 66.8577 192.272 66.8577 194.432L58.3617 195.152C58.3617 196.472 58.5297 197.528 58.8657 198.32C59.2257 199.112 59.6457 199.676 60.1257 200.012C60.6057 200.348 61.0617 200.516 61.4937 200.516L66.3177 200.336V201.956C65.4777 202.244 64.4097 202.556 63.1137 202.892C61.8177 203.204 61.0017 203.36 60.6657 203.36ZM63.0057 192.884C63.0057 190.052 62.2617 188.624 60.7737 188.6H60.4857C60.1017 188.6 59.7537 188.66 59.4417 188.78C59.1537 188.876 58.9137 189.404 58.7217 190.364C58.5297 191.3 58.4337 192.344 58.4337 193.496L63.0057 192.884ZM76.2217 209.552C75.3817 209.552 74.1457 209.432 72.5137 209.192C70.8817 208.976 69.6577 208.772 68.8417 208.58L69.1657 205.844L73.5937 201.848C72.8977 201.8 72.2257 201.488 71.5777 200.912C70.9297 200.336 70.3897 199.52 69.9577 198.464C69.5497 197.408 69.3457 196.184 69.3457 194.792C69.3457 194 69.4177 193.148 69.5617 192.236C69.7057 191.324 69.8977 190.604 70.1377 190.076C70.5217 189.548 71.4097 188.816 72.8017 187.88C74.2177 186.92 75.1417 186.44 75.5737 186.44C75.8377 186.44 76.7377 186.56 78.2737 186.8C79.8097 187.04 80.9857 187.232 81.8017 187.376V203.756C81.8017 204.5 81.4537 205.328 80.7577 206.24C80.0857 207.152 79.2937 207.932 78.3817 208.58C77.4697 209.228 76.7497 209.552 76.2217 209.552ZM75.6817 199.94C75.8977 199.94 76.6897 199.46 78.0577 198.5V189.428C77.6017 189.26 77.0257 189.092 76.3297 188.924C75.6577 188.732 75.1537 188.636 74.8177 188.636C73.7617 188.636 73.2337 190.652 73.2337 194.684C73.2337 195.908 73.3657 196.916 73.6297 197.708C73.9177 198.476 74.2537 199.04 74.6377 199.4C75.0217 199.76 75.3697 199.94 75.6817 199.94ZM77.3017 207.716C77.5657 207.716 77.7817 207.164 77.9497 206.06C78.1177 204.956 78.2017 203.792 78.2017 202.568V200.804L78.0217 200.732C77.1817 201.5 75.2017 203.384 72.0817 206.384V206.6C72.4417 206.744 73.2817 206.96 74.6017 207.248C75.9457 207.56 76.8457 207.716 77.3017 207.716ZM87.5822 203.36C87.4382 203.36 87.1502 203.168 86.7182 202.784C86.2862 202.376 86.0702 202.112 86.0702 201.992V188.996L84.7382 188.564V187.052C86.8982 186.668 88.0982 186.476 88.3382 186.476C88.4822 186.476 88.7582 186.668 89.1662 187.052C89.5742 187.412 89.7782 187.676 89.7782 187.844V200.804L91.0742 201.2V202.712C88.9862 203.144 87.8222 203.36 87.5822 203.36ZM85.8182 179.78L88.9502 179.6L89.5622 180.428L89.3462 183.668H86.1062L85.8182 179.78ZM100.23 203.36C99.702 203.36 98.646 203.3 97.062 203.18C95.502 203.084 94.302 202.988 93.462 202.892L93.534 197.528L95.514 197.492L96.27 200.264C96.798 200.456 97.446 200.636 98.214 200.804C99.006 200.948 99.582 201.02 99.942 201.02C100.134 201.02 100.35 200.78 100.59 200.3C100.83 199.796 100.95 199.364 100.95 199.004C100.95 198.428 100.758 197.972 100.374 197.636C100.014 197.3 99.258 196.82 98.106 196.196C97.818 196.052 97.602 195.932 97.458 195.836C95.97 195.02 94.938 194.3 94.362 193.676C93.81 193.052 93.534 192.308 93.534 191.444C93.534 190.628 93.606 190.028 93.75 189.644C94.158 189.02 94.818 188.336 95.73 187.592C96.666 186.848 97.338 186.476 97.746 186.476C98.586 186.476 99.654 186.512 100.95 186.584C102.27 186.632 103.266 186.692 103.938 186.764L103.83 191.3H101.634L101.382 189.392C101.19 189.32 100.566 189.2 99.51 189.032C98.478 188.864 97.842 188.78 97.602 188.78C97.122 188.78 96.882 189.236 96.882 190.148C96.882 190.58 97.062 190.964 97.422 191.3C97.782 191.612 98.178 191.9 98.61 192.164C99.042 192.428 99.342 192.608 99.51 192.704L100.374 193.208C101.694 193.928 102.75 194.624 103.542 195.296C104.334 195.968 104.73 196.724 104.73 197.564C104.73 198.188 104.646 198.824 104.478 199.472C104.094 200.192 103.422 201.02 102.462 201.956C101.502 202.892 100.758 203.36 100.23 203.36ZM122.381 203.36C119.093 203.36 116.645 202.508 115.037 200.804C113.429 199.1 112.625 196.424 112.625 192.776C112.625 191.192 112.721 189.752 112.913 188.456C113.105 187.16 113.369 186.092 113.705 185.252C114.113 184.676 114.749 184.052 115.613 183.38C116.477 182.708 117.341 182.132 118.205 181.652C119.093 181.172 119.729 180.932 120.113 180.932C123.401 180.932 125.849 181.784 127.457 183.488C129.089 185.168 129.905 187.844 129.905 191.516C129.905 194.396 129.593 196.916 128.969 199.076C128.561 199.604 127.901 200.216 126.989 200.912C126.101 201.584 125.201 202.16 124.289 202.64C123.401 203.12 122.765 203.36 122.381 203.36ZM122.129 200.984C122.393 200.984 122.933 200.792 123.749 200.408C124.589 200 125.057 199.724 125.153 199.58C125.561 197.588 125.765 195.116 125.765 192.164C125.765 189.164 125.417 186.944 124.721 185.504C124.025 184.064 122.765 183.344 120.941 183.344C119.789 183.344 118.949 183.476 118.421 183.74C117.893 184.004 117.473 184.868 117.161 186.332C116.873 187.772 116.729 189.68 116.729 192.056C116.729 194.36 116.897 196.148 117.233 197.42C117.569 198.692 118.121 199.604 118.889 200.156C119.657 200.708 120.737 200.984 122.129 200.984ZM135.003 203.36C134.883 203.36 134.631 203.18 134.247 202.82C133.863 202.46 133.671 202.22 133.671 202.1V188.888H131.943V187.304L133.671 186.62V185.252C133.671 184.772 133.983 184.088 134.607 183.2C135.231 182.288 135.927 181.472 136.695 180.752C137.463 180.008 138.039 179.636 138.423 179.636C138.807 179.636 139.335 179.66 140.007 179.708C140.679 179.756 141.327 179.804 141.951 179.852C142.095 179.972 142.251 180.176 142.419 180.464C142.611 180.728 142.707 180.92 142.707 181.04C142.707 181.112 142.599 181.4 142.383 181.904C142.191 182.408 142.035 182.792 141.915 183.056C141.771 183.008 141.171 182.84 140.115 182.552C139.083 182.264 138.411 182.12 138.099 182.12C137.955 182.12 137.811 182.324 137.667 182.732C137.523 183.14 137.451 183.584 137.451 184.064L137.415 186.8H140.943V188.924H137.415V200.516L139.359 201.128V202.712C136.695 203.144 135.243 203.36 135.003 203.36ZM148.273 201.452L150.469 200.696V183.56L148.273 182.804V181.256H157.093V182.948L154.393 183.704V200.444L160.585 201.02L161.197 196.34H163.357L163.501 203H148.273V201.452ZM167.703 203.36C167.559 203.36 167.271 203.168 166.839 202.784C166.407 202.376 166.191 202.112 166.191 201.992V188.996L164.859 188.564V187.052C167.019 186.668 168.219 186.476 168.459 186.476C168.603 186.476 168.879 186.668 169.287 187.052C169.695 187.412 169.899 187.676 169.899 187.844V200.804L171.195 201.2V202.712C169.107 203.144 167.943 203.36 167.703 203.36ZM165.939 179.78L169.071 179.6L169.683 180.428L169.467 183.668H166.227L165.939 179.78ZM180.495 209.552C179.655 209.552 178.419 209.432 176.787 209.192C175.155 208.976 173.931 208.772 173.115 208.58L173.439 205.844L177.867 201.848C177.171 201.8 176.499 201.488 175.851 200.912C175.203 200.336 174.663 199.52 174.231 198.464C173.823 197.408 173.619 196.184 173.619 194.792C173.619 194 173.691 193.148 173.835 192.236C173.979 191.324 174.171 190.604 174.411 190.076C174.795 189.548 175.683 188.816 177.075 187.88C178.491 186.92 179.415 186.44 179.847 186.44C180.111 186.44 181.011 186.56 182.547 186.8C184.083 187.04 185.259 187.232 186.075 187.376V203.756C186.075 204.5 185.727 205.328 185.031 206.24C184.359 207.152 183.567 207.932 182.655 208.58C181.743 209.228 181.023 209.552 180.495 209.552ZM179.955 199.94C180.171 199.94 180.963 199.46 182.331 198.5V189.428C181.875 189.26 181.299 189.092 180.603 188.924C179.931 188.732 179.427 188.636 179.091 188.636C178.035 188.636 177.507 190.652 177.507 194.684C177.507 195.908 177.639 196.916 177.903 197.708C178.191 198.476 178.527 199.04 178.911 199.4C179.295 199.76 179.643 199.94 179.955 199.94ZM181.575 207.716C181.839 207.716 182.055 207.164 182.223 206.06C182.391 204.956 182.475 203.792 182.475 202.568V200.804L182.295 200.732C181.455 201.5 179.475 203.384 176.355 206.384V206.6C176.715 206.744 177.555 206.96 178.875 207.248C180.219 207.56 181.119 207.716 181.575 207.716ZM191.532 203.36C191.412 203.36 191.16 203.18 190.776 202.82C190.416 202.46 190.236 202.22 190.236 202.1V182.264L188.94 181.76V180.248C191.22 179.84 192.48 179.636 192.72 179.636C192.84 179.636 193.08 179.816 193.44 180.176C193.8 180.512 193.98 180.752 193.98 180.896L193.8 188.888L193.98 188.924C194.676 188.396 195.408 187.856 196.176 187.304C196.968 186.752 197.412 186.476 197.508 186.476C199.284 186.476 200.604 186.92 201.468 187.808C202.356 188.672 202.8 190.196 202.8 192.38V200.66L204.096 201.2V202.712C201.84 203.144 200.604 203.36 200.388 203.36C200.268 203.36 200.016 203.18 199.632 202.82C199.248 202.46 199.056 202.22 199.056 202.1V192.38C199.056 191.084 198.852 190.256 198.444 189.896C198.06 189.536 197.616 189.356 197.112 189.356C197.016 189.356 196.308 189.632 194.988 190.184C194.82 190.256 194.64 190.34 194.448 190.436C194.28 190.508 194.124 190.568 193.98 190.616V200.66L195.276 201.2V202.712C193.02 203.144 191.772 203.36 191.532 203.36ZM210.449 203.36C210.161 203.36 209.801 203.18 209.369 202.82C208.937 202.46 208.553 202.04 208.217 201.56C207.881 201.08 207.713 200.696 207.713 200.408V188.888H205.373V187.592L207.713 186.476L210.053 183.704C210.269 183.68 210.737 183.848 211.457 184.208V186.8H214.985V189.032H211.457V198.824C211.457 199.52 211.517 200 211.637 200.264C211.757 200.504 211.985 200.624 212.321 200.624L215.345 200.732V202.64C214.601 202.808 213.665 202.964 212.537 203.108C211.433 203.276 210.737 203.36 210.449 203.36Z" fill="white"/>
<defs>
<linearGradient id="paint0_linear_1062_19267" x1="124" y1="44" x2="124" y2="224" gradientUnits="userSpaceOnUse">
<stop stop-color="#FFCFA3"/>
<stop offset="1" stop-color="#C3C2C0" stop-opacity="0"/>
</linearGradient>
<linearGradient id="paint1_linear_1062_19267" x1="109.133" y1="113.479" x2="109.133" y2="134.473" gradientUnits="userSpaceOnUse">
<stop stop-color="#C4C4C4"/>
<stop offset="1" stop-color="#C4C4C4" stop-opacity="0"/>
</linearGradient>
<linearGradient id="paint2_linear_1062_19267" x1="128.657" y1="89.4617" x2="154.376" y2="142.515" gradientUnits="userSpaceOnUse">
<stop stop-color="white"/>
<stop offset="1" stop-color="#C4C4C4" stop-opacity="0"/>
</linearGradient>
<linearGradient id="paint3_linear_1062_19267" x1="124.75" y1="63.5" x2="124.75" y2="224.5" gradientUnits="userSpaceOnUse">
<stop stop-color="#921818"/>
<stop offset="1" stop-color="#D17777" stop-opacity="0"/>
</linearGradient>
<linearGradient id="paint4_linear_1062_19267" x1="101.5" y1="77" x2="101.5" y2="103" gradientUnits="userSpaceOnUse">
<stop stop-color="#FFC800"/>
<stop offset="0.683398" stop-color="#FFC800" stop-opacity="0"/>
</linearGradient>
<linearGradient id="paint5_linear_1062_19267" x1="94.5" y1="114" x2="94.5" y2="140" gradientUnits="userSpaceOnUse">
<stop stop-color="#FFC800"/>
<stop offset="0.683398" stop-color="#FFC800" stop-opacity="0"/>
</linearGradient>
<linearGradient id="paint6_linear_1062_19267" x1="105" y1="123" x2="105" y2="149" gradientUnits="userSpaceOnUse">
<stop stop-color="#FFC800"/>
<stop offset="0.683398" stop-color="#FFC800" stop-opacity="0"/>
</linearGradient>
<linearGradient id="paint7_linear_1062_19267" x1="121" y1="51" x2="121" y2="69" gradientUnits="userSpaceOnUse">
<stop stop-color="#FFC800"/>
<stop offset="0.683398" stop-color="#FFC800" stop-opacity="0"/>
</linearGradient>
<linearGradient id="paint8_linear_1062_19267" x1="112" y1="103" x2="112" y2="109" gradientUnits="userSpaceOnUse">
<stop stop-color="#FFC800"/>
<stop offset="0.683398" stop-color="#FFC800" stop-opacity="0"/>
</linearGradient>
</defs>
</svg>
