<svg width="248" height="320" viewBox="0 0 248 320" fill="none" xmlns="http://www.w3.org/2000/svg">
<path d="M0 6C0 2.6863 2.68629 0 6 0H242C245.314 0 248 2.68629 248 6V314C248 317.314 245.314 320 242 320H5.99999C2.68629 320 0 317.314 0 314V6Z" fill="white"/>
<rect x="0.5" y="0.5" width="247" height="319" rx="5.5" fill="white" stroke="#D4D4D4"/>
<rect x="44" y="44" width="160" height="180" fill="url(#paint0_linear_1061_19059)" fill-opacity="0.3"/>
<circle cx="137.5" cy="37.5" r="14.5" fill="white"/>
<circle cx="89.5" cy="65.5" r="6.5" fill="white"/>
<circle cx="165.5" cy="65.5" r="5.5" fill="white"/>
<path d="M109.5 111.5L132 115V108.5L140.5 141.5L141.5 146.5L135.5 143.5L140.5 162L143 182.5L140.5 205L124.5 207L106 196L114 141.5L109.5 133L121 117L109.5 111.5Z" fill="url(#paint1_linear_1061_19059)"/>
<path d="M106 115L116.5 118.5L108 128.5L93.5 130.5L85.5 135L87.5 121L93.5 122.5L104 121L106 115Z" fill="url(#paint2_linear_1061_19059)"/>
<path d="M106 106.5L116.5 99.5L114 90.5L108 86.5L102 84.5L112.5 83L124.5 88.5L130.5 94.5C137 96.1667 149.6 99.5 148 99.5C146.4 99.5 139 102.167 135.5 103.5L133.5 99.5L127.5 96L118.5 98V103.5L106 106.5Z" fill="url(#paint3_linear_1061_19059)"/>
<path d="M139.5 113L135.5 115.5L137 124L145 143.5L142.5 147L148 161L141 153.5L148 173L161.5 172L150 153.5L155 156L142.5 132V128L161.5 139V133.5L158.5 128L161.5 123H150L139.5 113Z" fill="#6F6689"/>
<path d="M108 112.5L123 113.5L116.5 105.5H120M139.5 111L134 113.5L137 105.5H134M127.5 116L133.5 119.5M133.5 119.5L135.5 115.5M133.5 119.5C134.333 120.5 135.2 123.5 136 125.5C137 128 142 140 142 140M117.5 118.5L109.5 128L93 131.5L92.9524 130.5M110 114V116L108.5 115L103.5 118.5L104 120.5L102.5 120L92.5 121L92.5476 122M139.5 113L141 114.5L139 116L141.688 115L143.188 116L151.5 124L166 123M142 127.5H143.5L147 131.5L161.5 138.5L163.5 130.5H166L165.5 126M118 120.5L113 131.5L108.5 136L110.5 138.5C110.5 138.5 114.195 137.289 117.5 133C120.89 128.601 120 122 120 122M117.5 137L109.5 142L114.5 144.5L119.5 143L115.5 149L113 157L114.5 157.5L112 163.5L111 179.5L108 190L107 195.5L125.5 206L132 205.5M136 149C136 149.333 136 150.3 136 151.5C136 153 139.5 163.5 140 168.5C140.4 172.5 141.5 179.833 142 183M140.5 143L140 146.5L137.812 144.5M145.5 149L150 157C150 157 160.333 169.833 161.5 172M142 129.5C142.833 130.667 154.1 154.3 154.5 155.5M127 93.5H124.5L119 101L120 105.5M120 105.5L117.5 109.5L128.5 113M92.5476 122L86.5 120L86.2333 122M92.5476 122L92.9524 130.5M92.9524 130.5L84.5 135L85.6333 126.5M86.2333 122L78.5 121L74.5 122.5M86.2333 122L85.6333 126.5M79.5 123C79.5 123.4 79.5 124.833 79.5 125.5L74.5 129.312H71.5M85.6333 126.5L78.5 130L76 130.5L74 125.5M130.5 113L124 107.75C123.5 106.667 122.4 104.3 122 103.5C121.5 102.5 126 100 127 98C127.8 96.4 127.667 95 127.5 94.5C128.667 95.5 131 97.6 131 98C131 98.4 131.333 99.1667 131.5 99.5L134 101V107L130.5 109L132 112.5L130.5 113Z" stroke="black" stroke-width="2"/>
<path d="M159 125.5V130L161 132.5M161 124.5L165 119.5M165.5 121.5H169V126.5L164 129M173 90L159 164M183.5 81.5L180 83.5L179.429 86.5M167.5 78L170 81.5L169.396 84.1582M175 78L174.5 82L174 84.625M173.5 88.125L174 84.625M179.429 86.5L178 94L179 98.5L175 97.5L172.5 92.6429L169 96.5L165 96L167.5 92.5L169.396 84.1582M179.429 86.5L182.5 87M169.396 84.1582L165.5 83.5M174 84.625L172 85.125M174 84.625L177 86" stroke="black" stroke-width="2"/>
<path d="M138 103.5L146.5 99.0001C143.082 97.4334 135.793 94.6739 130.5 94.4036M114 106L106.5 105.5C108.675 104.237 113.496 100.424 117 98.6689M130.5 94.4036C129.599 94.3576 128.756 94.3837 128 94.5001C124.989 94.9633 121.821 96.2542 117 98.6689M130.5 94.4036C128.5 92.1024 123.8 87.0998 121 85.4998C120.655 85.3029 120.322 85.2052 120 85.1912M117 98.6689L114.5 92.0168C115.961 89.24 117.705 85.0917 120 85.1912M120 85.1912L111.5 82.5L110 87L113.375 91M110.75 82.5L102 85.1912L110.25 85.4998" stroke="black" stroke-width="2"/>
<path d="M56.5 96L65.5 105M65.5 105H69L77 97.5L79 102.5M65.5 105L64.5 95L72 103.05M79 102.5L81 101.5L85.5 114L72 119.5H69L59 107.5L52.5 96L65.5 107.5H69L79 102.5Z" stroke="black" stroke-width="2"/>
<circle cx="166" cy="65" r="9" stroke="black" stroke-width="2"/>
<circle cx="138" cy="39" r="12" stroke="black" stroke-width="2"/>
<circle cx="92" cy="65" r="5" stroke="black" stroke-width="2"/>
<path d="M104 65C104 62.6266 103.296 60.3065 101.978 58.3332C100.659 56.3598 98.7849 54.8217 96.5922 53.9134C94.3995 53.0052 91.9867 52.7676 89.6589 53.2306C87.3311 53.6936 85.1929 54.8365 83.5147 56.5147C81.8365 58.1929 80.6936 60.3311 80.2306 62.6589C79.7676 64.9867 80.0052 67.3995 80.9134 69.5922C81.8217 71.7849 83.3598 73.6591 85.3332 74.9776C87.3065 76.2962 89.6266 77 92 77" stroke="black" stroke-width="2"/>
<path d="M138 57C141.56 57 145.04 55.9443 148 53.9665C150.96 51.9886 153.267 49.1774 154.63 45.8883C155.992 42.5992 156.349 38.98 155.654 35.4884C154.96 31.9967 153.245 28.7894 150.728 26.2721C148.211 23.7547 145.003 22.0404 141.512 21.3459C138.02 20.6513 134.401 21.0078 131.112 22.3702C127.823 23.7325 125.011 26.0396 123.034 28.9997C121.056 31.9598 120 35.4399 120 39" stroke="black" stroke-width="2"/>
<path d="M166 77C168.373 77 170.693 76.2962 172.667 74.9776C174.64 73.6591 176.178 71.7849 177.087 69.5922C177.995 67.3995 178.232 64.9867 177.769 62.6589C177.306 60.3311 176.164 58.1929 174.485 56.5147C172.807 54.8365 170.669 53.6936 168.341 53.2306C166.013 52.7676 163.601 53.0052 161.408 53.9134C159.215 54.8217 157.341 56.3598 156.022 58.3332C154.704 60.3065 154 62.6266 154 65" stroke="black" stroke-width="2"/>
<path d="M44 43V59L48 55M44 43H60L56 47M44 43L48 47" stroke="black" stroke-width="2"/>
<path d="M44 223V207L48 211M44 223H60L56 219M44 223L48 219" stroke="black" stroke-width="2"/>
<path d="M204 43L188 43L192 47M204 43L204 59L200 55M204 43L200 47" stroke="black" stroke-width="2"/>
<path d="M204 223L188 223L192 219M204 223L204 207L200 211M204 223L200 219" stroke="black" stroke-width="2"/>
<path d="M60 43H120V40.5" stroke="black" stroke-width="2"/>
<path d="M120 43V47H62L58 51" stroke="black" stroke-width="2"/>
<path d="M204 59V127M204 127H200M204 127V143" stroke="black" stroke-width="2"/>
<path d="M200 87V127M200 127H196M200 127V143" stroke="black" stroke-width="2"/>
<path d="M161.5 43L188 43M158 47L180.5 47" stroke="black" stroke-width="2"/>
<path d="M44 59V127M44 127H48V61L52 56.8125M44 127V143" stroke="black" stroke-width="2"/>
<path d="M24.7539 255C28.7425 255 30.9925 252.52 30.9925 248.429C30.9925 244.364 28.7425 241.909 24.9329 241.909H20.7141V255H24.7539ZM22.2994 253.594V243.315H24.8306C27.8988 243.315 29.4585 245.259 29.4585 248.429C29.4585 251.625 27.8988 253.594 24.6516 253.594H22.2994ZM33.4471 255H34.9556V248.787C34.9556 247.457 36.0039 246.486 37.4357 246.486C37.8384 246.486 38.2539 246.562 38.3562 246.588V245.054C38.1836 245.041 37.7873 245.028 37.5636 245.028C36.3874 245.028 35.3647 245.693 35.0067 246.665H34.9045V245.182H33.4471V255ZM43.0336 255.23C44.7466 255.23 45.6415 254.31 45.9483 253.67H46.025V255H47.5336V248.531C47.5336 245.412 45.1557 245.054 43.9029 245.054C42.4199 245.054 40.7324 245.565 39.9654 247.355L41.3972 247.866C41.7296 247.151 42.5158 246.384 43.954 246.384C45.3411 246.384 46.025 247.119 46.025 248.378V248.429C46.025 249.158 45.2836 249.094 43.4938 249.324C41.6721 249.56 39.6841 249.963 39.6841 252.213C39.6841 254.131 41.1671 255.23 43.0336 255.23ZM43.2637 253.875C42.062 253.875 41.1926 253.338 41.1926 252.29C41.1926 251.139 42.2409 250.781 43.4171 250.628C44.0563 250.551 45.7694 250.372 46.025 250.065V251.446C46.025 252.673 45.0534 253.875 43.2637 253.875ZM52.5114 255H53.9943L56.142 247.457H56.2955L58.4432 255H59.9261L62.9176 245.182H61.3324L59.2102 252.673H59.108L57.0369 245.182H55.4261L53.3295 252.699H53.2273L51.1051 245.182H49.5199L52.5114 255ZM74.2443 245.182H72.1477V242.83H70.6392V245.182H69.1562V246.46H70.6392V252.597C70.6392 254.31 72.0199 255.128 73.2983 255.128C73.8608 255.128 74.2188 255.026 74.4233 254.949L74.1165 253.594C73.9886 253.619 73.7841 253.67 73.4517 253.67C72.7869 253.67 72.1477 253.466 72.1477 252.188V246.46H74.2443V245.182ZM78.233 249.094C78.233 247.381 79.326 246.409 80.8153 246.409C82.2344 246.409 83.0909 247.304 83.0909 248.864V255H84.5994V248.761C84.5994 246.237 83.2571 245.054 81.25 245.054C79.7031 245.054 78.821 245.7 78.3608 246.716H78.233V241.909H76.7244V255H78.233V249.094ZM87.3592 255H88.8677V245.182H87.3592V255ZM88.1262 243.545C88.7143 243.545 89.2001 243.085 89.2001 242.523C89.2001 241.96 88.7143 241.5 88.1262 241.5C87.5382 241.5 87.0524 241.96 87.0524 242.523C87.0524 243.085 87.5382 243.545 88.1262 243.545ZM98.5852 247.381C98.1122 245.987 97.0511 245.054 95.108 245.054C93.0369 245.054 91.5028 246.23 91.5028 247.892C91.5028 249.247 92.3082 250.155 94.1108 250.577L95.7472 250.96C96.7379 251.19 97.2045 251.663 97.2045 252.341C97.2045 253.185 96.3097 253.875 94.9034 253.875C93.6697 253.875 92.8963 253.344 92.6278 252.29L91.196 252.648C91.5476 254.316 92.9219 255.205 94.929 255.205C97.2109 255.205 98.7642 253.958 98.7642 252.264C98.7642 250.896 97.9077 250.033 96.1562 249.605L94.6989 249.247C93.5355 248.96 93.0114 248.57 93.0114 247.815C93.0114 246.972 93.9062 246.358 95.108 246.358C96.4247 246.358 96.968 247.087 97.2301 247.764L98.5852 247.381ZM102.134 255.102C102.767 255.102 103.285 254.585 103.285 253.952C103.285 253.319 102.767 252.801 102.134 252.801C101.502 252.801 100.984 253.319 100.984 253.952C100.984 254.585 101.502 255.102 102.134 255.102ZM113.637 255H115.273L118.162 244.568H118.265L121.154 255H122.79L126.37 241.909H124.759L122.023 252.571H121.895L119.108 241.909H117.319L114.532 252.571H114.404L111.668 241.909H110.057L113.637 255ZM129.649 249.094C129.649 247.381 130.742 246.409 132.231 246.409C133.65 246.409 134.507 247.304 134.507 248.864V255H136.015V248.761C136.015 246.237 134.673 245.054 132.666 245.054C131.119 245.054 130.237 245.7 129.777 246.716H129.649V241.909H128.14V255H129.649V249.094ZM138.775 255H140.284V245.182H138.775V255ZM139.542 243.545C140.13 243.545 140.616 243.085 140.616 242.523C140.616 241.96 140.13 241.5 139.542 241.5C138.954 241.5 138.468 241.96 138.468 242.523C138.468 243.085 138.954 243.545 139.542 243.545ZM144.555 241.909H143.047V255H144.555V241.909ZM151.435 255.205C153.429 255.205 154.886 254.207 155.347 252.724L153.889 252.315C153.506 253.338 152.617 253.849 151.435 253.849C149.664 253.849 148.443 252.705 148.373 250.602H155.5V249.963C155.5 246.307 153.327 245.054 151.281 245.054C148.622 245.054 146.858 247.151 146.858 250.168C146.858 253.185 148.597 255.205 151.435 255.205ZM148.373 249.298C148.475 247.771 149.555 246.409 151.281 246.409C152.918 246.409 153.966 247.636 153.966 249.298H148.373ZM162.857 255H164.366V245.182H162.857V255ZM163.624 243.545C164.212 243.545 164.698 243.085 164.698 242.523C164.698 241.96 164.212 241.5 163.624 241.5C163.036 241.5 162.55 241.96 162.55 242.523C162.55 243.085 163.036 243.545 163.624 243.545ZM168.637 249.094C168.637 247.381 169.698 246.409 171.143 246.409C172.543 246.409 173.393 247.323 173.393 248.864V255H174.901V248.761C174.901 246.256 173.566 245.054 171.578 245.054C170.095 245.054 169.174 245.719 168.714 246.716H168.586V245.182H167.129V255H168.637V249.094ZM184.229 249.094C184.229 247.381 185.322 246.409 186.811 246.409C188.23 246.409 189.087 247.304 189.087 248.864V255H190.596V248.761C190.596 246.237 189.253 245.054 187.246 245.054C185.699 245.054 184.817 245.7 184.357 246.716H184.229V241.909H182.721V255H184.229V249.094ZM196.244 255.23C197.958 255.23 198.852 254.31 199.159 253.67H199.236V255H200.744V248.531C200.744 245.412 198.367 245.054 197.114 245.054C195.631 245.054 193.943 245.565 193.176 247.355L194.608 247.866C194.941 247.151 195.727 246.384 197.165 246.384C198.552 246.384 199.236 247.119 199.236 248.378V248.429C199.236 249.158 198.494 249.094 196.705 249.324C194.883 249.56 192.895 249.963 192.895 252.213C192.895 254.131 194.378 255.23 196.244 255.23ZM196.475 253.875C195.273 253.875 194.404 253.338 194.404 252.29C194.404 251.139 195.452 250.781 196.628 250.628C197.267 250.551 198.98 250.372 199.236 250.065V251.446C199.236 252.673 198.264 253.875 196.475 253.875ZM205.006 249.094C205.006 247.381 206.067 246.409 207.512 246.409C208.912 246.409 209.762 247.323 209.762 248.864V255H211.271V248.761C211.271 246.256 209.935 245.054 207.947 245.054C206.464 245.054 205.543 245.719 205.083 246.716H204.955V245.182H203.498V255H205.006V249.094ZM217.735 255.205C219.627 255.205 220.266 254.028 220.598 253.491H220.777V255H222.235V241.909H220.726V246.741H220.598C220.266 246.23 219.678 245.054 217.76 245.054C215.28 245.054 213.567 247.023 213.567 250.116C213.567 253.236 215.28 255.205 217.735 255.205ZM217.939 253.849C216.047 253.849 215.075 252.188 215.075 250.091C215.075 248.02 216.021 246.409 217.939 246.409C219.78 246.409 220.752 247.892 220.752 250.091C220.752 252.315 219.754 253.849 217.939 253.849ZM227.457 253.21H225.82L225.744 253.926C225.558 255.658 225.194 257.384 225.028 258.196H226.178C226.485 257.327 227.137 255.358 227.355 253.901L227.457 253.21ZM23.3165 276.105H24.7483V272.602H28.2512V271.17H24.7483V267.668H23.3165V271.17H19.8137V272.602H23.3165V276.105ZM35.9232 263.909H34.338L31.0653 266.082V267.693L34.2613 265.571H34.338V277H35.9232V263.909ZM44.7762 280.682H46.2847V275.491H46.4126C46.7449 276.028 47.3841 277.205 49.2762 277.205C51.7307 277.205 53.4438 275.236 53.4438 272.116C53.4438 269.023 51.7307 267.054 49.2506 267.054C47.333 267.054 46.7449 268.23 46.4126 268.741H46.2336V267.182H44.7762V280.682ZM46.2591 272.091C46.2591 269.892 47.2307 268.409 49.0716 268.409C50.9893 268.409 51.9353 270.02 51.9353 272.091C51.9353 274.188 50.9637 275.849 49.0716 275.849C47.2563 275.849 46.2591 274.315 46.2591 272.091ZM59.7336 277.205C62.3927 277.205 64.1824 275.185 64.1824 272.142C64.1824 269.074 62.3927 267.054 59.7336 267.054C57.0745 267.054 55.2847 269.074 55.2847 272.142C55.2847 275.185 57.0745 277.205 59.7336 277.205ZM59.7336 275.849C57.7137 275.849 56.7932 274.111 56.7932 272.142C56.7932 270.173 57.7137 268.409 59.7336 268.409C61.7535 268.409 62.6739 270.173 62.6739 272.142C62.6739 274.111 61.7535 275.849 59.7336 275.849ZM66.4852 277H67.9937V267.182H66.4852V277ZM67.2522 265.545C67.8403 265.545 68.3261 265.085 68.3261 264.523C68.3261 263.96 67.8403 263.5 67.2522 263.5C66.6642 263.5 66.1784 263.96 66.1784 264.523C66.1784 265.085 66.6642 265.545 67.2522 265.545ZM72.2652 271.094C72.2652 269.381 73.3263 268.409 74.7709 268.409C76.1707 268.409 77.0209 269.323 77.0209 270.864V277H78.5294V270.761C78.5294 268.256 77.1934 267.054 75.2055 267.054C73.7226 267.054 72.8021 267.719 72.3419 268.716H72.214V267.182H70.7567V277H72.2652V271.094ZM85.5558 267.182H83.4593V264.83H81.9507V267.182H80.4678V268.46H81.9507V274.597C81.9507 276.31 83.3314 277.128 84.6098 277.128C85.1723 277.128 85.5303 277.026 85.7348 276.949L85.428 275.594C85.3002 275.619 85.0956 275.67 84.7632 275.67C84.0985 275.67 83.4593 275.466 83.4593 274.188V268.46H85.5558V267.182ZM92.8875 280.682H94.396V275.491H94.5239C94.8563 276.028 95.4955 277.205 97.3875 277.205C99.8421 277.205 101.555 275.236 101.555 272.116C101.555 269.023 99.8421 267.054 97.3619 267.054C95.4443 267.054 94.8563 268.23 94.5239 268.741H94.3449V267.182H92.8875V280.682ZM94.3705 272.091C94.3705 269.892 95.3421 268.409 97.183 268.409C99.1006 268.409 100.047 270.02 100.047 272.091C100.047 274.188 99.075 275.849 97.183 275.849C95.3676 275.849 94.3705 274.315 94.3705 272.091ZM107.973 277.205C109.967 277.205 111.424 276.207 111.885 274.724L110.427 274.315C110.044 275.338 109.155 275.849 107.973 275.849C106.202 275.849 104.981 274.705 104.911 272.602H112.038V271.963C112.038 268.307 109.865 267.054 107.819 267.054C105.16 267.054 103.396 269.151 103.396 272.168C103.396 275.185 105.135 277.205 107.973 277.205ZM104.911 271.298C105.013 269.771 106.093 268.409 107.819 268.409C109.456 268.409 110.504 269.636 110.504 271.298H104.911ZM114.333 277H115.841V270.787C115.841 269.457 116.89 268.486 118.321 268.486C118.724 268.486 119.14 268.562 119.242 268.588V267.054C119.069 267.041 118.673 267.028 118.449 267.028C117.273 267.028 116.25 267.693 115.892 268.665H115.79V267.182H114.333V277ZM130.081 277.205C132.255 277.205 133.686 275.875 133.942 274.136H132.434C132.152 275.21 131.257 275.849 130.081 275.849C128.291 275.849 127.141 274.366 127.141 272.091C127.141 269.866 128.317 268.409 130.081 268.409C131.411 268.409 132.203 269.227 132.434 270.122H133.942C133.686 268.281 132.127 267.054 130.056 267.054C127.397 267.054 125.632 269.151 125.632 272.142C125.632 275.082 127.32 277.205 130.081 277.205ZM139.036 277.23C140.75 277.23 141.644 276.31 141.951 275.67H142.028V277H143.536V270.531C143.536 267.412 141.159 267.054 139.906 267.054C138.423 267.054 136.735 267.565 135.968 269.355L137.4 269.866C137.733 269.151 138.519 268.384 139.957 268.384C141.344 268.384 142.028 269.119 142.028 270.378V270.429C142.028 271.158 141.286 271.094 139.497 271.324C137.675 271.56 135.687 271.963 135.687 274.213C135.687 276.131 137.17 277.23 139.036 277.23ZM139.267 275.875C138.065 275.875 137.196 275.338 137.196 274.29C137.196 273.139 138.244 272.781 139.42 272.628C140.059 272.551 141.772 272.372 142.028 272.065V273.446C142.028 274.673 141.056 275.875 139.267 275.875ZM146.29 277H147.798V270.787C147.798 269.457 148.847 268.486 150.278 268.486C150.681 268.486 151.097 268.562 151.199 268.588V267.054C151.026 267.041 150.63 267.028 150.406 267.028C149.23 267.028 148.207 267.693 147.85 268.665H147.747V267.182H146.29V277ZM156.396 277.205C158.288 277.205 158.927 276.028 159.259 275.491H159.438V277H160.896V263.909H159.387V268.741H159.259C158.927 268.23 158.339 267.054 156.421 267.054C153.941 267.054 152.228 269.023 152.228 272.116C152.228 275.236 153.941 277.205 156.396 277.205ZM156.6 275.849C154.708 275.849 153.737 274.188 153.737 272.091C153.737 270.02 154.683 268.409 156.6 268.409C158.441 268.409 159.413 269.892 159.413 272.091C159.413 274.315 158.416 275.849 156.6 275.849ZM168.93 277H170.439V267.182H168.93V277ZM169.698 265.545C170.286 265.545 170.771 265.085 170.771 264.523C170.771 263.96 170.286 263.5 169.698 263.5C169.109 263.5 168.624 263.96 168.624 264.523C168.624 265.085 169.109 265.545 169.698 265.545ZM174.71 271.094C174.71 269.381 175.772 268.409 177.216 268.409C178.616 268.409 179.466 269.323 179.466 270.864V277H180.975V270.761C180.975 268.256 179.639 267.054 177.651 267.054C176.168 267.054 175.247 267.719 174.787 268.716H174.659V267.182H173.202V277H174.71V271.094ZM190.302 271.094C190.302 269.381 191.395 268.409 192.885 268.409C194.304 268.409 195.16 269.304 195.16 270.864V277H196.669V270.761C196.669 268.237 195.326 267.054 193.319 267.054C191.772 267.054 190.89 267.7 190.43 268.716H190.302V263.909H188.794V277H190.302V271.094ZM202.318 277.23C204.031 277.23 204.926 276.31 205.233 275.67H205.309V277H206.818V270.531C206.818 267.412 204.44 267.054 203.187 267.054C201.704 267.054 200.017 267.565 199.25 269.355L200.681 269.866C201.014 269.151 201.8 268.384 203.238 268.384C204.625 268.384 205.309 269.119 205.309 270.378V270.429C205.309 271.158 204.568 271.094 202.778 271.324C200.956 271.56 198.968 271.963 198.968 274.213C198.968 276.131 200.451 277.23 202.318 277.23ZM202.548 275.875C201.346 275.875 200.477 275.338 200.477 274.29C200.477 273.139 201.525 272.781 202.701 272.628C203.34 272.551 205.054 272.372 205.309 272.065V273.446C205.309 274.673 204.338 275.875 202.548 275.875ZM211.08 271.094C211.08 269.381 212.141 268.409 213.585 268.409C214.985 268.409 215.835 269.323 215.835 270.864V277H217.344V270.761C217.344 268.256 216.008 267.054 214.02 267.054C212.537 267.054 211.617 267.719 211.156 268.716H211.028V267.182H209.571V277H211.08V271.094ZM223.808 277.205C225.7 277.205 226.339 276.028 226.671 275.491H226.85V277H228.308V263.909H226.799V268.741H226.671C226.339 268.23 225.751 267.054 223.833 267.054C221.353 267.054 219.64 269.023 219.64 272.116C219.64 275.236 221.353 277.205 223.808 277.205ZM224.012 275.849C222.12 275.849 221.149 274.188 221.149 272.091C221.149 270.02 222.095 268.409 224.012 268.409C225.853 268.409 226.825 269.892 226.825 272.091C226.825 274.315 225.828 275.849 224.012 275.849ZM28.6107 299.23C30.3238 299.23 31.2187 298.31 31.5255 297.67H31.6022V299H33.1107V292.531C33.1107 289.412 30.7329 289.054 29.48 289.054C27.9971 289.054 26.3096 289.565 25.5425 291.355L26.9743 291.866C27.3067 291.151 28.093 290.384 29.5312 290.384C30.9182 290.384 31.6022 291.119 31.6022 292.378V292.429C31.6022 293.158 30.8607 293.094 29.0709 293.324C27.2492 293.56 25.2613 293.963 25.2613 296.213C25.2613 298.131 26.7442 299.23 28.6107 299.23ZM28.8408 297.875C27.6391 297.875 26.7698 297.338 26.7698 296.29C26.7698 295.139 27.8181 294.781 28.9942 294.628C29.6334 294.551 31.3465 294.372 31.6022 294.065V295.446C31.6022 296.673 30.6306 297.875 28.8408 297.875ZM40.134 289.182H38.0374V286.83H36.5289V289.182H35.0459V290.46H36.5289V296.597C36.5289 298.31 37.9095 299.128 39.1879 299.128C39.7504 299.128 40.1084 299.026 40.3129 298.949L40.0061 297.594C39.8783 297.619 39.6737 297.67 39.3414 297.67C38.6766 297.67 38.0374 297.466 38.0374 296.188V290.46H40.134V289.182ZM51.7355 289.182H49.6389V286.83H48.1304V289.182H46.6475V290.46H48.1304V296.597C48.1304 298.31 49.5111 299.128 50.7895 299.128C51.352 299.128 51.71 299.026 51.9145 298.949L51.6077 297.594C51.4798 297.619 51.2753 297.67 50.9429 297.67C50.2781 297.67 49.6389 297.466 49.6389 296.188V290.46H51.7355V289.182ZM55.7242 293.094C55.7242 291.381 56.8172 290.409 58.3066 290.409C59.7256 290.409 60.5821 291.304 60.5821 292.864V299H62.0906V292.761C62.0906 290.237 60.7483 289.054 58.7412 289.054C57.1943 289.054 56.3122 289.7 55.852 290.716H55.7242V285.909H54.2156V299H55.7242V293.094ZM68.9669 299.205C70.9612 299.205 72.4186 298.207 72.8788 296.724L71.4214 296.315C71.0379 297.338 70.1494 297.849 68.9669 297.849C67.1963 297.849 65.9754 296.705 65.9051 294.602H73.0322V293.963C73.0322 290.307 70.8589 289.054 68.8135 289.054C66.1544 289.054 64.3902 291.151 64.3902 294.168C64.3902 297.185 66.1288 299.205 68.9669 299.205ZM65.9051 293.298C66.0074 291.771 67.0876 290.409 68.8135 290.409C70.4498 290.409 71.4981 291.636 71.4981 293.298H65.9051ZM84.5059 299.205C86.5003 299.205 87.9577 298.207 88.4179 296.724L86.9605 296.315C86.577 297.338 85.6885 297.849 84.5059 297.849C82.7354 297.849 81.5145 296.705 81.4442 294.602H88.5713V293.963C88.5713 290.307 86.398 289.054 84.3525 289.054C81.6934 289.054 79.9292 291.151 79.9292 294.168C79.9292 297.185 81.6679 299.205 84.5059 299.205ZM81.4442 293.298C81.5464 291.771 82.6267 290.409 84.3525 290.409C85.9889 290.409 87.0372 291.636 87.0372 293.298H81.4442ZM92.3746 293.094C92.3746 291.381 93.4356 290.409 94.8802 290.409C96.2801 290.409 97.1302 291.323 97.1302 292.864V299H98.6388V292.761C98.6388 290.256 97.3028 289.054 95.3149 289.054C93.8319 289.054 92.9115 289.719 92.4513 290.716H92.3234V289.182H90.866V299H92.3746V293.094ZM105.103 299.205C106.995 299.205 107.634 298.028 107.966 297.491H108.145V299H109.603V285.909H108.094V290.741H107.966C107.634 290.23 107.046 289.054 105.128 289.054C102.648 289.054 100.935 291.023 100.935 294.116C100.935 297.236 102.648 299.205 105.103 299.205ZM105.307 297.849C103.415 297.849 102.444 296.188 102.444 294.091C102.444 292.02 103.39 290.409 105.307 290.409C107.148 290.409 108.12 291.892 108.12 294.091C108.12 296.315 107.123 297.849 105.307 297.849ZM121.626 299.205C124.285 299.205 126.075 297.185 126.075 294.142C126.075 291.074 124.285 289.054 121.626 289.054C118.967 289.054 117.177 291.074 117.177 294.142C117.177 297.185 118.967 299.205 121.626 299.205ZM121.626 297.849C119.606 297.849 118.686 296.111 118.686 294.142C118.686 292.173 119.606 290.409 121.626 290.409C123.646 290.409 124.566 292.173 124.566 294.142C124.566 296.111 123.646 297.849 121.626 297.849ZM132.75 289.182H130.551V288.185C130.551 287.213 130.96 286.702 131.957 286.702C132.392 286.702 132.648 286.804 132.801 286.855L133.236 285.551C133.006 285.449 132.545 285.295 131.804 285.295C130.398 285.295 129.043 286.139 129.043 287.827V289.182H127.457V290.46H129.043V299H130.551V290.46H132.75V289.182ZM144.196 289.182H142.1V286.83H140.591V289.182H139.108V290.46H140.591V296.597C140.591 298.31 141.972 299.128 143.25 299.128C143.813 299.128 144.171 299.026 144.375 298.949L144.069 297.594C143.941 297.619 143.736 297.67 143.404 297.67C142.739 297.67 142.1 297.466 142.1 296.188V290.46H144.196V289.182ZM148.185 293.094C148.185 291.381 149.278 290.409 150.767 290.409C152.187 290.409 153.043 291.304 153.043 292.864V299H154.552V292.761C154.552 290.237 153.209 289.054 151.202 289.054C149.655 289.054 148.773 289.7 148.313 290.716H148.185V285.909H146.677V299H148.185V293.094ZM161.428 299.205C163.422 299.205 164.88 298.207 165.34 296.724L163.882 296.315C163.499 297.338 162.61 297.849 161.428 297.849C159.657 297.849 158.436 296.705 158.366 294.602H165.493V293.963C165.493 290.307 163.32 289.054 161.274 289.054C158.615 289.054 156.851 291.151 156.851 294.168C156.851 297.185 158.59 299.205 161.428 299.205ZM158.366 293.298C158.468 291.771 159.549 290.409 161.274 290.409C162.911 290.409 163.959 291.636 163.959 293.298H158.366ZM176.813 302.886C179.166 302.886 181.058 301.812 181.058 299.281V289.182H179.6V290.741H179.447C179.115 290.23 178.501 289.054 176.583 289.054C174.103 289.054 172.39 291.023 172.39 294.04C172.39 297.108 174.18 298.847 176.558 298.847C178.475 298.847 179.089 297.722 179.421 297.185H179.549V299.179C179.549 300.815 178.399 301.557 176.813 301.557C175.03 301.557 174.404 300.617 174.001 300.074L172.799 300.918C173.413 301.947 174.621 302.886 176.813 302.886ZM176.762 297.491C174.87 297.491 173.899 296.06 173.899 294.014C173.899 292.02 174.845 290.409 176.762 290.409C178.603 290.409 179.575 291.892 179.575 294.014C179.575 296.188 178.578 297.491 176.762 297.491ZM186.708 299.23C188.421 299.23 189.316 298.31 189.623 297.67H189.7V299H191.208V292.531C191.208 289.412 188.831 289.054 187.578 289.054C186.095 289.054 184.407 289.565 183.64 291.355L185.072 291.866C185.404 291.151 186.191 290.384 187.629 290.384C189.016 290.384 189.7 291.119 189.7 292.378V292.429C189.7 293.158 188.958 293.094 187.169 293.324C185.347 293.56 183.359 293.963 183.359 296.213C183.359 298.131 184.842 299.23 186.708 299.23ZM186.938 297.875C185.737 297.875 184.867 297.338 184.867 296.29C184.867 295.139 185.916 294.781 187.092 294.628C187.731 294.551 189.444 294.372 189.7 294.065V295.446C189.7 296.673 188.728 297.875 186.938 297.875ZM193.962 299H195.47V292.864C195.47 291.425 196.519 290.409 197.695 290.409C198.839 290.409 199.638 291.157 199.638 292.276V299H201.172V292.608C201.172 291.342 201.965 290.409 203.345 290.409C204.419 290.409 205.34 290.978 205.34 292.429V299H206.848V292.429C206.848 290.121 205.608 289.054 203.857 289.054C202.45 289.054 201.421 289.7 200.916 290.716H200.814C200.328 289.668 199.472 289.054 198.18 289.054C196.902 289.054 195.956 289.668 195.547 290.716H195.419V289.182H193.962V299ZM213.723 299.205C215.717 299.205 217.174 298.207 217.635 296.724L216.177 296.315C215.794 297.338 214.905 297.849 213.723 297.849C211.952 297.849 210.731 296.705 210.661 294.602H217.788V293.963C217.788 290.307 215.615 289.054 213.569 289.054C210.91 289.054 209.146 291.151 209.146 294.168C209.146 297.185 210.885 299.205 213.723 299.205ZM210.661 293.298C210.763 291.771 211.843 290.409 213.569 290.409C215.206 290.409 216.254 291.636 216.254 293.298H210.661ZM221.182 299.102C221.815 299.102 222.333 298.585 222.333 297.952C222.333 297.319 221.815 296.801 221.182 296.801C220.549 296.801 220.032 297.319 220.032 297.952C220.032 298.585 220.549 299.102 221.182 299.102Z" fill="black" fill-opacity="0.87"/>
<path d="M216 160H236V176L228 184.5L236 192V208H226H216V160Z" fill="#FF4B3C" stroke="black" stroke-width="2"/>
<path d="M216 160H236V176L228 184.5L236 192V208H226H216V160Z" fill="black" fill-opacity="0.17"/>
<path d="M224 168L216 160V168H224Z" fill="black" fill-opacity="0.38" stroke="black" stroke-width="2" stroke-linejoin="bevel"/>
<path d="M248 176L240 184L248 192V176Z" fill="#D4D4D4"/>
<path d="M32 160H12V176L20 184.5L12 192V208H22H32V160Z" fill="#FF4B3C" stroke="black" stroke-width="2"/>
<path d="M32 160H12V176L20 184.5L12 192V208H22H32V160Z" fill="black" fill-opacity="0.17"/>
<path d="M24 168L32 160V168H24Z" fill="black" fill-opacity="0.38" stroke="black" stroke-width="2" stroke-linejoin="bevel"/>
<path d="M0 176L8 184L0 192V176Z" fill="#D4D4D4"/>
<path d="M224 168H24V216H224V168Z" fill="#FF4B3C" stroke="black" stroke-width="2"/>
<path d="M56.8725 201.452L59.1045 200.732L64.9365 181.472C65.5125 181.376 66.2925 181.28 67.2765 181.184C68.2605 181.064 68.9325 180.992 69.2925 180.968C69.3885 180.968 69.6045 181.064 69.9405 181.256L75.8445 200.732L78.0765 201.452V203H69.2565V201.236L71.7045 200.552L70.4085 195.908H63.8565L62.6685 200.552L65.2245 201.236V203H56.8725V201.452ZM69.7965 193.748L67.3485 184.46H66.9165L64.4685 193.748H69.7965ZM81.6357 203.36C81.5157 203.36 81.2637 203.18 80.8797 202.82C80.5197 202.46 80.3397 202.22 80.3397 202.1V189.032L79.0077 188.564V187.052C81.1437 186.668 82.3317 186.476 82.5717 186.476C82.6917 186.476 82.9557 186.68 83.3637 187.088C83.7957 187.472 84.0117 187.712 84.0117 187.808L83.9397 189.14C85.6917 187.244 86.6397 186.296 86.7837 186.296C87.2157 186.296 88.0437 186.488 89.2677 186.872C89.3397 187.04 89.3997 187.244 89.4477 187.484C89.4957 187.7 89.5197 187.904 89.5197 188.096C89.5197 188.288 89.3517 188.708 89.0157 189.356C88.7037 189.98 88.4997 190.316 88.4037 190.364C87.4677 190.004 86.8077 189.824 86.4237 189.824C86.2557 189.824 85.9437 189.932 85.4877 190.148C85.0317 190.34 84.5637 190.58 84.0837 190.868V200.48L86.0277 201.056V202.712C83.3397 203.144 81.8757 203.36 81.6357 203.36ZM95.8377 203.36C94.8777 203.36 93.9897 203.072 93.1737 202.496C92.3577 201.92 91.6977 201.056 91.1937 199.904C90.6897 198.752 90.4377 197.348 90.4377 195.692C90.4377 194.54 90.5217 193.448 90.6897 192.416C90.8577 191.384 91.0737 190.616 91.3377 190.112C91.6017 189.752 92.1177 189.284 92.8857 188.708C93.6537 188.108 94.4217 187.58 95.1897 187.124C95.9817 186.668 96.5217 186.44 96.8097 186.44C97.3857 186.44 98.0457 186.512 98.7897 186.656C99.5577 186.776 100.278 186.944 100.95 187.16L100.842 191.948H98.4657L97.9257 189.392C97.6617 189.248 97.3257 189.116 96.9177 188.996C96.5337 188.876 96.1857 188.816 95.8737 188.816C95.6577 188.816 95.4897 188.864 95.3697 188.96C95.0577 189.2 94.8177 189.884 94.6497 191.012C94.4817 192.116 94.3977 193.484 94.3977 195.116C94.3977 196.292 94.5177 197.288 94.7577 198.104C95.0217 198.896 95.3457 199.484 95.7297 199.868C96.1137 200.252 96.4977 200.444 96.8817 200.444H100.95V202.1C99.9897 202.388 98.9817 202.676 97.9257 202.964C96.8697 203.228 96.1737 203.36 95.8377 203.36ZM105.469 203.36C105.349 203.36 105.097 203.18 104.713 202.82C104.353 202.46 104.173 202.22 104.173 202.1V182.264L102.877 181.76V180.248C105.157 179.84 106.417 179.636 106.657 179.636C106.777 179.636 107.017 179.816 107.377 180.176C107.737 180.512 107.917 180.752 107.917 180.896L107.737 188.888L107.917 188.924C108.613 188.396 109.345 187.856 110.113 187.304C110.905 186.752 111.349 186.476 111.445 186.476C113.221 186.476 114.541 186.92 115.405 187.808C116.293 188.672 116.737 190.196 116.737 192.38V200.66L118.033 201.2V202.712C115.777 203.144 114.541 203.36 114.325 203.36C114.205 203.36 113.953 203.18 113.569 202.82C113.185 202.46 112.993 202.22 112.993 202.1V192.38C112.993 191.084 112.789 190.256 112.381 189.896C111.997 189.536 111.553 189.356 111.049 189.356C110.953 189.356 110.245 189.632 108.925 190.184C108.757 190.256 108.577 190.34 108.385 190.436C108.217 190.508 108.061 190.568 107.917 190.616V200.66L109.213 201.2V202.712C106.957 203.144 105.709 203.36 105.469 203.36ZM122.874 203.36C122.754 203.36 122.502 203.18 122.118 202.82C121.758 202.46 121.578 202.22 121.578 202.1V189.104L120.246 188.564V187.052C122.502 186.668 123.75 186.476 123.99 186.476C124.11 186.476 124.338 186.656 124.674 187.016C125.01 187.352 125.178 187.58 125.178 187.7V188.96C125.802 188.432 126.462 187.892 127.158 187.34C127.878 186.764 128.274 186.476 128.346 186.476C129.57 186.476 130.59 186.668 131.406 187.052C132.222 187.436 132.81 188.072 133.17 188.96C133.746 188.432 134.37 187.892 135.042 187.34C135.714 186.764 136.086 186.476 136.158 186.476C138.102 186.476 139.554 186.92 140.514 187.808C141.474 188.672 141.954 190.196 141.954 192.38V200.66L143.214 201.2V202.712C141.006 203.144 139.794 203.36 139.578 203.36C139.458 203.36 139.194 203.18 138.786 202.82C138.402 202.46 138.21 202.22 138.21 202.1V192.38C138.21 191.084 137.994 190.268 137.562 189.932C137.13 189.572 136.65 189.392 136.122 189.392C135.93 189.392 135.102 189.812 133.638 190.652V200.66L134.862 201.2V202.712C132.678 203.144 131.478 203.36 131.262 203.36C131.142 203.36 130.878 203.18 130.47 202.82C130.086 202.46 129.894 202.22 129.894 202.1V192.38C129.894 191.084 129.69 190.268 129.282 189.932C128.898 189.572 128.454 189.392 127.95 189.392C127.734 189.392 126.858 189.812 125.322 190.652V200.66L126.546 201.2V202.712C124.338 203.144 123.114 203.36 122.874 203.36ZM151.358 203.36C150.302 203.36 149.33 203.072 148.442 202.496C147.578 201.896 146.882 201.008 146.354 199.832C145.85 198.656 145.598 197.216 145.598 195.512C145.598 194.384 145.682 193.34 145.85 192.38C146.018 191.396 146.234 190.628 146.498 190.076C146.906 189.524 147.806 188.78 149.198 187.844C150.614 186.908 151.55 186.44 152.006 186.44C152.27 186.44 153.206 186.56 154.814 186.8C156.422 187.016 157.658 187.196 158.522 187.34V200.696L159.782 201.2V202.748C157.598 203.156 156.386 203.36 156.146 203.36C156.05 203.36 155.81 203.18 155.426 202.82C155.066 202.46 154.886 202.22 154.886 202.1V200.804C152.702 202.508 151.526 203.36 151.358 203.36ZM151.754 200.444C151.994 200.444 153.002 200 154.778 199.112V189.428C154.202 189.212 153.47 189.02 152.582 188.852C151.718 188.66 151.142 188.588 150.854 188.636C150.422 188.732 150.098 189.272 149.882 190.256C149.666 191.24 149.558 192.884 149.558 195.188C149.558 196.34 149.678 197.312 149.918 198.104C150.182 198.896 150.482 199.484 150.818 199.868C151.178 200.252 151.49 200.444 151.754 200.444ZM168.999 209.552C168.159 209.552 166.923 209.432 165.291 209.192C163.659 208.976 162.435 208.772 161.619 208.58L161.943 205.844L166.371 201.848C165.675 201.8 165.003 201.488 164.355 200.912C163.707 200.336 163.167 199.52 162.735 198.464C162.327 197.408 162.123 196.184 162.123 194.792C162.123 194 162.195 193.148 162.339 192.236C162.483 191.324 162.675 190.604 162.915 190.076C163.299 189.548 164.187 188.816 165.579 187.88C166.995 186.92 167.919 186.44 168.351 186.44C168.615 186.44 169.515 186.56 171.051 186.8C172.587 187.04 173.763 187.232 174.579 187.376V203.756C174.579 204.5 174.231 205.328 173.535 206.24C172.863 207.152 172.071 207.932 171.159 208.58C170.247 209.228 169.527 209.552 168.999 209.552ZM168.459 199.94C168.675 199.94 169.467 199.46 170.835 198.5V189.428C170.379 189.26 169.803 189.092 169.107 188.924C168.435 188.732 167.931 188.636 167.595 188.636C166.539 188.636 166.011 190.652 166.011 194.684C166.011 195.908 166.143 196.916 166.407 197.708C166.695 198.476 167.031 199.04 167.415 199.4C167.799 199.76 168.147 199.94 168.459 199.94ZM170.079 207.716C170.343 207.716 170.559 207.164 170.727 206.06C170.895 204.956 170.979 203.792 170.979 202.568V200.804L170.799 200.732C169.959 201.5 167.979 203.384 164.859 206.384V206.6C165.219 206.744 166.059 206.96 167.379 207.248C168.723 207.56 169.623 207.716 170.079 207.716ZM183.924 203.36C182.796 203.36 181.752 203.072 180.792 202.496C179.856 201.92 179.1 201.056 178.524 199.904C177.972 198.752 177.696 197.348 177.696 195.692C177.696 194.516 177.78 193.412 177.948 192.38C178.116 191.348 178.332 190.58 178.596 190.076C178.86 189.716 179.388 189.236 180.18 188.636C180.972 188.012 181.764 187.472 182.556 187.016C183.372 186.56 183.936 186.332 184.248 186.332C185.568 186.332 186.648 186.548 187.488 186.98C188.328 187.412 188.976 188.228 189.432 189.428C189.888 190.604 190.116 192.272 190.116 194.432L181.62 195.152C181.62 196.472 181.788 197.528 182.124 198.32C182.484 199.112 182.904 199.676 183.384 200.012C183.864 200.348 184.32 200.516 184.752 200.516L189.576 200.336V201.956C188.736 202.244 187.668 202.556 186.372 202.892C185.076 203.204 184.26 203.36 183.924 203.36ZM186.264 192.884C186.264 190.052 185.52 188.624 184.032 188.6H183.744C183.36 188.6 183.012 188.66 182.7 188.78C182.412 188.876 182.172 189.404 181.98 190.364C181.788 191.3 181.692 192.344 181.692 193.496L186.264 192.884Z" fill="white"/>
<defs>
<linearGradient id="paint0_linear_1061_19059" x1="124" y1="44" x2="124" y2="224" gradientUnits="userSpaceOnUse">
<stop stop-color="#FF3333"/>
<stop offset="1" stop-color="#3366FF" stop-opacity="0"/>
</linearGradient>
<linearGradient id="paint1_linear_1061_19059" x1="122" y1="44" x2="122" y2="224" gradientUnits="userSpaceOnUse">
<stop stop-color="#A29BCC"/>
<stop offset="1" stop-color="#2A0530"/>
</linearGradient>
<linearGradient id="paint2_linear_1061_19059" x1="122" y1="44" x2="122" y2="224" gradientUnits="userSpaceOnUse">
<stop stop-color="#A29BCC"/>
<stop offset="1" stop-color="#2A0530"/>
</linearGradient>
<linearGradient id="paint3_linear_1061_19059" x1="122" y1="44" x2="122" y2="224" gradientUnits="userSpaceOnUse">
<stop stop-color="#A29BCC"/>
<stop offset="1" stop-color="#2A0530"/>
</linearGradient>
</defs>
</svg>
