<svg width="156" height="201" viewBox="0 0 156 201" fill="none" xmlns="http://www.w3.org/2000/svg">
<rect x="1" y="1.4541" width="153" height="198" rx="5" fill="#2A2C35" stroke="white" stroke-width="2"/>
<path d="M3.16211 0.673828L152.162 0.673828C153.543 0.673828 154.662 1.79312 154.662 3.17383V197.174C154.662 198.555 153.543 199.674 152.162 199.674H3.16211C1.7814 199.674 0.662109 198.555 0.662109 197.174L0.662109 3.17383C0.662109 1.79311 1.7814 0.673828 3.16211 0.673828Z" fill="#222120" stroke="white"/>
<rect x="11.9121" y="11.9238" width="131.5" height="176.5" fill="#222120" stroke="#323232"/>
<path d="M28.1621 11.9238L127.162 11.9238C128.543 11.9238 129.662 13.0431 129.662 14.4238V185.924C129.662 187.305 128.543 188.424 127.162 188.424H28.1621C26.7814 188.424 25.6621 187.305 25.6621 185.924L25.6621 14.4238C25.6621 13.0431 26.7814 11.9238 28.1621 11.9238Z" fill="#222120" stroke="#323232"/>
<path d="M148.912 100.174H6.41211" stroke="#323232"/>
<rect x="38.1621" y="11.9238" width="79" height="176.5" rx="3.5" fill="#222120" stroke="#323232"/>
<path d="M77.6621 193.924L77.6621 6.42383" stroke="#323232"/>
<path d="M77.6621 79.6738C72.2848 79.6738 67.3854 77.2362 63.8041 74.7624C62.0183 73.5288 60.5724 72.2947 59.5736 71.3695C59.0745 70.9071 58.6876 70.5225 58.4266 70.2546C58.3991 70.2264 58.3729 70.1994 58.3482 70.1738C58.3729 70.1482 58.3991 70.1213 58.4266 70.0931C58.6876 69.8251 59.0745 69.4405 59.5736 68.9781C60.5724 68.0529 62.0183 66.8188 63.8041 65.5852C67.3854 63.1115 72.2848 60.6738 77.6621 60.6738C83.0394 60.6738 87.9388 63.1115 91.5201 65.5852C93.306 66.8188 94.7518 68.0529 95.7506 68.9781C96.2498 69.4405 96.6366 69.8251 96.8977 70.0931C96.9252 70.1213 96.9513 70.1482 96.976 70.1738C96.9513 70.1994 96.9252 70.2264 96.8977 70.2546C96.6366 70.5225 96.2498 70.9072 95.7506 71.3695C94.7518 72.2947 93.306 73.5288 91.5201 74.7624C87.9388 77.2362 83.0394 79.6738 77.6621 79.6738Z" fill="#323232" stroke="#323232"/>
<ellipse cx="77.6621" cy="70.1738" rx="6.25" ry="6.25" fill="#222120"/>
<path d="M77.6621 109.674C72.2848 109.674 67.3854 107.236 63.8041 104.762C62.0183 103.529 60.5724 102.295 59.5736 101.37C59.0745 100.907 58.6876 100.523 58.4266 100.255C58.3991 100.226 58.3729 100.199 58.3482 100.174C58.3729 100.148 58.3991 100.121 58.4266 100.093C58.6876 99.8251 59.0745 99.4405 59.5736 98.9781C60.5724 98.0529 62.0183 96.8188 63.8041 95.5852C67.3854 93.1115 72.2848 90.6738 77.6621 90.6738C83.0394 90.6738 87.9388 93.1115 91.5201 95.5852C93.306 96.8188 94.7518 98.0529 95.7506 98.9781C96.2498 99.4405 96.6366 99.8251 96.8977 100.093C96.9252 100.121 96.9513 100.148 96.976 100.174C96.9513 100.199 96.9252 100.226 96.8977 100.255C96.6366 100.523 96.2498 100.907 95.7506 101.37C94.7518 102.295 93.306 103.529 91.5201 104.762C87.9388 107.236 83.0394 109.674 77.6621 109.674Z" fill="#323232" stroke="#323232"/>
<ellipse cx="77.6621" cy="100.174" rx="6.25" ry="6.25" fill="#222120"/>
<path d="M77.6621 139.674C72.2848 139.674 67.3854 137.236 63.8041 134.762C62.0183 133.529 60.5724 132.295 59.5736 131.37C59.0745 130.907 58.6876 130.523 58.4266 130.255C58.3991 130.226 58.3729 130.199 58.3482 130.174C58.3729 130.148 58.3991 130.121 58.4266 130.093C58.6876 129.825 59.0745 129.441 59.5736 128.978C60.5724 128.053 62.0183 126.819 63.8041 125.585C67.3854 123.111 72.2848 120.674 77.6621 120.674C83.0394 120.674 87.9388 123.111 91.5201 125.585C93.306 126.819 94.7518 128.053 95.7506 128.978C96.2498 129.441 96.6366 129.825 96.8977 130.093C96.9252 130.121 96.9513 130.148 96.976 130.174C96.9513 130.199 96.9252 130.226 96.8977 130.255C96.6366 130.523 96.2498 130.907 95.7506 131.37C94.7518 132.295 93.306 133.529 91.5201 134.762C87.9388 137.236 83.0394 139.674 77.6621 139.674Z" fill="#323232" stroke="#323232"/>
<circle cx="77.6621" cy="130.174" r="6.25" fill="#222120"/>
</svg>
