<svg width="248" height="320" viewBox="0 0 248 320" fill="none" xmlns="http://www.w3.org/2000/svg">
<path d="M0 6C0 2.6863 2.68629 0 6 0H242C245.314 0 248 2.68629 248 6V314C248 317.314 245.314 320 242 320H5.99999C2.68629 320 0 317.314 0 314V6Z" fill="white"/>
<rect x="0.5" y="0.5" width="247" height="319" rx="5.5" fill="white" stroke="#D4D4D4"/>
<path d="M204 223.938V199.062L44 110.312V223.938H204Z" stroke="black" stroke-width="2"/>
<path d="M204 220.937V200.829C204 199.739 203.409 198.734 202.455 198.206L48.4552 112.784C46.4556 111.675 44 113.121 44 115.407V220.938C44 222.594 45.3432 223.938 47 223.938H201C202.657 223.938 204 222.594 204 220.937Z" stroke="black" stroke-width="2"/>
<path d="M44 43.9375V68.8125L204 157.562V43.9375H44Z" stroke="black" stroke-width="2"/>
<path d="M44 46.9375V67.0459C44 68.1362 44.5914 69.1406 45.5448 69.6694L199.545 155.091C201.544 156.2 204 154.754 204 152.468V46.9375C204 45.2806 202.657 43.9375 201 43.9375H47C45.3431 43.9375 44 45.2806 44 46.9375Z" stroke="black" stroke-width="2"/>
<path d="M74.5 155.938L73.125 152.938L78.25 144.938L81 135.188L84 133.312H88L85.875 131.938V131.062L81 131.938V131.062L77.375 128.688V125.688L76.625 123.938L78.25 118.312L81.625 114.562V110.938L86.5 111.938L88.75 112.812V110.938L89.8125 110.438L90.875 109.938L90.125 107.938L88.75 106.312L88 103.938L89.5 103.188L90.125 100.688V99.9375L88.75 99.3125L88 95.9375L89.5 91.9375L92 91.3125L93.5 91.9375L94.125 86.1875L96 80.9375L102.625 74.4375L112.625 69.0625L120.875 65.0625H124H127.375L130.75 66.1875L139.125 71.3125L147.125 78.0625L152 84.9375H154L156 83.9375L157.875 84.9375L160 96.4375V106.312L160.75 113.938L163.125 123.938V124.938L164.875 123.938H166.625L168 126.438L172 130.688V132.812L171.25 137.438L167.25 141.812V143.188L169.375 147.938V150.688L168 153.312L164 158.688V161.688L169.375 163.938L172 167.938V172.812L140 200.812H132L129.125 198.188L126.125 199.062L117.5 197.062L109.25 198.188H74.5V155.938Z" fill="#707070"/>
<path d="M150.375 126.438C150.833 127.146 151.975 128.987 152.875 130.688C153.775 132.388 155.476 132.812 156.214 132.812M156.214 132.812C155.365 130.168 154.573 127.597 154 125.688H158.5L157 119.938L149.625 97.6875L147.125 95.9375C142.167 89.9792 130.6 78.0625 124 78.0625C121.034 78.0625 118.293 78.6012 116 79.3154M156.214 132.812C156.842 134.769 157.5 136.765 158.124 138.563M148 129.562C148.667 130.979 150.4 134.087 152 135.188C152.975 135.858 154.526 136.718 155.9 137.438M158.124 138.563C159.234 141.762 160.233 144.335 160.75 144.938C162.25 146.688 164.875 147.688 164.875 149.438C164.875 149.898 164.537 150.385 164 150.866M158.124 138.563C157.587 138.302 156.78 137.899 155.9 137.438M155.9 137.438C155.467 139.479 154.73 143.837 155.25 144.938C155.77 146.038 156.633 147.396 157 147.938H160.75L164 150.866M164 150.866C162.986 151.775 161.262 152.662 159.767 153.312M150.375 146.312L152.875 149.438L157 150.688L159.767 153.312M159.767 153.312C159.049 153.625 158.383 153.883 157.875 154.062C156.175 154.663 153.25 157.396 152 158.688L141.553 167.938M158.318 151.938L150.375 153.312H146.75C146.75 153.312 145.543 157.197 142.625 157.312C140.423 157.4 136.625 155.938 136.625 155.938M136.625 155.938C137.75 155.562 140 154.663 140 154.062C140 153.312 139.625 150.866 138.125 150.866C136.925 150.866 133.542 152.08 132 152.688L128 154.062V158.688M136.625 155.938L139 161.688L141.553 167.938M138.125 97.6875C134.583 97.4375 126.5 96.4375 126.5 89.0625C126.5 81.6875 122 79.6933 116 79.3154M116 79.3154C113.191 80.1902 111.055 81.3284 110 82.0625H106.25L101.625 100.688L98.375 107.938H96L102.75 122.688L106.25 131.062V134.438L109.125 136.562L113.5 146.312L117.5 149.438L120 155.938L117.5 159.312L113.5 158.688L109.875 169.312H140L141.553 167.938M89.8125 110.438L88.75 110.938V112.812L86.5 111.938L81.625 110.938V114.562L78.25 118.312L76.625 123.938L77.375 125.688V128.688L81 131.062V131.938L85.875 131.062V131.938L88 133.312H84L81 135.188L78.25 144.938L73.125 152.938L74.5 155.938V198.188H109.25L117.5 197.062L126.125 199.062L129.125 198.188L132 200.812H140L172 172.812V167.938L169.375 163.938L164 161.688V158.688L168 153.312L169.375 150.688V147.938L167.25 143.188V141.812L171.25 137.438L172 132.812V130.688L168 126.438L166.625 123.938H164.875L163.125 124.938V123.938L160.75 113.938L160 106.312V96.4375L157.875 84.9375L156 83.9375L154 84.9375H152L147.125 78.0625L139.125 71.3125L130.75 66.1875L127.375 65.0625H124H120.875L112.625 69.0625L102.625 74.4375L96 80.9375L94.125 86.1875L93.5 91.9375L92 91.3125L89.5 91.9375L88 95.9375L88.75 99.3125L90.125 99.9375V100.688L89.5 103.188L88 103.938L88.75 106.312L90.125 107.938L90.875 109.938L89.8125 110.438ZM89.8125 110.438L92 112.812L94.125 111.938L95.25 114.562V116.688C96.0833 118.771 97.75 123.137 97.75 123.938C97.75 124.738 96.5833 126.938 96 127.938L87.25 121.562L89.5 127.938L80 128.688V123.938L84 115.938H90.125L92 119.188L85.875 125.688H82.25L84 121.562M149.125 163.938L155.25 159.938L160 158.688L159.767 163.062M149.125 163.938L152.875 172.812L158.5 173.812L160.438 173.312M149.125 163.938C148.708 166.229 148.125 171.412 149.125 173.812C150.125 176.213 151.458 177.896 152 178.438M158.5 166.938H163.125L162.375 170.062L164 171.938M160.438 173.312L162.375 172.812H168L169.375 169.312L163.125 163.938L155.25 163.062L154 166.938L157 169.312L160 170.062L160.438 173.312Z" stroke="black" stroke-width="2"/>
<path d="M107.375 123.938L109.875 131.938L109 136.688L113.5 146.438L118.125 149.812H129.75L144 135.938L144.875 131.938L146.875 129.438H148L153.625 122.938L151.25 119.938L146.875 118.812L144.875 113.562L149.875 114.312L152 115.312L146.875 99.9375L139 97.4375L129.75 99.9375L125.625 105.312L124 103.938L121.75 101.688L117.125 92.4375H120L117.125 87.3125L108 89.9375L106.125 97.4375L104 105.312L101.75 111.938L107.375 123.938Z" fill="#BCBCBC"/>
<path d="M119.625 125.188L118.5 126.688L120 127.938H126.75L128.375 126.688L127.5 125.188M115.25 136.688L118.875 135.062H120.625M132.5 136.688L129.75 135.062H127.25M120.625 135.062C120.625 135.062 122.577 133.856 124 133.875C125.378 133.893 127.25 135.062 127.25 135.062M120.625 135.062H127.25M145.875 121.188C143.958 122.104 139.9 124.487 139 126.688C138.1 128.888 137.542 131.104 137.375 131.938M119.625 110.188L117.125 114.312L111.125 117.062M109.875 131.938L107.375 123.938L101.75 111.938L104 105.312L106.125 97.4375L108 89.9375L117.125 87.3125L120 92.4375H117.125L121.75 101.688L124 103.938L125.625 105.312L129.75 99.9375L139 97.4375L146.875 99.9375L152 115.312L149.875 114.312L144.875 113.562L146.875 118.812L151.25 119.938L153.625 122.938L148 129.438H146.875L144.875 131.938L144 135.938L129.75 149.812H118.125L113.5 146.438L109 136.688L109.875 131.938Z" stroke="black" stroke-width="2"/>
<path d="M135.5 107.063C136.668 107.04 139.25 108 139.25 108C139.25 108 138 110.938 135.5 110.938C133.86 110.938 132.5 108 132.5 108C133.555 107.346 134.347 107.085 135.5 107.063Z" fill="white"/>
<path d="M104 110.938C104 110.938 107.545 107.005 110.5 107.063C111.653 107.085 112.967 107.721 114.022 108.375M114.022 108.375C115.163 109.083 116 109.813 116 109.813M114.022 108.375C114.022 108.375 112.456 110.937 110.5 110.938C108.543 110.938 106.976 108.375 106.976 108.375M118.5 104.688L117 102.938C115.435 102.896 108.857 102.138 106.976 102.938M142.062 109.813L139.25 108M139.25 108C139.25 108 136.668 107.04 135.5 107.063C134.347 107.085 133.555 107.346 132.5 108M139.25 108C139.25 108 138 110.938 135.5 110.938C133.86 110.938 132.5 108 132.5 108M132.5 108C131.359 108.708 130 109.813 130 109.813M129.125 104.688L131.375 102.938C132.708 102.604 137.775 102.338 141.375 103.938" stroke="black" stroke-width="2"/>
<path d="M74.5 33.9375L174.75 33.3125L188 54.4375L187.125 58.9375H62L60 55.4375L61.125 54.3125L74.5 33.9375Z" fill="#C4C4C4"/>
<path d="M188 54.4375L174.75 33.3125L74.5 33.9375L61.125 54.3125L60 55.4375M188 54.4375L187.125 58.9375H62L60 55.4375M188 54.4375L60 55.4375" stroke="black" stroke-width="2"/>
<path d="M72 49.6875L74.5 51.3125L136 50.8125L158.875 50.4375L160 51.3125L161.25 50.4375H177.375L178.25 49.6875L169.75 37.9375L171.125 35.9375L169.125 37.0625H91.125H77.875L79.125 37.9375L76 43.1875H74.5L75.25 43.9375L72 49.6875Z" stroke="black" stroke-width="2"/>
<path d="M60 156.938L68 146.938H72V155.968L104 156.938V165.562L102.5 167.938L101.667 168.688L100 170.188H97.625L93.875 171.938H90.125L88 175.312L84.75 175.938L83.125 176.688V182.188H85.625L88 183.938L89.375 184.938L92 186.562L92.625 185.938V183.938L92 178.188L100 171.062L104.875 170.188L112 160.378L113.5 158.312H114.875L117.5 159.188L118 159.938L118.75 159.188L122.25 158.312L126.25 156.938L134 162.312L140 166.688V168.688L140.5 171.375L141 174.062L136.75 180.688L134 191.188L128.625 187.938L128 185.938L125.75 186.562V191.938L116 192.562V191.188L104 217.938L69.625 218.562L68.625 217.062L60 156.938Z" fill="#C4C4C4"/>
<path d="M171.75 137.688H173.25L186.5 154.688L187 155.938L180 216.688L178.625 217.938H134V214.938L147.375 191.938L148 190.312L147.375 188.938V186.938V184.938L148 182.188L150 181.562L152 178.188H160L166.5 175.938H168L169.25 174.688L171.375 173.188L172 168.688L171.375 166.688L174.125 163.062L176 162.312V161.438L180.875 154.688L182.125 153.562L180.875 152.688L176 145.688L172 139.938H169.25L171.75 137.688Z" fill="#C4C4C4"/>
<path d="M60 156.938L68 146.938H72M60 156.938L68.625 217.062L69.625 218.562L104 217.938L116 191.188V192.562L125.75 191.938V186.562L128 185.938L128.625 187.938L134 191.188L136.75 180.688L141 174.062L140.5 171.375M60 156.938L63 159.938H68.625L74.25 165.562L81.375 159.938H101.625L101.667 168.688M72 146.938L69.625 150.062H68L68.625 151.188L66.625 154.062L65.75 155.938H71L72 155.968M72 146.938V155.968M187 155.938L186.5 154.688L173.25 137.688H171.75L169.25 139.938H172M187 155.938L180 216.688L178.625 217.938H134V214.938L147.375 191.938L148 190.312L147.375 188.938V186.938M187 155.938L182.125 157.562L178 162.312L178.625 164.562L175.375 165.562L174.125 168.688L170.5 176.688L168 178.688L161.875 182.188L160 180.688H153.125L152 183.938L147.375 186.938M172 139.938L176 145.688L180.875 152.688L182.125 153.562L180.875 154.688L176 161.438V162.312L174.125 163.062L171.375 166.688L172 168.688L171.375 173.188L169.25 174.688L168 175.938H166.5L160 178.188H152L150 181.562L148 182.188L147.375 184.938V186.938M172 139.938L168 163.062M72 155.968L104 156.938V165.562L102.5 167.938L101.667 168.688M101.667 168.688L100 170.188H97.625L93.875 171.938H90.125L88 175.312L84.75 175.938L83.125 176.688V182.188H85.625L88 183.938L89.375 184.938L92 186.562L92.625 185.938V183.938L92 178.188L100 171.062L104.875 170.188L112 160.378M112 160.378L113.5 158.312H114.875L117.5 159.188L118 159.938L118.75 159.188L122.25 158.312L126.25 156.938L134 162.312L140 166.688V168.688L140.5 171.375M112 160.378L116.625 161.438L117.5 163.938L120 161.438H124L127.25 159.938L140.5 171.375M122.25 166.688V169.562M122.25 174.812V169.562M122.25 169.562L120 168.688L122.25 165.562L124.875 168.688L122.25 169.562Z" stroke="black" stroke-width="2"/>
<path d="M112.75 62.1875L110.75 55.9375L115 51.9375L110.75 47.9375V45.3125L115 43.1875L119.375 45.3125L121.625 43.9375L118.125 42.4375L120.625 39.9375L123.375 40.5625L125.625 38.6875L128 40.5625L130.375 39.9375L133.125 42.4375L129.75 43.9375L132 45.3125L135.25 43.1875L140 45.3125V47.9375L136.875 51.9375L140 55.9375L138.375 62.1875H112.75Z" fill="#C4C4C4"/>
<path d="M81.6875 54.3125V49.6875H97.0625V54.3125H94.3125V57.6875L96.4375 59.9375L93.0625 61.6875V63.8125H97.8125L98.4375 67.1875L86.625 72.8125L78.0625 67.1875L79.9375 63.8125H83.8125V61.6875L81.6875 59.9375L83.8125 57.6875V54.3125H81.6875Z" fill="#C4C4C4"/>
<path d="M152.438 54.3125V49.6875H167.812V54.3125H165.062V57.6875L167.188 59.9375L163.812 61.6875V63.8125H168.562L169.188 67.1875L160 73.5625L148.812 67.1875L150.688 63.8125H154.562V61.6875L152.438 59.9375L154.562 57.6875V54.3125H152.438Z" fill="#C4C4C4"/>
<path d="M76 35L78.0625 31.9375L80.4375 35M97.6875 34.625L100 31.6875L101.938 34.625M121 34.625L123.375 31.6875L125.188 34.625M145.875 34.625L148.25 31.6875L150.062 34.625M166.812 34.625L169.188 31.6875L171 34.625M179.625 52.625L182 49.6875L183.812 52.625M65.5625 50.3125L67.9375 53.375M125.625 55.9375V49.6875M125.625 49.6875L124 47.9375L125.625 45.9375L127.125 47.9375L125.625 49.6875ZM110.75 55.9375L112.75 62.1875H138.375L140 55.9375L136.875 51.9375L140 47.9375V45.3125L135.25 43.1875L132 45.3125L129.75 43.9375L133.125 42.4375L130.375 39.9375L128 40.5625L125.625 38.6875L123.375 40.5625L120.625 39.9375L118.125 42.4375L121.625 43.9375L119.375 45.3125L115 43.1875L110.75 45.3125V47.9375L115 51.9375L110.75 55.9375ZM81.6875 49.6875V54.3125H83.8125V57.6875L81.6875 59.9375L83.8125 61.6875V63.8125H79.9375L78.0625 67.1875L86.625 72.8125L98.4375 67.1875L97.8125 63.8125H93.0625V61.6875L96.4375 59.9375L94.3125 57.6875V54.3125H97.0625V49.6875H81.6875ZM152.438 49.6875V54.3125H154.562V57.6875L152.438 59.9375L154.562 61.6875V63.8125H150.688L148.812 67.1875L160 73.5625L169.188 67.1875L168.562 63.8125H163.812V61.6875L167.188 59.9375L165.062 57.6875V54.3125H167.812V49.6875H152.438Z" stroke="black" stroke-width="2"/>
<path d="M141.25 66.4375L139.25 63.9375L141.25 61.3125H144L146.125 63.9375L144 66.4375V70.4375H141.25V66.4375Z" fill="#C4C4C4"/>
<path d="M184.625 86.4375L182.625 83.9375L184.625 81.3125H187.375L189.5 83.9375L187.375 86.4375V90.4375H184.625V86.4375Z" fill="#C4C4C4"/>
<path d="M169.5 115.938L167.5 113.438L169.5 110.812H172.25L174.375 113.438L172.25 115.938V119.938H169.5V115.938Z" fill="#C4C4C4"/>
<path d="M63.375 75.5625L61.375 73.0625L63.375 70.4375H66.125L68.25 73.0625L66.125 75.5625V79.5625H63.375V75.5625Z" fill="#C4C4C4"/>
<path d="M81.625 98.5625L79.625 96.0625L81.625 93.4375H84.375L86.5 96.0625L84.375 98.5625V102.562H81.625V98.5625Z" fill="#C4C4C4"/>
<path d="M141.25 66.4375L139.25 63.9375L141.25 61.3125H144L146.125 63.9375L144 66.4375V70.4375H141.25V66.4375Z" stroke="black" stroke-width="2"/>
<path d="M184.625 86.4375L182.625 83.9375L184.625 81.3125H187.375L189.5 83.9375L187.375 86.4375V90.4375H184.625V86.4375Z" stroke="black" stroke-width="2"/>
<path d="M169.5 115.938L167.5 113.438L169.5 110.812H172.25L174.375 113.438L172.25 115.938V119.938H169.5V115.938Z" stroke="black" stroke-width="2"/>
<path d="M63.375 75.5625L61.375 73.0625L63.375 70.4375H66.125L68.25 73.0625L66.125 75.5625V79.5625H63.375V75.5625Z" stroke="black" stroke-width="2"/>
<path d="M81.625 98.5625L79.625 96.0625L81.625 93.4375H84.375L86.5 96.0625L84.375 98.5625V102.562H81.625V98.5625Z" stroke="black" stroke-width="2"/>
<path d="M106.117 145.789V141.781H97.25V145.984H98.5625V144.969H101.25V149.418H98.5625V148.445H97.25V151.094H106.117V148.445H104.733V149.418H102.312V144.969H104.733V145.789H106.117Z" stroke="black" stroke-width="2"/>
<path d="M126.625 141.781H97.25V144.406H126.625V141.781Z" fill="#E09E50" stroke="black" stroke-width="2"/>
<path d="M138.062 141.125H137.062V144.812H138.062L141.625 149.5H148.562L153.125 142.875L148.562 136.688H141.625L138.062 141.125Z" fill="#E09E50" stroke="black" stroke-width="2"/>
<path d="M130.25 139.375L128.812 140.688H126.562V145.25H128.812L130.25 146.75H132V147.938H136V138.25H132V139.375H130.25Z" fill="#E09E50" stroke="black" stroke-width="2"/>
<path d="M49.62 242.364V254H50.9382V245.159H51.0518L54.6882 254H55.9609L59.5973 245.159H59.7109V254H61.0291V242.364H59.3473L55.3928 252.023H55.2564L51.3018 242.364H49.62ZM67.218 254.182C69.5817 254.182 71.1726 252.386 71.1726 249.682C71.1726 246.955 69.5817 245.159 67.218 245.159C64.8544 245.159 63.2635 246.955 63.2635 249.682C63.2635 252.386 64.8544 254.182 67.218 254.182ZM67.218 252.977C65.4226 252.977 64.6044 251.432 64.6044 249.682C64.6044 247.932 65.4226 246.364 67.218 246.364C69.0135 246.364 69.8317 247.932 69.8317 249.682C69.8317 251.432 69.0135 252.977 67.218 252.977ZM80.0433 245.273H78.5888L76.1797 252.227H76.0888L73.6797 245.273H72.2251L75.4524 254H76.8161L80.0433 245.273ZM85.1598 254.182C86.9325 254.182 88.228 253.295 88.6371 251.977L87.3416 251.614C87.0007 252.523 86.2109 252.977 85.1598 252.977C83.5859 252.977 82.5007 251.96 82.4382 250.091H88.7734V249.523C88.7734 246.273 86.8416 245.159 85.0234 245.159C82.6598 245.159 81.0916 247.023 81.0916 249.705C81.0916 252.386 82.6371 254.182 85.1598 254.182ZM82.4382 248.932C82.5291 247.574 83.4893 246.364 85.0234 246.364C86.478 246.364 87.4098 247.455 87.4098 248.932H82.4382ZM98.8587 254.182C101.222 254.182 102.813 252.386 102.813 249.682C102.813 246.955 101.222 245.159 98.8587 245.159C96.495 245.159 94.9041 246.955 94.9041 249.682C94.9041 252.386 96.495 254.182 98.8587 254.182ZM98.8587 252.977C97.0632 252.977 96.245 251.432 96.245 249.682C96.245 247.932 97.0632 246.364 98.8587 246.364C100.654 246.364 101.472 247.932 101.472 249.682C101.472 251.432 100.654 252.977 98.8587 252.977ZM106.201 248.75C106.201 247.227 107.144 246.364 108.428 246.364C109.673 246.364 110.428 247.176 110.428 248.545V254H111.769V248.455C111.769 246.227 110.582 245.159 108.815 245.159C107.496 245.159 106.678 245.75 106.269 246.636H106.156V245.273H104.86V254H106.201V248.75ZM117.879 254.182C119.651 254.182 120.947 253.295 121.356 251.977L120.06 251.614C119.719 252.523 118.93 252.977 117.879 252.977C116.305 252.977 115.219 251.96 115.157 250.091H121.492V249.523C121.492 246.273 119.56 245.159 117.742 245.159C115.379 245.159 113.81 247.023 113.81 249.705C113.81 252.386 115.356 254.182 117.879 254.182ZM115.157 248.932C115.248 247.574 116.208 246.364 117.742 246.364C119.197 246.364 120.129 247.455 120.129 248.932H115.157ZM131.577 254.182C133.509 254.182 134.782 253 135.009 251.455H133.668C133.418 252.409 132.623 252.977 131.577 252.977C129.987 252.977 128.964 251.659 128.964 249.636C128.964 247.659 130.009 246.364 131.577 246.364C132.759 246.364 133.464 247.091 133.668 247.886H135.009C134.782 246.25 133.396 245.159 131.555 245.159C129.191 245.159 127.623 247.023 127.623 249.682C127.623 252.295 129.123 254.182 131.577 254.182ZM139.538 254.205C141.06 254.205 141.856 253.386 142.129 252.818H142.197V254H143.538V248.25C143.538 245.477 141.424 245.159 140.31 245.159C138.992 245.159 137.492 245.614 136.81 247.205L138.083 247.659C138.379 247.023 139.077 246.341 140.356 246.341C141.589 246.341 142.197 246.994 142.197 248.114V248.159C142.197 248.807 141.538 248.75 139.947 248.955C138.327 249.165 136.56 249.523 136.56 251.523C136.56 253.227 137.879 254.205 139.538 254.205ZM139.742 253C138.674 253 137.901 252.523 137.901 251.591C137.901 250.568 138.833 250.25 139.879 250.114C140.447 250.045 141.969 249.886 142.197 249.614V250.841C142.197 251.932 141.333 253 139.742 253ZM145.985 254H147.326V248.477C147.326 247.295 148.258 246.432 149.531 246.432C149.888 246.432 150.258 246.5 150.349 246.523V245.159C150.195 245.148 149.843 245.136 149.644 245.136C148.599 245.136 147.69 245.727 147.371 246.591H147.281V245.273H145.985V254ZM154.968 254.182C156.65 254.182 157.218 253.136 157.513 252.659H157.673V254H158.968V242.364H157.627V246.659H157.513C157.218 246.205 156.695 245.159 154.991 245.159C152.786 245.159 151.263 246.909 151.263 249.659C151.263 252.432 152.786 254.182 154.968 254.182ZM155.15 252.977C153.468 252.977 152.604 251.5 152.604 249.636C152.604 247.795 153.445 246.364 155.15 246.364C156.786 246.364 157.65 247.682 157.65 249.636C157.65 251.614 156.763 252.977 155.15 252.977ZM169.996 245.273H168.042V244.386C168.042 243.523 168.406 243.068 169.292 243.068C169.678 243.068 169.906 243.159 170.042 243.205L170.428 242.045C170.224 241.955 169.815 241.818 169.156 241.818C167.906 241.818 166.701 242.568 166.701 244.068V245.273H165.292V246.409H166.701V254H168.042V246.409H169.996V245.273ZM171.876 254H173.217V248.477C173.217 247.295 174.148 246.432 175.421 246.432C175.779 246.432 176.148 246.5 176.239 246.523V245.159C176.086 245.148 175.734 245.136 175.535 245.136C174.489 245.136 173.58 245.727 173.262 246.591H173.171V245.273H171.876V254ZM181.109 254.182C183.472 254.182 185.063 252.386 185.063 249.682C185.063 246.955 183.472 245.159 181.109 245.159C178.745 245.159 177.154 246.955 177.154 249.682C177.154 252.386 178.745 254.182 181.109 254.182ZM181.109 252.977C179.313 252.977 178.495 251.432 178.495 249.682C178.495 247.932 179.313 246.364 181.109 246.364C182.904 246.364 183.722 247.932 183.722 249.682C183.722 251.432 182.904 252.977 181.109 252.977ZM187.11 254H188.451V248.545C188.451 247.267 189.383 246.364 190.428 246.364C191.445 246.364 192.156 247.028 192.156 248.023V254H193.519V248.318C193.519 247.193 194.224 246.364 195.451 246.364C196.406 246.364 197.224 246.869 197.224 248.159V254H198.565V248.159C198.565 246.108 197.462 245.159 195.906 245.159C194.656 245.159 193.741 245.733 193.292 246.636H193.201C192.769 245.705 192.008 245.159 190.86 245.159C189.724 245.159 188.883 245.705 188.519 246.636H188.406V245.273H187.11V254ZM24.9993 276.182C27.3629 276.182 28.9538 274.386 28.9538 271.682C28.9538 268.955 27.3629 267.159 24.9993 267.159C22.6357 267.159 21.0447 268.955 21.0447 271.682C21.0447 274.386 22.6357 276.182 24.9993 276.182ZM24.9993 274.977C23.2038 274.977 22.3857 273.432 22.3857 271.682C22.3857 269.932 23.2038 268.364 24.9993 268.364C26.7947 268.364 27.6129 269.932 27.6129 271.682C27.6129 273.432 26.7947 274.977 24.9993 274.977ZM31.0007 279.273H32.3416V274.659H32.4553C32.7507 275.136 33.3189 276.182 35.0007 276.182C37.1825 276.182 38.7053 274.432 38.7053 271.659C38.7053 268.909 37.1825 267.159 34.978 267.159C33.2734 267.159 32.7507 268.205 32.4553 268.659H32.2962V267.273H31.0007V279.273ZM32.3189 271.636C32.3189 269.682 33.1825 268.364 34.8189 268.364C36.5234 268.364 37.3643 269.795 37.3643 271.636C37.3643 273.5 36.5007 274.977 34.8189 274.977C33.2053 274.977 32.3189 273.614 32.3189 271.636ZM40.7507 279.273H42.0916V274.659H42.2053C42.5007 275.136 43.0689 276.182 44.7507 276.182C46.9325 276.182 48.4553 274.432 48.4553 271.659C48.4553 268.909 46.9325 267.159 44.728 267.159C43.0234 267.159 42.5007 268.205 42.2053 268.659H42.0462V267.273H40.7507V279.273ZM42.0689 271.636C42.0689 269.682 42.9325 268.364 44.5689 268.364C46.2734 268.364 47.1143 269.795 47.1143 271.636C47.1143 273.5 46.2507 274.977 44.5689 274.977C42.9553 274.977 42.0689 273.614 42.0689 271.636ZM54.0462 276.182C56.4098 276.182 58.0007 274.386 58.0007 271.682C58.0007 268.955 56.4098 267.159 54.0462 267.159C51.6825 267.159 50.0916 268.955 50.0916 271.682C50.0916 274.386 51.6825 276.182 54.0462 276.182ZM54.0462 274.977C52.2507 274.977 51.4325 273.432 51.4325 271.682C51.4325 269.932 52.2507 268.364 54.0462 268.364C55.8416 268.364 56.6598 269.932 56.6598 271.682C56.6598 273.432 55.8416 274.977 54.0462 274.977ZM61.3885 270.75C61.3885 269.227 62.3317 268.364 63.6158 268.364C64.8601 268.364 65.6158 269.176 65.6158 270.545V276H66.9567V270.455C66.9567 268.227 65.7692 267.159 64.0021 267.159C62.6839 267.159 61.8658 267.75 61.4567 268.636H61.343V267.273H60.0476V276H61.3885V270.75ZM73.0661 276.182C74.8388 276.182 76.1342 275.295 76.5433 273.977L75.2479 273.614C74.907 274.523 74.1172 274.977 73.0661 274.977C71.4922 274.977 70.407 273.96 70.3445 272.091H76.6797V271.523C76.6797 268.273 74.7479 267.159 72.9297 267.159C70.5661 267.159 68.9979 269.023 68.9979 271.705C68.9979 274.386 70.5433 276.182 73.0661 276.182ZM70.3445 270.932C70.4354 269.574 71.3956 268.364 72.9297 268.364C74.3842 268.364 75.3161 269.455 75.3161 270.932H70.3445ZM80.0604 270.75C80.0604 269.227 81.0036 268.364 82.2876 268.364C83.532 268.364 84.2876 269.176 84.2876 270.545V276H85.6286V270.455C85.6286 268.227 84.4411 267.159 82.674 267.159C81.3558 267.159 80.5376 267.75 80.1286 268.636H80.0149V267.273H78.7195V276H80.0604V270.75ZM91.8743 267.273H90.0107V265.182H88.6697V267.273H87.3516V268.409H88.6697V273.864C88.6697 275.386 89.897 276.114 91.0334 276.114C91.5334 276.114 91.8516 276.023 92.0334 275.955L91.7607 274.75C91.647 274.773 91.4652 274.818 91.1697 274.818C90.5788 274.818 90.0107 274.636 90.0107 273.5V268.409H91.8743V267.273ZM99.9169 269.227C99.4964 267.989 98.5533 267.159 96.826 267.159C94.9851 267.159 93.6214 268.205 93.6214 269.682C93.6214 270.886 94.3374 271.693 95.9396 272.068L97.3942 272.409C98.2749 272.614 98.6896 273.034 98.6896 273.636C98.6896 274.386 97.8942 275 96.6442 275C95.5476 275 94.8601 274.528 94.6214 273.591L93.3487 273.909C93.6612 275.392 94.8828 276.182 96.6669 276.182C98.6953 276.182 100.076 275.074 100.076 273.568C100.076 272.352 99.3146 271.585 97.7578 271.205L96.4624 270.886C95.4283 270.631 94.9624 270.284 94.9624 269.614C94.9624 268.864 95.7578 268.318 96.826 268.318C97.9964 268.318 98.4794 268.966 98.7124 269.568L99.9169 269.227ZM107.935 270.75C107.935 269.227 108.907 268.364 110.231 268.364C111.492 268.364 112.254 269.159 112.254 270.545V276H113.594V270.455C113.594 268.21 112.401 267.159 110.617 267.159C109.242 267.159 108.458 267.733 108.049 268.636H107.935V264.364H106.594V276H107.935V270.75ZM118.616 276.205C120.138 276.205 120.934 275.386 121.207 274.818H121.275V276H122.616V270.25C122.616 267.477 120.502 267.159 119.388 267.159C118.07 267.159 116.57 267.614 115.888 269.205L117.161 269.659C117.457 269.023 118.156 268.341 119.434 268.341C120.667 268.341 121.275 268.994 121.275 270.114V270.159C121.275 270.807 120.616 270.75 119.025 270.955C117.406 271.165 115.638 271.523 115.638 273.523C115.638 275.227 116.957 276.205 118.616 276.205ZM118.82 275C117.752 275 116.979 274.523 116.979 273.591C116.979 272.568 117.911 272.25 118.957 272.114C119.525 272.045 121.048 271.886 121.275 271.614V272.841C121.275 273.932 120.411 275 118.82 275ZM126.404 270.75C126.404 269.227 127.347 268.364 128.631 268.364C129.876 268.364 130.631 269.176 130.631 270.545V276H131.972V270.455C131.972 268.227 130.785 267.159 129.018 267.159C127.7 267.159 126.881 267.75 126.472 268.636H126.359V267.273H125.063V276H126.404V270.75ZM137.718 276.182C139.4 276.182 139.968 275.136 140.263 274.659H140.423V276H141.718V264.364H140.377V268.659H140.263C139.968 268.205 139.445 267.159 137.741 267.159C135.536 267.159 134.013 268.909 134.013 271.659C134.013 274.432 135.536 276.182 137.718 276.182ZM137.9 274.977C136.218 274.977 135.354 273.5 135.354 271.636C135.354 269.795 136.195 268.364 137.9 268.364C139.536 268.364 140.4 269.682 140.4 271.636C140.4 273.614 139.513 274.977 137.9 274.977ZM152.656 267.273H150.792V265.182H149.451V267.273H148.133V268.409H149.451V273.864C149.451 275.386 150.678 276.114 151.815 276.114C152.315 276.114 152.633 276.023 152.815 275.955L152.542 274.75C152.428 274.773 152.246 274.818 151.951 274.818C151.36 274.818 150.792 274.636 150.792 273.5V268.409H152.656V267.273ZM158.124 276.182C160.488 276.182 162.079 274.386 162.079 271.682C162.079 268.955 160.488 267.159 158.124 267.159C155.761 267.159 154.17 268.955 154.17 271.682C154.17 274.386 155.761 276.182 158.124 276.182ZM158.124 274.977C156.329 274.977 155.511 273.432 155.511 271.682C155.511 269.932 156.329 268.364 158.124 268.364C159.92 268.364 160.738 269.932 160.738 271.682C160.738 273.432 159.92 274.977 158.124 274.977ZM172.535 276.159C174.79 276.159 176.467 274.744 176.467 272.841C176.467 271.364 175.592 270.29 174.126 270.045V269.955C175.302 269.597 176.035 268.631 176.035 267.318C176.035 265.67 174.734 264.205 172.58 264.205C170.569 264.205 168.898 265.443 168.83 267.273H170.194C170.245 266.114 171.347 265.432 172.558 265.432C173.842 265.432 174.671 266.21 174.671 267.386C174.671 268.614 173.711 269.409 172.33 269.409H171.398V270.659H172.33C174.097 270.659 175.08 271.557 175.08 272.841C175.08 274.074 174.006 274.909 172.512 274.909C171.165 274.909 170.097 274.216 170.012 273.091H168.58C168.665 274.92 170.279 276.159 172.535 276.159ZM178.813 276H180.154V270.477C180.154 269.295 181.086 268.432 182.359 268.432C182.717 268.432 183.086 268.5 183.177 268.523V267.159C183.023 267.148 182.671 267.136 182.472 267.136C181.427 267.136 180.518 267.727 180.2 268.591H180.109V267.273H178.813V276ZM187.796 276.182C189.478 276.182 190.046 275.136 190.342 274.659H190.501V276H191.796V264.364H190.455V268.659H190.342C190.046 268.205 189.523 267.159 187.819 267.159C185.614 267.159 184.092 268.909 184.092 271.659C184.092 274.432 185.614 276.182 187.796 276.182ZM187.978 274.977C186.296 274.977 185.433 273.5 185.433 271.636C185.433 269.795 186.273 268.364 187.978 268.364C189.614 268.364 190.478 269.682 190.478 271.636C190.478 273.614 189.592 274.977 187.978 274.977ZM200.279 264.364H198.938V276H200.279V264.364ZM202.735 276H204.076V267.273H202.735V276ZM203.417 265.818C203.94 265.818 204.371 265.409 204.371 264.909C204.371 264.409 203.94 264 203.417 264C202.894 264 202.462 264.409 202.462 264.909C202.462 265.409 202.894 265.818 203.417 265.818ZM207.873 270.75C207.873 269.227 208.816 268.364 210.1 268.364C211.344 268.364 212.1 269.176 212.1 270.545V276H213.441V270.455C213.441 268.227 212.254 267.159 210.487 267.159C209.168 267.159 208.35 267.75 207.941 268.636H207.827V267.273H206.532V276H207.873V270.75ZM215.891 276H217.232V272.733L218.17 271.864L221.437 276H223.141L219.181 271L222.869 267.273H221.21L217.391 271.159H217.232V264.364H215.891V276ZM225.572 276.091C226.134 276.091 226.594 275.631 226.594 275.068C226.594 274.506 226.134 274.045 225.572 274.045C225.009 274.045 224.549 274.506 224.549 275.068C224.549 275.631 225.009 276.091 225.572 276.091ZM42.1278 298H43.5369V293.75H46.0824C48.7926 293.75 50.0142 292.102 50.0142 290.045C50.0142 287.989 48.7926 286.364 46.0597 286.364H42.1278V298ZM43.5369 292.5V287.614H46.0142C47.9062 287.614 48.6278 288.648 48.6278 290.045C48.6278 291.443 47.9062 292.5 46.0369 292.5H43.5369ZM53.4432 286.364H52.1023V298H53.4432V286.364ZM58.4673 298.205C59.9901 298.205 60.7855 297.386 61.0582 296.818H61.1264V298H62.4673V292.25C62.4673 289.477 60.3537 289.159 59.2401 289.159C57.9219 289.159 56.4219 289.614 55.7401 291.205L57.0128 291.659C57.3082 291.023 58.0071 290.341 59.2855 290.341C60.5185 290.341 61.1264 290.994 61.1264 292.114V292.159C61.1264 292.807 60.4673 292.75 58.8764 292.955C57.2571 293.165 55.4901 293.523 55.4901 295.523C55.4901 297.227 56.8082 298.205 58.4673 298.205ZM58.6719 297C57.6037 297 56.831 296.523 56.831 295.591C56.831 294.568 57.7628 294.25 58.8082 294.114C59.3764 294.045 60.8991 293.886 61.1264 293.614V294.841C61.1264 295.932 60.2628 297 58.6719 297ZM65.4659 301.273C66.6761 301.273 67.5284 300.631 68.0341 299.273L71.75 289.295L70.2841 289.273L67.875 296.227H67.7841L65.375 289.273H63.9205L67.1477 298.045L66.8977 298.727C66.4091 300.057 65.8068 300.182 64.8295 299.932L64.4886 301.114C64.625 301.182 65.0114 301.273 65.4659 301.273ZM76.8707 298.182C78.6435 298.182 79.9389 297.295 80.348 295.977L79.0526 295.614C78.7116 296.523 77.9219 296.977 76.8707 296.977C75.2969 296.977 74.2116 295.96 74.1491 294.091H80.4844V293.523C80.4844 290.273 78.5526 289.159 76.7344 289.159C74.3707 289.159 72.8026 291.023 72.8026 293.705C72.8026 296.386 74.348 298.182 76.8707 298.182ZM74.1491 292.932C74.2401 291.574 75.2003 290.364 76.7344 290.364C78.1889 290.364 79.1207 291.455 79.1207 292.932H74.1491ZM82.5241 298H83.8651V292.477C83.8651 291.295 84.7969 290.432 86.0696 290.432C86.4276 290.432 86.7969 290.5 86.8878 290.523V289.159C86.7344 289.148 86.3821 289.136 86.1832 289.136C85.1378 289.136 84.2287 289.727 83.9105 290.591H83.8196V289.273H82.5241V298ZM94.6591 291.227C94.2386 289.989 93.2955 289.159 91.5682 289.159C89.7273 289.159 88.3636 290.205 88.3636 291.682C88.3636 292.886 89.0795 293.693 90.6818 294.068L92.1364 294.409C93.017 294.614 93.4318 295.034 93.4318 295.636C93.4318 296.386 92.6364 297 91.3864 297C90.2898 297 89.6023 296.528 89.3636 295.591L88.0909 295.909C88.4034 297.392 89.625 298.182 91.4091 298.182C93.4375 298.182 94.8182 297.074 94.8182 295.568C94.8182 294.352 94.0568 293.585 92.5 293.205L91.2045 292.886C90.1705 292.631 89.7045 292.284 89.7045 291.614C89.7045 290.864 90.5 290.318 91.5682 290.318C92.7386 290.318 93.2216 290.966 93.4545 291.568L94.6591 291.227ZM104.882 298.182C106.814 298.182 108.087 297 108.314 295.455H106.973C106.723 296.409 105.928 296.977 104.882 296.977C103.291 296.977 102.268 295.659 102.268 293.636C102.268 291.659 103.314 290.364 104.882 290.364C106.064 290.364 106.768 291.091 106.973 291.886H108.314C108.087 290.25 106.7 289.159 104.859 289.159C102.496 289.159 100.928 291.023 100.928 293.682C100.928 296.295 102.428 298.182 104.882 298.182ZM112.842 298.205C114.365 298.205 115.161 297.386 115.433 296.818H115.501V298H116.842V292.25C116.842 289.477 114.729 289.159 113.615 289.159C112.297 289.159 110.797 289.614 110.115 291.205L111.388 291.659C111.683 291.023 112.382 290.341 113.661 290.341C114.893 290.341 115.501 290.994 115.501 292.114V292.159C115.501 292.807 114.842 292.75 113.251 292.955C111.632 293.165 109.865 293.523 109.865 295.523C109.865 297.227 111.183 298.205 112.842 298.205ZM113.047 297C111.979 297 111.206 296.523 111.206 295.591C111.206 294.568 112.138 294.25 113.183 294.114C113.751 294.045 115.274 293.886 115.501 293.614V294.841C115.501 295.932 114.638 297 113.047 297ZM120.631 292.75C120.631 291.227 121.574 290.364 122.858 290.364C124.102 290.364 124.858 291.176 124.858 292.545V298H126.199V292.455C126.199 290.227 125.011 289.159 123.244 289.159C121.926 289.159 121.108 289.75 120.699 290.636H120.585V289.273H119.29V298H120.631V292.75ZM129.831 286.364H128.558V287.409C128.558 288.25 128.149 288.977 127.672 289.659L128.399 290.25C129.308 289.523 129.831 288.318 129.831 287.386V286.364ZM135.632 289.273H133.768V287.182H132.428V289.273H131.109V290.409H132.428V295.864C132.428 297.386 133.655 298.114 134.791 298.114C135.291 298.114 135.609 298.023 135.791 297.955L135.518 296.75C135.405 296.773 135.223 296.818 134.928 296.818C134.337 296.818 133.768 296.636 133.768 295.5V290.409H135.632V289.273ZM142.149 298H143.49V292.477C143.49 291.295 144.422 290.432 145.695 290.432C146.053 290.432 146.422 290.5 146.513 290.523V289.159C146.359 289.148 146.007 289.136 145.808 289.136C144.763 289.136 143.854 289.727 143.536 290.591H143.445V289.273H142.149V298ZM151.496 298.182C153.268 298.182 154.564 297.295 154.973 295.977L153.678 295.614C153.337 296.523 152.547 296.977 151.496 296.977C149.922 296.977 148.837 295.96 148.774 294.091H155.109V293.523C155.109 290.273 153.178 289.159 151.359 289.159C148.996 289.159 147.428 291.023 147.428 293.705C147.428 296.386 148.973 298.182 151.496 298.182ZM148.774 292.932C148.865 291.574 149.825 290.364 151.359 290.364C152.814 290.364 153.746 291.455 153.746 292.932H148.774ZM163.331 291.227C162.911 289.989 161.967 289.159 160.24 289.159C158.399 289.159 157.036 290.205 157.036 291.682C157.036 292.886 157.751 293.693 159.354 294.068L160.808 294.409C161.689 294.614 162.104 295.034 162.104 295.636C162.104 296.386 161.308 297 160.058 297C158.962 297 158.274 296.528 158.036 295.591L156.763 295.909C157.075 297.392 158.297 298.182 160.081 298.182C162.109 298.182 163.49 297.074 163.49 295.568C163.49 294.352 162.729 293.585 161.172 293.205L159.876 292.886C158.842 292.631 158.376 292.284 158.376 291.614C158.376 290.864 159.172 290.318 160.24 290.318C161.411 290.318 161.893 290.966 162.126 291.568L163.331 291.227ZM165.509 301.273H166.849V296.659H166.963C167.259 297.136 167.827 298.182 169.509 298.182C171.69 298.182 173.213 296.432 173.213 293.659C173.213 290.909 171.69 289.159 169.486 289.159C167.781 289.159 167.259 290.205 166.963 290.659H166.804V289.273H165.509V301.273ZM166.827 293.636C166.827 291.682 167.69 290.364 169.327 290.364C171.031 290.364 171.872 291.795 171.872 293.636C171.872 295.5 171.009 296.977 169.327 296.977C167.713 296.977 166.827 295.614 166.827 293.636ZM178.804 298.182C181.168 298.182 182.759 296.386 182.759 293.682C182.759 290.955 181.168 289.159 178.804 289.159C176.44 289.159 174.849 290.955 174.849 293.682C174.849 296.386 176.44 298.182 178.804 298.182ZM178.804 296.977C177.009 296.977 176.19 295.432 176.19 293.682C176.19 291.932 177.009 290.364 178.804 290.364C180.599 290.364 181.418 291.932 181.418 293.682C181.418 295.432 180.599 296.977 178.804 296.977ZM186.146 292.75C186.146 291.227 187.089 290.364 188.374 290.364C189.618 290.364 190.374 291.176 190.374 292.545V298H191.714V292.455C191.714 290.227 190.527 289.159 188.76 289.159C187.442 289.159 186.624 289.75 186.214 290.636H186.101V289.273H184.805V298H186.146V292.75ZM197.46 298.182C199.142 298.182 199.71 297.136 200.006 296.659H200.165V298H201.46V286.364H200.119V290.659H200.006C199.71 290.205 199.188 289.159 197.483 289.159C195.278 289.159 193.756 290.909 193.756 293.659C193.756 296.432 195.278 298.182 197.46 298.182ZM197.642 296.977C195.96 296.977 195.097 295.5 195.097 293.636C195.097 291.795 195.938 290.364 197.642 290.364C199.278 290.364 200.142 291.682 200.142 293.636C200.142 295.614 199.256 296.977 197.642 296.977ZM205.08 298.091C205.642 298.091 206.102 297.631 206.102 297.068C206.102 296.506 205.642 296.045 205.08 296.045C204.517 296.045 204.057 296.506 204.057 297.068C204.057 297.631 204.517 298.091 205.08 298.091Z" fill="black" fill-opacity="0.87"/>
<path d="M216 160H236V176L228 184.5L236 192V208H226H216V160Z" fill="#FF4B3C" stroke="black" stroke-width="2"/>
<path d="M216 160H236V176L228 184.5L236 192V208H226H216V160Z" fill="black" fill-opacity="0.17"/>
<path d="M224 168L216 160V168H224Z" fill="black" fill-opacity="0.38" stroke="black" stroke-width="2" stroke-linejoin="bevel"/>
<path d="M248 176L240 184L248 192V176Z" fill="#D4D4D4"/>
<path d="M32 160H12V176L20 184.5L12 192V208H22H32V160Z" fill="#FF4B3C" stroke="black" stroke-width="2"/>
<path d="M32 160H12V176L20 184.5L12 192V208H22H32V160Z" fill="black" fill-opacity="0.17"/>
<path d="M24 168L32 160V168H24Z" fill="black" fill-opacity="0.38" stroke="black" stroke-width="2" stroke-linejoin="bevel"/>
<path d="M0 176L8 184L0 192V176Z" fill="#D4D4D4"/>
<path d="M224 168H24V216H224V168Z" fill="#FF4B3C" stroke="black" stroke-width="2"/>
<path d="M83.5543 203.36C82.2583 203.36 81.0943 202.988 80.0623 202.244C79.0303 201.476 78.2023 200.324 77.5783 198.788C76.9543 197.228 76.6423 195.284 76.6423 192.956C76.6423 191.348 76.7383 189.872 76.9303 188.528C77.1223 187.184 77.3863 186.092 77.7223 185.252C78.1303 184.676 78.7663 184.052 79.6303 183.38C80.4943 182.708 81.3583 182.132 82.2223 181.652C83.1103 181.172 83.7463 180.932 84.1303 180.932C84.8263 180.956 85.7983 181.016 87.0463 181.112C88.2943 181.184 89.5303 181.268 90.7543 181.364L90.3223 187.844H88.1983L87.7303 184.028C87.1543 183.908 86.4223 183.812 85.5343 183.74C84.6703 183.644 84.0103 183.596 83.5543 183.596C83.0983 183.596 82.7263 183.668 82.4383 183.812C81.9103 184.076 81.4903 184.928 81.1783 186.368C80.8903 187.784 80.7463 189.596 80.7463 191.804C80.7463 195.044 81.1423 197.3 81.9343 198.572C82.7263 199.82 83.8303 200.444 85.2463 200.444H87.6583L88.2703 195.908L90.3223 195.944L90.3943 202.496C89.7703 202.664 88.5583 202.844 86.7583 203.036C84.9823 203.252 83.9143 203.36 83.5543 203.36ZM100.867 203.36C98.2992 203.36 96.3672 202.724 95.0712 201.452C93.7752 200.156 93.1272 198.164 93.1272 195.476C93.1272 194.396 93.2112 193.352 93.3792 192.344C93.5472 191.336 93.7632 190.592 94.0272 190.112C94.2912 189.752 94.8192 189.272 95.6112 188.672C96.4032 188.048 97.2072 187.508 98.0232 187.052C98.8392 186.572 99.3912 186.332 99.6792 186.332C102.175 186.332 104.059 186.992 105.331 188.312C106.603 189.608 107.239 191.504 107.239 194C107.239 195.152 107.155 196.244 106.987 197.276C106.843 198.284 106.651 199.1 106.411 199.724C106.003 200.252 105.079 200.996 103.639 201.956C102.223 202.892 101.299 203.36 100.867 203.36ZM101.011 201.164C101.155 201.116 101.719 200.84 102.703 200.336C103.087 198.632 103.279 196.676 103.279 194.468C103.279 192.668 102.955 191.24 102.307 190.184C101.683 189.104 100.747 188.564 99.4992 188.564C98.9712 188.564 98.5392 188.648 98.2032 188.816C97.8672 188.984 97.5912 189.608 97.3752 190.688C97.1832 191.768 97.0872 193.196 97.0872 194.972C97.0872 197.276 97.4592 198.884 98.2032 199.796C98.9712 200.708 99.9072 201.164 101.011 201.164ZM112.204 203.36C112.084 203.36 111.832 203.18 111.448 202.82C111.088 202.46 110.908 202.22 110.908 202.1V189.104L109.576 188.564V187.052C111.832 186.668 113.08 186.476 113.32 186.476C113.44 186.476 113.668 186.656 114.004 187.016C114.34 187.352 114.508 187.58 114.508 187.7V188.96C115.204 188.432 115.96 187.892 116.776 187.34C117.592 186.764 118.048 186.476 118.144 186.476C119.896 186.476 121.216 186.92 122.104 187.808C122.992 188.672 123.436 190.196 123.436 192.38V200.66L124.732 201.2V202.712C122.5 203.144 121.276 203.36 121.06 203.36C120.94 203.36 120.676 203.18 120.268 202.82C119.884 202.46 119.692 202.22 119.692 202.1V192.38C119.692 190.364 119.068 189.356 117.82 189.356C117.7 189.356 117.376 189.464 116.848 189.68C116.344 189.896 115.972 190.052 115.732 190.148C115.492 190.268 115.132 190.424 114.652 190.616V200.66L115.912 201.2V202.712C113.68 203.144 112.444 203.36 112.204 203.36ZM131.083 203.36C130.795 203.36 130.435 203.18 130.003 202.82C129.571 202.46 129.187 202.04 128.851 201.56C128.515 201.08 128.347 200.696 128.347 200.408V188.888H126.007V187.592L128.347 186.476L130.687 183.704C130.903 183.68 131.371 183.848 132.091 184.208V186.8H135.619V189.032H132.091V198.824C132.091 199.52 132.151 200 132.271 200.264C132.391 200.504 132.619 200.624 132.955 200.624L135.979 200.732V202.64C135.235 202.808 134.299 202.964 133.171 203.108C132.067 203.276 131.371 203.36 131.083 203.36ZM140.118 203.36C139.998 203.36 139.746 203.18 139.362 202.82C139.002 202.46 138.822 202.22 138.822 202.1V189.032L137.49 188.564V187.052C139.626 186.668 140.814 186.476 141.054 186.476C141.174 186.476 141.438 186.68 141.846 187.088C142.278 187.472 142.494 187.712 142.494 187.808L142.422 189.14C144.174 187.244 145.122 186.296 145.266 186.296C145.698 186.296 146.526 186.488 147.75 186.872C147.822 187.04 147.882 187.244 147.93 187.484C147.978 187.7 148.002 187.904 148.002 188.096C148.002 188.288 147.834 188.708 147.498 189.356C147.186 189.98 146.982 190.316 146.886 190.364C145.95 190.004 145.29 189.824 144.906 189.824C144.738 189.824 144.426 189.932 143.97 190.148C143.514 190.34 143.046 190.58 142.566 190.868V200.48L144.51 201.056V202.712C141.822 203.144 140.358 203.36 140.118 203.36ZM156.66 203.36C154.092 203.36 152.16 202.724 150.864 201.452C149.568 200.156 148.92 198.164 148.92 195.476C148.92 194.396 149.004 193.352 149.172 192.344C149.34 191.336 149.556 190.592 149.82 190.112C150.084 189.752 150.612 189.272 151.404 188.672C152.196 188.048 153 187.508 153.816 187.052C154.632 186.572 155.184 186.332 155.472 186.332C157.968 186.332 159.852 186.992 161.124 188.312C162.396 189.608 163.032 191.504 163.032 194C163.032 195.152 162.948 196.244 162.78 197.276C162.636 198.284 162.444 199.1 162.204 199.724C161.796 200.252 160.872 200.996 159.432 201.956C158.016 202.892 157.092 203.36 156.66 203.36ZM156.804 201.164C156.948 201.116 157.512 200.84 158.496 200.336C158.88 198.632 159.072 196.676 159.072 194.468C159.072 192.668 158.748 191.24 158.1 190.184C157.476 189.104 156.54 188.564 155.292 188.564C154.764 188.564 154.332 188.648 153.996 188.816C153.66 188.984 153.384 189.608 153.168 190.688C152.976 191.768 152.88 193.196 152.88 194.972C152.88 197.276 153.252 198.884 153.996 199.796C154.764 200.708 155.7 201.164 156.804 201.164ZM167.925 203.36C167.805 203.36 167.553 203.18 167.169 202.82C166.809 202.46 166.629 202.22 166.629 202.1V182.264L165.297 181.76V180.248C167.625 179.84 168.897 179.636 169.113 179.636C169.233 179.636 169.461 179.816 169.797 180.176C170.157 180.512 170.337 180.752 170.337 180.896V200.66L171.633 201.2V202.712C169.401 203.144 168.165 203.36 167.925 203.36Z" fill="white"/>
</svg>
