<svg width="248" height="320" viewBox="0 0 248 320" fill="none" xmlns="http://www.w3.org/2000/svg">
<path d="M0 6C0 2.6863 2.68629 0 6 0H242C245.314 0 248 2.68629 248 6V314C248 317.314 245.314 320 242 320H5.99999C2.68629 320 0 317.314 0 314V6Z" fill="white"/>
<rect x="0.5" y="0.5" width="247" height="319" rx="5.5" fill="white" stroke="#D4D4D4"/>
<rect x="44" y="44" width="160" height="180" fill="url(#paint0_linear_1061_19058)"/>
<path d="M138 44H206L158 224H90L138 44Z" fill="white"/>
<path d="M173.712 100L203.294 129.5C203.294 129.5 215.753 167.421 213.79 191.5C212.447 207.98 197.5 228.5 197.5 228.5L165.124 220L151.765 219L147.311 213.5L148.107 220L129.5 219L126 191.5L173.712 100Z" fill="#C4C4C4"/>
<path d="M173.836 44V57.5L163.836 67.5M158.336 59L148.836 57.5L144.836 59M156.336 44V50L151.836 52M163.836 67.5L156.336 84.5H142.836L151.836 100C134.169 117.5 82.6359 177.7 77.8359 190.5M163.836 67.5L168.336 50V44M126.836 44L123.836 48.6154M131.336 80.5L128.336 74L113.836 64L123.836 48.6154M123.836 48.6154V53.25L129.336 54.5L131.336 61L146.836 74H156.336L162.336 62M113.836 44L93.8359 64L107.836 71M107.836 75.5L113.836 74L107.836 71M107.836 75.5V71M107.836 75.5L77.8359 82.5M160.336 84.5L190.336 109.5C198.336 129.833 214.336 174 214.336 188C214.336 202 203.336 220.833 197.836 228.5L166.836 221.5L168.336 217.5L161.836 221.5L141.336 219.5V214.5L137.336 219.5H115.336L110.336 214.5V219.5L88.3359 226L81.8359 204M156.336 95.5L162.336 105L156.336 117.5L128.336 190.5" stroke="black" stroke-width="2"/>
<path d="M116.836 59V66.5" stroke="black" stroke-width="2"/>
<path d="M119.836 55L119.836 68" stroke="black" stroke-width="2"/>
<path d="M122.836 51L122.836 70" stroke="black" stroke-width="2"/>
<path d="M125.836 53L125.836 72" stroke="black" stroke-width="2"/>
<path d="M34.8359 147L34.8359 167" stroke="black" stroke-width="2"/>
<path d="M128.836 54L128.836 75" stroke="black" stroke-width="2"/>
<path d="M131.836 61V80" stroke="black" stroke-width="2"/>
<path d="M134.836 64L134.836 84" stroke="black" stroke-width="2"/>
<path d="M137.836 66V89" stroke="black" stroke-width="2"/>
<path d="M140.836 69L140.836 84" stroke="black" stroke-width="2"/>
<path d="M143.836 71L143.836 84" stroke="black" stroke-width="2"/>
<path d="M146.836 73V84" stroke="black" stroke-width="2"/>
<path d="M149.836 75V84" stroke="black" stroke-width="2"/>
<path d="M152.836 74V84" stroke="black" stroke-width="2"/>
<path d="M155.836 74V84" stroke="black" stroke-width="2"/>
<path d="M158.836 69V79" stroke="black" stroke-width="2"/>
<path d="M161.836 63L161.836 72" stroke="black" stroke-width="2"/>
<path d="M70.8359 168C68.9129 183 42.3356 227 42.3356 227C42.3356 227 29.7392 151.048 35.8243 140.508C41.9094 129.969 63.8359 129 63.8359 129C63.8359 129 73.3359 148.5 70.8359 168Z" stroke="black" stroke-width="2"/>
<path d="M71.6719 158.252C69.7488 173.252 43.1715 217.253 43.1715 217.253C43.1715 217.253 30.5751 141.301 36.6603 130.761C42.7454 120.221 64.6719 119.252 64.6719 119.252C64.6719 119.252 74.1719 138.752 71.6719 158.252Z" fill="black" stroke="black" stroke-width="2"/>
<path d="M195.264 161.114C195.815 191.695 162.08 222.808 162.08 222.808L140.835 219.5L197.133 119.839C197.133 119.839 194.713 130.533 195.264 161.114Z" fill="black" stroke="black" stroke-width="2"/>
<path d="M25.9636 123.126L46.8279 109.83L59.9763 91.6003L78.1818 85L91.8359 98.515L63.5163 120.202V127.117L46.8279 133.717C46.8279 133.717 35.2523 134.988 30.6451 132.145C26.9594 129.872 25.3493 125.337 25.9636 123.126Z" fill="#C4C4C4" stroke="black" stroke-width="2"/>
<path d="M20.2433 134.824L38.2289 107L53.7163 118.738C54.2159 127.578 53.4165 146.127 46.2223 149.605C37.2295 153.953 20.2434 154 20.2434 154C20.2434 154 19.5772 137.867 20.2433 134.824Z" fill="#C4C4C4" stroke="black" stroke-width="2"/>
<path d="M50.3359 152L48.8359 156.5C43.8359 160.5 38.8359 160 34.8359 158L31.8359 153.5L36.8359 154C41.3359 155.5 45.8003 155.628 50.3359 152Z" stroke="black" stroke-width="2"/>
<circle cx="143.836" cy="38" r="4" fill="#FF4B3C" stroke="black" stroke-width="2"/>
<circle cx="164.836" cy="39" r="4" fill="#FF4B3C" stroke="black" stroke-width="2"/>
<ellipse cx="42.8359" cy="120.5" rx="11" ry="10.5" fill="black" stroke="black" stroke-width="2"/>
<path d="M90.8359 162.5L57.3356 127L58.5177 126L29.3359 91L26.3365 91L27.3365 87.9997L29.3359 82.9994L34.3359 82.9994L37.3359 82.9994L37.3359 85.9996L66.3359 120.562L67.8356 120C67.8356 120 79.3359 134 90.8359 148.5C102.336 163 111.336 180 111.336 180L90.8359 162.5Z" fill="#FF4B3C" stroke="black" stroke-width="2"/>
<path d="M43.8359 91V44H116.836" stroke="black" stroke-width="2"/>
<path d="M43.8359 91V68C43.8359 54.7452 54.5811 44 67.8359 44H116.836" stroke="black" stroke-width="2"/>
<path d="M202.836 144V44H172.836M131.836 44H125.336" stroke="black" stroke-width="2"/>
<path d="M202.836 144V68C202.836 54.7452 192.091 44 178.836 44H172.836M131.836 44H125.336" stroke="black" stroke-width="2"/>
<path d="M33.3547 100.019L45.38 90.6705L52.0235 94.3331L51.4603 92.1806L61.8125 96.1907L63.5844 102.963L59.3929 101.165L60.6821 103.722L55.8901 109.111L61.3826 112.325L56.1068 117.84L51.4603 125.5L40.569 127.591L33.3547 100.019Z" fill="#C4C4C4"/>
<path d="M53.1056 98.4689L51.4603 92.1806L61.8125 96.1907L63.5844 102.963L53.1056 98.4689ZM53.1056 98.4689L47 99.1561M55.8901 109.111L60.6821 103.722L58.3799 99.1561M55.8901 109.111L61.3826 112.325L56.1068 117.84L51.4603 125.5L40.569 127.591L33.3547 100.019L45.38 90.6705L57.4591 97.3298L58.3799 99.1561M55.8901 109.111L55.0674 105.966M58.3799 99.1561L54.2447 102.822L55.0674 105.966M55.0674 105.966L49.5 105.966" stroke="black" stroke-width="2"/>
<path d="M202.81 113.5L209.785 115.5L193.836 133.442H166.297L152.349 140L147.836 133.442L152.349 119.319L162.605 120.832L170.336 107.717L166.297 91.0708L160.144 86.531L162.605 80L187.836 92.5L183.336 96.5L209.785 107.717L202.81 113.5Z" fill="black" stroke="black" stroke-width="2"/>
<path d="M197.346 176.547L191.129 185.141L177.328 176.547L145.648 151.242L131.404 146.216L131.965 137.72L145.648 131.472L153.596 141.236L169.923 124.334L177.328 123.145L175.061 114.698L182.887 117.391L186.318 131.83L188.422 151.242L197.869 165.93L203.002 176.45L197.346 176.547Z" fill="black" stroke="black" stroke-width="2"/>
<path d="M153.435 204.033L129.441 155.262L132.31 144.884L136.186 148.297L140.947 150.71L142.094 160.457L160.789 211.241L153.435 204.033Z" fill="#FF4B3C"/>
<path d="M106.836 99.278L127.57 146.737L130.82 139.406L135.204 139.383L115.086 100.771L106.836 99.278Z" fill="#FF4B3C"/>
<path d="M153.435 204.033L129.441 155.262L132.31 144.884L136.186 148.297L140.947 150.71L142.094 160.457L160.789 211.241L153.435 204.033Z" stroke="black" stroke-width="2"/>
<path d="M106.836 99.278L127.57 146.737L130.82 139.406L135.204 139.383L115.086 100.771L106.836 99.278Z" stroke="black" stroke-width="2"/>
<path d="M132.456 126.458L123.715 119.341L113.834 130.5L115.835 136.5L117.835 142.5L121.334 147L130.228 139.518L132.456 126.458Z" fill="#C4C4C4"/>
<path d="M115.835 136.5L117.835 142.5L121.334 147L130.228 139.518L132.456 126.458L123.715 119.341L113.834 130.5L115.835 136.5ZM115.835 136.5L123.715 126.458L128.834 126.458" stroke="black" stroke-width="2"/>
<path d="M148.355 134.916L134.158 120.466L126.67 118.26L132.684 123.5L132.684 138.415L147.653 145.228L148.355 134.916Z" fill="#C4C4C4" stroke="black" stroke-width="2"/>
<path d="M147.032 150.19L160.219 158.554L175.335 170L184.334 175C184.334 175 191.751 165.399 190.835 158.554C190.028 152.525 182.334 145.5 182.334 145.5L152.444 135.952C152.444 135.952 154.528 139.395 154.327 142.638C154.063 146.908 147.032 150.19 147.032 150.19Z" fill="#C4C4C4" stroke="black" stroke-width="2"/>
<path d="M169 173.525L172.603 176.611C178.949 177.465 182.978 174.462 185.377 170.688L185.632 165.286L181.603 168.289C178.518 171.892 174.757 174.301 169 173.525Z" fill="#C4C4C4" stroke="black" stroke-width="2"/>
<path d="M159 165.525L162.603 168.611C168.949 169.465 172.978 166.462 175.377 162.688L175.632 157.286L171.603 160.289C168.518 163.892 164.757 166.301 159 165.525Z" fill="#C4C4C4" stroke="black" stroke-width="2"/>
<path d="M150 157.525L153.603 160.611C159.949 161.465 163.978 158.462 166.377 154.688L166.632 149.286L162.603 152.289C159.518 155.892 155.757 158.301 150 157.525Z" fill="#C4C4C4" stroke="black" stroke-width="2"/>
<path d="M39.1855 248C42.5094 248 44.3844 245.933 44.3844 242.524C44.3844 239.136 42.5094 237.091 39.3347 237.091H35.8191V248H39.1855ZM37.1401 246.828V238.263H39.2495C41.8063 238.263 43.106 239.882 43.106 242.524C43.106 245.188 41.8063 246.828 39.1003 246.828H37.1401ZM46.4299 248H47.687V242.822C47.687 241.714 48.5605 240.905 49.7537 240.905C50.0893 240.905 50.4355 240.969 50.5208 240.99V239.712C50.377 239.701 50.0467 239.69 49.8603 239.69C48.8801 239.69 48.0279 240.244 47.7296 241.054H47.6444V239.818H46.4299V248ZM54.4186 248.192C55.8461 248.192 56.5919 247.425 56.8476 246.892H56.9115V248H58.1686V242.609C58.1686 240.01 56.1871 239.712 55.143 239.712C53.9072 239.712 52.501 240.138 51.8618 241.629L53.055 242.055C53.3319 241.459 53.9871 240.82 55.1856 240.82C56.3415 240.82 56.9115 241.432 56.9115 242.482V242.524C56.9115 243.131 56.2936 243.078 54.8021 243.27C53.284 243.467 51.6274 243.803 51.6274 245.678C51.6274 247.276 52.8632 248.192 54.4186 248.192ZM54.6104 247.062C53.6089 247.062 52.8845 246.615 52.8845 245.741C52.8845 244.783 53.7581 244.484 54.7382 244.357C55.2709 244.293 56.6984 244.143 56.9115 243.888V245.038C56.9115 246.061 56.1018 247.062 54.6104 247.062ZM62.3168 248H63.5526L65.3423 241.714H65.4702L67.2599 248H68.4957L70.9886 239.818H69.6676L67.8991 246.061H67.8139L66.0881 239.818H64.7457L62.9986 246.082H62.9134L61.1449 239.818H59.8239L62.3168 248ZM80.4276 239.818H78.6804V237.858H77.4233V239.818H76.1875V240.884H77.4233V245.997C77.4233 247.425 78.5739 248.107 79.6392 248.107C80.108 248.107 80.4062 248.021 80.5767 247.957L80.321 246.828C80.2145 246.849 80.044 246.892 79.767 246.892C79.2131 246.892 78.6804 246.722 78.6804 245.656V240.884H80.4276V239.818ZM83.7514 243.078C83.7514 241.651 84.6623 240.841 85.9034 240.841C87.0859 240.841 87.7997 241.587 87.7997 242.886V248H89.0568V242.801C89.0568 240.697 87.9382 239.712 86.2656 239.712C84.9766 239.712 84.2415 240.25 83.858 241.097H83.7514V237.091H82.4943V248H83.7514V243.078ZM91.3566 248H92.6137V239.818H91.3566V248ZM91.9958 238.455C92.4859 238.455 92.8907 238.071 92.8907 237.602C92.8907 237.134 92.4859 236.75 91.9958 236.75C91.5058 236.75 91.1009 237.134 91.1009 237.602C91.1009 238.071 91.5058 238.455 91.9958 238.455ZM100.712 241.651C100.317 240.489 99.4332 239.712 97.8139 239.712C96.0881 239.712 94.8097 240.692 94.8097 242.077C94.8097 243.206 95.4808 243.962 96.983 244.314L98.3466 244.634C99.1722 244.825 99.5611 245.219 99.5611 245.784C99.5611 246.487 98.8153 247.062 97.6435 247.062C96.6154 247.062 95.9709 246.62 95.7472 245.741L94.554 246.04C94.8469 247.43 95.9922 248.17 97.6648 248.17C99.5664 248.17 100.861 247.132 100.861 245.72C100.861 244.58 100.147 243.861 98.6875 243.504L97.473 243.206C96.5036 242.966 96.0668 242.641 96.0668 242.013C96.0668 241.31 96.8125 240.798 97.8139 240.798C98.9112 240.798 99.364 241.406 99.5824 241.97L100.712 241.651ZM103.669 248.085C104.197 248.085 104.628 247.654 104.628 247.126C104.628 246.599 104.197 246.168 103.669 246.168C103.142 246.168 102.71 246.599 102.71 247.126C102.71 247.654 103.142 248.085 103.669 248.085ZM113.255 248H114.618L117.026 239.307H117.111L119.519 248H120.883L123.866 237.091H122.523L120.243 245.976H120.137L117.814 237.091H116.323L114 245.976H113.894L111.614 237.091H110.272L113.255 248ZM126.598 243.078C126.598 241.651 127.509 240.841 128.75 240.841C129.933 240.841 130.646 241.587 130.646 242.886V248H131.903V242.801C131.903 240.697 130.785 239.712 129.112 239.712C127.823 239.712 127.088 240.25 126.705 241.097H126.598V237.091H125.341V248H126.598V243.078ZM134.203 248H135.46V239.818H134.203V248ZM134.843 238.455C135.333 238.455 135.737 238.071 135.737 237.602C135.737 237.134 135.333 236.75 134.843 236.75C134.352 236.75 133.948 237.134 133.948 237.602C133.948 238.071 134.352 238.455 134.843 238.455ZM139.02 237.091H137.763V248H139.02V237.091ZM144.753 248.17C146.415 248.17 147.629 247.339 148.013 246.104L146.798 245.763C146.479 246.615 145.738 247.041 144.753 247.041C143.277 247.041 142.26 246.088 142.201 244.335H148.141V243.803C148.141 240.756 146.33 239.712 144.625 239.712C142.409 239.712 140.939 241.459 140.939 243.973C140.939 246.487 142.388 248.17 144.753 248.17ZM142.201 243.249C142.287 241.975 143.187 240.841 144.625 240.841C145.989 240.841 146.862 241.864 146.862 243.249H142.201ZM154.272 248H155.529V239.818H154.272V248ZM154.911 238.455C155.401 238.455 155.806 238.071 155.806 237.602C155.806 237.134 155.401 236.75 154.911 236.75C154.421 236.75 154.016 237.134 154.016 237.602C154.016 238.071 154.421 238.455 154.911 238.455ZM159.088 243.078C159.088 241.651 159.973 240.841 161.176 240.841C162.343 240.841 163.051 241.603 163.051 242.886V248H164.309V242.801C164.309 240.713 163.195 239.712 161.539 239.712C160.303 239.712 159.536 240.266 159.152 241.097H159.046V239.818H157.831V248H159.088V243.078ZM172.081 243.078C172.081 241.651 172.992 240.841 174.233 240.841C175.416 240.841 176.13 241.587 176.13 242.886V248H177.387V242.801C177.387 240.697 176.268 239.712 174.596 239.712C173.307 239.712 172.572 240.25 172.188 241.097H172.081V237.091H170.824V248H172.081V243.078ZM182.094 248.192C183.522 248.192 184.268 247.425 184.523 246.892H184.587V248H185.844V242.609C185.844 240.01 183.863 239.712 182.819 239.712C181.583 239.712 180.177 240.138 179.538 241.629L180.731 242.055C181.008 241.459 181.663 240.82 182.861 240.82C184.017 240.82 184.587 241.432 184.587 242.482V242.524C184.587 243.131 183.969 243.078 182.478 243.27C180.96 243.467 179.303 243.803 179.303 245.678C179.303 247.276 180.539 248.192 182.094 248.192ZM182.286 247.062C181.285 247.062 180.56 246.615 180.56 245.741C180.56 244.783 181.434 244.484 182.414 244.357C182.947 244.293 184.374 244.143 184.587 243.888V245.038C184.587 246.061 183.778 247.062 182.286 247.062ZM189.396 243.078C189.396 241.651 190.28 240.841 191.484 240.841C192.651 240.841 193.359 241.603 193.359 242.886V248H194.616V242.801C194.616 240.713 193.503 239.712 191.846 239.712C190.61 239.712 189.843 240.266 189.46 241.097H189.353V239.818H188.139V248H189.396V243.078ZM200.003 248.17C201.579 248.17 202.112 247.19 202.389 246.743H202.538V248H203.753V237.091H202.496V241.118H202.389C202.112 240.692 201.622 239.712 200.024 239.712C197.957 239.712 196.53 241.352 196.53 243.93C196.53 246.53 197.957 248.17 200.003 248.17ZM200.173 247.041C198.597 247.041 197.787 245.656 197.787 243.909C197.787 242.183 198.575 240.841 200.173 240.841C201.707 240.841 202.517 242.077 202.517 243.909C202.517 245.763 201.686 247.041 200.173 247.041ZM208.105 246.509H206.741L206.677 247.105C206.523 248.549 206.219 249.987 206.081 250.663H207.039C207.295 249.939 207.838 248.298 208.019 247.084L208.105 246.509ZM25.2189 269.068H26.476V264.743H26.5826C26.8596 265.19 27.3922 266.17 28.9689 266.17C31.0144 266.17 32.4419 264.53 32.4419 261.93C32.4419 259.352 31.0144 257.712 28.9476 257.712C27.3496 257.712 26.8596 258.692 26.5826 259.118H26.4334V257.818H25.2189V269.068ZM26.4547 261.909C26.4547 260.077 27.2644 258.841 28.7985 258.841C30.3965 258.841 31.1848 260.183 31.1848 261.909C31.1848 263.656 30.3752 265.041 28.7985 265.041C27.2857 265.041 26.4547 263.763 26.4547 261.909ZM34.3596 266H35.6167V257.818H34.3596V266ZM34.9988 256.455C35.4888 256.455 35.8936 256.071 35.8936 255.602C35.8936 255.134 35.4888 254.75 34.9988 254.75C34.5087 254.75 34.1039 255.134 34.1039 255.602C34.1039 256.071 34.5087 256.455 34.9988 256.455ZM41.243 266.17C43.0541 266.17 44.2472 265.062 44.4603 263.614H43.2032C42.9688 264.509 42.2231 265.041 41.243 265.041C39.7515 265.041 38.7927 263.805 38.7927 261.909C38.7927 260.055 39.7728 258.841 41.243 258.841C42.3509 258.841 43.0115 259.523 43.2032 260.268H44.4603C44.2472 258.734 42.9475 257.712 41.2217 257.712C39.0058 257.712 37.5356 259.459 37.5356 261.952C37.5356 264.402 38.9419 266.17 41.243 266.17ZM46.298 266H47.5551V262.937L48.434 262.122L51.4969 266H53.0949L49.3822 261.312L52.8392 257.818H51.2838L47.7043 261.462H47.5551V255.091H46.298V266ZM61.0836 266.192C62.5112 266.192 63.2569 265.425 63.5126 264.892H63.5765V266H64.8336V260.609C64.8336 258.01 62.8521 257.712 61.8081 257.712C60.5723 257.712 59.166 258.138 58.5268 259.629L59.72 260.055C59.997 259.459 60.6522 258.82 61.8507 258.82C63.0066 258.82 63.5765 259.432 63.5765 260.482V260.524C63.5765 261.131 62.9586 261.078 61.4672 261.27C59.949 261.467 58.2924 261.803 58.2924 263.678C58.2924 265.276 59.5282 266.192 61.0836 266.192ZM61.2754 265.062C60.274 265.062 59.5495 264.615 59.5495 263.741C59.5495 262.783 60.4231 262.484 61.4032 262.357C61.9359 262.293 63.3635 262.143 63.5765 261.888V263.038C63.5765 264.061 62.7669 265.062 61.2754 265.062ZM68.3852 261.078C68.3852 259.651 69.2694 258.841 70.4733 258.841C71.6398 258.841 72.3483 259.603 72.3483 260.886V266H73.6054V260.801C73.6054 258.713 72.4921 257.712 70.8355 257.712C69.5997 257.712 68.8327 258.266 68.4491 259.097H68.3426V257.818H67.1281V266H68.3852V261.078ZM82.5289 266.192C83.9565 266.192 84.7022 265.425 84.9579 264.892H85.0218V266H86.2789V260.609C86.2789 258.01 84.2974 257.712 83.2534 257.712C82.0176 257.712 80.6113 258.138 79.9721 259.629L81.1653 260.055C81.4423 259.459 82.0975 258.82 83.296 258.82C84.4519 258.82 85.0218 259.432 85.0218 260.482V260.524C85.0218 261.131 84.4039 261.078 82.9125 261.27C81.3944 261.467 79.7377 261.803 79.7377 263.678C79.7377 265.276 80.9735 266.192 82.5289 266.192ZM82.7207 265.062C81.7193 265.062 80.9949 264.615 80.9949 263.741C80.9949 262.783 81.8684 262.484 82.8485 262.357C83.3812 262.293 84.8088 262.143 85.0218 261.888V263.038C85.0218 264.061 84.2122 265.062 82.7207 265.062ZM89.8305 255.091H88.5734V266H89.8305V255.091ZM93.3901 255.091H92.133V266H93.3901V255.091ZM96.5022 269.068C97.6368 269.068 98.4358 268.466 98.9099 267.193L102.394 257.839L101.019 257.818L98.7607 264.338H98.6755L96.417 257.818H95.0534L98.0789 266.043L97.8445 266.682C97.3865 267.928 96.8218 268.045 95.9056 267.811L95.586 268.919C95.7139 268.983 96.0761 269.068 96.5022 269.068ZM105.419 264.509H104.055L103.992 265.105C103.837 266.549 103.533 267.987 103.395 268.663H104.354C104.609 267.939 105.153 266.298 105.334 265.084L105.419 264.509ZM111.967 266H113.224V257.818H111.967V266ZM112.606 256.455C113.096 256.455 113.501 256.071 113.501 255.602C113.501 255.134 113.096 254.75 112.606 254.75C112.116 254.75 111.711 255.134 111.711 255.602C111.711 256.071 112.116 256.455 112.606 256.455ZM119.085 257.818H117.338V255.858H116.081V257.818H114.845V258.884H116.081V263.997C116.081 265.425 117.231 266.107 118.296 266.107C118.765 266.107 119.063 266.021 119.234 265.957L118.978 264.828C118.872 264.849 118.701 264.892 118.424 264.892C117.87 264.892 117.338 264.722 117.338 263.656V258.884H119.085V257.818ZM128.518 266.17C130.329 266.17 131.523 265.062 131.736 263.614H130.479C130.244 264.509 129.498 265.041 128.518 265.041C127.027 265.041 126.068 263.805 126.068 261.909C126.068 260.055 127.048 258.841 128.518 258.841C129.626 258.841 130.287 259.523 130.479 260.268H131.736C131.523 258.734 130.223 257.712 128.497 257.712C126.281 257.712 124.811 259.459 124.811 261.952C124.811 264.402 126.217 266.17 128.518 266.17ZM135.981 266.192C137.409 266.192 138.154 265.425 138.41 264.892H138.474V266H139.731V260.609C139.731 258.01 137.75 257.712 136.706 257.712C135.47 257.712 134.063 258.138 133.424 259.629L134.617 260.055C134.894 259.459 135.55 258.82 136.748 258.82C137.904 258.82 138.474 259.432 138.474 260.482V260.524C138.474 261.131 137.856 261.078 136.365 261.27C134.847 261.467 133.19 261.803 133.19 263.678C133.19 265.276 134.426 266.192 135.981 266.192ZM136.173 265.062C135.171 265.062 134.447 264.615 134.447 263.741C134.447 262.783 135.321 262.484 136.301 262.357C136.833 262.293 138.261 262.143 138.474 261.888V263.038C138.474 264.061 137.664 265.062 136.173 265.062ZM143.283 261.078C143.283 259.651 144.167 258.841 145.371 258.841C146.537 258.841 147.246 259.603 147.246 260.886V266H148.503V260.801C148.503 258.713 147.39 257.712 145.733 257.712C144.497 257.712 143.73 258.266 143.347 259.097H143.24V257.818H142.026V266H143.283V261.078ZM155.189 266H156.404V264.743H156.553C156.83 265.19 157.362 266.17 158.939 266.17C160.985 266.17 162.412 264.53 162.412 261.93C162.412 259.352 160.985 257.712 158.918 257.712C157.32 257.712 156.83 258.692 156.553 259.118H156.446V255.091H155.189V266ZM156.425 261.909C156.425 260.077 157.235 258.841 158.769 258.841C160.367 258.841 161.155 260.183 161.155 261.909C161.155 263.656 160.345 265.041 158.769 265.041C157.256 265.041 156.425 263.763 156.425 261.909ZM167.766 266.17C169.427 266.17 170.642 265.339 171.025 264.104L169.811 263.763C169.491 264.615 168.751 265.041 167.766 265.041C166.29 265.041 165.273 264.088 165.214 262.335H171.153V261.803C171.153 258.756 169.342 257.712 167.638 257.712C165.422 257.712 163.952 259.459 163.952 261.973C163.952 264.487 165.4 266.17 167.766 266.17ZM165.214 261.249C165.299 259.975 166.199 258.841 167.638 258.841C169.001 258.841 169.875 259.864 169.875 261.249H165.214ZM177.284 266H178.541V260.886C178.541 259.688 179.415 258.841 180.395 258.841C181.349 258.841 182.014 259.464 182.014 260.396V266H183.293V260.673C183.293 259.619 183.953 258.841 185.104 258.841C185.999 258.841 186.766 259.315 186.766 260.524V266H188.023V260.524C188.023 258.601 186.99 257.712 185.53 257.712C184.358 257.712 183.501 258.25 183.08 259.097H182.995C182.59 258.223 181.876 257.712 180.8 257.712C179.735 257.712 178.946 258.223 178.605 259.097H178.499V257.818H177.284V266ZM193.645 266.17C195.861 266.17 197.353 264.487 197.353 261.952C197.353 259.395 195.861 257.712 193.645 257.712C191.429 257.712 189.938 259.395 189.938 261.952C189.938 264.487 191.429 266.17 193.645 266.17ZM193.645 265.041C191.962 265.041 191.195 263.592 191.195 261.952C191.195 260.311 191.962 258.841 193.645 258.841C195.329 258.841 196.096 260.311 196.096 261.952C196.096 263.592 195.329 265.041 193.645 265.041ZM205.669 257.818H204.305L202.047 264.338H201.962L199.703 257.818H198.339L201.365 266H202.643L205.669 257.818ZM210.466 266.17C212.128 266.17 213.342 265.339 213.726 264.104L212.511 263.763C212.192 264.615 211.451 265.041 210.466 265.041C208.99 265.041 207.973 264.088 207.914 262.335H213.854V261.803C213.854 258.756 212.042 257.712 210.338 257.712C208.122 257.712 206.652 259.459 206.652 261.973C206.652 264.487 208.101 266.17 210.466 266.17ZM207.914 261.249C207.999 259.975 208.9 258.841 210.338 258.841C211.702 258.841 212.575 259.864 212.575 261.249H207.914ZM218.855 266.17C220.432 266.17 220.965 265.19 221.242 264.743H221.391V266H222.605V255.091H221.348V259.118H221.242C220.965 258.692 220.475 257.712 218.877 257.712C216.81 257.712 215.382 259.352 215.382 261.93C215.382 264.53 216.81 266.17 218.855 266.17ZM219.026 265.041C217.449 265.041 216.639 263.656 216.639 261.909C216.639 260.183 217.428 258.841 219.026 258.841C220.56 258.841 221.369 260.077 221.369 261.909C221.369 263.763 220.539 265.041 219.026 265.041ZM18.8542 284H20.1113V275.818H18.8542V284ZM19.4934 274.455C19.9834 274.455 20.3883 274.071 20.3883 273.602C20.3883 273.134 19.9834 272.75 19.4934 272.75C19.0033 272.75 18.5985 273.134 18.5985 273.602C18.5985 274.071 19.0033 274.455 19.4934 274.455ZM23.6709 279.078C23.6709 277.651 24.5551 276.841 25.7589 276.841C26.9255 276.841 27.6339 277.603 27.6339 278.886V284H28.891V278.801C28.891 276.713 27.7777 275.712 26.1211 275.712C24.8853 275.712 24.1183 276.266 23.7348 277.097H23.6282V275.818H22.4138V284H23.6709V279.078ZM34.7464 275.818H32.9992V273.858H31.7421V275.818H30.5063V276.884H31.7421V281.997C31.7421 283.425 32.8927 284.107 33.9581 284.107C34.4268 284.107 34.7251 284.021 34.8956 283.957L34.6399 282.828C34.5333 282.849 34.3629 282.892 34.0859 282.892C33.5319 282.892 32.9992 282.722 32.9992 281.656V276.884H34.7464V275.818ZM39.8734 284.17C42.0893 284.17 43.5807 282.487 43.5807 279.952C43.5807 277.395 42.0893 275.712 39.8734 275.712C37.6574 275.712 36.166 277.395 36.166 279.952C36.166 282.487 37.6574 284.17 39.8734 284.17ZM39.8734 283.041C38.1901 283.041 37.4231 281.592 37.4231 279.952C37.4231 278.311 38.1901 276.841 39.8734 276.841C41.5566 276.841 42.3236 278.311 42.3236 279.952C42.3236 281.592 41.5566 283.041 39.8734 283.041ZM52.1261 284.192C53.5537 284.192 54.2994 283.425 54.5551 282.892H54.619V284H55.8761V278.609C55.8761 276.01 53.8946 275.712 52.8505 275.712C51.6147 275.712 50.2085 276.138 49.5693 277.629L50.7625 278.055C51.0395 277.459 51.6946 276.82 52.8932 276.82C54.0491 276.82 54.619 277.432 54.619 278.482V278.524C54.619 279.131 54.0011 279.078 52.5096 279.27C50.9915 279.467 49.3349 279.803 49.3349 281.678C49.3349 283.276 50.5707 284.192 52.1261 284.192ZM52.3179 283.062C51.3165 283.062 50.592 282.615 50.592 281.741C50.592 280.783 51.4656 280.484 52.4457 280.357C52.9784 280.293 54.4059 280.143 54.619 279.888V281.038C54.619 282.061 53.8093 283.062 52.3179 283.062ZM62.3893 284H63.6464V278.822C63.6464 277.714 64.52 276.905 65.7132 276.905C66.0488 276.905 66.395 276.969 66.4802 276.99V275.712C66.3364 275.701 66.0062 275.69 65.8197 275.69C64.8396 275.69 63.9873 276.244 63.6891 277.054H63.6038V275.818H62.3893V284ZM71.0452 284.17C73.2611 284.17 74.7526 282.487 74.7526 279.952C74.7526 277.395 73.2611 275.712 71.0452 275.712C68.8293 275.712 67.3378 277.395 67.3378 279.952C67.3378 282.487 68.8293 284.17 71.0452 284.17ZM71.0452 283.041C69.362 283.041 68.5949 281.592 68.5949 279.952C68.5949 278.311 69.362 276.841 71.0452 276.841C72.7285 276.841 73.4955 278.311 73.4955 279.952C73.4955 281.592 72.7285 283.041 71.0452 283.041ZM79.9954 284.17C82.2113 284.17 83.7028 282.487 83.7028 279.952C83.7028 277.395 82.2113 275.712 79.9954 275.712C77.7795 275.712 76.288 277.395 76.288 279.952C76.288 282.487 77.7795 284.17 79.9954 284.17ZM79.9954 283.041C78.3122 283.041 77.5451 281.592 77.5451 279.952C77.5451 278.311 78.3122 276.841 79.9954 276.841C81.6787 276.841 82.4457 278.311 82.4457 279.952C82.4457 281.592 81.6787 283.041 79.9954 283.041ZM85.6218 284H86.8789V278.886C86.8789 277.688 87.7524 276.841 88.7326 276.841C89.686 276.841 90.3519 277.464 90.3519 278.396V284H91.6303V278.673C91.6303 277.619 92.2908 276.841 93.4414 276.841C94.3362 276.841 95.1033 277.315 95.1033 278.524V284H96.3604V278.524C96.3604 276.601 95.327 275.712 93.8675 275.712C92.6956 275.712 91.838 276.25 91.4172 277.097H91.332C90.9272 276.223 90.2134 275.712 89.1374 275.712C88.072 275.712 87.2837 276.223 86.9428 277.097H86.8362V275.818H85.6218V284ZM104.731 284H105.967L107.757 277.714H107.885L109.674 284H110.91L113.403 275.818H112.082L110.314 282.061H110.228L108.503 275.818H107.16L105.413 282.082H105.328L103.559 275.818H102.238L104.731 284ZM115.065 284H116.322V275.818H115.065V284ZM115.704 274.455C116.194 274.455 116.599 274.071 116.599 273.602C116.599 273.134 116.194 272.75 115.704 272.75C115.214 272.75 114.809 273.134 114.809 273.602C114.809 274.071 115.214 274.455 115.704 274.455ZM122.183 275.818H120.436V273.858H119.179V275.818H117.943V276.884H119.179V281.997C119.179 283.425 120.329 284.107 121.395 284.107C121.863 284.107 122.162 284.021 122.332 283.957L122.076 282.828C121.97 282.849 121.799 282.892 121.522 282.892C120.968 282.892 120.436 282.722 120.436 281.656V276.884H122.183V275.818ZM125.507 279.078C125.507 277.651 126.418 276.841 127.659 276.841C128.841 276.841 129.555 277.587 129.555 278.886V284H130.812V278.801C130.812 276.697 129.694 275.712 128.021 275.712C126.732 275.712 125.997 276.25 125.613 277.097H125.507V273.091H124.25V284H125.507V279.078ZM139.738 284.192C141.166 284.192 141.912 283.425 142.167 282.892H142.231V284H143.488V278.609C143.488 276.01 141.507 275.712 140.463 275.712C139.227 275.712 137.821 276.138 137.182 277.629L138.375 278.055C138.652 277.459 139.307 276.82 140.505 276.82C141.661 276.82 142.231 277.432 142.231 278.482V278.524C142.231 279.131 141.613 279.078 140.122 279.27C138.604 279.467 136.947 279.803 136.947 281.678C136.947 283.276 138.183 284.192 139.738 284.192ZM139.93 283.062C138.929 283.062 138.204 282.615 138.204 281.741C138.204 280.783 139.078 280.484 140.058 280.357C140.591 280.293 142.018 280.143 142.231 279.888V281.038C142.231 282.061 141.422 283.062 139.93 283.062ZM147.04 279.078C147.04 277.651 147.924 276.841 149.128 276.841C150.295 276.841 151.003 277.603 151.003 278.886V284H152.26V278.801C152.26 276.713 151.147 275.712 149.49 275.712C148.254 275.712 147.487 276.266 147.104 277.097H146.997V275.818H145.783V284H147.04V279.078ZM157.881 284.17C160.097 284.17 161.589 282.487 161.589 279.952C161.589 277.395 160.097 275.712 157.881 275.712C155.665 275.712 154.174 277.395 154.174 279.952C154.174 282.487 155.665 284.17 157.881 284.17ZM157.881 283.041C156.198 283.041 155.431 281.592 155.431 279.952C155.431 278.311 156.198 276.841 157.881 276.841C159.564 276.841 160.331 278.311 160.331 279.952C160.331 281.592 159.564 283.041 157.881 283.041ZM167.066 275.818H165.319V273.858H164.061V275.818H162.826V276.884H164.061V281.997C164.061 283.425 165.212 284.107 166.277 284.107C166.746 284.107 167.044 284.021 167.215 283.957L166.959 282.828C166.853 282.849 166.682 282.892 166.405 282.892C165.851 282.892 165.319 282.722 165.319 281.656V276.884H167.066V275.818ZM170.39 279.078C170.39 277.651 171.3 276.841 172.542 276.841C173.724 276.841 174.438 277.587 174.438 278.886V284H175.695V278.801C175.695 276.697 174.576 275.712 172.904 275.712C171.615 275.712 170.88 276.25 170.496 277.097H170.39V273.091H169.133V284H170.39V279.078ZM181.425 284.17C183.087 284.17 184.302 283.339 184.685 282.104L183.471 281.763C183.151 282.615 182.411 283.041 181.425 283.041C179.95 283.041 178.932 282.088 178.874 280.335H184.813V279.803C184.813 276.756 183.002 275.712 181.297 275.712C179.081 275.712 177.611 277.459 177.611 279.973C177.611 282.487 179.06 284.17 181.425 284.17ZM178.874 279.249C178.959 277.975 179.859 276.841 181.297 276.841C182.661 276.841 183.535 277.864 183.535 279.249H178.874ZM186.725 284H187.982V278.822C187.982 277.714 188.856 276.905 190.049 276.905C190.385 276.905 190.731 276.969 190.816 276.99V275.712C190.672 275.701 190.342 275.69 190.156 275.69C189.176 275.69 188.323 276.244 188.025 277.054H187.94V275.818H186.725V284ZM201.681 280.655C201.681 282.189 200.509 282.892 199.572 282.892C198.528 282.892 197.782 282.125 197.782 280.932V275.818H196.525V281.017C196.525 283.105 197.633 284.107 199.167 284.107C200.403 284.107 201.213 283.446 201.596 282.615H201.681V284H202.938V275.818H201.681V280.655ZM206.498 279.078C206.498 277.651 207.382 276.841 208.586 276.841C209.753 276.841 210.461 277.603 210.461 278.886V284H211.718V278.801C211.718 276.713 210.605 275.712 208.948 275.712C207.712 275.712 206.945 276.266 206.562 277.097H206.455V275.818H205.241V284H206.498V279.078ZM214.015 284H215.272V275.818H214.015V284ZM214.655 274.455C215.145 274.455 215.549 274.071 215.549 273.602C215.549 273.134 215.145 272.75 214.655 272.75C214.164 272.75 213.76 273.134 213.76 273.602C213.76 274.071 214.164 274.455 214.655 274.455ZM221.133 275.818H219.386V273.858H218.129V275.818H216.893V276.884H218.129V281.997C218.129 283.425 219.279 284.107 220.345 284.107C220.814 284.107 221.112 284.021 221.282 283.957L221.027 282.828C220.92 282.849 220.75 282.892 220.473 282.892C219.919 282.892 219.386 282.722 219.386 281.656V276.884H221.133V275.818ZM224.899 282.509H223.535L223.472 283.105C223.317 284.549 223.013 285.987 222.875 286.663H223.834C224.089 285.939 224.633 284.298 224.814 283.084L224.899 282.509ZM63.7683 302H64.9828V300.743H65.1319C65.4089 301.19 65.9416 302.17 67.5183 302.17C69.5637 302.17 70.9913 300.53 70.9913 297.93C70.9913 295.352 69.5637 293.712 67.497 293.712C65.899 293.712 65.4089 294.692 65.1319 295.118H65.0254V291.091H63.7683V302ZM65.0041 297.909C65.0041 296.077 65.8137 294.841 67.3478 294.841C68.9458 294.841 69.7342 296.183 69.7342 297.909C69.7342 299.656 68.9245 301.041 67.3478 301.041C65.835 301.041 65.0041 299.763 65.0041 297.909ZM76.2381 302.17C78.454 302.17 79.9455 300.487 79.9455 297.952C79.9455 295.395 78.454 293.712 76.2381 293.712C74.0222 293.712 72.5307 295.395 72.5307 297.952C72.5307 300.487 74.0222 302.17 76.2381 302.17ZM76.2381 301.041C74.5549 301.041 73.7878 299.592 73.7878 297.952C73.7878 296.311 74.5549 294.841 76.2381 294.841C77.9213 294.841 78.6884 296.311 78.6884 297.952C78.6884 299.592 77.9213 301.041 76.2381 301.041ZM85.4227 293.818H83.6755V291.858H82.4184V293.818H81.1826V294.884H82.4184V299.997C82.4184 301.425 83.569 302.107 84.6343 302.107C85.1031 302.107 85.4014 302.021 85.5718 301.957L85.3161 300.828C85.2096 300.849 85.0392 300.892 84.7622 300.892C84.2082 300.892 83.6755 300.722 83.6755 299.656V294.884H85.4227V293.818ZM88.7465 297.078C88.7465 295.651 89.6574 294.841 90.8985 294.841C92.0811 294.841 92.7948 295.587 92.7948 296.886V302H94.0519V296.801C94.0519 294.697 92.9333 293.712 91.2607 293.712C89.9717 293.712 89.2366 294.25 88.8531 295.097H88.7465V291.091H87.4894V302H88.7465V297.078ZM103.66 302.17C105.237 302.17 105.769 301.19 106.046 300.743H106.195V302H107.41V291.091H106.153V295.118H106.046C105.769 294.692 105.279 293.712 103.681 293.712C101.615 293.712 100.187 295.352 100.187 297.93C100.187 300.53 101.615 302.17 103.66 302.17ZM103.83 301.041C102.254 301.041 101.444 299.656 101.444 297.909C101.444 296.183 102.232 294.841 103.83 294.841C105.365 294.841 106.174 296.077 106.174 297.909C106.174 299.763 105.343 301.041 103.83 301.041ZM109.887 302H111.144V293.818H109.887V302ZM110.526 292.455C111.016 292.455 111.421 292.071 111.421 291.602C111.421 291.134 111.016 290.75 110.526 290.75C110.036 290.75 109.631 291.134 109.631 291.602C109.631 292.071 110.036 292.455 110.526 292.455ZM116.877 302.17C118.539 302.17 119.753 301.339 120.137 300.104L118.922 299.763C118.603 300.615 117.862 301.041 116.877 301.041C115.401 301.041 114.384 300.088 114.325 298.335H120.265V297.803C120.265 294.756 118.454 293.712 116.749 293.712C114.533 293.712 113.063 295.459 113.063 297.973C113.063 300.487 114.512 302.17 116.877 302.17ZM114.325 297.249C114.411 295.975 115.311 294.841 116.749 294.841C118.113 294.841 118.986 295.864 118.986 297.249H114.325ZM126.396 302H127.653V293.818H126.396V302ZM127.035 292.455C127.525 292.455 127.93 292.071 127.93 291.602C127.93 291.134 127.525 290.75 127.035 290.75C126.545 290.75 126.14 291.134 126.14 291.602C126.14 292.071 126.545 292.455 127.035 292.455ZM131.212 297.078C131.212 295.651 132.097 294.841 133.3 294.841C134.467 294.841 135.175 295.603 135.175 296.886V302H136.433V296.801C136.433 294.713 135.319 293.712 133.663 293.712C132.427 293.712 131.66 294.266 131.276 295.097H131.17V293.818H129.955V302H131.212V297.078ZM142.948 302H144.206V296.822C144.206 295.714 145.079 294.905 146.272 294.905C146.608 294.905 146.954 294.969 147.039 294.99V293.712C146.896 293.701 146.565 293.69 146.379 293.69C145.399 293.69 144.546 294.244 144.248 295.054H144.163V293.818H142.948V302ZM151.711 302.17C153.373 302.17 154.587 301.339 154.971 300.104L153.756 299.763C153.437 300.615 152.696 301.041 151.711 301.041C150.235 301.041 149.218 300.088 149.159 298.335H155.099V297.803C155.099 294.756 153.288 293.712 151.583 293.712C149.367 293.712 147.897 295.459 147.897 297.973C147.897 300.487 149.346 302.17 151.711 302.17ZM149.159 297.249C149.245 295.975 150.145 294.841 151.583 294.841C152.947 294.841 153.82 295.864 153.82 297.249H149.159ZM162.806 295.651C162.412 294.489 161.528 293.712 159.909 293.712C158.183 293.712 156.904 294.692 156.904 296.077C156.904 297.206 157.576 297.962 159.078 298.314L160.441 298.634C161.267 298.825 161.656 299.219 161.656 299.784C161.656 300.487 160.91 301.062 159.738 301.062C158.71 301.062 158.066 300.62 157.842 299.741L156.649 300.04C156.942 301.43 158.087 302.17 159.759 302.17C161.661 302.17 162.956 301.132 162.956 299.72C162.956 298.58 162.242 297.861 160.782 297.504L159.568 297.206C158.598 296.966 158.161 296.641 158.161 296.013C158.161 295.31 158.907 294.798 159.909 294.798C161.006 294.798 161.459 295.406 161.677 295.97L162.806 295.651ZM170.004 298.655C170.004 300.189 168.832 300.892 167.895 300.892C166.851 300.892 166.105 300.125 166.105 298.932V293.818H164.848V299.017C164.848 301.105 165.956 302.107 167.49 302.107C168.726 302.107 169.535 301.446 169.919 300.615H170.004V302H171.261V293.818H170.004V298.655ZM174.821 291.091H173.564V302H174.821V291.091ZM180.681 293.818H178.934V291.858H177.677V293.818H176.441V294.884H177.677V299.997C177.677 301.425 178.828 302.107 179.893 302.107C180.362 302.107 180.66 302.021 180.831 301.957L180.575 300.828C180.468 300.849 180.298 300.892 180.021 300.892C179.467 300.892 178.934 300.722 178.934 299.656V294.884H180.681V293.818ZM183.489 302.085C184.016 302.085 184.447 301.654 184.447 301.126C184.447 300.599 184.016 300.168 183.489 300.168C182.961 300.168 182.53 300.599 182.53 301.126C182.53 301.654 182.961 302.085 183.489 302.085Z" fill="black" fill-opacity="0.87"/>
<path d="M216 160H236V176L228 184.5L236 192V208H226H216V160Z" fill="#FF4B3C" stroke="black" stroke-width="2"/>
<path d="M216 160H236V176L228 184.5L236 192V208H226H216V160Z" fill="black" fill-opacity="0.17"/>
<path d="M224 168L216 160V168H224Z" fill="black" fill-opacity="0.38" stroke="black" stroke-width="2" stroke-linejoin="bevel"/>
<path d="M248 176L240 184L248 192V176Z" fill="#D4D4D4"/>
<path d="M32 160H12V176L20 184.5L12 192V208H22H32V160Z" fill="#FF4B3C" stroke="black" stroke-width="2"/>
<path d="M32 160H12V176L20 184.5L12 192V208H22H32V160Z" fill="black" fill-opacity="0.17"/>
<path d="M24 168L32 160V168H24Z" fill="black" fill-opacity="0.38" stroke="black" stroke-width="2" stroke-linejoin="bevel"/>
<path d="M0 176L8 184L0 192V176Z" fill="#D4D4D4"/>
<path d="M224 168H24V216H224V168Z" fill="#FF4B3C" stroke="black" stroke-width="2"/>
<path d="M47.8493 201.452L50.0453 200.696V183.56L47.8493 182.804V181.256H58.3253C59.6453 181.256 60.8813 181.592 62.0333 182.264C63.1853 182.912 64.1213 184.004 64.8413 185.54C65.5613 187.076 65.9213 189.068 65.9213 191.516C65.9213 195.428 65.2613 198.32 63.9413 200.192C62.6213 202.064 60.7493 203 58.3253 203H47.8493V201.452ZM58.6133 201.056C59.5973 201.056 60.3773 200.228 60.9533 198.572C61.5293 196.892 61.8173 194.624 61.8173 191.768C61.8173 190.208 61.6853 188.78 61.4213 187.484C61.1573 186.164 60.7853 185.12 60.3053 184.352C59.8253 183.56 59.2613 183.164 58.6133 183.164L53.9693 183.632V200.516L58.6133 201.056ZM74.3481 203.36C73.2921 203.36 72.3201 203.072 71.4321 202.496C70.5681 201.896 69.8721 201.008 69.3441 199.832C68.8401 198.656 68.5881 197.216 68.5881 195.512C68.5881 194.384 68.6721 193.34 68.8401 192.38C69.0081 191.396 69.2241 190.628 69.4881 190.076C69.8961 189.524 70.7961 188.78 72.1881 187.844C73.6041 186.908 74.5401 186.44 74.9961 186.44C75.2601 186.44 76.1961 186.56 77.8041 186.8C79.4121 187.016 80.6481 187.196 81.5121 187.34V200.696L82.7721 201.2V202.748C80.5881 203.156 79.3761 203.36 79.1361 203.36C79.0401 203.36 78.8001 203.18 78.4161 202.82C78.0561 202.46 77.8761 202.22 77.8761 202.1V200.804C75.6921 202.508 74.5161 203.36 74.3481 203.36ZM74.7441 200.444C74.9841 200.444 75.9921 200 77.7681 199.112V189.428C77.1921 189.212 76.4601 189.02 75.5721 188.852C74.7081 188.66 74.1321 188.588 73.8441 188.636C73.4121 188.732 73.0881 189.272 72.8721 190.256C72.6561 191.24 72.5481 192.884 72.5481 195.188C72.5481 196.34 72.6681 197.312 72.9081 198.104C73.1721 198.896 73.4721 199.484 73.8081 199.868C74.1681 200.252 74.4801 200.444 74.7441 200.444ZM91.9893 209.552C91.1493 209.552 89.9133 209.432 88.2812 209.192C86.6493 208.976 85.4253 208.772 84.6093 208.58L84.9333 205.844L89.3613 201.848C88.6653 201.8 87.9933 201.488 87.3453 200.912C86.6973 200.336 86.1573 199.52 85.7253 198.464C85.3173 197.408 85.1133 196.184 85.1133 194.792C85.1133 194 85.1853 193.148 85.3293 192.236C85.4733 191.324 85.6653 190.604 85.9053 190.076C86.2893 189.548 87.1773 188.816 88.5693 187.88C89.9853 186.92 90.9093 186.44 91.3413 186.44C91.6053 186.44 92.5053 186.56 94.0413 186.8C95.5773 187.04 96.7533 187.232 97.5693 187.376V203.756C97.5693 204.5 97.2213 205.328 96.5253 206.24C95.8533 207.152 95.0613 207.932 94.1493 208.58C93.2373 209.228 92.5173 209.552 91.9893 209.552ZM91.4493 199.94C91.6653 199.94 92.4573 199.46 93.8253 198.5V189.428C93.3693 189.26 92.7933 189.092 92.0973 188.924C91.4253 188.732 90.9213 188.636 90.5853 188.636C89.5293 188.636 89.0013 190.652 89.0013 194.684C89.0013 195.908 89.1333 196.916 89.3973 197.708C89.6853 198.476 90.0213 199.04 90.4053 199.4C90.7893 199.76 91.1373 199.94 91.4493 199.94ZM93.0693 207.716C93.3333 207.716 93.5493 207.164 93.7173 206.06C93.8853 204.956 93.9693 203.792 93.9693 202.568V200.804L93.7893 200.732C92.9493 201.5 90.9693 203.384 87.8493 206.384V206.6C88.2093 206.744 89.0493 206.96 90.3693 207.248C91.7133 207.56 92.6133 207.716 93.0693 207.716ZM107.634 209.552C106.794 209.552 105.558 209.432 103.926 209.192C102.294 208.976 101.07 208.772 100.254 208.58L100.578 205.844L105.006 201.848C104.31 201.8 103.638 201.488 102.99 200.912C102.342 200.336 101.802 199.52 101.37 198.464C100.962 197.408 100.758 196.184 100.758 194.792C100.758 194 100.83 193.148 100.974 192.236C101.118 191.324 101.31 190.604 101.55 190.076C101.934 189.548 102.822 188.816 104.214 187.88C105.63 186.92 106.554 186.44 106.986 186.44C107.25 186.44 108.15 186.56 109.686 186.8C111.222 187.04 112.398 187.232 113.214 187.376V203.756C113.214 204.5 112.866 205.328 112.17 206.24C111.498 207.152 110.706 207.932 109.794 208.58C108.882 209.228 108.162 209.552 107.634 209.552ZM107.094 199.94C107.31 199.94 108.102 199.46 109.47 198.5V189.428C109.014 189.26 108.438 189.092 107.742 188.924C107.07 188.732 106.566 188.636 106.23 188.636C105.174 188.636 104.646 190.652 104.646 194.684C104.646 195.908 104.778 196.916 105.042 197.708C105.33 198.476 105.666 199.04 106.05 199.4C106.434 199.76 106.782 199.94 107.094 199.94ZM108.714 207.716C108.978 207.716 109.194 207.164 109.362 206.06C109.53 204.956 109.614 203.792 109.614 202.568V200.804L109.434 200.732C108.594 201.5 106.614 203.384 103.494 206.384V206.6C103.854 206.744 104.694 206.96 106.014 207.248C107.358 207.56 108.258 207.716 108.714 207.716ZM122.558 203.36C121.43 203.36 120.386 203.072 119.426 202.496C118.49 201.92 117.734 201.056 117.158 199.904C116.606 198.752 116.33 197.348 116.33 195.692C116.33 194.516 116.414 193.412 116.582 192.38C116.75 191.348 116.966 190.58 117.23 190.076C117.494 189.716 118.022 189.236 118.814 188.636C119.606 188.012 120.398 187.472 121.19 187.016C122.006 186.56 122.57 186.332 122.882 186.332C124.202 186.332 125.282 186.548 126.122 186.98C126.962 187.412 127.61 188.228 128.066 189.428C128.522 190.604 128.75 192.272 128.75 194.432L120.254 195.152C120.254 196.472 120.422 197.528 120.758 198.32C121.118 199.112 121.538 199.676 122.018 200.012C122.498 200.348 122.954 200.516 123.386 200.516L128.21 200.336V201.956C127.37 202.244 126.302 202.556 125.006 202.892C123.71 203.204 122.894 203.36 122.558 203.36ZM124.898 192.884C124.898 190.052 124.154 188.624 122.666 188.6H122.378C121.994 188.6 121.646 188.66 121.334 188.78C121.046 188.876 120.806 189.404 120.614 190.364C120.422 191.3 120.326 192.344 120.326 193.496L124.898 192.884ZM133.614 203.36C133.494 203.36 133.242 203.18 132.858 202.82C132.498 202.46 132.318 202.22 132.318 202.1V189.032L130.986 188.564V187.052C133.122 186.668 134.31 186.476 134.55 186.476C134.67 186.476 134.934 186.68 135.342 187.088C135.774 187.472 135.99 187.712 135.99 187.808L135.918 189.14C137.67 187.244 138.618 186.296 138.762 186.296C139.194 186.296 140.022 186.488 141.246 186.872C141.318 187.04 141.378 187.244 141.426 187.484C141.474 187.7 141.498 187.904 141.498 188.096C141.498 188.288 141.33 188.708 140.994 189.356C140.682 189.98 140.478 190.316 140.382 190.364C139.446 190.004 138.786 189.824 138.402 189.824C138.234 189.824 137.922 189.932 137.466 190.148C137.01 190.34 136.542 190.58 136.062 190.868V200.48L138.006 201.056V202.712C135.318 203.144 133.854 203.36 133.614 203.36ZM148.713 201.452L150.909 200.696V183.56L148.713 182.804V181.256H158.865C160.737 181.256 162.165 181.76 163.149 182.768C164.157 183.752 164.661 185.372 164.661 187.628C164.661 190.292 164.013 192.236 162.717 193.46C161.445 194.684 159.813 195.296 157.821 195.296H154.833V200.48L157.965 201.272V203H148.713V201.452ZM157.785 192.992C158.529 192.992 159.081 192.92 159.441 192.776C159.825 192.608 160.125 192.224 160.341 191.624C160.557 191 160.665 190.028 160.665 188.708C160.665 186.98 160.485 185.648 160.125 184.712C159.789 183.776 159.285 183.308 158.613 183.308L154.833 183.668V192.992H157.785ZM171.977 203.36C170.921 203.36 169.949 203.072 169.061 202.496C168.197 201.896 167.501 201.008 166.973 199.832C166.469 198.656 166.217 197.216 166.217 195.512C166.217 194.384 166.301 193.34 166.469 192.38C166.637 191.396 166.853 190.628 167.117 190.076C167.525 189.524 168.425 188.78 169.817 187.844C171.233 186.908 172.169 186.44 172.625 186.44C172.889 186.44 173.825 186.56 175.433 186.8C177.041 187.016 178.277 187.196 179.141 187.34V200.696L180.401 201.2V202.748C178.217 203.156 177.005 203.36 176.765 203.36C176.669 203.36 176.429 203.18 176.045 202.82C175.685 202.46 175.505 202.22 175.505 202.1V200.804C173.321 202.508 172.145 203.36 171.977 203.36ZM172.373 200.444C172.613 200.444 173.621 200 175.397 199.112V189.428C174.821 189.212 174.089 189.02 173.201 188.852C172.337 188.66 171.761 188.588 171.473 188.636C171.041 188.732 170.717 189.272 170.501 190.256C170.285 191.24 170.177 192.884 170.177 195.188C170.177 196.34 170.297 197.312 170.537 198.104C170.801 198.896 171.101 199.484 171.437 199.868C171.797 200.252 172.109 200.444 172.373 200.444ZM185.334 203.36C185.19 203.36 184.902 203.168 184.47 202.784C184.038 202.376 183.822 202.112 183.822 201.992V188.996L182.49 188.564V187.052C184.65 186.668 185.85 186.476 186.09 186.476C186.234 186.476 186.51 186.668 186.918 187.052C187.326 187.412 187.53 187.676 187.53 187.844V200.804L188.826 201.2V202.712C186.738 203.144 185.574 203.36 185.334 203.36ZM183.57 179.78L186.702 179.6L187.314 180.428L187.098 183.668H183.858L183.57 179.78ZM193.626 203.36C193.506 203.36 193.254 203.18 192.87 202.82C192.51 202.46 192.33 202.22 192.33 202.1V189.032L190.998 188.564V187.052C193.134 186.668 194.322 186.476 194.562 186.476C194.682 186.476 194.946 186.68 195.354 187.088C195.786 187.472 196.002 187.712 196.002 187.808L195.93 189.14C197.682 187.244 198.63 186.296 198.774 186.296C199.206 186.296 200.034 186.488 201.258 186.872C201.33 187.04 201.39 187.244 201.438 187.484C201.486 187.7 201.51 187.904 201.51 188.096C201.51 188.288 201.342 188.708 201.006 189.356C200.694 189.98 200.49 190.316 200.394 190.364C199.458 190.004 198.798 189.824 198.414 189.824C198.246 189.824 197.934 189.932 197.478 190.148C197.022 190.34 196.554 190.58 196.074 190.868V200.48L198.018 201.056V202.712C195.33 203.144 193.866 203.36 193.626 203.36Z" fill="white"/>
<defs>
<linearGradient id="paint0_linear_1061_19058" x1="124" y1="44" x2="124" y2="224" gradientUnits="userSpaceOnUse">
<stop stop-color="#A1A1A1"/>
<stop offset="1" stop-color="#C4C4C4" stop-opacity="0"/>
</linearGradient>
</defs>
</svg>
