<svg width="249" height="320" viewBox="0 0 249 320" fill="none" xmlns="http://www.w3.org/2000/svg">
<g clip-path="url(#clip0_93_7810)">
<path d="M0.5 6C0.5 2.6863 3.18629 0 6.5 0H242.5C245.814 0 248.5 2.68629 248.5 6V314C248.5 317.314 245.814 320 242.5 320H6.49999C3.18629 320 0.5 317.314 0.5 314V6Z" fill="white"/>
<rect x="1" y="0.5" width="247" height="319" rx="5.5" fill="white" stroke="#D4D4D4"/>
<rect x="44.5" y="44" width="160" height="180" fill="black" fill-opacity="0.1"/>
<path d="M44.5 44.625H204.5V224.625C204.5 224.625 158.332 164.923 116 161.375C108.891 160.779 100.13 161.619 92.3757 162.791C80.1199 164.642 67.3892 161.851 57.9492 153.819C49.4166 146.558 44.5 135.919 44.5 124.716V44.625Z" fill="url(#paint0_linear_93_7810)" fill-opacity="0.17"/>
<path d="M63.4998 84.625C63.3047 84.2836 63.2245 83.7567 63.2246 83.125L62 72.625L62.9058 66.375L64.5 55.375L68.5 44.625H76.5H116.5H160.5L156.5 48.625L152.5 50.875L154.25 53.875H160.5L162 47.375H164.5V44.625H204.5V152.625V184.625V224.625H132.5H129.25H128.5H124.5H122.5H107.032H100.5H84.5H67.2498L80.5 202.125L97.7398 189.25L100.5 181.875L99.8505 175.177L97.8841 154.898L96.5 140.625L94.0687 134.597L88.0253 119.615L84.5 110.875C83.0588 109.11 81.2967 106.946 79.4116 104.625C76.691 101.275 73.7143 97.5967 71.077 94.3132C68.2506 90.7942 65.8139 87.7285 64.5 86.0061C63.9601 85.2983 63.6097 84.8174 63.4998 84.625Z" fill="#2A3174"/>
<path d="M67.2498 68.625L74.2498 66.375L92.5 62.625L108.5 64.625M67.2498 68.625L64.9295 75.375M67.2498 68.625L68.5 52.625L76.5 44.625M84.5 224.625H100.5M84.5 224.625L87.259 217.253M84.5 224.625H67.2498L80.5 202.125L97.7398 189.25M128.5 224.625L138.75 208.625L146.5 199.375L154.25 192.625L158.901 188.625M128.5 224.625H124.5M128.5 224.625H129.25M140.5 75.375L148.5 80.625L156.5 86.875L164.5 110.875L173.75 125.875L189 152.625L166.75 181.875L158.901 188.625M140.5 75.375L108.5 64.625M140.5 75.375L144.5 62.625M108.5 64.625L111 50.875M63.2246 83.125C63.2248 81.1666 63.9957 78.2002 64.4998 76.625L64.9295 75.375M63.2246 83.125C63.2245 83.7567 63.3047 84.2836 63.4998 84.625C63.6097 84.8174 63.9601 85.2983 64.5 86.0061M63.2246 83.125L62 72.625L62.9058 66.375M152.5 50.875L156.5 48.625L160.5 44.625H116.5M152.5 50.875L154.25 53.875H160.5L162 47.375H164.5V44.625H204.5V152.625M152.5 50.875L144.5 62.625M124.5 224.625H129.25M124.5 224.625H122.5M129.25 224.625H132.5M100.5 224.625L103.1 218.125M100.5 224.625H107.032M64.9295 75.375L71.8164 83.5009M62.9058 66.375L64.5 55.375L68.5 44.625H76.5M62.9058 66.375L68.5 55.375L92.5 50.875H111M111 50.875L144.5 62.625M111 50.875L116.5 44.625M144.5 62.625L162 76.625L168.5 102.625L178.5 118.125L204.5 152.625M204.5 152.625L172.5 186.375L154.25 199.744M204.5 152.625V184.625M132.5 224.625H204.5V184.625M132.5 224.625L143.25 209.875L151 202.125L154.25 199.744M158.901 188.625L164.5 164.625L156.5 184.625L151 181.875V186.375L148.5 184.625L140.5 191.375L143.25 192.625V194.625H138.75C133.75 199.425 127.167 213.958 124.5 220.625L122.5 224.625M122.5 224.625H107.032M97.8841 154.898L96.5 140.625L94.0687 134.597L88.0253 119.615L84.5 110.875C83.0588 109.11 81.2967 106.946 79.4116 104.625C76.691 101.275 73.7143 97.5967 71.077 94.3132C68.2506 90.7942 65.8139 87.7285 64.5 86.0061M97.8841 154.898H103.75L105.625 150L108.5 154.898H112.584M97.8841 154.898L99.8505 175.177M112.584 154.898L111 142.875L107.032 134.597L99.8505 119.615L96.5 112.625L89.19 104L80.5 93.7466L71.8164 83.5009M112.584 154.898L114.172 166.951M64.5 86.0061L67.2498 84.625V82.25L69 84.625L71.8164 83.5009M99.8505 175.177L100.5 181.875L97.7398 189.25M99.8505 175.177H106.25L107.032 171.625L108.5 175.177H115.255M115.255 175.177L116.5 184.625L111 198.375M115.255 175.177L114.172 166.951M94.9795 196.625L101.875 197.5L103.75 194.625V197.5L111 198.375M94.9795 196.625L87.259 217.253M94.9795 196.625L97.7398 189.25M111 198.375L103.1 218.125M87.259 217.253H94.375L97.125 213.375V217.253L101.875 218.125H103.1M76.5 44.625H116.5M154.25 199.744L151 206.125L144.5 216.625L156.5 204.625L164.5 199.375V202.125L168.5 199.744V204.625L173.75 199.744L184.5 188.625L204.5 184.625M114.172 166.951L116.5 156.625L119 158.875V150L122.5 142.875M140.5 160.875L138.75 171.625L141.75 170.375L135 181.875L131.25 192.625L124.5 191.375L128.5 196.625L120.5 209.875L117.75 206.125L107.032 224.625" stroke="black" stroke-width="2"/>
<path d="M116.5 184.625L100.5 224.625H122.5L128.5 209.875L138.5 194.625H144.5V192.625L140.5 191.125L148.5 184.625L150.75 187.375V180.625L156.5 184.625L164.5 165.875C162.75 172.125 159.25 185.175 159.25 187.375C159.25 189.575 161.583 186.458 162.75 184.625L170 165.875L166.5 161.875L161.75 150.625L92.5 62.875L68.5 68.625L65.75 75.375L96.5 112.625L111.25 144.625L116.5 184.625Z" fill="url(#paint1_linear_93_7810)"/>
<path d="M67.2498 68.625L74.2498 66.375L92.5 62.625L108.5 64.625M67.2498 68.625L64.9295 75.375M67.2498 68.625L68.5 52.625L76.5 44.625M84.5 224.625H100.5M84.5 224.625L87.259 217.253M84.5 224.625H67.2498L80.5 202.125L97.7398 189.25M128.5 224.625L138.75 208.625L146.5 199.375L154.25 192.625L158.901 188.625M128.5 224.625H124.5M128.5 224.625H129.25M140.5 75.375L148.5 80.625L156.5 86.875L164.5 110.875L173.75 125.875L189 152.625L166.75 181.875L158.901 188.625M140.5 75.375L108.5 64.625M140.5 75.375L144.5 62.625M108.5 64.625L111 50.875M63.2246 83.125C63.2248 81.1666 63.9957 78.2002 64.4998 76.625L64.9295 75.375M63.2246 83.125C63.2245 83.7567 63.3047 84.2836 63.4998 84.625C63.6097 84.8174 63.9601 85.2983 64.5 86.0061M63.2246 83.125L62 72.625L62.9058 66.375M152.5 50.875L156.5 48.625L160.5 44.625H116.5M152.5 50.875L154.25 53.875H160.5L162 47.375H164.5V44.625H204.5V152.625M152.5 50.875L144.5 62.625M124.5 224.625H129.25M124.5 224.625H122.5M129.25 224.625H132.5M100.5 224.625L103.1 218.125M100.5 224.625H107.032M64.9295 75.375L71.8164 83.5009M62.9058 66.375L64.5 55.375L68.5 44.625H76.5M62.9058 66.375L68.5 55.375L92.5 50.875H111M111 50.875L144.5 62.625M111 50.875L116.5 44.625M144.5 62.625L162 76.625L168.5 102.625L178.5 118.125L204.5 152.625M204.5 152.625L172.5 186.375L154.25 199.744M204.5 152.625V184.625M132.5 224.625H204.5V184.625M132.5 224.625L143.25 209.875L151 202.125L154.25 199.744M158.901 188.625L164.5 164.625L156.5 184.625L151 181.875V186.375L148.5 184.625L140.5 191.375L143.25 192.625V194.625H138.75C133.75 199.425 127.167 213.958 124.5 220.625L122.5 224.625M122.5 224.625H107.032M97.8841 154.898L96.5 140.625L94.0687 134.597L88.0253 119.615L84.5 110.875C83.0588 109.11 81.2967 106.946 79.4116 104.625C76.691 101.275 73.7143 97.5967 71.077 94.3132C68.2506 90.7942 65.8139 87.7285 64.5 86.0061M97.8841 154.898H103.75L105.625 150L108.5 154.898H112.584M97.8841 154.898L99.8505 175.177M112.584 154.898L111 142.875L107.032 134.597L99.8505 119.615L96.5 112.625L89.19 104L80.5 93.7466L71.8164 83.5009M112.584 154.898L114.172 166.951M64.5 86.0061L67.2498 84.625V82.25L69 84.625L71.8164 83.5009M99.8505 175.177L100.5 181.875L97.7398 189.25M99.8505 175.177H106.25L107.032 171.625L108.5 175.177H115.255M115.255 175.177L116.5 184.625L111 198.375M115.255 175.177L114.172 166.951M94.9795 196.625L101.875 197.5L103.75 194.625V197.5L111 198.375M94.9795 196.625L87.259 217.253M94.9795 196.625L97.7398 189.25M111 198.375L103.1 218.125M87.259 217.253H94.375L97.125 213.375V217.253L101.875 218.125H103.1M76.5 44.625H116.5M154.25 199.744L151 206.125L144.5 216.625L156.5 204.625L164.5 199.375V202.125L168.5 199.744V204.625L173.75 199.744L184.5 188.625L204.5 184.625M114.172 166.951L116.5 156.625L119 158.875V150L122.5 142.875M140.5 160.875L138.75 171.625L141.75 170.375L135 181.875L131.25 192.625L124.5 191.375L128.5 196.625L120.5 209.875L117.75 206.125L107.032 224.625" stroke="black" stroke-width="2"/>
<path d="M44.5 74.6875V44.625H69.5" stroke="black" stroke-width="2"/>
<path d="M44.5 74.6875V69.625C44.5 55.8179 55.6929 44.625 69.5 44.625V44.625" stroke="black" stroke-width="2"/>
<path d="M44.5 194.562V199.625C44.5 213.432 55.6929 224.625 69.5 224.625V224.625" stroke="black" stroke-width="2"/>
<path d="M44.5 104.781V74.7188H69.5" stroke="black" stroke-width="2"/>
<path d="M44.5 134.875V104.812H79.125" stroke="black" stroke-width="2"/>
<path d="M48.5 104.875V134" stroke="black" stroke-width="2"/>
<path d="M52.5 104.875V134" stroke="black" stroke-width="2"/>
<path d="M56.5 104.875V134" stroke="black" stroke-width="2"/>
<path d="M60.5 104.875V134" stroke="black" stroke-width="2"/>
<path d="M64.5 104.875V134" stroke="black" stroke-width="2"/>
<path d="M68.5 104.875V134" stroke="black" stroke-width="2"/>
<path d="M72.5 104.875V134" stroke="black" stroke-width="2"/>
<path d="M76.5 104.875V134" stroke="black" stroke-width="2"/>
<path d="M80.5 106.688L80.5 134" stroke="black" stroke-width="2"/>
<path d="M84.5 111.062L84.5 134" stroke="black" stroke-width="2"/>
<path d="M88.5 120.625L88.5 134" stroke="black" stroke-width="2"/>
<path d="M44.5 164.625V134.562H94.125" stroke="black" stroke-width="2"/>
<path d="M44.5 194.562V224.625H78.5" stroke="black" stroke-width="2"/>
<path d="M204.5 74.6875V44.625H179.5" stroke="black" stroke-width="2"/>
<path d="M204.5 194.562V224.625H179.5" stroke="black" stroke-width="2"/>
<path d="M76.5 69.75V66.125L91.75 62.5L105.375 64.625L122.5 69.75L140.5 75.875L149.25 80.625L155.375 86.625L161.75 103L166.625 114.75L172.5 127L173.25 132.625C172.333 133.042 167.85 134.35 163.75 144.75C162.962 146.748 162.941 149.673 161.75 151.5C156.741 159.186 149.564 166.269 145.625 168.625L141.375 162.75V161.25L137.125 157.25L135.875 154.75H134.125L129.25 149.875V148.625H127.25L118.5 138.5L120.5 140.625L123.5 141.5L122.25 139.625L119.625 137.5H117.75L113.875 135.125L112.5 131.25L110.125 128.625L107.375 124.625L104.5 122.75L102.875 120L103.875 118.25L104.5 114.75L103.875 111.25H102.875L96.5 104.125L94.125 103.625L92.5 102.25L89.75 101.625L87.25 95.25L84.5 86.625L76.5 69.75Z" fill="white"/>
<path d="M161.75 151.5C156.741 159.186 149.564 166.269 145.625 168.625L141.375 162.75V161.25L137.125 157.25L135.875 154.75H134.125L129.25 149.875V148.625H127.25L118.5 138.5L120.5 140.625L123.5 141.5L122.25 139.625L119.625 137.5H117.75L113.875 135.125L112.5 131.25L110.125 128.625L107.375 124.625L104.5 122.75L102.875 120L103.875 118.25L104.5 114.75L103.875 111.25H102.875L96.5 104.125L94.125 103.625L92.5 102.25L89.75 101.625L87.25 95.25L84.5 86.625L76.5 69.75V66.125L91.75 62.5L105.375 64.625L122.5 69.75L140.5 75.875L149.25 80.625L155.375 86.625L161.75 103L166.625 114.75L172.5 127L173.25 132.625C172.333 133.042 167.85 134.35 163.75 144.75C162.962 146.748 162.941 149.673 161.75 151.5ZM161.75 151.5L165.375 161.25L169.5 164.625L161.75 186.625L180.5 148.625L176.5 130.375" stroke="black" stroke-width="2"/>
<path d="M121.25 84.875L118.875 91.875L114 92.625L108.5 90.625H106.25L105.25 93.25L102.75 94.625L101.5 96.625L102.75 88.625L101.5 86.5V80L103.625 70.5L110.375 65.875M123.625 70.5L125.25 74.375L127.875 75.875H131.875L132.5 80L133.5 86.5L131.875 90.625L127.125 100.625L126 108M137.625 74.375L139.375 80.625L138.75 91.875V93.25L135.125 96V93.25C135.208 92.7917 135.6 91.875 136.5 91.875M139.375 96.625L138.75 101.375L137.625 108L141.125 111.125L142.625 118.625L140.5 117.875M140.5 117.875L141.75 120.625L137.625 126L135.875 124.625L133.5 118.625L140.5 117.875ZM135.125 124.625L130.625 125.25L131.681 129.581M136.5 126V130.375L137.625 131.375L136.5 134L135.875 133.51M131.681 129.581L131.875 130.375L135.875 133.51M131.681 129.581H128.5L130.194 134M135.875 133.51L135.125 136.625V139.75L134.274 138.875M130.194 134L130.625 135.125L134.274 138.875M130.194 134L127.125 133.51L124.5 134L125.63 137.672M134.274 138.875L132.5 142.125L131.681 144.625L126 138.875L125.63 137.672M125.63 137.672L121.375 136.625V139.75M109.125 124.625L107.875 122.5L111.75 123.5M130.625 145.625L130.194 147.625L135.125 153.25L137.625 154.25V150.25L135.125 147.625L138.75 150.25H141.75V146.5L137.625 142.125V139.75L139.375 137.672L143.75 142.125L143.987 143.86M142.625 147.625H144.5L143.987 143.86M143.987 143.86L147.875 142.125L147.375 136.625L145.562 135.068M145.562 135.068L143.75 133.51L144.5 132L146.125 132.625L145.562 135.068ZM151.5 137.672C151.792 136.198 152.2 133.125 151.5 132.625C150.8 132.125 149.208 130.083 148.5 129.125L150.25 127.75L152.5 129.581L158 128.625L160.5 124.625L155.875 117.875L153.75 114.75L154.5 112.625L156.5 111.125L158 108.625L159.75 109.25L161.875 111.625L164.5 110M97.75 102.5L96.5 100.625H99.25L104.5 106.375V108.625L100.5 105.5M100.5 71.625L99.25 76.625M124.5 121.625L126 124.625L128.5 125.25M117 127.25L118.875 130.375L121.375 132M132.5 97.375V103.875L133.5 105.5L130.625 111.625L132.5 116M117 116.75L108.5 119.875L109.125 119.648L112.5 120.625L115.875 123.5L114.75 120.625L117 116.75ZM98.625 81.5L97.75 83.875L93.25 84.625L95.375 88.625H97.75L96.5 93.25L99.25 87.25L98.625 81.5ZM108.5 98.25H110.375V103.875L113.125 100.625L116.5 97.375L113.125 98.25L111.75 96.625L108.5 98.25Z" stroke="black" stroke-width="2"/>
<path d="M144.5 124L143.5 126.375V127L145 122.625L147.875 121.25L149.625 119.125L151 112.625L152.5 111.125L154.125 109.25L157.375 106.375H160.5L161.75 103.75L166.375 101.25L165.75 103.75L171.375 98.3752L166.375 106.375H163L163.875 108L169.625 107L164.5 110L161.75 111.5L158.75 108.625L157.375 109.25L155.125 112.625L154.125 114.5L157.375 120L155.125 124L151.625 124.625L151 127.875L148.5 129.125L149.625 130.75L147.875 132H145L142.875 136.625L142.375 141.25L139.5 137.375L138.5 138.625L136.5 142.125L135.125 140.625V137.375L136.5 134.25L137.875 132L136.5 130.75V126.375L143.5 117.5L145 116.625L144.5 115.375L147.125 112.625V108.625L147.875 107V104.625L149.625 101.25V98.3752V94.8752L154.125 89.625L152.5 92.6252L155.125 91.5002L159.75 87.5H161.125H163L164.5 86.5002L166.375 83.875L167.125 80.625L165.125 79.2502L164.5 78.5L163 75.875V80.625L164.5 82H163L161.125 80.625V76.625L159.75 75.1252L160.5 70.5L161.75 68.625H163L161.75 65.375L158.75 61.5V55.875L160.5 54V51.875L161.75 47.375L165.125 46.375L165.75 44.625H198.125L192.5 47.375L190.125 50L187.875 50.75L185.375 54L183 54.625L180.5 53.375H176.5L177.625 52.625L174.375 53.375L173.875 54.625L171.375 56.625L174.375 55.875L175.375 57.75L174.375 60.625L178.5 57.75L180.5 55.875V57.75L176.5 60.625L173.875 62.875L171.375 63.625L169.625 66.875L168.5 69.25V73.75C167.924 73.4098 166.987 72.8067 166.369 72.2812C166.839 73.0947 167.472 74.3191 167.875 75.1252H169.625L171.375 79.2502L170.5 83.0002L173.875 84.6252L171.375 88.6252L170.5 92.6252L165.75 98.3752L168.5 92.6252L169.625 88.6252V85.5002H168.5L167.125 86.5002L164.5 88.6252L163.875 91.5002H163H159.75L157.375 94.8752V96.6252L156.5 98.3752H158.75L161.75 93.5002H165.75L163 94.8752L158.75 100H155.75V101.25L154.125 103.75L151 106.375L149.625 109.25V111.5V113.5L148.5 117.5L144.5 121.25V124Z" fill="#C4C4C4"/>
<path d="M174.375 93.5002L172.5 96.6252L177.625 94.8752V88.6252L183 82L175.375 88L174.375 93.5002Z" fill="#C4C4C4"/>
<path d="M181.75 87.5L179.875 91.5002L183.75 88.6252L185.375 91.5002L186.875 86.5002L190.125 85.5002L197.25 78.5V84.6252L200.5 82.5L204.5 93.5002V54L199.125 55.875L197.25 67.75L194.125 66.875L189.5 71.5002L186.125 73.75L183.75 79.2502H186.125L185.375 84.6252L181.75 87.5Z" fill="#C4C4C4"/>
<path d="M144.5 124L143.5 126.375V127L145 122.625L147.875 121.25L149.625 119.125L151 112.625L152.5 111.125L154.125 109.25L157.375 106.375H160.5L161.75 103.75L166.375 101.25L165.75 103.75L171.375 98.3752L166.375 106.375H163L163.875 108L169.625 107L164.5 110L161.75 111.5L158.75 108.625L157.375 109.25L155.125 112.625L154.125 114.5L157.375 120L155.125 124L151.625 124.625L151 127.875L148.5 129.125L149.625 130.75L147.875 132H145L142.875 136.625L142.375 141.25L139.5 137.375L138.5 138.625L136.5 142.125L135.125 140.625V137.375L136.5 134.25L137.875 132L136.5 130.75V126.375L143.5 117.5L145 116.625L144.5 115.375L147.125 112.625V108.625L147.875 107V104.625L149.625 101.25V98.3752V94.8752L154.125 89.625L152.5 92.6252L155.125 91.5002L159.75 87.5H161.125H163L164.5 86.5002L166.375 83.875L167.125 80.625L165.125 79.2502L164.5 78.5L163 75.875V80.625L164.5 82H163L161.125 80.625V76.625L159.75 75.1252L160.5 70.5L161.75 68.625H163L161.75 65.375L158.75 61.5V55.875L160.5 54V51.875L161.75 47.375L165.125 46.375L165.75 44.625H198.125L192.5 47.375L190.125 50L187.875 50.75L185.375 54L183 54.625L180.5 53.375H176.5L177.625 52.625L174.375 53.375L173.875 54.625L171.375 56.625L174.375 55.875L175.375 57.75L174.375 60.625L178.5 57.75L180.5 55.875V57.75L176.5 60.625L173.875 62.875L171.375 63.625L169.625 66.875L168.5 69.25V73.75C167.924 73.4098 166.987 72.8067 166.369 72.2812C166.839 73.0947 167.472 74.3191 167.875 75.1252H169.625L171.375 79.2502L170.5 83.0002L173.875 84.6252L171.375 88.6252L170.5 92.6252L165.75 98.3752L168.5 92.6252L169.625 88.6252V85.5002H168.5L167.125 86.5002L164.5 88.6252L163.875 91.5002H163H159.75L157.375 94.8752V96.6252L156.5 98.3752H158.75L161.75 93.5002H165.75L163 94.8752L158.75 100H155.75V101.25L154.125 103.75L151 106.375L149.625 109.25V111.5V113.5L148.5 117.5L144.5 121.25V124Z" stroke="black" stroke-width="2"/>
<path d="M174.375 93.5002L172.5 96.6252L177.625 94.8752V88.6252L183 82L175.375 88L174.375 93.5002Z" stroke="black" stroke-width="2"/>
<path d="M181.75 87.5L179.875 91.5002L183.75 88.6252L185.375 91.5002L186.875 86.5002L190.125 85.5002L197.25 78.5V84.6252L200.5 82.5L204.5 93.5002V54L199.125 55.875L197.25 67.75L194.125 66.875L189.5 71.5002L186.125 73.75L183.75 79.2502H186.125L185.375 84.6252L181.75 87.5Z" stroke="black" stroke-width="2"/>
<path d="M111.429 70.1359L110.388 70.7538C109.149 71.4894 108.115 72.5247 107.38 73.7644C106.799 74.745 106.419 75.8314 106.261 76.9603L106.074 78.306C105.861 79.8305 106.011 81.3836 106.511 82.8393C106.917 84.0189 107.544 85.1101 108.359 86.0541L108.576 86.3054C109.188 87.0138 109.91 87.6186 110.715 88.0965L111.379 88.4904C112.747 89.3028 114.362 89.5948 115.928 89.3129L116.823 89.1518C118.63 88.8265 120.12 87.5491 120.717 85.8129C120.985 85.0328 121.058 84.199 120.931 83.384L120.644 81.5457C120.548 80.9328 120.5 80.3135 120.5 79.6932V78.9205C120.5 77.4065 120.187 75.909 119.58 74.522L119.304 73.8922C118.938 73.0548 118.418 72.2933 117.772 71.647L116.954 70.829C116.103 69.978 114.949 69.5 113.746 69.5C112.93 69.5 112.13 69.7197 111.429 70.1359Z" fill="#C4C4C4" stroke="black" stroke-width="2"/>
<path d="M113.125 66.5625L116.5 53L124.5 44.625" stroke="black" stroke-width="2"/>
<path d="M118.438 68.3125L121.812 54.75L131.625 44.625" stroke="black" stroke-width="2"/>
<path d="M123.75 69.6562L127.125 56.0938L137.187 44.625" stroke="black" stroke-width="2"/>
<path d="M129.875 71.5312L133.25 57.9688L144.5 44.375" stroke="black" stroke-width="2"/>
<path d="M135.188 73.3438L138.562 59.7812L151.312 44.625" stroke="black" stroke-width="2"/>
<path d="M53.3821 266H54.9673V260.886H57.831C57.946 260.886 58.0547 260.886 58.1634 260.88L60.9247 266H62.7656L59.8061 260.592C61.4744 260.023 62.2543 258.662 62.2543 256.923C62.2543 254.609 60.8736 252.909 57.8054 252.909H53.3821V266ZM54.9673 259.455V254.315H57.7543C59.8764 254.315 60.6946 255.351 60.6946 256.923C60.6946 258.496 59.8764 259.455 57.7798 259.455H54.9673ZM68.7022 266.205C70.6966 266.205 72.1539 265.207 72.6142 263.724L71.1568 263.315C70.7733 264.338 69.8848 264.849 68.7022 264.849C66.9316 264.849 65.7108 263.705 65.6404 261.602H72.7676V260.963C72.7676 257.307 70.5943 256.054 68.5488 256.054C65.8897 256.054 64.1255 258.151 64.1255 261.168C64.1255 264.185 65.8642 266.205 68.7022 266.205ZM65.6404 260.298C65.7427 258.771 66.823 257.409 68.5488 257.409C70.1852 257.409 71.2335 258.636 71.2335 260.298H65.6404ZM75.0623 266H76.5708V259.864C76.5708 258.425 77.6191 257.409 78.7953 257.409C79.9395 257.409 80.7385 258.157 80.7385 259.276V266H82.2726V259.608C82.2726 258.342 83.0652 257.409 84.4458 257.409C85.5197 257.409 86.4402 257.978 86.4402 259.429V266H87.9487V259.429C87.9487 257.121 86.7086 256.054 84.9572 256.054C83.551 256.054 82.5218 256.7 82.0169 257.716H81.9146C81.4288 256.668 80.5723 256.054 79.2811 256.054C78.0027 256.054 77.0566 256.668 76.6475 257.716H76.5197V256.182H75.0623V266ZM94.6955 266.205C97.3546 266.205 99.1444 264.185 99.1444 261.142C99.1444 258.074 97.3546 256.054 94.6955 256.054C92.0364 256.054 90.2466 258.074 90.2466 261.142C90.2466 264.185 92.0364 266.205 94.6955 266.205ZM94.6955 264.849C92.6756 264.849 91.7551 263.111 91.7551 261.142C91.7551 259.173 92.6756 257.409 94.6955 257.409C96.7154 257.409 97.6358 259.173 97.6358 261.142C97.6358 263.111 96.7154 264.849 94.6955 264.849ZM109.124 256.182H107.488L104.777 264.006H104.675L101.965 256.182H100.328L103.959 266H105.493L109.124 256.182ZM114.88 266.205C116.874 266.205 118.332 265.207 118.792 263.724L117.335 263.315C116.951 264.338 116.062 264.849 114.88 264.849C113.109 264.849 111.888 263.705 111.818 261.602H118.945V260.963C118.945 257.307 116.772 256.054 114.727 256.054C112.067 256.054 110.303 258.151 110.303 261.168C110.303 264.185 112.042 266.205 114.88 266.205ZM111.818 260.298C111.92 258.771 113.001 257.409 114.727 257.409C116.363 257.409 117.411 258.636 117.411 260.298H111.818ZM129.192 266.23C130.905 266.23 131.8 265.31 132.107 264.67H132.183V266H133.692V259.531C133.692 256.412 131.314 256.054 130.061 256.054C128.578 256.054 126.891 256.565 126.124 258.355L127.555 258.866C127.888 258.151 128.674 257.384 130.112 257.384C131.499 257.384 132.183 258.119 132.183 259.378V259.429C132.183 260.158 131.442 260.094 129.652 260.324C127.83 260.56 125.842 260.963 125.842 263.213C125.842 265.131 127.325 266.23 129.192 266.23ZM129.422 264.875C128.22 264.875 127.351 264.338 127.351 263.29C127.351 262.139 128.399 261.781 129.575 261.628C130.214 261.551 131.928 261.372 132.183 261.065V262.446C132.183 263.673 131.212 264.875 129.422 264.875ZM137.954 260.094C137.954 258.381 139.015 257.409 140.459 257.409C141.859 257.409 142.709 258.323 142.709 259.864V266H144.218V259.761C144.218 257.256 142.882 256.054 140.894 256.054C139.411 256.054 138.491 256.719 138.03 257.716H137.903V256.182H136.445V266H137.954V260.094ZM147.594 269.682C148.956 269.682 149.915 268.96 150.484 267.432L154.664 256.207L153.015 256.182L150.305 264.006H150.202L147.492 256.182H145.856L149.487 266.051L149.205 266.818C148.656 268.314 147.978 268.455 146.879 268.173L146.495 269.503C146.648 269.58 147.083 269.682 147.594 269.682ZM167.91 261.986C167.91 263.827 166.504 264.67 165.379 264.67C164.126 264.67 163.231 263.75 163.231 262.318V256.182H161.722V262.42C161.722 264.926 163.052 266.128 164.893 266.128C166.376 266.128 167.347 265.335 167.808 264.338H167.91V266H169.419V256.182H167.91V261.986ZM173.69 260.094C173.69 258.381 174.751 257.409 176.196 257.409C177.596 257.409 178.446 258.323 178.446 259.864V266H179.954V259.761C179.954 257.256 178.618 256.054 176.63 256.054C175.147 256.054 174.227 256.719 173.767 257.716H173.639V256.182H172.181V266H173.69V260.094ZM182.711 266H184.219V256.182H182.711V266ZM183.478 254.545C184.066 254.545 184.552 254.085 184.552 253.523C184.552 252.96 184.066 252.5 183.478 252.5C182.89 252.5 182.404 252.96 182.404 253.523C182.404 254.085 182.89 254.545 183.478 254.545ZM191.252 256.182H189.156V253.83H187.647V256.182H186.164V257.46H187.647V263.597C187.647 265.31 189.028 266.128 190.306 266.128C190.869 266.128 191.227 266.026 191.431 265.949L191.124 264.594C190.996 264.619 190.792 264.67 190.46 264.67C189.795 264.67 189.156 264.466 189.156 263.188V257.46H191.252V256.182ZM65.5302 278.182H63.3313V277.185C63.3313 276.213 63.7404 275.702 64.7376 275.702C65.1722 275.702 65.4279 275.804 65.5813 275.855L66.016 274.551C65.7859 274.449 65.3256 274.295 64.5842 274.295C63.1779 274.295 61.8228 275.139 61.8228 276.827V278.182H60.2376V279.46H61.8228V288H63.3313V279.46H65.5302V278.182ZM67.6444 288H69.1529V281.787C69.1529 280.457 70.2012 279.486 71.633 279.486C72.0357 279.486 72.4512 279.562 72.5534 279.588V278.054C72.3809 278.041 71.9846 278.028 71.7608 278.028C70.5847 278.028 69.562 278.693 69.204 279.665H69.1017V278.182H67.6444V288ZM78.0314 288.205C80.6905 288.205 82.4803 286.185 82.4803 283.142C82.4803 280.074 80.6905 278.054 78.0314 278.054C75.3723 278.054 73.5826 280.074 73.5826 283.142C73.5826 286.185 75.3723 288.205 78.0314 288.205ZM78.0314 286.849C76.0115 286.849 75.0911 285.111 75.0911 283.142C75.0911 281.173 76.0115 279.409 78.0314 279.409C80.0513 279.409 80.9718 281.173 80.9718 283.142C80.9718 285.111 80.0513 286.849 78.0314 286.849ZM84.783 288H86.2915V281.864C86.2915 280.425 87.3398 279.409 88.516 279.409C89.6602 279.409 90.4592 280.157 90.4592 281.276V288H91.9933V281.608C91.9933 280.342 92.7859 279.409 94.1665 279.409C95.2404 279.409 96.1609 279.978 96.1609 281.429V288H97.6694V281.429C97.6694 279.121 96.4293 278.054 94.6779 278.054C93.2717 278.054 92.2425 278.7 91.7376 279.716H91.6353C91.1495 278.668 90.293 278.054 89.0018 278.054C87.7234 278.054 86.7773 278.668 86.3683 279.716H86.2404V278.182H84.783V288ZM109.76 278.182H107.663V275.83H106.155V278.182H104.672V279.46H106.155V285.597C106.155 287.31 107.536 288.128 108.814 288.128C109.376 288.128 109.734 288.026 109.939 287.949L109.632 286.594C109.504 286.619 109.3 286.67 108.967 286.67C108.303 286.67 107.663 286.466 107.663 285.188V279.46H109.76V278.182ZM113.749 282.094C113.749 280.381 114.842 279.409 116.331 279.409C117.75 279.409 118.607 280.304 118.607 281.864V288H120.115V281.761C120.115 279.237 118.773 278.054 116.766 278.054C115.219 278.054 114.337 278.7 113.876 279.716H113.749V274.909H112.24V288H113.749V282.094ZM126.991 288.205C128.986 288.205 130.443 287.207 130.903 285.724L129.446 285.315C129.062 286.338 128.174 286.849 126.991 286.849C125.221 286.849 124 285.705 123.93 283.602H131.057V282.963C131.057 279.307 128.883 278.054 126.838 278.054C124.179 278.054 122.415 280.151 122.415 283.168C122.415 286.185 124.153 288.205 126.991 288.205ZM123.93 282.298C124.032 280.771 125.112 279.409 126.838 279.409C128.474 279.409 129.523 280.636 129.523 282.298H123.93ZM142.377 291.886C144.729 291.886 146.621 290.812 146.621 288.281V278.182H145.164V279.741H145.01C144.678 279.23 144.064 278.054 142.147 278.054C139.667 278.054 137.954 280.023 137.954 283.04C137.954 286.108 139.743 287.847 142.121 287.847C144.039 287.847 144.653 286.722 144.985 286.185H145.113V288.179C145.113 289.815 143.962 290.557 142.377 290.557C140.594 290.557 139.967 289.617 139.564 289.074L138.363 289.918C138.976 290.947 140.184 291.886 142.377 291.886ZM142.326 286.491C140.434 286.491 139.462 285.06 139.462 283.014C139.462 281.02 140.408 279.409 142.326 279.409C144.167 279.409 145.138 280.892 145.138 283.014C145.138 285.188 144.141 286.491 142.326 286.491ZM152.272 288.23C153.985 288.23 154.88 287.31 155.187 286.67H155.263V288H156.772V281.531C156.772 278.412 154.394 278.054 153.141 278.054C151.658 278.054 149.971 278.565 149.204 280.355L150.635 280.866C150.968 280.151 151.754 279.384 153.192 279.384C154.579 279.384 155.263 280.119 155.263 281.378V281.429C155.263 282.158 154.522 282.094 152.732 282.324C150.91 282.56 148.922 282.963 148.922 285.213C148.922 287.131 150.405 288.23 152.272 288.23ZM152.502 286.875C151.3 286.875 150.431 286.338 150.431 285.29C150.431 284.139 151.479 283.781 152.655 283.628C153.295 283.551 155.008 283.372 155.263 283.065V284.446C155.263 285.673 154.292 286.875 152.502 286.875ZM159.525 288H161.034V281.864C161.034 280.425 162.082 279.409 163.258 279.409C164.402 279.409 165.201 280.157 165.201 281.276V288H166.735V281.608C166.735 280.342 167.528 279.409 168.909 279.409C169.983 279.409 170.903 279.978 170.903 281.429V288H172.412V281.429C172.412 279.121 171.172 278.054 169.42 278.054C168.014 278.054 166.985 278.7 166.48 279.716H166.377C165.892 278.668 165.035 278.054 163.744 278.054C162.466 278.054 161.52 278.668 161.11 279.716H160.983V278.182H159.525V288ZM179.286 288.205C181.281 288.205 182.738 287.207 183.198 285.724L181.741 285.315C181.357 286.338 180.469 286.849 179.286 286.849C177.516 286.849 176.295 285.705 176.224 283.602H183.352V282.963C183.352 279.307 181.178 278.054 179.133 278.054C176.474 278.054 174.71 280.151 174.71 283.168C174.71 286.185 176.448 288.205 179.286 288.205ZM176.224 282.298C176.327 280.771 177.407 279.409 179.133 279.409C180.769 279.409 181.817 280.636 181.817 282.298H176.224ZM186.746 288.102C187.379 288.102 187.896 287.585 187.896 286.952C187.896 286.319 187.379 285.801 186.746 285.801C186.113 285.801 185.595 286.319 185.595 286.952C185.595 287.585 186.113 288.102 186.746 288.102Z" fill="black" fill-opacity="0.87"/>
<path d="M216.5 160H236.5V176L228.5 184.5L236.5 192V208H226.5H216.5V160Z" fill="#FF4B3C" stroke="black" stroke-width="2"/>
<path d="M216.5 160H236.5V176L228.5 184.5L236.5 192V208H226.5H216.5V160Z" fill="black" fill-opacity="0.17"/>
<path d="M224.5 168L216.5 160V168H224.5Z" fill="black" fill-opacity="0.38" stroke="black" stroke-width="2" stroke-linejoin="bevel"/>
<path d="M248.5 176L240.5 184L248.5 192V176Z" fill="#D4D4D4"/>
<path d="M32.5 160H12.5V176L20.5 184.5L12.5 192V208H22.5H32.5V160Z" fill="#FF4B3C" stroke="black" stroke-width="2"/>
<path d="M32.5 160H12.5V176L20.5 184.5L12.5 192V208H22.5H32.5V160Z" fill="black" fill-opacity="0.17"/>
<path d="M24.5 168L32.5 160V168H24.5Z" fill="black" fill-opacity="0.38" stroke="black" stroke-width="2" stroke-linejoin="bevel"/>
<path d="M0.5 176L8.5 184L0.5 192V176Z" fill="#D4D4D4"/>
<path d="M224.5 168H24.5V216H224.5V168Z" fill="#FF4B3C" stroke="black" stroke-width="2"/>
<path d="M85.8962 201.452L88.0922 200.696V183.56L85.8962 182.804V181.256H96.3722C97.6922 181.256 98.9282 181.592 100.08 182.264C101.232 182.912 102.168 184.004 102.888 185.54C103.608 187.076 103.968 189.068 103.968 191.516C103.968 195.428 103.308 198.32 101.988 200.192C100.668 202.064 98.7962 203 96.3722 203H85.8962V201.452ZM96.6602 201.056C97.6442 201.056 98.4242 200.228 99.0002 198.572C99.5762 196.892 99.8642 194.624 99.8642 191.768C99.8642 190.208 99.7322 188.78 99.4682 187.484C99.2042 186.164 98.8322 185.12 98.3522 184.352C97.8722 183.56 97.3082 183.164 96.6602 183.164L92.0162 183.632V200.516L96.6602 201.056ZM112.863 203.36C111.735 203.36 110.691 203.072 109.731 202.496C108.795 201.92 108.039 201.056 107.463 199.904C106.911 198.752 106.635 197.348 106.635 195.692C106.635 194.516 106.719 193.412 106.887 192.38C107.055 191.348 107.271 190.58 107.535 190.076C107.799 189.716 108.327 189.236 109.119 188.636C109.911 188.012 110.703 187.472 111.495 187.016C112.311 186.56 112.875 186.332 113.187 186.332C114.507 186.332 115.587 186.548 116.427 186.98C117.267 187.412 117.915 188.228 118.371 189.428C118.827 190.604 119.055 192.272 119.055 194.432L110.559 195.152C110.559 196.472 110.727 197.528 111.063 198.32C111.423 199.112 111.843 199.676 112.323 200.012C112.803 200.348 113.259 200.516 113.691 200.516L118.515 200.336V201.956C117.675 202.244 116.607 202.556 115.311 202.892C114.015 203.204 113.199 203.36 112.863 203.36ZM115.203 192.884C115.203 190.052 114.459 188.624 112.971 188.6H112.683C112.299 188.6 111.951 188.66 111.639 188.78C111.351 188.876 111.111 189.404 110.919 190.364C110.727 191.3 110.631 192.344 110.631 193.496L115.203 192.884ZM127.231 203.36C126.175 203.36 125.203 203.072 124.315 202.496C123.451 201.896 122.755 201.008 122.227 199.832C121.723 198.656 121.471 197.216 121.471 195.512C121.471 194.384 121.555 193.34 121.723 192.38C121.891 191.396 122.107 190.628 122.371 190.076C122.779 189.524 123.679 188.78 125.071 187.844C126.487 186.908 127.423 186.44 127.879 186.44C128.143 186.44 129.079 186.56 130.687 186.8C132.295 187.016 133.531 187.196 134.395 187.34V200.696L135.655 201.2V202.748C133.471 203.156 132.259 203.36 132.019 203.36C131.923 203.36 131.683 203.18 131.299 202.82C130.939 202.46 130.759 202.22 130.759 202.1V200.804C128.575 202.508 127.399 203.36 127.231 203.36ZM127.627 200.444C127.867 200.444 128.875 200 130.651 199.112V189.428C130.075 189.212 129.343 189.02 128.455 188.852C127.591 188.66 127.015 188.588 126.727 188.636C126.295 188.732 125.971 189.272 125.755 190.256C125.539 191.24 125.431 192.884 125.431 195.188C125.431 196.34 125.551 197.312 125.791 198.104C126.055 198.896 126.355 199.484 126.691 199.868C127.051 200.252 127.363 200.444 127.627 200.444ZM141.884 203.36C141.596 203.36 141.236 203.18 140.804 202.82C140.372 202.46 139.988 202.04 139.652 201.56C139.316 201.08 139.148 200.696 139.148 200.408V188.888H136.808V187.592L139.148 186.476L141.488 183.704C141.704 183.68 142.172 183.848 142.892 184.208V186.8H146.42V189.032H142.892V198.824C142.892 199.52 142.952 200 143.072 200.264C143.192 200.504 143.42 200.624 143.756 200.624L146.78 200.732V202.64C146.036 202.808 145.1 202.964 143.972 203.108C142.868 203.276 142.172 203.36 141.884 203.36ZM150.811 203.36C150.691 203.36 150.439 203.18 150.055 202.82C149.695 202.46 149.515 202.22 149.515 202.1V182.264L148.219 181.76V180.248C150.499 179.84 151.759 179.636 151.999 179.636C152.119 179.636 152.359 179.816 152.719 180.176C153.079 180.512 153.259 180.752 153.259 180.896L153.079 188.888L153.259 188.924C153.955 188.396 154.687 187.856 155.455 187.304C156.247 186.752 156.691 186.476 156.787 186.476C158.563 186.476 159.883 186.92 160.747 187.808C161.635 188.672 162.079 190.196 162.079 192.38V200.66L163.375 201.2V202.712C161.119 203.144 159.883 203.36 159.667 203.36C159.547 203.36 159.295 203.18 158.911 202.82C158.527 202.46 158.335 202.22 158.335 202.1V192.38C158.335 191.084 158.131 190.256 157.723 189.896C157.339 189.536 156.895 189.356 156.391 189.356C156.295 189.356 155.587 189.632 154.267 190.184C154.099 190.256 153.919 190.34 153.727 190.436C153.559 190.508 153.403 190.568 153.259 190.616V200.66L154.555 201.2V202.712C152.299 203.144 151.051 203.36 150.811 203.36Z" fill="white"/>
</g>
<defs>
<linearGradient id="paint0_linear_93_7810" x1="124.5" y1="44.625" x2="124.5" y2="224.625" gradientUnits="userSpaceOnUse">
<stop/>
<stop offset="1" stop-opacity="0"/>
</linearGradient>
<linearGradient id="paint1_linear_93_7810" x1="117.875" y1="62.875" x2="117.875" y2="224.625" gradientUnits="userSpaceOnUse">
<stop stop-color="#00164E"/>
<stop offset="1" stop-color="#A44425"/>
</linearGradient>
<clipPath id="clip0_93_7810">
<path d="M0.5 6C0.5 2.6863 3.18629 0 6.5 0H242.5C245.814 0 248.5 2.68629 248.5 6V314C248.5 317.314 245.814 320 242.5 320H6.49999C3.18629 320 0.5 317.314 0.5 314V6Z" fill="white"/>
</clipPath>
</defs>
</svg>
