<svg width="248" height="320" viewBox="0 0 248 320" fill="none" xmlns="http://www.w3.org/2000/svg">
<path d="M0 6C0 2.6863 2.68629 0 6 0H242C245.314 0 248 2.68629 248 6V314C248 317.314 245.314 320 242 320H5.99999C2.68629 320 0 317.314 0 314V6Z" fill="white"/>
<rect x="0.5" y="0.5" width="247" height="319" rx="5.5" fill="white" stroke="#D4D4D4"/>
<rect x="44" y="44" width="160" height="180" fill="black" fill-opacity="0.1"/>
<path d="M44 137.25V92H46.75L50.5 89.25L56 90.5L60 92H64L70.5 80L73.5 78V80L66.5 94.5H68L70.5 96L72 98.75H76L80 100L84 102.25L88 100L90.75 102.25H93.5V100L100 96H102.25V98.75H106V96L108 94.5L109.5 92V87L112 81.25L113.25 78L124 81.25L130.75 84L137.5 90.5H140V88V87V84H138.75L142.25 80L140 78L138.75 76H145.5L150 74.25V78H153.5V80H156L160 84L164 87L168 88L169.5 84L174.75 87V84L172 80H176H180V77L185.75 76V74.25H194L196 82L200 87V88L204 92V145.75L158.5 161.75L76 188L44 137.25Z" fill="url(#paint0_linear_71_150)"/>
<path d="M65 119.375V117.5C65.75 116.583 67.75 114.375 69.75 112.875C71.75 111.375 80.8333 109 85.125 108L101 104L103.125 111C102.792 110.542 102.15 110.275 102.25 112.875C102.35 115.475 106.875 116.542 109.125 116.75L108 119.375L109.125 123.25V124.625L112.625 126.125H116V135C116.25 136.084 117.25 138.25 119.25 138.25C121.75 138.25 124 137.25 125.125 136C126.025 135 126 133.584 125.875 133C127.042 132.334 129.675 130.825 130.875 130.125C132.075 129.425 133.125 127.584 133.5 126.75C135.75 126.25 139.225 126.025 135.125 129.125C131.025 132.225 130.583 135.834 130.875 137.25C130.542 137.584 129.5 138.25 128 138.25C126.125 138.25 124 139.75 124 140.75V144.5C123.542 144.084 121.95 143.4 119.25 144C115.875 144.75 115.125 148.625 116 150.375C116.875 152.125 119.625 154 121.625 153.875C123.225 153.775 125.125 152.584 125.875 152L127 153.125V155.25L124 157L122.625 158.5C121.583 158.25 119.1 157.75 117.5 157.75C115.5 157.75 113.375 159.375 112.625 160.875C112.025 162.075 112.875 164.125 113.375 165H112H109.75L110.5 162.875L109.75 159.375L107 157.75V156L104 153.125H101C95.75 147.084 84.6 134.6 82 133C79.4 131.4 77.5 133.667 76.875 135L86 152C85.125 151.792 83.225 151.375 82.625 151.375C81.875 151.375 79.75 151.875 78.125 152C76.825 152.1 70.3333 140.709 67.25 135C65.2083 134.042 60.65 133.15 58.75 137.25C56.85 141.35 62.625 155.542 65.75 162.125L66.625 164L63 162.125L61.125 160.875L60 158.5L58.75 156C58.7083 154.542 58.5 151.375 58 150.375C57.5 149.375 55.9583 148.792 55.25 148.625V144L52 142.25L56 140.75L52 138.875L56.625 138.25L52 136L56 133C57.0833 131.25 59.625 127.425 61.125 126.125C62.625 124.825 65.8333 123 67.25 122.25L65 119.375Z" fill="#AA0404"/>
<path d="M101 133L87.25 125.5V122.25L86 121L84 121.5V124L76.875 121.5V119.375H75.25V121L72 120.5L69.75 121L67.25 117.5L87.25 112.875L88 115H89.875L92.875 120L92 121L92.875 121.5L94.25 121L96.125 124.625M58 133.875C58.4583 132.958 60.1 130.925 63 130.125C65.9 129.325 69.125 129.792 70.375 130.125L72 133L74.25 129.125C76.0833 128.5 80.6 127.825 84 130.125C87.4 132.425 88.0833 134.083 88 134.625L89.875 133L99.375 138.25M65 117.5V119.375L67.25 122.25C65.8333 123 62.625 124.825 61.125 126.125C59.625 127.425 57.0833 131.25 56 133L52 136L56.625 138.25L52 138.875L56 140.75L52 142.25L55.25 144V148.625C55.9583 148.792 57.5 149.375 58 150.375C58.5 151.375 58.7083 154.542 58.75 156L60 158.5L61.125 160.875L63 162.125L66.625 164L65.75 162.125C62.625 155.542 56.85 141.35 58.75 137.25C60.65 133.15 65.2083 134.042 67.25 135C70.3333 140.709 76.825 152.1 78.125 152C79.75 151.875 81.875 151.375 82.625 151.375C83.225 151.375 85.125 151.792 86 152L76.875 135C77.5 133.667 79.4 131.4 82 133C84.6 134.6 95.75 147.084 101 153.125H104L107 156V157.75L109.75 159.375L110.5 162.875L109.75 165H112H113.375C112.875 164.125 112.025 162.075 112.625 160.875C113.375 159.375 115.5 157.75 117.5 157.75C119.1 157.75 121.583 158.25 122.625 158.5L124 157L127 155.25V153.125L125.875 152C125.125 152.584 123.225 153.775 121.625 153.875C119.625 154 116.875 152.125 116 150.375C115.125 148.625 115.875 144.75 119.25 144C121.95 143.4 123.542 144.084 124 144.5C124 143.584 124 141.55 124 140.75C124 139.75 126.125 138.25 128 138.25C129.5 138.25 130.542 137.584 130.875 137.25C130.583 135.834 131.025 132.225 135.125 129.125C139.225 126.025 135.75 126.25 133.5 126.75C133.125 127.584 132.075 129.425 130.875 130.125C129.675 130.825 127.042 132.334 125.875 133C126 133.584 126.025 135 125.125 136C124 137.25 121.75 138.25 119.25 138.25C117.25 138.25 116.25 136.084 116 135V126.125H112.625L109.125 124.625V123.25L108 119.375L109.125 116.75C106.875 116.542 102.35 115.475 102.25 112.875C102.15 110.275 102.792 110.542 103.125 111L101 104L85.125 108C80.8333 109 71.75 111.375 69.75 112.875C67.75 114.375 65.75 116.583 65 117.5Z" stroke="black" stroke-width="2"/>
<path d="M73.1256 77.5625L73.6881 80L65.972 94.1095C66.8369 94.3225 67.5588 94.4513 68.0006 94.4375C70.0006 94.375 71.5006 95.75 72.3131 98C72.9631 99.8 72.3756 102.75 72.0006 104H73.1256L74.0006 103.375V104.75L88.4504 109.46L89.6256 108.938L90.0124 109.969L102.188 113.938L104.001 116L108.938 116.625L108.438 118.688V122.312L93.9381 117.875L92.7506 113.625L91.1256 112.938L90.0124 109.969L88.4504 109.46L84.0006 111.438L77.5006 113.312L70.6881 111L69.1881 111.438V110L67.5006 108.5L62.2506 106.135C61.5636 106.993 59.8856 108.082 57.744 109.155L54.9428 114.277L47.4381 128L46.9381 130L44.3756 130.312L44.0006 128L45.5006 126.562L53.2071 112.469C52.8991 112.096 52.634 111.738 52.4205 111.415C45.6523 113.84 38.3726 114.833 40.5631 109.688C43.2505 103.375 50.2451 107.283 50.9381 103.125C51.2381 101.325 50.4965 99.5178 50.0882 98.8392C48.0205 97.389 45.5946 94.5934 48.0006 91.75C49.2368 90.289 50.8057 89.6658 52.3268 89.5C54.1892 89.297 55.9799 89.7798 57.0006 90.25C57.5066 90.5895 58.1256 91.1065 58.688 91.75C59.8963 92.2044 61.8019 92.881 63.6114 93.4417L70.6881 80.5V79.1875L73.1256 77.5625Z" fill="#C4C4C4"/>
<path d="M44.0006 94.4375V44H80.0006M52.0006 99.6318C52.3131 99.6735 53.4881 101.775 53.4381 103.375C53.3756 105.375 50.9862 108.555 52.0006 110.688C53.0149 112.82 58.1256 118.312 62.2506 116.875C65.5506 115.725 67.7506 112.271 68.4381 110.688M58.688 91.75C59.9549 93.1996 60.9347 95.2905 59.6881 97.4375C57.8881 100.537 53.1047 100.021 50.9381 99.375C50.6722 99.2264 50.3839 99.0466 50.0882 98.8392M58.688 91.75C58.1256 91.1065 57.5066 90.5895 57.0006 90.25C55.1464 89.3958 50.7506 88.5 48.0006 91.75C45.5946 94.5934 48.0205 97.389 50.0882 98.8392M58.688 91.75C61.1255 92.6667 66.4006 94.4875 68.0006 94.4375C70.0006 94.375 71.5006 95.75 72.3131 98C72.9631 99.8 72.3756 102.75 72.0006 104M72.0006 104H70.0006L62.6881 101.25L60.5631 105.375L62.2506 106.135M72.0006 104H73.1256L74.0006 103.375V104.75L102.188 113.938L104.001 116L108.938 116.625L108.438 118.688V122.312L93.9381 117.875L92.7506 113.625L91.1256 112.938L89.6256 108.938L84.0006 111.438L77.5006 113.312L70.6881 111L69.1881 111.438V110L67.5006 108.5L62.2506 106.135M50.0882 98.8392C50.4965 99.5178 51.2381 101.325 50.9381 103.125C50.2451 107.283 43.2505 103.375 40.5631 109.688C36.9402 118.197 59.2224 109.916 62.2506 106.135M58.0006 90.25C58.584 89.2917 60.1006 87.5 61.5006 88C62.9006 88.5 64.3756 89.7083 64.9381 90.25C63.9798 88.9583 61.4756 86.3875 59.1256 86.4375C56.7756 86.4875 53.7226 88.625 52.3268 89.5M73.1256 77.5625L73.6881 80L47.4381 128L46.9381 130L44.3756 130.312L44.0006 128L45.5006 126.562L70.6881 80.5V79.1875L73.1256 77.5625Z" stroke="black" stroke-width="2"/>
<path d="M44 94.75V224H128M132 224H136V220H140V224H144V220H148V224H152V220H156V224H160V220H164V224" stroke="black" stroke-width="2"/>
<path d="M204 84V44H168" stroke="black" stroke-width="2"/>
<path d="M204 114.5V224H168" stroke="black" stroke-width="2"/>
<path d="M207.125 129.5L200.125 121.625L184.25 124.25L182.875 142.875C192.5 152.5 193.375 127.375 207.125 129.5Z" fill="#C4C4C4"/>
<path d="M187.625 136V138.312H185.5M200.125 121.625L207.125 129.5C193.375 127.375 192.5 152.5 182.875 142.875L184.25 124.25L200.125 121.625Z" stroke="black" stroke-width="2"/>
<path d="M183.376 143.375C184.076 147.975 188.667 153.708 190.876 156C154.001 176.75 103.681 137.4 147.376 122.375C150.876 110.125 157.365 93.25 174.876 93.25C179.576 93.25 182.917 97.75 184.001 100L188.001 101.125L190.876 104L193.001 108V112L196.001 114.25C197.209 114.833 200.351 116.375 203.251 117.875C206.151 119.375 207.626 124.167 208.001 126.375C207.501 124.708 205.576 121.4 201.876 121.5C191.789 121.773 181.875 133.516 183.376 143.375Z" fill="#C4C4C4" stroke="black" stroke-width="2"/>
<path d="M181.574 106.298C180.704 105.963 178.745 105.495 177.875 106.298C177.005 107.101 176.787 109.197 176.787 110.145" stroke="black" stroke-width="2"/>
<path d="M189.75 105.125C189.75 105.125 188.356 102.878 186.625 103.5C185.682 103.839 185.375 105.125 185.375 105.125" stroke="black" stroke-width="2"/>
<path d="M189 109.375C187.25 109.375 186.25 108 186.25 108C186.25 108 184.625 109.375 185.5 112M178.438 97.25H180L178.125 96H174.438L175.688 97.625L172.812 98.5L171.062 96.375L168.062 97.625L170.5 100L168.562 101.312L166.75 103.375L165.438 101.812L166.75 100.625L164.75 98.875L161.375 102.125L164.75 106L162.5 108.875L160.125 107.5L161.375 106L159.312 104.625L157.062 108L160.625 111.125L158.25 114.625V112L155.375 110.625L154.125 113.125L156.75 118.125L155.375 121L152.375 116.188L151 120L150.062 123L151.875 124.562L155.812 127.438" stroke="black" stroke-width="2"/>
<path d="M194.25 113.5C190.594 110.919 186.339 115.329 185 118.625L180 114.5L175.25 115.25C165.488 111.589 167.25 101.958 178.125 100C182.362 99.2373 187.75 101.875 188.25 101.959" stroke="black" stroke-width="2"/>
<path d="M169.001 106.5C162.751 111.25 157.626 121.75 155.376 128.75C130.501 128.75 141.025 158.05 171.001 152C181.901 149.8 182.293 143.083 181.126 140M176.001 144.812L175.438 146.688L173.313 146.188M166.501 145.812L165.688 147.312L164.001 146.688" stroke="black" stroke-width="2"/>
<path d="M189 121.454C189.542 120.246 191.225 117.579 193.625 116.579C196.025 115.579 198.292 115.746 199.125 115.954M183.75 122.125C183.75 122.125 180 119.5 176.125 119.375C172.25 119.25 166.7 120.35 164 125.25C161.3 130.15 156.75 132.375 153.125 134.875C160 134.875 163.275 134.725 164.875 134.125C166.475 133.525 169.792 129.792 170.25 128L166.75 136.125C170.5 134.5 173.025 134.35 174.125 133.25C175.225 132.15 176.833 129.583 177 128V134.875C178.625 133.625 182 130.85 182 128.75C182 126.65 185.75 132.625 188 124.5M155.125 131.25C152.578 144.75 174.841 143.443 182 140.625" stroke="black" stroke-width="2"/>
<path d="M138.781 151.7L141.265 149.316L140.687 147.03L143.384 147.566L145.256 146.141L146.971 147.806L145.142 149.348L145.743 151.425L143.1 151.036L140.262 153.451" stroke="black" stroke-width="2"/>
<path d="M152.736 160.085L153.942 156.86L152.431 155.051L155.094 154.366L156.163 152.27L158.43 153.028L157.45 155.21L158.892 156.821L156.342 157.615L154.83 161.022" stroke="black" stroke-width="2"/>
<path d="M130.739 137.706L134.978 136.862L136 134.739L137.725 136.88L141.257 137.287L141.505 139.664L137.931 139.375L137.059 141.354L135.282 139.36L130.751 140" stroke="black" stroke-width="2"/>
<path d="M164.75 81.125C163.05 85.425 168 88 168 88C168 88 166.12 87.4552 164 86.1914C162.617 85.3666 161.131 84.2356 160 82.7499C159.01 81.4501 158.25 79.9419 157.703 78.2898C152.782 72.9945 145.452 66.4994 136 61.1249L156.61 70.6785C156.624 68.9659 156.786 67.2108 157.086 65.4579C149.534 62.205 143.374 58.4629 140 55.9999C144.969 57.9912 150.412 60.718 157.579 63.0692C158.127 60.8071 158.897 58.5834 159.862 56.4966C159.225 55.7746 158.549 55.1152 157.875 54.6249C155.675 53.0249 152.458 52.2082 151.125 51.9999C156.75 32 177.197 30.0444 189 36.9999C194.6 40.2999 196 47.5049 196 50.6949C197.519 52.2641 198.842 54.0077 200 55.8383C201.562 58.3073 202.825 60.9344 203.866 63.5046C204.529 61.5768 203.566 59.4645 202.375 58.1249L213.25 62.1249L209.875 70.75C209.411 70.9948 208.374 71.2938 206.629 71.5634C208.014 75.8257 209.585 78.031 210.973 79.1416C213.069 80.8188 214.75 80 214.75 80L205.375 89.875C204.525 89.2344 203.384 88.3559 202.187 87.4054C199.57 85.3268 196.686 82.9044 196 81.875C195 80.375 193.917 75.9167 193.5 73.875L174.75 72.2499C172.542 73.2083 166.45 76.825 164.75 81.125Z" fill="#D9EFFF"/>
<path d="M213.25 76.9999L200.625 88.8749L206.375 93.3749L217.375 81.875M173.5 63.9999L173.5 62.6249V61.1249M196 64.9999L194.75 63.9999V62.1249M184.875 65.6249L184.25 64.9999V62.1249M164 86.1914C162.617 85.3666 161.131 84.2356 160 82.7499C151.706 71.8596 159.553 46.3492 173.5 44C183.872 42.2531 190.998 45.5277 196 50.6949M164 86.1914C166.12 87.4552 168 88 168 88C168 88 163.05 85.425 164.75 81.125C166.45 76.825 172.542 73.2083 174.75 72.2499L193.5 73.875C193.917 75.9167 195 80.375 196 81.875C197 83.375 202.667 87.8334 205.375 89.875L214.75 80C214.75 80 209.875 82.3749 206.375 70.75C205.029 66.2807 203.106 60.747 200 55.8383M164 86.1914C163.5 85.0442 162.3 82.1999 161.5 79.9999C160.7 77.7998 160.167 73.9166 160 72.2499L136 61.1249C151.3 69.8249 161.042 81.4609 164 86.1914ZM200 55.8383C194.75 60.3749 184.875 61.1249 177.333 59.3749C179.322 51.9181 162.672 51.6124 163.125 61.1249C162.292 59.6249 160.075 56.2249 157.875 54.6249C155.675 53.0249 152.458 52.2082 151.125 51.9999C156.75 32 177.197 30.0444 189 36.9999C194.6 40.2999 196 47.5049 196 50.6949M200 55.8383C198.842 54.0077 197.519 52.2641 196 50.6949M140 55.9999C146.792 60.9582 164.875 71.0999 182.875 71.9999C200.875 72.8999 208.375 71.5417 209.875 70.75L213.25 62.1249L202.375 58.1249C205.042 61.1249 206.566 67.9999 191.25 67.9999C163.621 67.9999 150.708 60.2915 140 55.9999Z" stroke="black" stroke-width="2"/>
<path d="M100 153V155.562H98.4375L97.75 160L100 162L102.312 160L101.688 155.562H100.375M108 132.5H107.188V130.188H110.062V132.875H111.375L113.188 133.562L113.438 135.312L115.375 134.938L114.938 132L116.5 129.812L118.375 128.875L117.562 126.375L115.688 128H113.812L113.188 129.438L109.188 128L106.5 127.375L104 127.688L102.938 126.375H101.688L102.938 124L101.312 121.938L100.375 120L99.1875 120.5L98.4375 121.938L96 122.688V124.688L94.3125 126L95.1875 128.562L98.0625 128.312L99.1875 126.875V130.188L100.375 130.938L101 133.562L103.25 134.062L104.375 132.5L106.125 133.312M105.75 136C104.708 135.916 102.438 135.912 101.688 136.562C100.938 137.212 100 137.083 99.625 136.938L100 138.688L99.1875 139.625L96.375 140L98.0625 141.938L97.75 145.188L96 146.312L97.75 146.75L99.625 148.75L98.0625 152.312L101.312 149.5L105 150L105.75 152.312L106.5 149.5L108.688 147.562L111.375 148L110.062 145.625L111.375 143.375L112.812 142.312L110.688 141.375C110.521 140.375 110.038 138.262 109.438 137.812C108.837 137.363 109.604 136.792 110.062 136.562L109.438 135.312L110.062 134.438L108.688 133.562L107.188 134.438H106.125L105.75 136ZM104.375 145.625L107.188 141.375L102.938 139L100.375 142.875L104.375 145.625Z" stroke="black" stroke-width="2"/>
<path d="M143.625 81.1186L147.677 84.1574L149.5 79.7005L145.955 76.1553L143.625 81.1186Z" stroke="black" stroke-width="2"/>
<path d="M144 80C142.896 80.75 140.55 82.6 140 84C136.537 92.8146 150.436 97.8551 156.438 93.4375C160.038 90.7875 160.884 86.2023 158.5 82.625M158.5 82.625C156.902 80.2257 157.438 85.8125 152 85.8125M158.5 82.625C158.5 82.625 157.006 80.5161 155.688 80C154.551 79.5551 152.875 80 152.875 80" stroke="black" stroke-width="2"/>
<path d="M146.312 76.5388C146.448 75.5898 150.003 72.5532 150.003 72.5532C150.003 72.5532 150.084 76.0238 148.783 77.9218C149.108 77.0543 153.907 77.9218 153.907 77.9218C153.907 77.9218 152.199 82.1514 149.271 82.9648C150.681 82.3955 154.395 85.1611 154.395 85.1611C154.395 85.1611 150.572 87.1133 148.213 86.1372C148.973 85.5949 149.775 84.9171 146.912 86.5439C144.049 88.1708 141.562 88.0625 141.562 88.0625L144.878 84.1036C144.065 84.4832 138.25 83.6875 138.25 83.6875C138.25 83.6875 141.462 80.9584 143.007 79.9552C141.652 79.5213 139.188 76.5388 139.188 76.5388C139.188 76.5388 143.387 75.8338 144.878 76.5388" stroke="black" stroke-width="2"/>
<path d="M210.75 104L208.948 104.807C214.625 111.187 205.938 109.625 205.938 109.625C205.938 109.625 205.188 114.5 203.688 114.562C202.188 114.625 199.375 116.437 199.125 116C198.925 115.65 197.25 114.312 196.438 113.687C197.042 113.271 198.137 112.187 197.688 111.187C197.238 110.187 196.667 109.979 196.438 110L193.562 111.562V108C194.146 107.771 195.313 107.087 195.313 106.187C195.313 105.287 193.313 105.562 192.312 105.812L191.125 104L192.75 102.438C192.646 101.292 193.013 98.8626 195.313 98.3126C197.613 97.7626 198.896 100.208 199.125 100.437L203.312 98.8749L200.562 95.9999C201.312 95.7499 204.177 94.5003 206.562 96.0003C208.948 97.5003 207.661 99.5671 207.773 100.976L210.75 104Z" fill="#FFD464"/>
<path d="M207.773 100.976L206.813 100L198.188 103.438L201.813 108L210.75 104L207.773 100.976ZM207.773 100.976C207.661 99.5671 208.948 97.5003 206.562 96.0003C204.177 94.5003 201.312 95.7499 200.562 95.9999L203.312 98.8749L199.125 100.437C198.896 100.208 197.613 97.7626 195.313 98.3126C193.013 98.8626 192.646 101.292 192.75 102.438L191.125 104L192.312 105.812C193.313 105.562 195.313 105.287 195.313 106.187C195.313 107.087 194.146 107.771 193.562 108V111.562L196.438 110C196.667 109.979 197.238 110.187 197.688 111.187C198.137 112.187 197.042 113.271 196.438 113.687C197.25 114.312 198.925 115.65 199.125 116C199.375 116.437 202.188 114.625 203.688 114.562C205.188 114.5 205.938 109.625 205.938 109.625C205.938 109.625 214.625 111.187 208.948 104.807" stroke="black" stroke-width="2"/>
<path d="M44 158.75L73.25 202.5L217.25 152L209 144L158.75 161.25L76 188L44 137.75V158.75Z" fill="#C4C4C4"/>
<path d="M44 93L152 64M196.75 51.5L204 49.25M73.25 96L109.25 86.25M126.5 81.25L140 78.25M72.75 100L75.125 99.25H79.125L82.75 102.5L85 101.125L88 100L91.375 102.5H94.125V100L97.25 97.5L100.5 96L102.625 96.875V99.25H105.375V96.875L108 93.75H109.25M44 86.25L158.75 56M44 73.25L150 46.5V44H104V54.9375L100.5 56V44H96V56.875L92 57.875V44H88V58.75L84 59.8125V44H81M72 173.5L73.25 164L79.125 161.25L118.5 166L120 170.5L118.5 173.5M73.25 202.5L44 158.75V137.75L76 188L158.75 161.25L209 144L217.25 152L73.25 202.5Z" stroke="black" stroke-width="2"/>
<path d="M48 72V85.375" stroke="black" stroke-width="2"/>
<path d="M52 72L52 84" stroke="black" stroke-width="2"/>
<path d="M56 70V83.375" stroke="black" stroke-width="2"/>
<path d="M60 68.6875V82.375" stroke="black" stroke-width="2"/>
<path d="M64 68V81.5" stroke="black" stroke-width="2"/>
<path d="M68 67.5312V80" stroke="black" stroke-width="2"/>
<path d="M72 66.375V78.875" stroke="black" stroke-width="2"/>
<path d="M76 65.3125V78" stroke="black" stroke-width="2"/>
<path d="M80 64.3086V84" stroke="black" stroke-width="2"/>
<path d="M84 63.3638V82.375" stroke="black" stroke-width="2"/>
<path d="M88 62V74.25" stroke="black" stroke-width="2"/>
<path d="M92 61.375L92 74.1543" stroke="black" stroke-width="2"/>
<path d="M96 60.1553V72.8694" stroke="black" stroke-width="2"/>
<path d="M100 58.75V72" stroke="black" stroke-width="2"/>
<path d="M104 58.25V70.625" stroke="black" stroke-width="2"/>
<path d="M108 56.8691V70" stroke="black" stroke-width="2"/>
<path d="M112 56V68.6875" stroke="black" stroke-width="2"/>
<path d="M116 54.625V67.5312" stroke="black" stroke-width="2"/>
<path d="M120 54.3438V66.5123" stroke="black" stroke-width="2"/>
<path d="M124 53.0781V65.3125" stroke="black" stroke-width="2"/>
<path d="M128 52V64.4375" stroke="black" stroke-width="2"/>
<path d="M132 51.5312V63.4346" stroke="black" stroke-width="2"/>
<path d="M136 50.2188V62.3438" stroke="black" stroke-width="2"/>
<path d="M140 49.3125V61.0781" stroke="black" stroke-width="2"/>
<path d="M144 47.1953V60.1553" stroke="black" stroke-width="2"/>
<path d="M148 46.3438V60" stroke="black" stroke-width="2"/>
<path d="M138.813 157C142.163 156.952 144.375 160.361 145.063 162.071C143.979 163.881 141.05 167.5 138 167.5C134.188 167.5 131.625 163.324 131.438 161.713C131.25 160.102 134.625 157.06 138.813 157Z" fill="white"/>
<path d="M132.75 122.5L132 119.562L128 117.875L126.438 118.688L123.062 122.875L123.375 125.75L126.438 127.438L129.438 126.812L132.75 122.5Z" fill="white"/>
<path d="M136.938 111.5L136 113.938L137.312 116.438H140.375L146.125 112.438L146.75 109.688L144.938 108L141.938 108.312L136.938 111.5Z" fill="white"/>
<path d="M115.062 111.5L118.438 108.938V106.938L116 105.312L114.062 105.625L111.312 107.5L110.812 109.688L112.625 111.5H115.062Z" fill="white"/>
<path d="M126.062 107.5H132.75L136 109.438L135.562 113.375L132.5 114.812H126.062L123.375 112.438V109.688L126.062 107.5Z" fill="white"/>
<path d="M143.25 103.688L142.938 101.812L144.188 100.5L145.688 99.625L151 100L152.875 101.312V104L151 105.625L145.25 105.312L143.25 103.688Z" fill="white"/>
<path d="M176.5 89.5625L174.438 88L174.062 85.25L174.138 85.1653L174.869 84.34L176 83.0625H179.125L182.438 85.25L183.125 88L181.375 90.25L178.688 90.6875L176.5 89.5625Z" fill="white"/>
<path d="M190.875 92L193.812 90.25L197.812 90.6875L201.875 94.375L200 97.4375L196 98.1875L192.875 97.4375L190.25 94.375L190.875 92Z" fill="white"/>
<path d="M167.625 87.625C167.625 87.325 167.625 85.5417 167.625 84.6875L169.438 83.0625L173.188 85.625L175.125 84.6875L173.188 82.0625V80L176.5 78.875L180.375 79.375V77.0625L183.438 75.625L185.375 75.3125V74.1875L189.562 73.3125M145.063 162.071C144.375 160.361 142.163 156.952 138.813 157C134.625 157.06 131.25 160.102 131.438 161.713C131.625 163.324 134.188 167.5 138 167.5C141.05 167.5 143.979 163.881 145.063 162.071ZM132 119.562L132.75 122.5L129.438 126.812L126.438 127.438L123.375 125.75L123.062 122.875L126.438 118.688L128 117.875L132 119.562ZM136 113.938L136.938 111.5L141.938 108.312L144.938 108L146.75 109.688L146.125 112.438L140.375 116.438H137.312L136 113.938ZM118.438 108.938L115.062 111.5H112.625L110.812 109.688L111.312 107.5L114.062 105.625L116 105.312L118.438 106.938V108.938ZM132.75 107.5H126.062L123.375 109.688V112.438L126.062 114.812H132.5L135.562 113.375L136 109.438L132.75 107.5ZM142.938 101.812L143.25 103.688L145.25 105.312L151 105.625L152.875 104V101.312L151 100L145.688 99.625L144.188 100.5L142.938 101.812ZM176.5 89.5625L174.438 88L174.062 85.25L176 83.0625H179.125L182.438 85.25L183.125 88L181.375 90.25L178.688 90.6875L176.5 89.5625ZM193.812 90.25L190.875 92L190.25 94.375L192.875 97.4375L196 98.1875L200 97.4375L201.875 94.375L197.812 90.6875L193.812 90.25Z" stroke="black" stroke-width="2"/>
<path d="M112 103.25C108.075 104.274 108.206 78.875 113.625 78.875C113.765 78.875 113.9 78.9062 114.03 78.9664L114.074 78.9762C117.253 79.6884 123.207 80.9215 126.967 81.8867C127.333 81.9809 127.679 82.0726 128 82.1609C129.009 82.4391 129.766 82.6848 130.125 82.875C130.745 83.2034 131.174 83.926 131.467 84.8407C133.145 86.1438 136.65 88.925 137.25 89.625C137.415 89.8173 137.5 90.1875 137.5 90.1875C137.5 90.1875 144.188 90.4688 146.875 90.6437C147.781 85.875 150.188 83.0938 151.062 83.0938C151.938 83.0938 152.872 89.0917 152.438 93.625C152 98.1875 149.844 102.344 149.188 102.344C148.531 102.344 146.719 99.25 146.719 94.375C144.656 94.375 137.25 94.0625 137.25 94.0625C137.25 94.0625 137.305 94.4382 137.25 94.75L130.799 98.2166C130.603 98.6611 130.379 99.0215 130.125 99.25C129.818 99.5264 129.333 99.922 127.688 100.312C122.638 101.511 112.733 102.936 112.733 102.936C112.501 103.077 112.256 103.183 112 103.25Z" fill="#FFE27A"/>
<path d="M113.625 78.875C108.206 78.875 108.075 104.274 112 103.25C112.256 103.183 112.501 103.077 112.733 102.936M113.625 78.875C117.232 78.875 117.924 99.7771 112.733 102.936M113.625 78.875C116.662 79.5665 123.022 80.8741 126.967 81.8867M113.625 78.875L126.967 81.8867M112.733 102.936C112.733 102.936 122.638 101.511 127.688 100.312M131.467 84.8407C131.174 83.926 130.745 83.2034 130.125 82.875C129.766 82.6848 129.009 82.4391 128 82.1609M131.467 84.8407C132.177 87.059 132.089 90.4069 132 92C131.92 93.4344 131.571 96.4724 130.799 98.2166M131.467 84.8407C133.145 86.1438 136.65 88.925 137.25 89.625C137.415 89.8173 137.5 90.1875 137.5 90.1875M130.799 98.2166C130.603 98.6611 130.379 99.0215 130.125 99.25C129.818 99.5264 129.333 99.922 127.688 100.312M130.799 98.2166L137.25 94.75C137.305 94.4382 137.25 94.0625 137.25 94.0625M137.5 90.1875C137.5 90.1875 144.188 90.4688 146.875 90.6437C147.781 85.875 150.188 83.0938 151.062 83.0938C151.938 83.0938 152.872 89.0917 152.438 93.625C152 98.1875 149.844 102.344 149.188 102.344C148.531 102.344 146.719 99.25 146.719 94.375C144.656 94.375 137.25 94.0625 137.25 94.0625M137.5 90.1875L137.25 94.0625M126.967 81.8867C127.333 81.9809 127.679 82.0726 128 82.1609M127.688 100.312L124.75 96.4375L128.312 93.625L125.188 90.6437L128 87.8125C127.25 86.9375 125.188 84.8407 125.188 84.8407L128 82.1609" stroke="black" stroke-width="2"/>
<path d="M72.2276 266L73.5444 262.293H78.837L80.1538 266H81.8157L77.0089 252.909H75.3725L70.5657 266H72.2276ZM74.043 260.886L76.1396 254.98H76.2418L78.3384 260.886H74.043ZM87.3576 266.205C89.2496 266.205 89.8888 265.028 90.2212 264.491H90.4002V266H91.8576V252.909H90.3491V257.741H90.2212C89.8888 257.23 89.3008 256.054 87.3832 256.054C84.9031 256.054 83.19 258.023 83.19 261.116C83.19 264.236 84.9031 266.205 87.3576 266.205ZM87.5621 264.849C85.6701 264.849 84.6985 263.188 84.6985 261.091C84.6985 259.02 85.6445 257.409 87.5621 257.409C89.4031 257.409 90.3746 258.892 90.3746 261.091C90.3746 263.315 89.3775 264.849 87.5621 264.849ZM98.5373 266.205C100.429 266.205 101.069 265.028 101.401 264.491H101.58V266H103.037V252.909H101.529V257.741H101.401C101.069 257.23 100.48 256.054 98.5629 256.054C96.0827 256.054 94.3697 258.023 94.3697 261.116C94.3697 264.236 96.0827 266.205 98.5373 266.205ZM98.7418 264.849C96.8498 264.849 95.8782 263.188 95.8782 261.091C95.8782 259.02 96.8242 257.409 98.7418 257.409C100.583 257.409 101.554 258.892 101.554 261.091C101.554 263.315 100.557 264.849 98.7418 264.849ZM111.047 266H119.305V264.594H113.22V264.491L116.16 261.347C118.41 258.937 119.075 257.812 119.075 256.361C119.075 254.341 117.439 252.73 115.137 252.73C112.843 252.73 111.098 254.29 111.098 256.591H112.606C112.606 255.102 113.571 254.111 115.086 254.111C116.505 254.111 117.592 254.98 117.592 256.361C117.592 257.569 116.882 258.464 115.368 260.119L111.047 264.849V266ZM131.022 266.205C133.195 266.205 134.627 264.875 134.882 263.136H133.374C133.093 264.21 132.198 264.849 131.022 264.849C129.232 264.849 128.081 263.366 128.081 261.091C128.081 258.866 129.257 257.409 131.022 257.409C132.351 257.409 133.144 258.227 133.374 259.122H134.882C134.627 257.281 133.067 256.054 130.996 256.054C128.337 256.054 126.573 258.151 126.573 261.142C126.573 264.082 128.26 266.205 131.022 266.205ZM139.977 266.23C141.69 266.23 142.585 265.31 142.892 264.67H142.968V266H144.477V259.531C144.477 256.412 142.099 256.054 140.846 256.054C139.363 256.054 137.676 256.565 136.909 258.355L138.341 258.866C138.673 258.151 139.459 257.384 140.897 257.384C142.284 257.384 142.968 258.119 142.968 259.378V259.429C142.968 260.158 142.227 260.094 140.437 260.324C138.615 260.56 136.627 260.963 136.627 263.213C136.627 265.131 138.11 266.23 139.977 266.23ZM140.207 264.875C139.005 264.875 138.136 264.338 138.136 263.29C138.136 262.139 139.184 261.781 140.36 261.628C141 261.551 142.713 261.372 142.968 261.065V262.446C142.968 263.673 141.997 264.875 140.207 264.875ZM147.23 266H148.739V259.787C148.739 258.457 149.787 257.486 151.219 257.486C151.622 257.486 152.037 257.562 152.139 257.588V256.054C151.967 256.041 151.57 256.028 151.347 256.028C150.171 256.028 149.148 256.693 148.79 257.665H148.688V256.182H147.23V266ZM157.336 266.205C159.228 266.205 159.867 265.028 160.2 264.491H160.379V266H161.836V252.909H160.328V257.741H160.2C159.867 257.23 159.279 256.054 157.362 256.054C154.882 256.054 153.169 258.023 153.169 261.116C153.169 264.236 154.882 266.205 157.336 266.205ZM157.541 264.849C155.649 264.849 154.677 263.188 154.677 261.091C154.677 259.02 155.623 257.409 157.541 257.409C159.382 257.409 160.353 258.892 160.353 261.091C160.353 263.315 159.356 264.849 157.541 264.849ZM171.763 258.381C171.29 256.987 170.229 256.054 168.286 256.054C166.215 256.054 164.681 257.23 164.681 258.892C164.681 260.247 165.486 261.155 167.289 261.577L168.925 261.96C169.916 262.19 170.382 262.663 170.382 263.341C170.382 264.185 169.487 264.875 168.081 264.875C166.847 264.875 166.074 264.344 165.806 263.29L164.374 263.648C164.725 265.316 166.1 266.205 168.107 266.205C170.389 266.205 171.942 264.958 171.942 263.264C171.942 261.896 171.085 261.033 169.334 260.605L167.877 260.247C166.713 259.96 166.189 259.57 166.189 258.815C166.189 257.972 167.084 257.358 168.286 257.358C169.602 257.358 170.146 258.087 170.408 258.764L171.763 258.381ZM51.8554 278.182H49.6565V277.185C49.6565 276.213 50.0656 275.702 51.0628 275.702C51.4974 275.702 51.7531 275.804 51.9065 275.855L52.3412 274.551C52.1111 274.449 51.6508 274.295 50.9094 274.295C49.5031 274.295 48.148 275.139 48.148 276.827V278.182H46.5628V279.46H48.148V288H49.6565V279.46H51.8554V278.182ZM53.9695 288H55.4781V281.787C55.4781 280.457 56.5264 279.486 57.9582 279.486C58.3609 279.486 58.7764 279.562 58.8786 279.588V278.054C58.7061 278.041 58.3097 278.028 58.086 278.028C56.9099 278.028 55.8872 278.693 55.5292 279.665H55.4269V278.182H53.9695V288ZM64.3566 288.205C67.0157 288.205 68.8055 286.185 68.8055 283.142C68.8055 280.074 67.0157 278.054 64.3566 278.054C61.6975 278.054 59.9078 280.074 59.9078 283.142C59.9078 286.185 61.6975 288.205 64.3566 288.205ZM64.3566 286.849C62.3367 286.849 61.4163 285.111 61.4163 283.142C61.4163 281.173 62.3367 279.409 64.3566 279.409C66.3765 279.409 67.297 281.173 67.297 283.142C67.297 285.111 66.3765 286.849 64.3566 286.849ZM71.1082 288H72.6167V281.864C72.6167 280.425 73.665 279.409 74.8412 279.409C75.9854 279.409 76.7844 280.157 76.7844 281.276V288H78.3184V281.608C78.3184 280.342 79.1111 279.409 80.4917 279.409C81.5656 279.409 82.4861 279.978 82.4861 281.429V288H83.9946V281.429C83.9946 279.121 82.7545 278.054 81.0031 278.054C79.5969 278.054 78.5677 278.7 78.0628 279.716H77.9605C77.4747 278.668 76.6182 278.054 75.327 278.054C74.0486 278.054 73.1025 278.668 72.6934 279.716H72.5656V278.182H71.1082V288ZM91.8153 291.682H93.3238V286.491H93.4516C93.784 287.028 94.4232 288.205 96.3153 288.205C98.7698 288.205 100.483 286.236 100.483 283.116C100.483 280.023 98.7698 278.054 96.2897 278.054C94.3721 278.054 93.784 279.23 93.4516 279.741H93.2726V278.182H91.8153V291.682ZM93.2982 283.091C93.2982 280.892 94.2698 279.409 96.1107 279.409C98.0283 279.409 98.9743 281.02 98.9743 283.091C98.9743 285.188 98.0028 286.849 96.1107 286.849C94.2954 286.849 93.2982 285.315 93.2982 283.091ZM106.773 288.205C109.432 288.205 111.222 286.185 111.222 283.142C111.222 280.074 109.432 278.054 106.773 278.054C104.114 278.054 102.324 280.074 102.324 283.142C102.324 286.185 104.114 288.205 106.773 288.205ZM106.773 286.849C104.753 286.849 103.832 285.111 103.832 283.142C103.832 281.173 104.753 279.409 106.773 279.409C108.793 279.409 109.713 281.173 109.713 283.142C109.713 285.111 108.793 286.849 106.773 286.849ZM117.513 288.205C120.172 288.205 121.962 286.185 121.962 283.142C121.962 280.074 120.172 278.054 117.513 278.054C114.854 278.054 113.064 280.074 113.064 283.142C113.064 286.185 114.854 288.205 117.513 288.205ZM117.513 286.849C115.493 286.849 114.573 285.111 114.573 283.142C114.573 281.173 115.493 279.409 117.513 279.409C119.533 279.409 120.453 281.173 120.453 283.142C120.453 285.111 119.533 286.849 117.513 286.849ZM125.773 274.909H124.264V288H125.773V274.909ZM137.868 278.182H135.772V275.83H134.263V278.182H132.78V279.46H134.263V285.597C134.263 287.31 135.644 288.128 136.922 288.128C137.485 288.128 137.843 288.026 138.047 287.949L137.741 286.594C137.613 286.619 137.408 286.67 137.076 286.67C136.411 286.67 135.772 286.466 135.772 285.188V279.46H137.868V278.182ZM144.021 288.205C146.68 288.205 148.47 286.185 148.47 283.142C148.47 280.074 146.68 278.054 144.021 278.054C141.362 278.054 139.572 280.074 139.572 283.142C139.572 286.185 141.362 288.205 144.021 288.205ZM144.021 286.849C142.001 286.849 141.08 285.111 141.08 283.142C141.08 281.173 142.001 279.409 144.021 279.409C146.041 279.409 146.961 281.173 146.961 283.142C146.961 285.111 146.041 286.849 144.021 286.849ZM157.343 282.094C157.343 280.381 158.436 279.409 159.926 279.409C161.345 279.409 162.201 280.304 162.201 281.864V288H163.71V281.761C163.71 279.237 162.367 278.054 160.36 278.054C158.813 278.054 157.931 278.7 157.471 279.716H157.343V274.909H155.835V288H157.343V282.094ZM169.359 288.23C171.072 288.23 171.967 287.31 172.274 286.67H172.35V288H173.859V281.531C173.859 278.412 171.481 278.054 170.228 278.054C168.745 278.054 167.058 278.565 166.291 280.355L167.722 280.866C168.055 280.151 168.841 279.384 170.279 279.384C171.666 279.384 172.35 280.119 172.35 281.378V281.429C172.35 282.158 171.609 282.094 169.819 282.324C167.997 282.56 166.009 282.963 166.009 285.213C166.009 287.131 167.492 288.23 169.359 288.23ZM169.589 286.875C168.387 286.875 167.518 286.338 167.518 285.29C167.518 284.139 168.566 283.781 169.742 283.628C170.381 283.551 172.095 283.372 172.35 283.065V284.446C172.35 285.673 171.379 286.875 169.589 286.875ZM178.121 282.094C178.121 280.381 179.182 279.409 180.626 279.409C182.026 279.409 182.876 280.323 182.876 281.864V288H184.385V281.761C184.385 279.256 183.049 278.054 181.061 278.054C179.578 278.054 178.658 278.719 178.197 279.716H178.07V278.182H176.612V288H178.121V282.094ZM190.849 288.205C192.741 288.205 193.38 287.028 193.712 286.491H193.891V288H195.349V274.909H193.84V279.741H193.712C193.38 279.23 192.792 278.054 190.874 278.054C188.394 278.054 186.681 280.023 186.681 283.116C186.681 286.236 188.394 288.205 190.849 288.205ZM191.053 286.849C189.161 286.849 188.19 285.188 188.19 283.091C188.19 281.02 189.136 279.409 191.053 279.409C192.894 279.409 193.866 280.892 193.866 283.091C193.866 285.315 192.869 286.849 191.053 286.849ZM199.421 288.102C200.053 288.102 200.571 287.585 200.571 286.952C200.571 286.319 200.053 285.801 199.421 285.801C198.788 285.801 198.27 286.319 198.27 286.952C198.27 287.585 198.788 288.102 199.421 288.102Z" fill="black" fill-opacity="0.87"/>
<path d="M216 160H236V176L228 184.5L236 192V208H226H216V160Z" fill="#FF4B3C" stroke="black" stroke-width="2"/>
<path d="M216 160H236V176L228 184.5L236 192V208H226H216V160Z" fill="black" fill-opacity="0.17"/>
<path d="M224 168L216 160V168H224Z" fill="black" fill-opacity="0.38" stroke="black" stroke-width="2" stroke-linejoin="bevel"/>
<path d="M248 176L240 184L248 192V176Z" fill="#D4D4D4"/>
<path d="M32 160H12V176L20 184.5L12 192V208H22H32V160Z" fill="#FF4B3C" stroke="black" stroke-width="2"/>
<path d="M32 160H12V176L20 184.5L12 192V208H22H32V160Z" fill="black" fill-opacity="0.17"/>
<path d="M24 168L32 160V168H24Z" fill="black" fill-opacity="0.38" stroke="black" stroke-width="2" stroke-linejoin="bevel"/>
<path d="M0 176L8 184L0 192V176Z" fill="#D4D4D4"/>
<path d="M224 168H24V216H224V168Z" fill="#FF4B3C" stroke="black" stroke-width="2"/>
<path d="M70.1783 201.452L72.5543 200.696V183.524L68.8463 183.776L68.4503 188.168H66.3263L65.8583 181.256H83.1383L82.6703 188.168H80.5463L80.1503 183.776L76.4423 183.524V200.552L78.9623 201.272V203H70.1783V201.452ZM87.1377 203.36C87.0177 203.36 86.7657 203.18 86.3817 202.82C86.0217 202.46 85.8417 202.22 85.8417 202.1V189.032L84.5097 188.564V187.052C86.6457 186.668 87.8337 186.476 88.0737 186.476C88.1937 186.476 88.4577 186.68 88.8657 187.088C89.2977 187.472 89.5137 187.712 89.5137 187.808L89.4417 189.14C91.1937 187.244 92.1417 186.296 92.2857 186.296C92.7177 186.296 93.5457 186.488 94.7697 186.872C94.8417 187.04 94.9017 187.244 94.9497 187.484C94.9977 187.7 95.0217 187.904 95.0217 188.096C95.0217 188.288 94.8537 188.708 94.5177 189.356C94.2057 189.98 94.0017 190.316 93.9057 190.364C92.9697 190.004 92.3097 189.824 91.9257 189.824C91.7577 189.824 91.4457 189.932 90.9897 190.148C90.5337 190.34 90.0657 190.58 89.5857 190.868V200.48L91.5297 201.056V202.712C88.8417 203.144 87.3777 203.36 87.1377 203.36ZM102.168 203.36C101.04 203.36 99.9957 203.072 99.0357 202.496C98.0997 201.92 97.3437 201.056 96.7677 199.904C96.2157 198.752 95.9397 197.348 95.9397 195.692C95.9397 194.516 96.0237 193.412 96.1917 192.38C96.3597 191.348 96.5757 190.58 96.8397 190.076C97.1037 189.716 97.6317 189.236 98.4237 188.636C99.2157 188.012 100.008 187.472 100.8 187.016C101.616 186.56 102.18 186.332 102.492 186.332C103.812 186.332 104.892 186.548 105.732 186.98C106.572 187.412 107.22 188.228 107.676 189.428C108.132 190.604 108.36 192.272 108.36 194.432L99.8637 195.152C99.8637 196.472 100.032 197.528 100.368 198.32C100.728 199.112 101.148 199.676 101.628 200.012C102.108 200.348 102.564 200.516 102.996 200.516L107.82 200.336V201.956C106.98 202.244 105.912 202.556 104.616 202.892C103.32 203.204 102.504 203.36 102.168 203.36ZM104.508 192.884C104.508 190.052 103.764 188.624 102.276 188.6H101.988C101.604 188.6 101.256 188.66 100.944 188.78C100.656 188.876 100.416 189.404 100.224 190.364C100.032 191.3 99.9357 192.344 99.9357 193.496L104.508 192.884ZM116.536 203.36C115.48 203.36 114.508 203.072 113.62 202.496C112.756 201.896 112.06 201.008 111.532 199.832C111.028 198.656 110.776 197.216 110.776 195.512C110.776 194.384 110.86 193.34 111.028 192.38C111.196 191.396 111.412 190.628 111.676 190.076C112.084 189.524 112.984 188.78 114.376 187.844C115.792 186.908 116.728 186.44 117.184 186.44C117.448 186.44 118.384 186.56 119.992 186.8C121.6 187.016 122.836 187.196 123.7 187.34V200.696L124.96 201.2V202.748C122.776 203.156 121.564 203.36 121.324 203.36C121.228 203.36 120.988 203.18 120.604 202.82C120.244 202.46 120.064 202.22 120.064 202.1V200.804C117.88 202.508 116.704 203.36 116.536 203.36ZM116.932 200.444C117.172 200.444 118.18 200 119.956 199.112V189.428C119.38 189.212 118.648 189.02 117.76 188.852C116.896 188.66 116.32 188.588 116.032 188.636C115.6 188.732 115.276 189.272 115.06 190.256C114.844 191.24 114.736 192.884 114.736 195.188C114.736 196.34 114.856 197.312 115.096 198.104C115.36 198.896 115.66 199.484 115.996 199.868C116.356 200.252 116.668 200.444 116.932 200.444ZM134.033 203.36C133.505 203.36 132.449 203.3 130.865 203.18C129.305 203.084 128.105 202.988 127.265 202.892L127.337 197.528L129.317 197.492L130.073 200.264C130.601 200.456 131.249 200.636 132.017 200.804C132.809 200.948 133.385 201.02 133.745 201.02C133.937 201.02 134.153 200.78 134.393 200.3C134.633 199.796 134.753 199.364 134.753 199.004C134.753 198.428 134.561 197.972 134.177 197.636C133.817 197.3 133.061 196.82 131.909 196.196C131.621 196.052 131.405 195.932 131.261 195.836C129.773 195.02 128.741 194.3 128.165 193.676C127.613 193.052 127.337 192.308 127.337 191.444C127.337 190.628 127.409 190.028 127.553 189.644C127.961 189.02 128.621 188.336 129.533 187.592C130.469 186.848 131.141 186.476 131.549 186.476C132.389 186.476 133.457 186.512 134.753 186.584C136.073 186.632 137.069 186.692 137.741 186.764L137.633 191.3H135.437L135.185 189.392C134.993 189.32 134.369 189.2 133.313 189.032C132.281 188.864 131.645 188.78 131.405 188.78C130.925 188.78 130.685 189.236 130.685 190.148C130.685 190.58 130.865 190.964 131.225 191.3C131.585 191.612 131.981 191.9 132.413 192.164C132.845 192.428 133.145 192.608 133.313 192.704L134.177 193.208C135.497 193.928 136.553 194.624 137.345 195.296C138.137 195.968 138.533 196.724 138.533 197.564C138.533 198.188 138.449 198.824 138.281 199.472C137.897 200.192 137.225 201.02 136.265 201.956C135.305 202.892 134.561 203.36 134.033 203.36ZM146.818 203.36C145.066 203.36 143.746 202.916 142.858 202.028C141.994 201.14 141.562 199.604 141.562 197.42V189.104L140.302 188.564V187.052C142.51 186.668 143.722 186.476 143.938 186.476C144.058 186.476 144.31 186.656 144.694 187.016C145.102 187.352 145.306 187.58 145.306 187.7V197.384C145.306 199.424 145.942 200.444 147.214 200.444C147.454 200.444 148.462 200.024 150.238 199.184V189.104L148.942 188.564V187.052C151.198 186.668 152.434 186.476 152.65 186.476C152.77 186.476 153.022 186.656 153.406 187.016C153.79 187.352 153.982 187.58 153.982 187.7V200.66L155.242 201.2V202.748C153.01 203.156 151.786 203.36 151.57 203.36C151.45 203.36 151.21 203.18 150.85 202.82C150.514 202.46 150.346 202.22 150.346 202.1V200.84C149.722 201.344 149.002 201.896 148.186 202.496C147.37 203.072 146.914 203.36 146.818 203.36ZM160.052 203.36C159.932 203.36 159.68 203.18 159.296 202.82C158.936 202.46 158.756 202.22 158.756 202.1V189.032L157.424 188.564V187.052C159.56 186.668 160.748 186.476 160.988 186.476C161.108 186.476 161.372 186.68 161.78 187.088C162.212 187.472 162.428 187.712 162.428 187.808L162.356 189.14C164.108 187.244 165.056 186.296 165.2 186.296C165.632 186.296 166.46 186.488 167.684 186.872C167.756 187.04 167.816 187.244 167.864 187.484C167.912 187.7 167.936 187.904 167.936 188.096C167.936 188.288 167.768 188.708 167.432 189.356C167.12 189.98 166.916 190.316 166.82 190.364C165.884 190.004 165.224 189.824 164.84 189.824C164.672 189.824 164.36 189.932 163.904 190.148C163.448 190.34 162.98 190.58 162.5 190.868V200.48L164.444 201.056V202.712C161.756 203.144 160.292 203.36 160.052 203.36ZM175.082 203.36C173.954 203.36 172.91 203.072 171.95 202.496C171.014 201.92 170.258 201.056 169.682 199.904C169.13 198.752 168.854 197.348 168.854 195.692C168.854 194.516 168.938 193.412 169.106 192.38C169.274 191.348 169.49 190.58 169.754 190.076C170.018 189.716 170.546 189.236 171.338 188.636C172.13 188.012 172.922 187.472 173.714 187.016C174.53 186.56 175.094 186.332 175.406 186.332C176.726 186.332 177.806 186.548 178.646 186.98C179.486 187.412 180.134 188.228 180.59 189.428C181.046 190.604 181.274 192.272 181.274 194.432L172.778 195.152C172.778 196.472 172.946 197.528 173.282 198.32C173.642 199.112 174.062 199.676 174.542 200.012C175.022 200.348 175.478 200.516 175.91 200.516L180.734 200.336V201.956C179.894 202.244 178.826 202.556 177.53 202.892C176.234 203.204 175.418 203.36 175.082 203.36ZM177.422 192.884C177.422 190.052 176.678 188.624 175.19 188.6H174.902C174.518 188.6 174.17 188.66 173.858 188.78C173.57 188.876 173.33 189.404 173.138 190.364C172.946 191.3 172.85 192.344 172.85 193.496L177.422 192.884Z" fill="white"/>
<defs>
<linearGradient id="paint0_linear_71_150" x1="124" y1="74.25" x2="124" y2="188" gradientUnits="userSpaceOnUse">
<stop stop-color="#AC8B16"/>
<stop offset="1" stop-color="#FFC700" stop-opacity="0.72"/>
</linearGradient>
</defs>
</svg>
