<svg width="249" height="320" viewBox="0 0 249 320" fill="none" xmlns="http://www.w3.org/2000/svg">
<g clip-path="url(#clip0_71_151)">
<path d="M0.5 6C0.5 2.6863 3.18629 0 6.5 0H242.5C245.814 0 248.5 2.68629 248.5 6V314C248.5 317.314 245.814 320 242.5 320H6.49999C3.18629 320 0.5 317.314 0.5 314V6Z" fill="white"/>
<rect x="1" y="0.5" width="247" height="319" rx="5.5" fill="white" stroke="#D4D4D4"/>
<path d="M117.5 163.218V147H120.5V142H107.75V136H149.5V142H136.25V147H140.5V163.218L138.5 175.382L130.25 179.437V193.881V199.71L122.5 201.484L112.5 207.819L104.5 233L88.25 225.5L81.5 227.678L88.25 207.819L96.25 201.484L105.5 199.71V193.881V179.437L111.5 175.382H116L117.5 163.218Z" fill="#A52828"/>
<path d="M140.5 147V163.218L138.5 175.382L130.25 179.437V193.881V199.71L122.5 201.484L112.5 207.819L104.5 233L88.25 225.5L81.5 227.678L88.25 207.819L96.25 201.484L105.5 199.71V193.881V179.437L111.5 175.382H116L117.5 163.218V147H120.5M140.5 147H120.5M140.5 147H136.25V142H149.5V136H107.75V142H120.5V147" stroke="black" stroke-width="2"/>
<path d="M44.5 44H204.5V116.75H200.75V120H164.5V128H151.25L136.125 90.125L121.5 87.375L119 89.125L97.75 86L92.5 92.375L101.125 97.875L104.125 109.625L108 113.375V127.75H88V124.25H53.5V120H44.5V44Z" fill="#433130"/>
<path d="M85.5 48L90.75 36L100 42.75L107 41.75L115.5 32.5625H133.5V40L141.5 34.5L147.75 36L149.5 44L150.5 45.3333L155.5 41.75L156.125 48L161.5 56V48.875C161.5 49.175 164.167 53.75 165.5 56L164.875 60L154.75 67C156.875 67.3333 161.625 68 163.625 68C165.625 68 167.125 65.3333 167.625 64L170.25 68C169.667 69.4167 167.9 72.45 165.5 73.25C163.1 74.05 157.833 73.5833 155.5 73.25L158.75 78L157.5 80C156.635 79.3658 155.148 78.1732 154.248 77.1673C155.134 78.9083 156.596 82.0316 157.5 84H150.5L141.5 81.25L149.5 88L137.5 85.5L127 84L123.25 88L107 80L101.5 82.25L93.5 81.25L88 92L81.5 76V68V62.75L85.5 48Z" fill="#5E2828"/>
<path d="M147.062 27.0625L143.625 31.3125L147.75 32.5625L147.062 27.0625Z" fill="#5E2828"/>
<path d="M127 84L123.25 88L107 80L101.5 82.25L93.5 81.25L88 92L81.5 76V68V62.75L85.5 48L90.75 36L100 42.75L107 41.75L115.5 32.5625H133.5V40L141.5 34.5L147.75 36L149.5 44L150.5 45.3333M127 84L137.5 85.5L149.5 88L141.5 81.25L150.5 84H157.5C156.083 80.9167 153.3 75 153.5 76C153.7 77 156.25 79.0833 157.5 80L158.75 78L155.5 73.25M127 84L117.5 78L114.5 75L117.5 73.25L121.5 75C122.75 73.5 126.475 70.475 131.375 70.375C136.275 70.275 140.667 72.25 142.25 73.25L146.625 76V72L137.5 68L146.625 66.375L142.25 64M155.5 73.25L157.5 71L149.5 68L157.5 62.75L155.5 52L150.5 45.3333M155.5 73.25C157.833 73.5833 163.1 74.05 165.5 73.25C167.9 72.45 169.667 69.4167 170.25 68L167.625 64C167.125 65.3333 165.625 68 163.625 68C161.625 68 156.875 67.3333 154.75 67L164.875 60L165.5 56C164.167 53.75 161.5 49.175 161.5 48.875C161.5 48.575 161.5 53.5 161.5 56L156.125 48L155.5 41.75L150.5 45.3333M143.625 31.3125L147.062 27.0625L147.75 32.5625L143.625 31.3125Z" stroke="black" stroke-width="2"/>
<path d="M137 126.188V125.88L136.827 125.625L132.625 119.442V112.438V111.616L131.819 111.457L124.882 110.082L123.688 109.845V110.875H122.562H121.562V111.875V113.875V114.875H122.562H123.787L123.813 114.923L124.004 115.267L121.913 117.052L121.875 117.085V116.438V115.438H120.875H119.312H118.665L118.4 116.028L117.852 117.25H117.562H116.761L116.587 118.032L115.399 123.344L115.267 123.937L115.731 124.327L116.918 125.327L117.198 125.562H117.562H123.572L124.562 126.842V127.062H119.938H119.487L119.189 127.4L117.751 129.025L117.5 129.309V129.688V132.312V132.642L117.696 132.907L121.259 137.72L121.949 138.653L122.625 137.977V138V139H123.625H127.188H129.295L127.962 137.368L126.097 135.083L126.629 134.652L127.396 134.031L126.785 133.256L126.436 132.812H130.312V136.812V137.081L130.447 137.314L131.135 138.501L131.423 139H132H143.625H144.625V138V136.5V135.5H143.625H141.125V134.938V133.938H140.125H137V126.188ZM127.056 116.5L126.429 115.683L127.375 115.811V116.5H127.056ZM122.197 120.125L122.435 119.282L122.95 119.947L122.894 120.125H122.197Z" fill="white" stroke="black" stroke-width="2"/>
<path d="M44.5 44V66.125V112L56 102.75V98L60.5 94.5V90.5H56V88V78.75C56 75.95 60.6667 72.2083 63 68.75V64H56L63 60V52L70.3125 44H44.5Z" fill="#262626" stroke="black" stroke-width="2"/>
<path d="M44.5 201.875V224H78.375" stroke="black" stroke-width="2"/>
<path d="M204.5 142V224H111.25" stroke="black" stroke-width="2"/>
<path d="M129.5 50.5L121.5 58.75H125.5L129.5 60.5L132.812 61.75L133.5 62.25L138.476 63.1913L142.75 64V58.75L140.611 56L137.5 52L135.292 51.5861L129.5 50.5Z" fill="white"/>
<path d="M89.5 58.75L83.25 66.75L88.5533 64.4166L89.5 64L92.089 63.4337L95.4795 62.692L97.5 62.25L99 60H97.5L91.5896 59.0765L89.5 58.75Z" fill="white"/>
<path d="M121.5 58.75L120.782 58.0539L119.137 59.75H121.5V58.75ZM129.5 50.5L129.684 49.5171L129.156 49.4181L128.782 49.8039L129.5 50.5ZM137.5 52L138.289 51.3861L138.057 51.087L137.684 51.0171L137.5 52ZM142.75 58.75H143.75V58.4069L143.539 58.1361L142.75 58.75ZM142.75 64L142.564 64.9826L143.75 65.2069V64H142.75ZM133.5 62.25L132.912 63.0587L133.093 63.1908L133.314 63.2326L133.5 62.25ZM125.5 58.75L125.901 57.8338L125.709 57.75H125.5V58.75ZM83.25 66.75L82.462 66.1344L83.6527 67.6653L83.25 66.75ZM89.5 58.75L89.6544 57.762L89.0738 57.6713L88.712 58.1344L89.5 58.75ZM97.5 60L97.3456 60.988L97.4223 61H97.5V60ZM99 60L99.8321 60.5547L100.869 59H99V60ZM97.5 62.25L97.7137 63.2269L98.1081 63.1406L98.3321 62.8047L97.5 62.25ZM89.5 64L89.2863 63.0231L89.1887 63.0444L89.0973 63.0847L89.5 64ZM119.5 44L119.352 43.0111L119.037 43.0582L118.808 43.278L119.5 44ZM129.5 42.5L129.929 41.5967L129.653 41.4658L129.352 41.5111L129.5 42.5ZM103.75 56L102.89 56.5105L103.181 57H103.75V56ZM99 48L99.8599 47.4895L99.5181 46.9139L98.8557 47.0105L99 48ZM87 49.75L86.8557 48.7605L86.3914 48.8282L86.1467 49.2285L87 49.75ZM107.25 56L107.681 56.9021L107.25 55V56ZM101.5 58.75L101.069 57.8479L100.851 57.952L100.705 58.144L101.5 58.75ZM97.5 64L96.7046 63.394L96.6915 63.4112L96.6791 63.4289L97.5 64ZM93.5 69.75L92.6791 69.1789L92.3589 69.6392L92.5845 70.1524L93.5 69.75ZM96 75.4375L95.0845 75.8399L96.8906 75.8923L96 75.4375ZM112.312 71.8125L112.75 72.7119L114.067 72.0719L112.991 71.0781L112.312 71.8125ZM97.5 72.5L98.3348 71.9494L96.6094 72.0452L97.5 72.5ZM99.4375 75.4375L98.6027 75.9881L98.8991 76.4375H99.4375V75.4375ZM103.75 72.25L104.582 71.6953L102.825 71.8692L103.75 72.25ZM102.438 75.4375V76.4375H103.107L103.362 75.8182L102.438 75.4375ZM105.625 75.0625L104.793 75.6172L105.277 76.3434L106.062 75.9619L105.625 75.0625ZM128.438 54.5L128.046 53.5797L127.314 53.8909L127.453 54.6744L128.438 54.5ZM129.5 60.5L129.099 61.4162L129.123 61.4265L129.147 61.4356L129.5 60.5ZM142.125 61.125L142.618 61.9952L143.309 61.6037L143.084 60.8417L142.125 61.125ZM131.875 56L131.607 55.0367L130.744 55.277L130.888 56.1609L131.875 56ZM138.476 60L138.843 60.9302L139.583 60.6381L139.465 59.8514L138.476 60ZM138.062 57.25L139.051 57.1014L138.888 56.0147L137.822 56.2794L138.062 57.25ZM135.292 57.9375L135.052 56.9669L134.208 57.1764L134.298 58.0413L135.292 57.9375ZM135.625 61.125L134.63 61.2288L134.767 62.5386L135.992 62.0552L135.625 61.125ZM93.5 60.8125L94.1885 60.0873L93.2397 59.1864L92.6195 60.3385L93.5 60.8125ZM88.5533 64.4166L88.956 65.3319L88.956 65.3319L88.5533 64.4166ZM122.218 59.4461L130.218 51.1961L128.782 49.8039L120.782 58.0539L122.218 59.4461ZM141.75 58.75V64H143.75V58.75H141.75ZM125.5 57.75H121.5V59.75H125.5V57.75ZM84.038 67.3656L90.288 59.3656L88.712 58.1344L82.462 66.1344L84.038 67.3656ZM97.5 61H99V59H97.5V61ZM98.1679 59.4453L96.6679 61.6953L98.3321 62.8047L99.8321 60.5547L98.1679 59.4453ZM114.192 50.472L120.192 44.722L118.808 43.278L112.808 49.028L114.192 50.472ZM119.648 44.9889L129.648 43.4889L129.352 41.5111L119.352 43.0111L119.648 44.9889ZM129.071 43.4033L149.071 52.9033L149.929 51.0967L129.929 41.5967L129.071 43.4033ZM104.61 55.4895L99.8599 47.4895L98.1401 48.5105L102.89 56.5105L104.61 55.4895ZM98.8557 47.0105L86.8557 48.7605L87.1443 50.7395L99.1443 48.9895L98.8557 47.0105ZM86.1467 49.2285L80.6467 58.2285L82.3533 59.2715L87.8533 50.2715L86.1467 49.2285ZM103.75 57H107.25V55H103.75V57ZM106.819 55.0979L101.069 57.8479L101.931 59.6521L107.681 56.9021L106.819 55.0979ZM100.705 58.144L96.7046 63.394L98.2954 64.606L102.295 59.356L100.705 58.144ZM96.6791 63.4289L92.6791 69.1789L94.3209 70.3211L98.3209 64.5711L96.6791 63.4289ZM92.5845 70.1524L95.0845 75.8399L96.9155 75.0351L94.4155 69.3476L92.5845 70.1524ZM96.8906 75.8923L98.3906 72.9548L96.6094 72.0452L95.1094 74.9827L96.8906 75.8923ZM96.6652 73.0506L98.6027 75.9881L100.272 74.8869L98.3348 71.9494L96.6652 73.0506ZM99.4375 76.4375H102.438V74.4375H99.4375V76.4375ZM103.362 75.8182L104.675 72.6308L102.825 71.8692L101.513 75.0568L103.362 75.8182ZM102.918 72.8047L104.793 75.6172L106.457 74.5078L104.582 71.6953L102.918 72.8047ZM106.062 75.9619L112.75 72.7119L111.875 70.9131L105.188 74.1631L106.062 75.9619ZM112.991 71.0781L108.866 67.2656L107.509 68.7344L111.634 72.5469L112.991 71.0781ZM129.316 51.4829L135.108 52.569L135.477 50.6032L129.684 49.5171L129.316 51.4829ZM135.108 52.569L137.316 52.9829L137.684 51.0171L135.477 50.6032L135.108 52.569ZM134.901 50.6658L128.046 53.5797L128.829 55.4203L135.684 52.5064L134.901 50.6658ZM129.901 59.5838L125.901 57.8338L125.099 59.6662L129.099 61.4162L129.901 59.5838ZM127.453 54.6744L128.515 60.6744L130.485 60.3256L129.422 54.3256L127.453 54.6744ZM136.711 52.6139L139.822 56.6139L141.4 55.3861L138.289 51.3861L136.711 52.6139ZM139.822 56.6139L141.961 59.3639L143.539 58.1361L141.4 55.3861L139.822 56.6139ZM139.652 56.2833L141.166 61.4083L143.084 60.8417L141.57 55.7167L139.652 56.2833ZM142.936 63.0174L138.662 62.2088L138.29 64.1739L142.564 64.9826L142.936 63.0174ZM138.662 62.2088L133.686 61.2674L133.314 63.2326L138.29 64.1739L138.662 62.2088ZM141.632 60.2548L137.983 62.3211L138.968 64.0615L142.618 61.9952L141.632 60.2548ZM138.787 53.0367L131.607 55.0367L132.143 56.9633L139.324 54.9633L138.787 53.0367ZM134.088 61.4413L133.401 60.9413L132.224 62.5587L132.912 63.0587L134.088 61.4413ZM133.166 60.8144L129.853 59.5644L129.147 61.4356L132.459 62.6856L133.166 60.8144ZM130.888 56.1609L131.826 61.9109L133.799 61.5891L132.862 55.8391L130.888 56.1609ZM139.465 59.8514L139.051 57.1014L137.074 57.3986L137.487 60.1486L139.465 59.8514ZM137.822 56.2794L135.052 56.9669L135.533 58.9081L138.303 58.2206L137.822 56.2794ZM134.298 58.0413L134.63 61.2288L136.62 61.0212L136.287 57.8337L134.298 58.0413ZM135.992 62.0552L138.843 60.9302L138.109 59.0698L135.258 60.1948L135.992 62.0552ZM91.8753 62.4568L89.2863 63.0231L89.7137 64.9769L92.3027 64.4106L91.8753 62.4568ZM92.9695 63.9077L94.3805 61.2865L92.6195 60.3385L91.2085 62.9597L92.9695 63.9077ZM97.2863 61.2731L95.2658 61.7151L95.6932 63.6689L97.7137 63.2269L97.2863 61.2731ZM95.2658 61.7151L91.8753 62.4568L92.3027 64.4106L95.6932 63.6689L95.2658 61.7151ZM92.8115 61.5377L94.7909 63.4172L96.168 61.9668L94.1885 60.0873L92.8115 61.5377ZM89.0973 63.0847L88.1505 63.5012L88.956 65.3319L89.9027 64.9153L89.0973 63.0847ZM88.1505 63.5012L82.8473 65.8347L83.6527 67.6653L88.956 65.3319L88.1505 63.5012ZM89.3456 59.738L91.4352 60.0645L91.744 58.0885L89.6544 57.762L89.3456 59.738ZM91.4352 60.0645L97.3456 60.988L97.6544 59.012L91.744 58.0885L91.4352 60.0645ZM88.956 65.3319C89.187 65.2302 89.3348 65.0615 89.3668 65.0263C89.4314 64.9552 89.491 64.8777 89.5415 64.8082C89.6443 64.6667 89.7598 64.4882 89.8793 64.2943C90.1206 63.9026 90.4164 63.385 90.7242 62.8292C91.3417 61.7144 92.0317 60.4024 92.4787 59.5343L90.7005 58.6187C90.259 59.4762 89.5791 60.769 88.9747 61.8602C88.6716 62.4074 88.3934 62.8931 88.1765 63.2453C88.0668 63.4233 87.9821 63.5519 87.9235 63.6326C87.8932 63.6742 87.8817 63.6867 87.8862 63.6817C87.8886 63.6791 87.9055 63.6605 87.9351 63.6351C87.9569 63.6165 88.0317 63.5535 88.1505 63.5012L88.956 65.3319Z" fill="black"/>
<path d="M88.0625 91.6875L90.125 87.6875L90.7812 87.8438L92.5625 85.6875H95L98.6875 84.3125L100.723 86.0316L103.125 84L105.424 86.0316C105.735 85.7563 107.396 84.5625 108.188 84L110.264 85.6875L112.562 84.9375L113.5 87.3125L113.031 88.6875L113.5 88.3601L115 87.3125L116.562 86.8607L118.688 89.1875V89.5L120.625 88.3601L122.72 89.3154L125.5 88.3601L126.688 89.5V90.5L129.5 88.0938L132.938 90.0625V93.9375L130.188 96L126.688 93.9375L125.5 94.875L123.245 93.9375L121.5 96L118.688 93.5625V94.875L119.312 99.5V103.125L116.062 97.625L113.938 92L113.5 88.3601L113.031 88.6875L112.562 90.0625L112.938 93.9375L110.264 89.5V86.8149L108.812 89.5L105.424 86.8607L103.562 89.1875L100.815 87.6875L99.1875 90.0625L95.5 88.0938L96 90.5L95.3438 92.2188L98.125 93.5625V93.9375L100.723 94.5625L101.299 95.2812L103.125 94.5625L106.375 96V98.875L104.375 100.875L102.688 100L101.5 101.875L99.9583 98.875L99.1875 99.5L96 96.875H94L92.086 95.2989L89.5 102.688L88.0625 91.6875Z" fill="#EBD76F"/>
<path d="M91.4375 88L92.5625 93.9375L92.086 95.2989M91.4375 88L90.7812 87.8438M91.4375 88L92.2937 92.5187L94.6875 93.9375L95.3438 92.2188M90.7812 87.8438L90.125 87.6875L88.0625 91.6875L89.5 102.688L92.086 95.2989M90.7812 87.8438L92.5625 85.6875H95M95 85.6875L98.6875 84.3125L100.723 86.0316M95 85.6875L95.5 88.0938M95.5 88.0938L96 90.5L95.3438 92.2188M95.5 88.0938L99.1875 90.0625L100.815 87.6875M100.723 86.0316L101.5 86.6875L100.815 87.6875M100.723 86.0316L103.125 84L105.424 86.0316M100.815 87.6875L103.562 89.1875L105.424 86.8607M105.424 86.0316L105.812 86.375L105.424 86.8607M105.424 86.0316C105.735 85.7563 107.396 84.5625 108.188 84L110.264 85.6875M105.424 86.8607L108.812 89.5L110.688 86.0316L110.264 85.6875M110.264 85.6875L112.562 84.9375L113.5 87.3125L113.031 88.6875M110.264 85.6875V89.5L112.938 93.9375L112.562 90.0625L113.031 88.6875M113.031 88.6875L113.5 88.3601M113.5 88.3601L115 87.3125L116.562 86.8607L118.688 89.1875V89.5M113.5 88.3601L113.938 92L116.062 97.625L119.312 103.125V99.5L118.688 94.875V93.5625M118.688 89.5L120.625 88.3601L122.72 89.3154M118.688 89.5V93.5625M118.688 93.5625L121.5 96L123.245 93.9375M122.72 89.3154L123.125 89.5L123.562 93.5625L123.245 93.9375M122.72 89.3154L125.5 88.3601L126.688 89.5V90.5M126.688 93.9375L125.5 94.875L123.245 93.9375M126.688 93.9375V90.5M126.688 93.9375L130.188 96L132.938 93.9375V90.0625L129.5 88.0938L126.688 90.5M95.3438 92.2188L98.125 93.5625V93.9375M96 96.875L98.125 96.625V93.9375M96 96.875H94L92.086 95.2989M96 96.875L99.1875 99.5L99.9583 98.875M98.125 93.9375L100.723 94.5625L101.299 95.2812M101.299 95.2812L101.875 96L101.5 97.625L99.9583 98.875M101.299 95.2812L103.125 94.5625L106.375 96V98.875L104.375 100.875L102.688 100L101.5 101.875L99.9583 98.875" stroke="black" stroke-width="2"/>
<path d="M135.25 89.625L125.5 87.5H123.625L127.25 84L139.839 86.5L140.625 80.0213L153.5 84C156.292 84.4583 160.125 83.125 165.5 86.5C170.875 89.875 172.135 93.3848 172.375 98.75C172.601 103.796 168.917 108.75 167.25 110.875L163.75 108C164.792 105.917 166.825 101.15 166.625 98.75C166.375 95.75 163.25 89.625 155.125 90.25C148.625 90.75 148.333 96.9583 148.125 100H146.203L146.375 101.125L145.5 104L147.5 103.25L149.5 108L151.5 110C152.417 106.667 153.5 104 153.5 104L160.125 112C160.125 112 159.5 118.2 157.5 120C155.5 121.8 152.167 122.542 150.75 122.688L149.5 124H152L150.75 137H177.5V142H56H51.375V137.75H56V142H177.5V137H150.75H143.15V134.5L144.875 130.375L142.25 129.125L140.625 124L143.625 121.375L140.625 116.625L143.15 107L142.25 104L136.608 91L135.25 89.625Z" fill="#412020"/>
<path d="M98.5 98.75L101.5 101.125L102.125 102.625L104.125 109.75L107.75 114.125L107.625 137H102.5L100.75 133.5L102.125 131H105.5L102.875 126.625L102.125 129.125C101.333 128.208 99.625 126.3 99.125 126V128H91.75C91.75 124 96.825 116.35 94.125 117.75C91.425 119.15 88.0833 118.333 86.75 117.75L89.5 114.125C87.3333 113.417 83.5 112 85.5 112C88 112 89.5 111 91.75 109.75C93.55 108.75 92.5 104.583 91.75 102.625L89.5 98.75C87.6667 100.5 83.2 104 80 104C76.8 104 73.5 99.3333 72.25 97H76L72.25 91H77.5C78.7 91 80.6667 88 81.5 86.5C79.6667 86.8333 73.5 86.5 73.5 86.5C73.5 86.5 69.1667 81.5 69.5 78.5C71.25 79.1667 75.3 80.4 77.5 80C79.7 79.6 81.0833 77.1667 81.5 76H76C74.75 75.5833 72.25 70.75 72.25 70.75C72.25 70.75 78.4167 64 81.5 61.75V76L85.5 86.5H81.5C80.6667 88 78.7 91 77.5 91H72.25L76 97H72.25C73.5 99.3333 76.8 104 80 104C83.2 104 87.6667 100.5 89.5 98.75L92.375 96L94.125 97L98.5 98.75Z" fill="#412020"/>
<path d="M166.625 84.875L157.5 80L159 77.875C160.292 78.1667 163.4 78.725 165.5 78.625C167.6 78.525 169.625 75.75 170.375 74.375L173.5 76.625L166.625 84.875Z" fill="#412020"/>
<path d="M136.608 91L135.25 89.625L125.5 87.5H123.625L127.25 84L139.839 86.5M136.608 91L145.5 100L145.85 97.6973M136.608 91L142.25 104L143.15 107M145.85 97.6973L146.375 94.25L145.5 92.75L143.625 93.625L144.875 91V87.5L139.839 86.5M145.85 97.6973L146.203 100M94.125 97L97.5 104L100.75 116L101.5 107V101.125M94.125 97L98.5 98.75L101.5 101.125M94.125 97L92.375 96L89.5 98.75M101.5 101.125L102.125 102.625L104.125 109.75L107.75 114.125L107.625 137H115.25H102.5M72.25 137H102.5M101.5 116.625L100.75 119L102.875 121.375L102.125 123.25C100.917 124.042 98.625 125.7 99.125 126M99.125 126C99.625 126.3 101.333 128.208 102.125 129.125L102.875 126.625L105.5 131H102.125L100.75 133.5L102.5 137M99.125 126V128H91.75C91.75 124 96.825 116.35 94.125 117.75C91.425 119.15 88.0833 118.333 86.75 117.75L89.5 114.125C87.3333 113.417 83.5 112 85.5 112C88 112 89.5 111 91.75 109.75C93.55 108.75 92.5 104.583 91.75 102.625L89.5 98.75M143.15 107L146.375 117.75L150.75 137L152 124H149.5L150.75 122.688M143.15 107L140.625 116.625L143.625 121.375L140.625 124L142.25 129.125L144.875 130.375L143.15 134.5V137H177.5V142H56M47.5 142H51.375M81.5 76H76C74.75 75.5833 72.25 70.75 72.25 70.75C72.25 70.75 78.4167 64 81.5 61.75V76ZM81.5 76C81.0833 77.1667 79.7 79.6 77.5 80C75.3 80.4 71.25 79.1667 69.5 78.5C69.1667 81.5 73.5 86.5 73.5 86.5C73.5 86.5 79.6667 86.8333 81.5 86.5M81.5 76L85.5 86.5H81.5M81.5 86.5C80.6667 88 78.7 91 77.5 91C76.3 91 73.5 91 72.25 91L76 97H72.25C73.5 99.3333 76.8 104 80 104C83.2 104 87.6667 100.5 89.5 98.75M150.75 122.688L152 121.375L148.25 120L151 116.625L153.5 112L151.5 110M150.75 122.688C152.167 122.542 155.5 121.8 157.5 120C159.5 118.2 160.125 112 160.125 112L153.5 104C153.5 104 152.417 106.667 151.5 110M151.5 110L149.5 108L147.5 103.25L145.5 104L146.375 101.125L146.203 100M139.839 86.5L140.625 80.0213L153.5 84C156.292 84.4583 160.125 83.125 165.5 86.5C170.875 89.875 172.135 93.3848 172.375 98.75C172.601 103.796 168.917 108.75 167.25 110.875L163.75 108C164.792 105.917 166.825 101.15 166.625 98.75C166.375 95.75 163.25 89.625 155.125 90.25C148.625 90.75 148.333 96.9583 148.125 100H146.203M51.375 142V137.75H56V142M51.375 142H56M157.5 80L166.625 84.875L173.5 76.625L170.375 74.375C169.625 75.75 167.6 78.525 165.5 78.625C163.4 78.725 160.292 78.1667 159 77.875L157.5 80Z" stroke="black" stroke-width="2"/>
<path d="M204.625 143.125H199.5M82.75 142V147H187.125V143.125H191.375M86.625 147V142M90.25 147V142M94.125 147V142M97.625 147V142M101.25 147V142M105.125 147V142M109 147V142M112.875 147V142M116.875 147V142M120.875 147V142M124.875 147V142M191.375 143.125L187.125 139.375H203L199.5 143.125M191.375 143.125H199.5" stroke="black" stroke-width="2"/>
<path d="M178.688 130.531V120.281H176.562V116.281H185.688H190.188V120.281H188.188V130.531H192.375V127.125L197.5 127.5L197.688 130.531H192.375H188.188H183.938H178.688Z" fill="#6D6D6D"/>
<path d="M178.688 130.531V120.281H176.562V116.281H185.688M185.688 116.281V120.281H183.938V130.531M185.688 116.281H190.188V120.281H188.188V130.531M183.938 130.531H173.688M183.938 130.531H188.188M188.188 130.531H192.375M217.5 123.75H203V130.531H197.688M192.375 130.531V127.125L197.5 127.5L197.688 130.531M192.375 130.531H197.688M171.875 130.531H167.75" stroke="black" stroke-width="2"/>
<path d="M66 130.531V120.281H63.875V116.281H73H77.5V120.281H75.5V130.531H71.25H66.125H66Z" fill="#6D6D6D"/>
<path d="M66 130.531V120.281H63.875V116.281H73M73 116.281V120.281H71.25V130.531M73 116.281H77.5V120.281H75.5V130.531M61 130.531H66.125H71.25M75.5 130.531H81.6875V136.875M75.5 130.531H71.25" stroke="black" stroke-width="2"/>
<path d="M29.5 120H53.5V124H65.5M76 124H87.5V128H101.5M151 128H164.25V120H176M190.438 120H200.25V117.25H209.5" stroke="black" stroke-width="2"/>
<path d="M217.5 121.25V152.75H193.5V156.75H181.5H159.5V160.75H145.5V204H141.5V223.75M37.5 120V150H46.75V152.75H71H82.75V160.75H96V201.25" stroke="black" stroke-width="2"/>
<path d="M184.033 208H204.5V224H131.75V216H153.622V212H173.3H184.033V208Z" fill="#262626"/>
<path d="M73 216H66.8986V208H56.3889H52.7736V205.25H44.5M204.5 208H184.033V212H173.3H153.622V216H131.75V224H204.5V208Z" stroke="black" stroke-width="2"/>
<path d="M183.562 108H180.125L178.438 106.562V104L177.062 103.125L178.438 102.062V96.6875L177.5 95H175.5" stroke="black" stroke-width="2"/>
<path d="M183.562 108H187L188.688 106.562V104L190.062 103.125L188.688 102.062V96.6875L189.625 95H191.625" stroke="black" stroke-width="2"/>
<path d="M183.562 116.375V103.062V95H185.375H181.438" stroke="black" stroke-width="2"/>
<path d="M180.625 112H186.562" stroke="black" stroke-width="2"/>
<path d="M70.3125 108H66.875L65.1875 106.562V104L63.8125 103.125L65.1875 102.062V96.6875L64.25 95H62.25" stroke="black" stroke-width="2"/>
<path d="M70.3125 108H73.75L75.4375 106.562V104L76.8125 103.125L75.4375 102.062V96.6875L76.375 95H78.375" stroke="black" stroke-width="2"/>
<path d="M70.3125 116.375V103.062V95H72.125H68.1875" stroke="black" stroke-width="2"/>
<path d="M67.375 112H73.3125" stroke="black" stroke-width="2"/>
<path d="M175.548 46.125V50.5H166.602L163.709 44H204.499V112L198.411 107.375L196.547 104V99.375L199.032 98.25V94H197.293L195.374 82.375L189.5 81.375V77.25H184.246V72L182.507 69.75L183.128 60L175.548 46.125Z" fill="#262626" stroke="black" stroke-width="2"/>
<path d="M66.6712 252.909V266H68.1541V256.054H68.282L72.3729 266H73.8047L77.8956 256.054H78.0234V266H79.5064V252.909H77.6143L73.1655 263.776H73.0121L68.5632 252.909H66.6712ZM86.4689 266.205C89.128 266.205 90.9178 264.185 90.9178 261.142C90.9178 258.074 89.128 256.054 86.4689 256.054C83.8098 256.054 82.0201 258.074 82.0201 261.142C82.0201 264.185 83.8098 266.205 86.4689 266.205ZM86.4689 264.849C84.449 264.849 83.5286 263.111 83.5286 261.142C83.5286 259.173 84.449 257.409 86.4689 257.409C88.4888 257.409 89.4093 259.173 89.4093 261.142C89.4093 263.111 88.4888 264.849 86.4689 264.849ZM100.897 256.182H99.261L96.5508 264.006H96.4485L93.7383 256.182H92.1019L95.7326 266H97.2667L100.897 256.182ZM106.653 266.205C108.648 266.205 110.105 265.207 110.565 263.724L109.108 263.315C108.724 264.338 107.836 264.849 106.653 264.849C104.883 264.849 103.662 263.705 103.592 261.602H110.719V260.963C110.719 257.307 108.545 256.054 106.5 256.054C103.841 256.054 102.077 258.151 102.077 261.168C102.077 264.185 103.815 266.205 106.653 266.205ZM103.592 260.298C103.694 258.771 104.774 257.409 106.5 257.409C108.136 257.409 109.185 258.636 109.185 260.298H103.592ZM120.965 266.23C122.678 266.23 123.573 265.31 123.88 264.67H123.957V266H125.465V259.531C125.465 256.412 123.087 256.054 121.835 256.054C120.352 256.054 118.664 256.565 117.897 258.355L119.329 258.866C119.661 258.151 120.447 257.384 121.886 257.384C123.273 257.384 123.957 258.119 123.957 259.378V259.429C123.957 260.158 123.215 260.094 121.425 260.324C119.604 260.56 117.616 260.963 117.616 263.213C117.616 265.131 119.099 266.23 120.965 266.23ZM121.195 264.875C119.994 264.875 119.124 264.338 119.124 263.29C119.124 262.139 120.173 261.781 121.349 261.628C121.988 261.551 123.701 261.372 123.957 261.065V262.446C123.957 263.673 122.985 264.875 121.195 264.875ZM129.727 260.094C129.727 258.381 130.788 257.409 132.233 257.409C133.633 257.409 134.483 258.323 134.483 259.864V266H135.991V259.761C135.991 257.256 134.655 256.054 132.667 256.054C131.184 256.054 130.264 256.719 129.804 257.716H129.676V256.182H128.219V266H129.727V260.094ZM139.368 269.682C140.729 269.682 141.688 268.96 142.257 267.432L146.438 256.207L144.788 256.182L142.078 264.006H141.976L139.266 256.182H137.629L141.26 266.051L140.979 266.818C140.429 268.314 139.751 268.455 138.652 268.173L138.268 269.503C138.422 269.58 138.857 269.682 139.368 269.682ZM159.683 261.986C159.683 263.827 158.277 264.67 157.152 264.67C155.899 264.67 155.004 263.75 155.004 262.318V256.182H153.496V262.42C153.496 264.926 154.825 266.128 156.666 266.128C158.149 266.128 159.121 265.335 159.581 264.338H159.683V266H161.192V256.182H159.683V261.986ZM165.463 260.094C165.463 258.381 166.525 257.409 167.969 257.409C169.369 257.409 170.219 258.323 170.219 259.864V266H171.728V259.761C171.728 257.256 170.392 256.054 168.404 256.054C166.921 256.054 166 256.719 165.54 257.716H165.412V256.182H163.955V266H165.463V260.094ZM174.484 266H175.993V256.182H174.484V266ZM175.251 254.545C175.839 254.545 176.325 254.085 176.325 253.523C176.325 252.96 175.839 252.5 175.251 252.5C174.663 252.5 174.177 252.96 174.177 253.523C174.177 254.085 174.663 254.545 175.251 254.545ZM183.026 256.182H180.929V253.83H179.42V256.182H177.938V257.46H179.42V263.597C179.42 265.31 180.801 266.128 182.08 266.128C182.642 266.128 183 266.026 183.205 265.949L182.898 264.594C182.77 264.619 182.565 264.67 182.233 264.67C181.568 264.67 180.929 264.466 180.929 263.188V257.46H183.026V256.182ZM43.0038 278.182H40.805V277.185C40.805 276.213 41.214 275.702 42.2112 275.702C42.6459 275.702 42.9015 275.804 43.055 275.855L43.4896 274.551C43.2595 274.449 42.7993 274.295 42.0578 274.295C40.6515 274.295 39.2964 275.139 39.2964 276.827V278.182H37.7112V279.46H39.2964V288H40.805V279.46H43.0038V278.182ZM45.118 288H46.6265V281.787C46.6265 280.457 47.6748 279.486 49.1066 279.486C49.5093 279.486 49.9248 279.562 50.0271 279.588V278.054C49.8545 278.041 49.4582 278.028 49.2345 278.028C48.0583 278.028 47.0356 278.693 46.6776 279.665H46.5754V278.182H45.118V288ZM55.5051 288.205C58.1642 288.205 59.9539 286.185 59.9539 283.142C59.9539 280.074 58.1642 278.054 55.5051 278.054C52.846 278.054 51.0562 280.074 51.0562 283.142C51.0562 286.185 52.846 288.205 55.5051 288.205ZM55.5051 286.849C53.4852 286.849 52.5647 285.111 52.5647 283.142C52.5647 281.173 53.4852 279.409 55.5051 279.409C57.5249 279.409 58.4454 281.173 58.4454 283.142C58.4454 285.111 57.5249 286.849 55.5051 286.849ZM62.2567 288H63.7652V281.864C63.7652 280.425 64.8135 279.409 65.9896 279.409C67.1338 279.409 67.9328 280.157 67.9328 281.276V288H69.4669V281.608C69.4669 280.342 70.2595 279.409 71.6402 279.409C72.714 279.409 73.6345 279.978 73.6345 281.429V288H75.143V281.429C75.143 279.121 73.903 278.054 72.1515 278.054C70.7453 278.054 69.7162 278.7 69.2112 279.716H69.1089C68.6231 278.668 67.7666 278.054 66.4754 278.054C65.197 278.054 64.251 278.668 63.8419 279.716H63.714V278.182H62.2567V288ZM86.9523 288.205C89.1256 288.205 90.5574 286.875 90.8131 285.136H89.3046C89.0233 286.21 88.1285 286.849 86.9523 286.849C85.1626 286.849 84.012 285.366 84.012 283.091C84.012 280.866 85.1881 279.409 86.9523 279.409C88.2819 279.409 89.0745 280.227 89.3046 281.122H90.8131C90.5574 279.281 88.9978 278.054 86.9268 278.054C84.2677 278.054 82.5035 280.151 82.5035 283.142C82.5035 286.082 84.191 288.205 86.9523 288.205ZM95.9076 288.23C97.6207 288.23 98.5155 287.31 98.8224 286.67H98.8991V288H100.408V281.531C100.408 278.412 98.0297 278.054 96.7769 278.054C95.2939 278.054 93.6064 278.565 92.8394 280.355L94.2712 280.866C94.6036 280.151 95.3898 279.384 96.828 279.384C98.2151 279.384 98.8991 280.119 98.8991 281.378V281.429C98.8991 282.158 98.1576 282.094 96.3678 282.324C94.5461 282.56 92.5581 282.963 92.5581 285.213C92.5581 287.131 94.0411 288.23 95.9076 288.23ZM96.1377 286.875C94.936 286.875 94.0667 286.338 94.0667 285.29C94.0667 284.139 95.115 283.781 96.2911 283.628C96.9303 283.551 98.6434 283.372 98.8991 283.065V284.446C98.8991 285.673 97.9275 286.875 96.1377 286.875ZM110.116 280.381C109.642 278.987 108.581 278.054 106.638 278.054C104.567 278.054 103.033 279.23 103.033 280.892C103.033 282.247 103.839 283.155 105.641 283.577L107.277 283.96C108.268 284.19 108.735 284.663 108.735 285.341C108.735 286.185 107.84 286.875 106.434 286.875C105.2 286.875 104.427 286.344 104.158 285.29L102.726 285.648C103.078 287.316 104.452 288.205 106.459 288.205C108.741 288.205 110.294 286.958 110.294 285.264C110.294 283.896 109.438 283.033 107.687 282.605L106.229 282.247C105.066 281.96 104.542 281.57 104.542 280.815C104.542 279.972 105.437 279.358 106.638 279.358C107.955 279.358 108.498 280.087 108.76 280.764L110.116 280.381ZM116.835 278.182H114.739V275.83H113.23V278.182H111.747V279.46H113.23V285.597C113.23 287.31 114.611 288.128 115.889 288.128C116.452 288.128 116.81 288.026 117.014 287.949L116.707 286.594C116.579 286.619 116.375 286.67 116.043 286.67C115.378 286.67 114.739 286.466 114.739 285.188V279.46H116.835V278.182ZM120.824 274.909H119.315V288H120.824V274.909ZM127.703 288.205C129.698 288.205 131.155 287.207 131.615 285.724L130.158 285.315C129.774 286.338 128.886 286.849 127.703 286.849C125.933 286.849 124.712 285.705 124.641 283.602H131.769V282.963C131.769 279.307 129.595 278.054 127.55 278.054C124.891 278.054 123.127 280.151 123.127 283.168C123.127 286.185 124.865 288.205 127.703 288.205ZM124.641 282.298C124.744 280.771 125.824 279.409 127.55 279.409C129.186 279.409 130.234 280.636 130.234 282.298H124.641ZM143.396 278.182H141.299V275.83H139.791V278.182H138.308V279.46H139.791V285.597C139.791 287.31 141.171 288.128 142.45 288.128C143.012 288.128 143.37 288.026 143.575 287.949L143.268 286.594C143.14 286.619 142.935 286.67 142.603 286.67C141.938 286.67 141.299 286.466 141.299 285.188V279.46H143.396V278.182ZM149.548 288.205C152.207 288.205 153.997 286.185 153.997 283.142C153.997 280.074 152.207 278.054 149.548 278.054C146.889 278.054 145.099 280.074 145.099 283.142C145.099 286.185 146.889 288.205 149.548 288.205ZM149.548 286.849C147.528 286.849 146.608 285.111 146.608 283.142C146.608 281.173 147.528 279.409 149.548 279.409C151.568 279.409 152.488 281.173 152.488 283.142C152.488 285.111 151.568 286.849 149.548 286.849ZM165.351 288.205C167.524 288.205 168.956 286.875 169.212 285.136H167.703C167.422 286.21 166.527 286.849 165.351 286.849C163.561 286.849 162.41 285.366 162.41 283.091C162.41 280.866 163.587 279.409 165.351 279.409C166.68 279.409 167.473 280.227 167.703 281.122H169.212C168.956 279.281 167.396 278.054 165.325 278.054C162.666 278.054 160.902 280.151 160.902 283.142C160.902 286.082 162.589 288.205 165.351 288.205ZM174.306 288.23C176.019 288.23 176.914 287.31 177.221 286.67H177.297V288H178.806V281.531C178.806 278.412 176.428 278.054 175.175 278.054C173.692 278.054 172.005 278.565 171.238 280.355L172.67 280.866C173.002 280.151 173.788 279.384 175.226 279.384C176.614 279.384 177.297 280.119 177.297 281.378V281.429C177.297 282.158 176.556 282.094 174.766 282.324C172.945 282.56 170.957 282.963 170.957 285.213C170.957 287.131 172.44 288.23 174.306 288.23ZM174.536 286.875C173.334 286.875 172.465 286.338 172.465 285.29C172.465 284.139 173.513 283.781 174.69 283.628C175.329 283.551 177.042 283.372 177.297 283.065V284.446C177.297 285.673 176.326 286.875 174.536 286.875ZM181.559 288H183.068V281.864C183.068 280.425 184.116 279.409 185.292 279.409C186.437 279.409 187.236 280.157 187.236 281.276V288H188.77V281.608C188.77 280.342 189.562 279.409 190.943 279.409C192.017 279.409 192.937 279.978 192.937 281.429V288H194.446V281.429C194.446 279.121 193.206 278.054 191.454 278.054C190.048 278.054 189.019 278.7 188.514 279.716H188.412C187.926 278.668 187.069 278.054 185.778 278.054C184.5 278.054 183.554 278.668 183.145 279.716H183.017V278.182H181.559V288ZM197.204 291.682H198.712V286.491H198.84C199.173 287.028 199.812 288.205 201.704 288.205C204.158 288.205 205.872 286.236 205.872 283.116C205.872 280.023 204.158 278.054 201.678 278.054C199.761 278.054 199.173 279.23 198.84 279.741H198.661V278.182H197.204V291.682ZM198.687 283.091C198.687 280.892 199.658 279.409 201.499 279.409C203.417 279.409 204.363 281.02 204.363 283.091C204.363 285.188 203.391 286.849 201.499 286.849C199.684 286.849 198.687 285.315 198.687 283.091ZM209.272 288.102C209.905 288.102 210.423 287.585 210.423 286.952C210.423 286.319 209.905 285.801 209.272 285.801C208.639 285.801 208.122 286.319 208.122 286.952C208.122 287.585 208.639 288.102 209.272 288.102Z" fill="black" fill-opacity="0.87"/>
<path d="M216.5 160H236.5V176L228.5 184.5L236.5 192V208H226.5H216.5V160Z" fill="#FF4B3C" stroke="black" stroke-width="2"/>
<path d="M216.5 160H236.5V176L228.5 184.5L236.5 192V208H226.5H216.5V160Z" fill="black" fill-opacity="0.17"/>
<path d="M224.5 168L216.5 160V168H224.5Z" fill="black" fill-opacity="0.38" stroke="black" stroke-width="2" stroke-linejoin="bevel"/>
<path d="M248.5 176L240.5 184L248.5 192V176Z" fill="#D4D4D4"/>
<path d="M32.5 160H12.5V176L20.5 184.5L12.5 192V208H22.5H32.5V160Z" fill="#FF4B3C" stroke="black" stroke-width="2"/>
<path d="M32.5 160H12.5V176L20.5 184.5L12.5 192V208H22.5H32.5V160Z" fill="black" fill-opacity="0.17"/>
<path d="M24.5 168L32.5 160V168H24.5Z" fill="black" fill-opacity="0.38" stroke="black" stroke-width="2" stroke-linejoin="bevel"/>
<path d="M0.5 176L8.5 184L0.5 192V176Z" fill="#D4D4D4"/>
<path d="M224.5 168H24.5V216H224.5V168Z" fill="#FF4B3C" stroke="black" stroke-width="2"/>
<path d="M96.2497 201.452L98.4457 200.696V183.56L96.2497 182.804V181.256H110.506L110.038 187.7H107.878L107.482 183.236L102.37 183.74V191.192L107.446 191.372V193.316L102.37 193.496V200.444L105.97 201.272V203H96.2497V201.452ZM118.717 203.36C117.589 203.36 116.545 203.072 115.585 202.496C114.649 201.92 113.893 201.056 113.317 199.904C112.765 198.752 112.489 197.348 112.489 195.692C112.489 194.516 112.573 193.412 112.741 192.38C112.909 191.348 113.125 190.58 113.389 190.076C113.653 189.716 114.181 189.236 114.973 188.636C115.765 188.012 116.557 187.472 117.349 187.016C118.165 186.56 118.729 186.332 119.041 186.332C120.361 186.332 121.441 186.548 122.281 186.98C123.121 187.412 123.769 188.228 124.225 189.428C124.681 190.604 124.909 192.272 124.909 194.432L116.413 195.152C116.413 196.472 116.581 197.528 116.917 198.32C117.277 199.112 117.697 199.676 118.177 200.012C118.657 200.348 119.113 200.516 119.545 200.516L124.369 200.336V201.956C123.529 202.244 122.461 202.556 121.165 202.892C119.869 203.204 119.053 203.36 118.717 203.36ZM121.057 192.884C121.057 190.052 120.313 188.624 118.825 188.6H118.537C118.153 188.6 117.805 188.66 117.493 188.78C117.205 188.876 116.965 189.404 116.773 190.364C116.581 191.3 116.485 192.344 116.485 193.496L121.057 192.884ZM133.084 203.36C132.028 203.36 131.056 203.072 130.168 202.496C129.304 201.896 128.608 201.008 128.08 199.832C127.576 198.656 127.324 197.216 127.324 195.512C127.324 194.384 127.408 193.34 127.576 192.38C127.744 191.396 127.96 190.628 128.224 190.076C128.632 189.524 129.532 188.78 130.924 187.844C132.34 186.908 133.276 186.44 133.732 186.44C133.996 186.44 134.932 186.56 136.54 186.8C138.148 187.016 139.384 187.196 140.248 187.34V200.696L141.508 201.2V202.748C139.324 203.156 138.112 203.36 137.872 203.36C137.776 203.36 137.536 203.18 137.152 202.82C136.792 202.46 136.612 202.22 136.612 202.1V200.804C134.428 202.508 133.252 203.36 133.084 203.36ZM133.48 200.444C133.72 200.444 134.728 200 136.504 199.112V189.428C135.928 189.212 135.196 189.02 134.308 188.852C133.444 188.66 132.868 188.588 132.58 188.636C132.148 188.732 131.824 189.272 131.608 190.256C131.392 191.24 131.284 192.884 131.284 195.188C131.284 196.34 131.404 197.312 131.644 198.104C131.908 198.896 132.208 199.484 132.544 199.868C132.904 200.252 133.216 200.444 133.48 200.444ZM146.226 203.36C146.106 203.36 145.854 203.18 145.47 202.82C145.11 202.46 144.93 202.22 144.93 202.1V189.032L143.598 188.564V187.052C145.734 186.668 146.922 186.476 147.162 186.476C147.282 186.476 147.546 186.68 147.954 187.088C148.386 187.472 148.602 187.712 148.602 187.808L148.53 189.14C150.282 187.244 151.23 186.296 151.374 186.296C151.806 186.296 152.634 186.488 153.858 186.872C153.93 187.04 153.99 187.244 154.038 187.484C154.086 187.7 154.11 187.904 154.11 188.096C154.11 188.288 153.942 188.708 153.606 189.356C153.294 189.98 153.09 190.316 152.994 190.364C152.058 190.004 151.398 189.824 151.014 189.824C150.846 189.824 150.534 189.932 150.078 190.148C149.622 190.34 149.154 190.58 148.674 190.868V200.48L150.618 201.056V202.712C147.93 203.144 146.466 203.36 146.226 203.36Z" fill="white"/>
</g>
<defs>
<clipPath id="clip0_71_151">
<path d="M0.5 6C0.5 2.6863 3.18629 0 6.5 0H242.5C245.814 0 248.5 2.68629 248.5 6V314C248.5 317.314 245.814 320 242.5 320H6.49999C3.18629 320 0.5 317.314 0.5 314V6Z" fill="white"/>
</clipPath>
</defs>
</svg>
