<svg width="248" height="320" viewBox="0 0 248 320" fill="none" xmlns="http://www.w3.org/2000/svg">
<path d="M0 6C0 2.6863 2.68629 0 6 0H242C245.314 0 248 2.68629 248 6V314C248 317.314 245.314 320 242 320H5.99999C2.68629 320 0 317.314 0 314V6Z" fill="white"/>
<rect x="0.5" y="0.5" width="247" height="319" rx="5.5" fill="white" stroke="#D4D4D4"/>
<path d="M58 114C58 112.687 57.6249 111.386 56.8963 110.173C56.1676 108.96 55.0995 107.858 53.753 106.929C52.4066 106 50.8081 105.264 49.0489 104.761C47.2897 104.259 45.4042 104 43.5 104C41.5958 104 39.7103 104.259 37.9511 104.761C36.1919 105.264 34.5934 106 33.247 106.929C31.9005 107.858 30.8324 108.96 30.1037 110.173C29.3751 111.386 29 112.687 29 114L43.5 114H58Z" fill="#628348"/>
<circle cx="188.5" cy="160.5" r="19.5" stroke="black" stroke-width="2"/>
<circle cx="189" cy="160" r="18" fill="url(#paint0_linear_1045_19684)"/>
<path d="M171.027 67.677C174.341 73.4165 172.324 80.7848 166.522 84.1345C160.72 87.4842 139.851 85.677 139.851 85.677C139.851 85.677 148.72 66.6996 154.522 63.3499C160.324 60.0002 167.714 61.9375 171.027 67.677Z" stroke="black" stroke-width="2"/>
<circle cx="57" cy="153" r="21" fill="#AFC69D"/>
<circle cx="60.5" cy="133.5" r="14.5" fill="#AFC69D"/>
<path d="M54 132C41.8497 132 32 141.85 32 154C32 166.15 41.8497 176 54 176C66.1503 176 76 166.15 76 154C76 148.445 73.9415 143.372 70.5458 139.5" stroke="black" stroke-width="2"/>
<path d="M43.4999 135C45.2866 128.332 48.9997 119 58.4998 119C59.3779 119 60.2115 119.114 60.9998 119.326M60.9998 119.326C68.7404 121.408 72.1212 132.948 70.4995 139L70.4995 141M60.9998 119.326C60.7881 117.679 60.4014 115.666 59.8132 113.5M43.4999 94.0003C52.6433 95.2615 57.6239 105.438 59.8132 113.5M59.8132 113.5L26.9996 113.5C30.1664 110.333 38 104 44 104C50 104 57.0421 110.333 59.8132 113.5Z" stroke="black" stroke-width="2"/>
<rect x="44" y="44" width="160" height="180" fill="url(#paint1_linear_1045_19684)"/>
<path d="M174.5 61.9998C168.5 62.3998 159.333 77.8331 155.5 85.4998C166.69 86.0326 179.615 87.3147 184 79.5C187.692 72.9202 182 61.4998 174.5 61.9998Z" fill="white"/>
<rect x="100" y="144" width="92" height="80" rx="31" fill="#FFE6A7"/>
<path d="M60 85H78.782C79.6887 85 80.3853 84.1969 80.257 83.2993C80.1241 82.3684 80.8759 81.5487 81.8147 81.6008L87.5439 81.9191C88.3608 81.9645 89 82.6402 89 83.4584C89 84.3098 89.6902 85 90.5416 85H188C188 107.361 170.377 125.75 148.036 126.701L145.808 126.795C142.734 126.926 139.844 128.296 137.797 130.592L136.37 132.192C129.974 139.362 118.821 139.551 112.187 132.601L107.768 127.972C104.975 125.045 101.44 122.932 97.5407 121.856L93.6822 120.792C90.5797 119.936 87.6293 118.602 84.9372 116.838L74.9544 110.298C74.6544 110.101 74.396 109.847 74.194 109.551L68.177 100.726C67.5657 99.8298 66.2899 99.7101 65.5226 100.477C65.2849 100.715 64.8798 100.615 64.7795 100.295L60 85Z" fill="#F3BE6F"/>
<path d="M157.5 120L160.5 128.5C162.667 127.833 167.3 126.4 168.5 126C170 125.5 185.5 116 185.5 114.5V101L182.5 97.5L176.5 106L168.5 114.5L157.5 120Z" fill="white"/>
<rect x="140" y="160" width="55" height="64" rx="27.5" fill="#FFD569"/>
<circle cx="65" cy="79" r="7" fill="#B177BA"/>
<circle cx="70" cy="84" r="7" fill="#B177BA"/>
<circle cx="77" cy="73" r="7" fill="#B177BA"/>
<circle cx="95" cy="81" r="7" fill="#B177BA"/>
<circle cx="107" cy="74" r="7" fill="#B177BA"/>
<circle cx="117" cy="81" r="7" fill="#B177BA"/>
<circle cx="121" cy="68" r="7" fill="#B177BA"/>
<circle cx="130" cy="80" r="7" fill="#B177BA"/>
<circle cx="118" cy="92" r="7" fill="#B177BA"/>
<circle cx="105" cy="87" r="7" fill="#B177BA"/>
<circle cx="147" cy="58" r="18" fill="url(#paint2_linear_1045_19684)"/>
<path d="M205.306 117.755C206.134 118.233 207.141 118.382 208.271 118.193C209.4 118.003 210.629 117.48 211.888 116.652C213.147 115.824 214.41 114.708 215.607 113.367C216.803 112.026 217.909 110.488 218.861 108.839C219.813 107.19 220.593 105.462 221.156 103.756C221.719 102.05 222.053 100.397 222.141 98.8929C222.229 97.3888 222.068 96.0625 221.667 94.9897C221.266 93.917 220.634 93.1188 219.806 92.6407L212.556 105.198L205.306 117.755Z" fill="#628348"/>
<path d="M186.729 125.307C185.976 125.742 185.334 126.35 184.839 127.097C184.344 127.845 184.006 128.717 183.843 129.664C183.681 130.611 183.697 131.614 183.892 132.617C184.087 133.619 184.456 134.6 184.979 135.505C185.501 136.41 186.167 137.221 186.937 137.89C187.708 138.56 188.568 139.076 189.47 139.409C190.371 139.742 191.295 139.885 192.19 139.83C193.085 139.775 193.933 139.523 194.685 139.089L190.707 132.198L186.729 125.307Z" fill="#628348"/>
<path d="M110.257 60.9595C110.621 61.6041 111.16 62.1413 111.844 62.5405C112.529 62.9396 113.344 63.1928 114.245 63.2856C115.146 63.3784 116.114 63.3091 117.094 63.0815C118.073 62.854 119.046 62.4726 119.956 61.9593C120.867 61.4459 121.696 60.8107 122.398 60.0897C123.099 59.3688 123.659 58.5763 124.046 57.7575C124.432 56.9387 124.638 56.1096 124.65 55.3176C124.662 54.5256 124.482 53.7862 124.118 53.1415L117.188 57.0505L110.257 60.9595Z" fill="#628348"/>
<path d="M96.5767 69.0323C97.1906 69.1481 97.8366 69.0604 98.4779 68.7744C99.1192 68.4885 99.7432 68.0097 100.314 67.3655C100.885 66.7213 101.392 65.9243 101.806 65.0199C102.22 64.1156 102.532 63.1216 102.726 62.0948C102.92 61.068 102.99 60.0285 102.934 59.0355C102.878 58.0426 102.696 57.1157 102.399 56.3078C102.102 55.4999 101.695 54.8268 101.202 54.3269C100.709 53.827 100.139 53.5102 99.5252 53.3944L98.0509 61.2134L96.5767 69.0323Z" fill="#628348"/>
<rect x="64" y="124" width="40" height="71" fill="#AA8F9C"/>
<path d="M40.5 196H206.5" stroke="black" stroke-width="2"/>
<path d="M64.0003 195.5C64.0003 195.5 63.9996 145 64.0003 116.5C64.0005 107.524 80.0003 100 80.0003 100V52H78.0003V44H92.0003V52H90.0003V100C90.0003 100 104 108.049 104 116.5C104 147 104 195.5 104 195.5" stroke="black" stroke-width="2"/>
<path d="M183 100.725C185.077 95.3215 186.165 90.0693 188 86H89.5M157 124.023C149.016 126.501 138.595 128 124.861 128C116.86 128 109.963 127.491 104 126.577M181.5 96.7251C178.084 105.611 171.993 114.905 155.5 120.024M66.1644 102C63.5052 96.1534 62.1593 90.3888 60 86H79.5M104 122.577C79.5918 118.833 70.8441 108.29 66.1641 98M79.4997 82H89.4997" stroke="black" stroke-width="2"/>
<path d="M124 125V131.5M124 168V131.5M124 131.5H120.5" stroke="black" stroke-width="2"/>
<path d="M136 132L128 140V168M136 132L148 125M136 132H130M136 132H140" stroke="black" stroke-width="2"/>
<path d="M112 132L120 140V168M112 132L100 125M112 132H116.5M112 132H108" stroke="black" stroke-width="2"/>
<path d="M124 44V52M124 44H108M124 44H140" stroke="black" stroke-width="2"/>
<path d="M44 52V44H60" stroke="black" stroke-width="2"/>
<path d="M204 52V44H188" stroke="black" stroke-width="2"/>
<path d="M44 216V224H60" stroke="black" stroke-width="2"/>
<path d="M204 216V224H188" stroke="black" stroke-width="2"/>
<path d="M184 92H152C153.722 109.333 159.376 144 168.215 144C177.055 144 182.422 109.333 184 92Z" stroke="black" stroke-width="2"/>
<path d="M170 143V156L174 160H170V164.5H174L170 168.5V184L185.5 188" stroke="black" stroke-width="2"/>
<path d="M166.5 143V156L162.5 160H166.5V164.5H162.5L166.5 168.5V184L151 188" stroke="black" stroke-width="2"/>
<path d="M144.431 144.091C101.43 146.108 95.924 176.871 98.546 192L191.627 190.487C193.812 174.181 187.432 142.074 144.431 144.091Z" stroke="black" stroke-width="2"/>
<path d="M154.552 150.079C120.7 151.844 116.366 178.762 118.43 192L191.706 190.676C193.427 176.408 188.404 148.314 154.552 150.079Z" stroke="black" stroke-width="2"/>
<path d="M163.661 156.068C138.044 157.581 134.763 180.653 136.325 192L191.778 190.865C193.08 178.636 189.279 154.555 163.661 156.068Z" stroke="black" stroke-width="2"/>
<path d="M140.431 231.909C97.4302 229.892 91.924 199.129 94.546 184L187.627 185.513C189.812 201.819 183.432 233.926 140.431 231.909Z" stroke="black" stroke-width="2"/>
<path d="M150.552 225.921C116.7 224.156 112.366 197.238 114.43 184L187.706 185.324C189.427 199.592 184.404 227.686 150.552 225.921Z" stroke="black" stroke-width="2"/>
<path d="M159.661 219.932C134.044 218.419 130.763 195.347 132.325 184L187.778 185.135C189.08 197.364 185.279 221.445 159.661 219.932Z" stroke="black" stroke-width="2"/>
<rect x="68" y="134" width="28" height="38" fill="#FEFEFE" stroke="black" stroke-width="2"/>
<path d="M80 41V32H90V39" stroke="black" stroke-width="2"/>
<circle cx="146.5" cy="58.5" r="19.5" stroke="black" stroke-width="2"/>
<path d="M131.5 45.5L128 36" stroke="black" stroke-width="2"/>
<path d="M187.027 67.677C190.341 73.4165 188.324 80.7848 182.522 84.1345C176.72 87.4842 155.851 85.677 155.851 85.677C155.851 85.677 164.72 66.6996 170.522 63.3499C176.324 60.0002 183.714 61.9375 187.027 67.677Z" stroke="black" stroke-width="2"/>
<circle cx="70" cy="85" r="6" stroke="black" stroke-width="2"/>
<path d="M71 79C71 77.8133 70.6481 76.6533 69.9888 75.6666C69.3295 74.6799 68.3925 73.9108 67.2961 73.4567C66.1997 73.0026 64.9933 72.8838 63.8295 73.1153C62.6656 73.3468 61.5965 73.9182 60.7574 74.7574C59.9182 75.5965 59.3468 76.6656 59.1153 77.8295C58.8838 78.9933 59.0026 80.1997 59.4567 81.2961C59.9108 82.3925 60.6799 83.3295 61.6666 83.9888C62.6533 84.6481 63.8133 85 65 85" stroke="black" stroke-width="2"/>
<path d="M76 79C77.1867 79 78.3467 78.6481 79.3334 77.9888C80.3201 77.3295 81.0892 76.3925 81.5433 75.2961C81.9974 74.1997 82.1162 72.9933 81.8847 71.8295C81.6532 70.6656 81.0818 69.5965 80.2426 68.7574C79.4035 67.9182 78.3344 67.3468 77.1705 67.1153C76.0067 66.8838 74.8003 67.0026 73.7039 67.4567C72.6075 67.9108 71.6705 68.6799 71.0112 69.6666C70.3519 70.6533 70 71.8133 70 73" stroke="black" stroke-width="2"/>
<path d="M96 86C97.1867 86 98.3467 85.6481 99.3334 84.9888C100.32 84.3295 101.089 83.3925 101.543 82.2961C101.997 81.1997 102.116 79.9933 101.885 78.8295C101.653 77.6656 101.082 76.5965 100.243 75.7574C99.4035 74.9182 98.3344 74.3468 97.1705 74.1153C96.0067 73.8838 94.8003 74.0026 93.7039 74.4567C92.6075 74.9108 91.6705 75.6799 91.0112 76.6666C90.3519 77.6533 90 78.8133 90 80" stroke="black" stroke-width="2"/>
<path d="M106 93C107.187 93 108.347 92.6481 109.333 91.9888C110.32 91.3295 111.089 90.3925 111.543 89.2961C111.997 88.1997 112.116 86.9933 111.885 85.8295C111.653 84.6656 111.082 83.5965 110.243 82.7574C109.404 81.9182 108.334 81.3468 107.171 81.1153C106.007 80.8838 104.8 81.0026 103.704 81.4567C102.608 81.9108 101.67 82.6799 101.011 83.6666C100.352 84.6533 100 85.8133 100 87" stroke="black" stroke-width="2"/>
<path d="M107 80C108.187 80 109.347 79.6481 110.333 78.9888C111.32 78.3295 112.089 77.3925 112.543 76.2961C112.997 75.1997 113.116 73.9933 112.885 72.8295C112.653 71.6656 112.082 70.5965 111.243 69.7574C110.404 68.9182 109.334 68.3468 108.171 68.1153C107.007 67.8838 105.8 68.0026 104.704 68.4567C103.608 68.9108 102.67 69.6799 102.011 70.6666C101.352 71.6533 101 72.8133 101 74" stroke="black" stroke-width="2"/>
<path d="M118 86C119.187 86 120.347 85.6481 121.333 84.9888C122.32 84.3295 123.089 83.3925 123.543 82.2961C123.997 81.1997 124.116 79.9933 123.885 78.8295C123.653 77.6656 123.082 76.5965 122.243 75.7574C121.404 74.9182 120.334 74.3468 119.171 74.1153C118.007 73.8838 116.8 74.0026 115.704 74.4567C114.608 74.9108 113.67 75.6799 113.011 76.6666C112.352 77.6533 112 78.8133 112 80" stroke="black" stroke-width="2"/>
<path d="M113 92C113 93.1867 113.352 94.3467 114.011 95.3334C114.67 96.3201 115.608 97.0892 116.704 97.5433C117.8 97.9974 119.007 98.1162 120.171 97.8847C121.334 97.6532 122.404 97.0818 123.243 96.2426C124.082 95.4035 124.653 94.3344 124.885 93.1705C125.116 92.0067 124.997 90.8003 124.543 89.7039C124.089 88.6075 123.32 87.6705 122.333 87.0112C121.347 86.3519 120.187 86 119 86" stroke="black" stroke-width="2"/>
<path d="M124 80C124 81.1867 124.352 82.3467 125.011 83.3334C125.67 84.3201 126.608 85.0892 127.704 85.5433C128.8 85.9974 130.007 86.1162 131.171 85.8847C132.334 85.6532 133.404 85.0818 134.243 84.2426C135.082 83.4035 135.653 82.3344 135.885 81.1705C136.116 80.0067 135.997 78.8003 135.543 77.7039C135.089 76.6075 134.32 75.6705 133.333 75.0112C132.347 74.3519 131.187 74 130 74" stroke="black" stroke-width="2"/>
<path d="M115 68C115 69.1867 115.352 70.3467 116.011 71.3334C116.67 72.3201 117.608 73.0892 118.704 73.5433C119.8 73.9974 121.007 74.1162 122.171 73.8847C123.334 73.6532 124.404 73.0818 125.243 72.2426C126.082 71.4035 126.653 70.3344 126.885 69.1705C127.116 68.0067 126.997 66.8003 126.543 65.7039C126.089 64.6075 125.32 63.6705 124.333 63.0112C123.347 62.3519 122.187 62 121 62" stroke="black" stroke-width="2"/>
<path d="M90.4999 73C92.2749 72.5904 95.0839 71.3785 98 69.4911M64.9997 63.0001C53.833 68.8334 32.2004 84.3001 59.0004 57.5001C92.5004 24.0001 114.927 39.8252 108.5 57.5C107.775 59.4944 106.666 61.3351 105.336 63.0001M105.336 63.0001L108.5 61.5965M105.336 63.0001C103.232 65.632 100.574 67.8248 98 69.4911M108.5 61.5965L124.5 54.5C123.833 57.1667 121.4 62.9 117 64.5C112.6 66.1 109.5 63.231 108.5 61.5965ZM98 69.4911C98 67.8982 99.3333 57.5 100 52.5C100.333 53.5 104 56.4036 103 63.0001" stroke="black" stroke-width="2"/>
<path d="M194.5 141.5C198.5 142 206.3 140 205.5 128C205.276 124.64 204.776 121.481 204.219 118.5M194.5 141.5L188 123.5C186.666 125.833 184.4 131.2 186 134C187.6 136.8 192.333 140.167 194.5 141.5ZM205.5 93C199.679 99.9841 202.29 108.173 204.219 118.5M204.219 118.5L216.5 93C217.666 97.3333 219.3 107.1 216.5 111.5C213.7 115.9 207.146 118 204.219 118.5Z" stroke="black" stroke-width="2"/>
<path d="M78.1954 255L79.5122 251.293H84.8048L86.1215 255H87.7835L82.9767 241.909H81.3403L76.5335 255H78.1954ZM80.0107 249.886L82.1073 243.98H82.2096L84.3062 249.886H80.0107ZM93.3254 255.205C95.2174 255.205 95.8566 254.028 96.189 253.491H96.368V255H97.8254V241.909H96.3169V246.741H96.189C95.8566 246.23 95.2686 245.054 93.3509 245.054C90.8708 245.054 89.1578 247.023 89.1578 250.116C89.1578 253.236 90.8708 255.205 93.3254 255.205ZM93.5299 253.849C91.6379 253.849 90.6663 252.188 90.6663 250.091C90.6663 248.02 91.6123 246.409 93.5299 246.409C95.3708 246.409 96.3424 247.892 96.3424 250.091C96.3424 252.315 95.3453 253.849 93.5299 253.849ZM104.505 255.205C106.397 255.205 107.036 254.028 107.369 253.491H107.548V255H109.005V241.909H107.497V246.741H107.369C107.036 246.23 106.448 245.054 104.531 245.054C102.051 245.054 100.337 247.023 100.337 250.116C100.337 253.236 102.051 255.205 104.505 255.205ZM104.71 253.849C102.818 253.849 101.846 252.188 101.846 250.091C101.846 248.02 102.792 246.409 104.71 246.409C106.551 246.409 107.522 247.892 107.522 250.091C107.522 252.315 106.525 253.849 104.71 253.849ZM121.617 241.909H120.031L116.759 244.082V245.693L119.955 243.571H120.031V255H121.617V241.909ZM134.458 255.205C136.631 255.205 138.063 253.875 138.319 252.136H136.81C136.529 253.21 135.634 253.849 134.458 253.849C132.668 253.849 131.518 252.366 131.518 250.091C131.518 247.866 132.694 246.409 134.458 246.409C135.788 246.409 136.58 247.227 136.81 248.122H138.319C138.063 246.281 136.504 245.054 134.433 245.054C131.774 245.054 130.009 247.151 130.009 250.142C130.009 253.082 131.697 255.205 134.458 255.205ZM143.413 255.23C145.127 255.23 146.021 254.31 146.328 253.67H146.405V255H147.913V248.531C147.913 245.412 145.536 245.054 144.283 245.054C142.8 245.054 141.112 245.565 140.345 247.355L141.777 247.866C142.109 247.151 142.896 246.384 144.334 246.384C145.721 246.384 146.405 247.119 146.405 248.378V248.429C146.405 249.158 145.663 249.094 143.874 249.324C142.052 249.56 140.064 249.963 140.064 252.213C140.064 254.131 141.547 255.23 143.413 255.23ZM143.644 253.875C142.442 253.875 141.573 253.338 141.573 252.29C141.573 251.139 142.621 250.781 143.797 250.628C144.436 250.551 146.149 250.372 146.405 250.065V251.446C146.405 252.673 145.433 253.875 143.644 253.875ZM150.667 255H152.175V248.787C152.175 247.457 153.224 246.486 154.655 246.486C155.058 246.486 155.474 246.562 155.576 246.588V245.054C155.403 245.041 155.007 245.028 154.783 245.028C153.607 245.028 152.584 245.693 152.226 246.665H152.124V245.182H150.667V255ZM160.773 255.205C162.665 255.205 163.304 254.028 163.636 253.491H163.815V255H165.273V241.909H163.764V246.741H163.636C163.304 246.23 162.716 245.054 160.798 245.054C158.318 245.054 156.605 247.023 156.605 250.116C156.605 253.236 158.318 255.205 160.773 255.205ZM160.977 253.849C159.085 253.849 158.114 252.188 158.114 250.091C158.114 248.02 159.06 246.409 160.977 246.409C162.818 246.409 163.79 247.892 163.79 250.091C163.79 252.315 162.793 253.849 160.977 253.849ZM49.3241 267.182H47.1253V266.185C47.1253 265.213 47.5344 264.702 48.5315 264.702C48.9662 264.702 49.2219 264.804 49.3753 264.855L49.8099 263.551C49.5798 263.449 49.1196 263.295 48.3781 263.295C46.9719 263.295 45.6167 264.139 45.6167 265.827V267.182H44.0315V268.46H45.6167V277H47.1253V268.46H49.3241V267.182ZM51.4383 277H52.9468V270.787C52.9468 269.457 53.9951 268.486 55.4269 268.486C55.8296 268.486 56.2451 268.562 56.3474 268.588V267.054C56.1748 267.041 55.7785 267.028 55.5548 267.028C54.3786 267.028 53.3559 267.693 52.998 268.665H52.8957V267.182H51.4383V277ZM61.8254 277.205C64.4845 277.205 66.2742 275.185 66.2742 272.142C66.2742 269.074 64.4845 267.054 61.8254 267.054C59.1663 267.054 57.3765 269.074 57.3765 272.142C57.3765 275.185 59.1663 277.205 61.8254 277.205ZM61.8254 275.849C59.8055 275.849 58.885 274.111 58.885 272.142C58.885 270.173 59.8055 268.409 61.8254 268.409C63.8453 268.409 64.7657 270.173 64.7657 272.142C64.7657 274.111 63.8453 275.849 61.8254 275.849ZM68.577 277H70.0855V270.864C70.0855 269.425 71.1338 268.409 72.3099 268.409C73.4541 268.409 74.2531 269.157 74.2531 270.276V277H75.7872V270.608C75.7872 269.342 76.5798 268.409 77.9605 268.409C79.0344 268.409 79.9548 268.978 79.9548 270.429V277H81.4633V270.429C81.4633 268.121 80.2233 267.054 78.4719 267.054C77.0656 267.054 76.0365 267.7 75.5315 268.716H75.4292C74.9434 267.668 74.0869 267.054 72.7957 267.054C71.5173 267.054 70.5713 267.668 70.1622 268.716H70.0344V267.182H68.577V277ZM89.284 280.682H90.7925V275.491H90.9204C91.2528 276.028 91.892 277.205 93.784 277.205C96.2385 277.205 97.9516 275.236 97.9516 272.116C97.9516 269.023 96.2385 267.054 93.7584 267.054C91.8408 267.054 91.2528 268.23 90.9204 268.741H90.7414V267.182H89.284V280.682ZM90.767 272.091C90.767 269.892 91.7385 268.409 93.5795 268.409C95.4971 268.409 96.4431 270.02 96.4431 272.091C96.4431 274.188 95.4715 275.849 93.5795 275.849C91.7641 275.849 90.767 274.315 90.767 272.091ZM104.241 277.205C106.9 277.205 108.69 275.185 108.69 272.142C108.69 269.074 106.9 267.054 104.241 267.054C101.582 267.054 99.7925 269.074 99.7925 272.142C99.7925 275.185 101.582 277.205 104.241 277.205ZM104.241 275.849C102.222 275.849 101.301 274.111 101.301 272.142C101.301 270.173 102.222 268.409 104.241 268.409C106.261 268.409 107.182 270.173 107.182 272.142C107.182 274.111 106.261 275.849 104.241 275.849ZM114.982 277.205C117.641 277.205 119.43 275.185 119.43 272.142C119.43 269.074 117.641 267.054 114.982 267.054C112.323 267.054 110.533 269.074 110.533 272.142C110.533 275.185 112.323 277.205 114.982 277.205ZM114.982 275.849C112.962 275.849 112.041 274.111 112.041 272.142C112.041 270.173 112.962 268.409 114.982 268.409C117.002 268.409 117.922 270.173 117.922 272.142C117.922 274.111 117.002 275.849 114.982 275.849ZM123.242 263.909H121.733V277H123.242V263.909ZM135.337 267.182H133.241V264.83H131.732V267.182H130.249V268.46H131.732V274.597C131.732 276.31 133.113 277.128 134.391 277.128C134.954 277.128 135.312 277.026 135.516 276.949L135.209 275.594C135.081 275.619 134.877 275.67 134.544 275.67C133.88 275.67 133.241 275.466 133.241 274.188V268.46H135.337V267.182ZM141.489 277.205C144.149 277.205 145.938 275.185 145.938 272.142C145.938 269.074 144.149 267.054 141.489 267.054C138.83 267.054 137.041 269.074 137.041 272.142C137.041 275.185 138.83 277.205 141.489 277.205ZM141.489 275.849C139.47 275.849 138.549 274.111 138.549 272.142C138.549 270.173 139.47 268.409 141.489 268.409C143.509 268.409 144.43 270.173 144.43 272.142C144.43 274.111 143.509 275.849 141.489 275.849ZM154.812 271.094C154.812 269.381 155.905 268.409 157.394 268.409C158.813 268.409 159.67 269.304 159.67 270.864V277H161.179V270.761C161.179 268.237 159.836 267.054 157.829 267.054C156.282 267.054 155.4 267.7 154.94 268.716H154.812V263.909H153.304V277H154.812V271.094ZM166.828 277.23C168.541 277.23 169.435 276.31 169.742 275.67H169.819V277H171.328V270.531C171.328 267.412 168.95 267.054 167.697 267.054C166.214 267.054 164.526 267.565 163.759 269.355L165.191 269.866C165.524 269.151 166.31 268.384 167.748 268.384C169.135 268.384 169.819 269.119 169.819 270.378V270.429C169.819 271.158 169.078 271.094 167.288 271.324C165.466 271.56 163.478 271.963 163.478 274.213C163.478 276.131 164.961 277.23 166.828 277.23ZM167.058 275.875C165.856 275.875 164.987 275.338 164.987 274.29C164.987 273.139 166.035 272.781 167.211 272.628C167.85 272.551 169.563 272.372 169.819 272.065V273.446C169.819 274.673 168.847 275.875 167.058 275.875ZM175.589 271.094C175.589 269.381 176.65 268.409 178.095 268.409C179.495 268.409 180.345 269.323 180.345 270.864V277H181.854V270.761C181.854 268.256 180.518 267.054 178.53 267.054C177.047 267.054 176.126 267.719 175.666 268.716H175.538V267.182H174.081V277H175.589V271.094ZM188.318 277.205C190.21 277.205 190.849 276.028 191.181 275.491H191.36V277H192.818V263.909H191.309V268.741H191.181C190.849 268.23 190.261 267.054 188.343 267.054C185.863 267.054 184.15 269.023 184.15 272.116C184.15 275.236 185.863 277.205 188.318 277.205ZM188.522 275.849C186.63 275.849 185.658 274.188 185.658 272.091C185.658 270.02 186.604 268.409 188.522 268.409C190.363 268.409 191.335 269.892 191.335 272.091C191.335 274.315 190.337 275.849 188.522 275.849ZM196.889 277.102C197.522 277.102 198.04 276.585 198.04 275.952C198.04 275.319 197.522 274.801 196.889 274.801C196.256 274.801 195.739 275.319 195.739 275.952C195.739 276.585 196.256 277.102 196.889 277.102ZM31.8938 299H33.479V294.219H36.3427C39.3917 294.219 40.766 292.365 40.766 290.051C40.766 287.737 39.3917 285.909 36.3171 285.909H31.8938V299ZM33.479 292.812V287.315H36.266C38.3945 287.315 39.2063 288.479 39.2063 290.051C39.2063 291.624 38.3945 292.812 36.2915 292.812H33.479ZM44.6236 285.909H43.1151V299H44.6236V285.909ZM50.2757 299.23C51.9888 299.23 52.8837 298.31 53.1905 297.67H53.2672V299H54.7757V292.531C54.7757 289.412 52.3979 289.054 51.1451 289.054C49.6621 289.054 47.9746 289.565 47.2076 291.355L48.6394 291.866C48.9718 291.151 49.758 290.384 51.1962 290.384C52.5833 290.384 53.2672 291.119 53.2672 292.378V292.429C53.2672 293.158 52.5257 293.094 50.736 293.324C48.9142 293.56 46.9263 293.963 46.9263 296.213C46.9263 298.131 48.4093 299.23 50.2757 299.23ZM50.5059 297.875C49.3042 297.875 48.4348 297.338 48.4348 296.29C48.4348 295.139 49.4831 294.781 50.6593 294.628C51.2985 294.551 53.0115 294.372 53.2672 294.065V295.446C53.2672 296.673 52.2956 297.875 50.5059 297.875ZM58.1491 302.682C59.5107 302.682 60.4695 301.96 61.0384 300.432L65.2188 289.207L63.5696 289.182L60.8594 297.006H60.7571L58.0469 289.182H56.4105L60.0412 299.051L59.7599 299.818C59.2102 301.314 58.5327 301.455 57.4332 301.173L57.0497 302.503C57.2031 302.58 57.6378 302.682 58.1491 302.682ZM70.9796 299.205C72.9739 299.205 74.4313 298.207 74.8915 296.724L73.4341 296.315C73.0506 297.338 72.1621 297.849 70.9796 297.849C69.209 297.849 67.9881 296.705 67.9178 294.602H75.0449V293.963C75.0449 290.307 72.8716 289.054 70.8262 289.054C68.1671 289.054 66.4029 291.151 66.4029 294.168C66.4029 297.185 68.1415 299.205 70.9796 299.205ZM67.9178 293.298C68.0201 291.771 69.1003 290.409 70.8262 290.409C72.4625 290.409 73.5108 291.636 73.5108 293.298H67.9178ZM77.3397 299H78.8482V292.787C78.8482 291.457 79.8965 290.486 81.3283 290.486C81.731 290.486 82.1465 290.562 82.2488 290.588V289.054C82.0762 289.041 81.6799 289.028 81.4561 289.028C80.28 289.028 79.2573 289.693 78.8993 290.665H78.7971V289.182H77.3397V299ZM90.9915 291.381C90.5185 289.987 89.4574 289.054 87.5142 289.054C85.4432 289.054 83.9091 290.23 83.9091 291.892C83.9091 293.247 84.7145 294.155 86.517 294.577L88.1534 294.96C89.1442 295.19 89.6108 295.663 89.6108 296.341C89.6108 297.185 88.7159 297.875 87.3097 297.875C86.076 297.875 85.3026 297.344 85.0341 296.29L83.6023 296.648C83.9538 298.316 85.3281 299.205 87.3352 299.205C89.6172 299.205 91.1705 297.958 91.1705 296.264C91.1705 294.896 90.3139 294.033 88.5625 293.605L87.1051 293.247C85.9418 292.96 85.4176 292.57 85.4176 291.815C85.4176 290.972 86.3125 290.358 87.5142 290.358C88.831 290.358 89.3743 291.087 89.6364 291.764L90.9915 291.381ZM102.492 299.205C104.666 299.205 106.097 297.875 106.353 296.136H104.845C104.563 297.21 103.669 297.849 102.492 297.849C100.703 297.849 99.552 296.366 99.552 294.091C99.552 291.866 100.728 290.409 102.492 290.409C103.822 290.409 104.615 291.227 104.845 292.122H106.353C106.097 290.281 104.538 289.054 102.467 289.054C99.8077 289.054 98.0435 291.151 98.0435 294.142C98.0435 297.082 99.731 299.205 102.492 299.205ZM111.448 299.23C113.161 299.23 114.056 298.31 114.362 297.67H114.439V299H115.948V292.531C115.948 289.412 113.57 289.054 112.317 289.054C110.834 289.054 109.146 289.565 108.379 291.355L109.811 291.866C110.144 291.151 110.93 290.384 112.368 290.384C113.755 290.384 114.439 291.119 114.439 292.378V292.429C114.439 293.158 113.698 293.094 111.908 293.324C110.086 293.56 108.098 293.963 108.098 296.213C108.098 298.131 109.581 299.23 111.448 299.23ZM111.678 297.875C110.476 297.875 109.607 297.338 109.607 296.29C109.607 295.139 110.655 294.781 111.831 294.628C112.47 294.551 114.183 294.372 114.439 294.065V295.446C114.439 296.673 113.468 297.875 111.678 297.875ZM120.21 293.094C120.21 291.381 121.271 290.409 122.715 290.409C124.115 290.409 124.965 291.323 124.965 292.864V299H126.474V292.761C126.474 290.256 125.138 289.054 123.15 289.054C121.667 289.054 120.746 289.719 120.286 290.716H120.158V289.182H118.701V299H120.21V293.094ZM130.56 285.909H129.128V287.085C129.128 288.031 128.668 288.849 128.131 289.616L128.949 290.281C129.972 289.463 130.56 288.108 130.56 287.06V285.909ZM137.086 289.182H134.99V286.83H133.481V289.182H131.998V290.46H133.481V296.597C133.481 298.31 134.862 299.128 136.14 299.128C136.703 299.128 137.061 299.026 137.265 298.949L136.958 297.594C136.83 297.619 136.626 297.67 136.294 297.67C135.629 297.67 134.99 297.466 134.99 296.188V290.46H137.086V289.182ZM144.418 299H145.926V292.787C145.926 291.457 146.975 290.486 148.406 290.486C148.809 290.486 149.225 290.562 149.327 290.588V289.054C149.154 289.041 148.758 289.028 148.534 289.028C147.358 289.028 146.335 289.693 145.977 290.665H145.875V289.182H144.418V299ZM154.933 299.205C156.927 299.205 158.384 298.207 158.845 296.724L157.387 296.315C157.004 297.338 156.115 297.849 154.933 297.849C153.162 297.849 151.941 296.705 151.871 294.602H158.998V293.963C158.998 290.307 156.825 289.054 154.779 289.054C152.12 289.054 150.356 291.151 150.356 294.168C150.356 297.185 152.095 299.205 154.933 299.205ZM151.871 293.298C151.973 291.771 153.053 290.409 154.779 290.409C156.416 290.409 157.464 291.636 157.464 293.298H151.871ZM168.247 291.381C167.774 289.987 166.713 289.054 164.77 289.054C162.699 289.054 161.165 290.23 161.165 291.892C161.165 293.247 161.97 294.155 163.773 294.577L165.409 294.96C166.4 295.19 166.867 295.663 166.867 296.341C166.867 297.185 165.972 297.875 164.566 297.875C163.332 297.875 162.558 297.344 162.29 296.29L160.858 296.648C161.21 298.316 162.584 299.205 164.591 299.205C166.873 299.205 168.426 297.958 168.426 296.264C168.426 294.896 167.57 294.033 165.818 293.605L164.361 293.247C163.198 292.96 162.673 292.57 162.673 291.815C162.673 290.972 163.568 290.358 164.77 290.358C166.087 290.358 166.63 291.087 166.892 291.764L168.247 291.381ZM170.697 302.682H172.206V297.491H172.333C172.666 298.028 173.305 299.205 175.197 299.205C177.652 299.205 179.365 297.236 179.365 294.116C179.365 291.023 177.652 289.054 175.172 289.054C173.254 289.054 172.666 290.23 172.333 290.741H172.154V289.182H170.697V302.682ZM172.18 294.091C172.18 291.892 173.152 290.409 174.993 290.409C176.91 290.409 177.856 292.02 177.856 294.091C177.856 296.188 176.885 297.849 174.993 297.849C173.177 297.849 172.18 296.315 172.18 294.091ZM185.654 299.205C188.314 299.205 190.103 297.185 190.103 294.142C190.103 291.074 188.314 289.054 185.654 289.054C182.995 289.054 181.206 291.074 181.206 294.142C181.206 297.185 182.995 299.205 185.654 299.205ZM185.654 297.849C183.635 297.849 182.714 296.111 182.714 294.142C182.714 292.173 183.635 290.409 185.654 290.409C187.674 290.409 188.595 292.173 188.595 294.142C188.595 296.111 187.674 297.849 185.654 297.849ZM193.915 293.094C193.915 291.381 194.976 290.409 196.42 290.409C197.82 290.409 198.67 291.323 198.67 292.864V299H200.179V292.761C200.179 290.256 198.843 289.054 196.855 289.054C195.372 289.054 194.452 289.719 193.991 290.716H193.863V289.182H192.406V299H193.915V293.094ZM206.643 299.205C208.535 299.205 209.174 298.028 209.506 297.491H209.685V299H211.143V285.909H209.634V290.741H209.506C209.174 290.23 208.586 289.054 206.668 289.054C204.188 289.054 202.475 291.023 202.475 294.116C202.475 297.236 204.188 299.205 206.643 299.205ZM206.847 297.849C204.955 297.849 203.984 296.188 203.984 294.091C203.984 292.02 204.93 290.409 206.847 290.409C208.688 290.409 209.66 291.892 209.66 294.091C209.66 296.315 208.663 297.849 206.847 297.849ZM215.214 299.102C215.847 299.102 216.365 298.585 216.365 297.952C216.365 297.319 215.847 296.801 215.214 296.801C214.582 296.801 214.064 297.319 214.064 297.952C214.064 298.585 214.582 299.102 215.214 299.102Z" fill="black" fill-opacity="0.87"/>
<path d="M216 160H236V176L228 184.5L236 192V208H226H216V160Z" fill="#FF4B3C" stroke="black" stroke-width="2"/>
<path d="M216 160H236V176L228 184.5L236 192V208H226H216V160Z" fill="black" fill-opacity="0.17"/>
<path d="M224 168L216 160V168H224Z" fill="black" fill-opacity="0.38" stroke="black" stroke-width="2" stroke-linejoin="bevel"/>
<path d="M248 176L240 184L248 192V176Z" fill="#D4D4D4"/>
<path d="M32 160H12V176L20 184.5L12 192V208H22H32V160Z" fill="#FF4B3C" stroke="black" stroke-width="2"/>
<path d="M32 160H12V176L20 184.5L12 192V208H22H32V160Z" fill="black" fill-opacity="0.17"/>
<path d="M24 168L32 160V168H24Z" fill="black" fill-opacity="0.38" stroke="black" stroke-width="2" stroke-linejoin="bevel"/>
<path d="M0 176L8 184L0 192V176Z" fill="#D4D4D4"/>
<path d="M224 168H24V216H224V168Z" fill="#FF4B3C" stroke="black" stroke-width="2"/>
<path d="M89.6501 201.452L91.8461 200.696V183.56L89.6501 182.804V181.256H103.906L103.438 187.7H101.278L100.882 183.236L95.7701 183.74V191.192L100.846 191.372V193.316L95.7701 193.496V200.444L99.3701 201.272V203H89.6501V201.452ZM112.117 203.36C110.989 203.36 109.945 203.072 108.985 202.496C108.049 201.92 107.293 201.056 106.717 199.904C106.165 198.752 105.889 197.348 105.889 195.692C105.889 194.516 105.973 193.412 106.141 192.38C106.309 191.348 106.525 190.58 106.789 190.076C107.053 189.716 107.581 189.236 108.373 188.636C109.165 188.012 109.957 187.472 110.749 187.016C111.565 186.56 112.129 186.332 112.441 186.332C113.761 186.332 114.841 186.548 115.681 186.98C116.521 187.412 117.169 188.228 117.625 189.428C118.081 190.604 118.309 192.272 118.309 194.432L109.813 195.152C109.813 196.472 109.981 197.528 110.317 198.32C110.677 199.112 111.097 199.676 111.577 200.012C112.057 200.348 112.513 200.516 112.945 200.516L117.769 200.336V201.956C116.929 202.244 115.861 202.556 114.565 202.892C113.269 203.204 112.453 203.36 112.117 203.36ZM114.457 192.884C114.457 190.052 113.713 188.624 112.225 188.6H111.937C111.553 188.6 111.205 188.66 110.893 188.78C110.605 188.876 110.365 189.404 110.173 190.364C109.981 191.3 109.885 192.344 109.885 193.496L114.457 192.884ZM126.485 203.36C125.429 203.36 124.457 203.072 123.569 202.496C122.705 201.896 122.009 201.008 121.481 199.832C120.977 198.656 120.725 197.216 120.725 195.512C120.725 194.384 120.809 193.34 120.977 192.38C121.145 191.396 121.361 190.628 121.625 190.076C122.033 189.524 122.933 188.78 124.325 187.844C125.741 186.908 126.677 186.44 127.133 186.44C127.397 186.44 128.333 186.56 129.941 186.8C131.549 187.016 132.785 187.196 133.649 187.34V200.696L134.909 201.2V202.748C132.725 203.156 131.513 203.36 131.273 203.36C131.177 203.36 130.937 203.18 130.553 202.82C130.193 202.46 130.013 202.22 130.013 202.1V200.804C127.829 202.508 126.653 203.36 126.485 203.36ZM126.881 200.444C127.121 200.444 128.129 200 129.905 199.112V189.428C129.329 189.212 128.597 189.02 127.709 188.852C126.845 188.66 126.269 188.588 125.981 188.636C125.549 188.732 125.225 189.272 125.009 190.256C124.793 191.24 124.685 192.884 124.685 195.188C124.685 196.34 124.805 197.312 125.045 198.104C125.309 198.896 125.609 199.484 125.945 199.868C126.305 200.252 126.617 200.444 126.881 200.444ZM143.982 203.36C143.454 203.36 142.398 203.3 140.814 203.18C139.254 203.084 138.054 202.988 137.214 202.892L137.286 197.528L139.266 197.492L140.022 200.264C140.55 200.456 141.198 200.636 141.966 200.804C142.758 200.948 143.334 201.02 143.694 201.02C143.886 201.02 144.102 200.78 144.342 200.3C144.582 199.796 144.702 199.364 144.702 199.004C144.702 198.428 144.51 197.972 144.126 197.636C143.766 197.3 143.01 196.82 141.858 196.196C141.57 196.052 141.354 195.932 141.21 195.836C139.722 195.02 138.69 194.3 138.114 193.676C137.562 193.052 137.286 192.308 137.286 191.444C137.286 190.628 137.358 190.028 137.502 189.644C137.91 189.02 138.57 188.336 139.482 187.592C140.418 186.848 141.09 186.476 141.498 186.476C142.338 186.476 143.406 186.512 144.702 186.584C146.022 186.632 147.018 186.692 147.69 186.764L147.582 191.3H145.386L145.134 189.392C144.942 189.32 144.318 189.2 143.262 189.032C142.23 188.864 141.594 188.78 141.354 188.78C140.874 188.78 140.634 189.236 140.634 190.148C140.634 190.58 140.814 190.964 141.174 191.3C141.534 191.612 141.93 191.9 142.362 192.164C142.794 192.428 143.094 192.608 143.262 192.704L144.126 193.208C145.446 193.928 146.502 194.624 147.294 195.296C148.086 195.968 148.482 196.724 148.482 197.564C148.482 198.188 148.398 198.824 148.23 199.472C147.846 200.192 147.174 201.02 146.214 201.956C145.254 202.892 144.51 203.36 143.982 203.36ZM154.427 203.36C154.139 203.36 153.779 203.18 153.347 202.82C152.915 202.46 152.531 202.04 152.195 201.56C151.859 201.08 151.691 200.696 151.691 200.408V188.888H149.351V187.592L151.691 186.476L154.031 183.704C154.247 183.68 154.715 183.848 155.435 184.208V186.8H158.963V189.032H155.435V198.824C155.435 199.52 155.495 200 155.615 200.264C155.735 200.504 155.963 200.624 156.299 200.624L159.323 200.732V202.64C158.579 202.808 157.643 202.964 156.515 203.108C155.411 203.276 154.715 203.36 154.427 203.36Z" fill="white"/>
<defs>
<linearGradient id="paint0_linear_1045_19684" x1="189" y1="142" x2="189" y2="178" gradientUnits="userSpaceOnUse">
<stop stop-color="#DC6D07"/>
<stop offset="1" stop-color="#EDFFA6"/>
</linearGradient>
<linearGradient id="paint1_linear_1045_19684" x1="124" y1="44" x2="124" y2="224" gradientUnits="userSpaceOnUse">
<stop stop-color="#0057FF" stop-opacity="0.17"/>
<stop offset="1" stop-color="#C4C4C4" stop-opacity="0"/>
</linearGradient>
<linearGradient id="paint2_linear_1045_19684" x1="147" y1="40" x2="147" y2="76" gradientUnits="userSpaceOnUse">
<stop stop-color="#DC6D07"/>
<stop offset="1" stop-color="#EDFFA6"/>
</linearGradient>
</defs>
</svg>
