<svg width="248" height="320" viewBox="0 0 248 320" fill="none" xmlns="http://www.w3.org/2000/svg">
<path d="M0 6C0 2.6863 2.68629 0 6 0H242C245.314 0 248 2.68629 248 6V314C248 317.314 245.314 320 242 320H5.99999C2.68629 320 0 317.314 0 314V6Z" fill="white"/>
<rect x="0.5" y="0.5" width="247" height="319" rx="5.5" fill="white" stroke="#D4D4D4"/>
<path d="M44.1562 44H105.156L95.6562 90.5L44.1562 115V44Z" fill="black" fill-opacity="0.54"/>
<path d="M160.156 44H204.156V103.5L170.656 84.5L166.156 74.5L167.156 51L160.156 44Z" fill="black" fill-opacity="0.54"/>
<path d="M44.1562 115L96.1562 90L105.656 44H160.656L167.656 50.5L166.656 90L204.156 104V109L190 123L178 141.5L166.656 175.5H204.156V224H44.1562V196.5L75.5 199L61.5 174L55.5 167.5L44.1562 115Z" fill="url(#paint0_linear_1186_26132)"/>
<path d="M188.156 44L188.156 73" stroke="black" stroke-width="2"/>
<path d="M107.656 53.5L127.656 35L143.906 42.75C143.906 42.75 154.768 63.0087 158.156 75C165.325 100.37 155.656 139.5 155.656 139.5C155.656 139.5 147.243 164.298 143.906 181C140.63 197.399 138.656 224 138.656 224H108.656L111.156 170L117.156 132L109.656 71.5L107.656 53.5Z" fill="url(#paint1_linear_1186_26132)"/>
<path d="M132.15 65.687L128.873 66.5063L125.596 65.687" stroke="black" stroke-width="2"/>
<path d="M147.717 53.8073C147.717 53.8073 144.232 58.3133 139.934 58.3133C135.635 58.3133 132.15 53.8073 132.15 53.8073C132.15 53.8073 135.635 49.3013 139.934 49.3013C144.232 49.3013 147.717 53.8073 147.717 53.8073Z" fill="black"/>
<circle cx="139.933" cy="53.8073" r="2.86747" transform="rotate(180 139.933 53.8073)" fill="white"/>
<path d="M124.776 53.8073C124.776 53.8073 121.292 58.3133 116.993 58.3133C112.695 58.3133 109.21 53.8073 109.21 53.8073C109.21 53.8073 112.695 49.3013 116.993 49.3013C121.292 49.3013 124.776 53.8073 124.776 53.8073Z" fill="black"/>
<circle cx="116.993" cy="53.8073" r="2.86747" transform="rotate(180 116.993 53.8073)" fill="white"/>
<path d="M147.717 41.8073C147.717 41.8073 144.232 46.3133 139.934 46.3133C135.635 46.3133 132.15 41.8073 132.15 41.8073C132.15 41.8073 135.635 37.3013 139.934 37.3013C144.232 37.3013 147.717 41.8073 147.717 41.8073Z" fill="black"/>
<circle cx="139.933" cy="41.8073" r="2.86747" transform="rotate(180 139.933 41.8073)" fill="white"/>
<path d="M151.859 68.964L153.497 65.2772L132.157 60L129.157 58L108.392 60.7712L109.211 66.5062L129.157 62L132.157 63.5L151.859 68.964ZM151.859 68.964L133.789 70.6025L111.259 76.3375M113.717 80.4339L128.054 78.7833M128.054 78.7833L138.449 81.2533M128.054 78.7833L136.657 77.5664L148.126 74.2895V78.3859L143.62 82.4823L138.449 81.2533M118.223 85.3495L123.594 84.3776M138.449 81.2533L128.054 83.5704M139.524 86.9883C138.664 86.3329 131.519 84.4366 128.054 83.5704M128.054 83.5704L123.594 84.3776M120.271 88.217L130.512 91.4943M109.621 69.7833L130.922 71.3285M135.018 90.2652L123.594 84.3776" stroke="black" stroke-width="2"/>
<path d="M165.612 177.948L163.757 174.068L159.421 172.917L161.545 158.301L166.685 158.787L169.166 156.059L167.975 152.983L163.237 152.164C163.237 152.164 165.097 142.956 165.764 137.216L169.435 137.563L173.052 134.572L171.127 131.426L166.722 131.009L167.975 120.5L173.052 120.5L176.156 116.5L187.657 117.336M171.127 145L177.156 145.5M174.127 126L180.156 126.5M166.685 167L169.166 167" stroke="black" stroke-width="2"/>
<path d="M152.756 198.5L157.494 199.319L158.685 202.395L156.204 205.123L151.064 204.637L148.42 218.917L152.756 220.068L154.612 223.948" stroke="black" stroke-width="2"/>
<path d="M92.4821 193.001L95.1476 190.613L98.7578 190.81L98.7864 177.052L94.4541 176.815L92.446 173.808L95.873 170.737L99.4832 170.934C99.913 165.285 101.376 156.191 101.376 156.191L96.7027 155.574L95.4166 152.606L97.7408 149.837L102.795 150.113L104.307 135.712L100.015 134.753L98.0459 131.024L99.4832 118L95.4166 113.5L60.6563 123M92.4821 162.5L86.1562 162" stroke="black" stroke-width="2"/>
<path d="M92.4456 204.808L94.4537 207.814L98.786 208.051L98.7573 221.81L95.1471 221.612L92.4817 224.001" stroke="black" stroke-width="2"/>
<path d="M109.149 224C109.149 224 109.405 199.31 110.849 176.5C112.45 151.202 120.649 107.5 120.649 107.5M150.584 64.0483L152.223 63.6386M138.156 224C138.156 224 138.674 203.518 144.608 176.018C153.84 133.235 172.764 97.8622 150.584 57.5C147.032 51.0359 144.15 42.8393 144.15 42.8393M150.174 68.9639L148.126 78.3856L134.198 91.494H123.138L119.23 86.8622L113.307 78.3856L109.62 64.0483L108.391 59.5422L108.072 53.3977M155.09 35.6792V39.0603L167.379 50.9398L165.483 86.8622L205.217 104.133M107.656 35.6789L95.6562 90L48.1562 114.332M108.072 53.3977L110.849 86.8622L120.649 107.5M108.072 53.3977C108.072 53.3977 113.358 46.7019 117.156 43.5192L123.722 38.4189C126.035 36.7395 127.644 35.6788 127.644 35.6788L135.897 39.259M112.798 92.9999L120.649 107.5" stroke="black" stroke-width="2"/>
<path d="M124.776 41.8073C124.776 41.8073 121.292 46.3133 116.993 46.3133C112.695 46.3133 109.21 41.8073 109.21 41.8073C109.21 41.8073 112.695 37.3013 116.993 37.3013C121.292 37.3013 124.776 41.8073 124.776 41.8073Z" fill="black"/>
<circle cx="116.993" cy="41.8073" r="2.86747" transform="rotate(180 116.993 41.8073)" fill="white"/>
<path d="M92.1562 92V115.5L76.1562 124L92.1562 132.5V156L116.156 156.5L124.156 172L132.156 156H156.156V132L172.156 124L156.156 116V92H132.156L124.156 76L115.656 92H92.1562Z" fill="white" stroke="black" stroke-width="2"/>
<rect x="101.155" y="101.001" width="46" height="46" fill="#FF4B3C" stroke="black" stroke-width="2"/>
<rect x="92.1543" y="124.001" width="45.257" height="45.257" transform="rotate(-45 92.1543 124.001)" fill="url(#paint2_linear_1186_26132)" fill-opacity="0.5" stroke="black" stroke-width="2"/>
<rect x="101.155" y="101.001" width="46" height="46" stroke="black" stroke-width="2"/>
<path d="M140.155 108.001L108.155 140.001" stroke="black" stroke-width="2"/>
<path d="M124.156 100.002L124.156 93.002" stroke="black" stroke-width="2"/>
<path d="M124.156 156.002L124.156 146.002" stroke="black" stroke-width="2"/>
<path d="M148.156 124.002H155.156" stroke="black" stroke-width="2"/>
<path d="M93.1562 124.002L102.156 124.002" stroke="black" stroke-width="2"/>
<path d="M140.155 140.001L108.155 108.001" stroke="black" stroke-width="2"/>
<rect x="117.155" y="117.001" width="14" height="14" fill="white" stroke="black" stroke-width="2"/>
<rect x="124.156" y="118.345" width="8" height="8" transform="rotate(45 124.156 118.345)" fill="#FF4B3C" stroke="black" stroke-width="2"/>
<path d="M44.1562 104.5V44H106.156M160.156 44H204.156V58M44.1562 196.5V224H138.656H204.156V163C204.156 163 208.656 155.5 209.156 152" stroke="black" stroke-width="2"/>
<path d="M44.1562 104.5V51C44.1562 47.134 47.2903 44 51.1562 44H106.156M160.156 44H197.156C201.022 44 204.156 47.134 204.156 51V58M44.1562 196.5V217C44.1562 220.866 47.2903 224 51.1563 224H138.656H197.156C201.022 224 204.156 220.866 204.156 217V164.939C204.156 163.67 204.502 162.43 205.121 161.322C206.473 158.905 208.804 154.462 209.156 152" stroke="black" stroke-width="2"/>
<path d="M48.1563 65L48.1562 101" stroke="black" stroke-width="2"/>
<path d="M48.1562 44L48.1563 63" stroke="black" stroke-width="2"/>
<path d="M52.1562 44L52.1562 61" stroke="black" stroke-width="2"/>
<path d="M56.1562 44L56.1562 57" stroke="black" stroke-width="2"/>
<path d="M60.1562 44L60.1562 54" stroke="black" stroke-width="2"/>
<path d="M64.1562 44L64.1562 50" stroke="black" stroke-width="2"/>
<path d="M68.1562 44L68.1562 46" stroke="black" stroke-width="2"/>
<path d="M52.1562 63L52.1563 88" stroke="black" stroke-width="2"/>
<path d="M56.1562 59L56.1563 89" stroke="black" stroke-width="2"/>
<path d="M60.1562 56L60.1563 99" stroke="black" stroke-width="2"/>
<path d="M64.1562 52L64.1563 101" stroke="black" stroke-width="2"/>
<path d="M72.1562 44V102" stroke="black" stroke-width="2"/>
<path d="M76.1562 44L76.1562 100" stroke="black" stroke-width="2"/>
<path d="M80.1562 44L80.1562 98" stroke="black" stroke-width="2"/>
<path d="M84.1562 44L84.1562 96" stroke="black" stroke-width="2"/>
<path d="M88.1562 44L88.1562 94" stroke="black" stroke-width="2"/>
<path d="M92.1562 44L92.1562 81" stroke="black" stroke-width="2"/>
<path d="M164.156 44L164.156 48" stroke="black" stroke-width="2"/>
<path d="M168.156 44L168.156 80" stroke="black" stroke-width="2"/>
<path d="M172.156 44L172.156 86" stroke="black" stroke-width="2"/>
<path d="M176.156 44L176.156 88" stroke="black" stroke-width="2"/>
<path d="M180.156 44L180.156 89" stroke="black" stroke-width="2"/>
<path d="M184.156 44L184.156 81" stroke="black" stroke-width="2"/>
<path d="M192.156 44L192.156 49" stroke="black" stroke-width="2"/>
<path d="M200.156 44L200.156 60" stroke="black" stroke-width="2"/>
<path d="M96.1562 44L96.1562 81" stroke="black" stroke-width="2"/>
<path d="M100.156 44L100.156 70" stroke="black" stroke-width="2"/>
<path d="M104.156 44L104.156 50" stroke="black" stroke-width="2"/>
<path d="M68.1562 48L68.1563 103" stroke="black" stroke-width="2"/>
<path d="M196.156 44L196.156 61" stroke="black" stroke-width="2"/>
<path d="M56.156 107.343L75.6642 112L56.037 114.315L58.3497 118.321L66.9586 135.745L75.6642 130.719L85.156 117.5L82.6227 135.588L79.5122 137.384L71.1002 150.772L58.4641 163.754L54.9616 167.134L41.9985 153.626L36.7825 148.19L44.7138 143.611L42.6997 124.512L41.7009 120L42.4491 119.681L40.5627 107.617L42.156 104L47.2101 105.207L50.2813 92.4087L50.8827 87.7959L79.5122 92.4087L66.9586 94.5L57.2043 96.232L58.1663 97.8983L67.3882 103.505L75.6642 109.5L60.7337 104.858L56.156 107.343Z" fill="#C4C4C4"/>
<path d="M47.2025 105.238L50.2813 92.4087L50.8827 87.7959L79.5122 92.4087L66.9586 94.5L57.2043 96.232L58.1663 97.8983M58.1663 97.8983L67.3882 103.505L75.6642 109.5L60.7337 104.858L56.156 107.343L58.1663 97.8983ZM44.7138 143.611L36.7825 148.19L61.3672 173.809L90.156 224L88.156 224M54.795 167.295L58.4641 163.754L71.1002 150.772L79.5122 137.384L82.6227 135.588L85.156 117.5L75.6642 130.719L66.9586 135.745L58.3497 118.321L56.037 114.315M41.7009 153.882L45.4559 150.648L42.6997 124.512L41.7009 120L42.4491 119.681L40.5627 107.617L42.156 104L75.6642 112L56.037 114.315M57.3223 149.84L61.1059 144.456L53.8 130.545L49.5224 115.597L50.7287 114.545L56.037 114.315M31.5716 153.382L56.1563 179" stroke="black" stroke-width="2"/>
<path d="M191.689 61.6519L175.674 66.0002L190.737 68.4713L188.424 72.4771L179.815 89.9012L171.11 84.8751L164.151 72.4771L164.151 89.7443L167.262 91.5401L175.674 104.928L188.31 117.911L191.868 121.344C195.89 116.671 200.266 112.264 204.727 107.74L201.318 104.804L204.074 78.6689L206.383 74.6699L204.325 73.837L206.211 61.7738L207.704 57.3036L199.976 59.4019L199.976 50.9544L200.157 48.5003L172.657 48.5004L187.157 53.5003L192.657 54.2553L192.316 57.157L172.657 56.0004L191.689 61.6519Z" fill="#C4C4C4"/>
<path d="M199.976 59.4019L199.976 50.9544L200.157 48.5003L172.657 48.5004L187.157 53.5003L192.657 54.2553L192.316 57.157M192.316 57.157L191.689 61.6519L172.657 56.0004L192.316 57.157ZM191.979 121.451L188.31 117.911L175.674 104.928L167.262 91.5401L164.151 89.7443L164.151 72.4771L171.11 84.8751L179.815 89.9012L188.424 72.4771L190.737 68.4713M205.073 108.038L201.318 104.804L204.074 78.6689L206.383 74.6699L204.325 73.837L206.211 61.7738L207.704 57.3036L175.674 66.0002L190.737 68.4713M189.452 103.996L185.668 98.6123L192.974 84.7015L197.252 69.7532M197.252 69.7532L196.045 68.7013L190.737 68.4713M197.252 69.7532L202.06 65.0004L199.157 66.0002M204.325 104.804L209.992 102.347C198.342 114.487 186.556 124.824 179.336 140.07C164.505 171.386 153.657 224 153.657 224M214.656 108.038C203.006 120.178 191.22 130.516 184 145.762" stroke="black" stroke-width="2"/>
<path d="M67.2003 266L68.517 262.293H73.8097L75.1264 266H76.7884L71.9815 252.909H70.3452L65.5384 266H67.2003ZM69.0156 260.886L71.1122 254.98H71.2145L73.3111 260.886H69.0156ZM82.3303 266.205C84.2223 266.205 84.8615 265.028 85.1939 264.491H85.3729V266H86.8303V252.909H85.3217V257.741H85.1939C84.8615 257.23 84.2734 256.054 82.3558 256.054C79.8757 256.054 78.1626 258.023 78.1626 261.116C78.1626 264.236 79.8757 266.205 82.3303 266.205ZM82.5348 264.849C80.6428 264.849 79.6712 263.188 79.6712 261.091C79.6712 259.02 80.6172 257.409 82.5348 257.409C84.3757 257.409 85.3473 258.892 85.3473 261.091C85.3473 263.315 84.3501 264.849 82.5348 264.849ZM93.5099 266.205C95.402 266.205 96.0412 265.028 96.3736 264.491H96.5526V266H98.0099V252.909H96.5014V257.741H96.3736C96.0412 257.23 95.4531 256.054 93.5355 256.054C91.0554 256.054 89.3423 258.023 89.3423 261.116C89.3423 264.236 91.0554 266.205 93.5099 266.205ZM93.7145 264.849C91.8224 264.849 90.8509 263.188 90.8509 261.091C90.8509 259.02 91.7969 257.409 93.7145 257.409C95.5554 257.409 96.527 258.892 96.527 261.091C96.527 263.315 95.5298 264.849 93.7145 264.849ZM108.934 266.23C110.647 266.23 111.542 265.31 111.849 264.67H111.925V266H113.434V259.531C113.434 256.412 111.056 256.054 109.803 256.054C108.32 256.054 106.633 256.565 105.866 258.355L107.298 258.866C107.63 258.151 108.416 257.384 109.854 257.384C111.241 257.384 111.925 258.119 111.925 259.378V259.429C111.925 260.158 111.184 260.094 109.394 260.324C107.572 260.56 105.585 260.963 105.585 263.213C105.585 265.131 107.067 266.23 108.934 266.23ZM109.164 264.875C107.962 264.875 107.093 264.338 107.093 263.29C107.093 262.139 108.141 261.781 109.317 261.628C109.957 261.551 111.67 261.372 111.925 261.065V262.446C111.925 263.673 110.954 264.875 109.164 264.875ZM117.696 260.094C117.696 258.381 118.757 257.409 120.202 257.409C121.601 257.409 122.452 258.323 122.452 259.864V266H123.96V259.761C123.96 257.256 122.624 256.054 120.636 256.054C119.153 256.054 118.233 256.719 117.773 257.716H117.645V256.182H116.187V266H117.696V260.094ZM127.337 269.682C128.698 269.682 129.657 268.96 130.226 267.432L134.406 256.207L132.757 256.182L130.047 264.006H129.945L127.234 256.182H125.598L129.229 266.051L128.947 266.818C128.398 268.314 127.72 268.455 126.621 268.173L126.237 269.503C126.391 269.58 126.825 269.682 127.337 269.682ZM145.453 266.205C147.627 266.205 149.058 264.875 149.314 263.136H147.806C147.524 264.21 146.629 264.849 145.453 264.849C143.664 264.849 142.513 263.366 142.513 261.091C142.513 258.866 143.689 257.409 145.453 257.409C146.783 257.409 147.575 258.227 147.806 259.122H149.314C149.058 257.281 147.499 256.054 145.428 256.054C142.769 256.054 141.004 258.151 141.004 261.142C141.004 264.082 142.692 266.205 145.453 266.205ZM154.409 266.23C156.122 266.23 157.017 265.31 157.323 264.67H157.4V266H158.909V259.531C158.909 256.412 156.531 256.054 155.278 256.054C153.795 256.054 152.107 256.565 151.34 258.355L152.772 258.866C153.105 258.151 153.891 257.384 155.329 257.384C156.716 257.384 157.4 258.119 157.4 259.378V259.429C157.4 260.158 156.659 260.094 154.869 260.324C153.047 260.56 151.059 260.963 151.059 263.213C151.059 265.131 152.542 266.23 154.409 266.23ZM154.639 264.875C153.437 264.875 152.568 264.338 152.568 263.29C152.568 262.139 153.616 261.781 154.792 261.628C155.431 261.551 157.144 261.372 157.4 261.065V262.446C157.4 263.673 156.428 264.875 154.639 264.875ZM161.662 266H163.17V259.787C163.17 258.457 164.219 257.486 165.651 257.486C166.053 257.486 166.469 257.562 166.571 257.588V256.054C166.398 256.041 166.002 256.028 165.778 256.028C164.602 256.028 163.58 256.693 163.222 257.665H163.119V256.182H161.662V266ZM171.768 266.205C173.66 266.205 174.299 265.028 174.631 264.491H174.81V266H176.268V252.909H174.759V257.741H174.631C174.299 257.23 173.711 256.054 171.793 256.054C169.313 256.054 167.6 258.023 167.6 261.116C167.6 264.236 169.313 266.205 171.768 266.205ZM171.972 264.849C170.08 264.849 169.109 263.188 169.109 261.091C169.109 259.02 170.055 257.409 171.972 257.409C173.813 257.409 174.785 258.892 174.785 261.091C174.785 263.315 173.788 264.849 171.972 264.849ZM47.3993 278.182H45.2005V277.185C45.2005 276.213 45.6096 275.702 46.6067 275.702C47.0414 275.702 47.2971 275.804 47.4505 275.855L47.8851 274.551C47.655 274.449 47.1948 274.295 46.4533 274.295C45.0471 274.295 43.6919 275.139 43.6919 276.827V278.182H42.1067V279.46H43.6919V288H45.2005V279.46H47.3993V278.182ZM49.5135 288H51.022V281.787C51.022 280.457 52.0703 279.486 53.5021 279.486C53.9048 279.486 54.3203 279.562 54.4226 279.588V278.054C54.25 278.041 53.8537 278.028 53.63 278.028C52.4538 278.028 51.4311 278.693 51.0732 279.665H50.9709V278.182H49.5135V288ZM59.9006 288.205C62.5597 288.205 64.3494 286.185 64.3494 283.142C64.3494 280.074 62.5597 278.054 59.9006 278.054C57.2415 278.054 55.4517 280.074 55.4517 283.142C55.4517 286.185 57.2415 288.205 59.9006 288.205ZM59.9006 286.849C57.8807 286.849 56.9602 285.111 56.9602 283.142C56.9602 281.173 57.8807 279.409 59.9006 279.409C61.9205 279.409 62.8409 281.173 62.8409 283.142C62.8409 285.111 61.9205 286.849 59.9006 286.849ZM66.6522 288H68.1607V281.864C68.1607 280.425 69.209 279.409 70.3851 279.409C71.5293 279.409 72.3283 280.157 72.3283 281.276V288H73.8624V281.608C73.8624 280.342 74.655 279.409 76.0357 279.409C77.1096 279.409 78.03 279.978 78.03 281.429V288H79.5385V281.429C79.5385 279.121 78.2985 278.054 76.5471 278.054C75.1408 278.054 74.1117 278.7 73.6067 279.716H73.5044C73.0186 278.668 72.1621 278.054 70.8709 278.054C69.5925 278.054 68.6465 278.668 68.2374 279.716H68.1096V278.182H66.6522V288ZM91.3478 288.205C93.5211 288.205 94.9529 286.875 95.2086 285.136H93.7001C93.4189 286.21 92.524 286.849 91.3478 286.849C89.5581 286.849 88.4075 285.366 88.4075 283.091C88.4075 280.866 89.5836 279.409 91.3478 279.409C92.6774 279.409 93.47 280.227 93.7001 281.122H95.2086C94.9529 279.281 93.3933 278.054 91.3223 278.054C88.6632 278.054 86.899 280.151 86.899 283.142C86.899 286.082 88.5865 288.205 91.3478 288.205ZM98.9224 282.094C98.9224 280.381 100.015 279.409 101.505 279.409C102.924 279.409 103.78 280.304 103.78 281.864V288H105.289V281.761C105.289 279.237 103.947 278.054 101.939 278.054C100.393 278.054 99.5105 278.7 99.0502 279.716H98.9224V274.909H97.4139V288H98.9224V282.094ZM110.938 288.23C112.651 288.23 113.546 287.31 113.853 286.67H113.929V288H115.438V281.531C115.438 278.412 113.06 278.054 111.807 278.054C110.324 278.054 108.637 278.565 107.87 280.355L109.301 280.866C109.634 280.151 110.42 279.384 111.858 279.384C113.245 279.384 113.929 280.119 113.929 281.378V281.429C113.929 282.158 113.188 282.094 111.398 282.324C109.576 282.56 107.588 282.963 107.588 285.213C107.588 287.131 109.071 288.23 110.938 288.23ZM111.168 286.875C109.966 286.875 109.097 286.338 109.097 285.29C109.097 284.139 110.145 283.781 111.321 283.628C111.961 283.551 113.674 283.372 113.929 283.065V284.446C113.929 285.673 112.958 286.875 111.168 286.875ZM118.191 288H119.7V278.182H118.191V288ZM118.958 276.545C119.546 276.545 120.032 276.085 120.032 275.523C120.032 274.96 119.546 274.5 118.958 274.5C118.37 274.5 117.884 274.96 117.884 275.523C117.884 276.085 118.37 276.545 118.958 276.545ZM123.971 282.094C123.971 280.381 125.032 279.409 126.477 279.409C127.877 279.409 128.727 280.323 128.727 281.864V288H130.235V281.761C130.235 279.256 128.9 278.054 126.912 278.054C125.429 278.054 124.508 278.719 124.048 279.716H123.92V278.182H122.463V288H123.971V282.094ZM142.324 278.182H140.228V275.83H138.719V278.182H137.236V279.46H138.719V285.597C138.719 287.31 140.1 288.128 141.378 288.128C141.941 288.128 142.299 288.026 142.503 287.949L142.197 286.594C142.069 286.619 141.864 286.67 141.532 286.67C140.867 286.67 140.228 286.466 140.228 285.188V279.46H142.324V278.182ZM148.477 288.205C151.136 288.205 152.926 286.185 152.926 283.142C152.926 280.074 151.136 278.054 148.477 278.054C145.818 278.054 144.028 280.074 144.028 283.142C144.028 286.185 145.818 288.205 148.477 288.205ZM148.477 286.849C146.457 286.849 145.536 285.111 145.536 283.142C145.536 281.173 146.457 279.409 148.477 279.409C150.497 279.409 151.417 281.173 151.417 283.142C151.417 285.111 150.497 286.849 148.477 286.849ZM161.799 282.094C161.799 280.381 162.892 279.409 164.382 279.409C165.801 279.409 166.657 280.304 166.657 281.864V288H168.166V281.761C168.166 279.237 166.824 278.054 164.816 278.054C163.27 278.054 162.387 278.7 161.927 279.716H161.799V274.909H160.291V288H161.799V282.094ZM173.815 288.23C175.528 288.23 176.423 287.31 176.73 286.67H176.806V288H178.315V281.531C178.315 278.412 175.937 278.054 174.684 278.054C173.201 278.054 171.514 278.565 170.747 280.355L172.178 280.866C172.511 280.151 173.297 279.384 174.735 279.384C176.122 279.384 176.806 280.119 176.806 281.378V281.429C176.806 282.158 176.065 282.094 174.275 282.324C172.453 282.56 170.465 282.963 170.465 285.213C170.465 287.131 171.948 288.23 173.815 288.23ZM174.045 286.875C172.843 286.875 171.974 286.338 171.974 285.29C171.974 284.139 173.022 283.781 174.198 283.628C174.838 283.551 176.551 283.372 176.806 283.065V284.446C176.806 285.673 175.835 286.875 174.045 286.875ZM182.577 282.094C182.577 280.381 183.638 279.409 185.082 279.409C186.482 279.409 187.332 280.323 187.332 281.864V288H188.841V281.761C188.841 279.256 187.505 278.054 185.517 278.054C184.034 278.054 183.114 278.719 182.653 279.716H182.526V278.182H181.068V288H182.577V282.094ZM195.305 288.205C197.197 288.205 197.836 287.028 198.169 286.491H198.347V288H199.805V274.909H198.296V279.741H198.169C197.836 279.23 197.248 278.054 195.33 278.054C192.85 278.054 191.137 280.023 191.137 283.116C191.137 286.236 192.85 288.205 195.305 288.205ZM195.509 286.849C193.617 286.849 192.646 285.188 192.646 283.091C192.646 281.02 193.592 279.409 195.509 279.409C197.35 279.409 198.322 280.892 198.322 283.091C198.322 285.315 197.325 286.849 195.509 286.849ZM203.877 288.102C204.509 288.102 205.027 287.585 205.027 286.952C205.027 286.319 204.509 285.801 203.877 285.801C203.244 285.801 202.726 286.319 202.726 286.952C202.726 287.585 203.244 288.102 203.877 288.102Z" fill="black" fill-opacity="0.87"/>
<path d="M216 160H236V176L228 184.5L236 192V208H226H216V160Z" fill="#FF4B3C" stroke="black" stroke-width="2"/>
<path d="M216 160H236V176L228 184.5L236 192V208H226H216V160Z" fill="black" fill-opacity="0.17"/>
<path d="M224 168L216 160V168H224Z" fill="black" fill-opacity="0.38" stroke="black" stroke-width="2" stroke-linejoin="bevel"/>
<path d="M248 176L240 184L248 192V176Z" fill="#D4D4D4"/>
<path d="M32 160H12V176L20 184.5L12 192V208H22H32V160Z" fill="#FF4B3C" stroke="black" stroke-width="2"/>
<path d="M32 160H12V176L20 184.5L12 192V208H22H32V160Z" fill="black" fill-opacity="0.17"/>
<path d="M24 168L32 160V168H24Z" fill="black" fill-opacity="0.38" stroke="black" stroke-width="2" stroke-linejoin="bevel"/>
<path d="M0 176L8 184L0 192V176Z" fill="#D4D4D4"/>
<path d="M224 168H24V216H224V168Z" fill="#FF4B3C" stroke="black" stroke-width="2"/>
<path d="M60.3045 203.36C57.8325 203.36 55.8525 202.484 54.3645 200.732C52.8765 198.98 52.1325 196.388 52.1325 192.956C52.1325 191.348 52.2285 189.872 52.4205 188.528C52.6125 187.184 52.8765 186.092 53.2125 185.252C53.6205 184.676 54.2565 184.052 55.1205 183.38C55.9845 182.708 56.8485 182.132 57.7125 181.652C58.6005 181.172 59.2365 180.932 59.6205 180.932C60.4125 180.956 61.6125 181.028 63.2205 181.148C64.8525 181.244 66.1725 181.34 67.1805 181.436L66.7485 187.772H64.5885L64.1565 184.136C63.5565 184.016 62.6685 183.896 61.4925 183.776C60.3405 183.656 59.5245 183.596 59.0445 183.596C58.5885 183.596 58.2165 183.668 57.9285 183.812C57.4005 184.076 56.9805 184.928 56.6685 186.368C56.3805 187.784 56.2365 189.596 56.2365 191.804C56.2365 195.092 56.5965 197.396 57.3165 198.716C58.0365 200.012 59.0565 200.66 60.3765 200.66L64.0845 200.3V194.828L60.7365 194.216V192.38H69.5205V193.964L67.5765 194.432V200.912C67.0725 201.248 65.8245 201.74 63.8325 202.388C61.8645 203.036 60.6885 203.36 60.3045 203.36ZM69.9105 203.36C69.7905 203.36 69.5385 203.18 69.1545 202.82C68.7945 202.46 68.6145 202.22 68.6145 202.1V182.264L67.3185 181.76V180.248C69.5985 179.84 70.8585 179.636 71.0985 179.636C71.2185 179.636 71.4585 179.816 71.8185 180.176C72.1785 180.512 72.3585 180.752 72.3585 180.896L72.1785 188.888L72.3585 188.924C73.0545 188.396 73.7865 187.856 74.5545 187.304C75.3465 186.752 75.7905 186.476 75.8865 186.476C77.6625 186.476 78.9825 186.92 79.8465 187.808C80.7345 188.672 81.1785 190.196 81.1785 192.38V200.66L82.4745 201.2V202.712C80.2185 203.144 78.9825 203.36 78.7665 203.36C78.6465 203.36 78.3945 203.18 78.0105 202.82C77.6265 202.46 77.4345 202.22 77.4345 202.1V192.38C77.4345 191.084 77.2305 190.256 76.8225 189.896C76.4385 189.536 75.9945 189.356 75.4905 189.356C75.3945 189.356 74.6865 189.632 73.3665 190.184C73.1985 190.256 73.0185 190.34 72.8265 190.436C72.6585 190.508 72.5025 190.568 72.3585 190.616V200.66L73.6545 201.2V202.712C71.3985 203.144 70.1505 203.36 69.9105 203.36ZM92.6074 203.36C90.0394 203.36 88.1074 202.724 86.8114 201.452C85.5154 200.156 84.8674 198.164 84.8674 195.476C84.8674 194.396 84.9514 193.352 85.1194 192.344C85.2874 191.336 85.5034 190.592 85.7674 190.112C86.0314 189.752 86.5594 189.272 87.3514 188.672C88.1434 188.048 88.9474 187.508 89.7634 187.052C90.5794 186.572 91.1314 186.332 91.4194 186.332C93.9154 186.332 95.7994 186.992 97.0714 188.312C98.3434 189.608 98.9794 191.504 98.9794 194C98.9794 195.152 98.8954 196.244 98.7274 197.276C98.5834 198.284 98.3914 199.1 98.1514 199.724C97.7434 200.252 96.8194 200.996 95.3794 201.956C93.9634 202.892 93.0394 203.36 92.6074 203.36ZM92.7514 201.164C92.8954 201.116 93.4594 200.84 94.4434 200.336C94.8274 198.632 95.0194 196.676 95.0194 194.468C95.0194 192.668 94.6954 191.24 94.0474 190.184C93.4234 189.104 92.4874 188.564 91.2394 188.564C90.7114 188.564 90.2794 188.648 89.9434 188.816C89.6074 188.984 89.3314 189.608 89.1154 190.688C88.9234 191.768 88.8274 193.196 88.8274 194.972C88.8274 197.276 89.1994 198.884 89.9434 199.796C90.7114 200.708 91.6474 201.164 92.7514 201.164ZM108.3 203.36C107.772 203.36 106.716 203.3 105.132 203.18C103.572 203.084 102.372 202.988 101.532 202.892L101.604 197.528L103.584 197.492L104.34 200.264C104.868 200.456 105.516 200.636 106.284 200.804C107.076 200.948 107.652 201.02 108.012 201.02C108.204 201.02 108.42 200.78 108.66 200.3C108.9 199.796 109.02 199.364 109.02 199.004C109.02 198.428 108.828 197.972 108.444 197.636C108.084 197.3 107.328 196.82 106.176 196.196C105.888 196.052 105.672 195.932 105.528 195.836C104.04 195.02 103.008 194.3 102.432 193.676C101.88 193.052 101.604 192.308 101.604 191.444C101.604 190.628 101.676 190.028 101.82 189.644C102.228 189.02 102.888 188.336 103.8 187.592C104.736 186.848 105.408 186.476 105.816 186.476C106.656 186.476 107.724 186.512 109.02 186.584C110.34 186.632 111.336 186.692 112.008 186.764L111.9 191.3H109.704L109.452 189.392C109.26 189.32 108.636 189.2 107.58 189.032C106.548 188.864 105.912 188.78 105.672 188.78C105.192 188.78 104.952 189.236 104.952 190.148C104.952 190.58 105.132 190.964 105.492 191.3C105.852 191.612 106.248 191.9 106.68 192.164C107.112 192.428 107.412 192.608 107.58 192.704L108.444 193.208C109.764 193.928 110.82 194.624 111.612 195.296C112.404 195.968 112.8 196.724 112.8 197.564C112.8 198.188 112.716 198.824 112.548 199.472C112.164 200.192 111.492 201.02 110.532 201.956C109.572 202.892 108.828 203.36 108.3 203.36ZM121.245 203.36C120.957 203.36 120.597 203.18 120.165 202.82C119.733 202.46 119.349 202.04 119.013 201.56C118.677 201.08 118.509 200.696 118.509 200.408V188.888H116.169V187.592L118.509 186.476L120.849 183.704C121.065 183.68 121.533 183.848 122.253 184.208V186.8H125.781V189.032H122.253V198.824C122.253 199.52 122.313 200 122.433 200.264C122.553 200.504 122.781 200.624 123.117 200.624L126.141 200.732V202.64C125.397 202.808 124.461 202.964 123.333 203.108C122.229 203.276 121.533 203.36 121.245 203.36ZM140.654 203.36C139.358 203.36 138.194 202.988 137.162 202.244C136.13 201.476 135.302 200.324 134.678 198.788C134.054 197.228 133.742 195.284 133.742 192.956C133.742 191.348 133.838 189.872 134.03 188.528C134.222 187.184 134.486 186.092 134.822 185.252C135.23 184.676 135.866 184.052 136.73 183.38C137.594 182.708 138.458 182.132 139.322 181.652C140.21 181.172 140.846 180.932 141.23 180.932C141.926 180.956 142.898 181.016 144.146 181.112C145.394 181.184 146.63 181.268 147.854 181.364L147.422 187.844H145.298L144.83 184.028C144.254 183.908 143.522 183.812 142.634 183.74C141.77 183.644 141.11 183.596 140.654 183.596C140.198 183.596 139.826 183.668 139.538 183.812C139.01 184.076 138.59 184.928 138.278 186.368C137.99 187.784 137.846 189.596 137.846 191.804C137.846 195.044 138.242 197.3 139.034 198.572C139.826 199.82 140.93 200.444 142.346 200.444H144.758L145.37 195.908L147.422 195.944L147.494 202.496C146.87 202.664 145.658 202.844 143.858 203.036C142.082 203.252 141.014 203.36 140.654 203.36ZM156.527 203.36C154.775 203.36 153.455 202.916 152.567 202.028C151.703 201.14 151.271 199.604 151.271 197.42V189.104L150.011 188.564V187.052C152.219 186.668 153.431 186.476 153.647 186.476C153.767 186.476 154.019 186.656 154.403 187.016C154.811 187.352 155.015 187.58 155.015 187.7V197.384C155.015 199.424 155.651 200.444 156.923 200.444C157.163 200.444 158.171 200.024 159.947 199.184V189.104L158.651 188.564V187.052C160.907 186.668 162.143 186.476 162.359 186.476C162.479 186.476 162.731 186.656 163.115 187.016C163.499 187.352 163.691 187.58 163.691 187.7V200.66L164.951 201.2V202.748C162.719 203.156 161.495 203.36 161.279 203.36C161.159 203.36 160.919 203.18 160.559 202.82C160.223 202.46 160.055 202.22 160.055 202.1V200.84C159.431 201.344 158.711 201.896 157.895 202.496C157.079 203.072 156.623 203.36 156.527 203.36ZM174.765 203.36C174.501 203.36 173.505 203.24 171.777 203C170.073 202.784 168.897 202.604 168.249 202.46V182.264L166.953 181.76V180.248C167.553 180.128 168.225 180.008 168.969 179.888C169.737 179.768 170.313 179.684 170.697 179.636C170.817 179.636 171.057 179.816 171.417 180.176C171.801 180.536 171.993 180.776 171.993 180.896L171.777 188.816L171.993 188.888L172.785 188.276C173.001 188.132 173.457 187.796 174.153 187.268C174.873 186.716 175.293 186.44 175.413 186.44C176.445 186.44 177.393 186.728 178.257 187.304C179.121 187.88 179.817 188.744 180.345 189.896C180.873 191.048 181.137 192.464 181.137 194.144C181.137 195.344 181.053 196.448 180.885 197.456C180.741 198.44 180.537 199.196 180.273 199.724C179.865 200.276 178.953 201.02 177.537 201.956C176.145 202.892 175.221 203.36 174.765 203.36ZM175.917 201.128C176.325 201.032 176.637 200.504 176.853 199.544C177.069 198.56 177.177 196.928 177.177 194.648C177.177 193.496 177.057 192.524 176.817 191.732C176.577 190.94 176.277 190.352 175.917 189.968C175.581 189.56 175.281 189.356 175.017 189.356C174.897 189.356 174.477 189.524 173.757 189.86C173.037 190.172 172.449 190.448 171.993 190.688V200.372C172.593 200.588 173.325 200.792 174.189 200.984C175.053 201.152 175.629 201.2 175.917 201.128Z" fill="white"/>
<path d="M189.924 203.36C188.796 203.36 187.752 203.072 186.792 202.496C185.856 201.92 185.1 201.056 184.524 199.904C183.972 198.752 183.696 197.348 183.696 195.692C183.696 194.516 183.78 193.412 183.948 192.38C184.116 191.348 184.332 190.58 184.596 190.076C184.86 189.716 185.388 189.236 186.18 188.636C186.972 188.012 187.764 187.472 188.556 187.016C189.372 186.56 189.936 186.332 190.248 186.332C191.568 186.332 192.648 186.548 193.488 186.98C194.328 187.412 194.976 188.228 195.432 189.428C195.888 190.604 196.116 192.272 196.116 194.432L187.62 195.152C187.62 196.472 187.788 197.528 188.124 198.32C188.484 199.112 188.904 199.676 189.384 200.012C189.864 200.348 190.32 200.516 190.752 200.516L195.576 200.336V201.956C194.736 202.244 193.668 202.556 192.372 202.892C191.076 203.204 190.26 203.36 189.924 203.36ZM192.264 192.884C192.264 190.052 191.52 188.624 190.032 188.6H189.744C189.36 188.6 189.012 188.66 188.7 188.78C188.412 188.876 188.172 189.404 187.98 190.364C187.788 191.3 187.692 192.344 187.692 193.496L192.264 192.884Z" fill="white" fill-opacity="0.89"/>
<defs>
<linearGradient id="paint0_linear_1186_26132" x1="124.156" y1="44" x2="124.156" y2="224" gradientUnits="userSpaceOnUse">
<stop stop-opacity="0"/>
<stop offset="1" stop-color="#31462F"/>
</linearGradient>
<linearGradient id="paint1_linear_1186_26132" x1="133.156" y1="35" x2="133.156" y2="224" gradientUnits="userSpaceOnUse">
<stop stop-color="#282828"/>
<stop offset="1" stop-color="#080808"/>
</linearGradient>
<linearGradient id="paint2_linear_1186_26132" x1="114.783" y1="124.001" x2="114.783" y2="169.258" gradientUnits="userSpaceOnUse">
<stop stop-color="#3366FF"/>
<stop offset="1" stop-color="#33FFE7"/>
</linearGradient>
</defs>
</svg>
