<svg width="248" height="320" viewBox="0 0 248 320" fill="none" xmlns="http://www.w3.org/2000/svg">
<path d="M0 6C0 2.6863 2.68629 0 6 0H242C245.314 0 248 2.68629 248 6V314C248 317.314 245.314 320 242 320H5.99999C2.68629 320 0 317.314 0 314V6Z" fill="white"/>
<rect x="0.5" y="0.5" width="247" height="319" rx="5.5" fill="white" stroke="#D4D4D4"/>
<rect x="44" y="44" width="160" height="180" fill="black" fill-opacity="0.1"/>
<path d="M159.373 42.9688L159.373 46.1563" stroke="black" stroke-width="2"/>
<path d="M154.967 42.9688L154.967 46.1563" stroke="black" stroke-width="2"/>
<path d="M86.8418 42.9688L86.8418 46.1563" stroke="black" stroke-width="2"/>
<path d="M90.8418 42.9688L90.8418 46.1563" stroke="black" stroke-width="2"/>
<path d="M94.8418 42.9688L94.8418 46.1563" stroke="black" stroke-width="2"/>
<path opacity="0.55" d="M43.748 43.9688H203.998V91.6875C181.838 107.781 153.071 111.652 127.445 101.99L83.3573 85.3665C69.9658 80.3172 54.9029 82.721 43.748 91.6875V43.9688Z" fill="url(#paint0_linear_83_28)"/>
<path opacity="0.55" d="M203.998 177.558L185.498 152.469L80.498 212.969L43.748 177.558V139.969L29.498 127.969L43.748 116.469L58.998 109.469C57.7344 114.271 61.3562 118.969 66.3215 118.969H180.998L221.476 112.339C225.366 111.702 227.328 116.86 223.998 118.969L194.998 127.969L203.998 137.469V177.558Z" fill="url(#paint1_linear_83_28)"/>
<path d="M80.0604 80.969C79.9604 84.269 80.9354 95.6773 81.4354 100.969H77.4355L75.4355 102.469L73.4355 109.469V113.719L75.4355 129.094L81.4354 134.094H85.6855L91.998 151.219L91.623 181.48L44.248 196.236V223.969H203.998V196.236L158.248 181.48V151.969L166.561 135.594H169.436L173.186 134.094L177.186 127.594V116.844L178.561 108.969L176.061 100.344H172.061L169.436 102.469L170.561 100.344V95.5938L171.186 87.5938V74.7188L166.561 59.5938L151.186 42.8438L125.436 35.594C120.769 35.344 108.936 36.819 98.9355 44.719C86.4355 54.594 83.3105 64.344 82.3105 66.719C81.3105 69.094 80.1854 76.844 80.0604 80.969Z" fill="#294A68" stroke="black" stroke-width="2"/>
<path d="M77.748 102.969H79.123L82.623 110.969L83.998 117.594L86.873 118.969L93.248 134.969L99.998 140.219" stroke="black" stroke-width="2"/>
<path d="M173.498 102.969H172.123L168.623 110.969L167.248 117.594L164.373 118.969L157.998 134.969L151.248 140.219" stroke="black" stroke-width="2"/>
<path d="M119.561 106.656L121.373 105.156L123.998 111.594H128.436L130.686 104.594L131.998 106.094L134.686 106.344L135.998 103.656L135.373 101.594L126.123 98.4688L116.873 101.094L115.998 103.906L116.873 106.656H119.561Z" stroke="black" stroke-width="2"/>
<path d="M104.748 120.469H110.329C113.811 120.094 121.665 119.344 125.23 119.344C128.796 119.344 138.321 120.094 142.638 120.469L147.373 119.344" stroke="black" stroke-width="2"/>
<path d="M111.804 124.655H104.121C106.106 125.49 108.871 126.608 111.804 127.72V124.655Z" fill="black"/>
<path d="M148.623 123.28L144.419 128.655C139.926 129.78 130.011 132.03 126.3 132.03C123.848 132.03 117.51 129.885 111.804 127.72M111.804 127.72C108.871 126.608 106.106 125.49 104.121 124.655H111.804V127.72Z" stroke="black" stroke-width="2"/>
<path d="M119.998 119.969V129.719" stroke="black" stroke-width="2"/>
<path d="M112.748 119.969V129.719" stroke="black" stroke-width="2"/>
<path d="M105.498 119.969V129.719" stroke="black" stroke-width="2"/>
<path d="M98.248 119.969V129.719" stroke="black" stroke-width="2"/>
<path d="M127.123 119.969V132.03" stroke="black" stroke-width="2"/>
<path d="M134.373 119.969V132.03" stroke="black" stroke-width="2"/>
<path d="M141.623 119.969V132.03" stroke="black" stroke-width="2"/>
<path d="M148.873 119.969V132.03" stroke="black" stroke-width="2"/>
<path d="M155.998 119.969V132.03" stroke="black" stroke-width="2"/>
<path d="M151.248 124.281C151.248 124.281 136.766 125.406 127.47 125.406C118.173 125.406 103.691 124.281 103.691 124.281" stroke="black" stroke-width="2"/>
<path opacity="0.5" d="M87.998 83.2188L94.498 74.9688H103.748L112.498 77.4688L120.248 89.9688L118.364 138.969H87.748L94.498 107.219L87.998 83.2188Z" fill="#040A0A"/>
<path opacity="0.5" d="M137.248 76.9688L152.998 73.4688L166.998 85.7188H159.498L145.748 93.4688H137.248L129.748 82.7188L137.248 76.9688Z" fill="#040A0A"/>
<path opacity="0.5" d="M116.002 101.219L126.748 98.9688L135.248 101.219L141.998 118.969L133.873 137.719V118.969L115.998 117.969L116.002 101.219Z" fill="#040A0A"/>
<path opacity="0.5" d="M168.498 101.469L174.748 98.9688L175.998 111.719L171.933 126.719L168.498 137.719H147.748L151.998 109.969L168.498 101.469Z" fill="#040A0A"/>
<path d="M204.48 195.678L204.539 210.952L183.789 211.032L185.707 189.751L204.48 195.678Z" fill="#040A0A"/>
<path opacity="0.5" d="M76.5468 100.81C76.9358 99.7884 78.0723 99.2685 79.0993 99.6419L82.4273 100.852C82.6396 100.929 82.8373 101.042 83.012 101.185L94.5162 110.619C94.9795 110.999 95.248 111.566 95.248 112.165V135.719C95.248 136.823 94.3526 137.719 93.248 137.719H82.4864C81.8635 137.719 81.2761 137.428 80.8977 136.934L75.3503 129.679C75.1202 129.379 74.9803 129.018 74.9469 128.641L73.2887 109.927C73.2619 109.626 73.3041 109.322 73.4119 109.039L76.5468 100.81Z" fill="#040A0A"/>
<path opacity="0.9" d="M92.0459 156.469H101.272V186.719L115.498 164.719L134.998 166.469L139.748 156.469H158.998V196.282L142.748 212.219H97.998L54.748 202.25L92.0459 196.282V156.469Z" fill="#040A0A"/>
<path d="M51.998 138.969H43.998V154.969H86.998L51.998 138.969Z" fill="#2A4558"/>
<path d="M82.748 138.969H55.998L89.248 154.969H111.998V150.969L86.998 142.969L82.748 138.969Z" fill="#2A4558"/>
<path d="M83.998 138.969H99.998L111.998 144.719L121.248 149.469L102.748 138.969H121.248L122.748 140.219L123.998 138.969H147.998L163.998 144.719L162.748 142.969L170.248 146.969L190.748 154.969V150.969L193.248 154.969H190.748H113.498V150.969L89.248 142.969L83.998 138.969Z" fill="#2A4558"/>
<path d="M171.998 138.969H151.998L159.998 141.469H162.748L170.248 144.719L187.998 152.219L190.748 148.219L194.748 154.969H203.998V138.969H185.498V140.219H183.998V138.969H173.998V140.219L171.998 138.969Z" fill="#2A4558"/>
<path d="M51.998 138.969H43.998V154.969H86.998L51.998 138.969Z" stroke="black" stroke-width="2"/>
<path d="M82.748 138.969H55.998L89.248 154.969H111.998V150.969L86.998 142.969L82.748 138.969Z" stroke="black" stroke-width="2"/>
<path d="M83.998 138.969H99.998L111.998 144.719L121.248 149.469L102.748 138.969H121.248L122.748 140.219L123.998 138.969H147.998L163.998 144.719L162.748 142.969L170.248 146.969L190.748 154.969V150.969L193.248 154.969H190.748H113.498V150.969L89.248 142.969L83.998 138.969Z" stroke="black" stroke-width="2"/>
<path d="M171.998 138.969H151.998L159.998 141.469H162.748L170.248 144.719L187.998 152.219L190.748 148.219L194.748 154.969H203.998V138.969H185.498V140.219H183.998V138.969H173.998V140.219L171.998 138.969Z" stroke="black" stroke-width="2"/>
<path d="M68.623 224.031V154.969H75.373V224.031H68.623Z" fill="#2A4558" stroke="black" stroke-width="2"/>
<path d="M76.623 224.031V154.969H83.373V224.031H76.623Z" fill="#2A4558" stroke="black" stroke-width="2"/>
<path d="M65.873 158.969V154.969H86.123V158.969H65.873Z" fill="#2A4558" stroke="black" stroke-width="2"/>
<path d="M116.873 224.031V154.969H123.623V224.031H116.873Z" fill="#2A4558" stroke="black" stroke-width="2"/>
<path d="M124.873 224.031V154.969H131.623V224.031H124.873Z" fill="#2A4558" stroke="black" stroke-width="2"/>
<path d="M114.123 158.969V154.969H134.373V158.969H114.123Z" fill="#2A4558" stroke="black" stroke-width="2"/>
<path d="M165.123 224.031V154.969H171.873V224.031H165.123Z" fill="#2A4558" stroke="black" stroke-width="2"/>
<path d="M173.123 224.031V154.969H179.873V224.031H173.123Z" fill="#2A4558" stroke="black" stroke-width="2"/>
<path d="M162.373 158.969V154.969H182.623V158.969H162.373Z" fill="#2A4558" stroke="black" stroke-width="2"/>
<path d="M89.748 84.8438L91.248 79.9688L95.248 75.5938L99.248 74.0938L104.623 74.9688L113.498 78.2188V82.7188L111.686 87.2812L106.248 91.9375" stroke="black" stroke-width="2"/>
<path d="M161.498 83.9844L159.998 79.1094L155.998 74.7344L151.998 73.2344L146.623 74.1094L137.748 77.3594V81.8594L139.561 86.4219L144.998 91.0781" stroke="black" stroke-width="2"/>
<path d="M113.498 84.3438L110.998 82.9688L107.123 81.8438L102.498 82.9688L99.998 85.3438L97.873 86.2188" stroke="black" stroke-width="2"/>
<path d="M138.498 83.4844L140.998 82.1094L144.873 80.9844L149.498 82.1094L151.998 84.4844L154.123 85.3594" stroke="black" stroke-width="2"/>
<path d="M107.123 81.9062L111.52 83.0049C111.717 87 109.186 89.4688 105.967 89.4688C102.748 89.4688 100.758 87.4553 100.592 84.9062L102.654 83.0049L107.123 81.9062Z" fill="#FFDA17" stroke="black" stroke-width="2"/>
<path d="M106.437 86.2188L106.873 88.9062" stroke="black" stroke-width="2"/>
<path d="M144.873 81.0469L140.476 82.1455C140.279 86.1406 142.811 88.6094 146.029 88.6094C149.248 88.6094 151.238 86.5959 151.404 84.0469L149.342 82.1455L144.873 81.0469Z" fill="#FFDA17" stroke="black" stroke-width="2"/>
<path d="M145.56 85.3594L145.123 88.0469" stroke="black" stroke-width="2"/>
<path d="M100.935 74.9688C100.752 78.4645 104.986 81.5402 107.998 82.1562" stroke="black" stroke-width="2"/>
<path d="M151.061 74.1094C151.245 77.6051 147.01 80.6808 143.998 81.2969" stroke="black" stroke-width="2"/>
<path d="M96.498 58.7188C96.498 70.9688 101.452 73.1027 104.464 73.7188" stroke="black" stroke-width="2"/>
<path d="M120.748 82.9688L122.123 80.0938L125.623 81.2188L128.998 80.0938L129.873 81.2188" stroke="black" stroke-width="2"/>
<path d="M43.998 133.969V43.9688H83.998" stroke="black" stroke-width="2"/>
<path d="M203.998 70.7188V43.9688H163.998" stroke="black" stroke-width="2"/>
<path d="M203.998 167.281V224.031H163.998" stroke="black" stroke-width="2"/>
<path d="M203.998 74.0312L203.998 77.2188" stroke="black" stroke-width="2"/>
<path d="M203.998 80.6562L203.998 83.8438" stroke="black" stroke-width="2"/>
<path d="M203.998 87.2812L203.998 90.4688" stroke="black" stroke-width="2"/>
<path d="M203.998 93.9062L203.998 97.0938" stroke="black" stroke-width="2"/>
<path d="M203.998 100.531L203.998 103.719" stroke="black" stroke-width="2"/>
<path d="M203.998 107.156L203.998 110.344" stroke="black" stroke-width="2"/>
<path d="M203.998 112.812L203.998 116" stroke="black" stroke-width="2"/>
<path d="M218.736 128.469L214.386 128.469" stroke="black" stroke-width="2"/>
<path d="M192.348 128.469L187.998 128.469" stroke="black" stroke-width="2"/>
<path d="M43.998 197.281V224.031H83.998" stroke="black" stroke-width="2"/>
<path d="M119.373 91.3438L110.641 102.014L116.534 111.809L114.159 114.504L111.284 116.184L99.5342 105.004V98.3789L109.753 91.9688L119.373 91.3438Z" fill="black" stroke="black" stroke-width="2"/>
<path d="M115.756 110.079L120.987 115.842L127.998 119.844L126.265 122.844L122.498 122.844L110.151 117.516L115.513 114.804L115.756 110.079Z" fill="black" stroke="black" stroke-width="2"/>
<path d="M86.748 125.094H91.748L92.623 129.844L90.248 134.969L91.748 137.719H86.748V125.094Z" fill="#545454" stroke="black" stroke-width="2"/>
<path d="M86.123 125.094L101.373 127.78V135.594L86.123 129.969V125.094Z" fill="#C4C4C4" stroke="black" stroke-width="2"/>
<path d="M105.467 114.156L117.467 130.093V137.531H113.092L97.8418 122.281L95.8418 114.156H105.467Z" fill="#483327" stroke="black" stroke-width="2"/>
<path d="M103.373 113.719V120.344L111.748 129.655V137.094H107.373L92.123 121.844V113.719H103.373Z" fill="#995F3F" stroke="black" stroke-width="2"/>
<path d="M101.623 126.719L106.873 127.78V136.969H101.623V126.719Z" fill="#C4C4C4" stroke="black" stroke-width="2"/>
<path d="M94.873 110.681L105.998 109.844L111.748 115.493L103.123 117.43L92.623 115.493L94.873 110.681Z" fill="#9B0000" stroke="black" stroke-width="2"/>
<path d="M93.623 116.594H107.623L113.873 125.094H103.248L97.998 118.469L93.623 124.469L88.123 123.344L93.623 116.594Z" fill="#C4C4C4" stroke="black" stroke-width="2"/>
<path d="M93.623 111.469H107.623L109.748 119.969H100.373L97.998 113.344L93.623 119.344L88.123 118.219L93.623 111.469Z" fill="#C4C4C4" stroke="black" stroke-width="2"/>
<path d="M98.23 113.719C98.23 113.719 96.2867 109.647 100.914 109.666C105.206 109.684 103.457 112.982 103.457 112.982H107.836L114.123 106.154V98.9688H101.973L94.7687 103.574L92.998 111.219L98.23 113.719Z" fill="#C4C4C4" stroke="black" stroke-width="2"/>
<path d="M80.873 125.094H85.873L86.748 129.844L84.373 134.969L85.873 137.719H80.873V125.094Z" fill="#C4C4C4" stroke="black" stroke-width="2"/>
<rect x="133.873" y="125.844" width="15" height="13.125" fill="white" stroke="black" stroke-width="2"/>
<rect x="133.873" y="125.844" width="7.75" height="13.125" fill="white" stroke="black" stroke-width="2"/>
<rect x="133.873" y="132.03" width="15" height="6.93848" fill="white" stroke="black" stroke-width="2"/>
<path d="M162.121 120.165C163.226 122.078 162.57 124.524 160.657 125.629L155.353 128.691C153.439 129.796 150.993 129.14 149.888 127.227L148.873 125.469L161.106 118.406L162.121 120.165Z" fill="white" stroke="black" stroke-width="2"/>
<path d="M135.123 122.969V125.469H147.123V121.969L146.498 121.344V119.594H142.248V121.344H138.373V122.969H135.123Z" fill="#FFC800" stroke="black" stroke-width="2"/>
<path d="M125.311 136.469V138.969H137.311V135.469L136.686 134.844V133.094H132.436V134.844H128.561V136.469H125.311Z" fill="#FFC800" stroke="black" stroke-width="2"/>
<path d="M191.998 136.469V138.969H203.998V135.469L203.373 134.844V133.094H199.123V134.844H195.248V136.469H191.998Z" fill="#FFC800" stroke="black" stroke-width="2"/>
<path d="M68.873 136.469V138.969H80.873V135.469L80.248 134.844V133.094H75.998V134.844H72.123V136.469H68.873Z" fill="#FFC800" stroke="black" stroke-width="2"/>
<path d="M154.123 134.933V138.969H173.498V133.318L172.489 132.309V129.483H165.627V132.309H159.37V134.933H154.123Z" fill="#FFC800" stroke="black" stroke-width="2"/>
<path d="M48.498 135.219V138.969H43.998V133.318L45.0072 132.309L48.498 132.309V135.219Z" fill="#FFC800" stroke="black" stroke-width="2"/>
<path d="M188.873 134.933V138.969H169.498V133.318L170.507 132.309V129.483H177.369V132.309H183.626V134.933H188.873Z" fill="#FFC800" stroke="black" stroke-width="2"/>
<path d="M104.592 98.3789L112.623 116.184L107.373 117.844L98.248 105.469L104.592 98.3789Z" fill="#C4C4C4" stroke="black" stroke-width="2"/>
<path d="M101.748 110.969C101.748 110.969 102.714 107.829 104.373 106.969C105.933 106.16 108.873 106.969 108.873 106.969L105.998 99.7188L99.248 97.8438L96.748 104.344L101.748 110.969Z" fill="#C4C4C4" stroke="black" stroke-width="2"/>
<path d="M102.123 94.3438L106.748 97.2187L110.279 102.969L113.374 102.969L116.585 98.1147L111.248 100.469L109.748 98.9687L113.374 95.7187L119.248 94.3437L114.439 89.3437L111.248 86.3437L110.279 89.3437L102.123 94.3438Z" fill="#995F3F" stroke="black" stroke-width="2"/>
<path d="M119.339 118.281V120.781H127.908V117.281L127.461 116.656V114.906H123.723V116.656H121.66V118.281H119.339Z" fill="#FFC800" stroke="black" stroke-width="2"/>
<path d="M109.844 112.141L113.156 115.328L109.093 118.953L106.093 119.391L105.156 114.453L109.844 112.141Z" fill="#C4C4C4" stroke="black" stroke-width="2"/>
<path d="M112.85 114.699L120.907 119.184L120.891 122.27L119.002 124.062L107.741 119.728C107.962 115.249 110.195 117.007 112.85 114.699Z" fill="#C4C4C4" stroke="black" stroke-width="2"/>
<path d="M34.998 122.969C39.3314 120.219 49.598 113.969 55.998 110.969C62.398 107.969 55.998 113.719 51.998 116.969L62.748 114.969V118.969H71.998" stroke="black" stroke-width="2"/>
<path d="M177.613 118.968L184.363 118.969C211.03 114.219 248.249 111.318 216.249 121.718C210.46 123.6 194.363 128.469 194.363 128.469H211.999" stroke="black" stroke-width="2"/>
<path d="M72.2276 266L73.5444 262.293H78.837L80.1538 266H81.8157L77.0089 252.909H75.3725L70.5657 266H72.2276ZM74.043 260.886L76.1396 254.98H76.2418L78.3384 260.886H74.043ZM87.3576 266.205C89.2496 266.205 89.8888 265.028 90.2212 264.491H90.4002V266H91.8576V252.909H90.3491V257.741H90.2212C89.8888 257.23 89.3008 256.054 87.3832 256.054C84.9031 256.054 83.19 258.023 83.19 261.116C83.19 264.236 84.9031 266.205 87.3576 266.205ZM87.5621 264.849C85.6701 264.849 84.6985 263.188 84.6985 261.091C84.6985 259.02 85.6445 257.409 87.5621 257.409C89.4031 257.409 90.3746 258.892 90.3746 261.091C90.3746 263.315 89.3775 264.849 87.5621 264.849ZM98.5373 266.205C100.429 266.205 101.069 265.028 101.401 264.491H101.58V266H103.037V252.909H101.529V257.741H101.401C101.069 257.23 100.48 256.054 98.5629 256.054C96.0827 256.054 94.3697 258.023 94.3697 261.116C94.3697 264.236 96.0827 266.205 98.5373 266.205ZM98.7418 264.849C96.8498 264.849 95.8782 263.188 95.8782 261.091C95.8782 259.02 96.8242 257.409 98.7418 257.409C100.583 257.409 101.554 258.892 101.554 261.091C101.554 263.315 100.557 264.849 98.7418 264.849ZM111.047 266H119.305V264.594H113.22V264.491L116.16 261.347C118.41 258.937 119.075 257.812 119.075 256.361C119.075 254.341 117.439 252.73 115.137 252.73C112.843 252.73 111.098 254.29 111.098 256.591H112.606C112.606 255.102 113.571 254.111 115.086 254.111C116.505 254.111 117.592 254.98 117.592 256.361C117.592 257.569 116.882 258.464 115.368 260.119L111.047 264.849V266ZM131.022 266.205C133.195 266.205 134.627 264.875 134.882 263.136H133.374C133.093 264.21 132.198 264.849 131.022 264.849C129.232 264.849 128.081 263.366 128.081 261.091C128.081 258.866 129.257 257.409 131.022 257.409C132.351 257.409 133.144 258.227 133.374 259.122H134.882C134.627 257.281 133.067 256.054 130.996 256.054C128.337 256.054 126.573 258.151 126.573 261.142C126.573 264.082 128.26 266.205 131.022 266.205ZM139.977 266.23C141.69 266.23 142.585 265.31 142.892 264.67H142.968V266H144.477V259.531C144.477 256.412 142.099 256.054 140.846 256.054C139.363 256.054 137.676 256.565 136.909 258.355L138.341 258.866C138.673 258.151 139.459 257.384 140.897 257.384C142.284 257.384 142.968 258.119 142.968 259.378V259.429C142.968 260.158 142.227 260.094 140.437 260.324C138.615 260.56 136.627 260.963 136.627 263.213C136.627 265.131 138.11 266.23 139.977 266.23ZM140.207 264.875C139.005 264.875 138.136 264.338 138.136 263.29C138.136 262.139 139.184 261.781 140.36 261.628C141 261.551 142.713 261.372 142.968 261.065V262.446C142.968 263.673 141.997 264.875 140.207 264.875ZM147.23 266H148.739V259.787C148.739 258.457 149.787 257.486 151.219 257.486C151.622 257.486 152.037 257.562 152.139 257.588V256.054C151.967 256.041 151.57 256.028 151.347 256.028C150.171 256.028 149.148 256.693 148.79 257.665H148.688V256.182H147.23V266ZM157.336 266.205C159.228 266.205 159.867 265.028 160.2 264.491H160.379V266H161.836V252.909H160.328V257.741H160.2C159.867 257.23 159.279 256.054 157.362 256.054C154.882 256.054 153.169 258.023 153.169 261.116C153.169 264.236 154.882 266.205 157.336 266.205ZM157.541 264.849C155.649 264.849 154.677 263.188 154.677 261.091C154.677 259.02 155.623 257.409 157.541 257.409C159.382 257.409 160.353 258.892 160.353 261.091C160.353 263.315 159.356 264.849 157.541 264.849ZM171.763 258.381C171.29 256.987 170.229 256.054 168.286 256.054C166.215 256.054 164.681 257.23 164.681 258.892C164.681 260.247 165.486 261.155 167.289 261.577L168.925 261.96C169.916 262.19 170.382 262.663 170.382 263.341C170.382 264.185 169.487 264.875 168.081 264.875C166.847 264.875 166.074 264.344 165.806 263.29L164.374 263.648C164.725 265.316 166.1 266.205 168.107 266.205C170.389 266.205 171.942 264.958 171.942 263.264C171.942 261.896 171.085 261.033 169.334 260.605L167.877 260.247C166.713 259.96 166.189 259.57 166.189 258.815C166.189 257.972 167.084 257.358 168.286 257.358C169.602 257.358 170.146 258.087 170.408 258.764L171.763 258.381ZM50.2821 278.182H48.0833V277.185C48.0833 276.213 48.4924 275.702 49.4895 275.702C49.9242 275.702 50.1799 275.804 50.3333 275.855L50.7679 274.551C50.5378 274.449 50.0776 274.295 49.3361 274.295C47.9299 274.295 46.5748 275.139 46.5748 276.827V278.182H44.9895V279.46H46.5748V288H48.0833V279.46H50.2821V278.182ZM52.3963 288H53.9048V281.787C53.9048 280.457 54.9531 279.486 56.3849 279.486C56.7876 279.486 57.2031 279.562 57.3054 279.588V278.054C57.1328 278.041 56.7365 278.028 56.5128 278.028C55.3366 278.028 54.3139 278.693 53.956 279.665H53.8537V278.182H52.3963V288ZM62.7834 288.205C65.4425 288.205 67.2322 286.185 67.2322 283.142C67.2322 280.074 65.4425 278.054 62.7834 278.054C60.1243 278.054 58.3345 280.074 58.3345 283.142C58.3345 286.185 60.1243 288.205 62.7834 288.205ZM62.7834 286.849C60.7635 286.849 59.843 285.111 59.843 283.142C59.843 281.173 60.7635 279.409 62.7834 279.409C64.8033 279.409 65.7237 281.173 65.7237 283.142C65.7237 285.111 64.8033 286.849 62.7834 286.849ZM69.535 288H71.0435V281.864C71.0435 280.425 72.0918 279.409 73.2679 279.409C74.4121 279.409 75.2111 280.157 75.2111 281.276V288H76.7452V281.608C76.7452 280.342 77.5378 279.409 78.9185 279.409C79.9924 279.409 80.9128 279.978 80.9128 281.429V288H82.4213V281.429C82.4213 279.121 81.1813 278.054 79.4299 278.054C78.0236 278.054 76.9945 278.7 76.4895 279.716H76.3873C75.9015 278.668 75.0449 278.054 73.7537 278.054C72.4753 278.054 71.5293 278.668 71.1202 279.716H70.9924V278.182H69.535V288ZM90.242 291.682H91.7505V286.491H91.8784C92.2108 287.028 92.85 288.205 94.742 288.205C97.1966 288.205 98.9096 286.236 98.9096 283.116C98.9096 280.023 97.1966 278.054 94.7164 278.054C92.7988 278.054 92.2108 279.23 91.8784 279.741H91.6994V278.182H90.242V291.682ZM91.725 283.091C91.725 280.892 92.6966 279.409 94.5375 279.409C96.4551 279.409 97.4011 281.02 97.4011 283.091C97.4011 285.188 96.4295 286.849 94.5375 286.849C92.7221 286.849 91.725 285.315 91.725 283.091ZM105.199 288.205C107.858 288.205 109.648 286.185 109.648 283.142C109.648 280.074 107.858 278.054 105.199 278.054C102.54 278.054 100.751 280.074 100.751 283.142C100.751 286.185 102.54 288.205 105.199 288.205ZM105.199 286.849C103.18 286.849 102.259 285.111 102.259 283.142C102.259 281.173 103.18 279.409 105.199 279.409C107.219 279.409 108.14 281.173 108.14 283.142C108.14 285.111 107.219 286.849 105.199 286.849ZM115.94 288.205C118.599 288.205 120.388 286.185 120.388 283.142C120.388 280.074 118.599 278.054 115.94 278.054C113.281 278.054 111.491 280.074 111.491 283.142C111.491 286.185 113.281 288.205 115.94 288.205ZM115.94 286.849C113.92 286.849 112.999 285.111 112.999 283.142C112.999 281.173 113.92 279.409 115.94 279.409C117.96 279.409 118.88 281.173 118.88 283.142C118.88 285.111 117.96 286.849 115.94 286.849ZM124.2 274.909H122.691V288H124.2V274.909ZM136.295 278.182H134.199V275.83H132.69V278.182H131.207V279.46H132.69V285.597C132.69 287.31 134.071 288.128 135.349 288.128C135.912 288.128 136.27 288.026 136.474 287.949L136.167 286.594C136.039 286.619 135.835 286.67 135.502 286.67C134.838 286.67 134.199 286.466 134.199 285.188V279.46H136.295V278.182ZM142.447 288.205C145.107 288.205 146.896 286.185 146.896 283.142C146.896 280.074 145.107 278.054 142.447 278.054C139.788 278.054 137.999 280.074 137.999 283.142C137.999 286.185 139.788 288.205 142.447 288.205ZM142.447 286.849C140.428 286.849 139.507 285.111 139.507 283.142C139.507 281.173 140.428 279.409 142.447 279.409C144.467 279.409 145.388 281.173 145.388 283.142C145.388 285.111 144.467 286.849 142.447 286.849ZM158.25 288.205C160.423 288.205 161.855 286.875 162.111 285.136H160.602C160.321 286.21 159.426 286.849 158.25 286.849C156.46 286.849 155.31 285.366 155.31 283.091C155.31 280.866 156.486 279.409 158.25 279.409C159.58 279.409 160.372 280.227 160.602 281.122H162.111C161.855 279.281 160.296 278.054 158.225 278.054C155.566 278.054 153.801 280.151 153.801 283.142C153.801 286.082 155.489 288.205 158.25 288.205ZM165.825 282.094C165.825 280.381 166.918 279.409 168.407 279.409C169.826 279.409 170.683 280.304 170.683 281.864V288H172.191V281.761C172.191 279.237 170.849 278.054 168.842 278.054C167.295 278.054 166.413 278.7 165.953 279.716H165.825V274.909H164.316V288H165.825V282.094ZM177.84 288.23C179.553 288.23 180.448 287.31 180.755 286.67H180.832V288H182.34V281.531C182.34 278.412 179.962 278.054 178.71 278.054C177.227 278.054 175.539 278.565 174.772 280.355L176.204 280.866C176.536 280.151 177.322 279.384 178.761 279.384C180.148 279.384 180.832 280.119 180.832 281.378V281.429C180.832 282.158 180.09 282.094 178.3 282.324C176.479 282.56 174.491 282.963 174.491 285.213C174.491 287.131 175.974 288.23 177.84 288.23ZM178.07 286.875C176.869 286.875 175.999 286.338 175.999 285.29C175.999 284.139 177.048 283.781 178.224 283.628C178.863 283.551 180.576 283.372 180.832 283.065V284.446C180.832 285.673 179.86 286.875 178.07 286.875ZM185.094 288H186.602V278.182H185.094V288ZM185.861 276.545C186.449 276.545 186.934 276.085 186.934 275.523C186.934 274.96 186.449 274.5 185.861 274.5C185.273 274.5 184.787 274.96 184.787 275.523C184.787 276.085 185.273 276.545 185.861 276.545ZM190.874 282.094C190.874 280.381 191.935 279.409 193.379 279.409C194.779 279.409 195.629 280.323 195.629 281.864V288H197.138V281.761C197.138 279.256 195.802 278.054 193.814 278.054C192.331 278.054 191.411 278.719 190.95 279.716H190.822V278.182H189.365V288H190.874V282.094ZM200.994 288.102C201.627 288.102 202.144 287.585 202.144 286.952C202.144 286.319 201.627 285.801 200.994 285.801C200.361 285.801 199.843 286.319 199.843 286.952C199.843 287.585 200.361 288.102 200.994 288.102Z" fill="black" fill-opacity="0.87"/>
<path d="M216 160H236V176L228 184.5L236 192V208H226H216V160Z" fill="#FF4B3C" stroke="black" stroke-width="2"/>
<path d="M216 160H236V176L228 184.5L236 192V208H226H216V160Z" fill="black" fill-opacity="0.17"/>
<path d="M224 168L216 160V168H224Z" fill="black" fill-opacity="0.38" stroke="black" stroke-width="2" stroke-linejoin="bevel"/>
<path d="M248 176L240 184L248 192V176Z" fill="#D4D4D4"/>
<path d="M32 160H12V176L20 184.5L12 192V208H22H32V160Z" fill="#FF4B3C" stroke="black" stroke-width="2"/>
<path d="M32 160H12V176L20 184.5L12 192V208H22H32V160Z" fill="black" fill-opacity="0.17"/>
<path d="M24 168L32 160V168H24Z" fill="black" fill-opacity="0.38" stroke="black" stroke-width="2" stroke-linejoin="bevel"/>
<path d="M0 176L8 184L0 192V176Z" fill="#D4D4D4"/>
<path d="M224 168H24V216H224V168Z" fill="#FF4B3C" stroke="black" stroke-width="2"/>
<path d="M95.0448 203.36C92.5728 203.36 90.5928 202.484 89.1048 200.732C87.6168 198.98 86.8728 196.388 86.8728 192.956C86.8728 191.348 86.9688 189.872 87.1608 188.528C87.3528 187.184 87.6168 186.092 87.9528 185.252C88.3608 184.676 88.9968 184.052 89.8608 183.38C90.7248 182.708 91.5888 182.132 92.4528 181.652C93.3408 181.172 93.9768 180.932 94.3608 180.932C95.1528 180.956 96.3528 181.028 97.9608 181.148C99.5928 181.244 100.913 181.34 101.921 181.436L101.489 187.772H99.3288L98.8968 184.136C98.2968 184.016 97.4088 183.896 96.2328 183.776C95.0808 183.656 94.2648 183.596 93.7848 183.596C93.3288 183.596 92.9568 183.668 92.6688 183.812C92.1408 184.076 91.7208 184.928 91.4088 186.368C91.1208 187.784 90.9768 189.596 90.9768 191.804C90.9768 195.092 91.3368 197.396 92.0568 198.716C92.7768 200.012 93.7968 200.66 95.1168 200.66L98.8248 200.3V194.828L95.4768 194.216V192.38H104.261V193.964L102.317 194.432V200.912C101.813 201.248 100.565 201.74 98.5728 202.388C96.6048 203.036 95.4288 203.36 95.0448 203.36ZM108.759 203.36C108.639 203.36 108.387 203.18 108.003 202.82C107.643 202.46 107.463 202.22 107.463 202.1V189.032L106.131 188.564V187.052C108.267 186.668 109.455 186.476 109.695 186.476C109.815 186.476 110.079 186.68 110.487 187.088C110.919 187.472 111.135 187.712 111.135 187.808L111.063 189.14C112.815 187.244 113.763 186.296 113.907 186.296C114.339 186.296 115.167 186.488 116.391 186.872C116.463 187.04 116.523 187.244 116.571 187.484C116.619 187.7 116.643 187.904 116.643 188.096C116.643 188.288 116.475 188.708 116.139 189.356C115.827 189.98 115.623 190.316 115.527 190.364C114.591 190.004 113.931 189.824 113.547 189.824C113.379 189.824 113.067 189.932 112.611 190.148C112.155 190.34 111.687 190.58 111.207 190.868V200.48L113.151 201.056V202.712C110.463 203.144 108.999 203.36 108.759 203.36ZM123.789 203.36C122.661 203.36 121.617 203.072 120.657 202.496C119.721 201.92 118.965 201.056 118.389 199.904C117.837 198.752 117.561 197.348 117.561 195.692C117.561 194.516 117.645 193.412 117.813 192.38C117.981 191.348 118.197 190.58 118.461 190.076C118.725 189.716 119.253 189.236 120.045 188.636C120.837 188.012 121.629 187.472 122.421 187.016C123.237 186.56 123.801 186.332 124.113 186.332C125.433 186.332 126.513 186.548 127.353 186.98C128.193 187.412 128.841 188.228 129.297 189.428C129.753 190.604 129.981 192.272 129.981 194.432L121.485 195.152C121.485 196.472 121.653 197.528 121.989 198.32C122.349 199.112 122.769 199.676 123.249 200.012C123.729 200.348 124.185 200.516 124.617 200.516L129.441 200.336V201.956C128.601 202.244 127.533 202.556 126.237 202.892C124.941 203.204 124.125 203.36 123.789 203.36ZM126.129 192.884C126.129 190.052 125.385 188.624 123.897 188.6H123.609C123.225 188.6 122.877 188.66 122.565 188.78C122.277 188.876 122.037 189.404 121.845 190.364C121.653 191.3 121.557 192.344 121.557 193.496L126.129 192.884ZM138.625 203.36C137.497 203.36 136.453 203.072 135.493 202.496C134.557 201.92 133.801 201.056 133.225 199.904C132.673 198.752 132.397 197.348 132.397 195.692C132.397 194.516 132.481 193.412 132.649 192.38C132.817 191.348 133.033 190.58 133.297 190.076C133.561 189.716 134.089 189.236 134.881 188.636C135.673 188.012 136.465 187.472 137.257 187.016C138.073 186.56 138.637 186.332 138.949 186.332C140.269 186.332 141.349 186.548 142.189 186.98C143.029 187.412 143.677 188.228 144.133 189.428C144.589 190.604 144.817 192.272 144.817 194.432L136.321 195.152C136.321 196.472 136.489 197.528 136.825 198.32C137.185 199.112 137.605 199.676 138.085 200.012C138.565 200.348 139.021 200.516 139.453 200.516L144.277 200.336V201.956C143.437 202.244 142.369 202.556 141.073 202.892C139.777 203.204 138.961 203.36 138.625 203.36ZM140.965 192.884C140.965 190.052 140.221 188.624 138.733 188.6H138.445C138.061 188.6 137.713 188.66 137.401 188.78C137.113 188.876 136.873 189.404 136.681 190.364C136.489 191.3 136.393 192.344 136.393 193.496L140.965 192.884ZM152.993 203.36C151.961 203.36 151.001 203.072 150.113 202.496C149.249 201.92 148.553 201.056 148.025 199.904C147.497 198.752 147.233 197.348 147.233 195.692C147.233 194.492 147.317 193.4 147.485 192.416C147.653 191.408 147.869 190.628 148.133 190.076C148.541 189.524 149.441 188.78 150.833 187.844C152.249 186.908 153.185 186.44 153.641 186.44C154.097 186.44 155.069 186.56 156.557 186.8V182.264L155.225 181.76V180.248C157.553 179.84 158.825 179.636 159.041 179.636C159.161 179.636 159.401 179.816 159.761 180.176C160.145 180.512 160.337 180.752 160.337 180.896L160.157 187.556V200.696L161.417 201.2V202.748C159.233 203.156 158.021 203.36 157.781 203.36C157.685 203.36 157.445 203.18 157.061 202.82C156.701 202.46 156.521 202.22 156.521 202.1V200.804C156.209 201.02 155.933 201.236 155.693 201.452C155.477 201.62 154.997 201.98 154.253 202.532C153.533 203.084 153.113 203.36 152.993 203.36ZM153.389 200.444C153.605 200.444 154.613 200 156.413 199.112V189.428C155.717 189.212 154.949 189.008 154.109 188.816C153.293 188.624 152.753 188.564 152.489 188.636C152.057 188.732 151.733 189.272 151.517 190.256C151.301 191.24 151.193 192.884 151.193 195.188C151.193 196.34 151.313 197.312 151.553 198.104C151.817 198.896 152.117 199.484 152.453 199.868C152.813 200.252 153.125 200.444 153.389 200.444Z" fill="white"/>
<defs>
<linearGradient id="paint0_linear_83_28" x1="54.498" y1="55.4687" x2="199.998" y2="89.9688" gradientUnits="userSpaceOnUse">
<stop stop-opacity="0.31"/>
<stop offset="1"/>
</linearGradient>
<linearGradient id="paint1_linear_83_28" x1="193.248" y1="166.058" x2="47.748" y2="131.558" gradientUnits="userSpaceOnUse">
<stop stop-opacity="0.31"/>
<stop offset="1"/>
</linearGradient>
</defs>
</svg>
