<svg width="249" height="320" viewBox="0 0 249 320" fill="none" xmlns="http://www.w3.org/2000/svg">
<g clip-path="url(#clip0_71_57)">
<path d="M0.5 6C0.5 2.6863 3.18629 0 6.5 0H242.5C245.814 0 248.5 2.68629 248.5 6V314C248.5 317.314 245.814 320 242.5 320H6.49999C3.18629 320 0.5 317.314 0.5 314V6Z" fill="white"/>
<rect x="1" y="0.5" width="247" height="319" rx="5.5" fill="white" stroke="#D4D4D4"/>
<rect x="44.5" y="44" width="160" height="124" fill="white"/>
<path d="M45 44.7603H204.501V92.9029C204.501 92.9029 180.091 80.0952 163 77.5C123.25 71.4643 103.5 121 66 112C55.2211 109.413 45 92.9029 45 92.9029V44.7603Z" fill="url(#paint0_linear_71_57)"/>
<path d="M45.5 135.125C56.9991 132.826 67.25 144.375 78 130.375L53.5 128.375C81.7361 116.204 94.8188 135.125 123.25 135.125C132.85 135.125 132.75 133.458 131.5 132.625L135 136.375L136.25 132.625C142.833 130.125 159.5 125.175 173.5 125.375C187.5 125.575 182.833 115.125 178.75 109.875L189.5 113.375V109.875H192.75V106.625L183.75 100.875L185.75 99.125L195.25 104.375H211.25" stroke="black" stroke-width="2"/>
<path d="M152.75 59.8742C152.75 59.8742 162.75 57.1252 169.75 58.75C176.75 60.3748 181.5 62.8746 181.5 67.3747L182.5 64.3747L184.5 70.3747L187.5 72.3747L185.5 74.3746L186.5 75.3746V79.3746L184.5 83.3746L183.5 82.3746L181.5 88.3746L177.5 89.3746L172.5 99.3747L166.5 97.3747L165.5 95.375L166.5 84.3746L164.5 82.3746V79.3746L160.5 83.3746C159.786 86.5892 156 94.625 156.75 97.875C157.701 101.996 160.5 102.24 160.5 107L174.5 108.375L176.5 111.375V116.375L170.5 119.375V115.375L157.875 117.375L158.75 124.375L166.5 125.5V133.125H153.75L145.5 122.375C133.709 128.925 120.089 127.279 111.5 123.375C106.391 121.052 104.883 118.308 104.5 116.466V123.375V138.375L117.125 146.125L112.5 149.375L96.5 140.375L95.5 131.375L84.5 138.375V153.375L81.5 150.375H76.5V135.375L85.5 127.375V123.375C72 109.625 79.3123 88.3738 98 88.3746C109.289 88.3751 113.625 93 131.5 87.3746C131.5 87.3746 138.258 71.6104 146.875 65.9994C150.426 63.6869 156.75 61.4995 156.75 61.4995L152.75 59.8742Z" fill="#515151"/>
<path d="M164.5 79.3746V82.3746L166.5 84.3746L165.5 95.375L166.5 97.3747L172.5 99.3747L177.5 89.3746L181.5 88.3746L183.5 82.3746L184.5 83.3746L186.5 79.3746V75.3746L185.5 74.3746L187.5 72.3747L184.5 70.3747L182.5 64.3747L181.5 67.3747C181.5 62.8746 176.75 60.3748 169.75 58.75C162.75 57.1252 152.75 59.8742 152.75 59.8742L156.75 61.4995C156.75 61.4995 150.426 63.6869 146.875 65.9994C138.258 71.6104 131.5 87.3746 131.5 87.3746C113.625 93 109.289 88.3751 98 88.3746C79.3123 88.3738 72 109.625 85.5 123.375V127.375L76.5 135.375V150.375H81.5L84.5 153.375V138.375L95.5 131.375M164.5 79.3746L165.5 74.3746H167.5M164.5 79.3746L160.5 83.3746C159.786 86.5892 156 94.625 156.75 97.875C157.701 101.996 160.5 102.24 160.5 107M160.5 107L174.5 108.375L176.5 111.375V116.375L170.5 119.375V115.375L157.875 117.375M160.5 107L157.875 117.375M157.875 117.375L158.75 124.375L166.5 125.5V133.125H153.75L145.5 122.375C133.709 128.925 120.089 127.279 111.5 123.375C102.911 119.471 104.5 114.375 104.5 114.375V123.375V138.375L117.125 146.125L112.5 149.375L96.5 140.375L95.5 131.375M157.875 117.375L154.5 110.375M95.5 131.375C99.5 129.375 104.433 124.375 104.433 124.375" stroke="black" stroke-width="2"/>
<path d="M100.71 147.375C98.3428 147.375 89.8621 151.375 85.9176 153.375C80.9274 147.722 75.1905 146.878 68.1672 149.375C76.8816 140.538 44.5845 149.344 44.5 149.375V224H204.5V105.875C197.263 106.182 192.86 109.448 190.448 116.375C181.039 113.422 171.413 116.677 164.808 123.375V135.375L152.975 142.875L138.183 138.375L136.21 140.875L150.016 146.375C146.085 147.039 142.048 147.395 138.183 148.375C134.238 149.375 122.404 145.375 118.46 145.375C114.515 145.375 111.557 151.375 109.585 150.375C107.612 149.375 103.668 147.375 100.71 147.375Z" fill="#C4C4C4" stroke="black" stroke-width="2"/>
<path d="M177.5 82.375L176.5 86.375" stroke="black" stroke-width="2"/>
<path d="M82.5 96.3751L80.5 98.3756C61.3891 92.0053 61.875 125.375 37 106.376C49.1112 106.366 68.375 67.1251 82.5 96.3751Z" fill="#515151" stroke="black" stroke-width="2"/>
<path d="M132.5 86.4998L129.499 88.3748C129.986 88.9833 135 95.625 135 95.625L138.5 93.9375V101.375C138.5 101.375 132.791 115.732 132.5 120.375C132.21 125.017 139.499 127.375 139.499 127.375L126.5 125.375L127.499 120.375L128.5 102.375L114.625 89.7498L111 84.4998L129.499 54.8748L133.5 55.3748L131.5 52.4998L135.625 50.1248C135.625 50.1248 136.438 47.7505 138.812 47.2189C141.188 46.6873 142.812 48.0623 142.812 48.0623L146.499 50.1248L144.5 53.2498L141.5 61.7498L137.375 59.7498L139.125 65.3748L142.688 69.5623L139.125 73.6874L146.499 77.3748L150.5 78.3748L152.5 79.3748L149.5 83.8748L144.5 81.3748L130.438 78.75L129 80.25V83.0962C132.438 84.688 132.5 86.4998 132.5 86.4998Z" fill="#C4C4C4"/>
<path d="M137.375 59.7498L141.5 61.7498L144.5 53.2498L146.499 50.1248L142.812 48.0623C142.812 48.0623 141.188 46.6873 138.812 47.2189C136.438 47.7505 135.625 50.1248 135.625 50.1248L131.5 52.4998L133.5 55.3748L129.499 54.8748L111 84.4998L114.625 89.7498L128.5 102.375L127.499 120.375L126.5 125.375L139.499 127.375C139.499 127.375 132.21 125.017 132.5 120.375C132.791 115.732 138.5 101.375 138.5 101.375V93.9375L135 95.625C135 95.625 129.986 88.9833 129.499 88.3748L132.5 86.4998C132.5 86.4998 132.375 82.8748 122.75 81.3748M137.375 59.7498L136.625 72.9375L139.125 73.6874M137.375 59.7498L139.125 65.3748L142.688 69.5623L139.125 73.6874M130.438 78.75L144.5 81.3748L149.5 83.8748L152.5 79.3748L150.5 78.3748L146.499 77.3748L139.125 73.6874M130.438 78.75C129.356 74.4264 129 68.5623 129.499 64.3748M130.438 78.75L129 80.25V83.8748" stroke="black" stroke-width="2"/>
<path d="M133.5 117.375L129.5 116.375L125.5 112.375L127.5 120.375" stroke="black" stroke-width="2"/>
<path d="M136.938 105.625H132.75L129.062 103.438V106.5L126.5 105.062L128.25 110.375" stroke="black" stroke-width="2"/>
<path d="M158.375 66V71.375L154.5 69.75L156.5 73.75L152.375 75.25L154.5 79.375L146.625 88.375L140.625 91.5L138.875 88.375V92.875L134.625 94.625" stroke="black" stroke-width="2"/>
<path d="M163 67.75L165.5 64.625L167 67H171.375L175.75 68.5V70.875L173.5 74.125L175 74.75L175.75 78.5H180.625L184.5 83.5" stroke="black" stroke-width="2"/>
<path d="M131.5 91C131.5 91 127.45 91.4836 125.5 93C123.959 94.1988 122.5 97 122.5 97" stroke="black" stroke-width="2"/>
<path d="M137.125 94.1875C137.125 94.1875 129.312 94.4997 130.938 98.3747C129.396 99.5735 127.938 102.375 127.938 102.375" stroke="black" stroke-width="2"/>
<path d="M123.937 91.6253C123.937 91.6253 127.687 90.6878 128.625 87.3128L120.313 80.875L124.313 76.375C123.542 76.4791 121.75 76.525 120.75 75.875C119.75 75.225 115.708 78.1875 113.813 79.75L112.313 83.375C112.313 83.375 112.187 90.0003 114.5 95.1253C117.812 96.0628 121.187 93.4378 121.187 93.4378L118.25 86.8128L123.937 91.6253Z" fill="#C4C4C4" stroke="black" stroke-width="2"/>
<path d="M126.375 100.125L119.625 100.875L114.125 97.75L114.875 103.5L110.125 104.25L106.75 88.5" stroke="black" stroke-width="2"/>
<path d="M128 102.875L119 104.375V106.125L106.625 108.25L102.875 88.5" stroke="black" stroke-width="2"/>
<path d="M114.688 124.625L111.625 107.125" stroke="black" stroke-width="2"/>
<path d="M140.875 124.375L137.25 105.125" stroke="black" stroke-width="2"/>
<path d="M152.5 78.375L150.5 76.375L146.5 77.375L145.5 79.375L141.5 78.375L144.5 81.375L149.5 84.0625L152.5 83.375H152.938L149.5 82.375L150.5 80.375L153.5 81.375M151.5 79.375H154.5" stroke="black" stroke-width="2"/>
<path d="M123.499 56.375L133.499 55.75C133.499 55.75 127.7 63.375 120.5 75.375C113.3 87.375 76.4167 71.5417 66.75 70.875C77.9207 67.4582 76.5882 64.2431 73.7885 62.2349C72.3633 61.6066 70.9325 60.905 69.5 60.1248C69.5 60.1248 71.9579 60.9218 73.7885 62.2349C100.221 73.8882 124.758 60.358 123.499 56.375Z" fill="#FF4B3C" stroke="black" stroke-width="2"/>
<path d="M82.4999 88.375C79.0222 70.9868 71.5005 81.375 71.5005 81.375L64.0205 65.3624C82.2405 72.2968 114.979 81.9366 123.5 56.375L127.25 56.0625L128.25 49.0625L140.75 57.4375L130.625 60.0625C115.746 79.6233 110.646 90.3161 82.4999 88.375Z" fill="#FF4B3C" stroke="black" stroke-width="2"/>
<path d="M132.656 55.9062L128.5 59.0469L128.156 62.8594L129.875 62.75L127.953 62.9375L127.625 66.125C127.625 66.125 128.938 69.6875 133.812 69.4375C138.688 69.1875 139.5 65.375 139.5 65.375L138.859 61.9687L138.659 61.9827L137.625 58.375L132.656 55.9062Z" fill="#C4C4C4" stroke="black" stroke-width="2"/>
<path d="M133.141 59.9062L133.812 66.5625" stroke="black" stroke-width="2"/>
<path d="M135.688 62.2031L131.141 62.625" stroke="black" stroke-width="2"/>
<path d="M175.5 94.125L166.125 91C163.709 86.75 157.475 78.025 151.875 77.125C151.875 81.5 144.625 83.75 165.5 94.75" stroke="black" stroke-width="2"/>
<path d="M212 128.375C200.417 130.792 176 136.125 171 138.125C166 140.125 168.917 143.125 171 144.375L193.25 140.875L187.75 145.625C188.917 146.958 190.9 150.625 189.5 154.625C185.895 164.925 168.75 167.674 168.75 180.125" stroke="black" stroke-width="2"/>
<path d="M165.5 147.375L154.25 149.375C166.877 148.133 177.293 155.582 165.5 167.375C159.5 173.375 156.375 176 156.375 180.125" stroke="black" stroke-width="2"/>
<path d="M148 150.875C139.5 152.625 120.95 156.675 114.75 158.875C108.55 161.075 114 160.792 117.5 160.375C121.834 159.792 130.7 159.725 131.5 164.125C132.944 172.065 114.752 171.79 114.75 180.125" stroke="black" stroke-width="2"/>
<path d="M37.5 153.874C43.4167 152.874 56.7744 151.059 62.75 152.374C69.5625 153.875 68.8125 156.062 68.8125 156.062L80.25 155.125C79 157.375 75.5 162.375 71.5 164.375C67.5 166.375 46 178.542 35.75 184.375C47.8333 179.542 74.15 169.325 82.75 167.125" stroke="black" stroke-width="2"/>
<path d="M89.75 165.125C92.6667 164.292 99.55 162.425 103.75 161.625" stroke="black" stroke-width="2"/>
<path d="M21.0625 157.875C21.0625 157.875 28.6875 155.562 35.0625 154.375" stroke="black" stroke-width="2"/>
<path d="M58.9689 56.7194C60.9375 56.7194 63.5312 57.4688 66.9065 59.0632" stroke="black" stroke-width="2"/>
<path d="M189.5 154.743C190.226 153.419 191.939 150.451 192.984 149.18" stroke="black" stroke-width="2"/>
<path d="M124.251 142.625C127.501 146.125 135.501 148.375 135.501 148.375" stroke="black" stroke-width="2"/>
<path d="M88.4377 76.815L90.4645 76.8145" stroke="black" stroke-width="2"/>
<path d="M93.2199 76.5962L95.2467 76.5958" stroke="black" stroke-width="2"/>
<path d="M97.9074 76.4087L99.9342 76.4083" stroke="black" stroke-width="2"/>
<path d="M102.385 76.2095L104.412 76.2091" stroke="black" stroke-width="2"/>
<path d="M204.5 84.2833V82.2188" stroke="black" stroke-width="2"/>
<path d="M204.5 88.2364V86.1719" stroke="black" stroke-width="2"/>
<path d="M204.5 92.1895V90.125" stroke="black" stroke-width="2"/>
<path d="M204.5 96.1427V94.0781" stroke="black" stroke-width="2"/>
<path d="M204.5 100.096V98.0312" stroke="black" stroke-width="2"/>
<path d="M204.5 104.049V101.984" stroke="black" stroke-width="2"/>
<path d="M204.5 108.002V105.938" stroke="black" stroke-width="2"/>
<path d="M204.5 111.955V109.891" stroke="black" stroke-width="2"/>
<path d="M44.2343 66.9697C60.7691 66.9697 67.727 76.8754 85.9463 76.8754" stroke="black" stroke-width="2"/>
<path d="M204.501 79.875V44H44.7656V98" stroke="black" stroke-width="2"/>
<path d="M64.1926 263.909V277H65.6756V267.054H65.8034L69.8944 277H71.3262L75.4171 267.054H75.5449V277H77.0279V263.909H75.1358L70.687 274.776H70.5336L66.0847 263.909H64.1926ZM83.9904 277.205C86.6495 277.205 88.4393 275.185 88.4393 272.142C88.4393 269.074 86.6495 267.054 83.9904 267.054C81.3313 267.054 79.5415 269.074 79.5415 272.142C79.5415 275.185 81.3313 277.205 83.9904 277.205ZM83.9904 275.849C81.9705 275.849 81.0501 274.111 81.0501 272.142C81.0501 270.173 81.9705 268.409 83.9904 268.409C86.0103 268.409 86.9308 270.173 86.9308 272.142C86.9308 274.111 86.0103 275.849 83.9904 275.849ZM98.4189 267.182H96.7825L94.0723 275.006H93.97L91.2598 267.182H89.6234L93.2541 277H94.7882L98.4189 267.182ZM104.175 277.205C106.169 277.205 107.627 276.207 108.087 274.724L106.629 274.315C106.246 275.338 105.357 275.849 104.175 275.849C102.404 275.849 101.183 274.705 101.113 272.602H108.24V271.963C108.24 268.307 106.067 267.054 104.021 267.054C101.362 267.054 99.5982 269.151 99.5982 272.168C99.5982 275.185 101.337 277.205 104.175 277.205ZM101.113 271.298C101.215 269.771 102.296 268.409 104.021 268.409C105.658 268.409 106.706 269.636 106.706 271.298H101.113ZM118.487 277.23C120.2 277.23 121.095 276.31 121.401 275.67H121.478V277H122.987V270.531C122.987 267.412 120.609 267.054 119.356 267.054C117.873 267.054 116.186 267.565 115.419 269.355L116.85 269.866C117.183 269.151 117.969 268.384 119.407 268.384C120.794 268.384 121.478 269.119 121.478 270.378V270.429C121.478 271.158 120.737 271.094 118.947 271.324C117.125 271.56 115.137 271.963 115.137 274.213C115.137 276.131 116.62 277.23 118.487 277.23ZM118.717 275.875C117.515 275.875 116.646 275.338 116.646 274.29C116.646 273.139 117.694 272.781 118.87 272.628C119.509 272.551 121.222 272.372 121.478 272.065V273.446C121.478 274.673 120.507 275.875 118.717 275.875ZM127.249 271.094C127.249 269.381 128.31 268.409 129.754 268.409C131.154 268.409 132.004 269.323 132.004 270.864V277H133.513V270.761C133.513 268.256 132.177 267.054 130.189 267.054C128.706 267.054 127.786 267.719 127.325 268.716H127.197V267.182H125.74V277H127.249V271.094ZM136.889 280.682C138.251 280.682 139.21 279.96 139.779 278.432L143.959 267.207L142.31 267.182L139.6 275.006H139.497L136.787 267.182H135.151L138.781 277.051L138.5 277.818C137.95 279.314 137.273 279.455 136.173 279.173L135.79 280.503C135.943 280.58 136.378 280.682 136.889 280.682ZM157.205 272.986C157.205 274.827 155.799 275.67 154.674 275.67C153.421 275.67 152.526 274.75 152.526 273.318V267.182H151.017V273.42C151.017 275.926 152.347 277.128 154.188 277.128C155.671 277.128 156.642 276.335 157.103 275.338H157.205V277H158.713V267.182H157.205V272.986ZM162.985 271.094C162.985 269.381 164.046 268.409 165.491 268.409C166.89 268.409 167.741 269.323 167.741 270.864V277H169.249V270.761C169.249 268.256 167.913 267.054 165.925 267.054C164.442 267.054 163.522 267.719 163.062 268.716H162.934V267.182H161.476V277H162.985V271.094ZM172.006 277H173.514V267.182H172.006V277ZM172.773 265.545C173.361 265.545 173.847 265.085 173.847 264.523C173.847 263.96 173.361 263.5 172.773 263.5C172.185 263.5 171.699 263.96 171.699 264.523C171.699 265.085 172.185 265.545 172.773 265.545ZM180.547 267.182H178.45V264.83H176.942V267.182H175.459V268.46H176.942V274.597C176.942 276.31 178.323 277.128 179.601 277.128C180.164 277.128 180.521 277.026 180.726 276.949L180.419 275.594C180.291 275.619 180.087 275.67 179.754 275.67C179.09 275.67 178.45 275.466 178.45 274.188V268.46H180.547V267.182ZM183.916 277.102C184.548 277.102 185.066 276.585 185.066 275.952C185.066 275.319 184.548 274.801 183.916 274.801C183.283 274.801 182.765 275.319 182.765 275.952C182.765 276.585 183.283 277.102 183.916 277.102Z" fill="black" fill-opacity="0.87"/>
<path d="M216.5 160H236.5V176L228.5 184.5L236.5 192V208H226.5H216.5V160Z" fill="#FF4B3C" stroke="black" stroke-width="2"/>
<path d="M216.5 160H236.5V176L228.5 184.5L236.5 192V208H226.5H216.5V160Z" fill="black" fill-opacity="0.17"/>
<path d="M224.5 168L216.5 160V168H224.5Z" fill="black" fill-opacity="0.38" stroke="black" stroke-width="2" stroke-linejoin="bevel"/>
<path d="M248.5 176L240.5 184L248.5 192V176Z" fill="#D4D4D4"/>
<path d="M32.5 160H12.5V176L20.5 184.5L12.5 192V208H22.5H32.5V160Z" fill="#FF4B3C" stroke="black" stroke-width="2"/>
<path d="M32.5 160H12.5V176L20.5 184.5L12.5 192V208H22.5H32.5V160Z" fill="black" fill-opacity="0.17"/>
<path d="M24.5 168L32.5 160V168H24.5Z" fill="black" fill-opacity="0.38" stroke="black" stroke-width="2" stroke-linejoin="bevel"/>
<path d="M0.5 176L8.5 184L0.5 192V176Z" fill="#D4D4D4"/>
<path d="M224.5 168H24.5V216H224.5V168Z" fill="#FF4B3C" stroke="black" stroke-width="2"/>
<path d="M88.4609 201.452L90.6929 200.696L91.3409 183.56L89.1089 182.804V181.256H96.6329L101.349 197.816H101.781L106.497 181.256H114.021V182.804L111.825 183.56L112.509 200.696L114.741 201.452V203H106.209V201.236L108.585 200.48L108.333 186.08H108.045C107.925 186.608 107.661 187.58 107.253 188.996C106.869 190.412 106.533 191.588 106.245 192.524L103.509 201.344C102.813 201.44 102.093 201.548 101.349 201.668C100.629 201.764 100.113 201.824 99.8009 201.848C99.7049 201.848 99.4889 201.752 99.1529 201.56L96.4169 192.704C96.0569 191.504 95.4569 189.296 94.6169 186.08H94.3289L94.0409 200.48L96.4529 201.236V203H88.4609V201.452ZM124.887 203.36C122.319 203.36 120.387 202.724 119.091 201.452C117.795 200.156 117.147 198.164 117.147 195.476C117.147 194.396 117.231 193.352 117.399 192.344C117.567 191.336 117.783 190.592 118.047 190.112C118.311 189.752 118.839 189.272 119.631 188.672C120.423 188.048 121.227 187.508 122.043 187.052C122.859 186.572 123.411 186.332 123.699 186.332C126.195 186.332 128.079 186.992 129.351 188.312C130.623 189.608 131.259 191.504 131.259 194C131.259 195.152 131.175 196.244 131.007 197.276C130.863 198.284 130.671 199.1 130.431 199.724C130.023 200.252 129.099 200.996 127.659 201.956C126.243 202.892 125.319 203.36 124.887 203.36ZM125.031 201.164C125.175 201.116 125.739 200.84 126.723 200.336C127.107 198.632 127.299 196.676 127.299 194.468C127.299 192.668 126.975 191.24 126.327 190.184C125.703 189.104 124.767 188.564 123.519 188.564C122.991 188.564 122.559 188.648 122.223 188.816C121.887 188.984 121.611 189.608 121.395 190.688C121.203 191.768 121.107 193.196 121.107 194.972C121.107 197.276 121.479 198.884 122.223 199.796C122.991 200.708 123.927 201.164 125.031 201.164ZM138.276 203.396C138.204 203.396 138.036 203.3 137.772 203.108L133.848 189.032L132.444 188.636V187.016C134.58 186.68 135.756 186.512 135.972 186.512C136.092 186.512 136.344 186.656 136.728 186.944C137.136 187.232 137.364 187.46 137.412 187.628L139.5 196.268L140.148 199.364H140.544L143.352 188.924L141.192 188.672V186.8L145.728 186.512C145.848 186.512 146.052 186.692 146.34 187.052C146.652 187.412 146.808 187.676 146.808 187.844L142.092 202.748C139.74 203.18 138.468 203.396 138.276 203.396ZM154.523 203.36C153.395 203.36 152.351 203.072 151.391 202.496C150.455 201.92 149.699 201.056 149.123 199.904C148.571 198.752 148.295 197.348 148.295 195.692C148.295 194.516 148.379 193.412 148.547 192.38C148.715 191.348 148.931 190.58 149.195 190.076C149.459 189.716 149.987 189.236 150.779 188.636C151.571 188.012 152.363 187.472 153.155 187.016C153.971 186.56 154.535 186.332 154.847 186.332C156.167 186.332 157.247 186.548 158.087 186.98C158.927 187.412 159.575 188.228 160.031 189.428C160.487 190.604 160.715 192.272 160.715 194.432L152.219 195.152C152.219 196.472 152.387 197.528 152.723 198.32C153.083 199.112 153.503 199.676 153.983 200.012C154.463 200.348 154.919 200.516 155.351 200.516L160.175 200.336V201.956C159.335 202.244 158.267 202.556 156.971 202.892C155.675 203.204 154.859 203.36 154.523 203.36ZM156.863 192.884C156.863 190.052 156.119 188.624 154.631 188.6H154.343C153.959 188.6 153.611 188.66 153.299 188.78C153.011 188.876 152.771 189.404 152.579 190.364C152.387 191.3 152.291 192.344 152.291 193.496L156.863 192.884Z" fill="white"/>
</g>
<defs>
<linearGradient id="paint0_linear_71_57" x1="45" y1="73" x2="204.501" y2="74" gradientUnits="userSpaceOnUse">
<stop stop-color="#A9D6FF"/>
<stop offset="1" stop-color="#D1F4FF" stop-opacity="0"/>
</linearGradient>
<clipPath id="clip0_71_57">
<path d="M0.5 6C0.5 2.6863 3.18629 0 6.5 0H242.5C245.814 0 248.5 2.68629 248.5 6V314C248.5 317.314 245.814 320 242.5 320H6.49999C3.18629 320 0.5 317.314 0.5 314V6Z" fill="white"/>
</clipPath>
</defs>
</svg>
