<svg width="248" height="320" viewBox="0 0 248 320" fill="none" xmlns="http://www.w3.org/2000/svg">
<path d="M0 6C0 2.6863 2.68629 0 6 0H242C245.314 0 248 2.68629 248 6V314C248 317.314 245.314 320 242 320H5.99999C2.68629 320 0 317.314 0 314V6Z" fill="white"/>
<rect x="0.5" y="0.5" width="247" height="319" rx="5.5" fill="white" stroke="#D4D4D4"/>
<path d="M44.0625 44H204V66H155.906L156.745 60H115.083V68H57.4833L59.4406 76H44.0625V44Z" fill="white"/>
<path d="M147.188 70.25C147.388 70.45 148.562 71.5 149.125 72V73.25L152.062 72.8125L156.062 73.8125V76.5L154.125 77.625V79.0625L152.062 80L153.125 80.875L152.375 82.875L150.562 83.0312C148.812 86.1042 145.312 92.375 145.312 92.875C145.312 93.375 145.521 96.5 145.625 98L141.688 97.25L127.312 80L130.312 77.625L129.438 71.25L134.812 77.625L133.688 79.0625L140.062 88H142.562L144.844 80.5938L144.062 79.5V76L145.312 72.8125L147.188 70.25Z" fill="#BAA689"/>
<path d="M148.75 81.6875L147.188 76.5H152.375L149.688 73.8125M150.562 83.0312L152.375 82.875L153.125 80.875L152.062 80L154.125 79.0625V77.625L156.062 76.5V73.8125L152.062 72.8125L149.125 73.25V72C148.562 71.5 147.388 70.45 147.188 70.25L145.312 72.8125L144.062 76V79.5L144.844 80.5938M150.562 83.0312L148.75 83.1875L145.625 81.6875L144.844 80.5938M150.562 83.0312C148.812 86.1042 145.312 92.375 145.312 92.875C145.312 93.375 145.521 96.5 145.625 98L141.688 97.25L127.312 80L130.312 77.625L129.438 71.25L134.812 77.625L133.688 79.0625L140.062 88H142.562L144.844 80.5938" stroke="black" stroke-width="2"/>
<path d="M142.688 90.25L152.688 72.875L155.287 68.2675L152.062 68L151.312 66.625L140.062 87.125L128.062 115.25L111.312 153.25L113.562 155.125L116.062 154.375L138.812 99.25L142.688 90.25Z" fill="#565656"/>
<path d="M155.438 68L155.287 68.2675M155.287 68.2675L152.688 72.875L142.688 90.25L138.812 99.25L116.062 154.375L113.562 155.125L111.312 153.25L128.062 115.25L140.062 87.125L151.312 66.625L152.062 68L155.287 68.2675Z" stroke="black" stroke-width="2"/>
<path d="M44.0625 104V97.75V94.875V91.25V87.375V44H152.312M155.562 44H204.062V104M37.0625 76H61.5625L52.0625 68H94.5625L82.1875 60H146.062L142.562 66H166.312" stroke="black" stroke-width="2"/>
<path d="M44.0625 164L52.0625 161.25L54.0625 159.875L60.0625 161.25H62.8125L64.0625 158.5L66.3125 156V158.5L70.8125 157.25L78.0625 158.5V148L76.0625 145.25V142.5L78.0625 140L76.0625 137.5L88.0625 133.5L92.0625 142.5L96.0625 145.25L98.3125 148L100.062 144L88.0625 124L91.3125 121.875L96.0625 118.5L110.688 142.5L120.062 145.25H126.812L127.188 147.25L129.562 140H125.688L126.812 136.562H130.562L132.062 132H136.062L134.688 136.875H138.312L137.438 140H133.812L132.062 146.375L134.062 148H137.812L148.062 152L156.062 149.75L160.062 151H165.312L168.062 153.25L169.875 154.75L177.375 150.188L172.312 144.938L176.062 142.5L181.062 147.625L186.312 144.5L189.812 148L184.665 151.157L198.062 163.688L201.812 164L204.062 162.5V189.5V224H44.0625V164Z" fill="#3F4F3D"/>
<path d="M56.0625 158.5L54.0625 159.875M54.0625 159.875L52.0625 161.25L44.0625 164V224H204.062V189.5V162.5L201.812 164L198.062 163.688L184.665 151.157L189.812 148L186.312 144.5L181.062 147.625L176.062 142.5L172.312 144.938L177.375 150.188L169.875 154.75M54.0625 159.875L60.0625 161.25H62.8125L64.0625 158.5L66.3125 156V158.5L70.8125 157.25L78.0625 158.5V148L76.0625 145.25V142.5L78.0625 140L76.0625 137.5L88.0625 133.5L92.0625 142.5L96.0625 145.25L98.3125 148L100.062 144L88.0625 124L91.3125 121.875L96.0625 118.5M96.0625 118.5H102.312L113.438 136M96.0625 118.5L110.688 142.5L120.062 145.25H126.812L127.188 147.25L129.562 140H125.688L126.812 136.562H130.562L132.062 132H136.062L134.688 136.875H138.312L137.438 140H133.812L132.062 146.375L134.062 148H137.812L148.062 152L156.062 149.75L160.062 151H165.312L168.062 153.25L169.875 154.75M174.25 157.688L170.562 156L169.875 154.75M174.25 157.688L184.062 161.25L189.812 162.5L180.562 153.688L174.25 157.688ZM113.438 163.312L113.812 159.062L119 156L125.688 155.125L129.562 159.625L132.75 158L136.875 158.375L141.312 161.188L138.875 162.375L134.062 165.5L142.938 161.938L147.188 164.75L144.062 165L140.062 166.812L142.938 167.688H148.062M198.375 165.375L195.125 168L192.75 165.375M135.438 154.125C135.938 154.925 139.562 156.125 141.312 156.625L149.188 157.25H153.188L150.688 155.125L157.562 158L164.062 159.062L161.188 156L168.062 159.062L171.438 162.875L183.188 166.062M80.0625 142.5L86.5625 158.5L84.0625 161.188M120.062 164L119.438 165L117.562 165.5L116.062 164.75L116.625 162.375H119L120.062 164ZM124.375 163.625L123 162.375V160.438L125.188 159.625L127.562 160.438V162.375L126.812 163.312L124.375 163.625ZM100.062 165C100.062 165.7 100.729 166.875 101.062 167.375L103 169.438C103.729 170.125 105.275 171.6 105.625 172C105.975 172.4 108.188 173.958 109.25 174.688L105.625 169.062C106.542 169.375 108.463 170.062 108.812 170.312C109.25 170.625 115.688 171.625 117.562 172C119.062 172.3 114.104 169.792 111.438 168.5L103.562 165.875L99.6875 164.75L100.062 165Z" stroke="black" stroke-width="2"/>
<path d="M169.312 142.875V144.688M165.375 140.5V143.438M61.5625 154.5L61.375 157.188M56.375 149.5V151.062M171.312 81.8126V79.1876L172.062 78.7501V77.1876L171.312 76.8751L172.562 75.2501V72.6876L173.562 71.3751L172.562 67.1876H171.312V66.2501L171.75 65.8751V64.6251C172.771 64.2084 174.812 63.5001 174.812 64.0001C174.812 64.5001 178.729 64.2084 180.688 64L190.875 60.9375L191.688 64L181.312 66.2501L175.75 66.8125V68L178.312 68.3125V69.25L176.062 70.25L178.938 69.25L182.688 69.5625L184.062 70.25L186.562 74.6875L184.75 79.1876L183.375 78.7501L182.688 80L184.75 81.4375L185.188 82.8125L189.375 87.3125L191.438 93.3125V95.6875L193.5 97.1875L193.875 101.062L196.062 103.062L195 104.812L197 106.625L195.688 109.062L197 111.625L195 113.812L196.062 115.25L194.25 117.812V122.188L192.062 122.688L191.75 124.5C191.333 125.333 190.5 127.088 190.5 127.438C190.5 127.787 191 131.125 191.25 132.75L188.438 132L186.938 129.688L185.25 130.938L187.25 134.625V140L183.438 135.062L181.438 137.812L184.875 141.562L189.812 144.375L188.438 146.812L186.125 144.688L180.875 147.5L179.5 146.062L180.875 144L179.5 142.125L177.188 144L176.062 142.125L174.188 143.438L173.625 142.125L176.062 137.812L172.625 133.188L169.312 129.875V128.562L166.625 124.375L170.562 120V118.25H164.688L155.688 116.438L154.375 117.688L154.688 123.25C154.688 123.25 158.013 125.646 155.688 96.8125L155.375 98.5625L156.938 96H157.75V94.0625L159.375 93.5L161 92.625L162.75 90.3125L161.75 88.5625L164.062 86.8125V84.5H165.375V81.5H166.75L167.5 85.75L171.312 81.8126ZM173 85.0625L172.062 84L168.75 88L169.562 93.3125L172.062 97.8125L173.562 99.375L174.125 94.0625L172.562 95.0625L171.062 92.625L170.562 89.875V87.6875L173 85.0625ZM178.312 97.1875L176.875 98.5625V101.062L178.312 102.438C178.812 102.792 179.8 103.438 179.75 103.188C179.7 102.938 179.396 101.667 179.25 101.062L178.312 97.1875ZM191.75 106.625V105.438C190.438 104.667 187.862 103.238 188.062 103.688C188.263 104.137 188.146 105.833 188.062 106.625L189.375 108L184.75 102.438C184.062 102.604 182.688 102.962 182.688 103.062C182.688 103.163 182.688 105.312 182.688 106.375L181.25 108L176.062 104.75V109.5L174.562 110.125L171.062 108.688L170.25 106.062L168.75 107.312L168.062 103.188L166.625 99.625L164.062 97.8125H160.75L154.688 103.062L158.438 103.188L159.375 106.062L163.312 108V114.438L172.625 115.25L175.188 112L182.188 114.438L184.062 113.125L187.688 111.312L188.438 113.125L193.5 108.688L191.75 106.625ZM44.0625 124V132L45.3125 133.25L49.4375 135.562L50.1875 137.625L52.0625 137.125V134.5L55.3125 132L56.8125 130.312L56.375 143.688L58.5 136L59 140V142.5L59.6875 144V146.25L61.5625 148.75V150.375H63.3125V148H64.75L64.0625 144L67.5 141.75L66.25 137.625V132.875L68.0625 133.25L69.0625 138.625L68.0625 145.25L72.0625 149L78.0625 157.188V152C76.625 150.062 73.775 146.262 73.875 146.562C73.975 146.863 73.1667 144.562 72.75 143.375L71.125 142.875V136L72.75 140.5V134.938L76.625 137.125L75.75 133.25L73.875 131.438L76.625 132L78.625 133.25L76.0625 129.375L70.25 128.375L72.0625 126.188L74.5 125.25L76.9375 126.188L78.625 125.75L80.0625 127L79 128L80.8125 129.062L81.125 131.062L82.625 132.875C82.625 133.167 82.625 133.825 82.625 134.125C82.625 134.425 82.0833 135.208 81.8125 135.562L86.875 134.125V132.562L85.5625 131.062V128.375L84.5 127L84.0625 125.25L82.25 121L85.9375 117.062L85.1875 111.312L81.5 108.312L80.0625 108.625L80.8125 112L79.3125 115.312L76.625 116L77.6875 112.438V106.75L76.0625 106.312L75.75 109.562L74.5 111L73.875 108L72.0625 106.75L72.375 104.75L69.0625 106.75H61.8125L61.375 108.625L60.0625 108.312L59.0625 111L57.6875 111.312L57.3125 109.562H55.3125L54.4375 114.562L52.8125 115L53.125 116L54.0625 116.938L53.125 118.188L50.1875 118.812L44.0625 124ZM59.375 125.375L60.9375 129.25L61.375 133.25L62.625 130.312L65.25 126.188L62.625 127.062L59.375 125.375Z" stroke="black" stroke-width="2"/>
<path d="M85.5625 44.875L76.0625 49.5L78.5625 45.75L86.0625 41.625L96.0625 37.875L114.562 35.375H119.438L127.312 36L138.812 37.875L148.062 41.625L153.562 44L154.108 44.2881L162.562 48.75L164.062 48L165.438 50.5L166.562 49.5L168.062 52H169.812L175.062 56.75L174.062 57.75L171.188 56.75H168.062L164.062 57.75L161.688 58.5V60L160.062 62.625H159.188L157.312 64L158.438 66.25H157.312L156.062 68H152.062L150.938 66.25L152.062 65L152.812 64L152.062 62.625H153.562L152.812 61.375L152.062 58.5L148.062 53.0532L146.188 50.5V48.75L144.938 48L143.438 48.75L138.812 46.625L133.688 44.875V44H132.062L124.938 42.75L116.062 41.625H94.9375L85.5625 44.875Z" fill="#3F3F3F"/>
<path d="M154.108 44.2881L162.562 48.75L164.062 48L165.438 50.5L166.562 49.5L168.062 52H169.812L175.062 56.75L174.062 57.75L171.188 56.75H168.062L164.062 57.75L161.688 58.5V60L160.062 62.625H159.188L157.312 64L158.438 66.25H157.312L156.062 68H152.062L150.938 66.25L152.062 65L152.812 64L152.062 62.625H153.562L152.812 61.375L152.062 58.5L148.062 53.0532M154.108 44.2881L153.562 44L148.062 41.625L138.812 37.875L127.312 36L119.438 35.375H114.562L96.0625 37.875L86.0625 41.625L78.5625 45.75L76.0625 49.5L85.5625 44.875L94.9375 41.625H116.062L124.938 42.75L132.062 44H133.688V44.875L138.812 46.625L143.438 48.75L144.938 48L146.188 48.75V50.5L148.062 53.0532M154.108 44.2881L153.562 47.25L158.438 50.5L154.688 56L150.938 51.25L148.062 53.0532" stroke="black" stroke-width="2"/>
<path d="M90.0625 59C91.5851 58.0746 94 57.8125 94 57.8125V58.25H98.9375L101 57.5L108.5 58.5625L112.688 57.125L116.062 59.5L121.625 60.875L122.438 62.5625L128.812 65.4375C130.719 69.495 131.135 73.3375 130.312 77.75L126.375 81.9375L115 82.9375V81.9375C106.312 81.9375 104.177 79.0978 100.5 73.75L102.938 89.25L104.062 92.6875L106.312 96V97H104.438L102.25 95L104.062 98.0625V101.25L102.25 103.312L97.375 100L93.8142 98.0625L93.125 97.6875L90.875 99.5625L89.4375 98.5L86.375 100L85 97.6875L84.0625 95.5L82.8125 96L80.875 92L81.4375 90.9375L78.875 88.6875L73.5 84L73.8125 83.0625L72.6875 83.5L71.375 81.9375L71.9062 80.9688L72.4375 80L74.5 80.5L78.1875 80L79.625 81.9375L82.8125 84.3281L83.375 84.75L85 83.5L90.0625 88.4375L90.875 88L92.75 89.25L93.4375 88.6875L93.8142 89.054L95.75 90.9375L95.1875 92L96.0625 92.2692L98.4375 93L96.9375 90.5625L95.1875 81.625C92.3222 82.6248 90.3042 81.693 88.9375 79L88.5 73.75C88.5 73.75 86.4864 72.1528 86.375 70.5625L86.841 70.125C86.841 70.125 86.1873 68.2576 86.375 67.0625C86.5868 65.7135 88.0625 64 88.0625 64C88.0625 64 87.9472 60.2856 90.0625 59Z" fill="#E0CFB4"/>
<path d="M88.0625 64C88.0625 64 86.5868 65.7135 86.375 67.0625C86.1873 68.2576 86.841 70.125 86.841 70.125M88.0625 64L94 60.875L98.9375 62.875M88.0625 64C88.0625 64 87.9472 60.2856 90.0625 59C91.5851 58.0746 94 57.8125 94 57.8125V58.25H98.9375L101 57.5L108.5 58.5625L112.688 57.125L116.062 59.5L121.625 60.875L122.438 62.5625L128.812 65.4375C130.719 69.495 131.135 73.3375 130.312 77.75M98.9375 62.875C98.9375 62.875 99.9375 64.25 100.062 64.375L94 64.75L88.9375 67.6875L86.841 70.125M98.9375 62.875L101.75 61.4375L107.25 61.125M100.5 73.75L102.938 89.25L104.062 92.6875L106.312 96V97H104.438L102.25 95L104.062 98.0625V101.25L102.25 103.312L97.375 100L93.8142 98.0625M100.5 73.75L94 75L95.1875 81.625M100.5 73.75C104.177 79.0978 106.312 81.9375 115 81.9375V82.9375L126.375 81.9375M126.375 81.9375L130.312 77.75M126.375 81.9375L123.062 75.8125L115.75 75M130.312 77.75L126.812 75.375L127.312 70.5625L126.812 68.5L124.562 68.8125L123.062 67.6875L121.625 69.375L121.062 72.5H118.438L118.812 69.375L120.5 67.0625L120.062 66.0625L115.75 70.125V76.5625L114.562 78.625L119.342 81.625M118.438 63.7914L118.125 65.125L113.375 69.375L111.375 72.5L108.5 70.5625L110.438 68L110.125 66.0625M110.125 66.0625L114.562 63.7914M110.125 66.0625L106.375 69.375L103.25 67.6875L107.25 64.375L108.062 62.1875M108.062 62.1875L110.438 61.8125V60.875L107.25 61.125M108.062 62.1875L107.25 61.125M108.062 62.1875L104.25 63.1875L100.5 66.625L101 69.375L100.062 70.9375C97.7516 71.118 95.0611 70.9734 93.125 72.5C91.0973 74.0988 88.9375 79 88.9375 79M88.9375 79L88.5 73.75C88.5 73.75 86.4864 72.1528 86.375 70.5625L86.841 70.125M88.9375 79C90.3042 81.693 92.3222 82.6248 95.1875 81.625M95.1875 81.625L96.9375 90.5625L98.4375 93L96.0625 92.2692M96.0625 92.2692L95.1875 92L95.75 90.9375L93.8142 89.054M96.0625 92.2692L93.8142 98.0625M93.8142 98.0625L93.125 97.6875L90.875 99.5625L89.4375 98.5L86.375 100L85 97.6875L84.0625 95.5L82.8125 96L80.875 92L81.4375 90.9375L78.875 88.6875L73.5 84L73.8125 83.0625L72.6875 83.5L71.375 81.9375L71.9062 80.9688L72.4375 80L74.5 80.5L78.1875 80L79.625 81.9375L82.8125 84.3281M93.8142 89.054L93.4375 88.6875L92.75 89.25L90.875 88L90.0625 88.4375L85 83.5L83.375 84.75L82.8125 84.3281M93.8142 89.054L88.9375 95L86.841 93L88.0625 90.9375L84.5625 88.4375L82.8125 89.25L80.875 87.5L82.8125 84.3281" stroke="black" stroke-width="2"/>
<path d="M139.312 122.75L134.688 113.75L138.562 108L139.312 110.25L142.312 112L144.062 115.25L146.562 124.875L151.723 132.875L154.312 125.625L156.812 113.75L158.562 112L159.188 106.375L163.188 108V113.75L164.938 118.875L166.562 124L170.062 129.125L168.688 130.75V132.875L167.312 132V137.5L164.062 135L163.188 130.75L161.188 126.75V124L160.062 121.5L158.562 125.625L156.812 135V140.625L156.062 143.125L152.812 138.875L154.312 142.25L155.062 144L154.312 148H151.188L149.812 150L146.562 146.75V144.625L144.062 134.375L139.312 122.75Z" fill="#BAA689"/>
<path d="M114.688 132L116.062 124L118.188 128H120.062L121.062 129.125L123.562 132L120.062 136L118.632 138.875L118.188 142.25V144L117.694 146.75L117.312 148.875L113.455 151.375L110.562 153.25L108.062 154.75L101.938 156H105.812L101.938 157.5L96.0625 161.125L92.0625 165.375L92.8368 169.827L93.0625 171.125L96.8125 174.625L104.062 178.75H98.6875L88.0625 177.5L82.0625 174.625L80.0625 174L84.0625 165.375L86.0625 163.75L88.0625 162.125L90.3125 158.125L93.0625 153.25L96.0625 148L98.6875 146.75V145.5L100.312 143.875L101.938 142.25H103.312L106.438 140H108.062H109.938L113.562 136L114.688 132Z" fill="#BAA689"/>
<path d="M108.062 140H109.938L113.562 136L114.688 132L116.062 124L118.188 128H120.062L121.062 129.125M108.062 140H106.438L103.312 142.25H101.938L100.312 143.875M108.062 140C107.104 142.25 109.763 146.75 113.562 146.75C117.362 146.75 116.692 146.75 117.694 146.75M117.694 146.75L117.312 148.875L113.455 151.375M117.694 146.75L118.188 144V142.25L118.632 138.875M100.312 143.875L98.6875 145.5V146.75L96.0625 148L93.0625 153.25L90.3125 158.125L88.0625 162.125L86.0625 163.75M100.312 143.875C100.188 146.375 104.113 151.375 108.812 151.375C113.512 151.375 112.866 151.375 113.455 151.375M113.455 151.375L110.562 153.25L108.062 154.75L101.938 156H105.812L101.938 157.5L96.0625 161.125L92.0625 165.375L92.8368 169.827M86.0625 163.75L84.0625 165.375L80.0625 174L82.0625 174.625L88.0625 177.5L98.6875 178.75H104.062L96.8125 174.625L93.0625 171.125L92.8368 169.827M86.0625 163.75L88.0625 171.125L92.8368 169.827M151.723 132.875L154.312 125.625L156.812 113.75L158.562 112L159.188 106.375L163.188 108V113.75L164.938 118.875L166.562 124L170.062 129.125L168.688 130.75V132.875L167.312 132V137.5L164.062 135L163.188 130.75L161.188 126.75V124L160.062 121.5L158.562 125.625L156.812 135V140.625L156.062 143.125L152.812 138.875L154.312 142.25L155.062 144L154.312 148H151.188L149.812 150L146.562 146.75V144.625L144.062 134.375L139.312 122.75L134.688 113.75L138.562 108L139.312 110.25M151.723 132.875L151.188 134.375C151.646 135 151.188 136 151.188 136C151.188 136 149.396 132.958 148.812 132L144.062 125.625L143.062 120L140.062 112.5L139.312 110.25M151.723 132.875L146.562 124.875L144.062 115.25L142.312 112L139.312 110.25M118.632 138.875L120.062 136L123.562 132L121.062 129.125M118.632 138.875L121.062 129.125" stroke="black" stroke-width="2"/>
<path d="M71 76L72.5625 79.4375L75.1875 80.5625C76.125 80.3958 78.0625 80.05 78.3125 80C78.5625 79.95 79.0833 78.7292 79.3125 78.125L82.625 79.4375L83.9375 77.125L80.5625 76L83.9375 74.9375L89.8125 77.125V75.6875L84.75 72L80.25 73V72L83.125 69.125L87.0625 67.125L90.625 66.625L87.0625 65.4375L81.4375 66.625L78.875 69.125L77.125 67.125L76.8125 63.5625L80.25 60L74.3125 61.5625L73.8125 65.75L72.25 67.125H73.8125L75.1875 68.8125V71L71 76Z" fill="#BAA689" stroke="black" stroke-width="2"/>
<path d="M98.3438 36L94.7188 35.4062L98.0625 34.0312L102.062 31.25L107.75 30.7812L110.906 29.7812L110.125 31.6875L111.812 32.375L114.094 32.1875L113.688 33.8438L115.469 36.4688L114.719 44.5L114.414 45.5559L112.656 51.6562L115.375 54.9688L114.719 56.1562L110.688 56.5312L109.375 56.656L103.781 57.1875L100.062 57.625L98.6875 58.3125H93.875L94.25 56.5625V54.875L90.1562 52.7812L87.4062 49.875L88.375 48.9375L90.0781 47.7344L94.0625 44.2812L95.0312 42.4375L94.7188 40.375L96.25 39.8125L97.25 36.1562L98.3438 36Z" fill="#DBA452"/>
<path d="M112.656 51.6562L115.375 54.9688L114.719 56.1562L110.688 56.5312L109.375 56.656M112.656 51.6562L109.375 48.9375L105.75 47.3125M112.656 51.6562L114.414 45.5559M114.414 45.5559L114.719 44.5L115.469 36.4688L113.688 33.8438L114.094 32.1875L111.812 32.375L110.125 31.6875L110.906 29.7812L107.75 30.7812L102.062 31.25L98.0625 34.0312L94.7188 35.4062L98.3438 36L97.25 36.1562L96.25 39.8125L94.7188 40.375L95.0312 42.4375L94.0625 44.2812L90.0781 47.7344M114.414 45.5559C113.755 44.6622 112.131 42.6875 110.906 41.9375C109.681 41.1875 107.208 40.5833 106.125 40.375M106.562 51.6562L108.562 52L107.75 53.375L109.375 53.75L108.562 54.9688L110.375 55.3125L109.375 56.656M109.375 56.656L103.781 57.1875L100.062 57.625L98.6875 58.3125H93.875L94.25 56.5625V54.875L90.1562 52.7812L87.4062 49.875L88.375 48.9375M90.0781 47.7344L91.6406 49.1562L91.4062 50.4375L90.0781 50.5469L88.375 48.9375M90.0781 47.7344L88.375 48.9375" stroke="black" stroke-width="2"/>
<path d="M101.438 120L105.938 116L111.188 105.125L113.315 100.787L114.906 97.4688L116.062 95.1857L117.625 92C117.625 92 120.845 93.419 123.875 93.3125C127.666 93.1792 130.198 92.5643 132.25 89.75L134.812 92L135.812 93.25L137.5 95.5312L141.188 99.375L141.904 100.29L144.812 104L146.938 105.125L145.562 107L146.938 109.5L150.5 112L142.438 120L133.5 125.125L132.25 124L130.938 128.75V133.125L126.938 126.25V137.5C126.938 137.5 121.835 128.855 121.125 127.562L119.188 128L116.75 123.25L112.062 128.75L116.062 113.562L112.062 114.5L111.188 112L108.062 117.625L101.438 120Z" fill="#DBA452"/>
<path d="M113.315 100.787L111.188 105.125L105.938 116L101.438 120L108.062 117.625L111.188 112L112.062 114.5L116.062 113.562L112.062 128.75L116.75 123.25L119.188 128L121.125 127.562C121.835 128.855 126.938 137.5 126.938 137.5V126.25L130.938 133.125V128.75L132.25 124L133.5 125.125L142.438 120L150.5 112L146.938 109.5L145.562 107L146.938 105.125L144.812 104L141.904 100.29M113.315 100.787L116.062 101.875L113 108.375L118.656 114.156L117.094 119.219L129.375 112.688L142.438 117.438L140.5 113.219L142.875 105.125L140 101.875L141.904 100.29M113.315 100.787L114.906 97.4688M141.904 100.29L141.188 99.375L137.5 95.5312M116.062 95.1857L117.625 92C117.625 92 120.845 93.419 123.875 93.3125C127.666 93.1792 130.198 92.5643 132.25 89.75L134.812 92L135.812 93.25M116.062 95.1857L118.5 96.125L121 95.5312L122.562 99L118.5 100.5L117.625 98.375L114.906 97.4688M116.062 95.1857L114.906 97.4688M135.812 93.25L134.812 94.3125L133.406 93.875L132 96.875L135.531 97.9062L136.219 96.2812L137.5 95.5312M135.812 93.25L137.5 95.5312M123.323 102.629L121.938 103.5L123.875 97.0625L127.062 93.625L130.688 95.8125L134.812 101.875L133.091 101.193M123.323 102.629L128.5 99.375L133.091 101.193M123.323 102.629L121 109.938L129.375 105.875L137 109.938L133.091 101.193" stroke="black" stroke-width="2"/>
<path d="M96.5 39L97.375 36H98.6875V36.9375L99.5625 37.3125L102.25 34.9375L103.75 34.625L105.75 35.625L106.75 37.875L106.25 40L104.375 42.75L104.062 44L104.875 45.6875L105.25 46.625L105.75 47.5L105.25 49.125H106.25L107.016 50.6562L108.438 53.5H105.75L104.875 57.5L99.1562 59.375H93L94.3125 56.4375V54.4375L96.875 54L98.6875 51L96.5 50.125L96.0625 51L93.875 49.625V48.875V48L95.5625 46.125V43.5L95.1562 42.9375L94.6875 40.5625L95 40L96.5 39Z" fill="#BAA689"/>
<path d="M97.375 36V35H96.625L96.415 35.72L97.375 36ZM96.5 39L97.0547 39.8321L97.358 39.6299L97.46 39.28L96.5 39ZM95 40L94.4453 39.1679L94.2436 39.3024L94.1258 39.5144L95 40ZM95.1562 42.9375L94.1752 43.1311L94.2175 43.3457L94.3456 43.523L95.1562 42.9375ZM95.5625 43.5H96.5625V43.1766L96.3732 42.9145L95.5625 43.5ZM95.5625 46.125L96.3058 46.794L96.5625 46.5087V46.125H95.5625ZM93.875 48L93.1317 47.331L92.875 47.6163V48H93.875ZM93.875 49.625H92.875V50.1776L93.3428 50.4716L93.875 49.625ZM96.0625 51L95.5303 51.8466L96.4638 52.4334L96.9569 51.4472L96.0625 51ZM96.5 50.125L96.8714 49.1965L96.0171 48.8548L95.6056 49.6778L96.5 50.125ZM98.6875 51L99.5434 51.5171L100.153 50.509L99.0589 50.0715L98.6875 51ZM96.875 54L97.0433 54.9857L97.4943 54.9087L97.7309 54.5171L96.875 54ZM94.3125 54.4375L94.1442 53.4518L93.3125 53.5938V54.4375H94.3125ZM94.3125 56.4375L95.2255 56.8454L95.3125 56.6507V56.4375H94.3125ZM93 59.375L92.087 58.9671L91.4579 60.375H93V59.375ZM99.1562 59.375V60.375H99.316L99.4678 60.3252L99.1562 59.375ZM105.75 53.5V52.5H104.945L104.773 53.2863L105.75 53.5ZM108.438 53.5V54.5H110.056L109.332 53.0528L108.438 53.5ZM106.25 49.125L107.144 48.6778L106.868 48.125H106.25V49.125ZM105.25 49.125L104.294 48.8309L103.896 50.125H105.25V49.125ZM105.75 47.5L106.706 47.7941L106.833 47.38L106.618 47.0039L105.75 47.5ZM104.875 45.6875L105.803 45.3161L105.791 45.2844L105.776 45.2537L104.875 45.6875ZM104.062 44L103.092 43.7575L103.005 44.1081L103.161 44.4338L104.062 44ZM104.375 42.75L103.549 42.1867L103.448 42.3342L103.405 42.5075L104.375 42.75ZM106.25 40L107.076 40.5633L107.181 40.4099L107.223 40.229L106.25 40ZM106.75 37.875L107.723 38.104L107.801 37.7764L107.664 37.4689L106.75 37.875ZM105.75 35.625L106.664 35.2189L106.518 34.891L106.197 34.7306L105.75 35.625ZM103.75 34.625L104.197 33.7306L103.886 33.5751L103.546 33.646L103.75 34.625ZM102.25 34.9375L102.046 33.9585L101.786 34.0126L101.588 34.1882L102.25 34.9375ZM99.5625 37.3125L99.1686 38.2316L99.7504 38.481L100.225 38.0618L99.5625 37.3125ZM98.6875 36.9375H97.6875V37.5969L98.2936 37.8566L98.6875 36.9375ZM98.6875 36H99.6875V35H98.6875V36ZM100.219 41.625L99.2246 41.5169L99.1042 42.625H100.219V41.625ZM100.375 40.1875L100.219 39.1997L99.4635 39.319L99.3809 40.0794L100.375 40.1875ZM101.562 40L102.065 39.1352L101.757 38.9568L101.407 39.0122L101.562 40ZM102.531 40.5625H103.531V39.9868L103.033 39.6977L102.531 40.5625ZM102.531 42.25L102.066 43.1349L103.531 43.9064V42.25H102.531ZM101.344 41.625L101.809 40.7401L101.591 40.625H101.344V41.625ZM94.6875 40.5625L93.8133 40.0769L93.6355 40.3969L93.7064 40.7561L94.6875 40.5625ZM97.375 39.7188L98.3481 39.4883L98.1005 38.4429L97.0755 38.7647L97.375 39.7188ZM97.6562 40.9062L98.6247 41.1553L98.6862 40.9161L98.6293 40.6758L97.6562 40.9062ZM97.375 42L97.7642 42.9211L98.2202 42.7285L98.3435 42.249L97.375 42ZM97.6562 44.5625V43.5625L96.913 45.2315L97.6562 44.5625ZM98.6875 44.5625L99.4875 45.1625L98.6875 43.5625V44.5625ZM104.062 47.5L103.462 48.3L104.057 48.746L104.656 48.3051L104.062 47.5ZM103.062 46.75L103.663 45.95L103.396 45.75H103.062V46.75ZM101.969 46.75V45.75H100.969V46.75H101.969ZM101.969 48.875V49.875H102.969V48.875H101.969ZM99.5625 48.875L98.8068 49.5299L99.1059 49.875H99.5625V48.875ZM99.1562 48.4062L99.9119 47.7513L99.2086 46.9397L98.4491 47.6991L99.1562 48.4062ZM98.6875 48.875V49.875H99.1017L99.3946 49.5821L98.6875 48.875ZM97.375 48.875L96.6911 49.6045L96.9796 49.875H97.375V48.875ZM96.875 48.4062L97.5589 47.6767L96.7698 46.9369L96.0941 47.7816L96.875 48.4062ZM96.5 48.875V49.875H96.9806L97.2809 49.4997L96.5 48.875ZM95.1562 48.875L94.4491 49.5821L94.742 49.875H95.1562V48.875ZM94.6875 48.4062L95.3946 47.6991L94.6046 46.9091L93.9066 47.7816L94.6875 48.4062ZM94.3125 48.875V49.875H94.7931L95.0934 49.4997L94.3125 48.875ZM103.75 50.6562V49.6562H103.031L102.802 50.3376L103.75 50.6562ZM102.531 54.2812V55.2812H103.25L103.479 54.5999L102.531 54.2812ZM101.344 54.2812V53.2812H100.704L100.436 53.8622L101.344 54.2812ZM100.781 55.5L99.8975 55.9679L100.843 57.7533L101.689 55.9191L100.781 55.5ZM100.219 54.4375L101.103 53.9696L100.821 53.4375H100.219V54.4375ZM99.375 54.4375V53.4375H98.831L98.5354 53.8942L99.375 54.4375ZM98.6875 55.5L97.7726 55.9036L98.5205 57.5989L99.5271 56.0433L98.6875 55.5ZM98.2188 54.4375L99.1337 54.0339L98.8706 53.4375H98.2188V54.4375ZM97.375 54.4375V53.4375H96.8442L96.5467 53.8772L97.375 54.4375ZM96.6562 55.5L95.7833 55.9878L96.5751 57.4047L97.4845 56.0603L96.6562 55.5ZM98.2188 45.1875L97.4755 45.8565L99.0188 45.7875L98.2188 45.1875ZM104.875 57.5L105.187 58.4502L105.73 58.2721L105.852 57.7137L104.875 57.5ZM96.415 35.72L95.54 38.72L97.46 39.28L98.335 36.28L96.415 35.72ZM95.9453 38.1679L94.4453 39.1679L95.5547 40.8321L97.0547 39.8321L95.9453 38.1679ZM94.3456 43.523L94.7518 44.0855L96.3732 42.9145L95.9669 42.352L94.3456 43.523ZM94.5625 43.5V46.125H96.5625V43.5H94.5625ZM94.8192 45.456L93.1317 47.331L94.6183 48.669L96.3058 46.794L94.8192 45.456ZM93.3428 50.4716L95.5303 51.8466L96.5947 50.1534L94.4072 48.7784L93.3428 50.4716ZM96.9569 51.4472L97.3944 50.5722L95.6056 49.6778L95.1681 50.5528L96.9569 51.4472ZM96.1286 51.0535L98.3161 51.9285L99.0589 50.0715L96.8714 49.1965L96.1286 51.0535ZM97.8316 50.4829L96.0191 53.4829L97.7309 54.5171L99.5434 51.5171L97.8316 50.4829ZM96.7067 53.0143L94.1442 53.4518L94.4808 55.4232L97.0433 54.9857L96.7067 53.0143ZM93.3125 54.4375V56.4375H95.3125V54.4375H93.3125ZM93.3995 56.0296L92.087 58.9671L93.913 59.7829L95.2255 56.8454L93.3995 56.0296ZM93 60.375H99.1562V58.375H93V60.375ZM105.75 54.5H108.438V52.5H105.75V54.5ZM109.332 53.0528L107.91 50.209L106.121 51.1035L107.543 53.9472L109.332 53.0528ZM107.91 50.209L107.144 48.6778L105.356 49.5722L106.121 51.1035L107.91 50.209ZM106.25 48.125H105.25V50.125H106.25V48.125ZM106.206 49.4191L106.706 47.7941L104.794 47.2059L104.294 48.8309L106.206 49.4191ZM106.618 47.0039L106.118 46.1289L104.382 47.1211L104.882 47.9961L106.618 47.0039ZM106.178 46.2536L105.803 45.3161L103.947 46.0589L104.322 46.9964L106.178 46.2536ZM105.776 45.2537L104.964 43.5662L103.161 44.4338L103.974 46.1213L105.776 45.2537ZM105.033 44.2425L105.345 42.9925L103.405 42.5075L103.092 43.7575L105.033 44.2425ZM105.201 43.3133L107.076 40.5633L105.424 39.4367L103.549 42.1867L105.201 43.3133ZM107.223 40.229L107.723 38.104L105.777 37.646L105.277 39.771L107.223 40.229ZM107.664 37.4689L106.664 35.2189L104.836 36.0311L105.836 38.2811L107.664 37.4689ZM106.197 34.7306L104.197 33.7306L103.303 35.5194L105.303 36.5194L106.197 34.7306ZM103.546 33.646L102.046 33.9585L102.454 35.9165L103.954 35.604L103.546 33.646ZM101.588 34.1882L98.9003 36.5632L100.225 38.0618L102.912 35.6868L101.588 34.1882ZM99.9564 36.3934L99.0814 36.0184L98.2936 37.8566L99.1686 38.2316L99.9564 36.3934ZM99.6875 36.9375V36H97.6875V36.9375H99.6875ZM98.6875 35H97.375V37H98.6875V35ZM101.213 41.7331L101.369 40.2956L99.3809 40.0794L99.2246 41.5169L101.213 41.7331ZM100.531 41.1753L101.718 40.9878L101.407 39.0122L100.219 39.1997L100.531 41.1753ZM101.06 40.8648L102.029 41.4273L103.033 39.6977L102.065 39.1352L101.06 40.8648ZM101.531 40.5625V42.25H103.531V40.5625H101.531ZM102.997 41.3651L101.809 40.7401L100.878 42.5099L102.066 43.1349L102.997 41.3651ZM101.344 40.625H100.219V42.625H101.344V40.625ZM94.1258 39.5144L93.8133 40.0769L95.5617 41.0481L95.8742 40.4856L94.1258 39.5144ZM93.7064 40.7561L94.1752 43.1311L96.1373 42.7439L95.6686 40.3689L93.7064 40.7561ZM94.987 41.5166L97.6745 40.6728L97.0755 38.7647L94.388 39.6084L94.987 41.5166ZM96.4019 39.9492L96.6832 41.1367L98.6293 40.6758L98.3481 39.4883L96.4019 39.9492ZM96.6878 40.6572L96.4065 41.751L98.3435 42.249L98.6247 41.1553L96.6878 40.6572ZM97.6562 45.5625H98.6875V43.5625H97.6562V45.5625ZM104.657 45.8199L103.469 46.6949L104.656 48.3051L105.843 47.4301L104.657 45.8199ZM104.663 46.7L103.663 45.95L102.462 47.55L103.462 48.3L104.663 46.7ZM103.062 45.75H101.969V47.75H103.062V45.75ZM101.969 47.875H99.5625V49.875H101.969V47.875ZM100.318 48.2201L99.9119 47.7513L98.4006 49.0612L98.8068 49.5299L100.318 48.2201ZM98.4491 47.6991L97.9804 48.1679L99.3946 49.5821L99.8634 49.1134L98.4491 47.6991ZM98.6875 47.875H97.375V49.875H98.6875V47.875ZM98.0589 48.1455L97.5589 47.6767L96.1911 49.1358L96.6911 49.6045L98.0589 48.1455ZM96.0941 47.7816L95.7191 48.2503L97.2809 49.4997L97.6559 49.0309L96.0941 47.7816ZM96.5 47.875H95.1562V49.875H96.5V47.875ZM95.8634 48.1679L95.3946 47.6991L93.9804 49.1134L94.4491 49.5821L95.8634 48.1679ZM93.9066 47.7816L93.5316 48.2503L95.0934 49.4997L95.4684 49.0309L93.9066 47.7816ZM92.875 48V48.875H94.875V48H92.875ZM92.875 48.875V49.625H94.875V48.875H92.875ZM94.3125 47.875H93.875V49.875H94.3125V47.875ZM102.802 50.3376L101.583 53.9626L103.479 54.5999L104.698 50.9749L102.802 50.3376ZM102.531 53.2812H101.344V55.2812H102.531V53.2812ZM100.436 53.8622L99.8733 55.0809L101.689 55.9191L102.252 54.7003L100.436 53.8622ZM101.665 55.0321L101.103 53.9696L99.335 54.9054L99.8975 55.9679L101.665 55.0321ZM100.219 53.4375H99.375V55.4375H100.219V53.4375ZM98.5354 53.8942L97.8479 54.9567L99.5271 56.0433L100.215 54.9808L98.5354 53.8942ZM99.6024 55.0964L99.1337 54.0339L97.3038 54.8411L97.7726 55.9036L99.6024 55.0964ZM98.2188 53.4375H97.375V55.4375H98.2188V53.4375ZM96.5467 53.8772L95.828 54.9397L97.4845 56.0603L98.2033 54.9978L96.5467 53.8772ZM97.5292 55.0122L96.9354 53.9497L95.1896 54.9253L95.7833 55.9878L97.5292 55.0122ZM100.969 46.75V48.875H102.969V46.75H100.969ZM96.9858 41.0789L94.767 42.0164L95.5455 43.8586L97.7642 42.9211L96.9858 41.0789ZM97.8875 43.9625L97.4187 44.5875L99.0188 45.7875L99.4875 45.1625L97.8875 43.9625ZM98.962 44.5185L98.3995 43.8935L96.913 45.2315L97.4755 45.8565L98.962 44.5185ZM99.4678 60.3252L105.187 58.4502L104.563 56.5498L98.8447 58.4248L99.4678 60.3252ZM105.852 57.7137L106.727 53.7137L104.773 53.2863L103.898 57.2863L105.852 57.7137ZM107.016 49.6562H103.75V51.6562H107.016V49.6562Z" fill="black"/>
<path d="M126.062 81.375V83.3125V85.1875L126.562 86L128.062 86.5625V87.1875V90.0625L129.188 92L124.062 93.0625C123.708 91.9583 122.9 89.75 122.5 89.75H121.188H120.938L119.625 88.8125L120.062 88.4375L119.188 87.1875L120.062 85.1875L117.875 84.625L118.312 82.75L119.625 79.125H125.062L126.062 81.375Z" fill="#E0CFB4"/>
<path d="M126.062 83.3125V81.375L125.062 79.125H119.625L118.312 82.75L117.875 84.625L120.062 85.1875M126.062 83.3125V85.1875L126.562 86L128.062 86.5625V87.1875M126.062 83.3125L122.5 82.75L120.062 85.1875M120.062 85.1875L119.188 87.1875L120.062 88.4375L119.625 88.8125L120.938 89.75C121.006 89.75 121.091 89.75 121.188 89.75M128.062 87.1875V90.0625L129.188 92L124.062 93.0625C123.708 91.9583 122.9 89.75 122.5 89.75C122.177 89.75 121.589 89.75 121.188 89.75M128.062 87.1875L124.062 86.5625L121.188 89.75" stroke="black" stroke-width="2"/>
<path d="M148.062 71L152.062 76" stroke="black" stroke-width="2"/>
<path d="M75.8711 266C79.8597 266 82.1097 263.52 82.1097 259.429C82.1097 255.364 79.8597 252.909 76.0501 252.909H71.8313V266H75.8711ZM73.4165 264.594V254.315H75.9478C79.016 254.315 80.5756 256.259 80.5756 259.429C80.5756 262.625 79.016 264.594 75.7688 264.594H73.4165ZM84.5643 266H86.0728V259.787C86.0728 258.457 87.1211 257.486 88.5529 257.486C88.9556 257.486 89.3711 257.562 89.4734 257.588V256.054C89.3008 256.041 88.9045 256.028 88.6808 256.028C87.5046 256.028 86.4819 256.693 86.1239 257.665H86.0217V256.182H84.5643V266ZM94.1507 266.23C95.8638 266.23 96.7587 265.31 97.0655 264.67H97.1422V266H98.6507V259.531C98.6507 256.412 96.2729 256.054 95.0201 256.054C93.5371 256.054 91.8496 256.565 91.0826 258.355L92.5144 258.866C92.8468 258.151 93.633 257.384 95.0712 257.384C96.4583 257.384 97.1422 258.119 97.1422 259.378V259.429C97.1422 260.158 96.4007 260.094 94.611 260.324C92.7892 260.56 90.8013 260.963 90.8013 263.213C90.8013 265.131 92.2843 266.23 94.1507 266.23ZM94.3809 264.875C93.1792 264.875 92.3098 264.338 92.3098 263.29C92.3098 262.139 93.3581 261.781 94.5343 261.628C95.1735 261.551 96.8865 261.372 97.1422 261.065V262.446C97.1422 263.673 96.1706 264.875 94.3809 264.875ZM103.629 266H105.112L107.259 258.457H107.413L109.56 266H111.043L114.035 256.182H112.45L110.327 263.673H110.225L108.154 256.182H106.543L104.447 263.699H104.344L102.222 256.182H100.637L103.629 266ZM123.981 266.23C125.694 266.23 126.589 265.31 126.896 264.67H126.972V266H128.481V259.531C128.481 256.412 126.103 256.054 124.85 256.054C123.367 256.054 121.68 256.565 120.913 258.355L122.344 258.866C122.677 258.151 123.463 257.384 124.901 257.384C126.288 257.384 126.972 258.119 126.972 259.378V259.429C126.972 260.158 126.231 260.094 124.441 260.324C122.619 260.56 120.631 260.963 120.631 263.213C120.631 265.131 122.114 266.23 123.981 266.23ZM124.211 264.875C123.009 264.875 122.14 264.338 122.14 263.29C122.14 262.139 123.188 261.781 124.364 261.628C125.004 261.551 126.717 261.372 126.972 261.065V262.446C126.972 263.673 126.001 264.875 124.211 264.875ZM140.285 266.205C142.459 266.205 143.89 264.875 144.146 263.136H142.638C142.356 264.21 141.461 264.849 140.285 264.849C138.496 264.849 137.345 263.366 137.345 261.091C137.345 258.866 138.521 257.409 140.285 257.409C141.615 257.409 142.407 258.227 142.638 259.122H144.146C143.89 257.281 142.331 256.054 140.26 256.054C137.601 256.054 135.836 258.151 135.836 261.142C135.836 264.082 137.524 266.205 140.285 266.205ZM149.241 266.23C150.954 266.23 151.849 265.31 152.155 264.67H152.232V266H153.741V259.531C153.741 256.412 151.363 256.054 150.11 256.054C148.627 256.054 146.939 256.565 146.172 258.355L147.604 258.866C147.937 258.151 148.723 257.384 150.161 257.384C151.548 257.384 152.232 258.119 152.232 259.378V259.429C152.232 260.158 151.491 260.094 149.701 260.324C147.879 260.56 145.891 260.963 145.891 263.213C145.891 265.131 147.374 266.23 149.241 266.23ZM149.471 264.875C148.269 264.875 147.4 264.338 147.4 263.29C147.4 262.139 148.448 261.781 149.624 261.628C150.263 261.551 151.976 261.372 152.232 261.065V262.446C152.232 263.673 151.26 264.875 149.471 264.875ZM156.494 266H158.002V259.787C158.002 258.457 159.051 257.486 160.483 257.486C160.885 257.486 161.301 257.562 161.403 257.588V256.054C161.23 256.041 160.834 256.028 160.61 256.028C159.434 256.028 158.412 256.693 158.054 257.665H157.951V256.182H156.494V266ZM166.6 266.205C168.492 266.205 169.131 265.028 169.463 264.491H169.642V266H171.1V252.909H169.591V257.741H169.463C169.131 257.23 168.543 256.054 166.625 256.054C164.145 256.054 162.432 258.023 162.432 261.116C162.432 264.236 164.145 266.205 166.6 266.205ZM166.804 264.849C164.912 264.849 163.941 263.188 163.941 261.091C163.941 259.02 164.887 257.409 166.804 257.409C168.645 257.409 169.617 258.892 169.617 261.091C169.617 263.315 168.62 264.849 166.804 264.849ZM50.8303 278.182H48.7337V275.83H47.2251V278.182H45.7422V279.46H47.2251V285.597C47.2251 287.31 48.6058 288.128 49.8842 288.128C50.4467 288.128 50.8047 288.026 51.0092 287.949L50.7024 286.594C50.5746 286.619 50.37 286.67 50.0376 286.67C49.3729 286.67 48.7337 286.466 48.7337 285.188V279.46H50.8303V278.182ZM56.9826 288.205C59.6417 288.205 61.4315 286.185 61.4315 283.142C61.4315 280.074 59.6417 278.054 56.9826 278.054C54.3235 278.054 52.5337 280.074 52.5337 283.142C52.5337 286.185 54.3235 288.205 56.9826 288.205ZM56.9826 286.849C54.9627 286.849 54.0423 285.111 54.0423 283.142C54.0423 281.173 54.9627 279.409 56.9826 279.409C59.0025 279.409 59.9229 281.173 59.9229 283.142C59.9229 285.111 59.0025 286.849 56.9826 286.849ZM73.0666 278.182H70.97V275.83H69.4615V278.182H67.9785V279.46H69.4615V285.597C69.4615 287.31 70.8422 288.128 72.1206 288.128C72.6831 288.128 73.041 288.026 73.2456 287.949L72.9387 286.594C72.8109 286.619 72.6064 286.67 72.274 286.67C71.6092 286.67 70.97 286.466 70.97 285.188V279.46H73.0666V278.182ZM77.0552 282.094C77.0552 280.381 78.1483 279.409 79.6376 279.409C81.0566 279.409 81.9132 280.304 81.9132 281.864V288H83.4217V281.761C83.4217 279.237 82.0794 278.054 80.0723 278.054C78.5254 278.054 77.6433 278.7 77.1831 279.716H77.0552V274.909H75.5467V288H77.0552V282.094ZM90.2979 288.205C92.2923 288.205 93.7496 287.207 94.2099 285.724L92.7525 285.315C92.369 286.338 91.4805 286.849 90.2979 286.849C88.5273 286.849 87.3065 285.705 87.2362 283.602H94.3633V282.963C94.3633 279.307 92.19 278.054 90.1445 278.054C87.4854 278.054 85.7212 280.151 85.7212 283.168C85.7212 286.185 87.4599 288.205 90.2979 288.205ZM87.2362 282.298C87.3384 280.771 88.4187 279.409 90.1445 279.409C91.7809 279.409 92.8292 280.636 92.8292 282.298H87.2362ZM101.721 288H103.229V281.787C103.229 280.457 104.277 279.486 105.709 279.486C106.112 279.486 106.527 279.562 106.63 279.588V278.054C106.457 278.041 106.061 278.028 105.837 278.028C104.661 278.028 103.638 278.693 103.28 279.665H103.178V278.182H101.721V288ZM108.418 288H109.926V278.182H108.418V288ZM109.185 276.545C109.773 276.545 110.259 276.085 110.259 275.523C110.259 274.96 109.773 274.5 109.185 274.5C108.597 274.5 108.111 274.96 108.111 275.523C108.111 276.085 108.597 276.545 109.185 276.545ZM116.652 291.886C119.005 291.886 120.897 290.812 120.897 288.281V278.182H119.439V279.741H119.286C118.953 279.23 118.34 278.054 116.422 278.054C113.942 278.054 112.229 280.023 112.229 283.04C112.229 286.108 114.019 287.847 116.397 287.847C118.314 287.847 118.928 286.722 119.26 286.185H119.388V288.179C119.388 289.815 118.238 290.557 116.652 290.557C114.869 290.557 114.243 289.617 113.84 289.074L112.638 289.918C113.252 290.947 114.46 291.886 116.652 291.886ZM116.601 286.491C114.709 286.491 113.738 285.06 113.738 283.014C113.738 281.02 114.684 279.409 116.601 279.409C118.442 279.409 119.414 280.892 119.414 283.014C119.414 285.188 118.417 286.491 116.601 286.491ZM125.167 282.094C125.167 280.381 126.26 279.409 127.749 279.409C129.168 279.409 130.025 280.304 130.025 281.864V288H131.533V281.761C131.533 279.237 130.191 278.054 128.184 278.054C126.637 278.054 125.755 278.7 125.294 279.716H125.167V274.909H123.658V288H125.167V282.094ZM138.563 278.182H136.466V275.83H134.958V278.182H133.475V279.46H134.958V285.597C134.958 287.31 136.338 288.128 137.617 288.128C138.179 288.128 138.537 288.026 138.742 287.949L138.435 286.594C138.307 286.619 138.102 286.67 137.77 286.67C137.105 286.67 136.466 286.466 136.466 285.188V279.46H138.563V278.182ZM149.883 288.205C152.542 288.205 154.332 286.185 154.332 283.142C154.332 280.074 152.542 278.054 149.883 278.054C147.224 278.054 145.434 280.074 145.434 283.142C145.434 286.185 147.224 288.205 149.883 288.205ZM149.883 286.849C147.863 286.849 146.943 285.111 146.943 283.142C146.943 281.173 147.863 279.409 149.883 279.409C151.903 279.409 152.823 281.173 152.823 283.142C152.823 285.111 151.903 286.849 149.883 286.849ZM161.007 278.182H158.808V277.185C158.808 276.213 159.217 275.702 160.214 275.702C160.649 275.702 160.904 275.804 161.058 275.855L161.493 274.551C161.262 274.449 160.802 274.295 160.061 274.295C158.654 274.295 157.299 275.139 157.299 276.827V278.182H155.714V279.46H157.299V288H158.808V279.46H161.007V278.182ZM172.453 278.182H170.357V275.83H168.848V278.182H167.365V279.46H168.848V285.597C168.848 287.31 170.229 288.128 171.507 288.128C172.07 288.128 172.428 288.026 172.632 287.949L172.325 286.594C172.198 286.619 171.993 286.67 171.661 286.67C170.996 286.67 170.357 286.466 170.357 285.188V279.46H172.453V278.182ZM176.442 282.094C176.442 280.381 177.535 279.409 179.024 279.409C180.443 279.409 181.3 280.304 181.3 281.864V288H182.808V281.761C182.808 279.237 181.466 278.054 179.459 278.054C177.912 278.054 177.03 278.7 176.57 279.716H176.442V274.909H174.933V288H176.442V282.094ZM185.568 288H187.077V278.182H185.568V288ZM186.335 276.545C186.923 276.545 187.409 276.085 187.409 275.523C187.409 274.96 186.923 274.5 186.335 274.5C185.747 274.5 185.261 274.96 185.261 275.523C185.261 276.085 185.747 276.545 186.335 276.545ZM196.794 280.381C196.321 278.987 195.26 278.054 193.317 278.054C191.246 278.054 189.712 279.23 189.712 280.892C189.712 282.247 190.517 283.155 192.32 283.577L193.956 283.96C194.947 284.19 195.414 284.663 195.414 285.341C195.414 286.185 194.519 286.875 193.112 286.875C191.879 286.875 191.105 286.344 190.837 285.29L189.405 285.648C189.757 287.316 191.131 288.205 193.138 288.205C195.42 288.205 196.973 286.958 196.973 285.264C196.973 283.896 196.117 283.033 194.365 282.605L192.908 282.247C191.744 281.96 191.22 281.57 191.22 280.815C191.22 279.972 192.115 279.358 193.317 279.358C194.634 279.358 195.177 280.087 195.439 280.764L196.794 280.381ZM200.343 288.102C200.976 288.102 201.494 287.585 201.494 286.952C201.494 286.319 200.976 285.801 200.343 285.801C199.711 285.801 199.193 286.319 199.193 286.952C199.193 287.585 199.711 288.102 200.343 288.102Z" fill="black" fill-opacity="0.87"/>
<path d="M216 160H236V176L228 184.5L236 192V208H226H216V160Z" fill="#FF4B3C" stroke="black" stroke-width="2"/>
<path d="M216 160H236V176L228 184.5L236 192V208H226H216V160Z" fill="black" fill-opacity="0.17"/>
<path d="M224 168L216 160V168H224Z" fill="black" fill-opacity="0.38" stroke="black" stroke-width="2" stroke-linejoin="bevel"/>
<path d="M248 176L240 184L248 192V176Z" fill="#D4D4D4"/>
<path d="M32 160H12V176L20 184.5L12 192V208H22H32V160Z" fill="#FF4B3C" stroke="black" stroke-width="2"/>
<path d="M32 160H12V176L20 184.5L12 192V208H22H32V160Z" fill="black" fill-opacity="0.17"/>
<path d="M24 168L32 160V168H24Z" fill="black" fill-opacity="0.38" stroke="black" stroke-width="2" stroke-linejoin="bevel"/>
<path d="M0 176L8 184L0 192V176Z" fill="#D4D4D4"/>
<path d="M224 168H24V216H224V168Z" fill="#FF4B3C" stroke="black" stroke-width="2"/>
<path d="M56.2892 203.288C56.1932 203.288 55.9772 203.18 55.6412 202.964L51.4652 192.956C50.8892 191.636 50.0372 189.392 48.9092 186.224H48.6572L49.0172 199.184V200.48L51.3932 201.236V203H43.4372V201.452L45.6332 200.696V183.56L43.4372 182.804V181.256H50.5292L55.3892 192.74C55.7492 193.604 56.4692 195.668 57.5492 198.932H57.8372L57.4772 185V183.74L55.1012 182.984V181.256H63.0572V182.804L60.8252 183.56V202.748C60.0572 202.868 59.2052 202.976 58.2692 203.072C57.3572 203.168 56.6972 203.24 56.2892 203.288ZM71.4235 203.36C70.2955 203.36 69.2515 203.072 68.2915 202.496C67.3555 201.92 66.5995 201.056 66.0235 199.904C65.4715 198.752 65.1955 197.348 65.1955 195.692C65.1955 194.516 65.2795 193.412 65.4475 192.38C65.6155 191.348 65.8315 190.58 66.0955 190.076C66.3595 189.716 66.8875 189.236 67.6795 188.636C68.4715 188.012 69.2635 187.472 70.0555 187.016C70.8715 186.56 71.4355 186.332 71.7475 186.332C73.0675 186.332 74.1475 186.548 74.9875 186.98C75.8275 187.412 76.4755 188.228 76.9315 189.428C77.3875 190.604 77.6155 192.272 77.6155 194.432L69.1195 195.152C69.1195 196.472 69.2875 197.528 69.6235 198.32C69.9835 199.112 70.4035 199.676 70.8835 200.012C71.3635 200.348 71.8195 200.516 72.2515 200.516L77.0755 200.336V201.956C76.2355 202.244 75.1675 202.556 73.8715 202.892C72.5755 203.204 71.7595 203.36 71.4235 203.36ZM73.7635 192.884C73.7635 190.052 73.0195 188.624 71.5315 188.6H71.2435C70.8595 188.6 70.5115 188.66 70.1995 188.78C69.9115 188.876 69.6715 189.404 69.4795 190.364C69.2875 191.3 69.1915 192.344 69.1915 193.496L73.7635 192.884ZM85.4315 203.36C84.4715 203.36 83.5835 203.072 82.7675 202.496C81.9515 201.92 81.2915 201.056 80.7875 199.904C80.2835 198.752 80.0315 197.348 80.0315 195.692C80.0315 194.54 80.1155 193.448 80.2835 192.416C80.4515 191.384 80.6675 190.616 80.9315 190.112C81.1955 189.752 81.7115 189.284 82.4795 188.708C83.2475 188.108 84.0155 187.58 84.7835 187.124C85.5755 186.668 86.1155 186.44 86.4035 186.44C86.9795 186.44 87.6395 186.512 88.3835 186.656C89.1515 186.776 89.8715 186.944 90.5435 187.16L90.4355 191.948H88.0595L87.5195 189.392C87.2555 189.248 86.9195 189.116 86.5115 188.996C86.1275 188.876 85.7795 188.816 85.4675 188.816C85.2515 188.816 85.0835 188.864 84.9635 188.96C84.6515 189.2 84.4115 189.884 84.2435 191.012C84.0755 192.116 83.9915 193.484 83.9915 195.116C83.9915 196.292 84.1115 197.288 84.3515 198.104C84.6155 198.896 84.9395 199.484 85.3235 199.868C85.7075 200.252 86.0915 200.444 86.4755 200.444H90.5435V202.1C89.5835 202.388 88.5755 202.676 87.5195 202.964C86.4635 203.228 85.7675 203.36 85.4315 203.36ZM95.1709 203.36C95.0509 203.36 94.7989 203.18 94.4149 202.82C94.0549 202.46 93.8749 202.22 93.8749 202.1V189.032L92.5429 188.564V187.052C94.6789 186.668 95.8669 186.476 96.1069 186.476C96.2269 186.476 96.4909 186.68 96.8989 187.088C97.3309 187.472 97.5469 187.712 97.5469 187.808L97.4749 189.14C99.2269 187.244 100.175 186.296 100.319 186.296C100.751 186.296 101.579 186.488 102.803 186.872C102.875 187.04 102.935 187.244 102.983 187.484C103.031 187.7 103.055 187.904 103.055 188.096C103.055 188.288 102.887 188.708 102.551 189.356C102.239 189.98 102.035 190.316 101.939 190.364C101.003 190.004 100.343 189.824 99.9589 189.824C99.7909 189.824 99.4789 189.932 99.0229 190.148C98.5669 190.34 98.0989 190.58 97.6189 190.868V200.48L99.5629 201.056V202.712C96.8749 203.144 95.4109 203.36 95.1709 203.36ZM111.713 203.36C109.145 203.36 107.213 202.724 105.917 201.452C104.621 200.156 103.973 198.164 103.973 195.476C103.973 194.396 104.057 193.352 104.225 192.344C104.393 191.336 104.609 190.592 104.873 190.112C105.137 189.752 105.665 189.272 106.457 188.672C107.249 188.048 108.053 187.508 108.869 187.052C109.685 186.572 110.237 186.332 110.525 186.332C113.021 186.332 114.905 186.992 116.177 188.312C117.449 189.608 118.085 191.504 118.085 194C118.085 195.152 118.001 196.244 117.833 197.276C117.689 198.284 117.497 199.1 117.257 199.724C116.849 200.252 115.925 200.996 114.485 201.956C113.069 202.892 112.145 203.36 111.713 203.36ZM111.857 201.164C112.001 201.116 112.565 200.84 113.549 200.336C113.933 198.632 114.125 196.676 114.125 194.468C114.125 192.668 113.801 191.24 113.153 190.184C112.529 189.104 111.593 188.564 110.345 188.564C109.817 188.564 109.385 188.648 109.049 188.816C108.713 188.984 108.437 189.608 108.221 190.688C108.029 191.768 107.933 193.196 107.933 194.972C107.933 197.276 108.305 198.884 109.049 199.796C109.817 200.708 110.753 201.164 111.857 201.164ZM123.05 203.36C122.93 203.36 122.678 203.18 122.294 202.82C121.934 202.46 121.754 202.22 121.754 202.1V189.104L120.422 188.564V187.052C122.678 186.668 123.926 186.476 124.166 186.476C124.286 186.476 124.514 186.656 124.85 187.016C125.186 187.352 125.354 187.58 125.354 187.7V188.96C125.978 188.432 126.638 187.892 127.334 187.34C128.054 186.764 128.45 186.476 128.522 186.476C129.746 186.476 130.766 186.668 131.582 187.052C132.398 187.436 132.986 188.072 133.346 188.96C133.922 188.432 134.546 187.892 135.218 187.34C135.89 186.764 136.262 186.476 136.334 186.476C138.278 186.476 139.73 186.92 140.69 187.808C141.65 188.672 142.13 190.196 142.13 192.38V200.66L143.39 201.2V202.712C141.182 203.144 139.97 203.36 139.754 203.36C139.634 203.36 139.37 203.18 138.962 202.82C138.578 202.46 138.386 202.22 138.386 202.1V192.38C138.386 191.084 138.17 190.268 137.738 189.932C137.306 189.572 136.826 189.392 136.298 189.392C136.106 189.392 135.278 189.812 133.814 190.652V200.66L135.038 201.2V202.712C132.854 203.144 131.654 203.36 131.438 203.36C131.318 203.36 131.054 203.18 130.646 202.82C130.262 202.46 130.07 202.22 130.07 202.1V192.38C130.07 191.084 129.866 190.268 129.458 189.932C129.074 189.572 128.63 189.392 128.126 189.392C127.91 189.392 127.034 189.812 125.498 190.652V200.66L126.722 201.2V202.712C124.514 203.144 123.29 203.36 123.05 203.36ZM151.534 203.36C150.478 203.36 149.506 203.072 148.618 202.496C147.754 201.896 147.058 201.008 146.53 199.832C146.026 198.656 145.774 197.216 145.774 195.512C145.774 194.384 145.858 193.34 146.026 192.38C146.194 191.396 146.41 190.628 146.674 190.076C147.082 189.524 147.982 188.78 149.374 187.844C150.79 186.908 151.726 186.44 152.182 186.44C152.446 186.44 153.382 186.56 154.99 186.8C156.598 187.016 157.834 187.196 158.698 187.34V200.696L159.958 201.2V202.748C157.774 203.156 156.562 203.36 156.322 203.36C156.226 203.36 155.986 203.18 155.602 202.82C155.242 202.46 155.062 202.22 155.062 202.1V200.804C152.878 202.508 151.702 203.36 151.534 203.36ZM151.93 200.444C152.17 200.444 153.178 200 154.954 199.112V189.428C154.378 189.212 153.646 189.02 152.758 188.852C151.894 188.66 151.318 188.588 151.03 188.636C150.598 188.732 150.274 189.272 150.058 190.256C149.842 191.24 149.734 192.884 149.734 195.188C149.734 196.34 149.854 197.312 150.094 198.104C150.358 198.896 150.658 199.484 150.994 199.868C151.354 200.252 151.666 200.444 151.93 200.444ZM164.675 203.36C164.555 203.36 164.303 203.18 163.919 202.82C163.559 202.46 163.379 202.22 163.379 202.1V189.104L162.047 188.564V187.052C164.303 186.668 165.551 186.476 165.791 186.476C165.911 186.476 166.139 186.656 166.475 187.016C166.811 187.352 166.979 187.58 166.979 187.7V188.96C167.675 188.432 168.431 187.892 169.247 187.34C170.063 186.764 170.519 186.476 170.615 186.476C172.367 186.476 173.687 186.92 174.575 187.808C175.463 188.672 175.907 190.196 175.907 192.38V200.66L177.203 201.2V202.712C174.971 203.144 173.747 203.36 173.531 203.36C173.411 203.36 173.147 203.18 172.739 202.82C172.355 202.46 172.163 202.22 172.163 202.1V192.38C172.163 190.364 171.539 189.356 170.291 189.356C170.171 189.356 169.847 189.464 169.319 189.68C168.815 189.896 168.443 190.052 168.203 190.148C167.963 190.268 167.603 190.424 167.123 190.616V200.66L168.383 201.2V202.712C166.151 203.144 164.915 203.36 164.675 203.36ZM184.994 203.36C184.034 203.36 183.146 203.072 182.33 202.496C181.514 201.92 180.854 201.056 180.35 199.904C179.846 198.752 179.594 197.348 179.594 195.692C179.594 194.54 179.678 193.448 179.846 192.416C180.014 191.384 180.23 190.616 180.494 190.112C180.758 189.752 181.274 189.284 182.042 188.708C182.81 188.108 183.578 187.58 184.346 187.124C185.138 186.668 185.678 186.44 185.966 186.44C186.542 186.44 187.202 186.512 187.946 186.656C188.714 186.776 189.434 186.944 190.106 187.16L189.998 191.948H187.622L187.082 189.392C186.818 189.248 186.482 189.116 186.074 188.996C185.69 188.876 185.342 188.816 185.03 188.816C184.814 188.816 184.646 188.864 184.526 188.96C184.214 189.2 183.974 189.884 183.806 191.012C183.638 192.116 183.554 193.484 183.554 195.116C183.554 196.292 183.674 197.288 183.914 198.104C184.178 198.896 184.502 199.484 184.886 199.868C185.27 200.252 185.654 200.444 186.038 200.444H190.106V202.1C189.146 202.388 188.138 202.676 187.082 202.964C186.026 203.228 185.33 203.36 184.994 203.36ZM197.073 209.552C196.977 209.552 196.797 209.324 196.533 208.868C196.293 208.412 196.173 208.112 196.173 207.968L197.865 202.964C197.241 203.06 196.869 203.108 196.749 203.108C196.677 203.108 196.485 203 196.173 202.784L192.429 189.032L190.989 188.636V187.016C193.101 186.68 194.265 186.512 194.481 186.512C194.601 186.512 194.865 186.656 195.273 186.944C195.681 187.232 195.909 187.46 195.957 187.628L197.937 195.944L198.657 199.724H199.017L201.897 188.924L199.701 188.672V186.8L204.237 186.512C204.381 186.512 204.597 186.692 204.885 187.052C205.197 187.412 205.341 187.676 205.317 187.844L200.565 202.892L199.557 206.924L201.069 207.572L201.033 209.084C198.609 209.396 197.289 209.552 197.073 209.552Z" fill="white"/>
</svg>
