<svg width="249" height="320" viewBox="0 0 249 320" fill="none" xmlns="http://www.w3.org/2000/svg">
<g clip-path="url(#clip0_155_0)">
<path d="M0.5 6C0.5 2.6863 3.18629 0 6.5 0H242.5C245.814 0 248.5 2.68629 248.5 6V314C248.5 317.314 245.814 320 242.5 320H6.49999C3.18629 320 0.5 317.314 0.5 314V6Z" fill="white"/>
<rect x="1" y="0.5" width="247" height="319" rx="5.5" fill="white" stroke="#D4D4D4"/>
<rect x="44.5" y="44" width="160" height="180" fill="black" fill-opacity="0.1"/>
<rect x="44.5156" y="44.0156" width="160" height="180" fill="url(#paint0_linear_155_0)"/>
<path d="M141.641 78.2656V75.3906L147.516 70.0156L162.016 65.6406L174.391 58.0156L173.516 64.0156L168.516 68.0156L174.391 66.2656L192.516 61.1406L204.516 54.2656V61.7656L198.391 65.6406L193.516 70.0156L191.016 72.0156L194.391 71.3906L204.516 68.0156V79.3906L197.516 82.6406L204.516 80.0156V91.0156V97.6406V104.766L198.891 104.016L197.516 105.641H194.391L191.016 107.391L198.391 114.016L190.266 113.266L184.516 110.891L181.266 112.016V114.016L182.641 115.016H176.516V122.641L163.266 128.766L160.516 124.016L108.516 121.641L107.016 130.766L102.391 136.016L98.3906 134.766L94.2656 133.891L92.5156 134.766L84.5156 137.016L80.5156 133.891L75.2656 132.016L72.5156 130.766V126.391L65.8906 128.016L59.6406 125.391L60.5156 123.266L56.5156 122.391L48.5156 117.391H44.5156V110.016V98.3906V89.3906V85.2656V72.6406V60.0156V54.1406L60.5156 60.0156L80.5156 60.8906L87.7656 64.0156L98.1406 77.0156L130.266 84.0156L141.641 78.2656Z" fill="#FAEFC9"/>
<path d="M162.016 65.6406L147.516 70.0156L141.641 75.3906V78.2656L130.266 84.0156L98.1406 77.0156L87.7656 64.0156L80.5156 60.8906L60.5156 60.0156L44.5156 54.1406V60.0156M162.016 65.6406L174.391 58.0156L173.516 64.0156L168.516 68.0156L174.391 66.2656L192.516 61.1406L204.516 54.2656V61.7656L198.391 65.6406L193.516 70.0156L191.016 72.0156M162.016 65.6406L163.891 68.0156L151.641 72.0156L162.016 70.6406V74.3906M191.016 72.0156L194.391 71.3906L204.516 68.0156V79.3906L197.516 82.6406M191.016 72.0156L182.641 77.0156M197.516 82.6406L188.766 84.0156L177.516 83.3906M197.516 82.6406L204.516 80.0156V91.0156M204.516 91.0156L198.391 92.8906H184.516L173.516 88.0156M204.516 91.0156V97.6406M204.516 97.6406L197.516 101.266H186.891L162.016 91.0156M204.516 97.6406V104.766L198.891 104.016L197.516 105.641H194.391L191.016 107.391M162.016 91.0156L163.266 97.6406M162.016 91.0156L172.516 92.0156L162.766 88.0156M191.016 107.391L185.766 108.016L173.516 101.266M191.016 107.391L198.391 114.016L190.266 113.266L184.516 110.891L181.266 112.016M181.266 112.016L170.266 105.641L163.266 97.6406M181.266 112.016V114.016L182.641 115.016H176.516V122.641L163.266 128.766L160.516 124.016L108.516 121.641L107.016 130.766L102.391 136.016L98.3906 134.766L94.2656 133.891M163.266 97.6406L149.766 86.5156L150.516 83.3906L156.516 84.6406M94.2656 133.891L96.5156 124.641L104.516 108.016L102.391 104.016M94.2656 133.891L92.5156 134.766L84.5156 137.016L80.5156 133.891M80.5156 133.891C82.099 132.016 85.3156 128.216 85.5156 128.016C85.7156 127.816 88.099 123.682 89.2656 121.641L97.2656 101.141L78.7656 118.641L72.5156 126.391M80.5156 133.891L75.2656 132.016L72.5156 130.766V126.391M72.5156 126.391L65.8906 128.016L59.6406 125.391L60.5156 123.266L56.5156 122.391L48.5156 117.391M48.5156 117.391L70.1406 101.141L76.5156 96.8906L80.5156 91.3906L68.5156 93.8906M48.5156 117.391H44.5156V110.016M44.5156 110.016L68.5156 93.8906M44.5156 110.016V98.3906M68.5156 93.8906L75.2656 87.0156M44.5156 98.3906L61.3906 90.2656L64.5156 88.0156M44.5156 98.3906V89.3906M44.5156 89.3906L50.6406 87.0156H55.0156V88.0156H64.5156M44.5156 89.3906V85.2656V72.6406M64.5156 88.0156L75.2656 87.0156M75.2656 87.0156L84.5156 84.0156V76.0156L79.5156 77.0156M75.2656 87.0156L76.5156 79.1406M162.016 74.3906L158.766 78.2656C161.807 77.849 168.016 77.1406 168.516 77.6406C168.762 77.8873 170.276 78.8739 172.082 80.0156M162.016 74.3906H172.516L182.641 77.0156M177.516 83.3906L170.266 84.0156M177.516 83.3906C176.101 82.5249 173.937 81.1885 172.082 80.0156M170.266 84.0156L160.516 80.6406L156.516 84.6406M170.266 84.0156L173.516 88.0156M156.516 84.6406L162.766 88.0156M162.766 88.0156H173.516M172.082 80.0156L182.641 77.0156M44.5156 60.0156L50.6406 62.8906H55.0156V60.0156L59.6406 61.8906L57.6406 62.8906L65.8906 64.0156M44.5156 60.0156V72.6406M65.8906 64.0156L60.5156 65.3906C62.349 66.349 65.8656 68.2156 65.2656 68.0156M65.8906 64.0156L72.5156 65.3906L70.1406 68.0156M65.2656 68.0156C64.6656 67.8156 60.7656 67.9323 58.8906 68.0156L61.2017 72.0156M65.2656 68.0156H70.1406M73.6406 73.6406H62.1406L61.2017 72.0156M73.6406 73.6406C74.3906 72.4323 75.7656 70.0156 75.2656 70.0156C74.7656 70.0156 71.6406 68.6823 70.1406 68.0156M73.6406 73.6406L66.5156 77.0156M73.6406 73.6406L82.0156 72.0156L79.5156 77.0156M66.5156 77.0156L76.5156 79.1406M66.5156 77.0156L61.3906 82.0156L50.6406 81.0156L57.6406 77.0156H66.5156ZM76.5156 79.1406L79.5156 77.0156M44.5156 72.6406L52.5156 73.6406M44.5156 72.6406L45.2656 78.2656L52.5156 73.6406M52.5156 73.6406L61.2017 72.0156" stroke="black" stroke-width="2"/>
<path d="M124.516 44.0156H63.0714M63.0714 44.0156H44.5156V52.0156V54.1406L52.9183 58.3906C53.8811 58.1823 60.4456 54.1406 60.4456 54.1406C60.4456 54.1406 60.9416 51.349 61.3209 49.8906L59.1327 48.0156H61.3209L63.0714 44.0156Z" stroke="black" stroke-width="2"/>
<path d="M204.516 57.1406V44.0156H134.141" stroke="black" stroke-width="2"/>
<path d="M204.516 105.516V105.516C204.516 71.5501 176.981 44.0156 143.016 44.0156H134.141" stroke="black" stroke-width="2"/>
<path d="M44.5156 162.516V162.516C44.5156 196.481 72.0501 224.016 106.016 224.016H114.891" stroke="black" stroke-width="2"/>
<path d="M44.5156 134.016V224.016H109.766" stroke="black" stroke-width="2"/>
<path d="M204.516 204.016V224.016H184.516" stroke="black" stroke-width="2"/>
<path d="M116.516 76.0156L108.516 70.2656L113.742 62.7489L117.641 57.1406H122.766L128.453 63.7031L134.141 70.2656L131.016 76.0156L124.516 77.3906L116.516 76.0156Z" fill="#DBA16D"/>
<path d="M113.742 62.7489L114.766 68.0156L118.266 66.8906L117.641 69.5156L120.516 66.8906H122.766L126.016 70.2656L125.141 66.8906L127.516 68.0156L128.453 63.7031M128.453 63.7031L122.766 57.1406H117.641L108.516 70.2656L116.516 76.0156L124.516 77.3906L131.016 76.0156L134.141 70.2656L128.453 63.7031ZM116.516 62.7489L119.141 61.6406M122.766 61.6406L125.141 62.7489" stroke="black" stroke-width="2"/>
<path fill-rule="evenodd" clip-rule="evenodd" d="M108.516 76.0156L114.378 74.9855L115.391 75.3906L124.516 77.5156L130.891 76.0156H133.266L137.891 79.1406L147.891 88.0156L149.266 94.0156L148.94 95.2656L148.516 96.8906V101.623L143.641 97.8906L131.891 99.3906L127.016 102.266L119.891 99.3906H111.266L109.016 99.4469L108.766 99.4531L109.016 97.8906V93.3906L102.516 95.2656L99.7656 91.3906L101.141 88.8906L99.7656 88.0156L97.6406 88.8906L91.7656 88.0156L88.5156 92.0156L85.5156 89.6406L87.0156 88.8906V85.0156L96.5156 81.0156L105.891 84.0156L108.516 82.1406V76.0156ZM151.641 112.953V110.953L158.891 122.141L161.391 130.891L166.766 141.016L174.266 147.016L188.516 156.641H185.266V157.641L173.141 154.141L170.641 154.891L204.016 196.016H173.141L179.516 224.016H89.3906L92.5156 203.766H65.0156L94.9531 156.016L85.5156 153.141V152.016L106.766 130.891L107.516 123.641L111.266 112.453L118.078 111.328L126.141 106.891H131.891L133.266 112.953L146.141 118.766L151.641 112.953ZM179.141 126.141L170.641 129.641V132.016L171.891 136.016L172.516 142.891H174.266L175.391 138.641V134.891L180.516 138.641L185.266 141.641H188.516L183.516 134.891L186.141 136.016L190.141 140.016L192.016 137.891L190.141 136.016L187.516 132.016L182.141 129.641L179.141 126.141ZM76.5156 97.8906L79.5156 100.016L90.2656 108.016L87.6406 107.578V112.453L78.3281 115.016L73.3281 114.078L70.8906 117.266L69.8906 121.453L65.8906 123.453L67.3785 116.873L63.7656 118.766L65.8906 114.078V110.953L68.5156 109.828L70.8906 108.016L67.1406 109.453H65.0156L64.5156 108.016L67.1406 106.141L69.3906 104.016H75.0156V102.266H72.5156L68.5156 100.516V96.8906L72.5156 97.8906H76.5156Z" fill="#FFCF72"/>
<path d="M109.016 102.266L111.266 106.078L118.078 111.328L126.141 106.891H131.891L133.266 112.953L146.141 118.766L151.641 112.953V110.953V109.828L152.516 110.391L151.641 104.016L148.516 101.623L143.641 97.8906L131.891 99.3906L127.016 102.266L119.891 99.3906H111.266L109.016 99.4469V102.266Z" fill="#FFCF72"/>
<path d="M88.5156 92.0156L79.5156 100.016L90.2656 108.016L87.6406 107.578V112.453L90.2656 113.766L93.7656 114.078L98.2656 112.953L92.5156 110.391L98.8906 107.578L99.3906 104.891C100.341 101.791 99.7865 98.2656 99.3906 96.8906C98.6823 95.7656 96.8031 93.2156 94.9531 92.0156C93.1031 90.8156 89.8906 91.5156 88.5156 92.0156Z" fill="#FFCF72"/>
<path d="M99.3906 104.891H104.078L108.516 101.016L108.766 99.4531L109.016 97.8906V93.3906L102.516 95.2656L99.7656 91.3906L101.141 88.8906L99.7656 88.0156L97.6406 88.8906L91.7656 88.0156L88.5156 92.0156C89.8906 91.5156 93.1031 90.8156 94.9531 92.0156C96.8031 93.2156 98.6823 95.7656 99.3906 96.8906C99.7865 98.2656 100.341 101.791 99.3906 104.891Z" fill="#FFCF72"/>
<path d="M155.266 110.391L162.141 125.766L164.516 126.141L167.516 129.641H170.641L179.141 126.141L180.516 125.766L173.141 120.016L167.516 113.766L168.516 112.453L163.891 107.578L158.016 103.266V104.891L155.266 110.391Z" fill="#FFCF72"/>
<path d="M151.641 110.953L157.266 118.266L155.266 110.391L158.016 104.891L153.766 101.016L148.516 96.8906V101.623L151.641 104.016L152.516 110.391L151.641 109.828V110.953Z" fill="#FFCF72"/>
<path d="M153.766 101.016L155.266 100.016L153.766 89.6406L151.641 88.8906L148.516 85.8906L147.266 82.1406L143.641 77.5156H140.516L137.891 79.1406L147.891 88.0156L149.266 94.0156L148.94 95.2656L148.516 96.8906L153.766 101.016Z" fill="#FFCF72"/>
<path d="M110.391 73.3906L105.891 71.2656L101.141 72.0156V75.3906H99.7656L95.3906 78.2656H92.5156L87.0156 85.0156L96.5156 81.0156L105.891 84.0156L108.516 82.1406V76.0156L114.378 74.9855L110.391 73.3906Z" fill="#FFCF72"/>
<path d="M87.0156 85.0156L92.5156 78.2656H95.3906L99.7656 75.3906H101.141V72.0156L105.891 71.2656L110.391 73.3906L114.378 74.9855M87.0156 85.0156V88.8906L85.5156 89.6406L88.5156 92.0156M87.0156 85.0156L96.5156 81.0156L105.891 84.0156L108.516 82.1406V76.0156L114.378 74.9855M88.5156 92.0156L79.5156 100.016M88.5156 92.0156C89.8906 91.5156 93.1031 90.8156 94.9531 92.0156C96.8031 93.2156 98.6823 95.7656 99.3906 96.8906C99.7865 98.2656 100.341 101.791 99.3906 104.891M88.5156 92.0156L91.7656 88.0156L97.6406 88.8906L99.7656 88.0156L101.141 88.8906L99.7656 91.3906L102.516 95.2656L109.016 93.3906M79.5156 100.016L76.5156 97.8906H72.5156L68.5156 96.8906V100.516L72.5156 102.266H75.0156V104.016H69.3906L67.1406 106.141L64.5156 108.016L65.0156 109.453H67.1406L70.8906 108.016M79.5156 100.016L90.2656 108.016L87.6406 107.578V112.453M70.8906 108.016L75.5156 107.578M70.8906 108.016L68.5156 109.828L65.8906 110.953V114.078L63.7656 118.766L67.3785 116.873M73.6406 110.953L69.8906 112.953L69.0156 116.016L67.3785 116.873M67.3785 116.873L65.8906 123.453L69.8906 121.453L70.8906 117.266L73.3281 114.078L78.3281 115.016L87.6406 112.453M87.6406 112.453L90.2656 113.766L93.7656 114.078L98.2656 112.953L92.5156 110.391L98.8906 107.578L99.3906 104.891M99.3906 104.891H104.078L108.516 101.016L108.766 99.4531M109.016 97.8906V93.3906M109.016 97.8906L108.766 99.4531M109.016 97.8906V99.4469M118.078 111.328L111.266 106.078L109.016 102.266V99.4469M118.078 111.328L111.266 112.453L107.516 123.641L106.766 130.891L85.5156 152.016V153.141L94.9531 156.016L65.0156 203.766H92.5156L89.3906 224.016H179.516L173.141 196.016H204.016L170.641 154.891L173.141 154.141L185.266 157.641V156.641H188.516L174.266 147.016L166.766 141.016L161.391 130.891L158.891 122.141L151.641 110.953M118.078 111.328L126.141 106.891H131.891L133.266 112.953L146.141 118.766L151.641 112.953M151.641 110.953L157.266 118.266L155.266 110.391M151.641 110.953V109.828M151.641 110.953V112.953M155.266 110.391L162.141 125.766L164.516 126.141L167.516 129.641H170.641M155.266 110.391L158.016 104.891M170.641 129.641V132.016L171.891 136.016L172.516 142.891H174.266L175.391 138.641V134.891L180.516 138.641L185.266 141.641H188.516L183.516 134.891L186.141 136.016L190.141 140.016L192.016 137.891L190.141 136.016L187.516 132.016L182.141 129.641L179.141 126.141M170.641 129.641L179.141 126.141M179.141 126.141L180.516 125.766L173.141 120.016L167.516 113.766L168.516 112.453L163.891 107.578L158.016 103.266V104.891M158.016 104.891L153.766 101.016M153.766 101.016L155.266 100.016L153.766 89.6406L151.641 88.8906L148.516 85.8906L147.266 82.1406L143.641 77.5156H140.516L137.891 79.1406M153.766 101.016L148.516 96.8906M137.891 79.1406L133.266 76.0156H130.891L124.516 77.5156L115.391 75.3906L114.378 74.9855M137.891 79.1406L147.891 88.0156L149.266 94.0156L148.94 95.2656M109.016 93.3906L113.266 90.5156L112.516 85.0156L120.516 80.0156L130.016 82.8906L136.516 81.0156L144.516 87.0156V90.5156M131.891 99.3906L123.891 93.3906L112.516 94.0156L113.266 91.3906L121.516 88.0156H126.203M131.891 99.3906L127.016 102.266L119.891 99.3906H111.266L109.016 99.4469M131.891 99.3906L143.641 97.8906L148.516 101.623M108.766 99.4531L109.016 99.4469M151.641 112.953V109.828M151.641 109.828L152.516 110.391L151.641 104.016L148.516 101.623M148.516 101.623V96.8906M148.516 96.8906L148.94 95.2656M144.516 90.5156L141.891 92.0156L136.516 88.8906L130.891 88.0156H126.203M144.516 90.5156L148.94 95.2656M148.94 95.2656L142.891 96.0156L126.203 88.0156" stroke="black" stroke-width="2"/>
<path fill-rule="evenodd" clip-rule="evenodd" d="M108.516 76.0156L114.378 74.9855L115.391 75.3906L124.516 77.5156L130.891 76.0156H133.266L137.891 79.1406L147.891 88.0156L149.266 94.0156L148.94 95.2656L148.516 96.8906V101.623L146.078 99.7568L143.641 97.8906L141.015 98.2258L138.389 98.561L135.83 98.8877L133.266 99.2151L131.891 99.3906L127.016 102.266L119.891 99.3906H111.266L109.016 99.4469L108.766 99.4531L109.016 97.8906V93.3906L102.516 95.2656L99.7656 91.3906L101.141 88.8906L99.7656 88.0156L97.6406 88.8906L91.7656 88.0156L88.5156 92.0156L85.5156 89.6406L87.0156 88.8906V85.0156L96.5156 81.0156L105.891 84.0156L108.516 82.1406V76.0156ZM151.641 112.953V110.953L158.891 122.141L161.391 130.891L166.766 141.016L174.266 147.016L188.516 156.641H185.266V157.641L173.141 154.141L170.641 154.891L204.016 196.016H173.141L179.516 224.016H89.3906L92.5156 203.766H65.0156L94.9531 156.016L85.5156 153.141V152.016L106.766 130.891L107.516 123.641L113.266 112.016L121.516 110.953L126.141 106.891H131.891L133.266 112.953L146.141 118.766L151.641 112.953ZM179.141 126.141L170.641 129.641V132.016L171.891 136.016L172.516 142.891H174.266L175.391 138.641V134.891L180.516 138.641L185.266 141.641H188.516L183.516 134.891L186.141 136.016L190.141 140.016L192.016 137.891L190.141 136.016L187.516 132.016L182.141 129.641L179.141 126.141ZM76.5156 97.8906L79.5156 100.016L90.2656 108.016L87.6406 107.578V112.453L78.3281 115.016L73.3281 114.078L70.8906 117.266L69.8906 121.453L65.8906 123.453L67.3785 116.873L63.7656 118.766L65.8906 114.078V110.953L68.5156 109.828L70.8906 108.016L67.1406 109.453H65.0156L64.5156 108.016L67.1406 106.141L69.3906 104.016H75.0156V102.266H72.5156L68.5156 100.516V96.8906L72.5156 97.8906H76.5156Z" fill="#DBAF6D"/>
<path d="M87.0156 85.0156L92.5156 78.2656H95.3906L99.7656 75.3906H101.141V72.0156L105.891 71.2656L110.391 73.3906L114.378 74.9855M87.0156 85.0156V88.8906L85.5156 89.6406L88.5156 92.0156M87.0156 85.0156L96.5156 81.0156L105.891 84.0156L108.516 82.1406V76.0156L114.378 74.9855M88.5156 92.0156L79.5156 100.016M88.5156 92.0156C89.8906 91.5156 93.1031 90.8156 94.9531 92.0156C96.8031 93.2156 98.6823 95.7656 99.3906 96.8906C99.7865 98.2656 100.341 101.791 99.3906 104.891M88.5156 92.0156L91.7656 88.0156L97.6406 88.8906L99.7656 88.0156L101.141 88.8906L99.7656 91.3906L102.516 95.2656L109.016 93.3906M79.5156 100.016L76.5156 97.8906H72.5156L68.5156 96.8906V100.516L72.5156 102.266H75.0156V104.016H69.3906L67.1406 106.141L64.5156 108.016L65.0156 109.453H67.1406L70.8906 108.016M79.5156 100.016L90.2656 108.016L87.6406 107.578V112.453M70.8906 108.016L75.5156 107.578M70.8906 108.016L68.5156 109.828L65.8906 110.953V114.078L63.7656 118.766L67.3785 116.873M73.6406 110.953L69.8906 112.953L69.0156 116.016L67.3785 116.873M67.3785 116.873L65.8906 123.453L69.8906 121.453L70.8906 117.266L73.3281 114.078L78.3281 115.016L87.6406 112.453M87.6406 112.453L90.2656 113.766L93.7656 114.078L98.2656 112.953L92.5156 110.391L98.8906 107.578L99.3906 104.891M99.3906 104.891H104.078L108.516 101.016L108.766 99.4531M109.016 97.8906V93.3906M109.016 97.8906L108.766 99.4531M109.016 97.8906V99.4469M121.516 110.953L113.266 104.016L109.016 102.266V99.4469M121.516 110.953L113.266 112.016L107.516 123.641L106.766 130.891L85.5156 152.016V153.141L94.9531 156.016L65.0156 203.766H92.5156L89.3906 224.016H179.516L173.141 196.016H204.016L170.641 154.891L173.141 154.141L185.266 157.641V156.641H188.516L174.266 147.016L166.766 141.016L161.391 130.891L158.891 122.141L151.641 110.953M121.516 110.953L126.141 106.891H131.891L133.266 112.953L146.141 118.766L151.641 112.953M151.641 110.953L157.266 118.266L155.266 110.391M151.641 110.953V109.828M151.641 110.953V112.953M155.266 110.391L162.141 125.766L164.516 126.141L167.516 129.641H170.641M155.266 110.391L158.016 104.891M170.641 129.641V132.016L171.891 136.016L172.516 142.891H174.266L175.391 138.641V134.891L180.516 138.641L185.266 141.641H188.516L183.516 134.891L186.141 136.016L190.141 140.016L192.016 137.891L190.141 136.016L187.516 132.016L182.141 129.641L179.141 126.141M170.641 129.641L179.141 126.141M179.141 126.141L180.516 125.766L173.141 120.016L167.516 113.766L168.516 112.453L163.891 107.578L158.016 103.266V104.891M158.016 104.891L153.766 101.016M153.766 101.016L155.266 100.016L153.766 89.6406L151.641 88.8906L148.516 85.8906L147.266 82.1406L143.641 77.5156H140.516L137.891 79.1406M153.766 101.016L148.516 96.8906M137.891 79.1406L133.266 76.0156H130.891L124.516 77.5156L115.391 75.3906L114.378 74.9855M137.891 79.1406L147.891 88.0156L149.266 94.0156L148.94 95.2656M109.016 93.3906L113.266 90.5156L112.516 85.0156L120.516 80.0156L130.016 82.8906L136.516 81.0156L144.516 87.0156V90.5156M121.516 88.0156L118.46 89.2656M121.516 88.0156V93.5211M121.516 88.0156H123.859M123.891 93.3906L121.516 93.5211M123.891 93.3906L123.859 88.0156M123.891 93.3906L127.016 95.7344M131.891 99.3906L127.016 102.266L119.891 99.3906H111.266L109.016 99.4469M131.891 99.3906L130.016 97.9844M131.891 99.3906L133.266 99.2151M108.766 99.4531L109.016 99.4469M151.641 112.953V109.828M151.641 109.828L152.516 110.391L151.641 104.016L148.516 101.623M148.516 101.623V96.8906M148.516 101.623L146.078 99.7568M148.516 96.8906L148.94 95.2656M144.516 90.5156L141.891 92.0156L136.516 88.8906L130.891 88.0156H126.203M144.516 90.5156L148.94 95.2656M148.94 95.2656L145.915 95.6406M126.203 88.0156H123.859M126.203 88.0156L127.016 88.4051M115.405 90.5156L113.266 91.3906L112.516 94.0156L115.391 93.8577M115.405 90.5156L115.391 93.8577M115.405 90.5156L118.46 89.2656M115.391 93.8577L118.46 93.689M118.46 89.2656V93.689M118.46 93.689L121.516 93.5211M127.016 88.4051V95.7344M127.016 88.4051L130.016 89.8433M127.016 95.7344L130.016 97.9844M130.016 89.8433V97.9844M130.016 89.8433L133.266 91.4014M133.266 91.4014V99.2151M133.266 91.4014L135.83 92.6309M133.266 99.2151L135.83 98.8877M135.83 92.6309V98.8877M135.83 92.6309L138.389 93.8577M135.83 98.8877L138.389 98.561M138.389 93.8577V98.561M138.389 93.8577L140.64 94.9366M138.389 98.561L141.015 98.2258M140.64 94.9366L142.891 96.0156L145.915 95.6406M140.64 94.9366L141.015 98.2258M141.015 98.2258L143.641 97.8906L146.078 99.7568M145.915 95.6406L146.078 99.7568" stroke="black" stroke-width="2"/>
<path d="M108.516 140.016L87.5156 150.016L93.5156 144.016L105.141 138.516L114.641 122.891L120.516 119.516L125.41 115.921L128.516 113.641V107.141L129.891 115.016L145.391 121.516H148.516L151.641 118.516L157.641 129.641L159.641 141.141L164.516 154.016L169.766 162.016V168.016L151.641 166.766L141.516 152.016L135.266 128.766V132.766L125.641 168.016L97.5156 166.766L86.7656 169.016L90.6406 164.016L98.1406 162.016H122.516L124.516 154.918L118.453 153.578L116.203 154.766L114.641 150.578L118.453 148.016L119.516 150.578L125.41 151.744L127.828 142.516L122.766 140.891L120.516 142.078L118.953 137.891L122.766 135.328L123.828 137.891L128.898 139.366L131.516 130.078L126.766 128.453L124.516 129.641L122.953 125.453L126.766 122.891L127.828 125.453L132.516 127.073L133.391 124.016L129.891 115.016L128.516 107.141V113.641L125.41 115.921L120.516 119.516L108.516 140.016Z" fill="#D3D3D3"/>
<path d="M120.516 119.516L108.516 140.016L87.5156 150.016L93.5156 144.016L105.141 138.516L114.641 122.891L120.516 119.516ZM120.516 119.516L125.41 115.921M129.891 115.016L128.516 107.141V113.641L125.41 115.921M129.891 115.016L133.391 124.016L132.516 127.073M129.891 115.016L145.391 121.516H148.516M169.766 168.016L151.641 166.766L141.516 152.016L135.266 128.766V132.766L125.641 168.016L97.5156 166.766L86.7656 169.016L90.6406 164.016L98.1406 162.016H122.516L124.516 154.918M169.766 168.016V162.016L164.516 154.016L159.641 141.141L157.641 129.641L151.641 118.516L148.516 121.516M169.766 168.016L157.641 160.016L152.516 145.141L148.516 121.516M132.516 127.073L127.828 125.453L126.766 122.891L122.953 125.453L124.516 129.641L126.766 128.453L131.516 130.078M132.516 127.073L131.516 130.078M131.516 130.078L128.898 139.366M128.898 139.366L123.828 137.891L122.766 135.328L118.953 137.891L120.516 142.078L122.766 140.891L127.828 142.516M128.898 139.366L127.828 142.516M127.828 142.516L125.41 151.744M125.41 151.744L119.516 150.578L118.453 148.016L114.641 150.578L116.203 154.766L118.453 153.578L124.516 154.918M125.41 151.744L124.516 154.918M125.41 107.141V115.921" stroke="black" stroke-width="2"/>
<path d="M124.516 36.0156V60.0156" stroke="black" stroke-width="2"/>
<path d="M124.516 168.016L124.516 232.016" stroke="black" stroke-width="2"/>
<path d="M214.766 134.016L188.516 134.016" stroke="black" stroke-width="2"/>
<path d="M80.5156 134.016H36.5156" stroke="black" stroke-width="2"/>
<path d="M122.141 44.0156L124.516 41.6406L126.891 44.0156L124.516 46.3906L122.141 44.0156Z" stroke="black" stroke-width="2"/>
<path d="M122.141 224.016L124.516 221.641L126.891 224.016L124.516 226.391L122.141 224.016Z" stroke="black" stroke-width="2"/>
<path d="M202.141 134.016L204.516 131.641L206.891 134.016L204.516 136.391L202.141 134.016Z" stroke="black" stroke-width="2"/>
<path d="M42.1406 134.016L44.5156 131.641L46.8906 134.016L44.5156 136.391L42.1406 134.016Z" stroke="black" stroke-width="2"/>
<path d="M51.721 255H53.3062V249.886H56.1698C56.2849 249.886 56.3936 249.886 56.5022 249.88L59.2636 255H61.1045L58.145 249.592C59.8133 249.023 60.5931 247.662 60.5931 245.923C60.5931 243.609 59.2124 241.909 56.1443 241.909H51.721V255ZM53.3062 248.455V243.315H56.0931C58.2153 243.315 59.0335 244.351 59.0335 245.923C59.0335 247.496 58.2153 248.455 56.1187 248.455H53.3062ZM67.0411 255.205C69.0354 255.205 70.4928 254.207 70.953 252.724L69.4957 252.315C69.1121 253.338 68.2236 253.849 67.0411 253.849C65.2705 253.849 64.0496 252.705 63.9793 250.602H71.1064V249.963C71.1064 246.307 68.9332 245.054 66.8877 245.054C64.2286 245.054 62.4644 247.151 62.4644 250.168C62.4644 253.185 64.203 255.205 67.0411 255.205ZM63.9793 249.298C64.0816 247.771 65.1618 246.409 66.8877 246.409C68.5241 246.409 69.5724 247.636 69.5724 249.298H63.9793ZM73.4012 255H74.9097V248.864C74.9097 247.425 75.958 246.409 77.1341 246.409C78.2783 246.409 79.0773 247.157 79.0773 248.276V255H80.6114V248.608C80.6114 247.342 81.404 246.409 82.7847 246.409C83.8586 246.409 84.779 246.978 84.779 248.429V255H86.2876V248.429C86.2876 246.121 85.0475 245.054 83.2961 245.054C81.8898 245.054 80.8607 245.7 80.3557 246.716H80.2535C79.7677 245.668 78.9111 245.054 77.6199 245.054C76.3415 245.054 75.3955 245.668 74.9864 246.716H74.8586V245.182H73.4012V255ZM93.0344 255.205C95.6934 255.205 97.4832 253.185 97.4832 250.142C97.4832 247.074 95.6934 245.054 93.0344 245.054C90.3753 245.054 88.5855 247.074 88.5855 250.142C88.5855 253.185 90.3753 255.205 93.0344 255.205ZM93.0344 253.849C91.0145 253.849 90.094 252.111 90.094 250.142C90.094 248.173 91.0145 246.409 93.0344 246.409C95.0542 246.409 95.9747 248.173 95.9747 250.142C95.9747 252.111 95.0542 253.849 93.0344 253.849ZM107.463 245.182H105.826L103.116 253.006H103.014L100.304 245.182H98.6673L102.298 255H103.832L107.463 245.182ZM113.219 255.205C115.213 255.205 116.671 254.207 117.131 252.724L115.673 252.315C115.29 253.338 114.401 253.849 113.219 253.849C111.448 253.849 110.227 252.705 110.157 250.602H117.284V249.963C117.284 246.307 115.111 245.054 113.065 245.054C110.406 245.054 108.642 247.151 108.642 250.168C108.642 253.185 110.381 255.205 113.219 255.205ZM110.157 249.298C110.259 247.771 111.34 246.409 113.065 246.409C114.702 246.409 115.75 247.636 115.75 249.298H110.157ZM127.531 255.23C129.244 255.23 130.139 254.31 130.445 253.67H130.522V255H132.031V248.531C132.031 245.412 129.653 245.054 128.4 245.054C126.917 245.054 125.229 245.565 124.462 247.355L125.894 247.866C126.227 247.151 127.013 246.384 128.451 246.384C129.838 246.384 130.522 247.119 130.522 248.378V248.429C130.522 249.158 129.781 249.094 127.991 249.324C126.169 249.56 124.181 249.963 124.181 252.213C124.181 254.131 125.664 255.23 127.531 255.23ZM127.761 253.875C126.559 253.875 125.69 253.338 125.69 252.29C125.69 251.139 126.738 250.781 127.914 250.628C128.553 250.551 130.266 250.372 130.522 250.065V251.446C130.522 252.673 129.551 253.875 127.761 253.875ZM136.293 241.909H134.784V255H136.293V241.909ZM140.564 241.909H139.055V255H140.564V241.909ZM144.299 258.682C145.66 258.682 146.619 257.96 147.188 256.432L151.368 245.207L149.719 245.182L147.009 253.006H146.907L144.196 245.182H142.56L146.191 255.051L145.909 255.818C145.36 257.314 144.682 257.455 143.583 257.173L143.199 258.503C143.353 258.58 143.787 258.682 144.299 258.682ZM164.614 250.986C164.614 252.827 163.208 253.67 162.083 253.67C160.83 253.67 159.935 252.75 159.935 251.318V245.182H158.427V251.42C158.427 253.926 159.756 255.128 161.597 255.128C163.08 255.128 164.052 254.335 164.512 253.338H164.614V255H166.123V245.182H164.614V250.986ZM170.394 249.094C170.394 247.381 171.455 246.409 172.9 246.409C174.3 246.409 175.15 247.323 175.15 248.864V255H176.658V248.761C176.658 246.256 175.322 245.054 173.334 245.054C171.851 245.054 170.931 245.719 170.471 246.716H170.343V245.182H168.886V255H170.394V249.094ZM179.415 255H180.923V245.182H179.415V255ZM180.182 243.545C180.77 243.545 181.256 243.085 181.256 242.523C181.256 241.96 180.77 241.5 180.182 241.5C179.594 241.5 179.108 241.96 179.108 242.523C179.108 243.085 179.594 243.545 180.182 243.545ZM187.956 245.182H185.86V242.83H184.351V245.182H182.868V246.46H184.351V252.597C184.351 254.31 185.732 255.128 187.01 255.128C187.573 255.128 187.931 255.026 188.135 254.949L187.828 253.594C187.701 253.619 187.496 253.67 187.164 253.67C186.499 253.67 185.86 253.466 185.86 252.188V246.46H187.956V245.182ZM191.325 255.102C191.958 255.102 192.475 254.585 192.475 253.952C192.475 253.319 191.958 252.801 191.325 252.801C190.692 252.801 190.174 253.319 190.174 253.952C190.174 254.585 190.692 255.102 191.325 255.102ZM20.6253 263.909V277H22.1082V267.054H22.2361L26.327 277H27.7588L31.8497 267.054H31.9775V277H33.4605V263.909H31.5684L27.1196 274.776H26.9662L22.5173 263.909H20.6253ZM40.423 277.205C43.0821 277.205 44.8719 275.185 44.8719 272.142C44.8719 269.074 43.0821 267.054 40.423 267.054C37.7639 267.054 35.9742 269.074 35.9742 272.142C35.9742 275.185 37.7639 277.205 40.423 277.205ZM40.423 275.849C38.4031 275.849 37.4827 274.111 37.4827 272.142C37.4827 270.173 38.4031 268.409 40.423 268.409C42.4429 268.409 43.3634 270.173 43.3634 272.142C43.3634 274.111 42.4429 275.849 40.423 275.849ZM54.8515 267.182H53.2151L50.5049 275.006H50.4026L47.6924 267.182H46.056L49.6867 277H51.2208L54.8515 267.182ZM60.6075 277.205C62.6018 277.205 64.0592 276.207 64.5194 274.724L63.0621 274.315C62.6785 275.338 61.79 275.849 60.6075 275.849C58.8369 275.849 57.616 274.705 57.5457 272.602H64.6729V271.963C64.6729 268.307 62.4996 267.054 60.4541 267.054C57.795 267.054 56.0308 269.151 56.0308 272.168C56.0308 275.185 57.7694 277.205 60.6075 277.205ZM57.5457 271.298C57.648 269.771 58.7282 268.409 60.4541 268.409C62.0905 268.409 63.1388 269.636 63.1388 271.298H57.5457ZM74.9193 277.23C76.6324 277.23 77.5273 276.31 77.8341 275.67H77.9108V277H79.4193V270.531C79.4193 267.412 77.0415 267.054 75.7886 267.054C74.3057 267.054 72.6182 267.565 71.8511 269.355L73.2829 269.866C73.6153 269.151 74.4015 268.384 75.8398 268.384C77.2268 268.384 77.9108 269.119 77.9108 270.378V270.429C77.9108 271.158 77.1693 271.094 75.3795 271.324C73.5578 271.56 71.5699 271.963 71.5699 274.213C71.5699 276.131 73.0528 277.23 74.9193 277.23ZM75.1494 275.875C73.9477 275.875 73.0784 275.338 73.0784 274.29C73.0784 273.139 74.1267 272.781 75.3028 272.628C75.942 272.551 77.6551 272.372 77.9108 272.065V273.446C77.9108 274.673 76.9392 275.875 75.1494 275.875ZM83.6812 271.094C83.6812 269.381 84.7423 268.409 86.1869 268.409C87.5867 268.409 88.4369 269.323 88.4369 270.864V277H89.9454V270.761C89.9454 268.256 88.6095 267.054 86.6215 267.054C85.1386 267.054 84.2181 267.719 83.7579 268.716H83.6301V267.182H82.1727V277H83.6812V271.094ZM93.322 280.682C94.6835 280.682 95.6423 279.96 96.2112 278.432L100.392 267.207L98.7425 267.182L96.0322 275.006H95.93L93.2197 267.182H91.5834L95.214 277.051L94.9328 277.818C94.3831 279.314 93.7055 279.455 92.6061 279.173L92.2226 280.503C92.376 280.58 92.8106 280.682 93.322 280.682ZM111.439 277.205C113.612 277.205 115.044 275.875 115.299 274.136H113.791C113.51 275.21 112.615 275.849 111.439 275.849C109.649 275.849 108.498 274.366 108.498 272.091C108.498 269.866 109.674 268.409 111.439 268.409C112.768 268.409 113.561 269.227 113.791 270.122H115.299C115.044 268.281 113.484 267.054 111.413 267.054C108.754 267.054 106.99 269.151 106.99 272.142C106.99 275.082 108.677 277.205 111.439 277.205ZM120.394 277.23C122.107 277.23 123.002 276.31 123.309 275.67H123.385V277H124.894V270.531C124.894 267.412 122.516 267.054 121.263 267.054C119.78 267.054 118.093 267.565 117.326 269.355L118.758 269.866C119.09 269.151 119.876 268.384 121.314 268.384C122.701 268.384 123.385 269.119 123.385 270.378V270.429C123.385 271.158 122.644 271.094 120.854 271.324C119.032 271.56 117.044 271.963 117.044 274.213C117.044 276.131 118.527 277.23 120.394 277.23ZM120.624 275.875C119.422 275.875 118.553 275.338 118.553 274.29C118.553 273.139 119.601 272.781 120.777 272.628C121.417 272.551 123.13 272.372 123.385 272.065V273.446C123.385 274.673 122.414 275.875 120.624 275.875ZM127.647 277H129.156V270.787C129.156 269.457 130.204 268.486 131.636 268.486C132.039 268.486 132.454 268.562 132.556 268.588V267.054C132.384 267.041 131.987 267.028 131.764 267.028C130.588 267.028 129.565 267.693 129.207 268.665H129.105V267.182H127.647V277ZM137.753 277.205C139.645 277.205 140.284 276.028 140.617 275.491H140.796V277H142.253V263.909H140.745V268.741H140.617C140.284 268.23 139.696 267.054 137.779 267.054C135.299 267.054 133.585 269.023 133.585 272.116C133.585 275.236 135.299 277.205 137.753 277.205ZM137.958 275.849C136.066 275.849 135.094 274.188 135.094 272.091C135.094 270.02 136.04 268.409 137.958 268.409C139.799 268.409 140.77 269.892 140.77 272.091C140.77 274.315 139.773 275.849 137.958 275.849ZM154.66 267.182H152.461V266.185C152.461 265.213 152.87 264.702 153.867 264.702C154.302 264.702 154.558 264.804 154.711 264.855L155.146 263.551C154.916 263.449 154.456 263.295 153.714 263.295C152.308 263.295 150.953 264.139 150.953 265.827V267.182H149.367V268.46H150.953V277H152.461V268.46H154.66V267.182ZM156.774 277H158.283V270.787C158.283 269.457 159.331 268.486 160.763 268.486C161.166 268.486 161.581 268.562 161.683 268.588V267.054C161.511 267.041 161.114 267.028 160.891 267.028C159.715 267.028 158.692 267.693 158.334 268.665H158.232V267.182H156.774V277ZM167.161 277.205C169.82 277.205 171.61 275.185 171.61 272.142C171.61 269.074 169.82 267.054 167.161 267.054C164.502 267.054 162.712 269.074 162.712 272.142C162.712 275.185 164.502 277.205 167.161 277.205ZM167.161 275.849C165.141 275.849 164.221 274.111 164.221 272.142C164.221 270.173 165.141 268.409 167.161 268.409C169.181 268.409 170.102 270.173 170.102 272.142C170.102 274.111 169.181 275.849 167.161 275.849ZM173.913 277H175.421V270.864C175.421 269.425 176.47 268.409 177.646 268.409C178.79 268.409 179.589 269.157 179.589 270.276V277H181.123V270.608C181.123 269.342 181.916 268.409 183.296 268.409C184.37 268.409 185.291 268.978 185.291 270.429V277H186.799V270.429C186.799 268.121 185.559 267.054 183.808 267.054C182.402 267.054 181.372 267.7 180.867 268.716H180.765C180.279 267.668 179.423 267.054 178.132 267.054C176.853 267.054 175.907 267.668 175.498 268.716H175.37V267.182H173.913V277ZM194.62 280.682H196.128V275.491H196.256C196.589 276.028 197.228 277.205 199.12 277.205C201.574 277.205 203.288 275.236 203.288 272.116C203.288 269.023 201.574 267.054 199.094 267.054C197.177 267.054 196.589 268.23 196.256 268.741H196.077V267.182H194.62V280.682ZM196.103 272.091C196.103 269.892 197.074 268.409 198.915 268.409C200.833 268.409 201.779 270.02 201.779 272.091C201.779 274.188 200.807 275.849 198.915 275.849C197.1 275.849 196.103 274.315 196.103 272.091ZM209.577 277.205C212.236 277.205 214.026 275.185 214.026 272.142C214.026 269.074 212.236 267.054 209.577 267.054C206.918 267.054 205.128 269.074 205.128 272.142C205.128 275.185 206.918 277.205 209.577 277.205ZM209.577 275.849C207.557 275.849 206.637 274.111 206.637 272.142C206.637 270.173 207.557 268.409 209.577 268.409C211.597 268.409 212.518 270.173 212.518 272.142C212.518 274.111 211.597 275.849 209.577 275.849ZM220.318 277.205C222.977 277.205 224.766 275.185 224.766 272.142C224.766 269.074 222.977 267.054 220.318 267.054C217.658 267.054 215.869 269.074 215.869 272.142C215.869 275.185 217.658 277.205 220.318 277.205ZM220.318 275.849C218.298 275.849 217.377 274.111 217.377 272.142C217.377 270.173 218.298 268.409 220.318 268.409C222.337 268.409 223.258 270.173 223.258 272.142C223.258 274.111 222.337 275.849 220.318 275.849ZM228.578 263.909H227.069V277H228.578V263.909ZM32.0558 299.205C34.7149 299.205 36.5047 297.185 36.5047 294.142C36.5047 291.074 34.7149 289.054 32.0558 289.054C29.3968 289.054 27.607 291.074 27.607 294.142C27.607 297.185 29.3968 299.205 32.0558 299.205ZM32.0558 297.849C30.036 297.849 29.1155 296.111 29.1155 294.142C29.1155 292.173 30.036 290.409 32.0558 290.409C34.0757 290.409 34.9962 292.173 34.9962 294.142C34.9962 296.111 34.0757 297.849 32.0558 297.849ZM38.8074 299H40.316V292.787C40.316 291.457 41.3643 290.486 42.7961 290.486C43.1988 290.486 43.6143 290.562 43.7165 290.588V289.054C43.5439 289.041 43.1476 289.028 42.9239 289.028C41.7478 289.028 40.7251 289.693 40.3671 290.665H40.2648V289.182H38.8074V299ZM53.4564 299.23C55.1695 299.23 56.0644 298.31 56.3712 297.67H56.4479V299H57.9564V292.531C57.9564 289.412 55.5786 289.054 54.3257 289.054C52.8428 289.054 51.1553 289.565 50.3882 291.355L51.82 291.866C52.1524 291.151 52.9387 290.384 54.3769 290.384C55.7639 290.384 56.4479 291.119 56.4479 292.378V292.429C56.4479 293.158 55.7064 293.094 53.9166 293.324C52.0949 293.56 50.107 293.963 50.107 296.213C50.107 298.131 51.5899 299.23 53.4564 299.23ZM53.6865 297.875C52.4848 297.875 51.6155 297.338 51.6155 296.29C51.6155 295.139 52.6638 294.781 53.8399 294.628C54.4791 294.551 56.1922 294.372 56.4479 294.065V295.446C56.4479 296.673 55.4763 297.875 53.6865 297.875ZM62.2183 293.094C62.2183 291.381 63.2794 290.409 64.724 290.409C66.1238 290.409 66.974 291.323 66.974 292.864V299H68.4825V292.761C68.4825 290.256 67.1466 289.054 65.1586 289.054C63.6757 289.054 62.7552 289.719 62.295 290.716H62.1672V289.182H60.7098V299H62.2183V293.094ZM71.8591 302.682C73.2206 302.682 74.1794 301.96 74.7483 300.432L78.9287 289.207L77.2796 289.182L74.5693 297.006H74.4671L71.7568 289.182H70.1205L73.7512 299.051L73.4699 299.818C72.9202 301.314 72.2426 301.455 71.1432 301.173L70.7597 302.503C70.9131 302.58 71.3477 302.682 71.8591 302.682ZM87.4957 293.094C87.4957 291.381 88.5887 290.409 90.078 290.409C91.4971 290.409 92.3536 291.304 92.3536 292.864V299H93.8621V292.761C93.8621 290.237 92.5198 289.054 90.5127 289.054C88.9658 289.054 88.0837 289.7 87.6235 290.716H87.4957V285.909H85.9871V299H87.4957V293.094ZM99.5111 299.23C101.224 299.23 102.119 298.31 102.426 297.67H102.503V299H104.011V292.531C104.011 289.412 101.633 289.054 100.38 289.054C98.8975 289.054 97.21 289.565 96.4429 291.355L97.8747 291.866C98.2071 291.151 98.9933 290.384 100.432 290.384C101.819 290.384 102.503 291.119 102.503 292.378V292.429C102.503 293.158 101.761 293.094 99.9713 293.324C98.1496 293.56 96.1617 293.963 96.1617 296.213C96.1617 298.131 97.6446 299.23 99.5111 299.23ZM99.7412 297.875C98.5395 297.875 97.6702 297.338 97.6702 296.29C97.6702 295.139 98.7185 294.781 99.8946 294.628C100.534 294.551 102.247 294.372 102.503 294.065V295.446C102.503 296.673 101.531 297.875 99.7412 297.875ZM108.273 293.094C108.273 291.381 109.334 290.409 110.779 290.409C112.179 290.409 113.029 291.323 113.029 292.864V299H114.537V292.761C114.537 290.256 113.201 289.054 111.213 289.054C109.73 289.054 108.81 289.719 108.35 290.716H108.222V289.182H106.764V299H108.273V293.094ZM121.001 299.205C122.893 299.205 123.532 298.028 123.865 297.491H124.044V299H125.501V285.909H123.993V290.741H123.865C123.532 290.23 122.944 289.054 121.027 289.054C118.547 289.054 116.834 291.023 116.834 294.116C116.834 297.236 118.547 299.205 121.001 299.205ZM121.206 297.849C119.314 297.849 118.342 296.188 118.342 294.091C118.342 292.02 119.288 290.409 121.206 290.409C123.047 290.409 124.018 291.892 124.018 294.091C124.018 296.315 123.021 297.849 121.206 297.849ZM137.806 289.182H135.709V286.83H134.201V289.182H132.718V290.46H134.201V296.597C134.201 298.31 135.581 299.128 136.86 299.128C137.422 299.128 137.78 299.026 137.985 298.949L137.678 297.594C137.55 297.619 137.346 297.67 137.013 297.67C136.348 297.67 135.709 297.466 135.709 296.188V290.46H137.806V289.182ZM143.958 299.205C146.617 299.205 148.407 297.185 148.407 294.142C148.407 291.074 146.617 289.054 143.958 289.054C141.299 289.054 139.509 291.074 139.509 294.142C139.509 297.185 141.299 299.205 143.958 299.205ZM143.958 297.849C141.938 297.849 141.018 296.111 141.018 294.142C141.018 292.173 141.938 290.409 143.958 290.409C145.978 290.409 146.899 292.173 146.899 294.142C146.899 296.111 145.978 297.849 143.958 297.849ZM160.17 299.179C162.708 299.179 164.593 297.587 164.593 295.446C164.593 293.784 163.609 292.576 161.96 292.301V292.199C163.283 291.796 164.108 290.71 164.108 289.233C164.108 287.379 162.644 285.73 160.221 285.73C157.958 285.73 156.079 287.124 156.002 289.182H157.536C157.594 287.878 158.834 287.111 160.196 287.111C161.64 287.111 162.573 287.987 162.573 289.31C162.573 290.69 161.493 291.585 159.94 291.585H158.892V292.991H159.94C161.928 292.991 163.034 294.001 163.034 295.446C163.034 296.833 161.826 297.773 160.144 297.773C158.63 297.773 157.428 296.993 157.332 295.727H155.721C155.817 297.786 157.632 299.179 160.17 299.179ZM167.233 299H168.742V292.787C168.742 291.457 169.79 290.486 171.222 290.486C171.625 290.486 172.04 290.562 172.142 290.588V289.054C171.97 289.041 171.573 289.028 171.35 289.028C170.174 289.028 169.151 289.693 168.793 290.665H168.691V289.182H167.233V299ZM177.339 299.205C179.231 299.205 179.87 298.028 180.203 297.491H180.382V299H181.839V285.909H180.331V290.741H180.203C179.87 290.23 179.282 289.054 177.365 289.054C174.884 289.054 173.171 291.023 173.171 294.116C173.171 297.236 174.884 299.205 177.339 299.205ZM177.544 297.849C175.652 297.849 174.68 296.188 174.68 294.091C174.68 292.02 175.626 290.409 177.544 290.409C179.384 290.409 180.356 291.892 180.356 294.091C180.356 296.315 179.359 297.849 177.544 297.849ZM191.382 285.909H189.874V299H191.382V285.909ZM194.145 299H195.654V289.182H194.145V299ZM194.912 287.545C195.5 287.545 195.986 287.085 195.986 286.523C195.986 285.96 195.5 285.5 194.912 285.5C194.324 285.5 193.839 285.96 193.839 286.523C193.839 287.085 194.324 287.545 194.912 287.545ZM199.925 293.094C199.925 291.381 200.986 290.409 202.431 290.409C203.831 290.409 204.681 291.323 204.681 292.864V299H206.19V292.761C206.19 290.256 204.854 289.054 202.866 289.054C201.383 289.054 200.462 289.719 200.002 290.716H199.874V289.182H198.417V299H199.925V293.094ZM208.946 299H210.455V295.325L211.509 294.347L215.185 299H217.102L212.647 293.375L216.796 289.182H214.929L210.634 293.554H210.455V285.909H208.946V299ZM219.837 299.102C220.469 299.102 220.987 298.585 220.987 297.952C220.987 297.319 220.469 296.801 219.837 296.801C219.204 296.801 218.686 297.319 218.686 297.952C218.686 298.585 219.204 299.102 219.837 299.102Z" fill="black" fill-opacity="0.87"/>
<path d="M216.5 160H236.5V176L228.5 184.5L236.5 192V208H226.5H216.5V160Z" fill="#FF4B3C" stroke="black" stroke-width="2"/>
<path d="M216.5 160H236.5V176L228.5 184.5L236.5 192V208H226.5H216.5V160Z" fill="black" fill-opacity="0.17"/>
<path d="M224.5 168L216.5 160V168H224.5Z" fill="black" fill-opacity="0.38" stroke="black" stroke-width="2" stroke-linejoin="bevel"/>
<path d="M248.5 176L240.5 184L248.5 192V176Z" fill="#D4D4D4"/>
<path d="M32.5 160H12.5V176L20.5 184.5L12.5 192V208H22.5H32.5V160Z" fill="#FF4B3C" stroke="black" stroke-width="2"/>
<path d="M32.5 160H12.5V176L20.5 184.5L12.5 192V208H22.5H32.5V160Z" fill="black" fill-opacity="0.17"/>
<path d="M24.5 168L32.5 160V168H24.5Z" fill="black" fill-opacity="0.38" stroke="black" stroke-width="2" stroke-linejoin="bevel"/>
<path d="M0.5 176L8.5 184L0.5 192V176Z" fill="#D4D4D4"/>
<path d="M224.5 168H24.5V216H224.5V168Z" fill="#FF4B3C" stroke="black" stroke-width="2"/>
<path d="M77.6115 203.36C75.7155 203.36 73.3035 203.216 70.3755 202.928L70.6275 196.268H72.8235L73.4355 200.228C74.3715 200.348 75.3315 200.468 76.3155 200.588C77.2995 200.708 78.0795 200.768 78.6555 200.768C78.7755 200.768 78.9435 200.624 79.1595 200.336C79.3995 200.048 79.6035 199.7 79.7715 199.292C79.9395 198.884 80.0235 198.5 80.0235 198.14C80.0235 197.252 79.6875 196.508 79.0155 195.908C78.3435 195.284 77.3235 194.564 75.9555 193.748C74.8275 193.124 73.9035 192.548 73.1835 192.02C72.4635 191.492 71.8515 190.844 71.3475 190.076C70.8675 189.284 70.6275 188.36 70.6275 187.304C70.6275 186.608 70.6875 185.996 70.8075 185.468C71.0955 184.94 71.6475 184.316 72.4635 183.596C73.2795 182.876 74.1195 182.252 74.9835 181.724C75.8715 181.196 76.5315 180.932 76.9635 180.932C77.5155 180.932 79.6275 181.136 83.2995 181.544L83.0115 187.844H80.8155L80.3115 184.244C79.5195 184.1 78.6075 183.956 77.5755 183.812C76.5675 183.668 75.8235 183.596 75.3435 183.596C75.0555 183.596 74.8155 183.8 74.6235 184.208C74.4315 184.616 74.3355 185.216 74.3355 186.008C74.3355 186.944 74.6595 187.736 75.3075 188.384C75.9555 189.032 76.9035 189.716 78.1515 190.436C79.5435 191.228 80.5875 191.864 81.2835 192.344C81.9795 192.824 82.5915 193.46 83.1195 194.252C83.6715 195.02 83.9475 195.944 83.9475 197.024C83.9475 197.648 83.8755 198.248 83.7315 198.824C83.4195 199.424 82.8675 200.084 82.0755 200.804C81.2835 201.524 80.4555 202.136 79.5915 202.64C78.7515 203.12 78.0915 203.36 77.6115 203.36ZM91.9516 203.36C90.8956 203.36 89.9236 203.072 89.0356 202.496C88.1716 201.896 87.4756 201.008 86.9476 199.832C86.4436 198.656 86.1916 197.216 86.1916 195.512C86.1916 194.384 86.2756 193.34 86.4436 192.38C86.6116 191.396 86.8276 190.628 87.0916 190.076C87.4996 189.524 88.3996 188.78 89.7916 187.844C91.2076 186.908 92.1436 186.44 92.5996 186.44C92.8636 186.44 93.7996 186.56 95.4076 186.8C97.0156 187.016 98.2516 187.196 99.1156 187.34V200.696L100.376 201.2V202.748C98.1916 203.156 96.9796 203.36 96.7396 203.36C96.6436 203.36 96.4036 203.18 96.0196 202.82C95.6596 202.46 95.4796 202.22 95.4796 202.1V200.804C93.2956 202.508 92.1196 203.36 91.9516 203.36ZM92.3476 200.444C92.5876 200.444 93.5956 200 95.3716 199.112V189.428C94.7956 189.212 94.0636 189.02 93.1756 188.852C92.3116 188.66 91.7356 188.588 91.4476 188.636C91.0156 188.732 90.6916 189.272 90.4756 190.256C90.2596 191.24 90.1516 192.884 90.1516 195.188C90.1516 196.34 90.2716 197.312 90.5116 198.104C90.7756 198.896 91.0756 199.484 91.4116 199.868C91.7716 200.252 92.0836 200.444 92.3476 200.444ZM108.045 203.36C107.085 203.36 106.197 203.072 105.381 202.496C104.565 201.92 103.905 201.056 103.401 199.904C102.897 198.752 102.645 197.348 102.645 195.692C102.645 194.54 102.729 193.448 102.897 192.416C103.065 191.384 103.281 190.616 103.545 190.112C103.809 189.752 104.325 189.284 105.093 188.708C105.861 188.108 106.629 187.58 107.397 187.124C108.189 186.668 108.729 186.44 109.017 186.44C109.593 186.44 110.253 186.512 110.997 186.656C111.765 186.776 112.485 186.944 113.157 187.16L113.049 191.948H110.673L110.133 189.392C109.869 189.248 109.533 189.116 109.125 188.996C108.741 188.876 108.393 188.816 108.081 188.816C107.865 188.816 107.697 188.864 107.577 188.96C107.265 189.2 107.025 189.884 106.857 191.012C106.689 192.116 106.605 193.484 106.605 195.116C106.605 196.292 106.725 197.288 106.965 198.104C107.229 198.896 107.553 199.484 107.937 199.868C108.321 200.252 108.705 200.444 109.089 200.444H113.157V202.1C112.197 202.388 111.189 202.676 110.133 202.964C109.077 203.228 108.381 203.36 108.045 203.36ZM117.784 203.36C117.664 203.36 117.412 203.18 117.028 202.82C116.668 202.46 116.488 202.22 116.488 202.1V189.032L115.156 188.564V187.052C117.292 186.668 118.48 186.476 118.72 186.476C118.84 186.476 119.104 186.68 119.512 187.088C119.944 187.472 120.16 187.712 120.16 187.808L120.088 189.14C121.84 187.244 122.788 186.296 122.932 186.296C123.364 186.296 124.192 186.488 125.416 186.872C125.488 187.04 125.548 187.244 125.596 187.484C125.644 187.7 125.668 187.904 125.668 188.096C125.668 188.288 125.5 188.708 125.164 189.356C124.852 189.98 124.648 190.316 124.552 190.364C123.616 190.004 122.956 189.824 122.572 189.824C122.404 189.824 122.092 189.932 121.636 190.148C121.18 190.34 120.712 190.58 120.232 190.868V200.48L122.176 201.056V202.712C119.488 203.144 118.024 203.36 117.784 203.36ZM129.637 203.36C129.493 203.36 129.205 203.168 128.773 202.784C128.341 202.376 128.125 202.112 128.125 201.992V188.996L126.793 188.564V187.052C128.953 186.668 130.153 186.476 130.393 186.476C130.537 186.476 130.813 186.668 131.221 187.052C131.629 187.412 131.833 187.676 131.833 187.844V200.804L133.129 201.2V202.712C131.041 203.144 129.877 203.36 129.637 203.36ZM127.873 179.78L131.005 179.6L131.617 180.428L131.401 183.668H128.161L127.873 179.78ZM137.929 203.36C137.809 203.36 137.557 203.18 137.173 202.82C136.789 202.46 136.597 202.22 136.597 202.1V188.888H134.869V187.304L136.597 186.62V185.252C136.597 184.772 136.909 184.088 137.533 183.2C138.157 182.288 138.853 181.472 139.621 180.752C140.389 180.008 140.965 179.636 141.349 179.636C141.733 179.636 142.261 179.66 142.933 179.708C143.605 179.756 144.253 179.804 144.877 179.852C145.021 179.972 145.177 180.176 145.345 180.464C145.537 180.728 145.633 180.92 145.633 181.04C145.633 181.112 145.525 181.4 145.309 181.904C145.117 182.408 144.961 182.792 144.841 183.056C144.697 183.008 144.097 182.84 143.041 182.552C142.009 182.264 141.337 182.12 141.025 182.12C140.881 182.12 140.737 182.324 140.593 182.732C140.449 183.14 140.377 183.584 140.377 184.064L140.341 186.8H143.869V188.924H140.341V200.516L142.285 201.128V202.712C139.621 203.144 138.169 203.36 137.929 203.36ZM147.953 203.36C147.809 203.36 147.521 203.168 147.089 202.784C146.657 202.376 146.441 202.112 146.441 201.992V188.996L145.109 188.564V187.052C147.269 186.668 148.469 186.476 148.709 186.476C148.853 186.476 149.129 186.668 149.537 187.052C149.945 187.412 150.149 187.676 150.149 187.844V200.804L151.445 201.2V202.712C149.357 203.144 148.193 203.36 147.953 203.36ZM146.189 179.78L149.321 179.6L149.933 180.428L149.717 183.668H146.477L146.189 179.78ZM159.197 203.36C158.237 203.36 157.349 203.072 156.533 202.496C155.717 201.92 155.057 201.056 154.553 199.904C154.049 198.752 153.797 197.348 153.797 195.692C153.797 194.54 153.881 193.448 154.049 192.416C154.217 191.384 154.433 190.616 154.697 190.112C154.961 189.752 155.477 189.284 156.245 188.708C157.013 188.108 157.781 187.58 158.549 187.124C159.341 186.668 159.881 186.44 160.169 186.44C160.745 186.44 161.405 186.512 162.149 186.656C162.917 186.776 163.637 186.944 164.309 187.16L164.201 191.948H161.825L161.285 189.392C161.021 189.248 160.685 189.116 160.277 188.996C159.893 188.876 159.545 188.816 159.233 188.816C159.017 188.816 158.849 188.864 158.729 188.96C158.417 189.2 158.177 189.884 158.009 191.012C157.841 192.116 157.757 193.484 157.757 195.116C157.757 196.292 157.877 197.288 158.117 198.104C158.381 198.896 158.705 199.484 159.089 199.868C159.473 200.252 159.857 200.444 160.241 200.444H164.309V202.1C163.349 202.388 162.341 202.676 161.285 202.964C160.229 203.228 159.533 203.36 159.197 203.36ZM172.717 203.36C171.589 203.36 170.545 203.072 169.585 202.496C168.649 201.92 167.893 201.056 167.317 199.904C166.765 198.752 166.489 197.348 166.489 195.692C166.489 194.516 166.573 193.412 166.741 192.38C166.909 191.348 167.125 190.58 167.389 190.076C167.653 189.716 168.181 189.236 168.973 188.636C169.765 188.012 170.557 187.472 171.349 187.016C172.165 186.56 172.729 186.332 173.041 186.332C174.361 186.332 175.441 186.548 176.281 186.98C177.121 187.412 177.769 188.228 178.225 189.428C178.681 190.604 178.909 192.272 178.909 194.432L170.413 195.152C170.413 196.472 170.581 197.528 170.917 198.32C171.277 199.112 171.697 199.676 172.177 200.012C172.657 200.348 173.113 200.516 173.545 200.516L178.369 200.336V201.956C177.529 202.244 176.461 202.556 175.165 202.892C173.869 203.204 173.053 203.36 172.717 203.36ZM175.057 192.884C175.057 190.052 174.313 188.624 172.825 188.6H172.537C172.153 188.6 171.805 188.66 171.493 188.78C171.205 188.876 170.965 189.404 170.773 190.364C170.581 191.3 170.485 192.344 170.485 193.496L175.057 192.884Z" fill="white"/>
</g>
<defs>
<linearGradient id="paint0_linear_155_0" x1="133.516" y1="85.5156" x2="204.516" y2="224.016" gradientUnits="userSpaceOnUse">
<stop stop-color="#CCEDFF"/>
<stop offset="1" stop-color="white" stop-opacity="0"/>
</linearGradient>
<clipPath id="clip0_155_0">
<path d="M0.5 6C0.5 2.6863 3.18629 0 6.5 0H242.5C245.814 0 248.5 2.68629 248.5 6V314C248.5 317.314 245.814 320 242.5 320H6.49999C3.18629 320 0.5 317.314 0.5 314V6Z" fill="white"/>
</clipPath>
</defs>
</svg>
