<svg width="156" height="201" viewBox="0 0 156 201" fill="none" xmlns="http://www.w3.org/2000/svg">
<rect x="29.375" y="37.9619" width="96.875" height="125" rx="4" fill="black"/>
<rect x="29.875" y="38.4619" width="95.875" height="124" rx="3.5" stroke="white" stroke-opacity="0.5"/>
<rect x="1" y="1.28418" width="153" height="198" rx="5" fill="#2A2C35" stroke="white" stroke-width="2"/>
<path d="M3.16211 0.503906L152.162 0.503906C153.543 0.503906 154.662 1.62319 154.662 3.00391V197.004C154.662 198.385 153.543 199.504 152.162 199.504H3.16211C1.7814 199.504 0.662109 198.385 0.662109 197.004L0.662109 3.0039C0.662109 1.62319 1.7814 0.503906 3.16211 0.503906Z" fill="#222120" stroke="white"/>
<rect x="11.9121" y="11.7539" width="131.5" height="176.5" fill="#222120" stroke="#323232"/>
<path d="M28.1621 11.7539L127.162 11.7539C128.543 11.7539 129.662 12.8732 129.662 14.2539V185.754C129.662 187.135 128.543 188.254 127.162 188.254H28.1621C26.7814 188.254 25.6621 187.135 25.6621 185.754L25.6621 14.2539C25.6621 12.8732 26.7814 11.7539 28.1621 11.7539Z" fill="#222120" stroke="#323232"/>
<path d="M148.912 100.004H6.41211" stroke="#323232"/>
<rect x="38.1621" y="11.7539" width="79" height="176.5" rx="3.5" fill="#222120" stroke="#323232"/>
<path d="M77.6621 193.754L77.6621 6.25391" stroke="#323232"/>
<path d="M77.6621 79.5039C72.2848 79.5039 67.3854 77.0663 63.8041 74.5925C62.0183 73.3589 60.5724 72.1248 59.5736 71.1996C59.0745 70.7372 58.6876 70.3526 58.4266 70.0847C58.3991 70.0564 58.3729 70.0295 58.3482 70.0039C58.3729 69.9783 58.3991 69.9514 58.4266 69.9231C58.6876 69.6552 59.0745 69.2706 59.5736 68.8082C60.5724 67.883 62.0183 66.6489 63.8041 65.4153C67.3854 62.9416 72.2848 60.5039 77.6621 60.5039C83.0394 60.5039 87.9388 62.9416 91.5201 65.4153C93.306 66.6489 94.7518 67.883 95.7506 68.8082C96.2498 69.2706 96.6366 69.6552 96.8977 69.9231C96.9252 69.9514 96.9513 69.9783 96.976 70.0039C96.9513 70.0295 96.9252 70.0564 96.8977 70.0847C96.6366 70.3526 96.2498 70.7372 95.7506 71.1996C94.7518 72.1248 93.306 73.3589 91.5201 74.5925C87.9388 77.0663 83.0394 79.5039 77.6621 79.5039Z" fill="#323232" stroke="#323232"/>
<ellipse cx="77.6621" cy="70.0039" rx="6.25" ry="6.25" fill="#222120"/>
<path d="M77.6621 109.504C72.2848 109.504 67.3854 107.066 63.8041 104.593C62.0183 103.359 60.5724 102.125 59.5736 101.2C59.0745 100.737 58.6876 100.353 58.4266 100.085C58.3991 100.056 58.3729 100.029 58.3482 100.004C58.3729 99.9783 58.3991 99.9514 58.4266 99.9231C58.6876 99.6552 59.0745 99.2706 59.5736 98.8082C60.5724 97.883 62.0183 96.6489 63.8041 95.4153C67.3854 92.9416 72.2848 90.5039 77.6621 90.5039C83.0394 90.5039 87.9388 92.9416 91.5201 95.4153C93.306 96.6489 94.7518 97.883 95.7506 98.8082C96.2498 99.2706 96.6366 99.6552 96.8977 99.9231C96.9252 99.9514 96.9513 99.9783 96.976 100.004C96.9513 100.029 96.9252 100.056 96.8977 100.085C96.6366 100.353 96.2498 100.737 95.7506 101.2C94.7518 102.125 93.306 103.359 91.5201 104.593C87.9388 107.066 83.0394 109.504 77.6621 109.504Z" fill="#323232" stroke="#323232"/>
<ellipse cx="77.6621" cy="100.004" rx="6.25" ry="6.25" fill="#222120"/>
<path d="M77.6621 139.504C72.2848 139.504 67.3854 137.066 63.8041 134.593C62.0183 133.359 60.5724 132.125 59.5736 131.2C59.0745 130.737 58.6876 130.353 58.4266 130.085C58.3991 130.056 58.3729 130.029 58.3482 130.004C58.3729 129.978 58.3991 129.951 58.4266 129.923C58.6876 129.655 59.0745 129.271 59.5736 128.808C60.5724 127.883 62.0183 126.649 63.8041 125.415C67.3854 122.942 72.2848 120.504 77.6621 120.504C83.0394 120.504 87.9388 122.942 91.5201 125.415C93.306 126.649 94.7518 127.883 95.7506 128.808C96.2498 129.271 96.6366 129.655 96.8977 129.923C96.9252 129.951 96.9513 129.978 96.976 130.004C96.9513 130.029 96.9252 130.056 96.8977 130.085C96.6366 130.353 96.2498 130.737 95.7506 131.2C94.7518 132.125 93.306 133.359 91.5201 134.593C87.9388 137.066 83.0394 139.504 77.6621 139.504Z" fill="#323232" stroke="#323232"/>
<circle cx="77.6621" cy="130.004" r="6.25" fill="#222120"/>
<path d="M55.8161 80.4701L57.5587 79.931L57.7226 66.2959L55.9934 65.7151L56.0062 64.6512L66.6175 64.7787L66.1946 69.674L64.6827 69.6558L64.4171 66.1244L60.3247 66.4672L60.2524 72.4868L64.1424 72.6735L64.1266 73.9894L60.2332 74.0827L60.1649 79.7663L62.9573 80.4159L62.9428 81.6198L55.8034 81.534L55.8161 80.4701ZM71.5893 81.9757C71.4959 81.9746 71.2831 81.8227 70.9507 81.52C70.637 81.2175 70.4807 81.0196 70.4818 80.9263L70.6046 70.707L69.6284 70.3873L69.6408 69.3514C71.0627 69.0884 71.8577 68.958 72.0257 68.96C72.1377 68.9613 72.3506 69.1039 72.6646 69.3877C72.9785 69.6715 73.1347 69.8787 73.1331 70.0094L73.0103 80.2286L73.9869 80.5204L73.9745 81.5563C72.5523 81.8379 71.7572 81.9777 71.5893 81.9757ZM70.52 63.7615L72.6776 63.6474L73.0901 64.2684L72.9209 66.7026L70.681 66.6757L70.52 63.7615ZM77.7919 82.0502C77.6986 82.0491 77.5135 81.9162 77.2367 81.6515C76.9785 81.3871 76.85 81.2082 76.8511 81.1148L76.9739 70.8956L75.999 70.4638L76.0114 69.4279C77.5454 69.1663 78.3963 69.0365 78.5643 69.0386C78.6576 69.0397 78.824 69.1724 79.0635 69.4366C79.3219 69.6824 79.4506 69.8519 79.4495 69.9453L79.4367 71.0092C80.0016 70.6053 80.604 70.1831 81.244 69.7428C81.9027 69.3027 82.2694 69.0831 82.344 69.084C83.6879 69.1001 84.6916 69.4669 85.355 70.1842C86.0187 70.8829 86.3401 72.1002 86.3192 73.8361L86.2422 80.2476L87.2171 80.6794L87.2046 81.7153C85.6518 81.9953 84.8007 82.1344 84.6514 82.1326C84.5581 82.1315 84.373 81.9986 84.0962 81.7339C83.8193 81.4693 83.6815 81.2903 83.6826 81.1969L83.7714 73.8055C83.7853 72.6482 83.6261 71.9183 83.2937 71.6156C82.9613 71.3129 82.5898 71.1591 82.1791 71.1541C81.9738 71.1517 81.5052 71.3141 80.7732 71.6413C80.0601 71.9501 79.6379 72.1317 79.5065 72.1861L79.4107 80.1655L80.3575 80.5969L80.3451 81.6329C78.811 81.9131 77.9599 82.0522 77.7919 82.0502ZM93.6005 82.2402C92.8539 82.2312 92.1472 82.008 91.4804 81.5707C90.8325 81.1148 90.2991 80.4457 89.8804 79.5633C89.4805 78.6624 89.2884 77.5587 89.3041 76.2521C89.3156 75.3002 89.3819 74.4423 89.5031 73.6783C89.6429 72.9146 89.818 72.3287 90.0282 71.9205C90.332 71.4948 91.0015 70.9335 92.0366 70.2365C93.0904 69.5398 93.7853 69.1935 94.1212 69.1975C94.4199 69.2011 95.2492 69.3137 96.6093 69.5354L96.6541 65.8117L95.6789 65.4079L95.6913 64.372C97.2441 64.092 98.0952 63.9529 98.2445 63.9547C98.3378 63.9558 98.5229 64.0887 98.7998 64.3534C99.0766 64.618 99.2145 64.797 99.2133 64.8904L99.0108 70.0963L98.8866 80.4276L99.8339 80.831L99.8214 81.8669C98.3433 82.1478 97.5202 82.2873 97.3522 82.2853C97.2775 82.2844 97.1018 82.1516 96.825 81.8869C96.5481 81.6222 96.4103 81.4432 96.4114 81.3499L96.4245 80.258L95.5768 80.8918C94.3526 81.7918 93.6938 82.2413 93.6005 82.2402ZM93.7934 80.1703C93.9614 80.1724 94.8151 79.8093 96.3546 79.081L96.4472 71.3816C95.9263 71.226 95.3026 71.0878 94.576 70.9671C93.8496 70.8277 93.3649 70.7752 93.1218 70.8096C92.7665 70.8613 92.491 71.2594 92.2954 72.0038C92.1184 72.7483 92.0187 74.0539 91.9963 75.9204C91.9849 76.8724 92.078 77.6669 92.2757 78.304C92.492 78.9413 92.7384 79.4109 93.0148 79.713C93.3099 80.0152 93.5694 80.1677 93.7934 80.1703ZM18.5937 108.025L20.3363 107.486L21.0041 93.8567L19.275 93.2759L19.2878 92.212L24.7194 92.2773L28.3659 105.734L28.7019 105.738L32.6428 92.3725L38.1024 92.4381L38.0896 93.502L36.347 94.0411L36.7151 107.683L38.4443 108.263L38.4315 109.327L32.2439 109.253L32.2584 108.049L34.113 107.511L34.033 95.5254L33.837 95.5231C33.1737 97.9046 32.6578 99.6719 32.2892 100.825L30.0482 107.882C29.4498 107.969 28.8795 108.046 28.3373 108.114C27.7952 108.182 27.4213 108.224 27.2157 108.24C27.1411 108.24 26.9927 108.163 26.7705 108.011L24.7277 100.902C24.459 99.9654 23.977 98.1301 23.2818 95.3962L23.0858 95.3939L22.7178 107.374L24.559 107.956L24.5445 109.16L18.5809 109.089L18.5937 108.025ZM46.3816 109.675C44.4404 109.651 42.9905 109.139 42.0318 108.138C41.0731 107.138 40.6063 105.592 40.6314 103.501C40.6417 102.643 40.7075 101.831 40.8287 101.067C40.9687 100.285 41.1437 99.7085 41.3535 99.3376C41.5435 99.0599 41.9306 98.6912 42.5149 98.2315C43.1178 97.7721 43.72 97.3686 44.3215 97.0211C44.9231 96.6737 45.3358 96.5013 45.5598 96.504C47.445 96.5266 48.8574 97.057 49.797 98.095C50.7555 99.1146 51.2232 100.586 51.2001 102.508C51.1893 103.404 51.1139 104.243 50.9738 105.026C50.8524 105.808 50.7047 106.451 50.5306 106.952C50.2271 107.36 49.5389 107.921 48.4663 108.636C47.4125 109.333 46.7176 109.679 46.3816 109.675ZM46.5408 108.081C46.6719 108.045 47.1507 107.817 47.9771 107.398C48.3112 106.002 48.4882 104.482 48.5079 102.84C48.5254 101.384 48.2684 100.242 47.737 99.4144C47.2243 98.5868 46.4453 98.1667 45.4 98.1542C44.9334 98.1486 44.5592 98.2188 44.2774 98.3647C44.0143 98.5109 43.7937 99.0029 43.6156 99.8409C43.4375 100.679 43.3403 101.779 43.3239 103.142C43.3019 104.971 43.5946 106.253 44.2018 106.988C44.8279 107.705 45.6075 108.069 46.5408 108.081ZM55.0645 109.779C54.9712 109.778 54.7861 109.645 54.5093 109.38C54.2511 109.116 54.1226 108.937 54.1237 108.844L54.2475 98.5405L53.2716 98.1928L53.284 97.1568C54.706 96.8939 55.5009 96.7634 55.6689 96.7655C55.7622 96.7666 55.9658 96.9184 56.2795 97.2208C56.6119 97.5235 56.7776 97.7122 56.7767 97.7869L56.709 98.7661C58.0699 97.3637 58.8064 96.6632 58.9184 96.6645C59.217 96.6681 59.8405 96.8249 60.7888 97.135C60.8433 97.2663 60.8788 97.4161 60.8955 97.5843C60.9308 97.7528 60.9478 97.893 60.9464 98.005C60.9451 98.117 60.8299 98.3769 60.601 98.7849C60.3908 99.193 60.2481 99.4153 60.173 99.4518C59.5599 99.2017 59.0668 99.0745 58.6934 99.07C58.4508 99.0671 57.8126 99.3581 56.7788 99.943L56.6846 107.782L58.1075 108.22L58.0937 109.368C56.2422 109.644 55.2325 109.781 55.0645 109.779ZM66.2862 109.914C65.4836 109.904 64.7303 109.681 64.0261 109.243C63.322 108.805 62.7513 108.135 62.3141 107.234C61.8956 106.333 61.6942 105.229 61.7099 103.923C61.7211 102.989 61.7874 102.131 61.9088 101.349C62.0491 100.548 62.2242 99.9618 62.434 99.591C62.624 99.3132 63.0111 98.9445 63.5954 98.4848C64.1983 98.0254 64.8005 97.6219 65.402 97.2744C66.0223 96.9272 66.4444 96.7549 66.6683 96.7576C67.6763 96.7697 68.4863 96.9381 69.0984 97.2629C69.7293 97.5878 70.2073 98.2003 70.5325 99.1002C70.8763 100 71.0382 101.29 71.018 102.97L64.4038 103.451C64.3903 104.571 64.5289 105.469 64.8194 106.144C65.1102 106.801 65.45 107.262 65.8389 107.528C66.2464 107.795 66.6181 107.93 66.9541 107.934L68.2707 107.894L70.5675 107.837L70.5537 108.985C69.8604 109.201 69.0364 109.415 68.0818 109.628C67.1461 109.822 66.5475 109.917 66.2862 109.914ZM68.3153 101.846C68.3288 100.726 68.1895 99.8841 67.8976 99.3206C67.6059 98.7384 67.1148 98.4431 66.4242 98.4348C66.0135 98.4299 65.6581 98.4909 65.3579 98.618C65.1139 98.7271 64.9034 99.1539 64.7265 99.8985C64.5682 100.643 64.4839 101.445 64.4735 102.304L68.3153 101.846ZM82.6217 110.11C81.7445 110.1 80.9267 109.801 80.1683 109.213C79.41 108.625 78.7954 107.731 78.3244 106.53C77.8724 105.312 77.657 103.816 77.6783 102.042C77.6936 100.773 77.7823 99.6074 77.9444 98.5452C78.1067 97.4644 78.3223 96.6083 78.5913 95.9768C78.8766 95.5322 79.3397 95.0618 79.9803 94.5654C80.6212 94.0504 81.2611 93.6194 81.9 93.2724C82.5389 92.9254 82.9983 92.7535 83.2783 92.7569C83.8194 92.7821 84.5749 92.8285 85.5448 92.8962C86.5336 92.9454 87.5035 93.013 88.4546 93.0991L88.0604 97.9387L86.5485 97.9206L86.2468 95.0607C85.8 94.962 85.2129 94.8803 84.4856 94.8156C83.7584 94.7508 83.2081 94.7162 82.8348 94.7117C82.4615 94.7072 82.1622 94.7596 81.9368 94.8689C81.4859 95.1062 81.1326 95.774 80.8767 96.8724C80.6208 97.9707 80.4825 99.3785 80.4619 101.096C80.4305 103.709 80.7261 105.523 81.3486 106.539C81.99 107.536 82.8613 108.041 83.9625 108.054L85.9784 108.078L86.4971 104.528L87.9247 104.574L87.8931 109.53C87.4436 109.655 86.5273 109.784 85.1443 109.917C83.7612 110.049 82.9204 110.114 82.6217 110.11ZM94.5784 110.254C93.8131 110.245 93.0971 110.021 92.4303 109.584C91.7824 109.128 91.2586 108.441 90.859 107.521C90.4593 106.602 90.2677 105.46 90.2841 104.098C90.2946 103.221 90.3604 102.409 90.4813 101.664C90.6212 100.9 90.7961 100.324 91.0061 99.9343C91.3099 99.5086 91.9794 98.9472 93.0145 98.2503C94.0683 97.5536 94.7632 97.2072 95.0992 97.2113C95.4725 97.2157 97.1031 97.45 99.9911 97.9141L99.8646 108.441L100.812 108.845L100.799 109.881C99.3212 110.162 98.4981 110.301 98.3301 110.299C98.2555 110.298 98.0797 110.165 97.8029 109.901C97.526 109.636 97.3882 109.457 97.3893 109.364L97.4024 108.272C97.2893 108.364 96.8183 108.722 95.9894 109.347C95.1607 109.953 94.6904 110.255 94.5784 110.254ZM94.7713 108.184C94.9766 108.187 95.8304 107.823 97.3326 107.095L97.4251 99.3954C96.9602 99.2404 96.3552 99.1025 95.6099 98.9815C94.8649 98.8419 94.3615 98.7892 94.0997 98.8234C93.7444 98.8751 93.4689 99.2732 93.2733 100.018C93.0963 100.762 92.9967 102.068 92.9742 103.934C92.9628 104.886 93.0559 105.681 93.2536 106.318C93.47 106.955 93.7163 107.425 93.9927 107.727C94.2878 108.029 94.5473 108.181 94.7713 108.184ZM104.58 110.374C104.487 110.373 104.302 110.24 104.025 109.975C103.767 109.711 103.639 109.532 103.64 109.439L103.763 99.1355L102.788 98.7878L102.8 97.7518C104.222 97.4889 105.017 97.3584 105.185 97.3605C105.278 97.3616 105.482 97.5134 105.795 97.8158C106.128 98.1185 106.294 98.3072 106.293 98.3818L106.225 99.3611C107.586 97.9587 108.322 97.2581 108.434 97.2595C108.733 97.2631 109.356 97.4199 110.305 97.73C110.359 97.8613 110.395 98.0111 110.411 98.1793C110.447 98.3477 110.464 98.488 110.462 98.6C110.461 98.7119 110.346 98.9719 110.117 99.3799C109.907 99.788 109.764 100.01 109.689 100.047C109.076 99.7967 108.583 99.6694 108.209 99.665C107.967 99.662 107.329 99.9531 106.295 100.538L106.201 108.377L107.623 108.815L107.61 109.963C105.758 110.239 104.748 110.376 104.58 110.374ZM115.522 110.506C114.776 110.497 114.069 110.273 113.402 109.836C112.754 109.38 112.221 108.711 111.802 107.829C111.402 106.928 111.21 105.824 111.226 104.518C111.237 103.566 111.304 102.708 111.425 101.944C111.565 101.18 111.74 100.594 111.95 100.186C112.254 99.7602 112.923 99.1989 113.958 98.502C115.012 97.8052 115.707 97.4589 116.043 97.4629C116.342 97.4665 117.171 97.5792 118.531 97.8008L118.576 94.0771L117.601 93.6734L117.613 92.6374C119.166 92.3574 120.017 92.2183 120.166 92.2201C120.26 92.2212 120.445 92.3541 120.722 92.6188C120.998 92.8835 121.136 93.0625 121.135 93.1558L120.933 98.3617L120.808 108.693L121.756 109.096L121.743 110.132C120.265 110.413 119.442 110.553 119.274 110.551C119.199 110.55 119.024 110.417 118.747 110.152C118.47 109.888 118.332 109.709 118.333 109.615L118.346 108.523L117.499 109.157C116.274 110.057 115.616 110.507 115.522 110.506ZM115.715 108.436C115.883 108.438 116.737 108.075 118.276 107.346L118.369 99.647C117.848 99.4914 117.224 99.3533 116.498 99.2325C115.771 99.0931 115.287 99.0406 115.044 99.075C114.688 99.1268 114.413 99.5248 114.217 100.269C114.04 101.014 113.94 102.319 113.918 104.186C113.907 105.138 114 105.932 114.197 106.569C114.414 107.207 114.66 107.676 114.937 107.978C115.232 108.281 115.491 108.433 115.715 108.436ZM128.882 110.666C128.49 110.661 127.707 110.605 126.532 110.498C125.357 110.409 124.462 110.324 123.847 110.242L123.951 106.211L125.351 106.199L125.914 108.334C126.341 108.489 126.844 108.635 127.421 108.772C128.017 108.892 128.455 108.953 128.735 108.956C128.884 108.958 129.064 108.755 129.274 108.347C129.503 107.939 129.619 107.576 129.623 107.259C129.627 106.923 129.546 106.642 129.381 106.416C129.235 106.171 128.995 105.944 128.661 105.735C128.328 105.507 127.763 105.174 126.965 104.735C125.834 104.105 125.057 103.554 124.633 103.083C124.209 102.611 124.001 102.048 124.009 101.395C124.017 100.76 124.069 100.304 124.166 100.025C124.47 99.5617 124.971 99.045 125.668 98.4747C126.385 97.9045 126.892 97.6213 127.191 97.6249C127.807 97.6323 128.6 97.6698 129.569 97.7375C130.558 97.7867 131.314 97.8424 131.836 97.9047L131.711 101.319L130.143 101.301L129.965 99.8144C129.816 99.7566 129.332 99.6668 128.512 99.5449C127.692 99.4044 127.179 99.3329 126.974 99.3304C126.563 99.3255 126.353 99.715 126.344 100.499C126.34 100.854 126.467 101.163 126.725 101.428C127.002 101.674 127.307 101.901 127.641 102.111C127.993 102.32 128.225 102.463 128.336 102.539L129.086 102.996C130.087 103.568 130.874 104.11 131.447 104.621C132.038 105.113 132.33 105.677 132.323 106.311C132.317 106.74 132.246 107.216 132.109 107.737C131.804 108.274 131.283 108.903 130.547 109.622C129.829 110.323 129.274 110.671 128.882 110.666ZM40.2194 137.603C40.1261 137.602 39.9132 137.45 39.5808 137.147C39.2671 136.845 39.1108 136.647 39.1119 136.553L39.2347 126.334L38.2585 126.014L38.2709 124.978C39.6929 124.716 40.4878 124.585 40.6558 124.587C40.7678 124.588 40.9808 124.731 41.2947 125.015C41.6087 125.299 41.7649 125.506 41.7633 125.636L41.6405 135.856L42.6171 136.147L42.6046 137.183C41.1825 137.465 40.3874 137.605 40.2194 137.603ZM39.1502 119.389L41.3077 119.275L41.7203 119.896L41.551 122.33L39.3112 122.303L39.1502 119.389ZM46.422 137.677C46.3287 137.676 46.1436 137.543 45.8668 137.279C45.6086 137.014 45.4801 136.835 45.4812 136.742L45.604 126.523L44.6291 126.091L44.6416 125.055C46.1755 124.793 47.0265 124.664 47.1944 124.666C47.2878 124.667 47.4542 124.799 47.6937 125.064C47.9521 125.309 48.0807 125.479 48.0796 125.572L48.0668 126.636C48.6317 126.232 49.2342 125.81 49.8742 125.37C50.5328 124.93 50.8995 124.71 50.9742 124.711C52.3181 124.727 53.3217 125.094 53.9852 125.811C54.6488 126.51 54.9702 127.727 54.9494 129.463L54.8723 135.875L55.8472 136.306L55.8347 137.342C54.2819 137.622 53.4309 137.762 53.2815 137.76C53.1882 137.759 53.0031 137.626 52.7263 137.361C52.4495 137.096 52.3116 136.917 52.3127 136.824L52.4015 129.433C52.4154 128.275 52.2562 127.545 51.9238 127.243C51.5914 126.94 51.2199 126.786 50.8093 126.781C50.604 126.779 50.1353 126.941 49.4033 127.268C48.6902 127.577 48.268 127.759 48.1367 127.813L48.0408 135.793L48.9877 136.224L48.9752 137.26C47.4411 137.54 46.59 137.679 46.422 137.677ZM68.4232 137.942C67.2846 137.928 66.271 137.617 65.3822 137.009C64.4934 136.401 63.7949 135.497 63.2866 134.296C62.7784 133.095 62.5348 131.617 62.5559 129.863C62.5711 128.593 62.6598 127.428 62.8219 126.366C62.9842 125.285 63.1999 124.429 63.4688 123.797C63.7542 123.353 64.2172 122.882 64.8579 122.386C65.4988 121.871 66.1386 121.44 66.7775 121.093C67.4164 120.746 67.8758 120.574 68.1558 120.577C68.7529 120.603 69.6016 120.66 70.702 120.748C71.8025 120.817 72.8657 120.895 73.8914 120.982L73.4979 125.766L71.986 125.748L71.6833 122.972C71.1991 122.873 70.5002 122.78 69.5865 122.695C68.673 122.59 68.0483 122.536 67.7123 122.532C67.339 122.528 67.0397 122.58 66.8144 122.689C66.3635 122.927 66.0101 123.594 65.7542 124.693C65.4983 125.791 65.3601 127.199 65.3394 128.916C65.3078 131.548 65.575 133.39 66.1411 134.442C66.7258 135.494 67.5315 136.027 68.5581 136.039L71.6132 135.796L71.6667 131.344L69.0686 130.837L69.0841 129.549L75.5516 129.627L75.5385 130.719L74.0782 131.065L74.0177 136.105C73.6223 136.38 72.6657 136.761 71.1478 137.246C69.6487 137.714 68.7405 137.945 68.4232 137.942ZM81.6433 138.101C80.878 138.091 80.162 137.868 79.4952 137.431C78.8473 136.975 78.3235 136.287 77.9239 135.368C77.5242 134.448 77.3326 133.307 77.3489 131.944C77.3595 131.067 77.4252 130.256 77.5462 129.511C77.686 128.747 77.861 128.17 78.071 127.781C78.3748 127.355 79.0443 126.794 80.0794 126.097C81.1332 125.4 81.8281 125.054 82.164 125.058C82.5373 125.062 84.168 125.297 87.0559 125.761L86.9294 136.288L87.8767 136.691L87.8642 137.727C86.3861 138.008 85.563 138.148 85.395 138.146C85.3204 138.145 85.1446 138.012 84.8678 137.747C84.5909 137.483 84.4531 137.304 84.4542 137.21L84.4673 136.118C84.3542 136.21 83.8832 136.569 83.0543 137.193C82.2256 137.8 81.7553 138.102 81.6433 138.101ZM81.8362 136.031C82.0415 136.033 82.8952 135.67 84.3974 134.941L84.49 127.242C84.0251 127.087 83.4201 126.949 82.6748 126.828C81.9298 126.688 81.4264 126.636 81.1646 126.67C80.8093 126.722 80.5338 127.12 80.3382 127.864C80.1612 128.609 80.0615 129.914 80.0391 131.781C80.0277 132.733 80.1208 133.527 80.3185 134.164C80.5348 134.802 80.7812 135.271 81.0576 135.573C81.3527 135.876 81.6122 136.028 81.8362 136.031ZM91.6453 138.221C91.552 138.22 91.3669 138.087 91.0901 137.822C90.8319 137.558 90.7034 137.379 90.7045 137.285L90.8273 127.066L89.8524 126.634L89.8649 125.598C91.3988 125.337 92.2497 125.207 92.4177 125.209C92.5111 125.21 92.6775 125.343 92.917 125.607C93.1754 125.853 93.304 126.022 93.3029 126.116L93.2901 127.18C93.7804 126.775 94.3081 126.352 94.8735 125.911C95.4388 125.469 95.7495 125.249 95.8055 125.25C96.7388 125.261 97.5116 125.42 98.1239 125.726C98.755 126.032 99.2062 126.541 99.4777 127.254C99.9306 126.849 100.421 126.425 100.949 125.984C101.477 125.542 101.769 125.321 101.825 125.322C103.3 125.34 104.406 125.708 105.144 126.426C105.882 127.126 106.241 128.343 106.22 130.079L106.143 136.491L107.09 136.922L107.078 137.958C105.543 138.238 104.702 138.378 104.552 138.376C104.459 138.375 104.274 138.242 103.997 137.977C103.72 137.712 103.582 137.533 103.584 137.44L103.672 130.049C103.686 128.891 103.508 128.161 103.139 127.858C102.788 127.555 102.388 127.401 101.94 127.396C101.772 127.394 101.059 127.74 99.7995 128.434L99.7036 136.413L100.651 136.845L100.638 137.881C99.1039 138.161 98.2622 138.3 98.1129 138.298C98.0195 138.297 97.8345 138.164 97.5576 137.9C97.2808 137.635 97.1429 137.456 97.144 137.363L97.2329 129.971C97.2468 128.814 97.0875 128.084 96.7551 127.781C96.4228 127.479 96.0512 127.325 95.6406 127.32C95.454 127.318 94.6937 127.663 93.36 128.357L93.2641 136.336L94.211 136.767L94.1985 137.803C92.6644 138.084 91.8133 138.223 91.6453 138.221ZM111.277 138.457C110.474 138.447 109.721 138.223 109.017 137.785C108.312 137.348 107.742 136.678 107.305 135.777C106.886 134.876 106.685 133.772 106.7 132.465C106.711 131.532 106.778 130.674 106.899 129.891C107.04 129.09 107.215 128.504 107.424 128.134C107.614 127.856 108.002 127.487 108.586 127.027C109.189 126.568 109.791 126.165 110.392 125.817C111.013 125.47 111.435 125.298 111.659 125.3C112.667 125.312 113.477 125.481 114.089 125.805C114.72 126.13 115.198 126.743 115.523 127.643C115.867 128.543 116.029 129.833 116.008 131.513L109.394 131.994C109.381 133.113 109.519 134.011 109.81 134.687C110.101 135.344 110.44 135.805 110.829 136.071C111.237 136.337 111.608 136.472 111.944 136.476L113.261 136.436L115.558 136.38L115.544 137.528C114.851 137.744 114.027 137.958 113.072 138.17C112.136 138.364 111.538 138.46 111.277 138.457ZM113.306 130.388C113.319 129.268 113.18 128.427 112.888 127.863C112.596 127.281 112.105 126.986 111.415 126.977C111.004 126.973 110.648 127.034 110.348 127.161C110.104 127.27 109.894 127.697 109.717 128.441C109.559 129.186 109.474 129.988 109.464 130.846L113.306 130.388Z" fill="white"/>
</svg>
