<svg width="248" height="320" viewBox="0 0 248 320" fill="none" xmlns="http://www.w3.org/2000/svg">
<path d="M0 6C0 2.6863 2.68629 0 6 0H242C245.314 0 248 2.68629 248 6V314C248 317.314 245.314 320 242 320H5.99999C2.68629 320 0 317.314 0 314V6Z" fill="white"/>
<rect x="0.5" y="0.5" width="247" height="319" rx="5.5" fill="white" stroke="#D4D4D4"/>
<rect x="44" y="44" width="160" height="180" fill="black" fill-opacity="0.1"/>
<path opacity="0.4" d="M44 44H180C193.255 44 204 54.7452 204 68V142.333C204 149.701 194.151 152.173 190.671 145.679C188.657 141.918 183.8 140.778 180.323 143.25L161.965 156.299C156.771 159.991 149.503 158.088 146.785 152.325C142.862 144.008 130.813 144.686 127.848 153.39L122.043 170.433C119.625 177.529 112.959 182.3 105.462 182.3H68C54.7452 182.3 44 171.555 44 158.3V44Z" fill="url(#paint0_linear_155_13)"/>
<path d="M44 44H181.448C193.903 44 204 54.097 204 66.5523V111.697C204 118.837 194.918 121.877 190.619 116.176C188.452 113.301 184.537 112.391 181.324 114.014L160.659 124.451C155.72 126.945 149.695 125.352 146.635 120.742C141.947 113.68 131.351 114.418 127.687 122.061L122.235 133.432C119.593 138.943 114.346 142.747 108.287 143.544L71.13 148.431C56.7559 150.322 44 139.134 44 124.636V44Z" fill="url(#paint1_linear_155_13)"/>
<path d="M135.25 152L138.75 154.375L146.125 134.75L132.625 150.375L132 152.625L135.25 152Z" fill="#6C6552"/>
<path d="M182.875 70.625C183.175 70.125 185.417 66.8333 186.5 65.25L182.875 61.25L172 66.5L158.625 72.75V80L154.125 82.125V86H157.25L146.125 92L143.25 93.875L142 104H144.75L154.875 108L157.25 97.375L158.625 96.625L159.25 89.625H161.75V87L166.5 83.5C170.417 78.25 182.575 71.125 182.875 70.625Z" fill="#6C6552"/>
<path d="M135.25 152L138.75 154.375L146.125 134.75L132.625 150.375L132 152.625L135.25 152Z" stroke="black" stroke-width="2"/>
<path d="M182.875 70.625C183.175 70.125 185.417 66.8333 186.5 65.25L182.875 61.25L172 66.5L158.625 72.75V80L154.125 82.125V86H157.25L146.125 92L143.25 93.875L142 104H144.75L154.875 108L157.25 97.375L158.625 96.625L159.25 89.625H161.75V87L166.5 83.5C170.417 78.25 182.575 71.125 182.875 70.625Z" stroke="black" stroke-width="2"/>
<path d="M144 104C141.9 103.5 135.125 102.125 132 101.5L119.25 105.75L113 101.5H110.125L98 98.375L96 99.25L94.375 102.375L93.5 107C86.174 113.903 72 128 72 128L46.4375 138.375L69.9375 145.75L85.7 142.375L106.25 130.5V135.125L110.125 136C111.25 137.458 114 140.775 116 142.375C118 143.975 127.5 148.625 132 150.75L146.75 134.25L160 122.875L161.625 114.25L157.25 109.125C153.708 107.625 146.1 104.5 144 104Z" fill="#313131"/>
<path d="M119.25 124.875L128 121H129.125M144.875 116C142.175 117.4 136.333 119.917 133.75 121H129.125M129.125 121L136 117.375L140 112M132 101.5C135.125 102.125 141.9 103.5 144 104C146.1 104.5 153.708 107.625 157.25 109.125L161.625 114.25L160 122.875L146.75 134.25L132 150.75C127.5 148.625 118 143.975 116 142.375C114 140.775 111.25 137.458 110.125 136L106.25 135.125V130.5L85.7 142.375L69.9375 145.75L46.4375 138.375L72 128C72 128 86.174 113.903 93.5 107L94.375 102.375L96 99.25L98 98.375L110.125 101.5H113L119.25 105.75L132 101.5Z" stroke="black" stroke-width="2"/>
<path d="M44 72.875V44H104.625" stroke="black" stroke-width="2"/>
<path d="M204 128V44H169" stroke="black" stroke-width="2"/>
<path d="M204 128V68C204 54.7452 193.255 44 180 44H169" stroke="black" stroke-width="2"/>
<path d="M44 181V224.5H176" stroke="black" stroke-width="2"/>
<path d="M44 181V200.5C44 213.755 54.7452 224.5 68 224.5H176" stroke="black" stroke-width="2"/>
<path d="M204 172V224.5H174.75" stroke="black" stroke-width="2"/>
<path d="M176.875 71.2501L184 64.5001L186.5 65.7501L184 58.6251L170.25 49.75C167.583 48.75 160.875 48 160.875 48C160.875 48 161.364 50.675 158.375 53L144 58.6251L148 65.7501L149.125 69.7501L153.438 78.5001L151.242 74.5873L150.531 78.8751L148.156 79.7188L145.125 77.7501V81.5001L142.875 82.5626L139.594 80.0001L139.281 84.2188L137.25 85.2501L134.281 82.5626V86.7813L132 88.0001L129.5 84.6251L132 78.8751L122.375 92.5L118 97.125L113 102.125L119 105.875L132.75 101.125L140.75 94.2501L157.25 88.0001L153.75 85.7501V82.1251L158.375 80.0001L160.875 77.7501L165.125 76.0001L176.875 71.2501Z" fill="#313131" stroke="black" stroke-width="2"/>
<path d="M132 102L140 106.25L133.5 116L117.5 120M106.25 121.25H98L102 113.5L100 109.5L85.5 124L74.25 120M74.25 120V124M74.25 120L93.25 106.25" stroke="black" stroke-width="2"/>
<path d="M94.375 102.625C94.5833 101.333 100.125 95.25 100.125 95.25C100.125 95.25 106.917 100.417 109.75 101.5L110.75 105L112.622 109.8L113.704 112.573L115.041 116L117.625 122.625C116.083 121.542 112 119.933 112 119.933C112 119.933 110 123.708 110.75 126L106.5 119.933L103.745 116L100.942 112L97.6534 107.305L94.375 102.625Z" fill="#6C6552"/>
<path d="M110.75 105L109.75 101.5C106.917 100.417 100.125 95.25 100.125 95.25C100.125 95.25 94.5833 101.333 94.375 102.625L97.6534 107.305M110.75 105C110.322 104.863 109.782 104.706 109.176 104.551M110.75 105L112.622 109.8M97.6534 107.305C98.1023 106.537 99.55 104.8 101.75 104C103.498 103.364 106.834 103.949 109.176 104.551M97.6534 107.305L100.942 112M100.942 112C101.024 111.449 101.199 110.619 101.472 109.8M100.942 112L103.745 116M109.176 104.551C107.617 105.159 104.2 106.561 103 107.305C102.327 107.722 101.82 108.753 101.472 109.8M112.622 109.8C111.457 109.183 108.725 108.135 107.125 108.875C105.525 109.615 102.69 109.8 101.472 109.8M112.622 109.8L113.704 112.573M103.745 116C104.038 114.958 105 112.7 106.5 112C108 111.3 111.928 112.09 113.704 112.573M103.745 116L106.5 119.933M113.704 112.573L115.041 116M115.041 116L117.625 122.625C116.083 121.542 112 119.933 112 119.933C112 119.933 110 123.708 110.75 126L106.5 119.933M115.041 116C114.152 115.417 111.85 114.425 109.75 115.125C107.65 115.825 106.708 118.622 106.5 119.933" stroke="black" stroke-width="2"/>
<path d="M117.125 124H113L111 128L108.625 132H106.375V135.25L116 137.25L118.625 133.25L119.375 126.875L117.125 124Z" stroke="black" stroke-width="2"/>
<path d="M114.626 66.875H127.126L132 78L130.625 81.25L121.75 93.25L120.875 92L119.75 95.375L113 101.75H109.501L100.751 98.625L104 92L97.6255 98.625L94.7505 100.75C94.7089 99.3333 94.6505 96.4 94.7505 96C94.8505 95.6 98.7922 90 100.751 87.25L109.501 76V74.125L114.626 66.875Z" fill="#313131" stroke="black" stroke-width="2"/>
<path d="M108.361 87.6459C108.361 87.6459 106.761 85.0926 108 83.5C108.508 82.8467 110.062 80.8438 110.062 80.8438M108.361 87.6459C108.361 87.6459 111.66 88.3468 113.187 86.6875C114.513 85.246 121.096 76.2801 121.096 76.2801M108.361 87.6459L117.178 75.5913M108.361 87.6459C108.361 87.6459 111.036 89.4044 112.75 90.5312M113.187 76.4375L110.062 80.8438M122 80.6198C120.679 82.3949 119.333 84.1428 117.96 85.8676M112.75 90.5312C114.875 88.0312 116.536 87.6546 117.96 85.8676M112.75 90.5312C112.786 90.5301 112.823 90.5291 112.861 90.5282C116.025 90.4502 119.066 89.0977 120.875 86.5V86.5M110.062 80.8438L117.96 85.8676" stroke="black" stroke-width="2"/>
<path d="M135.5 60C135.5 60 143 61.0415 145.5 61.2498L148 65.7496L149.625 71.9996L132 78.4996L127.25 66.6246H118.5C121.708 64.1663 135.5 60 135.5 60Z" fill="#313131"/>
<path d="M157.25 98.75H142.5M145.5 61.2498C143 61.0415 135.5 60 135.5 60C135.5 60 121.708 64.1663 118.5 66.6246H127.25L132 78.4996L149.625 71.9996L148 65.7496L145.5 61.2498Z" stroke="black" stroke-width="2"/>
<path d="M108.625 150.75L120 144.75L114.5 141.25L110.875 137.125L100 146.625L97.5 149.5L93.75 153.25L120 161.25L115.125 158L108.625 150.75Z" fill="#313131" stroke="black" stroke-width="2"/>
<path d="M129.125 160L131.125 155.125L134.75 153.625L137.375 156L140.375 162L152 170.25L139.25 166.75L134.75 162H132L130.125 164.75L128 164L129.125 160Z" fill="#313131" stroke="black" stroke-width="2"/>
<path d="M44 137.75L180 180V188L176 186.779L172 189.5H168L172 193.5V197.75L169.768 197.092L44 160V146.5V137.75Z" fill="#232735"/>
<path d="M44 146.5V137.75L180 180V188L176 186.779M44 146.5L176 186.779M44 146.5V160L169.768 197.092M176 186.779L172 189.5H168L172 193.5V197.75L169.768 197.092M169.768 197.092V210.5H166.75L169.768 212V224.625M44 186.779L149.75 213.75" stroke="black" stroke-width="2"/>
<path d="M162 188L44 152" stroke="black" stroke-width="2"/>
<path d="M182.25 213.93V224.5H204V208H192V213.93H182.25Z" stroke="black" stroke-width="2"/>
<path d="M49.25 100H44V78.75V72L46.5 68C47.4167 65.3333 49 59.65 48 58.25C47 56.85 50.25 53.5 52 52L56 56L53.25 48L58.625 44.6875L66.5 48.3125L73.25 44.3125C76.8333 45.6458 84 48.8 84 52C84 55.2 90.8333 57.5 94.25 58.25L98 56L105.188 60C105.688 58.0516 106.142 55.8382 106.25 54C106.45 50.6 102.167 45.9167 100 44H128C129.5 45.4167 132.4 49 132 52C131.6 55 130.5 58.5833 130 60L128 63L124 64V60L116 54C116.75 55 118.2 57.6 118 60C117.8 62.4 116.583 66.3333 116 68L103.375 77.25L90.625 83.25L89.75 81.375L85.25 82.5C81.85 82.1 80.3333 80.6667 80 80H74.5L73.25 77.25L70.25 74.75C70.25 73.8333 69.5 71.5 66.5 69.5C62.75 67 61.25 58 61.25 54C61.25 50.8 74.5833 52.6667 81.25 54C80.8333 55.5 80 59.4 80 63C80 66.6 82.6667 70.5 84 72L88 74.75V78.75L94.25 74.75L92 78.75L101.25 72L104 64C104.306 63.1196 104.764 61.6554 105.188 60L98 56L94.25 58.25C90.8333 57.5 84 55.2 84 52C84 48.8 76.8333 45.6458 73.25 44.3125L66.5 48.3125L58.625 44.6875L53.25 48L56 56L52 52C50.25 53.5 47 56.85 48 58.25C49 59.65 47.4167 65.3333 46.5 68L44 72V78.75C52.5234 85.3202 64.3262 89.2416 69.5537 90.9624C67.5659 89.6386 65.245 87.3581 64 86L68 88L61.25 78.75L74.5 88C77 89.1667 83.2 91.6 88 92C92.8 92.4 98 89.5 100 88C98.6667 89.5833 94.25 96 94.25 96C94.25 96 84 108 72 110.75L66.5 112L68 109.75H60L61.25 106.75C59.8333 107.083 56.25 107.8 53.25 108C50.25 108.2 45.8333 104.75 44 103L49.25 100Z" fill="#232735"/>
<path d="M142.5 52C142.3 50.4 139.417 46 138 44H142.5C143 44.4167 144.3 45.45 145.5 46.25C146.7 47.05 147.667 50.4167 148 52L144 58.25C143.583 56.8333 142.7 53.6 142.5 52Z" fill="#232735"/>
<path d="M44 103L49.25 100H44V78.75M44 103C45.8333 104.75 50.25 108.2 53.25 108C56.25 107.8 59.8333 107.083 61.25 106.75L60 109.75H68L66.5 112L72 110.75C84 108 94.25 96 94.25 96C94.25 96 98.6667 89.5833 100 88C98 89.5 92.8 92.4 88 92C83.2 91.6 77 89.1667 74.5 88L61.25 78.75L68 88L64 86C65.8333 88 70 92 72 92C74.5 92 56 88 44 78.75M44 103V124C46.6667 123.833 52.8 123 56 121C59.2 119 54.6667 123 52 125.25L60 124C58.75 126.583 54.75 132 54.75 132C56 130.265 50.1667 135.167 49.25 136M44 78.75V72L46.5 68C47.4167 65.3333 49 59.65 48 58.25C47 56.85 50.25 53.5 52 52L56 56L53.25 48L58.625 44.6875L66.5 48.3125L73.25 44.3125C76.8333 45.6458 84 48.8 84 52C84 55.2 90.8333 57.5 94.25 58.25L98 56L105.188 60M168 44C170.25 44.5 175.25 46 177.25 48C179.25 50 179.917 54.1667 180 56M177.25 74.75C176.75 77.8333 175.45 84.8 174.25 88C173.05 91.2 169.583 96.5 168 98.75L164 96L168 92L165.5 90.5L164 86M105.188 60C105.688 58.0516 106.142 55.8382 106.25 54C106.45 50.6 102.167 45.9167 100 44H128C129.5 45.4167 132.4 49 132 52C131.6 55 130.5 58.5833 130 60L128 63L124 64V60L116 54C116.75 55 118.2 57.6 118 60C117.8 62.4 116.583 66.3333 116 68L103.375 77.25L90.625 83.25L89.75 81.375L85.25 82.5C81.85 82.1 80.3333 80.6667 80 80H74.5L73.25 77.25L70.25 74.75C70.25 73.8333 69.5 71.5 66.5 69.5C62.75 67 61.25 58 61.25 54C61.25 50.8 74.5833 52.6667 81.25 54C80.8333 55.5 80 59.4 80 63C80 66.6 82.6667 70.5 84 72L88 74.75V78.75L94.25 74.75L92 78.75L101.25 72L104 64C104.306 63.1196 104.764 61.6554 105.188 60ZM138 44C139.417 46 142.3 50.4 142.5 52C142.7 53.6 143.583 56.8333 144 58.25L148 52C147.667 50.4167 146.7 47.05 145.5 46.25C144.3 45.45 143 44.4167 142.5 44H138Z" stroke="black" stroke-width="2"/>
<rect x="183" y="149.188" width="1" height="1" fill="white"/>
<rect x="177.875" y="106.812" width="1" height="1" fill="white"/>
<rect x="199" y="141.938" width="1" height="1" fill="white"/>
<rect x="168" y="164.812" width="1" height="1" fill="white"/>
<rect x="122" y="151" width="1" height="1" fill="white"/>
<path d="M47.375 188V212.437" stroke="black" stroke-width="2"/>
<path d="M50.875 188V217.375" stroke="black" stroke-width="2"/>
<path d="M54.375 189.625L54.375 220" stroke="black" stroke-width="2"/>
<path d="M57.875 189.625L57.875 222" stroke="black" stroke-width="2"/>
<path d="M61.375 190.875L61.375 224" stroke="black" stroke-width="2"/>
<path d="M64.875 192L64.875 224" stroke="black" stroke-width="2"/>
<path d="M68.375 193.125L68.375 224" stroke="black" stroke-width="2"/>
<path d="M71.875 193.125L71.875 224" stroke="black" stroke-width="2"/>
<path d="M75.375 194.5L75.375 224" stroke="black" stroke-width="2"/>
<path d="M75.375 44L75.375 52.875" stroke="black" stroke-width="2"/>
<path d="M75.375 80L75.375 88.4375" stroke="black" stroke-width="2"/>
<path d="M78.75 46.6875L78.75 52.875" stroke="black" stroke-width="2"/>
<path d="M78.75 80.1875L78.75 90" stroke="black" stroke-width="2"/>
<path d="M82.3125 49.3125L82.3125 69.4375" stroke="black" stroke-width="2"/>
<path d="M82.3125 81.625L82.3125 90.6875" stroke="black" stroke-width="2"/>
<path d="M85.8125 55.125L85.8125 73.6875" stroke="black" stroke-width="2"/>
<path d="M85.8125 82.375L85.8125 91.6875" stroke="black" stroke-width="2"/>
<path d="M89.3125 57.0625L89.3125 77.5" stroke="black" stroke-width="2"/>
<path d="M89.3125 81.625L89.3125 92.4375" stroke="black" stroke-width="2"/>
<path d="M92.8125 57.0625L92.8125 77.5" stroke="black" stroke-width="2"/>
<path d="M92.8125 82L92.8125 91.6875" stroke="black" stroke-width="2"/>
<path d="M96.3125 57.0625L96.3125 75.5913" stroke="black" stroke-width="2"/>
<path d="M96.3125 80.5V90" stroke="black" stroke-width="2"/>
<path d="M99.8125 57.0625L99.8125 72.875" stroke="black" stroke-width="2"/>
<path d="M99.8125 78.5625L99.8125 88" stroke="black" stroke-width="2"/>
<path d="M103.312 58.9375L103.313 66.3269" stroke="black" stroke-width="2"/>
<path d="M103.312 76.9375L103.313 83.5" stroke="black" stroke-width="2"/>
<path d="M106.875 75.1094L106.875 78.5625" stroke="black" stroke-width="2"/>
<path d="M72 44L72 52.875" stroke="black" stroke-width="2"/>
<path d="M72 76L72 86.375" stroke="black" stroke-width="2"/>
<path d="M68.625 46.6875L68.625 52.875" stroke="black" stroke-width="2"/>
<path d="M68.625 71.375L68.625 83.5" stroke="black" stroke-width="2"/>
<path d="M65.25 68.8438L65.25 81.375" stroke="black" stroke-width="2"/>
<path d="M65.25 47.6875L65.25 52.875" stroke="black" stroke-width="2"/>
<path d="M65.25 81.1875L65.25 86.375" stroke="black" stroke-width="2"/>
<path d="M61.875 46.375L61.875 52.875" stroke="black" stroke-width="2"/>
<path d="M61.875 59.8271L61.875 80" stroke="black" stroke-width="2"/>
<path d="M61.875 79.875L61.875 88.4375" stroke="black" stroke-width="2"/>
<path d="M58.5 44L58.5 87.375" stroke="black" stroke-width="2"/>
<path d="M55.125 46.375L55.125 85.375" stroke="black" stroke-width="2"/>
<path d="M51.5625 52L51.5625 83.5" stroke="black" stroke-width="2"/>
<path d="M48 56.3125L48 81.375" stroke="black" stroke-width="2"/>
<path d="M44.875 70.0625L44.875 79.375" stroke="black" stroke-width="2"/>
<path d="M78.875 196L78.875 224" stroke="black" stroke-width="2"/>
<path d="M82.375 196L82.375 224" stroke="black" stroke-width="2"/>
<path d="M85.875 197L85.875 224" stroke="black" stroke-width="2"/>
<path d="M89.375 198.375L89.375 224" stroke="black" stroke-width="2"/>
<path d="M92.875 199L92.875 224" stroke="black" stroke-width="2"/>
<path d="M96.375 200L96.375 224" stroke="black" stroke-width="2"/>
<path d="M99.875 200.875L99.875 224" stroke="black" stroke-width="2"/>
<path d="M103.375 201.625L103.375 224" stroke="black" stroke-width="2"/>
<path d="M106.875 202.75L106.875 224" stroke="black" stroke-width="2"/>
<path d="M110.375 204L110.375 224" stroke="black" stroke-width="2"/>
<path d="M113.875 204.625L113.875 224" stroke="black" stroke-width="2"/>
<path d="M117.375 206L117.375 224" stroke="black" stroke-width="2"/>
<path d="M120.875 206L120.875 224" stroke="black" stroke-width="2"/>
<path d="M124.375 206.812L124.375 224" stroke="black" stroke-width="2"/>
<path d="M127.875 208L127.875 224" stroke="black" stroke-width="2"/>
<path d="M131.375 209.25L131.375 224" stroke="black" stroke-width="2"/>
<path d="M134.875 209.25L134.875 224" stroke="black" stroke-width="2"/>
<path d="M138.375 211.188L138.375 224" stroke="black" stroke-width="2"/>
<path d="M141.875 212L141.875 224" stroke="black" stroke-width="2"/>
<path d="M145.375 212.438L145.375 224" stroke="black" stroke-width="2"/>
<path d="M148.875 213.375L148.875 224" stroke="black" stroke-width="2"/>
<path d="M49.1819 252.909V266H50.6649V256.054H50.7927L54.8836 266H56.3154L60.4063 256.054H60.5342V266H62.0171V252.909H60.1251L55.6762 263.776H55.5228L51.074 252.909H49.1819ZM68.9797 266.205C71.6388 266.205 73.4285 264.185 73.4285 261.142C73.4285 258.074 71.6388 256.054 68.9797 256.054C66.3206 256.054 64.5308 258.074 64.5308 261.142C64.5308 264.185 66.3206 266.205 68.9797 266.205ZM68.9797 264.849C66.9598 264.849 66.0393 263.111 66.0393 261.142C66.0393 259.173 66.9598 257.409 68.9797 257.409C70.9996 257.409 71.92 259.173 71.92 261.142C71.92 263.111 70.9996 264.849 68.9797 264.849ZM83.4081 256.182H81.7718L79.0615 264.006H78.9593L76.249 256.182H74.6127L78.2433 266H79.7774L83.4081 256.182ZM89.1642 266.205C91.1585 266.205 92.6159 265.207 93.0761 263.724L91.6187 263.315C91.2352 264.338 90.3467 264.849 89.1642 264.849C87.3936 264.849 86.1727 263.705 86.1024 261.602H93.2295V260.963C93.2295 257.307 91.0562 256.054 89.0107 256.054C86.3517 256.054 84.5874 258.151 84.5874 261.168C84.5874 264.185 86.3261 266.205 89.1642 266.205ZM86.1024 260.298C86.2046 258.771 87.2849 257.409 89.0107 257.409C90.6471 257.409 91.6954 258.636 91.6954 260.298H86.1024ZM104.857 256.182H102.76V253.83H101.252V256.182H99.7686V257.46H101.252V263.597C101.252 265.31 102.632 266.128 103.911 266.128C104.473 266.128 104.831 266.026 105.036 265.949L104.729 264.594C104.601 264.619 104.396 264.67 104.064 264.67C103.399 264.67 102.76 264.466 102.76 263.188V257.46H104.857V256.182ZM108.845 260.094C108.845 258.381 109.938 257.409 111.428 257.409C112.847 257.409 113.703 258.304 113.703 259.864V266H115.212V259.761C115.212 257.237 113.869 256.054 111.862 256.054C110.315 256.054 109.433 256.7 108.973 257.716H108.845V252.909H107.337V266H108.845V260.094ZM117.972 266H119.48V256.182H117.972V266ZM118.739 254.545C119.327 254.545 119.812 254.085 119.812 253.523C119.812 252.96 119.327 252.5 118.739 252.5C118.15 252.5 117.665 252.96 117.665 253.523C117.665 254.085 118.15 254.545 118.739 254.545ZM129.198 258.381C128.725 256.987 127.663 256.054 125.72 256.054C123.649 256.054 122.115 257.23 122.115 258.892C122.115 260.247 122.921 261.155 124.723 261.577L126.359 261.96C127.35 262.19 127.817 262.663 127.817 263.341C127.817 264.185 126.922 264.875 125.516 264.875C124.282 264.875 123.509 264.344 123.24 263.29L121.808 263.648C122.16 265.316 123.534 266.205 125.541 266.205C127.823 266.205 129.377 264.958 129.377 263.264C129.377 261.896 128.52 261.033 126.769 260.605L125.311 260.247C124.148 259.96 123.624 259.57 123.624 258.815C123.624 257.972 124.519 257.358 125.72 257.358C127.037 257.358 127.58 258.087 127.842 258.764L129.198 258.381ZM140.698 266.205C142.872 266.205 144.304 264.875 144.559 263.136H143.051C142.769 264.21 141.875 264.849 140.698 264.849C138.909 264.849 137.758 263.366 137.758 261.091C137.758 258.866 138.934 257.409 140.698 257.409C142.028 257.409 142.821 258.227 143.051 259.122H144.559C144.304 257.281 142.744 256.054 140.673 256.054C138.014 256.054 136.25 258.151 136.25 261.142C136.25 264.082 137.937 266.205 140.698 266.205ZM149.654 266.23C151.367 266.23 152.262 265.31 152.568 264.67H152.645V266H154.154V259.531C154.154 256.412 151.776 256.054 150.523 256.054C149.04 256.054 147.353 256.565 146.585 258.355L148.017 258.866C148.35 258.151 149.136 257.384 150.574 257.384C151.961 257.384 152.645 258.119 152.645 259.378V259.429C152.645 260.158 151.904 260.094 150.114 260.324C148.292 260.56 146.304 260.963 146.304 263.213C146.304 265.131 147.787 266.23 149.654 266.23ZM149.884 264.875C148.682 264.875 147.813 264.338 147.813 263.29C147.813 262.139 148.861 261.781 150.037 261.628C150.676 261.551 152.389 261.372 152.645 261.065V262.446C152.645 263.673 151.674 264.875 149.884 264.875ZM156.907 266H158.416V259.787C158.416 258.457 159.464 257.486 160.896 257.486C161.298 257.486 161.714 257.562 161.816 257.588V256.054C161.644 256.041 161.247 256.028 161.024 256.028C159.847 256.028 158.825 256.693 158.467 257.665H158.364V256.182H156.907V266ZM167.013 266.205C168.905 266.205 169.544 265.028 169.877 264.491H170.055V266H171.513V252.909H170.004V257.741H169.877C169.544 257.23 168.956 256.054 167.038 256.054C164.558 256.054 162.845 258.023 162.845 261.116C162.845 264.236 164.558 266.205 167.013 266.205ZM167.217 264.849C165.325 264.849 164.354 263.188 164.354 261.091C164.354 259.02 165.3 257.409 167.217 257.409C169.058 257.409 170.03 258.892 170.03 261.091C170.03 263.315 169.033 264.849 167.217 264.849ZM183.818 256.182H181.721V253.83H180.212V256.182H178.729V257.46H180.212V263.597C180.212 265.31 181.593 266.128 182.872 266.128C183.434 266.128 183.792 266.026 183.997 265.949L183.69 264.594C183.562 264.619 183.357 264.67 183.025 264.67C182.36 264.67 181.721 264.466 181.721 263.188V257.46H183.818V256.182ZM189.97 266.205C192.629 266.205 194.419 264.185 194.419 261.142C194.419 258.074 192.629 256.054 189.97 256.054C187.311 256.054 185.521 258.074 185.521 261.142C185.521 264.185 187.311 266.205 189.97 266.205ZM189.97 264.849C187.95 264.849 187.03 263.111 187.03 261.142C187.03 259.173 187.95 257.409 189.97 257.409C191.99 257.409 192.91 259.173 192.91 261.142C192.91 263.111 191.99 264.849 189.97 264.849ZM70.9308 278.182H68.8343V275.83H67.3257V278.182H65.8428V279.46H67.3257V285.597C67.3257 287.31 68.7064 288.128 69.9848 288.128C70.5473 288.128 70.9053 288.026 71.1098 287.949L70.803 286.594C70.6752 286.619 70.4706 286.67 70.1382 286.67C69.4735 286.67 68.8343 286.466 68.8343 285.188V279.46H70.9308V278.182ZM74.9195 282.094C74.9195 280.381 76.0125 279.409 77.5019 279.409C78.9209 279.409 79.7774 280.304 79.7774 281.864V288H81.286V281.761C81.286 279.237 79.9436 278.054 77.9365 278.054C76.3896 278.054 75.5075 278.7 75.0473 279.716H74.9195V274.909H73.411V288H74.9195V282.094ZM88.1622 288.205C90.1565 288.205 91.6139 287.207 92.0741 285.724L90.6167 285.315C90.2332 286.338 89.3447 286.849 88.1622 286.849C86.3916 286.849 85.1707 285.705 85.1004 283.602H92.2275V282.963C92.2275 279.307 90.0542 278.054 88.0088 278.054C85.3497 278.054 83.5855 280.151 83.5855 283.168C83.5855 286.185 85.3241 288.205 88.1622 288.205ZM85.1004 282.298C85.2027 280.771 86.2829 279.409 88.0088 279.409C89.6452 279.409 90.6934 280.636 90.6934 282.298H85.1004ZM103.573 288.205C105.747 288.205 107.179 286.875 107.434 285.136H105.926C105.644 286.21 104.75 286.849 103.573 286.849C101.784 286.849 100.633 285.366 100.633 283.091C100.633 280.866 101.809 279.409 103.573 279.409C104.903 279.409 105.696 280.227 105.926 281.122H107.434C107.179 279.281 105.619 278.054 103.548 278.054C100.889 278.054 99.1246 280.151 99.1246 283.142C99.1246 286.082 100.812 288.205 103.573 288.205ZM112.529 288.23C114.242 288.23 115.137 287.31 115.443 286.67H115.52V288H117.029V281.531C117.029 278.412 114.651 278.054 113.398 278.054C111.915 278.054 110.228 278.565 109.46 280.355L110.892 280.866C111.225 280.151 112.011 279.384 113.449 279.384C114.836 279.384 115.52 280.119 115.52 281.378V281.429C115.52 282.158 114.779 282.094 112.989 282.324C111.167 282.56 109.179 282.963 109.179 285.213C109.179 287.131 110.662 288.23 112.529 288.23ZM112.759 286.875C111.557 286.875 110.688 286.338 110.688 285.29C110.688 284.139 111.736 283.781 112.912 283.628C113.551 283.551 115.264 283.372 115.52 283.065V284.446C115.52 285.673 114.549 286.875 112.759 286.875ZM119.782 288H121.291V281.787C121.291 280.457 122.339 279.486 123.771 279.486C124.173 279.486 124.589 279.562 124.691 279.588V278.054C124.519 278.041 124.122 278.028 123.899 278.028C122.722 278.028 121.7 278.693 121.342 279.665H121.239V278.182H119.782V288ZM129.888 288.205C131.78 288.205 132.419 287.028 132.752 286.491H132.93V288H134.388V274.909H132.879V279.741H132.752C132.419 279.23 131.831 278.054 129.913 278.054C127.433 278.054 125.72 280.023 125.72 283.116C125.72 286.236 127.433 288.205 129.888 288.205ZM130.092 286.849C128.2 286.849 127.229 285.188 127.229 283.091C127.229 281.02 128.175 279.409 130.092 279.409C131.933 279.409 132.905 280.892 132.905 283.091C132.905 285.315 131.908 286.849 130.092 286.849ZM142.423 291.682H143.931V286.491H144.059C144.391 287.028 145.031 288.205 146.923 288.205C149.377 288.205 151.09 286.236 151.09 283.116C151.09 280.023 149.377 278.054 146.897 278.054C144.979 278.054 144.391 279.23 144.059 279.741H143.88V278.182H142.423V291.682ZM143.906 283.091C143.906 280.892 144.877 279.409 146.718 279.409C148.636 279.409 149.582 281.02 149.582 283.091C149.582 285.188 148.61 286.849 146.718 286.849C144.903 286.849 143.906 285.315 143.906 283.091ZM157.38 288.205C160.039 288.205 161.829 286.185 161.829 283.142C161.829 280.074 160.039 278.054 157.38 278.054C154.721 278.054 152.931 280.074 152.931 283.142C152.931 286.185 154.721 288.205 157.38 288.205ZM157.38 286.849C155.36 286.849 154.44 285.111 154.44 283.142C154.44 281.173 155.36 279.409 157.38 279.409C159.4 279.409 160.32 281.173 160.32 283.142C160.32 285.111 159.4 286.849 157.38 286.849ZM168.12 288.205C170.779 288.205 172.569 286.185 172.569 283.142C172.569 280.074 170.779 278.054 168.12 278.054C165.461 278.054 163.671 280.074 163.671 283.142C163.671 286.185 165.461 288.205 168.12 288.205ZM168.12 286.849C166.1 286.849 165.18 285.111 165.18 283.142C165.18 281.173 166.1 279.409 168.12 279.409C170.14 279.409 171.061 281.173 171.061 283.142C171.061 285.111 170.14 286.849 168.12 286.849ZM176.38 274.909H174.872V288H176.38V274.909ZM180.243 288.102C180.876 288.102 181.393 287.585 181.393 286.952C181.393 286.319 180.876 285.801 180.243 285.801C179.61 285.801 179.092 286.319 179.092 286.952C179.092 287.585 179.61 288.102 180.243 288.102Z" fill="black" fill-opacity="0.87"/>
<path d="M216 160H236V176L228 184.5L236 192V208H226H216V160Z" fill="#FF4B3C" stroke="black" stroke-width="2"/>
<path d="M216 160H236V176L228 184.5L236 192V208H226H216V160Z" fill="black" fill-opacity="0.17"/>
<path d="M224 168L216 160V168H224Z" fill="black" fill-opacity="0.38" stroke="black" stroke-width="2" stroke-linejoin="bevel"/>
<path d="M248 176L240 184L248 192V176Z" fill="#D4D4D4"/>
<path d="M32 160H12V176L20 184.5L12 192V208H22H32V160Z" fill="#FF4B3C" stroke="black" stroke-width="2"/>
<path d="M32 160H12V176L20 184.5L12 192V208H22H32V160Z" fill="black" fill-opacity="0.17"/>
<path d="M24 168L32 160V168H24Z" fill="black" fill-opacity="0.38" stroke="black" stroke-width="2" stroke-linejoin="bevel"/>
<path d="M0 176L8 184L0 192V176Z" fill="#D4D4D4"/>
<path d="M224 168H24V216H224V168Z" fill="#FF4B3C" stroke="black" stroke-width="2"/>
<path d="M79.7483 203.36C77.8523 203.36 75.4403 203.216 72.5123 202.928L72.7643 196.268H74.9603L75.5723 200.228C76.5083 200.348 77.4683 200.468 78.4523 200.588C79.4363 200.708 80.2163 200.768 80.7923 200.768C80.9123 200.768 81.0803 200.624 81.2963 200.336C81.5363 200.048 81.7403 199.7 81.9083 199.292C82.0763 198.884 82.1603 198.5 82.1603 198.14C82.1603 197.252 81.8243 196.508 81.1523 195.908C80.4803 195.284 79.4603 194.564 78.0923 193.748C76.9643 193.124 76.0403 192.548 75.3203 192.02C74.6003 191.492 73.9883 190.844 73.4843 190.076C73.0043 189.284 72.7643 188.36 72.7643 187.304C72.7643 186.608 72.8243 185.996 72.9443 185.468C73.2323 184.94 73.7843 184.316 74.6003 183.596C75.4163 182.876 76.2563 182.252 77.1203 181.724C78.0083 181.196 78.6683 180.932 79.1003 180.932C79.6523 180.932 81.7643 181.136 85.4363 181.544L85.1483 187.844H82.9523L82.4483 184.244C81.6563 184.1 80.7443 183.956 79.7123 183.812C78.7043 183.668 77.9603 183.596 77.4803 183.596C77.1923 183.596 76.9523 183.8 76.7603 184.208C76.5683 184.616 76.4723 185.216 76.4723 186.008C76.4723 186.944 76.7963 187.736 77.4443 188.384C78.0923 189.032 79.0403 189.716 80.2883 190.436C81.6803 191.228 82.7243 191.864 83.4203 192.344C84.1163 192.824 84.7283 193.46 85.2563 194.252C85.8083 195.02 86.0843 195.944 86.0843 197.024C86.0843 197.648 86.0123 198.248 85.8683 198.824C85.5563 199.424 85.0043 200.084 84.2123 200.804C83.4203 201.524 82.5923 202.136 81.7283 202.64C80.8883 203.12 80.2283 203.36 79.7483 203.36ZM90.6684 203.36C90.5484 203.36 90.2964 203.18 89.9124 202.82C89.5524 202.46 89.3724 202.22 89.3724 202.1V182.264L88.0764 181.76V180.248C90.3564 179.84 91.6164 179.636 91.8564 179.636C91.9764 179.636 92.2164 179.816 92.5764 180.176C92.9364 180.512 93.1164 180.752 93.1164 180.896L92.9364 188.888L93.1164 188.924C93.8124 188.396 94.5444 187.856 95.3124 187.304C96.1044 186.752 96.5484 186.476 96.6444 186.476C98.4204 186.476 99.7404 186.92 100.604 187.808C101.492 188.672 101.936 190.196 101.936 192.38V200.66L103.232 201.2V202.712C100.976 203.144 99.7404 203.36 99.5244 203.36C99.4044 203.36 99.1524 203.18 98.7684 202.82C98.3844 202.46 98.1924 202.22 98.1924 202.1V192.38C98.1924 191.084 97.9884 190.256 97.5804 189.896C97.1964 189.536 96.7524 189.356 96.2484 189.356C96.1524 189.356 95.4444 189.632 94.1244 190.184C93.9564 190.256 93.7764 190.34 93.5844 190.436C93.4164 190.508 93.2604 190.568 93.1164 190.616V200.66L94.4124 201.2V202.712C92.1564 203.144 90.9084 203.36 90.6684 203.36ZM111.385 203.36C110.329 203.36 109.357 203.072 108.469 202.496C107.605 201.896 106.909 201.008 106.381 199.832C105.877 198.656 105.625 197.216 105.625 195.512C105.625 194.384 105.709 193.34 105.877 192.38C106.045 191.396 106.261 190.628 106.525 190.076C106.933 189.524 107.833 188.78 109.225 187.844C110.641 186.908 111.577 186.44 112.033 186.44C112.297 186.44 113.233 186.56 114.841 186.8C116.449 187.016 117.685 187.196 118.549 187.34V200.696L119.809 201.2V202.748C117.625 203.156 116.413 203.36 116.173 203.36C116.077 203.36 115.837 203.18 115.453 202.82C115.093 202.46 114.913 202.22 114.913 202.1V200.804C112.729 202.508 111.553 203.36 111.385 203.36ZM111.781 200.444C112.021 200.444 113.029 200 114.805 199.112V189.428C114.229 189.212 113.497 189.02 112.609 188.852C111.745 188.66 111.169 188.588 110.881 188.636C110.449 188.732 110.125 189.272 109.909 190.256C109.693 191.24 109.585 192.884 109.585 195.188C109.585 196.34 109.705 197.312 109.945 198.104C110.209 198.896 110.509 199.484 110.845 199.868C111.205 200.252 111.517 200.444 111.781 200.444ZM127.838 203.36C126.806 203.36 125.846 203.072 124.958 202.496C124.094 201.92 123.398 201.056 122.87 199.904C122.342 198.752 122.078 197.348 122.078 195.692C122.078 194.492 122.162 193.4 122.33 192.416C122.498 191.408 122.714 190.628 122.978 190.076C123.386 189.524 124.286 188.78 125.678 187.844C127.094 186.908 128.03 186.44 128.486 186.44C128.942 186.44 129.914 186.56 131.402 186.8V182.264L130.07 181.76V180.248C132.398 179.84 133.67 179.636 133.886 179.636C134.006 179.636 134.246 179.816 134.606 180.176C134.99 180.512 135.182 180.752 135.182 180.896L135.002 187.556V200.696L136.262 201.2V202.748C134.078 203.156 132.866 203.36 132.626 203.36C132.53 203.36 132.29 203.18 131.906 202.82C131.546 202.46 131.366 202.22 131.366 202.1V200.804C131.054 201.02 130.778 201.236 130.538 201.452C130.322 201.62 129.842 201.98 129.098 202.532C128.378 203.084 127.958 203.36 127.838 203.36ZM128.234 200.444C128.45 200.444 129.458 200 131.258 199.112V189.428C130.562 189.212 129.794 189.008 128.954 188.816C128.138 188.624 127.598 188.564 127.334 188.636C126.902 188.732 126.578 189.272 126.362 190.256C126.146 191.24 126.038 192.884 126.038 195.188C126.038 196.34 126.158 197.312 126.398 198.104C126.662 198.896 126.962 199.484 127.298 199.868C127.658 200.252 127.97 200.444 128.234 200.444ZM146.377 203.36C143.809 203.36 141.877 202.724 140.581 201.452C139.285 200.156 138.637 198.164 138.637 195.476C138.637 194.396 138.721 193.352 138.889 192.344C139.057 191.336 139.273 190.592 139.537 190.112C139.801 189.752 140.329 189.272 141.121 188.672C141.913 188.048 142.717 187.508 143.533 187.052C144.349 186.572 144.901 186.332 145.189 186.332C147.685 186.332 149.569 186.992 150.841 188.312C152.113 189.608 152.749 191.504 152.749 194C152.749 195.152 152.665 196.244 152.497 197.276C152.353 198.284 152.161 199.1 151.921 199.724C151.513 200.252 150.589 200.996 149.149 201.956C147.733 202.892 146.809 203.36 146.377 203.36ZM146.521 201.164C146.665 201.116 147.229 200.84 148.213 200.336C148.597 198.632 148.789 196.676 148.789 194.468C148.789 192.668 148.465 191.24 147.817 190.184C147.193 189.104 146.257 188.564 145.009 188.564C144.481 188.564 144.049 188.648 143.713 188.816C143.377 188.984 143.101 189.608 142.885 190.688C142.693 191.768 142.597 193.196 142.597 194.972C142.597 197.276 142.969 198.884 143.713 199.796C144.481 200.708 145.417 201.164 146.521 201.164ZM159.55 203.396C159.478 203.396 159.298 203.3 159.01 203.108L155.338 189.032L153.934 188.636V187.016C156.046 186.68 157.21 186.512 157.426 186.512C157.546 186.512 157.81 186.656 158.218 186.944C158.626 187.232 158.854 187.46 158.902 187.628L160.846 196.268L161.494 199.292H161.89L164.374 191.408L163.654 189.032L162.25 188.636V187.016C164.362 186.68 165.526 186.512 165.742 186.512C165.862 186.512 166.126 186.656 166.534 186.944C166.942 187.232 167.17 187.46 167.218 187.628L169.234 196.268L169.918 199.292H170.314L172.906 188.924L170.494 188.672V186.8L175.21 186.512C175.33 186.512 175.534 186.692 175.822 187.052C176.134 187.412 176.29 187.676 176.29 187.844L171.862 202.748C169.558 203.18 168.322 203.396 168.154 203.396C168.082 203.396 167.902 203.3 167.614 203.108L165.562 195.512H165.346L163.258 202.748C160.954 203.18 159.718 203.396 159.55 203.396Z" fill="white"/>
<defs>
<linearGradient id="paint0_linear_155_13" x1="127" y1="49.2189" x2="245.233" y2="261.056" gradientUnits="userSpaceOnUse">
<stop stop-color="#232735"/>
<stop offset="1" stop-opacity="0"/>
</linearGradient>
<linearGradient id="paint1_linear_155_13" x1="127" y1="47.7082" x2="194.645" y2="218.285" gradientUnits="userSpaceOnUse">
<stop stop-color="#232735"/>
<stop offset="1" stop-opacity="0"/>
</linearGradient>
</defs>
</svg>
