<svg width="249" height="320" viewBox="0 0 249 320" fill="none" xmlns="http://www.w3.org/2000/svg">
<g clip-path="url(#clip0_82_106)">
<path d="M0.5 6C0.5 2.6863 3.18629 0 6.5 0H242.5C245.814 0 248.5 2.68629 248.5 6V314C248.5 317.314 245.814 320 242.5 320H6.49999C3.18629 320 0.5 317.314 0.5 314V6Z" fill="white"/>
<rect x="1" y="0.5" width="247" height="319" rx="5.5" fill="white" stroke="#D4D4D4"/>
<rect x="44.5" y="44" width="160" height="180" fill="black" fill-opacity="0.1"/>
<rect x="44.502" y="44.0078" width="160" height="180" fill="url(#paint0_linear_82_106)"/>
<path d="M70.502 44.1953H100.625C102.006 44.1953 103.125 45.3146 103.125 46.6953C103.125 48.076 102.006 49.1953 100.625 49.1953H97.7503C96.0934 49.1953 94.7503 50.5385 94.7503 52.1953C94.7503 53.8522 93.4071 55.1953 91.7503 55.1953H79.3603C76.875 55.1953 74.8603 57.21 74.8603 59.6953C74.8603 62.1806 76.875 64.1953 79.3603 64.1953H81.0006C83.9691 64.1953 86.3756 66.6018 86.3756 69.5703C86.3756 72.5388 83.9691 74.9453 81.0006 74.9453H76.0011C72.4803 74.9453 69.6261 77.7995 69.6261 81.3203C69.6261 84.8411 66.7719 87.6953 63.2511 87.6953H57.1267C54.7795 87.6953 52.8767 89.6297 52.8767 91.9769C52.8767 94.2895 51.0019 96.1953 48.6893 96.1953C46.3767 96.1953 44.502 94.3206 44.502 92.0079V70.1953C44.502 55.8359 56.1426 44.1953 70.502 44.1953Z" fill="white" stroke="black" stroke-width="2"/>
<path d="M175.592 44.0078H145.469C144.088 44.0078 142.969 45.1271 142.969 46.5078C142.969 47.8885 144.088 49.0078 145.469 49.0078H148.343C150 49.0078 151.343 50.351 151.343 52.0078C151.343 53.6647 152.687 55.0078 154.343 55.0078H166.733C169.219 55.0078 171.233 57.0225 171.233 59.5078C171.233 61.9931 169.219 64.0078 166.733 64.0078H165.093C162.125 64.0078 159.718 66.4143 159.718 69.3828C159.718 72.3513 162.125 74.7578 165.093 74.7578H170.093C173.613 74.7578 176.468 77.612 176.468 81.1328C176.468 84.6536 179.322 87.5078 182.843 87.5078H188.967C191.314 87.5078 193.217 89.4422 193.217 91.7894C193.217 94.102 195.092 96.0078 197.404 96.0078C199.717 96.0078 201.592 94.1331 201.592 91.8204V70.0078C201.592 55.6484 189.951 44.0078 175.592 44.0078Z" fill="white" stroke="black" stroke-width="2"/>
<path d="M84.3926 61.5078H87.627H161.377H164.611C165.447 61.5078 166.195 60.9879 166.486 60.2042L171.5 46.7042C171.986 45.3976 171.019 44.0078 169.626 44.0078H154.912C154.007 44.0078 153.214 44.6162 152.98 45.4909L151.919 49.458C151.624 50.5606 150.467 51.1931 149.38 50.8468L148.297 50.5018C147.759 50.3305 147.319 49.9413 147.083 49.4285C146.607 48.3961 145.757 46.5639 145.047 45.1048C144.718 44.4289 144.029 44.0078 143.277 44.0078H106.227C105.475 44.0078 104.787 44.4313 104.585 45.1553C103.903 47.5951 103.524 51.878 103.451 52.7714C103.442 52.8825 103.424 52.9919 103.397 53.1001L102.986 54.7613C102.539 56.5625 100.094 56.8376 99.2583 55.1805L94.1813 45.1076C93.8414 44.4332 93.1506 44.0078 92.3953 44.0078H79.3783C77.9846 44.0078 77.0182 45.3976 77.5035 46.7042L82.5177 60.2042C82.8088 60.9879 83.5566 61.5078 84.3926 61.5078Z" fill="#C4C4C4" stroke="black" stroke-width="2"/>
<circle cx="124.502" cy="110.008" r="53" stroke="black" stroke-width="2"/>
<circle cx="124.502" cy="110.008" r="43" fill="#C4C4C4" stroke="black" stroke-width="2"/>
<path d="M161.752 88.0078H88.502L125.752 152.008L161.752 88.0078Z" fill="white" stroke="black" stroke-width="2" stroke-linejoin="bevel"/>
<circle cx="124.502" cy="110.008" r="10.5281" stroke="black" stroke-width="2"/>
<circle cx="144.502" cy="122.008" r="7.00024" stroke="black" stroke-width="2"/>
<circle cx="106.002" cy="121.535" r="7.00024" stroke="black" stroke-width="2"/>
<path d="M40.502 109.633L90.752 109.633" stroke="black" stroke-width="2"/>
<path d="M177 109.633L200.502 109.633M134.002 109.633L149 109.633" stroke="black" stroke-width="2"/>
<path d="M204.441 109.633L212.502 109.633" stroke="black" stroke-width="2"/>
<path d="M180.682 53.4375L161.932 72.1875M176.252 64.0078L178.002 67.2578M185.752 83.0078L185.752 86.7578M71.002 59.2578L69.502 62.0078M64.5019 76.2578L66.002 80.2578M60.502 121.008L62.252 123.258M185.752 121.008L189.002 121.008M178.002 168.508L180.682 167.258M169.502 177.008L167.002 175.508M79.2519 160.508L79.2519 163.258" stroke="black" stroke-width="2"/>
<path d="M86.0791 148.041L82.4794 151.64" stroke="black" stroke-width="2"/>
<path d="M97.9473 136.408L94.3476 140.008" stroke="black" stroke-width="2"/>
<path d="M172.432 157.578L154.557 139.703" stroke="black" stroke-width="2"/>
<path d="M86.9014 72.0479L53.3066 38.4531" stroke="black" stroke-width="2"/>
<path d="M100.268 59.1328H103.518L102.268 65.0078L107.518 66.2578V64.0078L109.268 65.0078C109.143 67.3411 108.768 72.9078 108.268 76.5078C107.768 80.1078 109.476 84.8411 110.393 86.7578H108.268L104.268 92.0078V84.6328C102.268 84.0911 97.9926 82.9078 96.8926 82.5078C95.7926 82.1078 92.7676 79.7578 91.3926 78.6328C89.8092 75.9661 86.4426 69.9328 85.6426 67.1328C84.8426 64.3328 87.6426 61.2161 89.1426 60.0078L92.2676 58.5078V54.8828L98.2676 56.0078L100.268 59.1328Z" fill="#C4C4C4" stroke="black" stroke-width="2"/>
<path d="M92.1119 81.4545L96.9087 79.191L96.8359 76.0234L93.5799 76.3301L92.1119 81.4545Z" stroke="black" stroke-width="2"/>
<path d="M85.9121 72.5616L91.2159 72.5093L92.4731 69.601L89.3868 68.5193L85.9121 72.5616Z" stroke="black" stroke-width="2"/>
<path d="M137.969 91.5471L136.138 94.373C135.761 94.9547 135.252 95.4392 134.653 95.7872C133.981 96.1773 133.218 96.3828 132.441 96.3828H116.66C115.883 96.3828 115.12 96.1773 114.448 95.7872C113.849 95.4392 113.34 94.9547 112.963 94.373L111.132 91.5471C110.821 91.0678 110.613 90.5294 110.521 89.9657L110.23 88.1886C110.114 87.484 109.559 86.9333 108.854 86.8231L108.772 86.8103C108.309 86.7379 107.839 86.8882 107.503 87.2157C106.622 88.0768 105.135 87.5535 104.988 86.3301L104.939 85.9269C104.921 85.7732 104.881 85.6229 104.821 85.48L104.744 85.2932C104.647 85.0621 104.524 84.8433 104.376 84.6414L104.296 84.5326C104.041 84.1847 103.84 83.8003 103.7 83.3924L103.256 82.1024C102.779 80.7156 102.536 79.2593 102.536 77.7929V73.3828L103.31 65.4704C103.335 65.2049 103.398 64.9443 103.495 64.696L103.668 64.2541C103.824 63.8548 104.126 63.5296 104.513 63.3441C105.1 63.0622 105.474 62.4683 105.474 61.8168V59.7911C105.474 59.0304 105.288 58.2813 104.933 57.6087C103.463 54.8271 105.107 51.4175 108.199 50.835L117.037 49.1699C118.378 48.9171 119.463 47.9312 119.842 46.6201C120.29 45.0727 121.707 44.0078 123.318 44.0078H125.782C127.393 44.0078 128.81 45.0727 129.258 46.6201C129.638 47.9312 130.723 48.9171 132.064 49.1699L140.902 50.835C143.994 51.4175 145.638 54.8271 144.168 57.6087C143.813 58.2813 143.627 59.0304 143.627 59.7911V61.8168C143.627 62.4683 144.001 63.0622 144.588 63.3441C144.975 63.5296 145.276 63.8548 145.433 64.2541L145.605 64.696C145.703 64.9443 145.765 65.2049 145.791 65.4704L146.564 73.3828V77.7929C146.564 79.2593 146.321 80.7156 145.844 82.1024L145.401 83.3924C145.261 83.8003 145.06 84.1847 144.805 84.5326L144.725 84.6414C144.577 84.8433 144.453 85.0621 144.357 85.2932L144.279 85.48C144.22 85.6229 144.18 85.7732 144.162 85.9269L144.113 86.3301C143.965 87.5535 142.479 88.0768 141.597 87.2157C141.262 86.8882 140.792 86.7379 140.329 86.8103L140.247 86.8231C139.541 86.9333 138.986 87.484 138.871 88.1886L138.58 89.9657C138.487 90.5294 138.279 91.0678 137.969 91.5471Z" fill="#C4C4C4" stroke="black" stroke-width="2"/>
<path d="M122.064 80.8203V80.0078H124.908H127.752V80.8203L131.002 84.0078L131.314 88.5703L132.502 89.1953V100.008C132.502 100.008 128.131 102.073 124.908 102.188C121.392 102.312 117.064 100.008 117.064 100.008V89.1953L118.377 88.5703V84.0078L122.064 80.8203Z" fill="#919191"/>
<path d="M119.189 92.8203H121.377L124.908 91.375M130.314 92.8203H127.752L124.908 91.375M124.908 80.0078H127.752V80.8203L131.002 84.0078L131.314 88.5703L132.502 89.1953V100.008C132.502 100.008 128.131 102.073 124.908 102.188C121.392 102.312 117.064 100.008 117.064 100.008V89.1953L118.377 88.5703V84.0078L122.064 80.8203V80.0078H124.908ZM124.908 80.0078V94.8125V91.375" stroke="black" stroke-width="2"/>
<path d="M121.002 133.945V137.633L119.877 140.508L121.752 144.008L122.439 156.883L117.877 174.008L111.627 183.801L109.939 186.445L87.1681 203.258V210.258H119.127V204.258L150.252 210.258V203.258C150.252 203.258 158.064 195.299 159.627 192.008L160.502 183.058L150.252 183.508L141.564 177.883L135.752 170.695L132.502 160.008L132.267 157.383L131.814 152.32L131.002 140.008L128.502 137.633V133.945L129.627 132.008L133.752 135.008L134.189 137.633H139.314L142.814 142.695L145.564 143.258L150.752 150.133L154.189 155.383V160.57L152.502 163.195L154.814 164.008H160.502L165.064 161.008L169.189 153.133L193.814 148.57C191.96 149.445 187.114 151.583 182.564 153.133C176.877 155.07 167.002 162.945 164.002 168.57C163.649 169.232 163.365 169.948 163.138 170.695C162.738 172.02 162.521 173.448 162.429 174.862C162.22 178.074 162.657 181.218 163.064 182.945L160.502 183.058L159.627 192.008C158.064 195.299 150.252 203.258 150.252 203.258V210.258L119.127 204.258V210.258H87.1681V203.258L76.502 211.133L63.252 182.133L81.877 177.008L95.127 178.508L106.877 176.008L115.127 167.383V164.008L109.939 162.633L110.877 156.008L105.627 152.758L107.627 151.133L108.502 148.883L103.502 149.508L101.627 148.008V144.008H103.502L102.752 141.383V140.508L100.502 137.633L101.627 136.008L106.877 139.008L108.502 140.008L111.627 137.633L116.502 136.008L117.252 132.883L121.002 133.945Z" fill="#533F3F"/>
<path d="M152.502 163.195L154.814 164.008H160.502L165.064 161.008L169.189 153.133L193.814 148.57C191.96 149.445 187.114 151.583 182.564 153.133C176.877 155.07 167.002 162.945 164.002 168.57C163.649 169.232 163.365 169.948 163.138 170.695M152.502 163.195L154.189 160.57V155.383L150.752 150.133L145.564 143.258L142.814 142.695L139.314 137.633H134.189L133.752 135.008L129.627 132.008L128.502 133.945V137.633L131.002 140.008L131.814 152.32L132.267 157.383M152.502 163.195L146.877 166.883L143.689 167.707M138.877 150.133L143.689 155.383L149.127 153.07L143.252 157.383L138.252 158.383L138.877 165.258L137.564 167.383L137.064 164.445M143.689 157.758L144.189 164.883L142.528 168.008M137.064 169.82H141.564L142.528 168.008M142.528 168.008L143.689 167.707M99.877 149.508L95.127 158.383V162.633L105.627 167.383L106.877 169.82H111.627L107.627 164.008L108.502 157.758L104.502 156.883L102.752 164.008M135.127 140.008V145.258L133.752 148.008H135.127L132.267 157.383M132.267 157.383L132.502 160.008L135.752 170.695L141.564 177.883L150.252 183.508L160.502 183.058M113.377 139.008L116.502 144.008H118.877L117.252 146.008L119.877 155.383M193.814 154.133C193.814 154.433 188.606 157.674 186.002 159.258L187.127 162.633C184.502 162.424 178.327 162.495 174.627 164.445C170.927 166.395 164.953 172.202 162.429 174.862M162.429 174.862C162.22 178.074 162.657 181.218 163.064 182.945L160.502 183.058M162.429 174.862C162.521 173.448 162.738 172.02 163.138 170.695M160.502 183.058L159.627 192.008C158.064 195.299 150.252 203.258 150.252 203.258V210.258L119.127 204.258V210.258H87.1681V203.258M87.1681 203.258L109.939 186.445L111.627 183.801M87.1681 203.258L76.502 211.133L63.252 182.133L81.877 177.008L95.127 178.508L106.877 176.008L115.127 167.383V164.008L109.939 162.633L110.877 156.008L105.627 152.758L107.627 151.133L108.502 148.883L103.502 149.508L101.627 148.008V144.008H103.502L102.752 141.383V140.508L100.502 137.633L101.627 136.008L106.877 139.008L108.502 140.008L111.627 137.633L116.502 136.008L117.252 132.883L121.002 133.945V137.633L119.877 140.508L121.752 144.008L122.439 156.883L117.877 174.008L111.627 183.801M83.752 196.758C86.7103 195.341 93.527 192.258 97.127 191.258C100.727 190.258 108.294 185.87 111.627 183.801M163.138 170.695C161.468 172.883 157.339 177.383 154.189 177.883C151.039 178.383 145.585 176.841 143.252 176.008M143.689 167.707C144.377 169.141 146.427 172.008 149.127 172.008C151.827 172.008 157.835 169.141 160.502 167.707" stroke="black" stroke-width="2"/>
<path d="M137.252 172.883H119.002L110.127 185.758L106.752 224.008H120.502L124.502 193.383H128.502V224.008H141.752V188.508L138.002 179.258L135.564 177.445H137.252V172.883Z" fill="#783434"/>
<path d="M131.252 143.383L122.252 146.383M119.002 172.883H137.252V177.445H135.564L138.002 179.258L141.752 188.508V224.008H128.502V193.383H124.502L120.502 224.008H106.752L110.127 185.758L119.002 172.883Z" stroke="black" stroke-width="2"/>
<path d="M194.698 169.634L194.906 167.04C195.09 164.743 196.888 162.906 199.18 162.671C201.994 162.383 204.441 164.592 204.441 167.422V196.038C204.441 211.485 191.919 224.008 176.471 224.008H152.911C150.476 224.008 148.502 222.034 148.502 219.598C148.502 216.809 151.06 214.72 153.793 215.278L154.773 215.478C157.077 215.948 159.411 214.822 160.477 212.726L162.617 208.519C163.367 207.044 163.758 205.413 163.758 203.759V194.371C163.758 193.757 164.256 193.259 164.87 193.259H165.55C165.789 193.259 165.983 193.065 165.983 192.826C165.983 192.414 166.505 192.235 166.758 192.561L168.58 194.912C169.132 195.625 170.193 195.667 170.8 195L172.532 193.097C173.397 192.146 174.702 191.726 175.959 191.995L176.693 192.152C179.49 192.75 182.206 190.844 182.595 188.01L183.415 182.026C183.825 179.036 186.078 176.632 189.035 176.029C192.136 175.396 194.444 172.789 194.698 169.634Z" fill="#C4C4C4" stroke="black" stroke-width="2"/>
<path d="M54.2458 169.634L54.0376 167.04C53.8534 164.743 52.0557 162.906 49.7638 162.671C46.9489 162.383 44.5024 164.592 44.5024 167.422V196.038C44.5024 211.485 57.0248 224.008 72.4719 224.008H96.0319C98.4672 224.008 100.441 222.034 100.441 219.598C100.441 216.809 97.8837 214.72 95.1504 215.278L94.1699 215.478C91.8663 215.948 89.5324 214.822 88.4665 212.726L86.3263 208.519C85.5763 207.044 85.1853 205.413 85.1853 203.759V194.371C85.1853 193.757 84.6873 193.259 84.0729 193.259H83.3933C83.1542 193.259 82.9605 193.065 82.9605 192.826C82.9605 192.414 82.4382 192.235 82.1856 192.561L80.3631 194.912C79.811 195.625 78.7499 195.667 78.1434 195L76.4116 193.097C75.5466 192.146 74.2415 191.726 72.9845 191.995L72.2503 192.152C69.4529 192.75 66.7374 190.844 66.3488 188.01L65.5282 182.026C65.1182 179.036 62.8651 176.632 59.9086 176.029C56.8077 175.396 54.4989 172.789 54.2458 169.634Z" fill="#C4C4C4" stroke="black" stroke-width="2"/>
<path d="M44.502 157.508V44.0078H96.502H204.502V124.008" stroke="black" stroke-width="2"/>
<path d="M44.502 177.008V224.008H96.502H204.502V144.008" stroke="black" stroke-width="2"/>
<path d="M120.877 160.383L112.064 159.633L111.752 164.508H123.564L125.189 162.758L124.752 146.695L123.564 154.695L120.877 160.383Z" fill="#F2DFCD"/>
<path d="M138.314 159.633L129.502 160.383L126.814 154.695L125.627 146.539V162.758L126.814 164.508H138.627L138.314 159.633Z" fill="#F2DFCD"/>
<path d="M123.752 137.133L119.564 132.008L118.689 129.258L117.439 127.383V125.32H118.689V121.508L124.689 120.008L130.689 121.508V125.32H131.939V127.383L130.689 129.258L129.814 132.008L125.627 137.133H123.752Z" fill="#F2DFCD"/>
<path d="M120.877 160.383L112.064 159.633L111.752 164.508H123.564L125.189 162.758L124.752 146.695L123.564 154.695L120.877 160.383Z" stroke="black" stroke-width="2"/>
<path d="M138.314 159.633L129.502 160.383L126.814 154.695L125.627 146.539V162.758L126.814 164.508H138.627L138.314 159.633Z" stroke="black" stroke-width="2"/>
<path d="M123.752 137.133L119.564 132.008L118.689 129.258L117.439 127.383V125.32H118.689V121.508L124.689 120.008L130.689 121.508V125.32H131.939V127.383L130.689 129.258L129.814 132.008L125.627 137.133H123.752Z" stroke="black" stroke-width="2"/>
<path d="M120.502 127.383C120.502 127.383 122.689 126.633 122.689 128.008M127.002 128.008C127.002 126.508 129.127 127.383 129.127 127.383M123.502 132.008L124.814 132.57L126.002 132.008" stroke="black"/>
<path d="M123.939 125.195C127.439 124.695 130.106 122.362 131.002 121.258V124.57L131.877 126.258L131.002 130.008L135.502 124.008L133.939 118.633C131.502 116.841 126.202 113.22 124.502 113.07C122.802 112.92 119.585 115.549 118.189 116.883L114.002 123.445L115.752 127.445L118.939 125.195L123.939 121.758V125.195Z" fill="#333333" stroke="black" stroke-width="2"/>
<path d="M131.377 78.7578L132.502 85.1328L134.877 88.0078L135.502 91.0078V95.1328L138.752 91.0078V86.1328C138.877 85.7995 138.852 84.6078 137.752 82.5078C136.652 80.4078 133.794 78.3828 132.502 77.6328L131.377 78.7578Z" stroke="black" stroke-width="2"/>
<path d="M118.803 78.7578L117.678 85.1328L115.303 88.0078L114.678 91.0078V95.1328L111.428 91.0078V86.1328C111.303 85.7995 111.328 84.6078 112.428 82.5078C113.528 80.4078 116.386 78.3828 117.678 77.6328L118.803 78.7578Z" stroke="black" stroke-width="2"/>
<path d="M131.377 75.1327L130.627 76.8827H119.627L118.877 75.1327L116.502 74.3826L112.502 76.8827L110.377 82.7577L109.752 78.0077C110.71 76.1327 113.402 72.1076 116.502 71.0076C119.602 69.9076 124.502 60.5078 124.502 60.5078C124.502 60.5078 130.652 69.9076 133.752 71.0076C136.852 72.1076 139.544 76.1327 140.502 78.0077L139.877 82.7577L137.752 76.8827L133.752 74.3826L131.377 75.1327Z" fill="#A8A8A8" stroke="black" stroke-width="2"/>
<path d="M124.252 35.5L124.252 55.2505" stroke="black" stroke-width="2"/>
<path d="M190.502 44.0078H179.002C177.621 44.0078 176.502 45.1271 176.502 46.5078V47.0078C176.502 48.1124 177.397 49.0078 178.502 49.0078C179.607 49.0078 180.502 49.9032 180.502 51.0078V52.0078C180.502 53.6647 181.845 55.0078 183.502 55.0078H185.502C187.987 55.0078 190.002 57.0225 190.002 59.5078V61.2578C190.002 62.7766 188.771 64.0078 187.252 64.0078C185.733 64.0078 184.502 65.239 184.502 66.7578V70.7578C184.502 72.967 186.293 74.7578 188.502 74.7578C190.711 74.7578 192.502 76.5487 192.502 78.7578V83.5078C192.502 85.7169 194.293 87.5078 196.502 87.5078C198.711 87.5078 200.502 89.2987 200.502 91.5078V94.0078C200.502 95.1124 201.397 96.0078 202.502 96.0078C203.607 96.0078 204.502 95.1124 204.502 94.0078V58.0078C204.502 50.2758 198.234 44.0078 190.502 44.0078Z" fill="#C4C4C4" stroke="black" stroke-width="2"/>
<path d="M58.502 44.0078H70.002C71.3827 44.0078 72.502 45.1271 72.502 46.5078V47.0078C72.502 48.1124 71.6065 49.0078 70.502 49.0078C69.3974 49.0078 68.502 49.9032 68.502 51.0078V52.0078C68.502 53.6647 67.1588 55.0078 65.502 55.0078H63.502C61.0167 55.0078 59.002 57.0225 59.002 59.5078V61.2578C59.002 62.7766 60.2332 64.0078 61.752 64.0078C63.2707 64.0078 64.502 65.239 64.502 66.7578V70.7578C64.502 72.967 62.7111 74.7578 60.502 74.7578C58.2928 74.7578 56.502 76.5487 56.502 78.7578V83.5078C56.502 85.7169 54.7111 87.5078 52.502 87.5078C50.2928 87.5078 48.502 89.2987 48.502 91.5078V94.0078C48.502 95.1124 47.6065 96.0078 46.502 96.0078C45.3974 96.0078 44.502 95.1124 44.502 94.0078V58.0078C44.502 50.2758 50.77 44.0078 58.502 44.0078Z" fill="#C4C4C4" stroke="black" stroke-width="2"/>
<path d="M31.252 126.258H42.7807C45.1634 126.258 47.5051 126.877 49.5762 128.055L53.9683 130.553C55.5492 131.452 56.5256 133.131 56.5256 134.95V136.533C56.5256 138.452 54.9697 140.008 53.0505 140.008H51.5753C50.4708 140.008 49.5753 140.903 49.5753 142.008V142.008C49.5753 143.112 50.4708 144.008 51.5753 144.008H56.8094C60.3167 144.008 63.1599 146.851 63.1599 150.358V151.714C63.1599 154.162 64.9931 156.223 67.4248 156.508V156.508C69.8566 156.793 71.6898 158.854 71.6898 161.302V162.503C71.6898 165.64 74.0418 168.279 77.1585 168.639L83.4874 169.369C85.2988 169.578 86.5437 171.292 86.1823 173.079V173.079C85.8515 174.716 86.8702 176.322 88.4916 176.72L94.752 178.258" stroke="black" stroke-width="2"/>
<path d="M210.752 153.195H201.27C199.615 153.195 197.983 153.586 196.507 154.336L192.669 156.285C191.493 156.883 190.752 158.09 190.752 159.409V160.163C190.752 161.682 191.983 162.913 193.502 162.913H194.838C195.619 162.913 196.252 163.546 196.252 164.326V164.326C196.252 165.107 195.619 165.74 194.838 165.74H189.964C187.5 165.74 185.502 167.737 185.502 170.202V170.827C185.502 172.756 184.045 174.373 182.127 174.574V174.574C180.209 174.775 178.752 176.392 178.752 178.321V178.811C178.752 181.021 177.081 182.874 174.882 183.1L169.132 183.693C167.866 183.823 166.999 185.031 167.28 186.272V186.272C167.54 187.42 166.816 188.561 165.665 188.813L160.502 189.945" stroke="black" stroke-width="2"/>
<path d="M148.502 59.1328H145.252L146.502 65.0078L141.252 66.2578V64.0078L139.502 65.0078C139.627 67.3411 140.002 72.9078 140.502 76.5078C141.002 80.1078 139.294 84.8411 138.377 86.7578H140.502L144.502 92.0078V84.6328C146.502 84.0911 150.777 82.9078 151.877 82.5078C152.977 82.1078 156.002 79.7578 157.377 78.6328C158.96 75.9661 162.327 69.9328 163.127 67.1328C163.927 64.3328 161.127 61.2161 159.627 60.0078L156.502 58.5078V54.8828L150.502 56.0078L148.502 59.1328Z" fill="#C8C8C8" stroke="black" stroke-width="2"/>
<path d="M156.19 81.306L151.393 79.0426L151.466 75.875L154.722 76.1817L156.19 81.306Z" stroke="black" stroke-width="2"/>
<path d="M162.391 72.4132L157.087 72.3609L155.83 69.4525L158.916 68.3709L162.391 72.4132Z" stroke="black" stroke-width="2"/>
<path d="M114.125 67.0625L111.188 75.6875L111.875 83.5625L111.188 87.9375H107.5L106.375 76.75L109.125 68L104.75 62.75V56.5625L114.125 67.0625Z" fill="#C52828" stroke="black" stroke-width="2"/>
<path d="M105.281 44.5625L105.281 51.5" stroke="black" stroke-width="2"/>
<path d="M108.844 44.5625L108.844 51.5" stroke="black" stroke-width="2"/>
<path d="M112.406 44.5625L112.406 50.1875" stroke="black" stroke-width="2"/>
<path d="M115.969 44.5625L115.969 49.5937" stroke="black" stroke-width="2"/>
<path d="M119.531 44.5625V47.7188" stroke="black" stroke-width="2"/>
<path d="M132.344 44.5625V49.25" stroke="black" stroke-width="2"/>
<path d="M135.812 44.5625V49.25" stroke="black" stroke-width="2"/>
<path d="M139.281 44.5625V50.4375" stroke="black" stroke-width="2"/>
<path d="M142.75 44.5625V51.25" stroke="black" stroke-width="2"/>
<path d="M146.219 47.3125L146.219 51.25" stroke="black" stroke-width="2"/>
<path d="M35.4836 256.182H37.0177C36.9474 254.207 35.1256 252.73 32.5944 252.73C30.0887 252.73 28.1199 254.188 28.1199 256.386C28.1199 258.151 29.3983 259.199 31.4438 259.787L33.0546 260.247C34.4353 260.631 35.6626 261.116 35.6626 262.42C35.6626 263.852 34.2819 264.798 32.4665 264.798C30.9069 264.798 29.5262 264.108 29.3983 262.625H27.762C27.9154 264.773 29.654 266.23 32.4665 266.23C35.4836 266.23 37.1966 264.568 37.1966 262.446C37.1966 259.991 34.8699 259.199 33.5148 258.841L32.1853 258.483C31.2137 258.227 29.654 257.716 29.654 256.31C29.654 255.057 30.8046 254.136 32.5432 254.136C34.1285 254.136 35.3302 254.891 35.4836 256.182ZM41.8229 266H43.3058L45.4536 258.457H45.607L47.7547 266H49.2377L52.2291 256.182H50.6439L48.5218 263.673H48.4195L46.3485 256.182H44.7377L42.6411 263.699H42.5388L40.4166 256.182H38.8314L41.8229 266ZM57.1127 266.23C58.8257 266.23 59.7206 265.31 60.0274 264.67H60.1041V266H61.6127V259.531C61.6127 256.412 59.2348 256.054 57.982 256.054C56.499 256.054 54.8115 256.565 54.0445 258.355L55.4763 258.866C55.8087 258.151 56.5949 257.384 58.0331 257.384C59.4202 257.384 60.1041 258.119 60.1041 259.378V259.429C60.1041 260.158 59.3627 260.094 57.5729 260.324C55.7512 260.56 53.7632 260.963 53.7632 263.213C53.7632 265.131 55.2462 266.23 57.1127 266.23ZM57.3428 264.875C56.1411 264.875 55.2718 264.338 55.2718 263.29C55.2718 262.139 56.32 261.781 57.4962 261.628C58.1354 261.551 59.8485 261.372 60.1041 261.065V262.446C60.1041 263.673 59.1325 264.875 57.3428 264.875ZM64.366 269.682H65.8746V264.491H66.0024C66.3348 265.028 66.974 266.205 68.866 266.205C71.3206 266.205 73.0336 264.236 73.0336 261.116C73.0336 258.023 71.3206 256.054 68.8405 256.054C66.9229 256.054 66.3348 257.23 66.0024 257.741H65.8234V256.182H64.366V269.682ZM65.849 261.091C65.849 258.892 66.8206 257.409 68.6615 257.409C70.5791 257.409 71.5251 259.02 71.5251 261.091C71.5251 263.188 70.5535 264.849 68.6615 264.849C66.8461 264.849 65.849 263.315 65.849 261.091ZM83.2865 266.23C84.9996 266.23 85.8944 265.31 86.2013 264.67H86.278V266H87.7865V259.531C87.7865 256.412 85.4086 256.054 84.1558 256.054C82.6729 256.054 80.9854 256.565 80.2183 258.355L81.6501 258.866C81.9825 258.151 82.7687 257.384 84.2069 257.384C85.594 257.384 86.278 258.119 86.278 259.378V259.429C86.278 260.158 85.5365 260.094 83.7467 260.324C81.925 260.56 79.9371 260.963 79.9371 263.213C79.9371 265.131 81.42 266.23 83.2865 266.23ZM83.5166 264.875C82.3149 264.875 81.4456 264.338 81.4456 263.29C81.4456 262.139 82.4939 261.781 83.67 261.628C84.3092 261.551 86.0223 261.372 86.278 261.065V262.446C86.278 263.673 85.3064 264.875 83.5166 264.875ZM92.0484 260.094C92.0484 258.381 93.1095 257.409 94.5541 257.409C95.9539 257.409 96.8041 258.323 96.8041 259.864V266H98.3126V259.761C98.3126 257.256 96.9767 256.054 94.9887 256.054C93.5058 256.054 92.5853 256.719 92.1251 257.716H91.9972V256.182H90.5399V266H92.0484V260.094ZM101.689 269.682C103.051 269.682 104.009 268.96 104.578 267.432L108.759 256.207L107.11 256.182L104.399 264.006H104.297L101.587 256.182H99.9506L103.581 266.051L103.3 266.818C102.75 268.314 102.073 268.455 100.973 268.173L100.59 269.503C100.743 269.58 101.178 269.682 101.689 269.682ZM122.005 261.986C122.005 263.827 120.598 264.67 119.473 264.67C118.221 264.67 117.326 263.75 117.326 262.318V256.182H115.817V262.42C115.817 264.926 117.147 266.128 118.988 266.128C120.471 266.128 121.442 265.335 121.902 264.338H122.005V266H123.513V256.182H122.005V261.986ZM127.785 260.094C127.785 258.381 128.846 257.409 130.29 257.409C131.69 257.409 132.54 258.323 132.54 259.864V266H134.049V259.761C134.049 257.256 132.713 256.054 130.725 256.054C129.242 256.054 128.322 256.719 127.861 257.716H127.734V256.182H126.276V266H127.785V260.094ZM136.805 266H138.314V256.182H136.805V266ZM137.573 254.545C138.161 254.545 138.646 254.085 138.646 253.523C138.646 252.96 138.161 252.5 137.573 252.5C136.984 252.5 136.499 252.96 136.499 253.523C136.499 254.085 136.984 254.545 137.573 254.545ZM145.347 256.182H143.25V253.83H141.742V256.182H140.259V257.46H141.742V263.597C141.742 265.31 143.122 266.128 144.401 266.128C144.963 266.128 145.321 266.026 145.526 265.949L145.219 264.594C145.091 264.619 144.887 264.67 144.554 264.67C143.889 264.67 143.25 264.466 143.25 263.188V257.46H145.347V256.182ZM152.679 266H154.187V256.182H152.679V266ZM153.446 254.545C154.034 254.545 154.519 254.085 154.519 253.523C154.519 252.96 154.034 252.5 153.446 252.5C152.858 252.5 152.372 252.96 152.372 253.523C152.372 254.085 152.858 254.545 153.446 254.545ZM158.459 260.094C158.459 258.381 159.52 257.409 160.964 257.409C162.364 257.409 163.214 258.323 163.214 259.864V266H164.723V259.761C164.723 257.256 163.387 256.054 161.399 256.054C159.916 256.054 158.995 256.719 158.535 257.716H158.407V256.182H156.95V266H158.459V260.094ZM176.53 266.205C178.704 266.205 180.136 264.875 180.391 263.136H178.883C178.601 264.21 177.707 264.849 176.53 264.849C174.741 264.849 173.59 263.366 173.59 261.091C173.59 258.866 174.766 257.409 176.53 257.409C177.86 257.409 178.653 258.227 178.883 259.122H180.391C180.136 257.281 178.576 256.054 176.505 256.054C173.846 256.054 172.082 258.151 172.082 261.142C172.082 264.082 173.769 266.205 176.53 266.205ZM185.486 266.23C187.199 266.23 188.094 265.31 188.4 264.67H188.477V266H189.986V259.531C189.986 256.412 187.608 256.054 186.355 256.054C184.872 256.054 183.185 256.565 182.418 258.355L183.849 258.866C184.182 258.151 184.968 257.384 186.406 257.384C187.793 257.384 188.477 258.119 188.477 259.378V259.429C188.477 260.158 187.736 260.094 185.946 260.324C184.124 260.56 182.136 260.963 182.136 263.213C182.136 265.131 183.619 266.23 185.486 266.23ZM185.716 264.875C184.514 264.875 183.645 264.338 183.645 263.29C183.645 262.139 184.693 261.781 185.869 261.628C186.508 261.551 188.222 261.372 188.477 261.065V262.446C188.477 263.673 187.506 264.875 185.716 264.875ZM199.694 258.381C199.221 256.987 198.16 256.054 196.216 256.054C194.145 256.054 192.611 257.23 192.611 258.892C192.611 260.247 193.417 261.155 195.219 261.577L196.856 261.96C197.846 262.19 198.313 262.663 198.313 263.341C198.313 264.185 197.418 264.875 196.012 264.875C194.778 264.875 194.005 264.344 193.736 263.29L192.304 263.648C192.656 265.316 194.03 266.205 196.037 266.205C198.319 266.205 199.873 264.958 199.873 263.264C199.873 261.896 199.016 261.033 197.265 260.605L195.807 260.247C194.644 259.96 194.12 259.57 194.12 258.815C194.12 257.972 195.015 257.358 196.216 257.358C197.533 257.358 198.076 258.087 198.339 258.764L199.694 258.381ZM206.413 256.182H204.317V253.83H202.808V256.182H201.325V257.46H202.808V263.597C202.808 265.31 204.189 266.128 205.467 266.128C206.03 266.128 206.388 266.026 206.592 265.949L206.285 264.594C206.158 264.619 205.953 264.67 205.621 264.67C204.956 264.67 204.317 264.466 204.317 263.188V257.46H206.413V256.182ZM210.402 252.909H208.893V266H210.402V252.909ZM217.281 266.205C219.276 266.205 220.733 265.207 221.193 263.724L219.736 263.315C219.352 264.338 218.464 264.849 217.281 264.849C215.511 264.849 214.29 263.705 214.22 261.602H221.347V260.963C221.347 257.307 219.173 256.054 217.128 256.054C214.469 256.054 212.705 258.151 212.705 261.168C212.705 264.185 214.443 266.205 217.281 266.205ZM214.22 260.298C214.322 258.771 215.402 257.409 217.128 257.409C218.764 257.409 219.813 258.636 219.813 260.298H214.22ZM21.1598 288H22.6428L24.7905 280.457H24.9439L27.0916 288H28.5746L31.5661 278.182H29.9808L27.8587 285.673H27.7564L25.6854 278.182H24.0746L21.978 285.699H21.8757L19.7536 278.182H18.1683L21.1598 288ZM33.5604 288H35.0689V278.182H33.5604V288ZM34.3274 276.545C34.9155 276.545 35.4013 276.085 35.4013 275.523C35.4013 274.96 34.9155 274.5 34.3274 274.5C33.7393 274.5 33.2536 274.96 33.2536 275.523C33.2536 276.085 33.7393 276.545 34.3274 276.545ZM42.1017 278.182H40.0051V275.83H38.4966V278.182H37.0137V279.46H38.4966V285.597C38.4966 287.31 39.8773 288.128 41.1557 288.128C41.7182 288.128 42.0762 288.026 42.2807 287.949L41.9739 286.594C41.8461 286.619 41.6415 286.67 41.3091 286.67C40.6444 286.67 40.0051 286.466 40.0051 285.188V279.46H42.1017V278.182ZM46.0904 282.094C46.0904 280.381 47.1834 279.409 48.6728 279.409C50.0918 279.409 50.9483 280.304 50.9483 281.864V288H52.4569V281.761C52.4569 279.237 51.1145 278.054 49.1074 278.054C47.5605 278.054 46.6784 278.7 46.2182 279.716H46.0904V274.909H44.5819V288H46.0904V282.094ZM63.1683 288.23C64.8814 288.23 65.7763 287.31 66.0831 286.67H66.1598V288H67.6683V281.531C67.6683 278.412 65.2905 278.054 64.0376 278.054C62.5547 278.054 60.8672 278.565 60.1001 280.355L61.532 280.866C61.8643 280.151 62.6506 279.384 64.0888 279.384C65.4759 279.384 66.1598 280.119 66.1598 281.378V281.429C66.1598 282.158 65.4183 282.094 63.6286 282.324C61.8068 282.56 59.8189 282.963 59.8189 285.213C59.8189 287.131 61.3018 288.23 63.1683 288.23ZM63.3984 286.875C62.1967 286.875 61.3274 286.338 61.3274 285.29C61.3274 284.139 62.3757 283.781 63.5518 283.628C64.1911 283.551 65.9041 283.372 66.1598 283.065V284.446C66.1598 285.673 65.1882 286.875 63.3984 286.875ZM79.1916 288.205C81.0836 288.205 81.7228 287.028 82.0552 286.491H82.2342V288H83.6916V274.909H82.1831V279.741H82.0552C81.7228 279.23 81.1348 278.054 79.2172 278.054C76.737 278.054 75.024 280.023 75.024 283.116C75.024 286.236 76.737 288.205 79.1916 288.205ZM79.3961 286.849C77.5041 286.849 76.5325 285.188 76.5325 283.091C76.5325 281.02 77.4785 279.409 79.3961 279.409C81.237 279.409 82.2086 280.892 82.2086 283.091C82.2086 285.315 81.2115 286.849 79.3961 286.849ZM86.6639 288H88.1724V278.182H86.6639V288ZM87.4309 276.545C88.019 276.545 88.5048 276.085 88.5048 275.523C88.5048 274.96 88.019 274.5 87.4309 274.5C86.8429 274.5 86.3571 274.96 86.3571 275.523C86.3571 276.085 86.8429 276.545 87.4309 276.545ZM95.3075 278.182H93.1087V277.185C93.1087 276.213 93.5178 275.702 94.5149 275.702C94.9496 275.702 95.2053 275.804 95.3587 275.855L95.7933 274.551C95.5632 274.449 95.103 274.295 94.3615 274.295C92.9553 274.295 91.6001 275.139 91.6001 276.827V278.182H90.0149V279.46H91.6001V288H93.1087V279.46H95.3075V278.182ZM101.794 278.182H99.595V277.185C99.595 276.213 100.004 275.702 101.001 275.702C101.436 275.702 101.692 275.804 101.845 275.855L102.28 274.551C102.05 274.449 101.589 274.295 100.848 274.295C99.4416 274.295 98.0865 275.139 98.0865 276.827V278.182H96.5012V279.46H98.0865V288H99.595V279.46H101.794V278.182ZM107.62 288.205C109.615 288.205 111.072 287.207 111.532 285.724L110.075 285.315C109.691 286.338 108.803 286.849 107.62 286.849C105.85 286.849 104.629 285.705 104.558 283.602H111.686V282.963C111.686 279.307 109.512 278.054 107.467 278.054C104.808 278.054 103.044 280.151 103.044 283.168C103.044 286.185 104.782 288.205 107.62 288.205ZM104.558 282.298C104.661 280.771 105.741 279.409 107.467 279.409C109.103 279.409 110.151 280.636 110.151 282.298H104.558ZM113.98 288H115.489V281.787C115.489 280.457 116.537 279.486 117.969 279.486C118.372 279.486 118.787 279.562 118.889 279.588V278.054C118.717 278.041 118.32 278.028 118.097 278.028C116.921 278.028 115.898 278.693 115.54 279.665H115.438V278.182H113.98V288ZM124.495 288.205C126.49 288.205 127.947 287.207 128.407 285.724L126.95 285.315C126.566 286.338 125.678 286.849 124.495 286.849C122.725 286.849 121.504 285.705 121.433 283.602H128.561V282.963C128.561 279.307 126.387 278.054 124.342 278.054C121.683 278.054 119.919 280.151 119.919 283.168C119.919 286.185 121.657 288.205 124.495 288.205ZM121.433 282.298C121.536 280.771 122.616 279.409 124.342 279.409C125.978 279.409 127.026 280.636 127.026 282.298H121.433ZM132.364 282.094C132.364 280.381 133.425 279.409 134.869 279.409C136.269 279.409 137.119 280.323 137.119 281.864V288H138.628V281.761C138.628 279.256 137.292 278.054 135.304 278.054C133.821 278.054 132.901 278.719 132.441 279.716H132.313V278.182H130.855V288H132.364V282.094ZM145.654 278.182H143.558V275.83H142.049V278.182H140.566V279.46H142.049V285.597C142.049 287.31 143.43 288.128 144.708 288.128C145.271 288.128 145.629 288.026 145.833 287.949L145.527 286.594C145.399 286.619 145.194 286.67 144.862 286.67C144.197 286.67 143.558 286.466 143.558 285.188V279.46H145.654V278.182ZM157.256 278.182H155.159V275.83H153.651V278.182H152.168V279.46H153.651V285.597C153.651 287.31 155.032 288.128 156.31 288.128C156.873 288.128 157.23 288.026 157.435 287.949L157.128 286.594C157 286.619 156.796 286.67 156.463 286.67C155.799 286.67 155.159 286.466 155.159 285.188V279.46H157.256V278.182ZM160.497 291.682C161.858 291.682 162.817 290.96 163.386 289.432L167.566 278.207L165.917 278.182L163.207 286.006H163.105L160.395 278.182H158.758L162.389 288.051L162.108 288.818C161.558 290.314 160.88 290.455 159.781 290.173L159.397 291.503C159.551 291.58 159.985 291.682 160.497 291.682ZM169.562 291.682H171.071V286.491H171.199C171.531 287.028 172.17 288.205 174.062 288.205C176.517 288.205 178.23 286.236 178.23 283.116C178.23 280.023 176.517 278.054 174.037 278.054C172.119 278.054 171.531 279.23 171.199 279.741H171.02V278.182H169.562V291.682ZM171.045 283.091C171.045 280.892 172.017 279.409 173.858 279.409C175.775 279.409 176.721 281.02 176.721 283.091C176.721 285.188 175.75 286.849 173.858 286.849C172.042 286.849 171.045 285.315 171.045 283.091ZM184.648 288.205C186.642 288.205 188.099 287.207 188.559 285.724L187.102 285.315C186.719 286.338 185.83 286.849 184.648 286.849C182.877 286.849 181.656 285.705 181.586 283.602H188.713V282.963C188.713 279.307 186.54 278.054 184.494 278.054C181.835 278.054 180.071 280.151 180.071 283.168C180.071 286.185 181.809 288.205 184.648 288.205ZM181.586 282.298C181.688 280.771 182.768 279.409 184.494 279.409C186.131 279.409 187.179 280.636 187.179 282.298H181.586ZM202.258 283.986C202.258 285.827 200.851 286.67 199.726 286.67C198.474 286.67 197.579 285.75 197.579 284.318V278.182H196.07V284.42C196.07 286.926 197.4 288.128 199.241 288.128C200.724 288.128 201.695 287.335 202.155 286.338H202.258V288H203.766V278.182H202.258V283.986ZM208.038 282.094C208.038 280.381 209.099 279.409 210.543 279.409C211.943 279.409 212.793 280.323 212.793 281.864V288H214.302V281.761C214.302 279.256 212.966 278.054 210.978 278.054C209.495 278.054 208.575 278.719 208.114 279.716H207.987V278.182H206.529V288H208.038V282.094ZM217.058 288H218.567V278.182H217.058V288ZM217.825 276.545C218.414 276.545 218.899 276.085 218.899 275.523C218.899 274.96 218.414 274.5 217.825 274.5C217.237 274.5 216.752 274.96 216.752 275.523C216.752 276.085 217.237 276.545 217.825 276.545ZM225.6 278.182H223.503V275.83H221.995V278.182H220.512V279.46H221.995V285.597C221.995 287.31 223.375 288.128 224.654 288.128C225.216 288.128 225.574 288.026 225.779 287.949L225.472 286.594C225.344 286.619 225.14 286.67 224.807 286.67C224.142 286.67 223.503 286.466 223.503 285.188V279.46H225.6V278.182ZM228.968 288.102C229.601 288.102 230.119 287.585 230.119 286.952C230.119 286.319 229.601 285.801 228.968 285.801C228.336 285.801 227.818 286.319 227.818 286.952C227.818 287.585 228.336 288.102 228.968 288.102Z" fill="black" fill-opacity="0.87"/>
<path d="M216.5 160H236.5V176L228.5 184.5L236.5 192V208H226.5H216.5V160Z" fill="#FF4B3C" stroke="black" stroke-width="2"/>
<path d="M216.5 160H236.5V176L228.5 184.5L236.5 192V208H226.5H216.5V160Z" fill="black" fill-opacity="0.17"/>
<path d="M224.5 168L216.5 160V168H224.5Z" fill="black" fill-opacity="0.38" stroke="black" stroke-width="2" stroke-linejoin="bevel"/>
<path d="M248.5 176L240.5 184L248.5 192V176Z" fill="#D4D4D4"/>
<path d="M32.5 160H12.5V176L20.5 184.5L12.5 192V208H22.5H32.5V160Z" fill="#FF4B3C" stroke="black" stroke-width="2"/>
<path d="M32.5 160H12.5V176L20.5 184.5L12.5 192V208H22.5H32.5V160Z" fill="black" fill-opacity="0.17"/>
<path d="M24.5 168L32.5 160V168H24.5Z" fill="black" fill-opacity="0.38" stroke="black" stroke-width="2" stroke-linejoin="bevel"/>
<path d="M0.5 176L8.5 184L0.5 192V176Z" fill="#D4D4D4"/>
<path d="M224.5 168H24.5V216H224.5V168Z" fill="#FF4B3C" stroke="black" stroke-width="2"/>
<path d="M62.3415 201.452L64.5375 200.696V183.56L62.3415 182.804V181.256H77.2815L76.8135 187.664H74.6535L74.2575 183.236L68.4615 183.74V190.544L73.6455 190.724V192.704L68.4615 192.884V200.444L74.5815 201.02L75.1575 196.448H77.3175L77.4615 203H62.3415V201.452ZM79.5956 203.36C79.4756 203.36 79.3196 203.132 79.1276 202.676C78.9596 202.196 78.8756 201.848 78.8756 201.632L84.0596 194.72L80.4596 189.104L79.1276 188.708V186.98C81.1436 186.692 82.2596 186.548 82.4756 186.548C82.5716 186.548 82.7636 186.692 83.0516 186.98C83.3396 187.244 83.5316 187.46 83.6276 187.628L86.6876 192.56L89.1356 188.816L87.4076 188.636V186.8L92.2316 186.548C92.3516 186.548 92.4956 186.788 92.6636 187.268C92.8556 187.724 92.9516 188.06 92.9516 188.276L88.0556 194.72L91.9076 200.552L93.3836 201.056V202.784C91.5116 203.168 90.4676 203.36 90.2516 203.36C90.1316 203.36 89.9036 203.204 89.5676 202.892C89.2316 202.58 88.9916 202.34 88.8476 202.172L85.4636 196.88L82.7996 200.876L84.5636 201.128V203L79.5956 203.36ZM100.433 203.36C99.4734 203.36 98.5854 203.072 97.7694 202.496C96.9534 201.92 96.2934 201.056 95.7894 199.904C95.2854 198.752 95.0334 197.348 95.0334 195.692C95.0334 194.54 95.1174 193.448 95.2854 192.416C95.4534 191.384 95.6694 190.616 95.9334 190.112C96.1974 189.752 96.7134 189.284 97.4814 188.708C98.2494 188.108 99.0174 187.58 99.7854 187.124C100.577 186.668 101.117 186.44 101.405 186.44C101.981 186.44 102.641 186.512 103.385 186.656C104.153 186.776 104.873 186.944 105.545 187.16L105.437 191.948H103.061L102.521 189.392C102.257 189.248 101.921 189.116 101.513 188.996C101.129 188.876 100.781 188.816 100.469 188.816C100.253 188.816 100.085 188.864 99.9654 188.96C99.6534 189.2 99.4134 189.884 99.2454 191.012C99.0774 192.116 98.9934 193.484 98.9934 195.116C98.9934 196.292 99.1134 197.288 99.3534 198.104C99.6174 198.896 99.9414 199.484 100.325 199.868C100.709 200.252 101.093 200.444 101.477 200.444H105.545V202.1C104.585 202.388 103.577 202.676 102.521 202.964C101.465 203.228 100.769 203.36 100.433 203.36ZM110.065 203.36C109.945 203.36 109.693 203.18 109.309 202.82C108.949 202.46 108.769 202.22 108.769 202.1V182.264L107.473 181.76V180.248C109.753 179.84 111.013 179.636 111.253 179.636C111.373 179.636 111.613 179.816 111.973 180.176C112.333 180.512 112.513 180.752 112.513 180.896L112.333 188.888L112.513 188.924C113.209 188.396 113.941 187.856 114.709 187.304C115.501 186.752 115.945 186.476 116.041 186.476C117.817 186.476 119.137 186.92 120.001 187.808C120.889 188.672 121.333 190.196 121.333 192.38V200.66L122.629 201.2V202.712C120.373 203.144 119.137 203.36 118.921 203.36C118.801 203.36 118.549 203.18 118.165 202.82C117.781 202.46 117.589 202.22 117.589 202.1V192.38C117.589 191.084 117.385 190.256 116.977 189.896C116.593 189.536 116.149 189.356 115.645 189.356C115.549 189.356 114.841 189.632 113.521 190.184C113.353 190.256 113.173 190.34 112.981 190.436C112.813 190.508 112.657 190.568 112.513 190.616V200.66L113.809 201.2V202.712C111.553 203.144 110.305 203.36 110.065 203.36ZM130.782 203.36C129.726 203.36 128.754 203.072 127.866 202.496C127.002 201.896 126.306 201.008 125.778 199.832C125.274 198.656 125.022 197.216 125.022 195.512C125.022 194.384 125.106 193.34 125.274 192.38C125.442 191.396 125.658 190.628 125.922 190.076C126.33 189.524 127.23 188.78 128.622 187.844C130.038 186.908 130.974 186.44 131.43 186.44C131.694 186.44 132.63 186.56 134.238 186.8C135.846 187.016 137.082 187.196 137.946 187.34V200.696L139.206 201.2V202.748C137.022 203.156 135.81 203.36 135.57 203.36C135.474 203.36 135.234 203.18 134.85 202.82C134.49 202.46 134.31 202.22 134.31 202.1V200.804C132.126 202.508 130.95 203.36 130.782 203.36ZM131.178 200.444C131.418 200.444 132.426 200 134.202 199.112V189.428C133.626 189.212 132.894 189.02 132.006 188.852C131.142 188.66 130.566 188.588 130.278 188.636C129.846 188.732 129.522 189.272 129.306 190.256C129.09 191.24 128.982 192.884 128.982 195.188C128.982 196.34 129.102 197.312 129.342 198.104C129.606 198.896 129.906 199.484 130.242 199.868C130.602 200.252 130.914 200.444 131.178 200.444ZM143.923 203.36C143.803 203.36 143.551 203.18 143.167 202.82C142.807 202.46 142.627 202.22 142.627 202.1V189.104L141.295 188.564V187.052C143.551 186.668 144.799 186.476 145.039 186.476C145.159 186.476 145.387 186.656 145.723 187.016C146.059 187.352 146.227 187.58 146.227 187.7V188.96C146.923 188.432 147.679 187.892 148.495 187.34C149.311 186.764 149.767 186.476 149.863 186.476C151.615 186.476 152.935 186.92 153.823 187.808C154.711 188.672 155.155 190.196 155.155 192.38V200.66L156.451 201.2V202.712C154.219 203.144 152.995 203.36 152.779 203.36C152.659 203.36 152.395 203.18 151.987 202.82C151.603 202.46 151.411 202.22 151.411 202.1V192.38C151.411 190.364 150.787 189.356 149.539 189.356C149.419 189.356 149.095 189.464 148.567 189.68C148.063 189.896 147.691 190.052 147.451 190.148C147.211 190.268 146.851 190.424 146.371 190.616V200.66L147.631 201.2V202.712C145.399 203.144 144.163 203.36 143.923 203.36ZM165.79 209.552C164.95 209.552 163.714 209.432 162.082 209.192C160.45 208.976 159.226 208.772 158.41 208.58L158.734 205.844L163.162 201.848C162.466 201.8 161.794 201.488 161.146 200.912C160.498 200.336 159.958 199.52 159.526 198.464C159.118 197.408 158.914 196.184 158.914 194.792C158.914 194 158.986 193.148 159.13 192.236C159.274 191.324 159.466 190.604 159.706 190.076C160.09 189.548 160.978 188.816 162.37 187.88C163.786 186.92 164.71 186.44 165.142 186.44C165.406 186.44 166.306 186.56 167.842 186.8C169.378 187.04 170.554 187.232 171.37 187.376V203.756C171.37 204.5 171.022 205.328 170.326 206.24C169.654 207.152 168.862 207.932 167.95 208.58C167.038 209.228 166.318 209.552 165.79 209.552ZM165.25 199.94C165.466 199.94 166.258 199.46 167.626 198.5V189.428C167.17 189.26 166.594 189.092 165.898 188.924C165.226 188.732 164.722 188.636 164.386 188.636C163.33 188.636 162.802 190.652 162.802 194.684C162.802 195.908 162.934 196.916 163.198 197.708C163.486 198.476 163.822 199.04 164.206 199.4C164.59 199.76 164.938 199.94 165.25 199.94ZM166.87 207.716C167.134 207.716 167.35 207.164 167.518 206.06C167.686 204.956 167.77 203.792 167.77 202.568V200.804L167.59 200.732C166.75 201.5 164.77 203.384 161.65 206.384V206.6C162.01 206.744 162.85 206.96 164.17 207.248C165.514 207.56 166.414 207.716 166.87 207.716ZM180.715 203.36C179.587 203.36 178.543 203.072 177.583 202.496C176.647 201.92 175.891 201.056 175.315 199.904C174.763 198.752 174.487 197.348 174.487 195.692C174.487 194.516 174.571 193.412 174.739 192.38C174.907 191.348 175.123 190.58 175.387 190.076C175.651 189.716 176.179 189.236 176.971 188.636C177.763 188.012 178.555 187.472 179.347 187.016C180.163 186.56 180.727 186.332 181.039 186.332C182.359 186.332 183.439 186.548 184.279 186.98C185.119 187.412 185.767 188.228 186.223 189.428C186.679 190.604 186.907 192.272 186.907 194.432L178.411 195.152C178.411 196.472 178.579 197.528 178.915 198.32C179.275 199.112 179.695 199.676 180.175 200.012C180.655 200.348 181.111 200.516 181.543 200.516L186.367 200.336V201.956C185.527 202.244 184.459 202.556 183.163 202.892C181.867 203.204 181.051 203.36 180.715 203.36ZM183.055 192.884C183.055 190.052 182.311 188.624 180.823 188.6H180.535C180.151 188.6 179.803 188.66 179.491 188.78C179.203 188.876 178.963 189.404 178.771 190.364C178.579 191.3 178.483 192.344 178.483 193.496L183.055 192.884Z" fill="white"/>
</g>
<defs>
<linearGradient id="paint0_linear_82_106" x1="65" y1="41" x2="200" y2="224.008" gradientUnits="userSpaceOnUse">
<stop stop-color="#FFD37C"/>
<stop offset="1" stop-color="#FF0000" stop-opacity="0"/>
</linearGradient>
<clipPath id="clip0_82_106">
<path d="M0.5 6C0.5 2.6863 3.18629 0 6.5 0H242.5C245.814 0 248.5 2.68629 248.5 6V314C248.5 317.314 245.814 320 242.5 320H6.49999C3.18629 320 0.5 317.314 0.5 314V6Z" fill="white"/>
</clipPath>
</defs>
</svg>
