<svg width="249" height="320" viewBox="0 0 249 320" fill="none" xmlns="http://www.w3.org/2000/svg">
<g clip-path="url(#clip0_178_184)">
<path d="M0.5 6C0.5 2.6863 3.18629 0 6.5 0H242.5C245.814 0 248.5 2.68629 248.5 6V314C248.5 317.314 245.814 320 242.5 320H6.49999C3.18629 320 0.5 317.314 0.5 314V6Z" fill="white"/>
<rect x="1" y="0.5" width="247" height="319" rx="5.5" fill="white" stroke="#D4D4D4"/>
<rect opacity="0.3" x="44.5" y="44" width="160" height="180" fill="url(#paint0_linear_178_184)"/>
<path d="M48.5 60.0625L44.5 61.5625V44.0625H204.5V104.062L200.5 102.312C199.75 102.896 197.9 104.062 196.5 104.062C195.1 104.062 197.083 99.7292 198.25 97.5625L190.75 104.062L180.5 106.312L182.25 98.8125C180.75 97.3125 179.1 94.4125 184.5 94.8125C191.25 95.3125 174.25 82.5625 172.5 81.5625C171.1 80.7625 174.583 85.5625 176.5 88.0625C175.667 88.8125 172.1 90.2625 164.5 90.0625C156.9 89.8625 157.833 82.3125 159.25 78.5625L164.5 76.0625C159.583 72.0625 150.7 64.8625 154.5 68.0625C159.25 72.0625 162 74.8125 156.5 76.0625C152.1 77.0625 141.333 73.8125 136.5 72.0625L74 61.5625L72.5 62.3125L70.25 60.0625L66 64.0625L60.5 61.5625L58 60.0625L56.5 61.5625L48.5 60.0625Z" fill="white"/>
<path d="M153.269 112.978C151.092 113.172 150.181 113.312 151.25 113.312C151.782 113.312 152.469 113.192 153.269 112.978Z" fill="white"/>
<path d="M204.5 129.312C199 127.312 189.25 123.013 194.25 121.812C199.25 120.612 201.25 114.146 200.5 113.312C200.5 113.312 200.583 112.979 187 112.062C173.417 111.146 147.05 113.312 151.25 113.312C155.45 113.312 169.25 105.812 172.5 104.062L154.5 102.312C157.75 94.8125 147.25 113.263 143.25 112.062C139.25 110.862 142.417 107.729 144.5 106.312H130M67.25 93.3125C63.9167 92.8958 57.9 91.6625 60.5 90.0625C63.1 88.4625 66.0833 85.3958 67.25 84.0625L63.25 76.0625L67.25 74.3125C64.1667 73.3958 58 71.2125 58 69.8125C58 68.4125 57 65.3958 56.5 64.0625M44.5 61.5625L48.5 60.0625L56.5 61.5625L58 60.0625L60.5 61.5625L66 64.0625L70.25 60.0625L72.5 62.3125L74 61.5625L136.5 72.0625C141.333 73.8125 152.1 77.0625 156.5 76.0625C162 74.8125 159.25 72.0625 154.5 68.0625C150.7 64.8625 159.583 72.0625 164.5 76.0625L159.25 78.5625C157.833 82.3125 156.9 89.8625 164.5 90.0625C172.1 90.2625 175.667 88.8125 176.5 88.0625C174.583 85.5625 171.1 80.7625 172.5 81.5625C174.25 82.5625 191.25 95.3125 184.5 94.8125C179.1 94.4125 180.75 97.3125 182.25 98.8125L180.5 106.312L190.75 104.062L198.25 97.5625C197.083 99.7292 195.1 104.062 196.5 104.062C197.9 104.062 199.75 102.896 200.5 102.312L204.5 104.062V44.0625H44.5V61.5625Z" stroke="black" stroke-width="2"/>
<path d="M114.75 117.562L123 69.8125L121.5 65.9375L123 59.3125V45.5625L113 30.3125L106.5 31.8125L97 43.3125L91.375 54.0625L88.5 64.0625L78 108.062L79.25 116.062L80.5 120.062L108.5 124.062L114.75 117.562Z" fill="url(#paint1_linear_178_184)"/>
<path d="M44.5 88.0625H48.5L56.5 92.0625L54.75 93.5625H52.5L48.5 109.562H44.5L58.5 112.062L56.5 113.312L72.5 118.312L80.5 120.062L105.75 126.812L107.25 124.062H110V120.062L116.5 124.062V126.812L120.5 130.562L130 133.562L138.25 136.062L141.5 134.562H144.5L148.5 124.812L147.875 123.312L148.5 121.688L158.75 124.062V126.188L157.25 126.812L154.75 137.312L147.125 134.562L156.5 138.188L160.5 140.062V142.812H157.25L156.5 150.812L155.25 168.062L148.5 172.062L144.5 173.188L134.375 172.062L135.25 164.062L130 162.688V157.312L76.5 147.062L71.75 144.688L72.5 141.688L66.25 131.312L67.125 140.062H64.5V141.688L66.25 146.062L64.5 145.438L63.625 149.062L61.75 149.938L60.5 146.562V143.062L61.75 141.688V138.812L59.375 130.562L44.5 126.812V122.438L59.375 126.812L44.5 120.812V109.562V88.0625Z" fill="#3C3C3C"/>
<path d="M44.5 224.062V149.938L47 151.188L48.5 153.312L53.125 155.188L56.5 159.062L62.5 160.062L66.25 162.688C72.3333 167.771 85 178.363 87 180.062C89 181.762 94.9167 185.354 97.625 186.938H92.5L83.125 184.062L75.75 181.562V185.938C74.6667 185.396 72.5 184.262 72.5 184.062V186.938L56.5 181.562C58.25 183.188 61.275 186.537 59.375 186.938C57.475 187.338 55.1667 187.854 54.25 188.062L46 186.938V189.688L47.875 192.062C50.1667 191.479 56.7 190.438 64.5 190.938C72.3 191.438 83.75 195.229 88.5 197.062L80.5 200.062C85.7083 204.396 95.125 213.037 91.125 212.938C87.125 212.838 77.9583 214.229 73.875 214.938C75.0833 215.021 79.7 215.262 88.5 215.562C97.3 215.863 124.833 221.354 137.5 224.062H44.5Z" fill="#3C3C3C"/>
<path d="M73.875 137.312L145.75 152.062L75.75 140.062M63.625 128.062L134.375 144.688L135.25 138.188L140.5 138.812L138.25 146.062L143.25 146.562L145.75 140.062H150.5L148.5 147.062H152.5M46 116.062C49.0417 117.979 64.5 123.312 64.5 123.312C64.5 123.312 111 136.062 126.25 136.062M204.5 149.938C199.5 150.979 188.8 153.487 186 155.188C183.2 156.888 184.833 157.312 186 157.312L192.5 155.188L200.5 153.312H202L196.5 157.312H192.5H202H204.5V168.062H200.5L198.75 164.062L192.5 165.312L188.5 164.062L187 168.062L178 172.062L170 176.062L168.5 173.188L164.5 178.562L157.25 180.062H148.5L162.75 184.062L173.75 181.562L175.25 185.938L184.5 188.062H192.5L196.5 185.938L200.5 188.062L204.5 182.812M44.5 88.0625H48.5L56.5 92.0625L54.75 93.5625H52.5L48.5 109.562H44.5L58.5 112.062L56.5 113.312L72.5 118.312L80.5 120.062L105.75 126.812L107.25 124.062H110V120.062L116.5 124.062V126.812L120.5 130.562L130 133.562L138.25 136.062L141.5 134.562H144.5L148.5 124.812L147.875 123.312L148.5 121.688L158.75 124.062V126.188L157.25 126.812L154.75 137.312L147.125 134.562L156.5 138.188L160.5 140.062V142.812H157.25L156.5 150.812L155.25 168.062L148.5 172.062L144.5 173.188L134.375 172.062L135.25 164.062L130 162.688V157.312L76.5 147.062L71.75 144.688L72.5 141.688L66.25 131.312L67.125 140.062H64.5V141.688L66.25 146.062L64.5 145.438L63.625 149.062L61.75 149.938L60.5 146.562V143.062L61.75 141.688V138.812L59.375 130.562L44.5 126.812V122.438L59.375 126.812L44.5 120.812V88.0625ZM44.5 149.938V224.062H137.5C124.833 221.354 97.3 215.863 88.5 215.562C79.7 215.262 75.0833 215.021 73.875 214.938C77.9583 214.229 87.125 212.837 91.125 212.938C95.125 213.038 85.7083 204.396 80.5 200.062L88.5 197.062C83.75 195.229 72.3 191.438 64.5 190.938C56.7 190.438 50.1667 191.479 47.875 192.062L46 189.688V186.938L54.25 188.062C55.1667 187.854 57.475 187.338 59.375 186.938C61.275 186.537 58.25 183.188 56.5 181.562L72.5 186.938C72.5 185.896 72.5 183.862 72.5 184.062C72.5 184.263 74.6667 185.396 75.75 185.938V181.562L83.125 184.062L92.5 186.938H97.625C94.9167 185.354 89 181.763 87 180.062C85 178.362 72.3333 167.771 66.25 162.688L62.5 160.062L56.5 159.062L53.125 155.188L48.5 153.312L47 151.188L44.5 149.938Z" stroke="black" stroke-width="2"/>
<path d="M44.5 83.3125V44.0625H63.75M171.875 44.0625H204.5V103.562M204.5 182.438V224.062H176.5M139.75 224.062H142.5M144.75 224.062H147.5M150 224.062H152.75M155.375 224.062H158.125M160.875 224.062H163.625M166.125 224.062H168.875M171.25 224.062H174" stroke="black" stroke-width="2"/>
<path d="M83.875 100.062H81L82 94.4373L81 93.0623L82.9255 91.498C82.9496 91.4768 82.9747 91.4565 83 91.4375L82.9255 91.498C82.6327 91.7563 82.489 92.1547 83.875 92.0623C85.375 91.9623 88.5 90.2708 89.875 89.4375V91.4375L96.5 86.8125L104.5 81.4373C102.792 82.6874 100.4 84.9625 104.5 84.0625C109.875 77.1875 117.875 70.8125 117.875 70.8125C117.875 70.8125 114.958 77.7708 114.125 78.8125L117.875 77.1875L117.25 78.8125L121.75 76.0625L120.5 85.1875V86.8125L119.25 87.4375V90.1875L118.625 89.4375L115.375 91.4375L114.75 90.1875L117.875 88.8125H115.375L114.125 89.4375L110.625 93.0623L108.5 90.1875V88.0625L109.48 87.2886L107.75 88.0625V90.1875L108.5 91.4375L103.25 93.6875H105.875L100.5 95.4375L96.5 96.0625L92.5 98.9375L94 96.0625L92.5 96.9375L93.25 95.4375L87.875 97.5625H83L82 98.9375L83.875 100.062Z" fill="white"/>
<path d="M86.875 102.687H80.5L79.375 106.437H86L90.75 109.187C89.5417 108.104 89.25 106.437 89.25 106.437C90.625 106.437 94.625 109.187 94.625 109.187L98.75 111.688C98.75 111.688 104.125 113.271 105.875 114.187L101.5 115.437L115.875 124.062L111.5 125.688L123.083 133.896C123.875 133.688 138 136.062 138 136.062C138 136.062 132.375 127.062 128.5 123.187C126.644 121.331 123.25 122.146 120.5 123.187C120.292 122.396 118.625 120.662 118.625 120.062C118.625 119.312 116.5 119.687 114.75 118.062C113.35 116.762 112 116.687 111.5 116.812V115.437H109.875L110.625 114.187L106.5 111.062C104.708 110.104 100.25 108.962 99.25 108.062C98.25 107.162 95.8333 106.979 94 106.437H97.875L104.5 108.062L108.5 109.187C110.125 110.229 113.525 112.387 114.125 112.687C114.875 113.062 120.5 115.312 123.875 118.062C126.575 120.262 134.083 121.979 137.5 122.562L143.625 124.062C142.333 122.896 138.1 119.662 131.5 116.062C129.384 114.908 105.831 105.967 115.375 108.062C115.75 108.271 116.775 108.787 117.875 109.187C118.975 109.587 126.083 110.604 129.5 111.062C128.042 110.437 124.2 108.787 120.5 107.187C116.8 105.587 113.25 103.062 111.5 102.687C110.401 103.786 114.134 107.635 105.875 105.312L107.75 104.062L103.25 103.312L102.375 104.062L98.75 103.312V104.062L97.875 103.312L94.625 102.687L93.25 103.312L89.875 102.687H86.875Z" fill="white"/>
<path d="M86 77.1875L87.875 78.1875L89.25 73.8125L92.5 72.0625L91.5 73.8125L99.25 70.8125L102.375 65.8125L103.25 69.4375L100.5 76.0625L97.875 78.8125L92.5 81.4373V78.8125L89.25 82.4375L83.875 84.0625V85.9373L89.875 85.1875C94.5417 83.3125 104.15 79.0875 105.25 77.1875C106.35 75.2875 104.375 76.3958 103.25 77.1875L107.75 68.0625L109.875 70.8125L118.625 54.5625L119.875 57.5625L122.5 54.5625M81 100.062H83.875L82 98.9375L83 97.5625H87.875L93.25 95.4375L92.5 96.9375L94 96.0625L92.5 98.9375L96.5 96.0625L100.5 95.4375L105.875 93.6875H103.25L108.5 91.4375L107.75 90.1875V88.0625L112.5 85.9373L109.875 86.9764L108.5 88.0625V90.1875L110.625 93.0623L114.125 89.4375L115.375 88.8125H117.875L114.75 90.1875L115.375 91.4375L118.625 89.4375L119.25 90.1875V87.4375L120.5 86.8125V85.1875L121.75 76.0625L117.25 78.8125L117.875 77.1875L114.125 78.8125C114.958 77.7708 117.875 70.8125 117.875 70.8125C117.875 70.8125 109.875 77.1875 104.5 84.0625C100.4 84.9625 102.792 82.6874 104.5 81.4373L96.5 86.8125L89.875 91.4375V89.4375C88.5 90.2708 85.375 91.9623 83.875 92.0623C82.375 92.1623 82.6667 91.6874 83 91.4375L81 93.0623L82 94.4373L81 100.062ZM80.5 102.687H86.875H89.875L93.25 103.312L94.625 102.687L97.875 103.312L98.75 104.062V103.312L102.375 104.062L103.25 103.312L107.75 104.062L105.875 105.312C114.134 107.635 110.401 103.786 111.5 102.687C113.25 103.062 116.8 105.587 120.5 107.187C124.2 108.787 128.042 110.437 129.5 111.062C126.083 110.604 118.975 109.587 117.875 109.187C116.775 108.787 115.75 108.271 115.375 108.062C105.831 105.967 129.384 114.908 131.5 116.062C138.1 119.662 142.333 122.896 143.625 124.062L137.5 122.562C134.083 121.979 126.575 120.262 123.875 118.062C120.5 115.312 114.875 113.062 114.125 112.687C113.525 112.387 110.125 110.229 108.5 109.187L104.5 108.062L97.875 106.437H94C95.8333 106.979 98.25 107.162 99.25 108.062C100.25 108.962 104.708 110.104 106.5 111.062L110.625 114.187L109.875 115.437H111.5V116.812C112 116.687 113.35 116.762 114.75 118.062C116.5 119.687 118.625 119.312 118.625 120.062C118.625 120.662 120.292 122.396 120.5 123.187C123.25 122.146 126.644 121.331 128.5 123.187C132.375 127.062 138 136.062 138 136.062C138 136.062 123.875 133.688 123.083 133.896L111.5 125.688L115.875 124.062L101.5 115.437L105.875 114.187C104.125 113.271 98.75 111.688 98.75 111.688L94.625 109.187C94.625 109.187 90.625 106.437 89.25 106.437C89.25 106.437 89.5417 108.104 90.75 109.187L86 106.437H79.375L80.5 102.687Z" stroke="black" stroke-width="2"/>
<path d="M93.625 110.312V112.688L81.25 108.062H78.375L79.125 110.312L83.875 112.688L78.375 112.062V114.688L92.375 117.754L90.375 120.754C90.375 120.754 81.5407 117.834 79.875 116.938C78.4939 116.194 84.3898 125.571 91.5 124.062L93.625 121.562C97.2124 124.448 99.375 130.062 99.375 130.062L118.5 141.504L105.625 128.062L100.5 123.188L95.625 118.812L104.5 121.562L108.5 127.062L121.125 128.062L111.625 124.062L107.25 118.812L98.25 115.879V112.688L93.625 110.312Z" fill="white" stroke="black" stroke-width="2"/>
<path d="M174.875 156.062L176.5 158.188V159.312L183 157.312H190.125L183 158.688L182.5 160.062L179.125 161.688L176.5 162.438L180.5 164.812C178.083 163.938 172.675 162.363 170.375 163.062M161.25 166.688L165.5 164.812V163.062L167.5 160.062C167.5 159.479 167.7 158.288 168.5 158.188C169.3 158.087 172.167 156.729 173.5 156.062L174.25 154.438L173.5 153.812H174.875L177.25 142.562L179.125 133.438L183 118.562L177.25 117.062L174.25 118.562L173.5 122.062H171.375L161.25 166.688Z" stroke="black" stroke-width="2"/>
<path d="M58.875 111.438L60.5 110.062L66.8846 112.062L68.5 112.569L69.75 107.455L68.5 107.098L64.5 105.955V103.188L67.5 94.1875L68.5 94.4511L67.5 90.9375L76.5 55.4375L75.375 53.4375L77.1702 52.8125L75.375 49.9375L74.75 46.0625H82.125L84.5 48.8125V52.0625L82.125 53.4375L83.25 55.4375L73.75 92.0625L74.375 96L80.5 97.6148L82.125 94.4511V92.0625L90.25 58.1875L91.125 57.5625V55.4375V53.4375L93.75 52.0625L84.5 46.8125L86 39.0625H78.875L91.125 26.6875H98.75L87.3027 39.8474L95.75 44.9375L106 32.0625L113.312 30.375L120.625 28.6875L129.375 44.0625L130.5 59.4375L134.25 61.75L136.125 62.9062L138 64.0625L137 70.6875L136.5 70.3842L134.375 72.0625V74.4375L126.75 122.062L119.125 123.438L118.375 120.062H117.625L114 117.688L116.5 105.562L123 70.3842L121.25 66.0625L126.75 65.3125L130.5 68.0625L128.5 70.3842V72.0625L120.5 118.562L117.625 120.062H118.375L119.125 123.438L126.75 122.062L134.375 74.4375V72.0625L136.5 70.3842L129.375 66.0625L130.5 59.4375H123L122.375 44.9375L113.312 30.375L106 32.0625L95.75 44.9375L87.3027 39.8474L86 39.0625L84.5 46.8125L93.75 52.0625L91.125 53.4375V55.4375V57.5625L90.25 58.1875L82.125 92.0625V94.4511L80.5 97.6148L81.25 97.8125L79.5 105.955L77.1702 109.575L78.875 110.062L79.5 112.062L77.1702 114.59L79.5 115.062L80.5 117.688L79.5 120.062L69.75 117.688L65.5623 116.365L57.875 113.938L58.875 111.438Z" fill="#C4C4C4"/>
<path d="M61.75 110.062L61.125 108.062L63.125 105.562L64.5 105.955M77.1702 114.59L70.875 113.312L68.5 112.569M77.1702 114.59L79.5 115.062L80.5 117.688L79.5 120.062L69.75 117.688L65.5623 116.365M77.1702 114.59L79.5 112.062L78.875 110.062L77.1702 109.575M64.5 105.955V103.188L67.5 94.1875L72.5 95.5057M64.5 105.955L68.5 107.098M77.1702 109.575L79.5 105.955L81.25 97.8125L80.5 97.6148M77.1702 109.575L69.75 107.455M68.5 94.4511L67.5 90.9375L76.5 55.4375L75.375 53.4375L77.1702 52.8125L75.375 49.9375L74.75 46.0625H82.125L84.5 48.8125V52.0625L82.125 53.4375L83.25 55.4375L73.75 92.0625L74.375 96M74.375 96L80.5 97.6148M74.375 96L72.5 95.5057M80.5 97.6148L82.125 94.4511V92.0625L90.25 58.1875L91.125 57.5625V55.4375V53.4375L93.75 52.0625L84.5 46.8125L86 39.0625M86 39.0625H78.875M86 39.0625L87.3027 39.8474M95.75 44.9375L94.25 52.0625M95.75 44.9375L106 32.0625L113.312 30.375M95.75 44.9375L87.3027 39.8474M120.625 28.6875L129.375 44.0625M120.625 28.6875L113.312 30.375M120.625 28.6875L122.375 22.3125M130.5 59.4375L129.375 66.0625L136.5 70.3842M130.5 59.4375L129.375 44.0625M130.5 59.4375H123M130.5 59.4375L134.25 61.75L136.125 62.9062M129.375 44.0625L122.375 44.9375M136.5 70.3842L137 70.6875L138 64.0625L136.125 62.9062M136.5 70.3842L134.375 72.0625V74.4375L126.75 122.062L119.125 123.438L118.375 120.062H117.625M117.625 120.062L120.5 118.562L128.5 72.0625V70.3842L130.5 68.0625L126.75 65.3125L121.25 66.0625L123 70.3842L116.5 105.562L114 117.688L117.625 120.062ZM122.375 65.3125L123 59.4375M123 59.4375L122.375 44.9375M122.375 44.9375L113.312 30.375M76.5 39.0625H78.875M78.875 39.0625L91.125 26.6875H98.75L87.3027 39.8474M136.125 62.9062L135.125 48.0625M72.5 95.5057L68.5 107.098M68.5 107.098L69.75 107.455M69.75 107.455L68.5 112.569M68.5 112.569L66.8846 112.062M66.8846 112.062L60.5 110.062L58.875 111.438L57.875 113.938L65.5623 116.365M66.8846 112.062L65.5623 116.365" stroke="black" stroke-width="2"/>
<path d="M172.5 121.562L182 124.062L181.25 126.062L194 128.062L188.5 130.312H194L190.648 130.93L208.5 136.062L219 138.062L213.5 140.062L204.5 138.062L184.5 132.062L190.648 130.93L188.5 130.312H180.5L181.25 126.062L180.5 128.062L170.75 125.562L172.5 121.562Z" fill="#E02323"/>
<path d="M148.5 126.062L156.5 128.062V130.062L164.5 132.062L163.25 136.062H167.25L166.25 140.062H160.5L162 133.812H154.75L155.713 131.748L146.5 128.062L148.5 126.062Z" fill="#E02323"/>
<path d="M188.5 140.062H177.75L179 136.062H191.25L188.5 140.062Z" fill="#E02323"/>
<path d="M44.5 92.0625L52.5 94.8125L51.875 96.3125L60.5 100.062L58.25 101.812L64.5 104.062L62.5 105.812L54.5 101.812L56.5 100.062H51.25L51.875 96.3125L51.25 97.8125L44.5 96.0625V92.0625Z" fill="#E02323"/>
<path d="M181.25 126.062L182 124.062L172.5 121.562L170.75 125.562L180.5 128.062L181.25 126.062ZM181.25 126.062L194 128.062L188.5 130.312L208.5 136.062L219 138.062L213.5 140.062L204.5 138.062L184.5 132.062L194 130.312H180.5L181.25 126.062ZM156.5 130.062V128.062L148.5 126.062L146.5 128.062L156.5 132.062V130.062ZM156.5 130.062L164.5 132.062L163.25 136.062H167.25L166.25 140.062H160.5L162 133.812H154.75L156.5 130.062ZM51.875 96.3125L52.5 94.8125L44.5 92.0625V96.0625L51.25 97.8125L51.875 96.3125ZM51.875 96.3125L60.5 100.062L58.25 101.812L64.5 104.062L62.5 105.812L54.5 101.812L56.5 100.062H51.25L51.875 96.3125ZM177.75 140.062H188.5L191.25 136.062H179L177.75 140.062Z" stroke="black" stroke-width="2"/>
<circle cx="168.375" cy="124.188" r="3.125" stroke="black" stroke-width="2"/>
<rect x="115" y="41.9375" width="1" height="1" fill="white"/>
<rect x="106" y="47.0625" width="1" height="1" fill="white"/>
<rect x="116" y="65.9375" width="1" height="1" fill="white"/>
<rect x="95.4961" y="55.0625" width="1" height="1" fill="white"/>
<path d="M67.4885 252.909V266H68.9715V256.054H69.0993L73.1903 266H74.6221L78.713 256.054H78.8408V266H80.3238V252.909H78.4317L73.9829 263.776H73.8295L69.3806 252.909H67.4885ZM87.2863 266.205C89.9454 266.205 91.7352 264.185 91.7352 261.142C91.7352 258.074 89.9454 256.054 87.2863 256.054C84.6272 256.054 82.8374 258.074 82.8374 261.142C82.8374 264.185 84.6272 266.205 87.2863 266.205ZM87.2863 264.849C85.2664 264.849 84.346 263.111 84.346 261.142C84.346 259.173 85.2664 257.409 87.2863 257.409C89.3062 257.409 90.2267 259.173 90.2267 261.142C90.2267 263.111 89.3062 264.849 87.2863 264.849ZM101.715 256.182H100.078L97.3682 264.006H97.2659L94.5557 256.182H92.9193L96.55 266H98.0841L101.715 256.182ZM107.471 266.205C109.465 266.205 110.922 265.207 111.383 263.724L109.925 263.315C109.542 264.338 108.653 264.849 107.471 264.849C105.7 264.849 104.479 263.705 104.409 261.602H111.536V260.963C111.536 257.307 109.363 256.054 107.317 256.054C104.658 256.054 102.894 258.151 102.894 261.168C102.894 264.185 104.633 266.205 107.471 266.205ZM104.409 260.298C104.511 258.771 105.592 257.409 107.317 257.409C108.954 257.409 110.002 258.636 110.002 260.298H104.409ZM121.783 266.23C123.496 266.23 124.391 265.31 124.697 264.67H124.774V266H126.283V259.531C126.283 256.412 123.905 256.054 122.652 256.054C121.169 256.054 119.481 256.565 118.714 258.355L120.146 258.866C120.479 258.151 121.265 257.384 122.703 257.384C124.09 257.384 124.774 258.119 124.774 259.378V259.429C124.774 260.158 124.033 260.094 122.243 260.324C120.421 260.56 118.433 260.963 118.433 263.213C118.433 265.131 119.916 266.23 121.783 266.23ZM122.013 264.875C120.811 264.875 119.942 264.338 119.942 263.29C119.942 262.139 120.99 261.781 122.166 261.628C122.805 261.551 124.518 261.372 124.774 261.065V262.446C124.774 263.673 123.802 264.875 122.013 264.875ZM130.544 252.909H129.036V266H130.544V252.909ZM134.816 252.909H133.307V266H134.816V252.909ZM138.551 269.682C139.912 269.682 140.871 268.96 141.44 267.432L145.62 256.207L143.971 256.182L141.261 264.006H141.158L138.448 256.182H136.812L140.443 266.051L140.161 266.818C139.612 268.314 138.934 268.455 137.835 268.173L137.451 269.503C137.604 269.58 138.039 269.682 138.551 269.682ZM158.866 261.986C158.866 263.827 157.46 264.67 156.335 264.67C155.082 264.67 154.187 263.75 154.187 262.318V256.182H152.679V262.42C152.679 264.926 154.008 266.128 155.849 266.128C157.332 266.128 158.304 265.335 158.764 264.338H158.866V266H160.375V256.182H158.866V261.986ZM164.646 260.094C164.646 258.381 165.707 257.409 167.152 257.409C168.552 257.409 169.402 258.323 169.402 259.864V266H170.91V259.761C170.91 257.256 169.574 256.054 167.586 256.054C166.103 256.054 165.183 256.719 164.723 257.716H164.595V256.182H163.138V266H164.646V260.094ZM173.667 266H175.175V256.182H173.667V266ZM174.434 254.545C175.022 254.545 175.508 254.085 175.508 253.523C175.508 252.96 175.022 252.5 174.434 252.5C173.846 252.5 173.36 252.96 173.36 253.523C173.36 254.085 173.846 254.545 174.434 254.545ZM182.208 256.182H180.112V253.83H178.603V256.182H177.12V257.46H178.603V263.597C178.603 265.31 179.984 266.128 181.262 266.128C181.825 266.128 182.183 266.026 182.387 265.949L182.08 264.594C181.953 264.619 181.748 264.67 181.416 264.67C180.751 264.67 180.112 264.466 180.112 263.188V257.46H182.208V256.182ZM51.9367 278.182H49.8401V275.83H48.3316V278.182H46.8486V279.46H48.3316V285.597C48.3316 287.31 49.7123 288.128 50.9907 288.128C51.5532 288.128 51.9111 288.026 52.1157 287.949L51.8089 286.594C51.681 286.619 51.4765 286.67 51.1441 286.67C50.4793 286.67 49.8401 286.466 49.8401 285.188V279.46H51.9367V278.182ZM58.089 288.205C60.7481 288.205 62.5379 286.185 62.5379 283.142C62.5379 280.074 60.7481 278.054 58.089 278.054C55.43 278.054 53.6402 280.074 53.6402 283.142C53.6402 286.185 55.43 288.205 58.089 288.205ZM58.089 286.849C56.0692 286.849 55.1487 285.111 55.1487 283.142C55.1487 281.173 56.0692 279.409 58.089 279.409C60.1089 279.409 61.0294 281.173 61.0294 283.142C61.0294 285.111 60.1089 286.849 58.089 286.849ZM72.7923 288.23C74.5054 288.23 75.4003 287.31 75.7071 286.67H75.7838V288H77.2923V281.531C77.2923 278.412 74.9145 278.054 73.6617 278.054C72.1787 278.054 70.4912 278.565 69.7242 280.355L71.156 280.866C71.4884 280.151 72.2746 279.384 73.7128 279.384C75.0999 279.384 75.7838 280.119 75.7838 281.378V281.429C75.7838 282.158 75.0423 282.094 73.2526 282.324C71.4308 282.56 69.4429 282.963 69.4429 285.213C69.4429 287.131 70.9259 288.23 72.7923 288.23ZM73.0225 286.875C71.8208 286.875 70.9514 286.338 70.9514 285.29C70.9514 284.139 71.9997 283.781 73.1759 283.628C73.8151 283.551 75.5281 283.372 75.7838 283.065V284.446C75.7838 285.673 74.8122 286.875 73.0225 286.875ZM81.5542 282.094C81.5542 280.381 82.6153 279.409 84.0599 279.409C85.4598 279.409 86.3099 280.323 86.3099 281.864V288H87.8184V281.761C87.8184 279.256 86.4825 278.054 84.4946 278.054C83.0116 278.054 82.0912 278.719 81.6309 279.716H81.5031V278.182H80.0457V288H81.5542V282.094ZM91.195 291.682C92.5566 291.682 93.5154 290.96 94.0843 289.432L98.2646 278.207L96.6155 278.182L93.9053 286.006H93.803L91.0928 278.182H89.4564L93.0871 288.051L92.8058 288.818C92.2561 290.314 91.5786 290.455 90.4791 290.173L90.0956 291.503C90.249 291.58 90.6837 291.682 91.195 291.682ZM109.312 288.205C111.485 288.205 112.917 286.875 113.172 285.136H111.664C111.383 286.21 110.488 286.849 109.312 286.849C107.522 286.849 106.371 285.366 106.371 283.091C106.371 280.866 107.547 279.409 109.312 279.409C110.641 279.409 111.434 280.227 111.664 281.122H113.172C112.917 279.281 111.357 278.054 109.286 278.054C106.627 278.054 104.863 280.151 104.863 283.142C104.863 286.082 106.55 288.205 109.312 288.205ZM118.267 288.23C119.98 288.23 120.875 287.31 121.182 286.67H121.258V288H122.767V281.531C122.767 278.412 120.389 278.054 119.136 278.054C117.653 278.054 115.966 278.565 115.199 280.355L116.631 280.866C116.963 280.151 117.749 279.384 119.187 279.384C120.574 279.384 121.258 280.119 121.258 281.378V281.429C121.258 282.158 120.517 282.094 118.727 282.324C116.905 282.56 114.918 282.963 114.918 285.213C114.918 287.131 116.4 288.23 118.267 288.23ZM118.497 286.875C117.295 286.875 116.426 286.338 116.426 285.29C116.426 284.139 117.474 283.781 118.65 283.628C119.29 283.551 121.003 283.372 121.258 283.065V284.446C121.258 285.673 120.287 286.875 118.497 286.875ZM132.475 280.381C132.002 278.987 130.941 278.054 128.998 278.054C126.927 278.054 125.392 279.23 125.392 280.892C125.392 282.247 126.198 283.155 128 283.577L129.637 283.96C130.628 284.19 131.094 284.663 131.094 285.341C131.094 286.185 130.199 286.875 128.793 286.875C127.559 286.875 126.786 286.344 126.517 285.29L125.086 285.648C125.437 287.316 126.812 288.205 128.819 288.205C131.101 288.205 132.654 286.958 132.654 285.264C132.654 283.896 131.797 283.033 130.046 282.605L128.589 282.247C127.425 281.96 126.901 281.57 126.901 280.815C126.901 279.972 127.796 279.358 128.998 279.358C130.314 279.358 130.858 280.087 131.12 280.764L132.475 280.381ZM139.195 278.182H137.098V275.83H135.589V278.182H134.106V279.46H135.589V285.597C135.589 287.31 136.97 288.128 138.248 288.128C138.811 288.128 139.169 288.026 139.373 287.949L139.067 286.594C138.939 286.619 138.734 286.67 138.402 286.67C137.737 286.67 137.098 286.466 137.098 285.188V279.46H139.195V278.182ZM143.183 274.909H141.675V288H143.183V274.909ZM150.063 288.205C152.057 288.205 153.514 287.207 153.975 285.724L152.517 285.315C152.134 286.338 151.245 286.849 150.063 286.849C148.292 286.849 147.071 285.705 147.001 283.602H154.128V282.963C154.128 279.307 151.955 278.054 149.909 278.054C147.25 278.054 145.486 280.151 145.486 283.168C145.486 286.185 147.225 288.205 150.063 288.205ZM147.001 282.298C147.103 280.771 148.183 279.409 149.909 279.409C151.546 279.409 152.594 280.636 152.594 282.298H147.001ZM168.44 280.381C167.967 278.987 166.906 278.054 164.962 278.054C162.891 278.054 161.357 279.23 161.357 280.892C161.357 282.247 162.163 283.155 163.965 283.577L165.602 283.96C166.592 284.19 167.059 284.663 167.059 285.341C167.059 286.185 166.164 286.875 164.758 286.875C163.524 286.875 162.751 286.344 162.482 285.29L161.051 285.648C161.402 287.316 162.776 288.205 164.783 288.205C167.065 288.205 168.619 286.958 168.619 285.264C168.619 283.896 167.762 283.033 166.011 282.605L164.553 282.247C163.39 281.96 162.866 281.57 162.866 280.815C162.866 279.972 163.761 279.358 164.962 279.358C166.279 279.358 166.823 280.087 167.085 280.764L168.44 280.381ZM170.889 291.682H172.398V286.491H172.526C172.858 287.028 173.497 288.205 175.389 288.205C177.844 288.205 179.557 286.236 179.557 283.116C179.557 280.023 177.844 278.054 175.364 278.054C173.446 278.054 172.858 279.23 172.526 279.741H172.347V278.182H170.889V291.682ZM172.372 283.091C172.372 280.892 173.344 279.409 175.185 279.409C177.103 279.409 178.049 281.02 178.049 283.091C178.049 285.188 177.077 286.849 175.185 286.849C173.37 286.849 172.372 285.315 172.372 283.091ZM185.847 288.205C188.506 288.205 190.296 286.185 190.296 283.142C190.296 280.074 188.506 278.054 185.847 278.054C183.188 278.054 181.398 280.074 181.398 283.142C181.398 286.185 183.188 288.205 185.847 288.205ZM185.847 286.849C183.827 286.849 182.907 285.111 182.907 283.142C182.907 281.173 183.827 279.409 185.847 279.409C187.867 279.409 188.787 281.173 188.787 283.142C188.787 285.111 187.867 286.849 185.847 286.849ZM196.868 278.182H194.772V275.83H193.263V278.182H191.78V279.46H193.263V285.597C193.263 287.31 194.644 288.128 195.922 288.128C196.485 288.128 196.843 288.026 197.047 287.949L196.741 286.594C196.613 286.619 196.408 286.67 196.076 286.67C195.411 286.67 194.772 286.466 194.772 285.188V279.46H196.868V278.182ZM200.237 288.102C200.87 288.102 201.388 287.585 201.388 286.952C201.388 286.319 200.87 285.801 200.237 285.801C199.604 285.801 199.086 286.319 199.086 286.952C199.086 287.585 199.604 288.102 200.237 288.102Z" fill="black" fill-opacity="0.87"/>
<path d="M216.5 160H236.5V176L228.5 184.5L236.5 192V208H226.5H216.5V160Z" fill="#FF4B3C" stroke="black" stroke-width="2"/>
<path d="M216.5 160H236.5V176L228.5 184.5L236.5 192V208H226.5H216.5V160Z" fill="black" fill-opacity="0.17"/>
<path d="M224.5 168L216.5 160V168H224.5Z" fill="black" fill-opacity="0.38" stroke="black" stroke-width="2" stroke-linejoin="bevel"/>
<path d="M248.5 176L240.5 184L248.5 192V176Z" fill="#D4D4D4"/>
<path d="M32.5 160H12.5V176L20.5 184.5L12.5 192V208H22.5H32.5V160Z" fill="#FF4B3C" stroke="black" stroke-width="2"/>
<path d="M32.5 160H12.5V176L20.5 184.5L12.5 192V208H22.5H32.5V160Z" fill="black" fill-opacity="0.17"/>
<path d="M24.5 168L32.5 160V168H24.5Z" fill="black" fill-opacity="0.38" stroke="black" stroke-width="2" stroke-linejoin="bevel"/>
<path d="M0.5 176L8.5 184L0.5 192V176Z" fill="#D4D4D4"/>
<path d="M224.5 168H24.5V216H224.5V168Z" fill="#FF4B3C" stroke="black" stroke-width="2"/>
<path d="M73.4732 201.452L75.8492 200.696V183.524L72.1412 183.776L71.7452 188.168H69.6212L69.1532 181.256H86.4332L85.9652 188.168H83.8412L83.4452 183.776L79.7372 183.524V200.552L82.2572 201.272V203H73.4732V201.452ZM93.1931 203.36C92.0651 203.36 91.0211 203.072 90.0611 202.496C89.1251 201.92 88.3691 201.056 87.7931 199.904C87.2411 198.752 86.9651 197.348 86.9651 195.692C86.9651 194.516 87.0491 193.412 87.2171 192.38C87.3851 191.348 87.6011 190.58 87.8651 190.076C88.1291 189.716 88.6571 189.236 89.4491 188.636C90.2411 188.012 91.0331 187.472 91.8251 187.016C92.6411 186.56 93.2051 186.332 93.5171 186.332C94.8371 186.332 95.9171 186.548 96.7571 186.98C97.5971 187.412 98.2451 188.228 98.7011 189.428C99.1571 190.604 99.3851 192.272 99.3851 194.432L90.8891 195.152C90.8891 196.472 91.0571 197.528 91.3931 198.32C91.7531 199.112 92.1731 199.676 92.6531 200.012C93.1331 200.348 93.5891 200.516 94.0211 200.516L98.8451 200.336V201.956C98.0051 202.244 96.9371 202.556 95.6411 202.892C94.3451 203.204 93.5291 203.36 93.1931 203.36ZM95.5331 192.884C95.5331 190.052 94.7891 188.624 93.3011 188.6H93.0131C92.6291 188.6 92.2811 188.66 91.9691 188.78C91.6811 188.876 91.4411 189.404 91.2491 190.364C91.0571 191.3 90.9611 192.344 90.9611 193.496L95.5331 192.884ZM104.177 203.36C104.057 203.36 103.805 203.18 103.421 202.82C103.061 202.46 102.881 202.22 102.881 202.1V182.264L101.549 181.76V180.248C103.877 179.84 105.149 179.636 105.365 179.636C105.485 179.636 105.713 179.816 106.049 180.176C106.409 180.512 106.589 180.752 106.589 180.896V200.66L107.885 201.2V202.712C105.653 203.144 104.417 203.36 104.177 203.36ZM116.502 203.36C115.374 203.36 114.33 203.072 113.37 202.496C112.434 201.92 111.678 201.056 111.102 199.904C110.55 198.752 110.274 197.348 110.274 195.692C110.274 194.516 110.358 193.412 110.526 192.38C110.694 191.348 110.91 190.58 111.174 190.076C111.438 189.716 111.966 189.236 112.758 188.636C113.55 188.012 114.342 187.472 115.134 187.016C115.95 186.56 116.514 186.332 116.826 186.332C118.146 186.332 119.226 186.548 120.066 186.98C120.906 187.412 121.554 188.228 122.01 189.428C122.466 190.604 122.694 192.272 122.694 194.432L114.198 195.152C114.198 196.472 114.366 197.528 114.702 198.32C115.062 199.112 115.482 199.676 115.962 200.012C116.442 200.348 116.898 200.516 117.33 200.516L122.154 200.336V201.956C121.314 202.244 120.246 202.556 118.95 202.892C117.654 203.204 116.838 203.36 116.502 203.36ZM118.842 192.884C118.842 190.052 118.098 188.624 116.61 188.6H116.322C115.938 188.6 115.59 188.66 115.278 188.78C114.99 188.876 114.75 189.404 114.558 190.364C114.366 191.3 114.27 192.344 114.27 193.496L118.842 192.884ZM127.306 209.552C127.186 209.552 126.934 209.372 126.55 209.012C126.19 208.652 126.01 208.412 126.01 208.292L126.226 202.388V189.068L124.93 188.564V187.052C125.53 186.932 126.25 186.8 127.09 186.656C127.93 186.512 128.422 186.44 128.566 186.44C128.686 186.44 128.926 186.62 129.286 186.98C129.646 187.316 129.826 187.556 129.826 187.7V188.996L130.51 188.492C130.702 188.348 131.194 187.976 131.986 187.376C132.802 186.752 133.258 186.44 133.354 186.44C134.386 186.44 135.334 186.728 136.198 187.304C137.086 187.88 137.794 188.756 138.322 189.932C138.85 191.084 139.114 192.488 139.114 194.144C139.114 195.344 139.03 196.448 138.862 197.456C138.718 198.44 138.514 199.196 138.25 199.724C137.842 200.276 136.93 201.02 135.514 201.956C134.122 202.892 133.198 203.36 132.742 203.36C132.622 203.36 131.962 203.288 130.762 203.144C130.57 203.096 130.258 203.048 129.826 203V206.744L131.266 207.32V208.94C130.642 209.06 129.934 209.18 129.142 209.3C128.35 209.42 127.738 209.504 127.306 209.552ZM133.894 201.128C134.302 201.032 134.614 200.504 134.83 199.544C135.046 198.56 135.154 196.928 135.154 194.648C135.154 193.496 135.034 192.524 134.794 191.732C134.554 190.916 134.254 190.316 133.894 189.932C133.558 189.548 133.246 189.356 132.958 189.356C132.862 189.356 132.478 189.512 131.806 189.824C131.134 190.136 130.522 190.424 129.97 190.688V200.372C130.57 200.588 131.302 200.792 132.166 200.984C133.03 201.152 133.606 201.2 133.894 201.128ZM149.373 203.36C146.805 203.36 144.873 202.724 143.577 201.452C142.281 200.156 141.633 198.164 141.633 195.476C141.633 194.396 141.717 193.352 141.885 192.344C142.053 191.336 142.269 190.592 142.533 190.112C142.797 189.752 143.325 189.272 144.117 188.672C144.909 188.048 145.713 187.508 146.529 187.052C147.345 186.572 147.897 186.332 148.185 186.332C150.681 186.332 152.565 186.992 153.837 188.312C155.109 189.608 155.745 191.504 155.745 194C155.745 195.152 155.661 196.244 155.493 197.276C155.349 198.284 155.157 199.1 154.917 199.724C154.509 200.252 153.585 200.996 152.145 201.956C150.729 202.892 149.805 203.36 149.373 203.36ZM149.517 201.164C149.661 201.116 150.225 200.84 151.209 200.336C151.593 198.632 151.785 196.676 151.785 194.468C151.785 192.668 151.461 191.24 150.813 190.184C150.189 189.104 149.253 188.564 148.005 188.564C147.477 188.564 147.045 188.648 146.709 188.816C146.373 188.984 146.097 189.608 145.881 190.688C145.689 191.768 145.593 193.196 145.593 194.972C145.593 197.276 145.965 198.884 146.709 199.796C147.477 200.708 148.413 201.164 149.517 201.164ZM160.71 203.36C160.59 203.36 160.338 203.18 159.954 202.82C159.594 202.46 159.414 202.22 159.414 202.1V189.032L158.082 188.564V187.052C160.218 186.668 161.406 186.476 161.646 186.476C161.766 186.476 162.03 186.68 162.438 187.088C162.87 187.472 163.086 187.712 163.086 187.808L163.014 189.14C164.766 187.244 165.714 186.296 165.858 186.296C166.29 186.296 167.118 186.488 168.342 186.872C168.414 187.04 168.474 187.244 168.522 187.484C168.57 187.7 168.594 187.904 168.594 188.096C168.594 188.288 168.426 188.708 168.09 189.356C167.778 189.98 167.574 190.316 167.478 190.364C166.542 190.004 165.882 189.824 165.498 189.824C165.33 189.824 165.018 189.932 164.562 190.148C164.106 190.34 163.638 190.58 163.158 190.868V200.48L165.102 201.056V202.712C162.414 203.144 160.95 203.36 160.71 203.36ZM174.808 203.36C174.52 203.36 174.16 203.18 173.728 202.82C173.296 202.46 172.912 202.04 172.576 201.56C172.24 201.08 172.072 200.696 172.072 200.408V188.888H169.732V187.592L172.072 186.476L174.412 183.704C174.628 183.68 175.096 183.848 175.816 184.208V186.8H179.344V189.032H175.816V198.824C175.816 199.52 175.876 200 175.996 200.264C176.116 200.504 176.344 200.624 176.68 200.624L179.704 200.732V202.64C178.96 202.808 178.024 202.964 176.896 203.108C175.792 203.276 175.096 203.36 174.808 203.36Z" fill="white"/>
</g>
<defs>
<linearGradient id="paint0_linear_178_184" x1="124.5" y1="44" x2="124.5" y2="224" gradientUnits="userSpaceOnUse">
<stop stop-color="#FF0099"/>
<stop offset="1" stop-color="#0047FF" stop-opacity="0"/>
</linearGradient>
<linearGradient id="paint1_linear_178_184" x1="114.75" y1="73.0625" x2="85.25" y2="101.563" gradientUnits="userSpaceOnUse">
<stop stop-color="#0038FF"/>
<stop offset="1"/>
</linearGradient>
<clipPath id="clip0_178_184">
<path d="M0.5 6C0.5 2.6863 3.18629 0 6.5 0H242.5C245.814 0 248.5 2.68629 248.5 6V314C248.5 317.314 245.814 320 242.5 320H6.49999C3.18629 320 0.5 317.314 0.5 314V6Z" fill="white"/>
</clipPath>
</defs>
</svg>
