<svg width="248" height="320" viewBox="0 0 248 320" fill="none" xmlns="http://www.w3.org/2000/svg">
<path d="M0 6C0 2.6863 2.68629 0 6 0H242C245.314 0 248 2.68629 248 6V314C248 317.314 245.314 320 242 320H5.99999C2.68629 320 0 317.314 0 314V6Z" fill="white"/>
<rect x="0.5" y="0.5" width="247" height="319" rx="5.5" fill="white" stroke="#D4D4D4"/>
<rect x="44" y="44" width="160" height="180" fill="black" fill-opacity="0.1"/>
<path d="M44 64H55.5L61.5 79.5L66.5 70L76 74L82 86.5L63 101.5V106.5L48 107.5H44V64Z" fill="url(#paint0_linear_1053_20212)"/>
<path d="M44 112V224H204V162C189.502 162 164.119 164.5 170.5 149.5C142.531 232.443 48 202.5 48 112H44Z" fill="url(#paint1_linear_1053_20212)"/>
<path d="M60.5 44H83.5C86.5 47.4167 94.8 54.375 104 54.875C113.2 55.375 120.833 54.5 123.5 54L134.5 51.5L137 54C118.248 61.8133 101.13 69.1401 86.5 83L80.5 68.5L76 65L74 54H61.5L60.5 44Z" fill="url(#paint2_linear_1053_20212)"/>
<path d="M178 55.5L188 57.5L186 47L182.5 31L184 30L190.5 45L192.5 47L196 42L200.5 44V49.5L206 58.5L210 71.5L207.5 72L201.25 60L200.5 71.5L189.5 66H192L178 55.5Z" fill="url(#paint3_linear_1053_20212)"/>
<path d="M61.5 79.5L66.5 70L76 74L82 86.5L63 101.5V106.5C63 106.5 55 107.5 49 106.5C49 97 61.5 79.5 61.5 79.5Z" fill="url(#paint4_linear_1053_20212)"/>
<path d="M60.5 44H83.5C86.5 47.4167 94.8 54.375 104 54.875C113.2 55.375 120.833 54.5 123.5 54L134.5 51.5L137 54C118.248 61.8133 101.13 69.1401 86.5 83L80.5 68.5L76 65L74 54H61.5L60.5 44Z" fill="url(#paint5_linear_1053_20212)"/>
<path d="M212.156 51.2976L201 35.7476L205.538 36.5598L209.992 35.3737L219.317 42.9929L214.176 39.7036L210.325 43.3668L212.156 51.2976Z" fill="#4D6AB5" stroke="black" stroke-width="2"/>
<path d="M188.5 53.5L186 47L183.29 36.5M184 56.5L176.5 55.5L193 65.5H188.5L200.5 71.5V58.5L207.5 72.5L210 71.5L206 58.5L200.5 50V43.5L196.5 42L193 47L190.5 45L184 30L182 31.5L183.29 36.5M198 11.5L196.5 14L193 20L191 21.5M186 31.5L191.625 22L191 21.5M183.29 36.5L172 56.5M191 21.5L196 24.5V22L199.5 16.5L202 16M191 21.5L187.5 19.5L190 18.5L193.5 13L193 10" stroke="black" stroke-width="2"/>
<path d="M59.5 36.5002V24.0002L62.5 28.5002V39.5002L59.5 45.5002L61 50.0002L55 54.5002L49.5 54.0002L48.5 49.0844L52.5 43.0844L54.1211 42.9266L59.5 36.5002Z" fill="#D8AE70"/>
<path d="M91.5 88.5002H83.5L78.5 78.5002L82.6667 74.5002L80.5 68.0002L76.5 66.0002L70 62.7502L68.5 62.0002L61 54.5002L74.5 53.5002L76.5 66.0002L80.5 68.0002L82.6667 74.5002L86 84.5002L91.5 88.5002Z" fill="#D8AE70"/>
<path d="M52.5 30.5002L55 33.5002V29.5002L52.5 26.5002L50 28.5002C46.1667 27.5002 48.9286 30.5002 41 28.5002C44.5 38.0002 50.3333 32.8335 52.5 30.5002Z" fill="#D8AE70"/>
<path d="M52.5 43.0844L53.5 43.6687L59.5 36.5002V24.0002L62.5 28.5002V39.5002L58.5 47.5002L61 50.0002M52.5 43.0844L48.5 49.0844L49.5 54.0002L55 54.5002L61 50.0002M52.5 43.0844L58.5 42.5002L61 50.0002M64.5 60.0002L68.5 62.0002M76.5 66.0002L80.5 68.0002L82.6667 74.5002M76.5 66.0002L74.5 53.5002L61 54.5002L68.5 62.0002M76.5 66.0002L70 62.7502M57 39.1788L52.5 34.5002L47.5 39.1788L31 36.5002L24 47.5002H27M27 47.5002L34.2134 41.7471L41.2134 44.747C41.2134 44.747 43.5331 53.4615 47.5 58.0002C51.2065 62.2409 59.5 66.0002 59.5 66.0002L76 73.5002L78.5 78.5002M27 47.5002V50.0002L26 53.5002L24 51.0002M35.5 62.7502L31 68.0002M68.5 62.0002L70 62.7502M68.5 62.0002L70 61.0002V62.7502M82.6667 74.5002L86 84.5002L91.5 88.5002H83.5L78.5 78.5002M82.6667 74.5002L78.5 78.5002M59.5 60.0002C61.5 61.0002 65.65 64.1002 66.25 68.5002C66.85 72.9002 63.3333 78.1669 61.5 79.5002L56 67.3752L63 70.5002M59.5 20.0002L61.5455 14L60.0909 18.5L61.5455 22.5002M61.5455 22.5002L62.5 17.5M61.5455 22.5002L63 24.0002M37 61.0002V66.0002L50 86.0002H47.5L28.25 58.0002L29.5 56L31 58.0002M55 33.5002L52.5 30.5002C50.3333 32.8335 44.5 38.0002 41 28.5002C48.9286 30.5002 46.1667 27.5002 50 28.5002L52.5 26.5002L55 29.5002V33.5002Z" stroke="black" stroke-width="2"/>
<path d="M204 162V224H172M72.5 224H44V116.5M44 104V97.5M64.5 44H84M44 65V60" stroke="black" stroke-width="2"/>
<rect x="200" y="220" width="4" height="4" stroke="black" stroke-width="2"/>
<rect x="44" y="220" width="4" height="4" stroke="black" stroke-width="2"/>
<path d="M47.7286 139C47.7286 139 50.5007 183.5 69.5006 223.5" stroke="black" stroke-width="2"/>
<ellipse opacity="0.4" cx="130" cy="115" rx="14" ry="5" fill="url(#paint6_linear_1053_20212)"/>
<ellipse opacity="0.4" cx="128" cy="122" rx="28" ry="13" fill="url(#paint7_linear_1053_20212)"/>
<path d="M169.5 109.5C204 120 166.212 149.309 148 158C108.5 178 47.5006 140.5 62.9998 106.5C61.9123 94.3463 82.5806 99.0392 99.9997 90.0004C132 65.5004 169 57.5 173.644 73.1594C211.644 61.659 218.5 117.5 169.5 109.5Z" fill="#D3D3D3"/>
<path opacity="0.4" d="M164 126C151.297 156.852 91 163.5 70.0185 123.994C69.2225 118.927 94.2493 118.268 107 114.5C119.751 110.732 115.984 109.818 135 109.5C148 109.5 155.5 114 155.5 114C167 114 169.622 119 171 123.994H160L164 126Z" fill="url(#paint8_linear_1053_20212)"/>
<path d="M116.5 144.5L104 158.5L144 161L163.501 139L153 135.5L158 141L148.5 139L153 145.5L144 142L146 149L138 144L137.5 153L131 145.5L127 156L123.5 145.5L116.5 156L116.5 144.5Z" fill="#D3D3D3"/>
<path opacity="0.8" d="M150 104.5C150 104.5 149.502 118.5 131 118.5C112.498 118.5 66 126.964 66 111.5C109.5 115.5 112.498 92 131 92C149.502 92 150 104.5 150 104.5Z" fill="url(#paint9_linear_1053_20212)"/>
<path d="M136 36V44.5" stroke="black" stroke-width="2"/>
<path d="M140 37L140 44" stroke="black" stroke-width="2"/>
<path d="M144 40L144 43" stroke="black" stroke-width="2"/>
<path d="M132 33L132 44" stroke="black" stroke-width="2"/>
<path d="M128 32L128 45" stroke="black" stroke-width="2"/>
<path d="M124 31L124 45" stroke="black" stroke-width="2"/>
<path d="M120 30L120 45" stroke="black" stroke-width="2"/>
<path d="M55.0819 170.132L50.0816 165.83L52.5816 163.132L57.4638 167.559L55.0819 170.132Z" stroke="black" stroke-width="2"/>
<path d="M71.0819 91.1315L66.0816 86.8305L68.5816 84.1317L73.4638 88.559L71.0819 91.1315Z" stroke="black" stroke-width="2"/>
<path d="M95 66L99 68" stroke="black" stroke-width="2"/>
<path d="M84 115L89 120" stroke="black" stroke-width="2"/>
<path d="M101 99.1572L104.167 95.9998" stroke="black" stroke-width="2"/>
<path d="M58 94L62 96" stroke="black" stroke-width="2"/>
<path d="M131 115L131 120" stroke="black" stroke-width="2"/>
<path d="M66 95L70 97" stroke="black" stroke-width="2"/>
<path d="M211 126L211 131" stroke="black" stroke-width="2"/>
<path d="M215 57L212 58" stroke="black" stroke-width="2"/>
<path d="M172 30L169 31" stroke="black" stroke-width="2"/>
<path d="M196 30L193 31" stroke="black" stroke-width="2"/>
<path d="M53 97H57" stroke="black" stroke-width="2"/>
<path d="M84.6318 225.458L87.3691 222.542" stroke="black" stroke-width="2"/>
<path d="M164.588 155.693L166.833 172.197L155.924 175.12L151.364 173.201L146.576 178.082L145.986 169.959L154.953 167.949L160.333 166.743L159.324 156.361L164.588 155.693Z" fill="#B2724E"/>
<path d="M155.924 175.12L151.364 173.201L146.576 178.082L145.986 169.959L154.953 167.949M155.924 175.12L166.833 172.197L164.588 155.693L159.324 156.361L160.333 166.743L154.953 167.949M155.924 175.12L154.953 167.949" stroke="black" stroke-width="2"/>
<path d="M168.604 212.201L167.166 219.95L158.319 218.308L149.472 216.667L152.809 198.685L157.213 193.066L196.886 161.471L201 169.5L160.225 201.573L158.354 210.299L168.604 212.201Z" fill="#656565"/>
<path d="M158.354 210.299L168.604 212.201L167.166 219.95L158.319 218.308M158.354 210.299L160.225 201.573M158.354 210.299L158.319 218.308M152.809 198.685L157.213 193.066L196.886 161.471L201 169.5L160.225 201.573M152.809 198.685L149.472 216.667L158.319 218.308M152.809 198.685L160.225 201.573" stroke="black" stroke-width="2"/>
<path d="M168 220.917L171 219" stroke="black" stroke-width="2"/>
<path d="M41 103H45" stroke="black" stroke-width="2"/>
<path d="M41 117H45" stroke="black" stroke-width="2"/>
<path d="M44 64H48" stroke="black" stroke-width="2"/>
<path d="M116 29L116 43" stroke="black" stroke-width="2"/>
<path d="M116 99L116 105" stroke="black" stroke-width="2"/>
<path d="M120 96L120 104" stroke="black" stroke-width="2"/>
<path d="M120 107L120 111" stroke="black" stroke-width="2"/>
<path d="M116 108L116 111" stroke="black" stroke-width="2"/>
<path d="M112 110L112 113" stroke="black" stroke-width="2"/>
<path d="M124 106L124 111" stroke="black" stroke-width="2"/>
<path d="M128 106L128 111" stroke="black" stroke-width="2"/>
<path d="M132 107L132 111" stroke="black" stroke-width="2"/>
<path d="M124 94L124 103" stroke="black" stroke-width="2"/>
<path d="M128 93L128 103" stroke="black" stroke-width="2"/>
<path d="M132 92L132 104" stroke="black" stroke-width="2"/>
<path d="M136 92L136 105" stroke="black" stroke-width="2"/>
<path d="M140 93L140 106" stroke="black" stroke-width="2"/>
<path d="M172 86L172 99" stroke="black" stroke-width="2"/>
<path d="M176 97L176 105" stroke="black" stroke-width="2"/>
<path d="M180 95L180 104" stroke="black" stroke-width="2"/>
<path d="M184 93L184 103" stroke="black" stroke-width="2"/>
<path d="M188 91L188 102" stroke="black" stroke-width="2"/>
<path d="M192 88L192 100" stroke="black" stroke-width="2"/>
<path d="M144 95L144 108" stroke="black" stroke-width="2"/>
<path d="M148 99L148 110" stroke="black" stroke-width="2"/>
<path d="M112 102L112 107" stroke="black" stroke-width="2"/>
<path d="M108 104L108 110" stroke="black" stroke-width="2"/>
<path d="M112 29L112 41" stroke="black" stroke-width="2"/>
<path d="M108 30L108 39" stroke="black" stroke-width="2"/>
<path d="M162 105.5C162 105.5 195.5 106.5 195.5 93.5M200 102.5C189 114 169 109.5 169 109.5" stroke="black" stroke-width="2"/>
<path d="M124.214 218L124.115 218.295L126 221.5L131.5 218L133.5 221.5L121 227.5L124.115 218.295L123.882 217.899L116 215.5L121 213L123.882 217.899L124.214 218Z" fill="#657FC1" stroke="black" stroke-width="2"/>
<path d="M97.9136 91.4141C163.342 37.9141 213.914 81.6578 200.343 89.7604C207.154 96.1596 207.89 102.301 206.089 105.914M94.3424 88.4141C107.771 74.6193 128.343 66.9143 128.343 66.9143M90.3426 85.7091C96.7405 77.9143 111.414 69.4143 111.414 69.4143M85.8424 83.9141C92.3424 76.9141 98.8424 72.4141 98.8424 72.4141M195.843 105.914C200.176 110.414 205.243 122.414 190.843 134.414M190.843 127.414C174.843 142.914 151.343 161.914 190.843 161.914M194.843 134.414C206.061 125.066 205.465 115.717 202.604 109.914M198.843 134.414C208.29 126.542 209.359 118.669 207.753 112.914M204 73.5C208.5 75.2761 217.301 80.0404 214.501 85.7091C211.701 91.3778 209.012 90.1515 210.502 91.4141C216.502 96.5 212.883 104.8 207.753 108M204 161.914C207.667 161.776 215.4 159.8 217 153C219 144.5 200.685 137.5 190.843 143.5C181 149.5 194.843 153 202.604 150" stroke="black" stroke-width="2"/>
<path d="M171 67.5L171.722 68.5L177.5 76.5C176.667 80.6667 174.9 89.1 174.5 89.5C174.1 89.9 169.667 95.3333 167.5 98C165.167 97.3333 160.5 95.8 160.5 95L157 84.5L154.5 82.5L152.5 78.5L159.5 79L166 88.5L172 78.5L171.722 68.5L168.5 70L165 66.5C165.833 65.6667 167.5 63.9 167.5 63.5V59H168.5L171 67.5Z" fill="#667161"/>
<path d="M183 77.5L180 84.5L185 86L186 78.5L183 77.5Z" fill="#667161"/>
<path d="M148.5 76.5L146 71L144.5 70L143.5 78.5L148 80L148.5 76.5Z" fill="#667161"/>
<path d="M161.695 95.8101C156.695 88.3101 156.695 83.8101 156.695 83.8101L147.195 79.8098L143.695 79.3099L143.695 78.3097L144.195 70.8101L145.195 69.8101L148.195 77.1059L159.195 79.8098L165.695 88.3101M165.695 88.3101L172.195 78.3097L168.195 69.3098L165.195 66.8098L167.195 64.3098L167.695 59.81L169.695 58.3098L170.695 67.8097L177.725 76.7402C177.725 76.7402 176.225 86.5843 173.695 90.3101M165.695 88.3101L163.503 89.3101M165.695 88.3101L168.695 87.029M171.454 94.0799L167.37 98.8315L163.503 97.0867M184.827 87.029L186.195 78.3097L187.827 71.8097L184.827 67.8097L184.195 72.5639M181.617 72.5639L183.695 76.7402L179.695 84.6994L177.725 87.029" stroke="black" stroke-width="2"/>
<circle cx="103" cy="217" r="7" fill="url(#paint10_linear_1053_20212)" stroke="black" stroke-width="2"/>
<circle cx="211" cy="135" r="4" fill="url(#paint11_linear_1053_20212)" stroke="black" stroke-width="2"/>
<path d="M83.8408 111.914C-9.15919 111.914 55.0235 106.914 62.8405 106.914C62.8405 96.8414 60.3404 107.914 82.8404 85.9141" stroke="black" stroke-width="2"/>
<path d="M131.841 65.9141C141.671 61.9241 163.841 56.4141 163.841 36.9138C163.841 19.4582 138.841 23.4146 138.841 33.9143C138.841 44.414 158.841 36.9141 158.841 36.9141" stroke="black" stroke-width="2"/>
<path d="M114.841 67.9169C132.341 57.914 142.341 60.4142 155.841 46.9142M158.841 36.9142C108.841 63.4142 78.3408 14.4141 134.34 33.9142" stroke="black" stroke-width="2"/>
<path d="M101.841 70.9136C114.341 62.4136 129.841 57.4136 129.841 57.4136M152.842 44.4139C70.3421 83.4139 57.8413 3.41387 131.842 32.9139" stroke="black" stroke-width="2"/>
<path d="M85.8408 111.914C108.244 111.914 114.841 92.4141 134.341 92.4141C153.841 92.4141 159.502 119.414 124.341 119.414C107.912 119.414 116.412 109.914 132.841 109.914" stroke="black" stroke-width="2"/>
<path d="M143.841 26.9139C168.841 11.4137 195.341 45.9138 152.341 61.4141C152.341 61.4141 158.341 60.4141 163.341 61.4141" stroke="black" stroke-width="2"/>
<path d="M83.3408 115.414C90.8408 115.414 97.3408 115.414 104.841 112.414M158.341 118.414C145.841 143.914 108.602 139.099 100.341 128.414C93.6399 119.748 107.761 109.914 132.841 109.914M78.3408 115.414H51.8408M134.841 109.914C144.341 109.914 145.341 114.414 129.841 115.414" stroke="black" stroke-width="2"/>
<path d="M64.5 132.5C113 195.5 177.912 145.491 164.341 137.389C171.152 130.989 171.888 124.848 170.087 121.235M60 134C85.5 186 200 219.5 200 219.5M55 136C62.8406 154 82 171.5 82 171.5M50.5 137.389C54.5 157.5 65 170 65 170" stroke="black" stroke-width="2"/>
<circle cx="131" cy="82" r="3" fill="white" stroke="black" stroke-width="2"/>
<circle cx="131" cy="115" r="3" fill="white" stroke="black" stroke-width="2"/>
<path d="M114 87.4832C116.312 85.1165 122.855 80.0969 130.537 78.9518" stroke="black" stroke-width="2"/>
<path d="M63.5001 129.199L52.0001 143.199L42.5 137.092L41 132.199L34 132.199L40.0001 125.699L47.5 131.011L52.0001 134.199L59.5001 125.699L63.5001 129.199Z" fill="url(#paint12_linear_1053_20212)"/>
<path d="M42.5 137.092L41 132.199L34 132.199L40.0001 125.699L47.5 131.011M42.5 137.092L52.0001 143.199L63.5001 129.199L59.5001 125.699L52.0001 134.199L47.5 131.011M42.5 137.092L47.5 131.011" stroke="black" stroke-width="2"/>
<path d="M80.6772 160.752L91.8914 148.553L95.3943 151.839L95.3943 154.993L97.8365 154.993L101.688 158.664L90.9151 170.35L82.5967 167.791L80.6772 160.752Z" fill="#D8AE70"/>
<path d="M82.5967 167.791L80.6772 160.752L91.8914 148.553L95.3943 151.839L95.3943 154.993M82.5967 167.791L90.9151 170.35L101.688 158.664L97.8365 154.993L95.3943 154.993M82.5967 167.791L95.3943 154.993" stroke="black" stroke-width="2"/>
<path d="M208 145.917L210.737 143" stroke="black" stroke-width="2"/>
<path d="M37.8077 256H39.3049V251.17H42.0094C42.1181 251.17 42.2207 251.17 42.3233 251.164L44.9313 256H46.6699L43.8748 250.893C45.4505 250.355 46.187 249.07 46.187 247.428C46.187 245.242 44.883 243.636 41.9853 243.636H37.8077V256ZM39.3049 249.818V244.964H41.937C43.9412 244.964 44.714 245.942 44.714 247.428C44.714 248.913 43.9412 249.818 41.9611 249.818H39.3049ZM52.156 256.193C54.6673 256.193 56.3577 254.286 56.3577 251.412C56.3577 248.514 54.6673 246.607 52.156 246.607C49.6446 246.607 47.9543 248.514 47.9543 251.412C47.9543 254.286 49.6446 256.193 52.156 256.193ZM52.156 254.913C50.2483 254.913 49.379 253.271 49.379 251.412C49.379 249.553 50.2483 247.886 52.156 247.886C54.0637 247.886 54.933 249.553 54.933 251.412C54.933 253.271 54.0637 254.913 52.156 254.913ZM59.9572 243.636H58.5325V256H59.9572V243.636ZM63.9914 243.636H62.5667V256H63.9914V243.636ZM74.8835 256.193C76.6705 256.193 77.2741 255.082 77.5881 254.575H77.7571V256H79.1335V243.636H77.7088V248.2H77.5881C77.2741 247.717 76.7188 246.607 74.9077 246.607C72.5653 246.607 70.9474 248.466 70.9474 251.388C70.9474 254.334 72.5653 256.193 74.8835 256.193ZM75.0767 254.913C73.2898 254.913 72.3722 253.344 72.3722 251.364C72.3722 249.408 73.2656 247.886 75.0767 247.886C76.8153 247.886 77.733 249.287 77.733 251.364C77.733 253.464 76.7912 254.913 75.0767 254.913ZM81.9407 256H83.3654V246.727H81.9407V256ZM82.6651 245.182C83.2205 245.182 83.6793 244.747 83.6793 244.216C83.6793 243.685 83.2205 243.25 82.6651 243.25C82.1097 243.25 81.6509 243.685 81.6509 244.216C81.6509 244.747 82.1097 245.182 82.6651 245.182ZM89.7419 256.193C91.7945 256.193 93.1468 254.938 93.3882 253.295H91.9635C91.6979 254.31 90.8527 254.913 89.7419 254.913C88.0516 254.913 86.9649 253.513 86.9649 251.364C86.9649 249.263 88.0757 247.886 89.7419 247.886C90.9976 247.886 91.7462 248.659 91.9635 249.504H93.3882C93.1468 247.766 91.6737 246.607 89.7178 246.607C87.2064 246.607 85.5402 248.587 85.5402 251.412C85.5402 254.189 87.134 256.193 89.7419 256.193ZM99.3588 256.193C101.242 256.193 102.619 255.251 103.053 253.851L101.677 253.464C101.315 254.43 100.476 254.913 99.3588 254.913C97.6865 254.913 96.5335 253.833 96.4671 251.847H103.198V251.243C103.198 247.79 101.146 246.607 99.2139 246.607C96.7025 246.607 95.0363 248.587 95.0363 251.436C95.0363 254.286 96.6784 256.193 99.3588 256.193ZM96.4671 250.615C96.5637 249.172 97.5839 247.886 99.2139 247.886C100.759 247.886 101.749 249.045 101.749 250.615H96.4671ZM110.147 259.477H111.571V254.575H111.692C112.006 255.082 112.61 256.193 114.397 256.193C116.715 256.193 118.333 254.334 118.333 251.388C118.333 248.466 116.715 246.607 114.373 246.607C112.562 246.607 112.006 247.717 111.692 248.2H111.523V246.727H110.147V259.477ZM111.547 251.364C111.547 249.287 112.465 247.886 114.204 247.886C116.015 247.886 116.908 249.408 116.908 251.364C116.908 253.344 115.991 254.913 114.204 254.913C112.489 254.913 111.547 253.464 111.547 251.364ZM124.394 256.193C126.277 256.193 127.654 255.251 128.089 253.851L126.712 253.464C126.35 254.43 125.511 254.913 124.394 254.913C122.722 254.913 121.569 253.833 121.502 251.847H128.233V251.243C128.233 247.79 126.181 246.607 124.249 246.607C121.738 246.607 120.071 248.587 120.071 251.436C120.071 254.286 121.714 256.193 124.394 256.193ZM121.502 250.615C121.599 249.172 122.619 247.886 124.249 247.886C125.794 247.886 126.785 249.045 126.785 250.615H121.502ZM130.401 256H131.825V250.132C131.825 248.876 132.815 247.959 134.168 247.959C134.548 247.959 134.94 248.031 135.037 248.055V246.607C134.874 246.594 134.5 246.582 134.288 246.582C133.178 246.582 132.212 247.21 131.874 248.128H131.777V246.727H130.401V256ZM144.236 256.217C145.854 256.217 146.699 255.348 146.989 254.744H147.061V256H148.486V249.891C148.486 246.945 146.24 246.607 145.057 246.607C143.656 246.607 142.062 247.089 141.338 248.78L142.69 249.263C143.004 248.587 143.747 247.862 145.105 247.862C146.415 247.862 147.061 248.556 147.061 249.746V249.794C147.061 250.482 146.361 250.422 144.67 250.639C142.95 250.863 141.072 251.243 141.072 253.368C141.072 255.179 142.473 256.217 144.236 256.217ZM144.453 254.938C143.318 254.938 142.497 254.43 142.497 253.44C142.497 252.354 143.487 252.016 144.598 251.871C145.202 251.798 146.82 251.629 147.061 251.339V252.643C147.061 253.803 146.143 254.938 144.453 254.938ZM152.511 243.636H151.086V256H152.511V243.636ZM156.545 243.636H155.12V256H156.545V243.636ZM160.072 259.477C161.358 259.477 162.264 258.795 162.801 257.352L166.749 246.751L165.191 246.727L162.632 254.116H162.535L159.976 246.727H158.43L161.859 256.048L161.593 256.773C161.074 258.185 160.434 258.318 159.396 258.053L159.034 259.308C159.179 259.381 159.589 259.477 160.072 259.477ZM179.259 252.209C179.259 253.947 177.931 254.744 176.868 254.744C175.685 254.744 174.84 253.875 174.84 252.523V246.727H173.415V252.619C173.415 254.986 174.671 256.121 176.41 256.121C177.81 256.121 178.728 255.372 179.162 254.43H179.259V256H180.684V246.727H179.259V252.209ZM184.718 250.422C184.718 248.804 185.72 247.886 187.084 247.886C188.407 247.886 189.209 248.75 189.209 250.205V256H190.634V250.108C190.634 247.741 189.372 246.607 187.495 246.607C186.094 246.607 185.225 247.234 184.79 248.176H184.67V246.727H183.293V256H184.718V250.422ZM193.238 256H194.662V246.727H193.238V256ZM193.962 245.182C194.517 245.182 194.976 244.747 194.976 244.216C194.976 243.685 194.517 243.25 193.962 243.25C193.407 243.25 192.948 243.685 192.948 244.216C192.948 244.747 193.407 245.182 193.962 245.182ZM201.304 246.727H199.324V244.506H197.9V246.727H196.499V247.935H197.9V253.73C197.9 255.348 199.204 256.121 200.411 256.121C200.942 256.121 201.28 256.024 201.473 255.952L201.184 254.672C201.063 254.696 200.87 254.744 200.556 254.744C199.928 254.744 199.324 254.551 199.324 253.344V247.935H201.304V246.727ZM205.573 254.31H204.027L203.955 254.986C203.78 256.622 203.435 258.252 203.278 259.018H204.365C204.655 258.197 205.271 256.338 205.476 254.962L205.573 254.31ZM18.6057 279.477H20.0305V274.575H20.1512C20.4651 275.082 21.0688 276.193 22.8557 276.193C25.1739 276.193 26.7918 274.334 26.7918 271.388C26.7918 268.466 25.1739 266.607 22.8316 266.607C21.0205 266.607 20.4651 267.717 20.1512 268.2H19.9822V266.727H18.6057V279.477ZM20.0063 271.364C20.0063 269.287 20.9239 267.886 22.6626 267.886C24.4736 267.886 25.3671 269.408 25.3671 271.364C25.3671 273.344 24.4495 274.913 22.6626 274.913C20.9481 274.913 20.0063 273.464 20.0063 271.364ZM30.3898 263.636H28.9651V276H30.3898V263.636ZM35.728 276.217C37.3459 276.217 38.1911 275.348 38.4808 274.744H38.5533V276H39.978V269.891C39.978 266.945 37.7322 266.607 36.549 266.607C35.1484 266.607 33.5547 267.089 32.8303 268.78L34.1825 269.263C34.4964 268.587 35.239 267.862 36.5973 267.862C37.9073 267.862 38.5533 268.556 38.5533 269.746V269.794C38.5533 270.482 37.853 270.422 36.1626 270.639C34.4421 270.863 32.5646 271.243 32.5646 273.368C32.5646 275.179 33.9652 276.217 35.728 276.217ZM35.9453 274.938C34.8104 274.938 33.9893 274.43 33.9893 273.44C33.9893 272.354 34.9794 272.016 36.0902 271.871C36.6939 271.798 38.3118 271.629 38.5533 271.339V272.643C38.5533 273.803 37.6357 274.938 35.9453 274.938ZM46.3454 276.193C48.398 276.193 49.7503 274.938 49.9917 273.295H48.567C48.3014 274.31 47.4562 274.913 46.3454 274.913C44.6551 274.913 43.5684 273.513 43.5684 271.364C43.5684 269.263 44.6792 267.886 46.3454 267.886C47.6011 267.886 48.3497 268.659 48.567 269.504H49.9917C49.7503 267.766 48.2773 266.607 46.3213 266.607C43.8099 266.607 42.1437 268.587 42.1437 271.412C42.1437 274.189 43.7375 276.193 46.3454 276.193ZM55.9623 276.193C57.8458 276.193 59.2222 275.251 59.6569 273.851L58.2805 273.464C57.9182 274.43 57.0791 274.913 55.9623 274.913C54.29 274.913 53.137 273.833 53.0706 271.847H59.8018V271.243C59.8018 267.79 57.7492 266.607 55.8174 266.607C53.306 266.607 51.6398 268.587 51.6398 271.436C51.6398 274.286 53.2819 276.193 55.9623 276.193ZM53.0706 270.615C53.1672 269.172 54.1874 267.886 55.8174 267.886C57.3628 267.886 58.3529 269.045 58.3529 270.615H53.0706ZM72.594 272.209C72.594 273.947 71.2659 274.744 70.2034 274.744C69.0202 274.744 68.175 273.875 68.175 272.523V266.727H66.7503V272.619C66.7503 274.986 68.0059 276.121 69.7446 276.121C71.1452 276.121 72.0628 275.372 72.4974 274.43H72.594V276H74.0187V266.727H72.594V272.209ZM78.0529 270.422C78.0529 268.804 79.055 267.886 80.4194 267.886C81.7415 267.886 82.5444 268.75 82.5444 270.205V276H83.9691V270.108C83.9691 267.741 82.7074 266.607 80.8299 266.607C79.4293 266.607 78.56 267.234 78.1254 268.176H78.0046V266.727H76.6282V276H78.0529V270.422ZM86.5725 276H87.9972V266.727H86.5725V276ZM87.297 265.182C87.8524 265.182 88.3112 264.747 88.3112 264.216C88.3112 263.685 87.8524 263.25 87.297 263.25C86.7416 263.25 86.2828 263.685 86.2828 264.216C86.2828 264.747 86.7416 265.182 87.297 265.182ZM94.6394 266.727H92.6593V264.506H91.2346V266.727H89.834V267.935H91.2346V273.73C91.2346 275.348 92.5385 276.121 93.7459 276.121C94.2772 276.121 94.6152 276.024 94.8084 275.952L94.5186 274.672C94.3979 274.696 94.2047 274.744 93.8908 274.744C93.263 274.744 92.6593 274.551 92.6593 273.344V267.935H94.6394V266.727ZM103.185 268.804C102.738 267.488 101.736 266.607 99.9006 266.607C97.9446 266.607 96.4957 267.717 96.4957 269.287C96.4957 270.567 97.2564 271.424 98.9588 271.822L100.504 272.185C101.44 272.402 101.881 272.849 101.881 273.489C101.881 274.286 101.036 274.938 99.7074 274.938C98.5423 274.938 97.8118 274.436 97.5582 273.44L96.206 273.778C96.538 275.354 97.8359 276.193 99.7315 276.193C101.887 276.193 103.354 275.016 103.354 273.416C103.354 272.124 102.545 271.309 100.891 270.905L99.5142 270.567C98.4155 270.295 97.9205 269.927 97.9205 269.214C97.9205 268.418 98.7656 267.838 99.9006 267.838C101.144 267.838 101.657 268.526 101.905 269.166L103.185 268.804ZM110.473 276H111.849V274.575H112.018C112.332 275.082 112.936 276.193 114.723 276.193C117.041 276.193 118.659 274.334 118.659 271.388C118.659 268.466 117.041 266.607 114.699 266.607C112.888 266.607 112.332 267.717 112.018 268.2H111.897V263.636H110.473V276ZM111.873 271.364C111.873 269.287 112.791 267.886 114.53 267.886C116.341 267.886 117.234 269.408 117.234 271.364C117.234 273.344 116.316 274.913 114.53 274.913C112.815 274.913 111.873 273.464 111.873 271.364ZM123.567 276.217C125.185 276.217 126.03 275.348 126.32 274.744H126.392V276H127.817V269.891C127.817 266.945 125.571 266.607 124.388 266.607C122.987 266.607 121.394 267.089 120.669 268.78L122.021 269.263C122.335 268.587 123.078 267.862 124.436 267.862C125.746 267.862 126.392 268.556 126.392 269.746V269.794C126.392 270.482 125.692 270.422 124.002 270.639C122.281 270.863 120.403 271.243 120.403 273.368C120.403 275.179 121.804 276.217 123.567 276.217ZM123.784 274.938C122.649 274.938 121.828 274.43 121.828 273.44C121.828 272.354 122.818 272.016 123.929 271.871C124.533 271.798 126.151 271.629 126.392 271.339V272.643C126.392 273.803 125.475 274.938 123.784 274.938ZM136.985 268.804C136.539 267.488 135.537 266.607 133.701 266.607C131.745 266.607 130.297 267.717 130.297 269.287C130.297 270.567 131.057 271.424 132.76 271.822L134.305 272.185C135.241 272.402 135.681 272.849 135.681 273.489C135.681 274.286 134.836 274.938 133.508 274.938C132.343 274.938 131.613 274.436 131.359 273.44L130.007 273.778C130.339 275.354 131.637 276.193 133.532 276.193C135.688 276.193 137.154 275.016 137.154 273.416C137.154 272.124 136.346 271.309 134.691 270.905L133.315 270.567C132.216 270.295 131.721 269.927 131.721 269.214C131.721 268.418 132.566 267.838 133.701 267.838C134.945 267.838 135.458 268.526 135.706 269.166L136.985 268.804ZM143.187 276.193C145.07 276.193 146.447 275.251 146.881 273.851L145.505 273.464C145.143 274.43 144.304 274.913 143.187 274.913C141.515 274.913 140.362 273.833 140.295 271.847H147.026V271.243C147.026 267.79 144.974 266.607 143.042 266.607C140.531 266.607 138.864 268.587 138.864 271.436C138.864 274.286 140.506 276.193 143.187 276.193ZM140.295 270.615C140.392 269.172 141.412 267.886 143.042 267.886C144.587 267.886 145.578 269.045 145.578 270.615H140.295ZM152.695 276.193C154.482 276.193 155.086 275.082 155.4 274.575H155.569V276H156.945V263.636H155.52V268.2H155.4C155.086 267.717 154.53 266.607 152.719 266.607C150.377 266.607 148.759 268.466 148.759 271.388C148.759 274.334 150.377 276.193 152.695 276.193ZM152.888 274.913C151.101 274.913 150.184 273.344 150.184 271.364C150.184 269.408 151.077 267.886 152.888 267.886C154.627 267.886 155.544 269.287 155.544 271.364C155.544 273.464 154.603 274.913 152.888 274.913ZM168.301 276.193C170.812 276.193 172.502 274.286 172.502 271.412C172.502 268.514 170.812 266.607 168.301 266.607C165.789 266.607 164.099 268.514 164.099 271.412C164.099 274.286 165.789 276.193 168.301 276.193ZM168.301 274.913C166.393 274.913 165.524 273.271 165.524 271.412C165.524 269.553 166.393 267.886 168.301 267.886C170.208 267.886 171.078 269.553 171.078 271.412C171.078 273.271 170.208 274.913 168.301 274.913ZM176.102 270.422C176.102 268.804 177.104 267.886 178.468 267.886C179.79 267.886 180.593 268.75 180.593 270.205V276H182.018V270.108C182.018 267.741 180.756 266.607 178.879 266.607C177.478 266.607 176.609 267.234 176.174 268.176H176.053V266.727H174.677V276H176.102V270.422ZM189.403 276H190.827V270.132C190.827 268.876 191.817 267.959 193.17 267.959C193.55 267.959 193.942 268.031 194.039 268.055V266.607C193.876 266.594 193.502 266.582 193.29 266.582C192.18 266.582 191.214 267.21 190.876 268.128H190.779V266.727H189.403V276ZM199.213 276.193C201.724 276.193 203.414 274.286 203.414 271.412C203.414 268.514 201.724 266.607 199.213 266.607C196.701 266.607 195.011 268.514 195.011 271.412C195.011 274.286 196.701 276.193 199.213 276.193ZM199.213 274.913C197.305 274.913 196.436 273.271 196.436 271.412C196.436 269.553 197.305 267.886 199.213 267.886C201.12 267.886 201.99 269.553 201.99 271.412C201.99 273.271 201.12 274.913 199.213 274.913ZM207.014 263.636H205.589V276H207.014V263.636ZM211.048 263.636H209.623V276H211.048V263.636ZM220.226 268.804C219.779 267.488 218.777 266.607 216.942 266.607C214.986 266.607 213.537 267.717 213.537 269.287C213.537 270.567 214.297 271.424 216 271.822L217.545 272.185C218.481 272.402 218.922 272.849 218.922 273.489C218.922 274.286 218.077 274.938 216.748 274.938C215.583 274.938 214.853 274.436 214.599 273.44L213.247 273.778C213.579 275.354 214.877 276.193 216.773 276.193C218.928 276.193 220.395 275.016 220.395 273.416C220.395 272.124 219.586 271.309 217.932 270.905L216.555 270.567C215.456 270.295 214.961 269.927 214.961 269.214C214.961 268.418 215.807 267.838 216.942 267.838C218.185 267.838 218.698 268.526 218.946 269.166L220.226 268.804ZM223.578 276.097C224.175 276.097 224.664 275.608 224.664 275.01C224.664 274.412 224.175 273.923 223.578 273.923C222.98 273.923 222.491 274.412 222.491 275.01C222.491 275.608 222.98 276.097 223.578 276.097Z" fill="black" fill-opacity="0.87"/>
<path d="M24.0464 285.091H22.7254L19.6998 286.902L19.4654 288.244L22.4271 286.476H22.491L20.9143 296H22.2353L24.0464 285.091ZM30.9551 290.737H26.1824L25.9906 291.909H30.7634L30.9551 290.737ZM32.4 293.763H37.519L37.1514 296H38.4085L38.7814 293.763H40.2835L40.4753 292.591H38.9731L40.2196 285.091H38.6216L32.5704 292.676L32.4 293.763ZM37.7214 292.591H34.0193V292.506L38.6003 286.774H38.6855L37.7214 292.591ZM48.5226 296.192C49.9502 296.192 50.8237 295.425 51.1646 294.892H51.2286L51.0368 296H52.2939L53.1888 290.609C53.6149 288.01 51.6973 287.712 50.6533 287.712C49.4175 287.712 47.926 288.138 47.0524 289.629L48.1604 290.055C48.5439 289.459 49.3536 288.82 50.5467 288.82C51.6973 288.82 52.1234 289.438 51.953 290.482V290.524C51.8465 291.121 51.2286 291.078 49.7158 291.27C48.1604 291.462 46.4558 291.803 46.1362 293.678C45.8805 295.276 46.9672 296.192 48.5226 296.192ZM48.8848 295.062C47.8834 295.062 47.2442 294.615 47.3933 293.741C47.5425 292.783 48.48 292.484 49.4814 292.357C50.0141 292.293 51.4629 292.143 51.7186 291.888L51.5269 293.038C51.3564 294.061 50.3763 295.062 48.8848 295.062ZM56.6551 291.078C56.9108 289.651 57.9122 288.841 59.1267 288.841C60.2986 288.841 60.8739 289.608 60.6608 290.886L59.8085 296H61.0657L61.9392 290.801C62.2801 288.713 61.3213 287.712 59.6807 287.712C58.4449 287.712 57.5713 288.266 57.06 289.097H56.9534L57.1665 287.818H55.952L54.5884 296H55.8455L56.6551 291.078ZM63.3788 299.068C64.4867 299.068 65.4029 298.493 66.106 297.183L71.1238 287.818H69.7069L66.3617 294.359H66.2765L65.1046 287.818H63.7943L65.4349 296L65.0833 296.639C64.4015 297.88 63.8688 298.045 62.9953 297.811L62.4839 298.919C62.6011 298.983 62.9526 299.068 63.3788 299.068ZM75.6528 296H76.9099L77.7622 290.822C77.954 289.714 78.9554 288.905 80.1486 288.905C80.4895 288.905 80.8304 288.969 80.9156 288.99L81.1287 287.712C80.9795 287.69 80.6599 287.69 80.4682 287.69C79.4881 287.69 78.5293 288.244 78.1031 289.054H78.0179L78.231 287.818H77.0165L75.6528 296ZM84.4019 296.17C86.5752 296.17 88.3011 294.53 88.7059 292.037C89.1267 289.438 87.8963 287.712 85.6377 287.712C83.4644 287.712 81.7386 289.352 81.3338 291.866C80.9183 294.445 82.1434 296.17 84.4019 296.17ZM84.4233 295.041C82.7826 295.041 82.2926 293.635 82.5483 292.037C82.8199 290.354 83.8906 288.841 85.6164 288.841C87.2571 288.841 87.7471 290.268 87.4914 291.866C87.2198 293.555 86.1491 295.041 84.4233 295.041ZM93.3521 296.17C95.5254 296.17 97.2513 294.53 97.6561 292.037C98.0769 289.438 96.8465 287.712 94.5879 287.712C92.4146 287.712 90.6888 289.352 90.284 291.866C89.8685 294.445 91.0936 296.17 93.3521 296.17ZM93.3734 295.041C91.7328 295.041 91.2428 293.635 91.4984 292.037C91.7701 290.354 92.8408 288.841 94.5666 288.841C96.2073 288.841 96.6973 290.268 96.4416 291.866C96.17 293.555 95.0993 295.041 93.3734 295.041ZM98.9146 296H100.172L101.024 290.886C101.216 289.693 102.238 288.841 103.219 288.841C104.177 288.841 104.731 289.459 104.582 290.396L103.645 296H104.923L105.818 290.673C105.988 289.608 106.777 288.841 107.927 288.841C108.822 288.841 109.504 289.31 109.312 290.524L108.396 296H109.653L110.569 290.524C110.889 288.607 109.994 287.712 108.545 287.712C107.373 287.712 106.415 288.244 105.861 289.097H105.775C105.52 288.223 104.88 287.712 103.815 287.712C102.75 287.712 101.876 288.223 101.386 289.097H101.28L101.493 287.818H100.278L98.9146 296ZM114.082 294.509H112.719L112.548 295.105C112.165 296.554 111.611 297.982 111.376 298.663H112.335C112.697 297.939 113.507 296.298 113.891 295.084L114.082 294.509ZM123.741 296.149C125.829 296.149 127.598 294.615 127.938 292.527C128.301 290.418 127.086 288.862 125.083 288.862C124.338 288.862 123.592 289.118 123.08 289.48H123.017L123.933 286.263H128.492L128.684 285.091H123.017L121.461 290.46L122.676 290.609C123.187 290.29 123.997 290.055 124.657 290.055C126.063 290.055 126.894 291.121 126.66 292.548C126.426 293.955 125.275 294.977 123.933 294.977C122.825 294.977 122.036 294.253 122.1 293.273H120.822C120.63 294.935 121.866 296.149 123.741 296.149ZM133.89 296H135.211L135.807 292.463L137.427 290.929L140.367 296H141.965L138.385 290.013L143.776 285.091H142.05L136.255 290.503H136.127L137.022 285.091H135.701L133.89 296ZM144.57 296.085C145.092 296.085 145.518 295.659 145.529 295.126C145.539 294.615 145.092 294.189 144.57 294.189C144.048 294.189 143.6 294.594 143.611 295.126C143.622 295.659 144.026 296.085 144.57 296.085ZM148.253 296L149.867 292.911H154.278L154.858 296H156.243L154.049 285.091H152.685L146.868 296H148.253ZM150.48 291.739L153.047 286.817H153.132L154.059 291.739H150.48ZM158.837 296.085C159.359 296.085 159.785 295.659 159.796 295.126C159.807 294.615 159.359 294.189 158.837 294.189C158.315 294.189 157.868 294.594 157.879 295.126C157.889 295.659 158.294 296.085 158.837 296.085ZM164.034 294.509H162.67L162.499 295.105C162.116 296.554 161.562 297.982 161.328 298.663H162.286C162.649 297.939 163.458 296.298 163.842 295.084L164.034 294.509ZM173.99 296.149C176.158 296.17 177.804 294.551 178.145 292.57C178.508 290.418 177.165 288.862 175.248 288.862C174.145 288.862 173.138 289.374 172.392 290.268L172.307 290.354C172.776 287.584 174.134 286.114 175.823 286.114C176.984 286.114 177.533 286.822 177.57 287.818H178.827C178.848 286.114 177.671 284.942 175.865 284.942C173.436 284.942 171.625 287.072 170.986 290.886C170.304 294.956 172.158 296.133 173.99 296.149ZM174.033 294.977C172.691 294.977 171.924 293.848 172.137 292.591C172.35 291.249 173.65 290.034 175.034 290.034C176.334 290.034 177.101 291.099 176.888 292.399C176.654 293.827 175.397 294.977 174.033 294.977ZM187.484 296C190.808 296 192.981 293.976 193.535 290.609C194.111 287.179 192.534 285.091 189.359 285.091H185.886L184.075 296H187.484ZM185.593 294.828L187.01 286.263H189.168C191.724 286.263 192.726 287.839 192.278 290.439C191.831 293.145 190.233 294.828 187.527 294.828H185.593ZM198.095 296.17C199.762 296.17 201.105 295.339 201.696 294.104L200.545 293.763C200.082 294.615 199.294 295.041 198.287 295.041C196.71 295.041 195.869 294.338 196.172 292.335H202.122L202.207 291.803C202.724 288.756 201.083 287.712 199.374 287.712C197.163 287.712 195.394 289.459 194.984 291.973C194.564 294.487 195.735 296.17 198.095 296.17ZM196.348 291.249C196.598 290.087 197.807 288.841 199.182 288.841C200.551 288.841 201.254 289.864 201.014 291.249H196.348ZM205.832 296.192C207.26 296.192 208.133 295.425 208.474 294.892H208.538L208.346 296H209.603L210.498 290.609C210.924 288.01 209.007 287.712 207.963 287.712C206.727 287.712 205.236 288.138 204.362 289.629L205.47 290.055C205.853 289.459 206.663 288.82 207.856 288.82C209.007 288.82 209.433 289.438 209.263 290.482V290.524C209.156 291.121 208.538 291.078 207.025 291.27C205.47 291.462 203.765 291.803 203.446 293.678C203.19 295.276 204.277 296.192 205.832 296.192ZM206.194 295.062C205.193 295.062 204.554 294.615 204.703 293.741C204.852 292.783 205.79 292.484 206.791 292.357C207.324 292.293 208.773 292.143 209.028 291.888L208.836 293.038C208.666 294.061 207.686 295.062 206.194 295.062ZM216.82 287.818H215.067L215.392 285.858H214.135L213.81 287.818H212.58L212.409 288.884H213.634L212.793 293.997C212.558 295.425 213.581 296.107 214.647 296.107C215.115 296.107 215.435 296.021 215.627 295.957L215.541 294.828C215.435 294.849 215.264 294.892 214.987 294.892C214.433 294.892 213.922 294.722 214.093 293.656L214.886 288.884H216.649L216.82 287.818ZM219.59 291.078C219.845 289.651 220.889 288.841 222.125 288.841C223.297 288.841 223.894 289.587 223.681 290.886L222.828 296H224.085L224.959 290.801C225.3 288.692 224.341 287.712 222.679 287.712C221.379 287.712 220.549 288.244 220.037 289.097H219.931L220.591 285.091H219.334L217.523 296H218.78L219.59 291.078ZM227.451 296.085C227.973 296.085 228.399 295.659 228.409 295.126C228.42 294.615 227.973 294.189 227.451 294.189C226.929 294.189 226.481 294.594 226.492 295.126C226.502 295.659 226.907 296.085 227.451 296.085Z" fill="black" fill-opacity="0.54"/>
<path d="M216 160H236V176L228 184.5L236 192V208H226H216V160Z" fill="#FF4B3C" stroke="black" stroke-width="2"/>
<path d="M216 160H236V176L228 184.5L236 192V208H226H216V160Z" fill="black" fill-opacity="0.17"/>
<path d="M224 168L216 160V168H224Z" fill="black" fill-opacity="0.38" stroke="black" stroke-width="2" stroke-linejoin="bevel"/>
<path d="M248 176L240 184L248 192V176Z" fill="#D4D4D4"/>
<path d="M32 160H12V176L20 184.5L12 192V208H22H32V160Z" fill="#FF4B3C" stroke="black" stroke-width="2"/>
<path d="M32 160H12V176L20 184.5L12 192V208H22H32V160Z" fill="black" fill-opacity="0.17"/>
<path d="M24 168L32 160V168H24Z" fill="black" fill-opacity="0.38" stroke="black" stroke-width="2" stroke-linejoin="bevel"/>
<path d="M0 176L8 184L0 192V176Z" fill="#D4D4D4"/>
<path d="M224 168H24V216H224V168Z" fill="#FF4B3C" stroke="black" stroke-width="2"/>
<path d="M71.7916 201.452L74.1676 200.696V183.524L70.4596 183.776L70.0636 188.168H67.9396L67.4716 181.256H84.7516L84.2836 188.168H82.1596L81.7636 183.776L78.0556 183.524V200.552L80.5756 201.272V203H71.7916V201.452ZM93.543 203.36C90.975 203.36 89.043 202.724 87.747 201.452C86.451 200.156 85.803 198.164 85.803 195.476C85.803 194.396 85.887 193.352 86.055 192.344C86.223 191.336 86.439 190.592 86.703 190.112C86.967 189.752 87.495 189.272 88.287 188.672C89.079 188.048 89.883 187.508 90.699 187.052C91.515 186.572 92.067 186.332 92.355 186.332C94.851 186.332 96.735 186.992 98.007 188.312C99.279 189.608 99.915 191.504 99.915 194C99.915 195.152 99.831 196.244 99.663 197.276C99.519 198.284 99.327 199.1 99.087 199.724C98.679 200.252 97.755 200.996 96.315 201.956C94.899 202.892 93.975 203.36 93.543 203.36ZM93.687 201.164C93.831 201.116 94.395 200.84 95.379 200.336C95.763 198.632 95.955 196.676 95.955 194.468C95.955 192.668 95.631 191.24 94.983 190.184C94.359 189.104 93.423 188.564 92.175 188.564C91.647 188.564 91.215 188.648 90.879 188.816C90.543 188.984 90.267 189.608 90.051 190.688C89.859 191.768 89.763 193.196 89.763 194.972C89.763 197.276 90.135 198.884 90.879 199.796C91.647 200.708 92.583 201.164 93.687 201.164ZM104.88 203.36C104.76 203.36 104.508 203.18 104.124 202.82C103.764 202.46 103.584 202.22 103.584 202.1V189.032L102.252 188.564V187.052C104.388 186.668 105.576 186.476 105.816 186.476C105.936 186.476 106.2 186.68 106.608 187.088C107.04 187.472 107.256 187.712 107.256 187.808L107.184 189.14C108.936 187.244 109.884 186.296 110.028 186.296C110.46 186.296 111.288 186.488 112.512 186.872C112.584 187.04 112.644 187.244 112.692 187.484C112.74 187.7 112.764 187.904 112.764 188.096C112.764 188.288 112.596 188.708 112.26 189.356C111.948 189.98 111.744 190.316 111.648 190.364C110.712 190.004 110.052 189.824 109.668 189.824C109.5 189.824 109.188 189.932 108.732 190.148C108.276 190.34 107.808 190.58 107.328 190.868V200.48L109.272 201.056V202.712C106.584 203.144 105.12 203.36 104.88 203.36ZM119.517 203.36C119.397 203.36 119.145 203.18 118.761 202.82C118.401 202.46 118.221 202.22 118.221 202.1V189.104L116.889 188.564V187.052C119.145 186.668 120.393 186.476 120.633 186.476C120.753 186.476 120.981 186.656 121.317 187.016C121.653 187.352 121.821 187.58 121.821 187.7V188.96C122.517 188.432 123.273 187.892 124.089 187.34C124.905 186.764 125.361 186.476 125.457 186.476C127.209 186.476 128.529 186.92 129.417 187.808C130.305 188.672 130.749 190.196 130.749 192.38V200.66L132.045 201.2V202.712C129.813 203.144 128.589 203.36 128.373 203.36C128.253 203.36 127.989 203.18 127.581 202.82C127.197 202.46 127.005 202.22 127.005 202.1V192.38C127.005 190.364 126.381 189.356 125.133 189.356C125.013 189.356 124.689 189.464 124.161 189.68C123.657 189.896 123.285 190.052 123.045 190.148C122.805 190.268 122.445 190.424 121.965 190.616V200.66L123.225 201.2V202.712C120.993 203.144 119.757 203.36 119.517 203.36ZM140.196 203.36C139.14 203.36 138.168 203.072 137.28 202.496C136.416 201.896 135.72 201.008 135.192 199.832C134.688 198.656 134.436 197.216 134.436 195.512C134.436 194.384 134.52 193.34 134.688 192.38C134.856 191.396 135.072 190.628 135.336 190.076C135.744 189.524 136.644 188.78 138.036 187.844C139.452 186.908 140.388 186.44 140.844 186.44C141.108 186.44 142.044 186.56 143.652 186.8C145.26 187.016 146.496 187.196 147.36 187.34V200.696L148.62 201.2V202.748C146.436 203.156 145.224 203.36 144.984 203.36C144.888 203.36 144.648 203.18 144.264 202.82C143.904 202.46 143.724 202.22 143.724 202.1V200.804C141.54 202.508 140.364 203.36 140.196 203.36ZM140.592 200.444C140.832 200.444 141.84 200 143.616 199.112V189.428C143.04 189.212 142.308 189.02 141.42 188.852C140.556 188.66 139.98 188.588 139.692 188.636C139.26 188.732 138.936 189.272 138.72 190.256C138.504 191.24 138.396 192.884 138.396 195.188C138.396 196.34 138.516 197.312 138.756 198.104C139.02 198.896 139.32 199.484 139.656 199.868C140.016 200.252 140.328 200.444 140.592 200.444ZM156.649 203.36C155.617 203.36 154.657 203.072 153.769 202.496C152.905 201.92 152.209 201.056 151.681 199.904C151.153 198.752 150.889 197.348 150.889 195.692C150.889 194.492 150.973 193.4 151.141 192.416C151.309 191.408 151.525 190.628 151.789 190.076C152.197 189.524 153.097 188.78 154.489 187.844C155.905 186.908 156.841 186.44 157.297 186.44C157.753 186.44 158.725 186.56 160.213 186.8V182.264L158.881 181.76V180.248C161.209 179.84 162.481 179.636 162.697 179.636C162.817 179.636 163.057 179.816 163.417 180.176C163.801 180.512 163.993 180.752 163.993 180.896L163.813 187.556V200.696L165.073 201.2V202.748C162.889 203.156 161.677 203.36 161.437 203.36C161.341 203.36 161.101 203.18 160.717 202.82C160.357 202.46 160.177 202.22 160.177 202.1V200.804C159.865 201.02 159.589 201.236 159.349 201.452C159.133 201.62 158.653 201.98 157.909 202.532C157.189 203.084 156.769 203.36 156.649 203.36ZM157.045 200.444C157.261 200.444 158.269 200 160.069 199.112V189.428C159.373 189.212 158.605 189.008 157.765 188.816C156.949 188.624 156.409 188.564 156.145 188.636C155.713 188.732 155.389 189.272 155.173 190.256C154.957 191.24 154.849 192.884 154.849 195.188C154.849 196.34 154.969 197.312 155.209 198.104C155.473 198.896 155.773 199.484 156.109 199.868C156.469 200.252 156.781 200.444 157.045 200.444ZM173.188 203.36C170.62 203.36 168.688 202.724 167.392 201.452C166.096 200.156 165.448 198.164 165.448 195.476C165.448 194.396 165.532 193.352 165.7 192.344C165.868 191.336 166.084 190.592 166.348 190.112C166.612 189.752 167.14 189.272 167.932 188.672C168.724 188.048 169.528 187.508 170.344 187.052C171.16 186.572 171.712 186.332 172 186.332C174.496 186.332 176.38 186.992 177.652 188.312C178.924 189.608 179.56 191.504 179.56 194C179.56 195.152 179.476 196.244 179.308 197.276C179.164 198.284 178.972 199.1 178.732 199.724C178.324 200.252 177.4 200.996 175.96 201.956C174.544 202.892 173.62 203.36 173.188 203.36ZM173.332 201.164C173.476 201.116 174.04 200.84 175.024 200.336C175.408 198.632 175.6 196.676 175.6 194.468C175.6 192.668 175.276 191.24 174.628 190.184C174.004 189.104 173.068 188.564 171.82 188.564C171.292 188.564 170.86 188.648 170.524 188.816C170.188 188.984 169.912 189.608 169.696 190.688C169.504 191.768 169.408 193.196 169.408 194.972C169.408 197.276 169.78 198.884 170.524 199.796C171.292 200.708 172.228 201.164 173.332 201.164Z" fill="white"/>
<defs>
<linearGradient id="paint0_linear_1053_20212" x1="188" y1="55" x2="54" y2="213" gradientUnits="userSpaceOnUse">
<stop offset="0.0166667" stop-color="#205EFF"/>
<stop offset="1" stop-color="#550098" stop-opacity="0.27"/>
</linearGradient>
<linearGradient id="paint1_linear_1053_20212" x1="188" y1="55" x2="54" y2="213" gradientUnits="userSpaceOnUse">
<stop offset="0.0166667" stop-color="#205EFF"/>
<stop offset="1" stop-color="#550098" stop-opacity="0.27"/>
</linearGradient>
<linearGradient id="paint2_linear_1053_20212" x1="188" y1="55" x2="54" y2="213" gradientUnits="userSpaceOnUse">
<stop offset="0.0166667" stop-color="#205EFF"/>
<stop offset="1" stop-color="#550098" stop-opacity="0.27"/>
</linearGradient>
<linearGradient id="paint3_linear_1053_20212" x1="188" y1="55" x2="54" y2="213" gradientUnits="userSpaceOnUse">
<stop offset="0.0166667" stop-color="#205EFF"/>
<stop offset="1" stop-color="#550098" stop-opacity="0.27"/>
</linearGradient>
<linearGradient id="paint4_linear_1053_20212" x1="124" y1="44" x2="124" y2="224" gradientUnits="userSpaceOnUse">
<stop stop-color="white"/>
<stop offset="1" stop-opacity="0.32"/>
</linearGradient>
<linearGradient id="paint5_linear_1053_20212" x1="124" y1="44" x2="124" y2="224" gradientUnits="userSpaceOnUse">
<stop stop-color="white"/>
<stop offset="1" stop-opacity="0.32"/>
</linearGradient>
<linearGradient id="paint6_linear_1053_20212" x1="141.5" y1="113.5" x2="119" y2="116" gradientUnits="userSpaceOnUse">
<stop/>
<stop offset="1" stop-opacity="0"/>
</linearGradient>
<linearGradient id="paint7_linear_1053_20212" x1="151" y1="118.1" x2="105.775" y2="121.965" gradientUnits="userSpaceOnUse">
<stop/>
<stop offset="1" stop-opacity="0"/>
</linearGradient>
<linearGradient id="paint8_linear_1053_20212" x1="179.708" y1="118.178" x2="63.7858" y2="135.46" gradientUnits="userSpaceOnUse">
<stop/>
<stop offset="1" stop-opacity="0"/>
</linearGradient>
<linearGradient id="paint9_linear_1053_20212" x1="142.5" y1="102.084" x2="75.0692" y2="109.885" gradientUnits="userSpaceOnUse">
<stop/>
<stop offset="1" stop-opacity="0"/>
</linearGradient>
<linearGradient id="paint10_linear_1053_20212" x1="103" y1="211" x2="109" y2="232" gradientUnits="userSpaceOnUse">
<stop stop-color="#FF00A8"/>
<stop offset="1" stop-color="#00F0FF"/>
</linearGradient>
<linearGradient id="paint11_linear_1053_20212" x1="211" y1="132" x2="214" y2="142.5" gradientUnits="userSpaceOnUse">
<stop stop-color="#FFB800"/>
<stop offset="1" stop-color="#FF0000"/>
</linearGradient>
<linearGradient id="paint12_linear_1053_20212" x1="39.2067" y1="124.099" x2="76" y2="140.5" gradientUnits="userSpaceOnUse">
<stop stop-color="#4EB29A"/>
<stop offset="1" stop-color="#1A16E9"/>
</linearGradient>
</defs>
</svg>
