<svg width="248" height="320" viewBox="0 0 248 320" fill="none" xmlns="http://www.w3.org/2000/svg">
<path d="M0 6C0 2.6863 2.68629 0 6 0H242C245.314 0 248 2.68629 248 6V314C248 317.314 245.314 320 242 320H5.99999C2.68629 320 0 317.314 0 314V6Z" fill="white"/>
<rect x="0.5" y="0.5" width="247" height="319" rx="5.5" fill="white" stroke="#D4D4D4"/>
<path d="M104.875 48.25V45.375H109.875H113.375H116H133.5H159.125V63.75L157.5 64.375L159.125 65.375V81.375L157.5 82.75H159.125V99L157.5 100.375L159.125 101V130.5H133.5H104.875V83.625L105.75 82.75L104.875 81.375V63.75V52.125L106.375 50.25L104.875 48.25Z" fill="#C4C4C4"/>
<path d="M53 124H49.75L48 126.25H45.75L44 119.375L48 116.564L46.375 113.375L48.625 109.375L53 108.625L56 113.375L55.625 115.375L57.8125 116.75L60 115.375V113.375H61.125V116.125L62.125 117.375V123.375L59.3125 123.125L58.625 124H53Z" fill="#C4C4C4"/>
<path d="M105.75 82.75L104.875 81.375V63.75M105.75 82.75L104.875 83.625V130.5H133.5M105.75 82.75H133.5M157.5 100.375L159.125 101V130.5H133.5M157.5 100.375L159.125 99V82.75H157.5M157.5 100.375L133.5 102M157.5 82.75L159.125 81.375V65.375L157.5 64.375M157.5 82.75H133.5M157.5 64.375L159.125 63.75V45.375H133.5M157.5 64.375L133.5 62.5M133.5 45.375V62.5M133.5 45.375H116M133.5 130.5V102M133.5 62.5L104.875 63.75M133.5 62.5V82.75M104.875 63.75V52.125L106.375 50.25L104.875 48.25V45.375H109.875M133.5 82.75V102M140 49.375V51.125M152 48.25V51.125M113.375 45.375V49.375H109.875V45.375M113.375 45.375H109.875M113.375 45.375H116M116 45.375V48.25M141.5 68.375V70.625M130.25 55.25V48.25M53 124V121.375L50.8125 118.75M53 124H49.75L48 126.25H45.75L44 119.375L48 116.564M53 124H58.625L59.3125 123.125M48 116.564L48.625 116.125L50.8125 118.75M48 116.564L46.375 113.375L48.625 109.375L53 108.625L56 113.375L55.625 115.375M50.8125 118.75L55.25 117.375L55.625 115.375M55.625 115.375L57.8125 116.75M57.8125 116.75L60 118.125V122.25L59.3125 123.125M57.8125 116.75L60 115.375V113.375H61.125V116.125L62.125 117.375M62.125 117.375L63.25 116.564M62.125 117.375V123.375L59.3125 123.125" stroke="black" stroke-width="2"/>
<path d="M44 74.375V45.375H75" stroke="black" stroke-width="2"/>
<path d="M204 74.375V45.375H173" stroke="black" stroke-width="2"/>
<path d="M44 196.375V225.375H75" stroke="black" stroke-width="2"/>
<path d="M204 196.375V225.375H173" stroke="black" stroke-width="2"/>
<path d="M109.125 133.812L108 133L113.062 132.562L118.812 114.562L117.312 108.5H120L122.938 101.875V100.688H124V98.875L121.938 99.5625L121.5 96.5625L120.812 95.875L121.938 92.125L122.438 93.375L123.312 91.75L128 91.3125V97.75L125.688 98.875V99.875H126.438L128.75 101.875V106.688L130.312 109.375L131.625 111.75L132 113.375L139.375 127.5L143.625 133.812H109.125Z" fill="white" stroke="black" stroke-width="2"/>
<path d="M44 130.875H57.6875V132L55.5 133.375L60 134.125L69.6875 134.438V133.375L61.9375 131.688L71.6875 130.875H74.6875M80 131.125L92.4375 130.875M96.5 131.125H100.938M44 141.375H49.75L50.875 140.062L52.3125 141.375L53.4375 141.938H57.6875L58.1875 140.438L60.6875 141.938H78.1875L78.5625 140.062L81.0625 141.375H104L108 142.125H112.438L115.5 139.625V141.875H118.562L119.5 139.625L120.75 141.875L123.438 141.375L134.875 142.125L145.312 141.875M151.688 142.125L162.375 142.688M164.438 141.875L165.688 143.688L167.125 142.688H173.188" stroke="black" stroke-width="2"/>
<path d="M83.4375 118.5L87 116.438L88.6875 116.812L95.5625 114.188L96.5938 113.375L97.625 112.562L100.312 112.125H108.75L111.678 113.505L114.188 114.688L117.272 119.188L118 120.25L117.68 121.924L116.625 127.438H108.375L104 128.188L104.75 134.875H102.5L100 128.188L101.625 127.438L96.8125 129.375L96.375 131.062L94.4375 135.438H92L92.5625 133.75L93.3125 130.625L93.1039 126.12L91.125 124.938H88V125.375L85.875 126.625H85.0625L84.5312 127.219L84 127.812H81.25L80.875 126.12L81.25 125.341L81.625 124.562V123.562L82 123V121.375L83.4375 118.5Z" fill="#DCCF9F"/>
<path d="M93 123.875L93.1039 126.12M93.1039 126.12L93.3125 130.625L92.5625 133.75L92 135.438H94.4375L96.375 131.062L96.8125 129.375L101.625 127.438L100 128.188L102.5 134.875H104.75L104 128.188L108.375 127.438H116.625L117.68 121.924M93.1039 126.12L91.125 124.938H88V125.375L85.875 126.625H85.0625L84.5312 127.219M84 123L85.0625 122.375M84.625 119.188L87.625 117.375V119.188L86.375 120.875M81.25 125.341L80.875 126.12L81.25 127.812H84L84.5312 127.219M81.25 125.341L81.625 124.562V123.562L82 123V121.375L83.4375 118.5L87 116.438L88.6875 116.812L95.5625 114.188L96.5938 113.375M81.25 125.341L84.5312 127.219M113.5 114.688L112.312 117.375L113 119.188M113 119.188H117.272M113 119.188V120.875L117.68 121.924M117.272 119.188L114.188 114.688L111.678 113.505M117.272 119.188L118 120.25L117.68 121.924M96.5938 113.375L97.625 112.562L100.312 112.125H108.75L111.678 113.505M96.5938 113.375L100 116.812L105.25 118.5L110 116.438L111.678 113.505" stroke="black" stroke-width="2"/>
<path d="M159.125 45.375H177.5L180 48.4405L183.413 52.625L185.706 55.4375L188 58.25L186.481 58.3157L182.93 61.9236L182.993 65.375L183.094 70.9938L183.352 85.375L184 121.375H170.25H159.125V72.625V66.625V59.5V52.625V48.4405V45.375Z" fill="#4F4F4F"/>
<path d="M159.125 59.5V66.625M159.125 59.5L170.997 58.9861M159.125 59.5V52.625M182.868 58.4721L174.623 58.8291M182.868 58.4721L186.481 58.3157M182.868 58.4721L182.93 61.9236M159.125 66.625L182.993 65.375M159.125 66.625V72.625M182.993 65.375L183.094 70.9938M182.993 65.375L182.93 61.9236M159.125 72.625V121.375H170.25M159.125 72.625L169.478 71.9205M183.094 70.9938L183.352 85.375M183.094 70.9938L174.623 71.5703M170.997 58.9861L174.623 58.8291M170.997 58.9861L171.274 62.508M172 71.7488L171.274 62.508M172 71.7488L169.478 71.9205M172 71.7488L174.623 71.5703M174.623 58.8291L171.274 62.508M169.478 71.9205L169.577 78.2566M170.25 121.375H184L183.352 85.375M170.25 121.375L169.703 86.3777M169.703 86.3777L183.352 85.375M169.703 86.3777L169.577 78.2566M174.623 71.5703L169.577 78.2566M186.481 58.3157L188 58.25L185.706 55.4375L183.413 52.625M186.481 58.3157L182.93 61.9236M180 48.4405L177.5 45.375H159.125V48.4405M180 48.4405H159.125M180 48.4405L183.413 52.625M159.125 48.4405V52.625M159.125 52.625H183.413" stroke="black" stroke-width="2"/>
<path d="M190.875 51.125L196 45.375H204V51.125V54.125V90.125V94.125V98.125V121.375H200H179.25V113.375H200V110.5H179.25V107.125H181.5L175.25 98.125H172L180 94.375L184 90.125H188V84.25L190.875 80.75H176V77.375V69.3523L175.25 69.375L173 68C175.792 66.875 182.4 64.475 186.5 63.875C190.6 63.275 194.542 62.4583 196 62.125V54.125H192.75V51.125H190.875Z" fill="#C4C4C4"/>
<path d="M204 51.125V45.375H196L190.875 51.125H192.75M204 51.125H192.75M204 51.125V54.125M192.75 51.125V54.125H196M204 54.125H200M204 54.125V90.125M196 54.125V62.125M196 54.125H200M196 62.125L200 61.375M196 62.125C194.542 62.4583 190.6 63.275 186.5 63.875C182.4 64.475 175.792 66.875 173 68L175.25 69.375L176 69.3523M200 61.375V54.125M200 61.375V68.625M200 121.375H204V98.125M200 121.375V113.375M200 121.375H179.25V113.375H200M200 68.625L195.107 68.7733M200 68.625V73M176 69.3523V77.375M176 69.3523L186.5 69.0341M176 77.375V80.75H190.875M176 77.375H182.25M200 77.375H199.25H190.875M200 77.375V80.75M200 77.375V73M200 80.75V90.125M200 80.75H190.875M184 81.375V90.125M184 90.125L180 94.375M184 90.125H188M200 90.125V98.125M200 90.125H194M200 90.125H204M200 98.125V107.125M200 98.125H181.5M200 98.125H204M180 94.375L172 98.125H175.25M180 94.375L204 94.125M200 107.125V110.5M200 107.125H190.125M200 110.5H179.25V107.125H181.5M200 110.5V113.375M181.5 98.125H175.25M181.5 98.125V100.375M181.5 107.125L175.25 98.125M181.5 107.125V100.375M181.5 107.125H190.125M188 90.125V84.25L190.875 80.75M188 90.125H194M190.875 80.75L193.75 84.25L194 90.125M190.875 77.375V72.25M190.875 77.375H182.25M190.875 72.25L195.107 68.7733M190.875 72.25L186.5 69.0341M195.107 68.7733L200 73M195.107 68.7733L186.5 69.0341M186.5 69.0341L182.25 72.25V77.375M204 90.125V94.125M204 98.125V94.125M181.5 100.375H190.125V107.125" stroke="black" stroke-width="2"/>
<path d="M196 159.75L204 163.75V225.375H44V174.375L45.125 176.625L47.375 177.375L53.75 181.375L56.625 183.875L58.5 182.125V174.375L59.25 166.375L61.125 162.875L64.875 159.125H72.625L78.125 164L80 167.875L82 179.75L84.625 185.375L86.25 184.625H88L91.125 183L94.75 190.25V192.5V195.5L98.375 203.125L103.125 198.375L106 189.375H107.25L111.375 182.125L122.375 177.375V173.375L121.375 172.25L120 169.375L118.25 168.5L117.125 164L118.875 162.875V157.375L125.125 150.375H131.375L132 155.125L134.75 159.125L135.375 162.875L137.125 164.75L134.75 167.875V170.125L132 174.375V178.25L133.375 179.75L136 181.375L140 184.875L144 182.75V179.75L143.375 178.25L142.5 176.5L141.125 174.375V172.25L142.5 171.625V169.375L143.375 166.125L149.5 162.875L153.75 165.375V167L156 169.375L157.75 166.125L160.875 164.75L169 160.75V159.75L173.75 156.625L174.875 157.375L177.5 156.625L178.125 154.125L173.75 152L169 146.375L174.875 141.375L176 138.5L180 132.5L187.125 130L192 131.625L195.375 134.375L197.5 138.5L198.5 142.5L204 150.125L196 156.625H194.5L196 159.75Z" stroke="black" stroke-width="2"/>
<path d="M44 70.5H72L82.625 82.5L86.875 86.875H84.875V119H81.25V122.25H77.75V119H44V110.125V106V102V96.75V86.875V79.375V70.5Z" fill="#C4C4C4"/>
<path d="M44 86.875V96.75M44 86.875H62.625M44 86.875V79.375M84.875 86.875H86.875L82.625 82.5M84.875 86.875V119H44V110.125M84.875 86.875H81.25M81.25 86.875V96.75M81.25 86.875H77.75M44 106H77.75V110.125M44 106V102M44 106V110.125M44 102V96.75M44 102H48.625M81.25 102V122.25H77.75V110.125M81.25 102V96.75M81.25 102H76.7812M81.25 96.75H77.75M44 96.75H48.625M62.625 96.75V90.375M62.625 96.75H60.625M62.625 96.75H64.75M62.625 86.875H66.875M62.625 86.875V90.375M77.75 86.875V96.75M77.75 86.875H66.875M77.75 96.75H76.75M44 110.125H77.75M66.875 86.875L62.625 90.375M82.625 82.5L72 70.5H44V79.375M82.625 82.5H79.625L76.75 79.375H70.5L73.375 82.5H66L62.625 79.375H55.875L58.125 82.5H50.375L48.625 79.375H44M48.625 96.75V102M48.625 96.75H54.125M48.625 102H54.125M54.125 96.75V101.375V102M54.125 96.75H60.625M54.125 102H60.625M60.625 96.75V102M60.625 102H66.875M66.875 96.75V102M66.875 96.75H72.3125M66.875 96.75H64.75M66.875 102H72.3125M72.3125 96.75V102M72.3125 96.75H74.5312M72.3125 102H76.7812M76.75 96.75L76.7812 102M76.75 96.75H74.5312M64.75 96.75L66.875 93.375L68 91.25V93.375H70.5V91.25H72V93.375L74.5312 96.75" stroke="black" stroke-width="2"/>
<path d="M55.25 70.625H52H48H44V67.125V63.625V52.125L52 52.5601V48.125H44V45.375H59.25H68.75V48.125L77.75 52.125L76.7394 52.5601L77.75 72H74.375V62.875H69.5V70.625H62.375H55.25Z" fill="#C4C4C4"/>
<path d="M59.25 45.375H68.75V48.125M59.25 45.375H44V48.125H52M59.25 45.375V48.125M54.375 53.375L59.25 52.125V48.125M54.375 53.375H52V57.375M54.375 53.375L54.5281 56.3926M55.25 70.625H52M55.25 70.625L54.8125 62M55.25 70.625H62.375M52 70.625V63.625M52 70.625H48M68.75 48.125L77.75 52.125L76.7394 52.5601M68.75 48.125V51L64 52.8011M54.8125 62L54.5281 56.3926M54.8125 62L62.1562 58.8384M54.5281 56.3926L56.4159 55.6768M76.7394 52.5601L77.75 72H74.375V62.875H69.5V70.625H62.375M76.7394 52.5601L74.375 53.578M69.5 55.6768V60.5H74.375V53.578M69.5 55.6768L74.375 53.578M69.5 55.6768L62.1562 58.8384M62.1562 58.8384L62.375 70.625M44 63.625H52M44 63.625V52.125L52 52.5601V48.125M44 63.625V67.125M52 63.625V57.375M52 48.125H59.25M60.875 48.125H62.375M65.125 48.125H66.625M56.4159 55.6768H64M56.4159 55.6768L64 52.8011M64 52.8011L71.25 53.375M65.125 67.375H66.625M44 67.125V70.625H48M44 67.125L48 67.375V70.625M52 57.375H48" stroke="black" stroke-width="2"/>
<path d="M100 108.188L98.5 107H97.75V105.375L98.5 105.688L100 106.562L101.875 106L104 104.125L103.125 103.688L104 100.312L106.125 100.625L106.812 103.25L106.125 104.125L107.562 104.625L109.375 108.5V112.75H108.312V113.875H107.188L105.625 116.062L106.125 121.375L105.062 121.062L102.312 116.062L104 112.188L104.375 109.25L102.812 107.625L100 108.188Z" fill="#B56464"/>
<path d="M106.125 121.375L103.125 122.062M106.125 121.375L105.062 121.062L102.312 116.062L104 112.188L104.375 109.25L102.812 107.625L100 108.188L98.5 107H97.75V105.375L98.5 105.688L100 106.562L101.875 106L104 104.125L103.125 103.688L104 100.312L106.125 100.625L106.812 103.25L106.125 104.125L107.562 104.625L109.375 108.5V112.75H108.312V113.875H107.188L105.625 116.062L106.125 121.375ZM98.5 94.8125V112.188" stroke="black" stroke-width="2"/>
<path d="M161.875 133.062H160.375L160.757 123.365L160.22 121.897L159.64 120.312H161V117.375H162.031L163.062 113.812H161.875V109.75H165.875V111.688L164.938 112.812L165.875 114.875L166.375 119.062V124.188L166.1 125.812L168 133.062H165.988H164.875H163.062H161.875Z" fill="#B56464"/>
<path d="M161 122L160.757 123.365M161 122V120.312M161 122L160.22 121.897L159.64 120.312H161M163.062 133.062H161.875H160.375L160.757 123.365M163.062 133.062H164.875M163.062 133.062L163.618 137.5M164.875 133.062H165.988M164.875 133.062L166.375 124.188V119.062M166.375 119.062L165.875 114.875L164.938 112.812L165.875 111.688V109.75H161.875V113.812H163.062L162.031 117.375M166.375 119.062L163.438 123.365M163.062 119.75V117.375H162.031M155.25 108.312L160.757 123.365M161 120.312V117.375H162.031M166.1 125.812L168 133.062H165.988M165.988 133.062V137.5" stroke="black" stroke-width="2"/>
<path d="M148.5 110.125H151.438V113L150.25 114.5L152.625 115.625L153.392 121.875L153.438 122.25L154 129.688H152H150.812L150.25 133.062H148.938H147.625V129.688H147.062L147.625 121.875L145.938 120.188L145.375 119.625L146.562 117.812V116.188H148L149.25 114.5L148.5 110.125Z" fill="#B56464"/>
<path d="M151.438 110.125H148.5L149.25 114.5L148 116.188H146.562V117.812L145.375 119.625L145.938 120.188M151.438 110.125V113L150.25 114.5L152.625 115.625L153.392 121.875M151.438 110.125L156 102.625M147.625 121.875L147.062 129.688H147.625M147.625 121.875H153.392M147.625 121.875L145.938 120.188M153.392 121.875L153.438 122.25L154 129.688H152M147.625 129.688V133.062H148.938M147.625 129.688H150.812M150.812 129.688L150.25 133.062H148.938M150.812 129.688H152M148.938 133.062V136.312M152 129.688L154.375 136.312M145.938 120.188L143.625 123.938" stroke="black" stroke-width="2"/>
<path d="M140 110.5V113.875L142.375 116.75L142.497 120.051L142.875 130.25H141.375L142.875 136.25H137.562L138.812 130.25H136.375L137.562 122.375L135.22 117.889L134.625 116.75L135.187 116.188L135.5 115.875L137.562 117.375V115.875L138.5 114.812L137 114.188V110.5H140Z" fill="#B56464"/>
<path d="M137.562 122.375L136.375 130.25H138.812M137.562 122.375L134.625 116.75L135.5 115.875L137.562 117.375V115.875L138.5 114.812L137 114.188V110.5H140V113.875L142.375 116.75L142.497 120.051M137.562 122.375L142.497 120.051M138.812 130.25L137.562 136.25M138.812 130.25H139.375M137.562 136.25L139.375 130.25M137.562 136.25H134.938H150.625M139.375 130.25H140.562M140.562 130.25L142.875 136.25L141.375 130.25M140.562 130.25H141.375M141.375 130.25H142.875L142.497 120.051M134.938 103.125L135.5 132.562" stroke="black" stroke-width="2"/>
<path d="M130.438 111.25L129.875 114.562L131.5 118.938L131.125 122.5L132.375 131.875L131.406 132.375L130.438 132.875L129.875 130.125L129.125 132.625H127.875H126.625V122.875V120.25L123.745 118.413L123 117.938L122.625 115.562L123.594 116.138L126.625 117.938L128 114.562V110.062L130.438 111.25Z" fill="#B56464"/>
<path d="M131.125 122.5L132.375 131.875L131.406 132.375M131.125 122.5L126.625 122.875M131.125 122.5L131.5 118.938L129.875 114.562L130.438 111.25L128 110.062V114.562L126.625 117.938L122.625 115.562L123 117.938L126.625 120.25V122.875M126.625 122.875V132.625H127.875M127.875 132.625H129.125L129.875 130.125L130.438 132.875L131.406 132.375M127.875 132.625V136.75M131.406 132.375L132 136.25M123 107.188L124.875 135.438" stroke="black" stroke-width="2"/>
<path d="M196 123.25C196 120 198.375 118.125 198.375 118.125M196 123.25C196 126.5 198.375 128.125 198.375 128.125M196 123.25H210.375M198.375 118.125C198.375 118.125 200.625 116 203.625 116M198.375 118.125L208.125 128.125M203.625 116C207.125 116 208.75 118.125 208.75 118.125M203.625 116V130.25M208.75 118.125C208.75 118.125 210.375 121.375 210.375 123.25M208.75 118.125L198.375 128.125M210.375 123.25C210.375 125.375 208.125 128.125 208.125 128.125M208.125 128.125C208.125 128.125 206.25 130.25 203.625 130.25M203.625 130.25C201.125 130.25 198.375 128.125 198.375 128.125" stroke="black" stroke-width="2"/>
<path d="M174.125 123.25C174.125 120 176.5 118.125 176.5 118.125M174.125 123.25C174.125 126.5 176.5 128.125 176.5 128.125M174.125 123.25H188.5M176.5 118.125C176.5 118.125 178.75 116 181.75 116M176.5 118.125L186.25 128.125M181.75 116C185.25 116 186.875 118.125 186.875 118.125M181.75 116V130.25M186.875 118.125C186.875 118.125 188.5 121.375 188.5 123.25M186.875 118.125L176.5 128.125M188.5 123.25C188.5 124.637 187.541 126.291 186.875 127.272M186.25 128.125C186.25 128.125 184.375 130.25 181.75 130.25M186.25 128.125C186.25 128.125 186.521 127.794 186.875 127.272M181.75 130.25C179.25 130.25 176.5 128.125 176.5 128.125M186.875 127.272H196.875" stroke="black" stroke-width="2"/>
<path d="M96 45.375H104.5V53.9375V66.0625L101.438 65.75V67.25L100 68.875L100.562 70.5625L93.1875 71.1875L84.6875 72.0625L82.25 70.5625L82.75 69.375L80.5 68.375L79.5625 70.125L77.5625 70.5625V66.375L88.4375 66.0625V62.0625H90.4375V66.0625H93.1875V56.25L91.5625 53.9375V51.0625L96 45.375Z" fill="#4F4F4F"/>
<path d="M86.25 79.9375L104.875 78.625V80.8125L100 81.1375V83.625V86V92.375L91.6795 93.1061V84.1875V81.6922L88 81.9375L86.25 79.9375Z" fill="#4F4F4F"/>
<path d="M102.625 83.25H104.875L104.5 87.4375L102.625 86.625V83.25Z" fill="#4F4F4F"/>
<path d="M91.5625 53.9375V51.0625L96 45.375H104.5V53.9375M91.5625 53.9375H104.5M91.5625 53.9375L93.1875 56.25V66.0625M104.5 53.9375V66.0625L101.438 65.75V67.25L100 68.875L100.562 70.5625L93.1875 71.1875M93.1875 71.1875V66.0625M93.1875 71.1875L84.6875 72.0625L82.25 70.5625L82.75 69.375L80.5 68.375L79.5625 70.125L77.5625 70.5625V66.375L88.4375 66.0625V62.0625H90.4375V66.0625H93.1875M101.812 58.375V63.9375M100 81.1375L104.875 80.8125V78.625L86.25 79.9375L88 81.9375L91.6795 81.6922M100 81.1375L91.6795 81.6922M100 81.1375V83.625M85.0625 93.6875L100 92.375V86M91.6795 81.6922V84.1875M91.6795 101.375V84.1875M91.6795 84.1875L97.4945 83.7944M100 83.625L97.4945 83.7944M100 83.625V86M97.4945 83.7944L100 86M95.5 58.375H98.375V63.9375H95.5V58.6875V58.375ZM104.875 83.25H102.625V86.625L104.5 87.4375L104.875 83.25Z" stroke="black" stroke-width="2"/>
<path d="M49.6717 248.455C49.6717 244.312 47.2427 241.73 43.8933 241.73C40.5439 241.73 38.1149 244.312 38.1149 248.455C38.1149 252.597 40.5439 255.179 43.8933 255.179C47.2427 255.179 49.6717 252.597 49.6717 248.455ZM48.1376 248.455C48.1376 251.855 46.2711 253.696 43.8933 253.696C41.5154 253.696 39.649 251.855 39.649 248.455C39.649 245.054 41.5154 243.213 43.8933 243.213C46.2711 243.213 48.1376 245.054 48.1376 248.455ZM52.1326 258.682H53.6412V253.491H53.769C54.1014 254.028 54.7406 255.205 56.6326 255.205C59.0872 255.205 60.8002 253.236 60.8002 250.116C60.8002 247.023 59.0872 245.054 56.6071 245.054C54.6895 245.054 54.1014 246.23 53.769 246.741H53.59V245.182H52.1326V258.682ZM53.6156 250.091C53.6156 247.892 54.5872 246.409 56.4281 246.409C58.3457 246.409 59.2917 248.02 59.2917 250.091C59.2917 252.188 58.3201 253.849 56.4281 253.849C54.6127 253.849 53.6156 252.315 53.6156 250.091ZM63.1014 258.682H64.6099V253.491H64.7377C65.0701 254.028 65.7093 255.205 67.6014 255.205C70.0559 255.205 71.769 253.236 71.769 250.116C71.769 247.023 70.0559 245.054 67.5758 245.054C65.6582 245.054 65.0701 246.23 64.7377 246.741H64.5588V245.182H63.1014V258.682ZM64.5843 250.091C64.5843 247.892 65.5559 246.409 67.3968 246.409C69.3145 246.409 70.2605 248.02 70.2605 250.091C70.2605 252.188 69.2889 253.849 67.3968 253.849C65.5815 253.849 64.5843 252.315 64.5843 250.091ZM78.0588 255.205C80.7179 255.205 82.5076 253.185 82.5076 250.142C82.5076 247.074 80.7179 245.054 78.0588 245.054C75.3997 245.054 73.6099 247.074 73.6099 250.142C73.6099 253.185 75.3997 255.205 78.0588 255.205ZM78.0588 253.849C76.0389 253.849 75.1184 252.111 75.1184 250.142C75.1184 248.173 76.0389 246.409 78.0588 246.409C80.0787 246.409 80.9991 248.173 80.9991 250.142C80.9991 252.111 80.0787 253.849 78.0588 253.849ZM86.3189 249.094C86.3189 247.381 87.38 246.409 88.8246 246.409C90.2244 246.409 91.0746 247.323 91.0746 248.864V255H92.5831V248.761C92.5831 246.256 91.2472 245.054 89.2592 245.054C87.7763 245.054 86.8558 245.719 86.3956 246.716H86.2678V245.182H84.8104V255H86.3189V249.094ZM99.4561 255.205C101.45 255.205 102.908 254.207 103.368 252.724L101.911 252.315C101.527 253.338 100.639 253.849 99.4561 253.849C97.6855 253.849 96.4647 252.705 96.3944 250.602H103.521V249.963C103.521 246.307 101.348 245.054 99.3027 245.054C96.6436 245.054 94.8794 247.151 94.8794 250.168C94.8794 253.185 96.6181 255.205 99.4561 255.205ZM96.3944 249.298C96.4966 247.771 97.5769 246.409 99.3027 246.409C100.939 246.409 101.987 247.636 101.987 249.298H96.3944ZM107.325 249.094C107.325 247.381 108.386 246.409 109.83 246.409C111.23 246.409 112.08 247.323 112.08 248.864V255H113.589V248.761C113.589 246.256 112.253 245.054 110.265 245.054C108.782 245.054 107.862 245.719 107.401 246.716H107.274V245.182H105.816V255H107.325V249.094ZM120.615 245.182H118.519V242.83H117.01V245.182H115.527V246.46H117.01V252.597C117.01 254.31 118.391 255.128 119.669 255.128C120.232 255.128 120.59 255.026 120.794 254.949L120.488 253.594C120.36 253.619 120.155 253.67 119.823 253.67C119.158 253.67 118.519 253.466 118.519 252.188V246.46H120.615V245.182ZM127.947 255H129.456V248.864C129.456 247.425 130.504 246.409 131.68 246.409C132.824 246.409 133.623 247.157 133.623 248.276V255H135.157V248.608C135.157 247.342 135.95 246.409 137.331 246.409C138.404 246.409 139.325 246.978 139.325 248.429V255H140.833V248.429C140.833 246.121 139.593 245.054 137.842 245.054C136.436 245.054 135.407 245.7 134.902 246.716H134.799C134.314 245.668 133.457 245.054 132.166 245.054C130.887 245.054 129.941 245.668 129.532 246.716H129.404V245.182H127.947V255ZM147.58 255.205C150.239 255.205 152.029 253.185 152.029 250.142C152.029 247.074 150.239 245.054 147.58 245.054C144.921 245.054 143.131 247.074 143.131 250.142C143.131 253.185 144.921 255.205 147.58 255.205ZM147.58 253.849C145.56 253.849 144.64 252.111 144.64 250.142C144.64 248.173 145.56 246.409 147.58 246.409C149.6 246.409 150.521 248.173 150.521 250.142C150.521 252.111 149.6 253.849 147.58 253.849ZM162.009 245.182H160.372L157.662 253.006H157.56L154.85 245.182H153.213L156.844 255H158.378L162.009 245.182ZM167.765 255.205C169.759 255.205 171.216 254.207 171.677 252.724L170.219 252.315C169.836 253.338 168.947 253.849 167.765 253.849C165.994 253.849 164.773 252.705 164.703 250.602H171.83V249.963C171.83 246.307 169.657 245.054 167.611 245.054C164.952 245.054 163.188 247.151 163.188 250.168C163.188 253.185 164.927 255.205 167.765 255.205ZM164.703 249.298C164.805 247.771 165.885 246.409 167.611 246.409C169.248 246.409 170.296 247.636 170.296 249.298H164.703ZM181.079 247.381C180.606 245.987 179.545 245.054 177.602 245.054C175.531 245.054 173.997 246.23 173.997 247.892C173.997 249.247 174.802 250.155 176.605 250.577L178.241 250.96C179.232 251.19 179.699 251.663 179.699 252.341C179.699 253.185 178.804 253.875 177.398 253.875C176.164 253.875 175.39 253.344 175.122 252.29L173.69 252.648C174.042 254.316 175.416 255.205 177.423 255.205C179.705 255.205 181.258 253.958 181.258 252.264C181.258 250.896 180.402 250.033 178.65 249.605L177.193 249.247C176.03 248.96 175.506 248.57 175.506 247.815C175.506 246.972 176.4 246.358 177.602 246.358C178.919 246.358 179.462 247.087 179.724 247.764L181.079 247.381ZM191.481 255.23C193.194 255.23 194.089 254.31 194.396 253.67H194.472V255H195.981V248.531C195.981 245.412 193.603 245.054 192.35 245.054C190.867 245.054 189.18 245.565 188.413 247.355L189.844 247.866C190.177 247.151 190.963 246.384 192.401 246.384C193.788 246.384 194.472 247.119 194.472 248.378V248.429C194.472 249.158 193.731 249.094 191.941 249.324C190.119 249.56 188.131 249.963 188.131 252.213C188.131 254.131 189.614 255.23 191.481 255.23ZM191.711 253.875C190.509 253.875 189.64 253.338 189.64 252.29C189.64 251.139 190.688 250.781 191.864 250.628C192.504 250.551 194.217 250.372 194.472 250.065V251.446C194.472 252.673 193.501 253.875 191.711 253.875ZM200.243 241.909H198.734V255H200.243V241.909ZM204.514 241.909H203.006V255H204.514V241.909ZM42.6388 267.182H40.5423V264.83H39.0337V267.182H37.5508V268.46H39.0337V274.597C39.0337 276.31 40.4144 277.128 41.6928 277.128C42.2553 277.128 42.6133 277.026 42.8178 276.949L42.511 275.594C42.3832 275.619 42.1786 275.67 41.8462 275.67C41.1815 275.67 40.5423 275.466 40.5423 274.188V268.46H42.6388V267.182ZM46.6275 271.094C46.6275 269.381 47.7205 268.409 49.2099 268.409C50.6289 268.409 51.4854 269.304 51.4854 270.864V277H52.994V270.761C52.994 268.237 51.6516 267.054 49.6445 267.054C48.0977 267.054 47.2156 267.7 46.7553 268.716H46.6275V263.909H45.119V277H46.6275V271.094ZM59.8702 277.205C61.8645 277.205 63.3219 276.207 63.7821 274.724L62.3248 274.315C61.9412 275.338 61.0527 275.849 59.8702 275.849C58.0996 275.849 56.8787 274.705 56.8084 272.602H63.9355V271.963C63.9355 268.307 61.7623 267.054 59.7168 267.054C57.0577 267.054 55.2935 269.151 55.2935 272.168C55.2935 275.185 57.0321 277.205 59.8702 277.205ZM56.8084 271.298C56.9107 269.771 57.9909 268.409 59.7168 268.409C61.3532 268.409 62.4015 269.636 62.4015 271.298H56.8084ZM66.2303 277H67.7388V267.182H66.2303V277ZM66.9973 265.545C67.5854 265.545 68.0712 265.085 68.0712 264.523C68.0712 263.96 67.5854 263.5 66.9973 263.5C66.4093 263.5 65.9235 263.96 65.9235 264.523C65.9235 265.085 66.4093 265.545 66.9973 265.545ZM70.5018 277H72.0103V270.787C72.0103 269.457 73.0586 268.486 74.4904 268.486C74.8931 268.486 75.3086 268.562 75.4109 268.588V267.054C75.2383 267.041 74.842 267.028 74.6183 267.028C73.4421 267.028 72.4194 267.693 72.0614 268.665H71.9592V267.182H70.5018V277ZM86.2502 277.205C88.4235 277.205 89.8553 275.875 90.111 274.136H88.6025C88.3212 275.21 87.4263 275.849 86.2502 275.849C84.4604 275.849 83.3098 274.366 83.3098 272.091C83.3098 269.866 84.486 268.409 86.2502 268.409C87.5797 268.409 88.3723 269.227 88.6025 270.122H90.111C89.8553 268.281 88.2956 267.054 86.2246 267.054C83.5655 267.054 81.8013 269.151 81.8013 272.142C81.8013 275.082 83.4888 277.205 86.2502 277.205ZM95.2054 277.23C96.9185 277.23 97.8134 276.31 98.1202 275.67H98.1969V277H99.7054V270.531C99.7054 267.412 97.3276 267.054 96.0748 267.054C94.5918 267.054 92.9043 267.565 92.1373 269.355L93.5691 269.866C93.9015 269.151 94.6877 268.384 96.1259 268.384C97.513 268.384 98.1969 269.119 98.1969 270.378V270.429C98.1969 271.158 97.4554 271.094 95.6657 271.324C93.8439 271.56 91.856 271.963 91.856 274.213C91.856 276.131 93.339 277.23 95.2054 277.23ZM95.4355 275.875C94.2338 275.875 93.3645 275.338 93.3645 274.29C93.3645 273.139 94.4128 272.781 95.589 272.628C96.2282 272.551 97.9412 272.372 98.1969 272.065V273.446C98.1969 274.673 97.2253 275.875 95.4355 275.875ZM102.459 277H103.967V270.787C103.967 269.457 105.016 268.486 106.447 268.486C106.85 268.486 107.266 268.562 107.368 268.588V267.054C107.195 267.041 106.799 267.028 106.575 267.028C105.399 267.028 104.376 267.693 104.018 268.665H103.916V267.182H102.459V277ZM112.565 277.205C114.457 277.205 115.096 276.028 115.428 275.491H115.607V277H117.065V263.909H115.556V268.741H115.428C115.096 268.23 114.508 267.054 112.59 267.054C110.11 267.054 108.397 269.023 108.397 272.116C108.397 275.236 110.11 277.205 112.565 277.205ZM112.769 275.849C110.877 275.849 109.906 274.188 109.906 272.091C109.906 270.02 110.852 268.409 112.769 268.409C114.61 268.409 115.582 269.892 115.582 272.091C115.582 274.315 114.585 275.849 112.769 275.849ZM126.991 269.381C126.518 267.987 125.457 267.054 123.514 267.054C121.443 267.054 119.909 268.23 119.909 269.892C119.909 271.247 120.714 272.155 122.517 272.577L124.153 272.96C125.144 273.19 125.611 273.663 125.611 274.341C125.611 275.185 124.716 275.875 123.31 275.875C122.076 275.875 121.303 275.344 121.034 274.29L119.602 274.648C119.954 276.316 121.328 277.205 123.335 277.205C125.617 277.205 127.17 275.958 127.17 274.264C127.17 272.896 126.314 272.033 124.562 271.605L123.105 271.247C121.942 270.96 121.418 270.57 121.418 269.815C121.418 268.972 122.312 268.358 123.514 268.358C124.831 268.358 125.374 269.087 125.636 269.764L126.991 269.381ZM138.774 267.182H136.677V264.83H135.169V267.182H133.686V268.46H135.169V274.597C135.169 276.31 136.549 277.128 137.828 277.128C138.39 277.128 138.748 277.026 138.953 276.949L138.646 275.594C138.518 275.619 138.313 275.67 137.981 275.67C137.316 275.67 136.677 275.466 136.677 274.188V268.46H138.774V267.182ZM144.926 277.205C147.585 277.205 149.375 275.185 149.375 272.142C149.375 269.074 147.585 267.054 144.926 267.054C142.267 267.054 140.477 269.074 140.477 272.142C140.477 275.185 142.267 277.205 144.926 277.205ZM144.926 275.849C142.906 275.849 141.986 274.111 141.986 272.142C141.986 270.173 142.906 268.409 144.926 268.409C146.946 268.409 147.866 270.173 147.866 272.142C147.866 274.111 146.946 275.849 144.926 275.849ZM160.729 277.205C162.902 277.205 164.334 275.875 164.589 274.136H163.081C162.8 275.21 161.905 275.849 160.729 275.849C158.939 275.849 157.788 274.366 157.788 272.091C157.788 269.866 158.964 268.409 160.729 268.409C162.058 268.409 162.851 269.227 163.081 270.122H164.589C164.334 268.281 162.774 267.054 160.703 267.054C158.044 267.054 156.28 269.151 156.28 272.142C156.28 275.082 157.967 277.205 160.729 277.205ZM168.303 271.094C168.303 269.381 169.396 268.409 170.886 268.409C172.305 268.409 173.161 269.304 173.161 270.864V277H174.67V270.761C174.67 268.237 173.327 267.054 171.32 267.054C169.773 267.054 168.891 267.7 168.431 268.716H168.303V263.909H166.795V277H168.303V271.094ZM180.319 277.23C182.032 277.23 182.927 276.31 183.233 275.67H183.31V277H184.819V270.531C184.819 267.412 182.441 267.054 181.188 267.054C179.705 267.054 178.018 267.565 177.251 269.355L178.682 269.866C179.015 269.151 179.801 268.384 181.239 268.384C182.626 268.384 183.31 269.119 183.31 270.378V270.429C183.31 271.158 182.569 271.094 180.779 271.324C178.957 271.56 176.969 271.963 176.969 274.213C176.969 276.131 178.452 277.23 180.319 277.23ZM180.549 275.875C179.347 275.875 178.478 275.338 178.478 274.29C178.478 273.139 179.526 272.781 180.702 272.628C181.341 272.551 183.055 272.372 183.31 272.065V273.446C183.31 274.673 182.339 275.875 180.549 275.875ZM187.572 277H189.081V267.182H187.572V277ZM188.339 265.545C188.927 265.545 189.413 265.085 189.413 264.523C189.413 263.96 188.927 263.5 188.339 263.5C187.751 263.5 187.265 263.96 187.265 264.523C187.265 265.085 187.751 265.545 188.339 265.545ZM193.352 271.094C193.352 269.381 194.413 268.409 195.858 268.409C197.258 268.409 198.108 269.323 198.108 270.864V277H199.616V270.761C199.616 268.256 198.28 267.054 196.292 267.054C194.809 267.054 193.889 267.719 193.429 268.716H193.301V267.182H191.844V277H193.352V271.094ZM203.472 277.102C204.105 277.102 204.623 276.585 204.623 275.952C204.623 275.319 204.105 274.801 203.472 274.801C202.839 274.801 202.322 275.319 202.322 275.952C202.322 276.585 202.839 277.102 203.472 277.102ZM31.8938 299H33.479V294.219H36.3427C39.3917 294.219 40.766 292.365 40.766 290.051C40.766 287.737 39.3917 285.909 36.3171 285.909H31.8938V299ZM33.479 292.812V287.315H36.266C38.3945 287.315 39.2063 288.479 39.2063 290.051C39.2063 291.624 38.3945 292.812 36.2915 292.812H33.479ZM44.6236 285.909H43.1151V299H44.6236V285.909ZM50.2757 299.23C51.9888 299.23 52.8837 298.31 53.1905 297.67H53.2672V299H54.7757V292.531C54.7757 289.412 52.3979 289.054 51.1451 289.054C49.6621 289.054 47.9746 289.565 47.2076 291.355L48.6394 291.866C48.9718 291.151 49.758 290.384 51.1962 290.384C52.5833 290.384 53.2672 291.119 53.2672 292.378V292.429C53.2672 293.158 52.5257 293.094 50.736 293.324C48.9142 293.56 46.9263 293.963 46.9263 296.213C46.9263 298.131 48.4093 299.23 50.2757 299.23ZM50.5059 297.875C49.3042 297.875 48.4348 297.338 48.4348 296.29C48.4348 295.139 49.4831 294.781 50.6593 294.628C51.2985 294.551 53.0115 294.372 53.2672 294.065V295.446C53.2672 296.673 52.2956 297.875 50.5059 297.875ZM58.1491 302.682C59.5107 302.682 60.4695 301.96 61.0384 300.432L65.2188 289.207L63.5696 289.182L60.8594 297.006H60.7571L58.0469 289.182H56.4105L60.0412 299.051L59.7599 299.818C59.2102 301.314 58.5327 301.455 57.4332 301.173L57.0497 302.503C57.2031 302.58 57.6378 302.682 58.1491 302.682ZM70.9796 299.205C72.9739 299.205 74.4313 298.207 74.8915 296.724L73.4341 296.315C73.0506 297.338 72.1621 297.849 70.9796 297.849C69.209 297.849 67.9881 296.705 67.9178 294.602H75.0449V293.963C75.0449 290.307 72.8716 289.054 70.8262 289.054C68.1671 289.054 66.4029 291.151 66.4029 294.168C66.4029 297.185 68.1415 299.205 70.9796 299.205ZM67.9178 293.298C68.0201 291.771 69.1003 290.409 70.8262 290.409C72.4625 290.409 73.5108 291.636 73.5108 293.298H67.9178ZM77.3397 299H78.8482V292.787C78.8482 291.457 79.8965 290.486 81.3283 290.486C81.731 290.486 82.1465 290.562 82.2488 290.588V289.054C82.0762 289.041 81.6799 289.028 81.4561 289.028C80.28 289.028 79.2573 289.693 78.8993 290.665H78.7971V289.182H77.3397V299ZM90.9915 291.381C90.5185 289.987 89.4574 289.054 87.5142 289.054C85.4432 289.054 83.9091 290.23 83.9091 291.892C83.9091 293.247 84.7145 294.155 86.517 294.577L88.1534 294.96C89.1442 295.19 89.6108 295.663 89.6108 296.341C89.6108 297.185 88.7159 297.875 87.3097 297.875C86.076 297.875 85.3026 297.344 85.0341 296.29L83.6023 296.648C83.9538 298.316 85.3281 299.205 87.3352 299.205C89.6172 299.205 91.1705 297.958 91.1705 296.264C91.1705 294.896 90.3139 294.033 88.5625 293.605L87.1051 293.247C85.9418 292.96 85.4176 292.57 85.4176 291.815C85.4176 290.972 86.3125 290.358 87.5142 290.358C88.831 290.358 89.3743 291.087 89.6364 291.764L90.9915 291.381ZM102.492 299.205C104.666 299.205 106.097 297.875 106.353 296.136H104.845C104.563 297.21 103.669 297.849 102.492 297.849C100.703 297.849 99.552 296.366 99.552 294.091C99.552 291.866 100.728 290.409 102.492 290.409C103.822 290.409 104.615 291.227 104.845 292.122H106.353C106.097 290.281 104.538 289.054 102.467 289.054C99.8077 289.054 98.0435 291.151 98.0435 294.142C98.0435 297.082 99.731 299.205 102.492 299.205ZM111.448 299.23C113.161 299.23 114.056 298.31 114.362 297.67H114.439V299H115.948V292.531C115.948 289.412 113.57 289.054 112.317 289.054C110.834 289.054 109.146 289.565 108.379 291.355L109.811 291.866C110.144 291.151 110.93 290.384 112.368 290.384C113.755 290.384 114.439 291.119 114.439 292.378V292.429C114.439 293.158 113.698 293.094 111.908 293.324C110.086 293.56 108.098 293.963 108.098 296.213C108.098 298.131 109.581 299.23 111.448 299.23ZM111.678 297.875C110.476 297.875 109.607 297.338 109.607 296.29C109.607 295.139 110.655 294.781 111.831 294.628C112.47 294.551 114.183 294.372 114.439 294.065V295.446C114.439 296.673 113.468 297.875 111.678 297.875ZM120.21 293.094C120.21 291.381 121.271 290.409 122.715 290.409C124.115 290.409 124.965 291.323 124.965 292.864V299H126.474V292.761C126.474 290.256 125.138 289.054 123.15 289.054C121.667 289.054 120.746 289.719 120.286 290.716H120.158V289.182H118.701V299H120.21V293.094ZM130.56 285.909H129.128V287.085C129.128 288.031 128.668 288.849 128.131 289.616L128.949 290.281C129.972 289.463 130.56 288.108 130.56 287.06V285.909ZM137.086 289.182H134.99V286.83H133.481V289.182H131.998V290.46H133.481V296.597C133.481 298.31 134.862 299.128 136.14 299.128C136.703 299.128 137.061 299.026 137.265 298.949L136.958 297.594C136.83 297.619 136.626 297.67 136.294 297.67C135.629 297.67 134.99 297.466 134.99 296.188V290.46H137.086V289.182ZM144.418 299H145.926V292.787C145.926 291.457 146.975 290.486 148.406 290.486C148.809 290.486 149.225 290.562 149.327 290.588V289.054C149.154 289.041 148.758 289.028 148.534 289.028C147.358 289.028 146.335 289.693 145.977 290.665H145.875V289.182H144.418V299ZM154.933 299.205C156.927 299.205 158.384 298.207 158.845 296.724L157.387 296.315C157.004 297.338 156.115 297.849 154.933 297.849C153.162 297.849 151.941 296.705 151.871 294.602H158.998V293.963C158.998 290.307 156.825 289.054 154.779 289.054C152.12 289.054 150.356 291.151 150.356 294.168C150.356 297.185 152.095 299.205 154.933 299.205ZM151.871 293.298C151.973 291.771 153.053 290.409 154.779 290.409C156.416 290.409 157.464 291.636 157.464 293.298H151.871ZM168.247 291.381C167.774 289.987 166.713 289.054 164.77 289.054C162.699 289.054 161.165 290.23 161.165 291.892C161.165 293.247 161.97 294.155 163.773 294.577L165.409 294.96C166.4 295.19 166.867 295.663 166.867 296.341C166.867 297.185 165.972 297.875 164.566 297.875C163.332 297.875 162.558 297.344 162.29 296.29L160.858 296.648C161.21 298.316 162.584 299.205 164.591 299.205C166.873 299.205 168.426 297.958 168.426 296.264C168.426 294.896 167.57 294.033 165.818 293.605L164.361 293.247C163.198 292.96 162.673 292.57 162.673 291.815C162.673 290.972 163.568 290.358 164.77 290.358C166.087 290.358 166.63 291.087 166.892 291.764L168.247 291.381ZM170.697 302.682H172.206V297.491H172.333C172.666 298.028 173.305 299.205 175.197 299.205C177.652 299.205 179.365 297.236 179.365 294.116C179.365 291.023 177.652 289.054 175.172 289.054C173.254 289.054 172.666 290.23 172.333 290.741H172.154V289.182H170.697V302.682ZM172.18 294.091C172.18 291.892 173.152 290.409 174.993 290.409C176.91 290.409 177.856 292.02 177.856 294.091C177.856 296.188 176.885 297.849 174.993 297.849C173.177 297.849 172.18 296.315 172.18 294.091ZM185.654 299.205C188.314 299.205 190.103 297.185 190.103 294.142C190.103 291.074 188.314 289.054 185.654 289.054C182.995 289.054 181.206 291.074 181.206 294.142C181.206 297.185 182.995 299.205 185.654 299.205ZM185.654 297.849C183.635 297.849 182.714 296.111 182.714 294.142C182.714 292.173 183.635 290.409 185.654 290.409C187.674 290.409 188.595 292.173 188.595 294.142C188.595 296.111 187.674 297.849 185.654 297.849ZM193.915 293.094C193.915 291.381 194.976 290.409 196.42 290.409C197.82 290.409 198.67 291.323 198.67 292.864V299H200.179V292.761C200.179 290.256 198.843 289.054 196.855 289.054C195.372 289.054 194.452 289.719 193.991 290.716H193.863V289.182H192.406V299H193.915V293.094ZM206.643 299.205C208.535 299.205 209.174 298.028 209.506 297.491H209.685V299H211.143V285.909H209.634V290.741H209.506C209.174 290.23 208.586 289.054 206.668 289.054C204.188 289.054 202.475 291.023 202.475 294.116C202.475 297.236 204.188 299.205 206.643 299.205ZM206.847 297.849C204.955 297.849 203.984 296.188 203.984 294.091C203.984 292.02 204.93 290.409 206.847 290.409C208.688 290.409 209.66 291.892 209.66 294.091C209.66 296.315 208.663 297.849 206.847 297.849ZM215.214 299.102C215.847 299.102 216.365 298.585 216.365 297.952C216.365 297.319 215.847 296.801 215.214 296.801C214.582 296.801 214.064 297.319 214.064 297.952C214.064 298.585 214.582 299.102 215.214 299.102Z" fill="black" fill-opacity="0.87"/>
<path d="M216 160H236V176L228 184.5L236 192V208H226H216V160Z" fill="#FF4B3C" stroke="black" stroke-width="2"/>
<path d="M216 160H236V176L228 184.5L236 192V208H226H216V160Z" fill="black" fill-opacity="0.17"/>
<path d="M224 168L216 160V168H224Z" fill="black" fill-opacity="0.38" stroke="black" stroke-width="2" stroke-linejoin="bevel"/>
<path d="M248 176L240 184L248 192V176Z" fill="#D4D4D4"/>
<path d="M32 160H12V176L20 184.5L12 192V208H22H32V160Z" fill="#FF4B3C" stroke="black" stroke-width="2"/>
<path d="M32 160H12V176L20 184.5L12 192V208H22H32V160Z" fill="black" fill-opacity="0.17"/>
<path d="M24 168L32 160V168H24Z" fill="black" fill-opacity="0.38" stroke="black" stroke-width="2" stroke-linejoin="bevel"/>
<path d="M0 176L8 184L0 192V176Z" fill="#D4D4D4"/>
<path d="M224 168H24V216H224V168Z" fill="#FF4B3C" stroke="black" stroke-width="2"/>
<path d="M71.7252 201.452L74.1012 200.696V183.524L70.3932 183.776L69.9972 188.168H67.8732L67.4052 181.256H84.6852L84.2172 188.168H82.0932L81.6972 183.776L77.9892 183.524V200.552L80.5092 201.272V203H71.7252V201.452ZM88.6846 203.36C88.5646 203.36 88.3126 203.18 87.9286 202.82C87.5686 202.46 87.3886 202.22 87.3886 202.1V189.032L86.0566 188.564V187.052C88.1926 186.668 89.3806 186.476 89.6206 186.476C89.7406 186.476 90.0046 186.68 90.4126 187.088C90.8446 187.472 91.0606 187.712 91.0606 187.808L90.9886 189.14C92.7406 187.244 93.6886 186.296 93.8326 186.296C94.2646 186.296 95.0926 186.488 96.3166 186.872C96.3886 187.04 96.4486 187.244 96.4966 187.484C96.5446 187.7 96.5686 187.904 96.5686 188.096C96.5686 188.288 96.4006 188.708 96.0646 189.356C95.7526 189.98 95.5486 190.316 95.4526 190.364C94.5166 190.004 93.8566 189.824 93.4726 189.824C93.3046 189.824 92.9926 189.932 92.5366 190.148C92.0806 190.34 91.6126 190.58 91.1326 190.868V200.48L93.0766 201.056V202.712C90.3886 203.144 88.9246 203.36 88.6846 203.36ZM100.537 203.36C100.393 203.36 100.105 203.168 99.6733 202.784C99.2413 202.376 99.0253 202.112 99.0253 201.992V188.996L97.6933 188.564V187.052C99.8533 186.668 101.053 186.476 101.293 186.476C101.437 186.476 101.713 186.668 102.121 187.052C102.529 187.412 102.733 187.676 102.733 187.844V200.804L104.029 201.2V202.712C101.941 203.144 100.777 203.36 100.537 203.36ZM98.7733 179.78L101.905 179.6L102.517 180.428L102.301 183.668H99.0613L98.7733 179.78ZM113.833 203.36C113.569 203.36 112.573 203.24 110.845 203C109.141 202.784 107.965 202.604 107.317 202.46V182.264L106.021 181.76V180.248C106.621 180.128 107.293 180.008 108.037 179.888C108.805 179.768 109.381 179.684 109.765 179.636C109.885 179.636 110.125 179.816 110.485 180.176C110.869 180.536 111.061 180.776 111.061 180.896L110.845 188.816L111.061 188.888L111.853 188.276C112.069 188.132 112.525 187.796 113.221 187.268C113.941 186.716 114.361 186.44 114.481 186.44C115.513 186.44 116.461 186.728 117.325 187.304C118.189 187.88 118.885 188.744 119.413 189.896C119.941 191.048 120.205 192.464 120.205 194.144C120.205 195.344 120.121 196.448 119.953 197.456C119.809 198.44 119.605 199.196 119.341 199.724C118.933 200.276 118.021 201.02 116.605 201.956C115.213 202.892 114.289 203.36 113.833 203.36ZM114.985 201.128C115.393 201.032 115.705 200.504 115.921 199.544C116.137 198.56 116.245 196.928 116.245 194.648C116.245 193.496 116.125 192.524 115.885 191.732C115.645 190.94 115.345 190.352 114.985 189.968C114.649 189.56 114.349 189.356 114.085 189.356C113.965 189.356 113.545 189.524 112.825 189.86C112.105 190.172 111.517 190.448 111.061 190.688V200.372C111.661 200.588 112.393 200.792 113.257 200.984C114.121 201.152 114.697 201.2 114.985 201.128ZM129.064 203.36C127.312 203.36 125.992 202.916 125.104 202.028C124.24 201.14 123.808 199.604 123.808 197.42V189.104L122.548 188.564V187.052C124.756 186.668 125.968 186.476 126.184 186.476C126.304 186.476 126.556 186.656 126.94 187.016C127.348 187.352 127.552 187.58 127.552 187.7V197.384C127.552 199.424 128.188 200.444 129.46 200.444C129.7 200.444 130.708 200.024 132.484 199.184V189.104L131.188 188.564V187.052C133.444 186.668 134.68 186.476 134.896 186.476C135.016 186.476 135.268 186.656 135.652 187.016C136.036 187.352 136.228 187.58 136.228 187.7V200.66L137.488 201.2V202.748C135.256 203.156 134.032 203.36 133.816 203.36C133.696 203.36 133.456 203.18 133.096 202.82C132.76 202.46 132.592 202.22 132.592 202.1V200.84C131.968 201.344 131.248 201.896 130.432 202.496C129.616 203.072 129.16 203.36 129.064 203.36ZM142.298 203.36C142.178 203.36 141.926 203.18 141.542 202.82C141.182 202.46 141.002 202.22 141.002 202.1V189.104L139.67 188.564V187.052C141.926 186.668 143.174 186.476 143.414 186.476C143.534 186.476 143.762 186.656 144.098 187.016C144.434 187.352 144.602 187.58 144.602 187.7V188.96C145.298 188.432 146.054 187.892 146.87 187.34C147.686 186.764 148.142 186.476 148.238 186.476C149.99 186.476 151.31 186.92 152.198 187.808C153.086 188.672 153.53 190.196 153.53 192.38V200.66L154.826 201.2V202.712C152.594 203.144 151.37 203.36 151.154 203.36C151.034 203.36 150.77 203.18 150.362 202.82C149.978 202.46 149.786 202.22 149.786 202.1V192.38C149.786 190.364 149.162 189.356 147.914 189.356C147.794 189.356 147.47 189.464 146.942 189.68C146.438 189.896 146.066 190.052 145.826 190.148C145.586 190.268 145.226 190.424 144.746 190.616V200.66L146.006 201.2V202.712C143.774 203.144 142.538 203.36 142.298 203.36ZM162.977 203.36C161.921 203.36 160.949 203.072 160.061 202.496C159.197 201.896 158.501 201.008 157.973 199.832C157.469 198.656 157.217 197.216 157.217 195.512C157.217 194.384 157.301 193.34 157.469 192.38C157.637 191.396 157.853 190.628 158.117 190.076C158.525 189.524 159.425 188.78 160.817 187.844C162.233 186.908 163.169 186.44 163.625 186.44C163.889 186.44 164.825 186.56 166.433 186.8C168.041 187.016 169.277 187.196 170.141 187.34V200.696L171.401 201.2V202.748C169.217 203.156 168.005 203.36 167.765 203.36C167.669 203.36 167.429 203.18 167.045 202.82C166.685 202.46 166.505 202.22 166.505 202.1V200.804C164.321 202.508 163.145 203.36 162.977 203.36ZM163.373 200.444C163.613 200.444 164.621 200 166.397 199.112V189.428C165.821 189.212 165.089 189.02 164.201 188.852C163.337 188.66 162.761 188.588 162.473 188.636C162.041 188.732 161.717 189.272 161.501 190.256C161.285 191.24 161.177 192.884 161.177 195.188C161.177 196.34 161.297 197.312 161.537 198.104C161.801 198.896 162.101 199.484 162.437 199.868C162.797 200.252 163.109 200.444 163.373 200.444ZM176.046 203.36C175.926 203.36 175.674 203.18 175.29 202.82C174.93 202.46 174.75 202.22 174.75 202.1V182.264L173.418 181.76V180.248C175.746 179.84 177.018 179.636 177.234 179.636C177.354 179.636 177.582 179.816 177.918 180.176C178.278 180.512 178.458 180.752 178.458 180.896V200.66L179.754 201.2V202.712C177.522 203.144 176.286 203.36 176.046 203.36Z" fill="white"/>
</svg>
