<svg width="248" height="320" viewBox="0 0 248 320" fill="none" xmlns="http://www.w3.org/2000/svg">
<path d="M0 6C0 2.6863 2.68629 0 6 0H242C245.314 0 248 2.68629 248 6V314C248 317.314 245.314 320 242 320H5.99999C2.68629 320 0 317.314 0 314V6Z" fill="white"/>
<rect x="0.5" y="0.5" width="247" height="319" rx="5.5" fill="white" stroke="#D4D4D4"/>
<rect x="44" y="44" width="160" height="180" fill="black" fill-opacity="0.1"/>
<path d="M43.9355 44H203.936V150.25L196.891 160L188.891 156.5L117.391 165L120.891 172H114.891L110.391 168L103.413 172H77.8906V165L84.3906 161.5L43.9355 150.25V44Z" fill="url(#paint0_linear_155_1)"/>
<path d="M43.9355 44H65.2417L69.8906 46.25L68.3906 78L61.4041 81L68.3906 82.75L65.8906 136.25L61.4041 138.75L65.8906 142.75V156.125L43.9355 150.25V44Z" fill="#73604A"/>
<path d="M204.412 44H189.891L180.641 92L174.641 124.75L172.641 136.25L178.391 138.25L181.891 146.75H185.891L189.891 159L196.391 159.625L198.266 158.375L204.412 159V44Z" fill="#73604A"/>
<path d="M81.3906 44H97.3906L107.891 91L122.891 161V165V162.75V176.125L100.936 170.25L91.8906 114H85.8906L76.1406 102.25L79.6406 89.75L90.1406 91L81.3906 44Z" fill="#73604A"/>
<path d="M110.391 32.0625L117.024 31.3426" stroke="black" stroke-width="2"/>
<path d="M35.8906 148L65.8906 156.571M209.891 158.286H197.891V161.714L193.891 158.286L192.391 158.437M69.8906 45.25L67.8906 78.25L59.3906 81.25L43.8906 80L67.8906 82.75L66.448 136M65.8906 156.571L83.8906 161.714L77.8906 165.143V172H91.8906L93.8906 168.571V172H101.891L109.891 168.571L113.891 172L121.891 170.286L117.891 165.143H121.891M65.8906 156.571L66.2312 144M81.8906 44L90.8906 92L100.141 102L97.8906 109.75L91.8906 112L101.891 170.286M97.8906 44L121.891 165.143M121.891 165.143H125.891L192.391 158.437M88.6406 92L79.3906 90.5L75.8906 102L85.8906 114.25L89.8906 112M172.391 136L174.673 124M197.891 92L203.641 44H189.891L180.76 92M197.891 92H192.391M197.891 92L203.641 96M180.76 92H192.391M180.76 92L174.673 124M192.391 92L197.891 96L193.891 125.5M193.891 125.5L197.891 128V132L201.891 133.75V142.25L192.391 158.437M193.891 125.5L174.673 124M66.3396 140L66.448 136M66.3396 140L61.8906 138.749M66.3396 140L66.2312 144M37.8906 132L61.8906 138.749M66.448 136L61.8906 138.749M61.8906 138.749L66.2312 144" stroke="black" stroke-width="2"/>
<path d="M43.9531 56.2041H47.6406V61.3291H43.9531" stroke="black" stroke-width="2"/>
<path d="M49.8905 54.9967L50.3301 50.1416L55.123 50.5756L54.6834 55.4307L49.8905 54.9967Z" stroke="black" stroke-width="2"/>
<path d="M57.4278 49.4223L58.1562 44.6021L62.9147 45.3211L62.1863 50.1414L57.4278 49.4223Z" stroke="black" stroke-width="2"/>
<path d="M51.4278 66.3943L53.5264 61.9941L57.8701 64.0658L55.7716 68.466L51.4278 66.3943Z" stroke="black" stroke-width="2"/>
<path d="M93.6984 82.4388L90.208 80.8828L92.041 78.0859L96.0531 79.3697L93.6984 82.4388Z" stroke="black" stroke-width="2"/>
<path d="M96.2421 90.3973L92.8564 88.625L94.8617 85.9489L98.7851 87.4823L96.2421 90.3973Z" stroke="black" stroke-width="2"/>
<path d="M99.6577 97.9962L96.1367 96.5107L97.9131 93.6775L101.95 94.8804L99.6577 97.9962Z" stroke="black" stroke-width="2"/>
<path d="M48.7578 79L45.7969 78.126L47.2694 74.7961L50.6425 76.2877L48.7578 79Z" stroke="black" stroke-width="2"/>
<path d="M48.7578 72.2041L45.7969 71.3301L47.2694 68.0002L50.6425 69.4918L48.7578 72.2041Z" stroke="black" stroke-width="2"/>
<path d="M51.8823 82.75L49.5312 83.7124L49.0959 80.469L52.5409 80.0066L51.8823 82.75Z" stroke="black" stroke-width="2"/>
<path d="M56.7818 86.3447L54.7188 87.8271L53.5416 84.7737L56.7848 83.5234L56.7818 86.3447Z" stroke="black" stroke-width="2"/>
<path d="M61.2027 88.7232L59.1396 90.2056L58.5078 87.3125L61.2057 85.9018L61.2027 88.7232Z" stroke="black" stroke-width="2"/>
<path d="M66.9795 90.659L65.1621 92.4341L64.1035 89.6685L66.5593 87.8691L66.9795 90.659Z" stroke="black" stroke-width="2"/>
<path d="M73.1807 93.5013L71.3633 95.2764L70.3047 92.5108L72.7604 90.7114L73.1807 93.5013Z" stroke="black" stroke-width="2"/>
<path d="M79.1117 95.9014L77.6953 97.5913L76.5424 95.2942L78.508 93.5282L79.1117 95.9014Z" stroke="black" stroke-width="2"/>
<path d="M84.2311 97.8368L83.2148 99.0493L82.3876 97.4011L83.798 96.134L84.2311 97.8368Z" stroke="black" stroke-width="2"/>
<path d="M89.5983 99.7191L88.582 100.932L87.7548 99.2834L89.1652 98.0163L89.5983 99.7191Z" stroke="black" stroke-width="2"/>
<path d="M104.288 100.913L103.271 102.125L102.444 100.477L103.855 99.2101L104.288 100.913Z" stroke="black" stroke-width="2"/>
<path d="M65.7031 44.2041L67.4531 39.5791L71.1406 42.1416L69.8906 46.9541L65.7031 44.2041Z" stroke="black" stroke-width="2"/>
<path d="M74.2038 40.4464L76.2695 36.3018L79.1091 39.6311L77.9567 43.4668L74.2038 40.4464Z" stroke="black" stroke-width="2"/>
<path d="M82.5739 38.2862L84.6396 34.1416L88.4141 36.9668L86.3268 41.3066L82.5739 38.2862Z" stroke="black" stroke-width="2"/>
<path d="M90.944 35.8214L93.0098 31.6768L96.7842 34.502L94.6969 38.8418L90.944 35.8214Z" stroke="black" stroke-width="2"/>
<path d="M97.9577 33.586L100.023 29.4414L103.798 32.2666L101.711 36.6064L97.9577 33.586Z" stroke="black" stroke-width="2"/>
<path d="M106.419 31.6935L109.213 28L112.403 31.4718L109.552 35.3531L106.419 31.6935Z" stroke="black" stroke-width="2"/>
<path d="M115.024 31.1486L117.962 28.3735L120.205 31.8225L117.191 34.751L115.024 31.1486Z" stroke="black" stroke-width="2"/>
<path d="M130.844 33.4028L133.018 31.3501L134.677 33.9013L132.447 36.0675L130.844 33.4028Z" stroke="black" stroke-width="2"/>
<path d="M137.772 34.6719L140.401 33.25L141.346 36.1432L138.632 37.6602L137.772 34.6719Z" stroke="black" stroke-width="2"/>
<path d="M144.45 37.2408L147.079 35.8188L148.024 38.7121L145.31 40.2291L144.45 37.2408Z" stroke="black" stroke-width="2"/>
<path d="M150.412 40.4785L153.042 39.0566L153.986 41.9499L151.273 43.4668L150.412 40.4785Z" stroke="black" stroke-width="2"/>
<path d="M157.956 43.1995L162.609 43.4775L161.482 48.0876L156.639 47.8667L157.956 43.1995Z" stroke="black" stroke-width="2"/>
<path d="M163.925 48.2005L168.578 48.4785L167.451 53.0886L162.608 52.8677L163.925 48.2005Z" stroke="black" stroke-width="2"/>
<path d="M169.237 54.4754L173.891 54.7534L172.763 59.3635L167.921 59.1426L169.237 54.4754Z" stroke="black" stroke-width="2"/>
<path d="M173.162 61.5552L177.443 63.3994L174.815 67.3512L170.336 65.4962L173.162 61.5552Z" stroke="black" stroke-width="2"/>
<path d="M174.904 78.9465L177.372 82.9014L172.961 84.6515L170.337 80.5754L174.904 78.9465Z" stroke="black" stroke-width="2"/>
<path d="M175.828 70.9465L178.296 74.9014L173.884 76.6515L171.261 72.5754L175.828 70.9465Z" stroke="black" stroke-width="2"/>
<path d="M123.682 30.9427L126.71 28.8745L128.229 32.2843L125.111 34.4791L123.682 30.9427Z" stroke="black" stroke-width="2"/>
<path d="M45.8906 58.1416L51.8281 53.5791" stroke="black" stroke-width="2"/>
<path d="M53.8906 51.9341L59.0781 47.8916" stroke="black" stroke-width="2"/>
<path d="M48.4424 69.2725L52.9766 65.875" stroke="black" stroke-width="2"/>
<path d="M47.8088 76.1668L47.9894 70.5039" stroke="black" stroke-width="2"/>
<path d="M50.4484 81.3663L47.7441 77.8686" stroke="black" stroke-width="2"/>
<path d="M54.424 85.0551L51.1353 82.1001" stroke="black" stroke-width="2"/>
<path d="M59.2702 87.7497L55.5226 85.4037" stroke="black" stroke-width="2"/>
<path d="M64.4662 90.0886L60.2991 88.6109" stroke="black" stroke-width="2"/>
<path d="M70.755 92.4882L67.2656 91.25" stroke="black" stroke-width="2"/>
<path d="M97.9928 94.2039L96.7634 90.7115" stroke="black" stroke-width="2"/>
<path d="M102.362 100.295L99.6248 97.8025" stroke="black" stroke-width="2"/>
<path d="M94.8776 85.6751L93.6481 82.1827" stroke="black" stroke-width="2"/>
<path d="M92.1881 78.7464L90.9587 75.254" stroke="black" stroke-width="2"/>
<path d="M77.6088 95.614L73.4417 94.1363" stroke="black" stroke-width="2"/>
<path d="M83.2142 97.8118L79.0472 96.3341" stroke="black" stroke-width="2"/>
<path d="M88.2181 99.4729L84.0511 97.9952" stroke="black" stroke-width="2"/>
<path d="M92.7045 100.931L88.5374 99.4537" stroke="black" stroke-width="2"/>
<path d="M61.3281 46.6416L67.2031 43.4541" stroke="black" stroke-width="2"/>
<path d="M69.3125 42.9004L75.7661 40.0166" stroke="black" stroke-width="2"/>
<path d="M77.4531 39.8291C77.4531 39.8291 79.2716 38.9155 80.5781 38.4541C81.9911 37.9551 84.3281 37.6416 84.3281 37.6416" stroke="black" stroke-width="2"/>
<path d="M86.1346 37.0574C86.1346 37.0574 87.9564 36.4582 89.2308 36.2195C90.6089 35.9614 92.7973 36.0382 92.7973 36.0382" stroke="black" stroke-width="2"/>
<path d="M94.1587 35.4466C94.1587 35.4466 95.8569 34.5552 97.0745 34.1098C98.3912 33.6281 100.562 33.3431 100.562 33.3431" stroke="black" stroke-width="2"/>
<path d="M101.891 33.2428C101.891 33.2428 103.689 32.576 104.954 32.29C106.321 31.9808 108.511 31.9759 108.511 31.9759" stroke="black" stroke-width="2"/>
<path d="M118.353 31.3503L124.997 31.9655" stroke="black" stroke-width="2"/>
<path d="M127.516 32.0781L131.386 33.2595" stroke="black" stroke-width="2"/>
<path d="M133.748 33.4078L138.564 35.1531" stroke="black" stroke-width="2"/>
<path d="M140.142 35.5665L145.534 37.7737" stroke="black" stroke-width="2"/>
<path d="M146.829 38.5977L151.645 40.343" stroke="black" stroke-width="2"/>
<path d="M154.122 42.0708L158.474 44.7706" stroke="black" stroke-width="2"/>
<path d="M159.747 45.8858L165.469 50.252" stroke="black" stroke-width="2"/>
<path d="M166.119 51.3347L170.641 56.948" stroke="black" stroke-width="2"/>
<path d="M171.342 57.3452L173.877 62.9101" stroke="black" stroke-width="2"/>
<path d="M174.032 64.8763L175.029 72.7514" stroke="black" stroke-width="2"/>
<path d="M174.28 74.0004L175.277 81.8754" stroke="black" stroke-width="2"/>
<path d="M194.016 99.75L188.766 100.75" stroke="black" stroke-width="2"/>
<path d="M186.627 101.601L182.165 104.543" stroke="black" stroke-width="2"/>
<path d="M181.287 105.058L176.825 108" stroke="black" stroke-width="2"/>
<path d="M117.891 131.75L114.383 129.25L112.455 122.116L112.455 113.25L109.891 101.75L116.391 84L108.391 72H100.391L71.8906 68V61.75L100.391 60L108.391 56L127.391 60L136.883 81.5L140.141 90.25L152.391 108L173.891 140L177.891 137.25L181.891 146L176.641 149.5V158.5L161.891 157.25L152.391 164L148.141 160V156L144.641 153.75L147.141 149.5L144.641 146L125.891 153.75L117.891 142.25L120.391 132L117.891 131.75Z" fill="#747474"/>
<path d="M112.455 122.116L112.455 113.25L109.891 101.75L116.391 84L108.391 72H100.391L71.8906 68V61.75L100.391 60L108.391 56L127.391 60L136.883 81.5L140.141 90.25L152.391 108L173.891 140L177.891 137.25L181.891 146L176.641 149.5V158.5L161.891 157.25L152.391 164L148.141 160V156L144.641 153.75L147.141 149.5L144.641 146L125.891 153.75L117.891 142.25L120.391 132L117.891 131.75L114.383 129.25L112.455 122.116ZM112.455 122.116L122.383 124C124.799 124 130.083 124 131.883 124C133.683 124 135.966 118.667 136.883 116C137.466 112.417 138.283 104.55 136.883 101.75C135.483 98.9501 127.466 99.4168 123.633 100" stroke="black" stroke-width="2"/>
<path d="M168.814 116.502L168.579 121.841" stroke="black" stroke-width="2"/>
<path d="M203.641 97.8906L196.358 99.07" stroke="black" stroke-width="2"/>
<path d="M65.6328 60.1479L62.3828 65.6479L67.8828 73.6479L72.7578 70.7729L78.5078 63.5229L73.6328 59.5229L65.6328 60.1479Z" fill="#C4C4C4" stroke="black" stroke-width="2"/>
<path d="M85.0145 60.0854L76.5118 57.8354L85.0145 63.5854L78.3833 69.3354H86.0542L104.977 73.3354L102.066 69.3354L107.056 67.8354V65.3354L104.977 61.3354L109.344 60.0854L110.384 57.3354L109.344 53.3354L85.0145 60.0854Z" fill="#C4C4C4" stroke="black" stroke-width="2"/>
<path d="M129.508 62.0854L127.633 58.5854L112.508 54.9604L114.133 57.8354L111.883 62.0854L108.883 63.3354L110.383 65.3354L109.633 69.3354L105.883 70.8354L109.633 74.5854L111.883 70.0854L113.383 69.3354L115.258 65.3354H119.383L121.258 62.0854L127.008 65.3354L129.508 62.0854Z" fill="#C4C4C4" stroke="black" stroke-width="2"/>
<path d="M46.8906 94.875L44.0156 100V112L48.5156 104L62.7656 112L66.0156 107.125L46.8906 94.875Z" fill="#333333"/>
<path d="M55.7656 112L60.0156 112.625H62.7656L72.7656 128L63.8906 132.75L59.1406 129.75V126.375L62.0156 125.25L58.0156 118.5L55.7656 120.875H53.3906L54.6406 118.5H51.1406L54.6406 112H55.7656Z" fill="#333333"/>
<path d="M58.0156 146.375L67.7656 142.625L64.6406 148.875L59.1406 150.875L58.0156 146.375Z" fill="#333333"/>
<path d="M83.5156 127.25L82.0156 128V129.75L78.0156 131.125H75.8906L75.1406 129.125L76.8906 128V125.75L82.0156 121.75V120.875L86.8906 119.125L93.1451 130.07L102.016 132.75V134.25L103.641 132.75L115.641 137.375L110.016 153.75L91.7656 148.839L89.3906 150.875L81.3906 141.875L80.2656 137.375L86.0156 134.875L90.0156 141.125L91.7656 140L88.8795 134.481L84.6406 126.375L83.5156 127.25Z" fill="#333333"/>
<path d="M118.016 145.125L134.016 150.375L133.328 152.281L136.016 150.375L139.766 156L150.016 159.375L148.766 164L138.016 160.75L134.016 162.125L131.266 158L128.391 153.75L123.516 152V156.984L126.016 158L128.391 164L111.141 157.25L115.641 144L118.016 145.125Z" fill="#333333"/>
<path d="M60.0156 112V112.625M60.0156 112.625L55.7656 112H54.6406L51.1406 118.5H54.6406L53.3906 120.875H55.7656L58.0156 118.5L62.0156 125.25L59.1406 126.375V129.75L63.8906 132.75L72.7656 128L62.7656 112.625H60.0156ZM88.2656 137.375L90.0156 129.125L102.016 132.75V134.25L103.641 132.75L115.641 137.375L110.016 153.75L91.7656 148.839M91.7656 148.839L89.3906 150.875L81.3906 141.875L80.2656 137.375L86.0156 134.875L90.0156 141.125L91.7656 140L84.6406 126.375L83.5156 127.25L82.0156 128V129.75L78.0156 131.125H75.8906L75.1406 129.125L76.8906 128V125.75L82.0156 121.75V120.875L86.8906 119.125L98.8192 140M91.7656 148.839L97.4115 144M97.4115 144L99.8906 141.875L98.8192 140M97.4115 144L106.016 146.375L107.391 142.625L98.8192 140M131.266 158L128.391 153.75L123.516 152V156.984L118.016 154.75L126.016 158L128.391 164L111.141 157.25L115.641 144L118.016 145.125L134.016 150.375L133.328 152.281M131.266 158L134.016 162.125L138.016 160.75M131.266 158L132.641 154.188M125.391 156L130.016 167.375L140.641 162.5L138.016 160.75M138.016 160.75L134.016 161.25L135.016 156M138.016 160.75L148.766 164L150.016 159.375L139.766 156M132.641 154.188L134.016 156H135.016M132.641 154.188L133.328 152.281M139.766 156L136.016 150.375L133.328 152.281M139.766 156H135.016M44.0156 100L46.8906 94.875L66.0156 107.125L62.7656 112L48.5156 104L44.0156 112V100ZM67.7656 142.625L58.0156 146.375L59.1406 150.875L64.6406 148.875L67.7656 142.625Z" stroke="black" stroke-width="2"/>
<path d="M106.261 145.25C106.489 143.83 106.74 142.875 106.74 142.875L109.455 143.625L112.515 140.75L119.167 134.5C119.167 134.5 117.536 142.33 119.819 146.375C122.248 150.678 130.5 153.16 130.5 153.16L123.292 157.095L119.167 159.348L118.014 162.444C118.014 162.444 116.075 161.983 113.722 160.791L111.757 163.875C111.757 163.875 104.025 165.416 99.6319 165.75C95.9813 166.027 97.3823 163.875 97.3823 163.875L90.7693 166.755L83.7574 157.473L87.3823 152.273L93.1323 152.273L101.257 145.25L104.007 145.25L106.261 145.25Z" fill="#C4C4C4"/>
<path d="M110.99 159.132L105.132 161.5L108.007 157.875L105.97 153.828L101.257 153.16L105.97 151.067L106.261 145.25L104.007 145.25L101.257 145.25L93.1323 152.273M93.1323 152.273L87.3823 152.273L83.7574 157.473L90.7693 166.755L97.3823 163.875M93.1323 152.273L90.7693 157.473L93.1323 162.444L94.6782 162L97.3823 163.875M97.3823 163.875C97.3823 163.875 95.9813 166.027 99.6319 165.75C104.025 165.416 111.757 163.875 111.757 163.875L113.722 160.791M112.515 140.75L119.167 134.5C119.167 134.5 117.536 142.33 119.819 146.375C122.248 150.678 130.5 153.16 130.5 153.16L123.292 157.095M112.515 140.75L109.455 143.625L106.74 142.875C106.74 142.875 104.63 150.88 107.096 155C108.764 157.785 111.438 159.633 113.722 160.791M112.515 140.75C112.515 140.75 111.874 148.006 113.694 151.25C115.884 155.153 123.292 157.095 123.292 157.095M123.292 157.095L119.167 159.348L118.014 162.444C118.014 162.444 116.075 161.983 113.722 160.791" stroke="black" stroke-width="2"/>
<path d="M163.383 76H160.258L162.383 83.25L169.508 84L168.883 80.625M157.633 87H160.258V93.25L155.758 93.875M155.758 78.625V81.5M172.883 80L175.008 79.375M167.633 91.375V93.875M164.383 66.25H162.383M151.508 89.5V94.75H153.633M153.633 92.625C153.633 93.125 151.466 95.0833 150.383 96" stroke="black" stroke-width="2"/>
<path d="M203.641 94.5L201.016 97.875L203.641 99.125V151.25M169.891 104L172.016 108L169.016 109.125L167.516 108M183.516 112L181.891 113.625M167.516 113.625L165.891 114.75L167.516 118.25L172.016 116.875L171.141 114.75M198.516 98.5L195.516 97L192.891 100L196.766 102.125L198.516 98.5ZM189.891 101.125L187.266 98.5L184.391 101.125L187.891 104L189.891 101.125ZM184.391 104L181.891 102.625L180.391 105.75L183.516 108L184.391 104ZM177.891 106.625L175.141 105.75L173.891 109.125L177.891 110.875V106.625ZM169.016 119.375L171.141 122.75L167.516 124L165.266 120.875L169.016 119.375Z" stroke="black" stroke-width="2"/>
<path d="M112.633 73.3354L110.383 79.0854L114.383 89.3354L123.633 97.3354L126.383 79.0854L141.383 87.25L133.133 73.3354V69.3354L130.383 66.5854L128.883 69.3354L123.633 66.5854L121.133 69.3354H116.883L114.383 73.3354H112.633Z" fill="#C4C4C4"/>
<path d="M152.008 136C154.844 127.993 151.383 114.75 151.383 114.75L134.383 116L116.633 132.085H121.133L128.883 142.835V144.375L132.758 146.625V152.375C132.758 152.375 148.504 145.893 152.008 136Z" fill="#C4C4C4"/>
<path d="M112.633 73.3354L110.383 79.0854L114.383 89.3354L123.633 97.3354L126.383 79.0854L141.383 87.25L133.133 73.3354V69.3354L130.383 66.5854L128.883 69.3354L123.633 66.5854L121.133 69.3354H116.883L114.383 73.3354H112.633Z" stroke="black" stroke-width="2"/>
<path d="M152.008 136C154.844 127.993 151.383 114.75 151.383 114.75L134.383 116L116.633 132.085H121.133L128.883 142.835V144.375L132.758 146.625V152.375C132.758 152.375 148.504 145.893 152.008 136Z" stroke="black" stroke-width="2"/>
<path d="M138.342 120.954L134.286 122.607L131.036 120.954L122.477 130.112L124.911 132.107L127.558 131.347M138.342 120.954L138.254 127.327L141.059 130.112L132.551 139.066L128.357 135.649L127.558 131.347M138.342 120.954L127.558 131.347" stroke="black" stroke-width="2"/>
<path d="M138.383 84.0854L142.383 85.3354V91.0854L162.383 106.96L156.133 106.335L165.633 111.46L167.383 120V122.875L172.133 136L176.383 139.625L179.008 137.125L182.383 146.625H185.133L192.008 161.75H189.133L190.383 165.75L186.383 172L190.383 174.5L185.133 181.75L177.383 204L173.949 224.066H152.949L153.383 200L157.088 190.881L137.016 208L132.141 224.066H109.328L111.883 201.5H115.633L118.383 199L122.383 204L118.383 194L136.883 165.75L140.758 169.25L139.008 164L147.383 156L152.383 164L161.383 157.125L176.383 157.75V149.25L182.383 146.625L179.008 137.125L176.383 139.625L168.383 146.625L161.383 149.25L159.008 156H153.383L155.008 150.375H150.758L148.258 155.125L144.133 153.75L147.383 149.25L144.133 145.75L151.508 139.625L158.258 114.46L140.758 113.25L141.383 106.96H146.258L145.633 102.96H141.383L140.133 100L144.133 98.8354L142.383 96.4604L138.383 97.375L135.008 92.875L138.061 86.5L138.383 84.0854Z" fill="#C4C4C4"/>
<path d="M127.633 81.25L131.883 85.3354L130.383 86.5L126.383 88L127.633 81.25Z" fill="#C4C4C4"/>
<path d="M151.508 139.625L158.258 114.46L140.758 113.25L141.383 106.96H146.258L145.633 102.96H141.383L140.133 100L144.133 98.8354L142.383 96.4604L138.383 97.375L135.008 92.875L138.061 86.5M151.508 139.625L144.133 145.75L147.383 149.25L144.133 153.75L148.258 155.125L150.758 150.375H155.008L153.383 156H159.008L161.383 149.25L168.383 146.625L176.383 139.625M151.508 139.625C161.008 140 166.194 131.251 167.383 122.875M167.383 122.875V120L165.633 111.46L156.133 106.335L162.383 106.96L142.383 91.0854V85.3354L138.383 84.0854L138.061 86.5M167.383 122.875L172.133 136L176.383 139.625M176.383 139.625L179.008 137.125L182.383 146.625M182.383 146.625H185.133L192.008 161.75H189.133L190.383 165.75L186.383 172L190.383 174.5L185.133 181.75L177.383 204L173.949 224.066H152.949L153.383 200M182.383 146.625L176.383 149.25V157.75L161.383 157.125L152.383 164L147.383 156L139.008 164L140.758 169.25M153.383 200L157.088 190.881L137.016 208L132.141 224.066H109.328L111.883 201.5H115.633L118.383 199L122.383 204L118.383 194L136.883 165.75L140.758 169.25M153.383 200L158.258 188M181.133 169.25V164L170.383 161.75L169.383 165.75L167.383 161.75L159.008 164L159.883 184L158.258 188M140.758 169.25H148.258H155.008L153.383 189.25M146.258 199H139.008L140.758 196H144.133L145.633 194L153.383 189.25M153.383 189.25L154.383 186L158.258 188M122.383 86.5L120.633 81.25L124.633 76L131.883 79.25L138.061 86.5M131.883 85.3354L127.633 81.25L126.383 88L130.383 86.5L131.883 85.3354Z" stroke="black" stroke-width="2"/>
<path d="M117.462 86.5402L108.479 90.5991L105.739 101.266L112.198 112.553L112.918 115.979L116.187 119.379L116.936 115.645L114.131 109.593L111.376 108.639L108.339 103.912L113.565 106.902L118.742 104.792L121.226 108.102L117.569 110.148L121.107 116.046L121.853 119.594L130.893 113.99L135.428 106.395L134.157 96.699L129.098 95.7185L129.972 99.8777L125.301 91.0239L117.462 86.5402Z" fill="#C4C4C4" stroke="black" stroke-width="2"/>
<path d="M87.1514 51.9341L84.1514 56.2838L89.6514 60.5191L85.6514 65.0978L90.6514 70.0199L85.6514 74.5986" stroke="black" stroke-width="2"/>
<path d="M93.1973 48.2041L90.1973 52.9541L95.6973 57.5791L91.6973 62.5791L96.6973 67.9541L91.6973 72.9541" stroke="black" stroke-width="2"/>
<path d="M85.6896 72.2215L82.1992 70.6655L84.0322 67.8686L88.0443 69.1524L85.6896 72.2215Z" stroke="black" stroke-width="2"/>
<path d="M84.5764 63.4002L81.0859 61.8442L82.9189 59.0473L86.931 60.3311L84.5764 63.4002Z" stroke="black" stroke-width="2"/>
<path d="M80.9436 55.8914L77.4531 54.3354L79.2861 51.5385L83.2982 52.8223L80.9436 55.8914Z" stroke="black" stroke-width="2"/>
<path d="M91.4982 75.7288L88.0078 74.1729L89.8408 71.3759L93.8529 72.6597L91.4982 75.7288Z" stroke="black" stroke-width="2"/>
<path d="M91.3771 69.1297L87.8867 67.5737L89.7197 64.7768L93.7318 66.0606L91.3771 69.1297Z" stroke="black" stroke-width="2"/>
<path d="M89.6252 59.2732L86.1348 57.7173L87.9678 54.9204L91.9798 56.2041L89.6252 59.2732Z" stroke="black" stroke-width="2"/>
<path d="M97.133 55.3665L93.6426 53.8105L95.4756 51.0136L99.4877 52.2974L97.133 55.3665Z" stroke="black" stroke-width="2"/>
<path d="M97.4982 64.3982L94.0078 62.8423L95.8408 60.0454L99.8529 61.3291L97.4982 64.3982Z" stroke="black" stroke-width="2"/>
<path d="M44.0156 94.2039V44H55.2656" stroke="black" stroke-width="2"/>
<path d="M44.0156 150.25V224.066H145.891" stroke="black" stroke-width="2"/>
<path d="M203.641 94.875V44H165.47" stroke="black" stroke-width="2"/>
<path d="M203.641 173.191V224.066H165.47" stroke="black" stroke-width="2"/>
<path d="M69.3125 44L143.641 44" stroke="black" stroke-width="2"/>
<path d="M73.9455 256.182H75.4796C75.4093 254.207 73.5875 252.73 71.0563 252.73C68.5506 252.73 66.5819 254.188 66.5819 256.386C66.5819 258.151 67.8603 259.199 69.9057 259.787L71.5165 260.247C72.8972 260.631 74.1245 261.116 74.1245 262.42C74.1245 263.852 72.7438 264.798 70.9284 264.798C69.3688 264.798 67.9881 264.108 67.8603 262.625H66.2239C66.3773 264.773 68.1159 266.23 70.9284 266.23C73.9455 266.23 75.6586 264.568 75.6586 262.446C75.6586 259.991 73.3319 259.199 71.9767 258.841L70.6472 258.483C69.6756 258.227 68.1159 257.716 68.1159 256.31C68.1159 255.057 69.2665 254.136 71.0051 254.136C72.5904 254.136 73.7921 254.891 73.9455 256.182ZM79.5689 260.094C79.5689 258.381 80.6619 257.409 82.1513 257.409C83.5703 257.409 84.4268 258.304 84.4268 259.864V266H85.9354V259.761C85.9354 257.237 84.593 256.054 82.5859 256.054C81.0391 256.054 80.157 256.7 79.6967 257.716H79.5689V252.909H78.0604V266H79.5689V260.094ZM94.8826 261.986C94.8826 263.827 93.4764 264.67 92.3514 264.67C91.0985 264.67 90.2037 263.75 90.2037 262.318V256.182H88.6951V262.42C88.6951 264.926 90.0247 266.128 91.8656 266.128C93.3485 266.128 94.3201 265.335 94.7804 264.338H94.8826V266H96.3912V256.182H94.8826V261.986ZM103.526 256.182H101.327V255.185C101.327 254.213 101.737 253.702 102.734 253.702C103.168 253.702 103.424 253.804 103.577 253.855L104.012 252.551C103.782 252.449 103.322 252.295 102.58 252.295C101.174 252.295 99.8189 253.139 99.8189 254.827V256.182H98.2337V257.46H99.8189V266H101.327V257.46H103.526V256.182ZM110.013 256.182H107.814V255.185C107.814 254.213 108.223 253.702 109.22 253.702C109.655 253.702 109.91 253.804 110.064 253.855L110.498 252.551C110.268 252.449 109.808 252.295 109.067 252.295C107.66 252.295 106.305 253.139 106.305 254.827V256.182H104.72V257.46H106.305V266H107.814V257.46H110.013V256.182ZM113.635 252.909H112.127V266H113.635V252.909ZM120.515 266.205C122.509 266.205 123.966 265.207 124.427 263.724L122.969 263.315C122.586 264.338 121.697 264.849 120.515 264.849C118.744 264.849 117.523 263.705 117.453 261.602H124.58V260.963C124.58 257.307 122.407 256.054 120.361 256.054C117.702 256.054 115.938 258.151 115.938 261.168C115.938 264.185 117.677 266.205 120.515 266.205ZM117.453 260.298C117.555 258.771 118.635 257.409 120.361 257.409C121.998 257.409 123.046 258.636 123.046 260.298H117.453ZM135.926 266.205C138.099 266.205 139.531 264.875 139.787 263.136H138.278C137.997 264.21 137.102 264.849 135.926 264.849C134.136 264.849 132.986 263.366 132.986 261.091C132.986 258.866 134.162 257.409 135.926 257.409C137.256 257.409 138.048 258.227 138.278 259.122H139.787C139.531 257.281 137.971 256.054 135.9 256.054C133.241 256.054 131.477 258.151 131.477 261.142C131.477 264.082 133.165 266.205 135.926 266.205ZM144.881 266.23C146.594 266.23 147.489 265.31 147.796 264.67H147.873V266H149.381V259.531C149.381 256.412 147.003 256.054 145.751 256.054C144.268 256.054 142.58 256.565 141.813 258.355L143.245 258.866C143.577 258.151 144.363 257.384 145.802 257.384C147.189 257.384 147.873 258.119 147.873 259.378V259.429C147.873 260.158 147.131 260.094 145.341 260.324C143.52 260.56 141.532 260.963 141.532 263.213C141.532 265.131 143.015 266.23 144.881 266.23ZM145.111 264.875C143.91 264.875 143.04 264.338 143.04 263.29C143.04 262.139 144.089 261.781 145.265 261.628C145.904 261.551 147.617 261.372 147.873 261.065V262.446C147.873 263.673 146.901 264.875 145.111 264.875ZM152.135 266H153.643V259.787C153.643 258.457 154.691 257.486 156.123 257.486C156.526 257.486 156.941 257.562 157.044 257.588V256.054C156.871 256.041 156.475 256.028 156.251 256.028C155.075 256.028 154.052 256.693 153.694 257.665H153.592V256.182H152.135V266ZM162.24 266.205C164.132 266.205 164.772 265.028 165.104 264.491H165.283V266H166.74V252.909H165.232V257.741H165.104C164.772 257.23 164.184 256.054 162.266 256.054C159.786 256.054 158.073 258.023 158.073 261.116C158.073 264.236 159.786 266.205 162.24 266.205ZM162.445 264.849C160.553 264.849 159.581 263.188 159.581 261.091C159.581 259.02 160.527 257.409 162.445 257.409C164.286 257.409 165.257 258.892 165.257 261.091C165.257 263.315 164.26 264.849 162.445 264.849ZM176.667 258.381C176.194 256.987 175.133 256.054 173.19 256.054C171.119 256.054 169.585 257.23 169.585 258.892C169.585 260.247 170.39 261.155 172.193 261.577L173.829 261.96C174.82 262.19 175.287 262.663 175.287 263.341C175.287 264.185 174.392 264.875 172.985 264.875C171.752 264.875 170.978 264.344 170.71 263.29L169.278 263.648C169.63 265.316 171.004 266.205 173.011 266.205C175.293 266.205 176.846 264.958 176.846 263.264C176.846 261.896 175.99 261.033 174.238 260.605L172.781 260.247C171.618 259.96 171.093 259.57 171.093 258.815C171.093 257.972 171.988 257.358 173.19 257.358C174.507 257.358 175.05 258.087 175.312 258.764L176.667 258.381ZM52.2733 288H53.7818V278.182H52.2733V288ZM53.0403 276.545C53.6284 276.545 54.1142 276.085 54.1142 275.523C54.1142 274.96 53.6284 274.5 53.0403 274.5C52.4522 274.5 51.9664 274.96 51.9664 275.523C51.9664 276.085 52.4522 276.545 53.0403 276.545ZM58.0533 282.094C58.0533 280.381 59.1143 279.409 60.5589 279.409C61.9588 279.409 62.8089 280.323 62.8089 281.864V288H64.3175V281.761C64.3175 279.256 62.9815 278.054 60.9936 278.054C59.5107 278.054 58.5902 278.719 58.13 279.716H58.0021V278.182H56.5447V288H58.0533V282.094ZM76.4064 278.182H74.3098V275.83H72.8013V278.182H71.3184V279.46H72.8013V285.597C72.8013 287.31 74.182 288.128 75.4604 288.128C76.0229 288.128 76.3809 288.026 76.5854 287.949L76.2786 286.594C76.1507 286.619 75.9462 286.67 75.6138 286.67C74.949 286.67 74.3098 286.466 74.3098 285.188V279.46H76.4064V278.182ZM80.3951 282.094C80.3951 280.381 81.4881 279.409 82.9775 279.409C84.3965 279.409 85.253 280.304 85.253 281.864V288H86.7615V281.761C86.7615 279.237 85.4192 278.054 83.4121 278.054C81.8652 278.054 80.9831 278.7 80.5229 279.716H80.3951V274.909H78.8865V288H80.3951V282.094ZM93.6378 288.205C95.6321 288.205 97.0895 287.207 97.5497 285.724L96.0923 285.315C95.7088 286.338 94.8203 286.849 93.6378 286.849C91.8672 286.849 90.6463 285.705 90.576 283.602H97.7031V282.963C97.7031 279.307 95.5298 278.054 93.4844 278.054C90.8253 278.054 89.0611 280.151 89.0611 283.168C89.0611 286.185 90.7997 288.205 93.6378 288.205ZM90.576 282.298C90.6783 280.771 91.7585 279.409 93.4844 279.409C95.1207 279.409 96.169 280.636 96.169 282.298H90.576ZM109.049 288.205C111.222 288.205 112.654 286.875 112.91 285.136H111.401C111.12 286.21 110.225 286.849 109.049 286.849C107.259 286.849 106.109 285.366 106.109 283.091C106.109 280.866 107.285 279.409 109.049 279.409C110.379 279.409 111.171 280.227 111.401 281.122H112.91C112.654 279.281 111.094 278.054 109.023 278.054C106.364 278.054 104.6 280.151 104.6 283.142C104.6 286.082 106.288 288.205 109.049 288.205ZM118.004 288.23C119.717 288.23 120.612 287.31 120.919 286.67H120.996V288H122.504V281.531C122.504 278.412 120.126 278.054 118.874 278.054C117.391 278.054 115.703 278.565 114.936 280.355L116.368 280.866C116.7 280.151 117.487 279.384 118.925 279.384C120.312 279.384 120.996 280.119 120.996 281.378V281.429C120.996 282.158 120.254 282.094 118.464 282.324C116.643 282.56 114.655 282.963 114.655 285.213C114.655 287.131 116.138 288.23 118.004 288.23ZM118.234 286.875C117.033 286.875 116.163 286.338 116.163 285.29C116.163 284.139 117.212 283.781 118.388 283.628C119.027 283.551 120.74 283.372 120.996 283.065V284.446C120.996 285.673 120.024 286.875 118.234 286.875ZM125.258 288H126.766V281.787C126.766 280.457 127.814 279.486 129.246 279.486C129.649 279.486 130.064 279.562 130.167 279.588V278.054C129.994 278.041 129.598 278.028 129.374 278.028C128.198 278.028 127.175 278.693 126.817 279.665H126.715V278.182H125.258V288ZM135.363 288.205C137.256 288.205 137.895 287.028 138.227 286.491H138.406V288H139.863V274.909H138.355V279.741H138.227C137.895 279.23 137.307 278.054 135.389 278.054C132.909 278.054 131.196 280.023 131.196 283.116C131.196 286.236 132.909 288.205 135.363 288.205ZM135.568 286.849C133.676 286.849 132.704 285.188 132.704 283.091C132.704 281.02 133.65 279.409 135.568 279.409C137.409 279.409 138.381 280.892 138.381 283.091C138.381 285.315 137.383 286.849 135.568 286.849ZM151.887 288.205C154.06 288.205 155.492 286.875 155.748 285.136H154.239C153.958 286.21 153.063 286.849 151.887 286.849C150.097 286.849 148.947 285.366 148.947 283.091C148.947 280.866 150.123 279.409 151.887 279.409C153.216 279.409 154.009 280.227 154.239 281.122H155.748C155.492 279.281 153.932 278.054 151.861 278.054C149.202 278.054 147.438 280.151 147.438 283.142C147.438 286.082 149.126 288.205 151.887 288.205ZM159.461 282.094C159.461 280.381 160.555 279.409 162.044 279.409C163.463 279.409 164.319 280.304 164.319 281.864V288H165.828V281.761C165.828 279.237 164.486 278.054 162.479 278.054C160.932 278.054 160.05 278.7 159.589 279.716H159.461V274.909H157.953V288H159.461V282.094ZM171.477 288.23C173.19 288.23 174.085 287.31 174.392 286.67H174.468V288H175.977V281.531C175.977 278.412 173.599 278.054 172.346 278.054C170.863 278.054 169.176 278.565 168.409 280.355L169.841 280.866C170.173 280.151 170.959 279.384 172.397 279.384C173.784 279.384 174.468 280.119 174.468 281.378V281.429C174.468 282.158 173.727 282.094 171.937 282.324C170.115 282.56 168.127 282.963 168.127 285.213C168.127 287.131 169.61 288.23 171.477 288.23ZM171.707 286.875C170.505 286.875 169.636 286.338 169.636 285.29C169.636 284.139 170.684 283.781 171.86 283.628C172.5 283.551 174.213 283.372 174.468 283.065V284.446C174.468 285.673 173.497 286.875 171.707 286.875ZM178.73 288H180.239V278.182H178.73V288ZM179.497 276.545C180.085 276.545 180.571 276.085 180.571 275.523C180.571 274.96 180.085 274.5 179.497 274.5C178.909 274.5 178.423 274.96 178.423 275.523C178.423 276.085 178.909 276.545 179.497 276.545ZM184.51 282.094C184.51 280.381 185.571 279.409 187.016 279.409C188.416 279.409 189.266 280.323 189.266 281.864V288H190.775V281.761C190.775 279.256 189.439 278.054 187.451 278.054C185.968 278.054 185.047 278.719 184.587 279.716H184.459V278.182H183.002V288H184.51V282.094ZM194.631 288.102C195.263 288.102 195.781 287.585 195.781 286.952C195.781 286.319 195.263 285.801 194.631 285.801C193.998 285.801 193.48 286.319 193.48 286.952C193.48 287.585 193.998 288.102 194.631 288.102Z" fill="black" fill-opacity="0.87"/>
<path d="M216 160H236V176L228 184.5L236 192V208H226H216V160Z" fill="#FF4B3C" stroke="black" stroke-width="2"/>
<path d="M216 160H236V176L228 184.5L236 192V208H226H216V160Z" fill="black" fill-opacity="0.17"/>
<path d="M224 168L216 160V168H224Z" fill="black" fill-opacity="0.38" stroke="black" stroke-width="2" stroke-linejoin="bevel"/>
<path d="M248 176L240 184L248 192V176Z" fill="#D4D4D4"/>
<path d="M32 160H12V176L20 184.5L12 192V208H22H32V160Z" fill="#FF4B3C" stroke="black" stroke-width="2"/>
<path d="M32 160H12V176L20 184.5L12 192V208H22H32V160Z" fill="black" fill-opacity="0.17"/>
<path d="M24 168L32 160V168H24Z" fill="black" fill-opacity="0.38" stroke="black" stroke-width="2" stroke-linejoin="bevel"/>
<path d="M0 176L8 184L0 192V176Z" fill="#D4D4D4"/>
<path d="M224 168H24V216H224V168Z" fill="#FF4B3C" stroke="black" stroke-width="2"/>
<path d="M77.1895 203.324C75.2695 203.324 73.8535 202.784 72.9415 201.704C72.0295 200.6 71.5735 198.92 71.5735 196.664V183.56L69.3415 182.804V181.256H77.7295V182.984L75.4255 183.776V195.836C75.4255 197.492 75.6175 198.596 76.0015 199.148C76.3855 199.7 76.9135 199.976 77.5855 199.976C78.1855 199.976 79.8655 199.592 82.6255 198.824V183.776L80.3215 182.984V181.256H88.7455V182.804L86.5135 183.56V200.696L88.7455 201.452V203H83.4895L82.7335 200.876L80.8615 201.74C78.6055 202.796 77.3815 203.324 77.1895 203.324ZM93.835 203.36C93.715 203.36 93.463 203.18 93.079 202.82C92.719 202.46 92.539 202.22 92.539 202.1V189.104L91.207 188.564V187.052C93.463 186.668 94.711 186.476 94.951 186.476C95.071 186.476 95.299 186.656 95.635 187.016C95.971 187.352 96.139 187.58 96.139 187.7V188.96C96.835 188.432 97.591 187.892 98.407 187.34C99.223 186.764 99.679 186.476 99.775 186.476C101.527 186.476 102.847 186.92 103.735 187.808C104.623 188.672 105.067 190.196 105.067 192.38V200.66L106.363 201.2V202.712C104.131 203.144 102.907 203.36 102.691 203.36C102.571 203.36 102.307 203.18 101.899 202.82C101.515 202.46 101.323 202.22 101.323 202.1V192.38C101.323 190.364 100.699 189.356 99.451 189.356C99.331 189.356 99.007 189.464 98.479 189.68C97.975 189.896 97.603 190.052 97.363 190.148C97.123 190.268 96.763 190.424 96.283 190.616V200.66L97.543 201.2V202.712C95.311 203.144 94.075 203.36 93.835 203.36ZM114.154 203.36C113.194 203.36 112.306 203.072 111.49 202.496C110.674 201.92 110.014 201.056 109.51 199.904C109.006 198.752 108.754 197.348 108.754 195.692C108.754 194.54 108.838 193.448 109.006 192.416C109.174 191.384 109.39 190.616 109.654 190.112C109.918 189.752 110.434 189.284 111.202 188.708C111.97 188.108 112.738 187.58 113.506 187.124C114.298 186.668 114.838 186.44 115.126 186.44C115.702 186.44 116.362 186.512 117.106 186.656C117.874 186.776 118.594 186.944 119.266 187.16L119.158 191.948H116.782L116.242 189.392C115.978 189.248 115.642 189.116 115.234 188.996C114.85 188.876 114.502 188.816 114.19 188.816C113.974 188.816 113.806 188.864 113.686 188.96C113.374 189.2 113.134 189.884 112.966 191.012C112.798 192.116 112.714 193.484 112.714 195.116C112.714 196.292 112.834 197.288 113.074 198.104C113.338 198.896 113.662 199.484 114.046 199.868C114.43 200.252 114.814 200.444 115.198 200.444H119.266V202.1C118.306 202.388 117.298 202.676 116.242 202.964C115.186 203.228 114.49 203.36 114.154 203.36ZM123.786 203.36C123.666 203.36 123.414 203.18 123.03 202.82C122.67 202.46 122.49 202.22 122.49 202.1V182.264L121.194 181.76V180.248C123.474 179.84 124.734 179.636 124.974 179.636C125.094 179.636 125.334 179.816 125.694 180.176C126.054 180.512 126.234 180.752 126.234 180.896L126.054 188.888L126.234 188.924C126.93 188.396 127.662 187.856 128.43 187.304C129.222 186.752 129.666 186.476 129.762 186.476C131.538 186.476 132.858 186.92 133.722 187.808C134.61 188.672 135.054 190.196 135.054 192.38V200.66L136.35 201.2V202.712C134.094 203.144 132.858 203.36 132.642 203.36C132.522 203.36 132.27 203.18 131.886 202.82C131.502 202.46 131.31 202.22 131.31 202.1V192.38C131.31 191.084 131.106 190.256 130.698 189.896C130.314 189.536 129.87 189.356 129.366 189.356C129.27 189.356 128.562 189.632 127.242 190.184C127.074 190.256 126.894 190.34 126.702 190.436C126.534 190.508 126.378 190.568 126.234 190.616V200.66L127.53 201.2V202.712C125.274 203.144 124.026 203.36 123.786 203.36ZM144.502 203.36C143.446 203.36 142.474 203.072 141.586 202.496C140.722 201.896 140.026 201.008 139.498 199.832C138.994 198.656 138.742 197.216 138.742 195.512C138.742 194.384 138.826 193.34 138.994 192.38C139.162 191.396 139.378 190.628 139.642 190.076C140.05 189.524 140.95 188.78 142.342 187.844C143.758 186.908 144.694 186.44 145.15 186.44C145.414 186.44 146.35 186.56 147.958 186.8C149.566 187.016 150.802 187.196 151.666 187.34V200.696L152.926 201.2V202.748C150.742 203.156 149.53 203.36 149.29 203.36C149.194 203.36 148.954 203.18 148.57 202.82C148.21 202.46 148.03 202.22 148.03 202.1V200.804C145.846 202.508 144.67 203.36 144.502 203.36ZM144.898 200.444C145.138 200.444 146.146 200 147.922 199.112V189.428C147.346 189.212 146.614 189.02 145.726 188.852C144.862 188.66 144.286 188.588 143.998 188.636C143.566 188.732 143.242 189.272 143.026 190.256C142.81 191.24 142.702 192.884 142.702 195.188C142.702 196.34 142.822 197.312 143.062 198.104C143.326 198.896 143.626 199.484 143.962 199.868C144.322 200.252 144.634 200.444 144.898 200.444ZM157.86 203.36C157.716 203.36 157.428 203.168 156.996 202.784C156.564 202.376 156.348 202.112 156.348 201.992V188.996L155.016 188.564V187.052C157.176 186.668 158.376 186.476 158.616 186.476C158.76 186.476 159.036 186.668 159.444 187.052C159.852 187.412 160.056 187.676 160.056 187.844V200.804L161.352 201.2V202.712C159.264 203.144 158.1 203.36 157.86 203.36ZM156.096 179.78L159.228 179.6L159.84 180.428L159.624 183.668H156.384L156.096 179.78ZM166.151 203.36C166.031 203.36 165.779 203.18 165.395 202.82C165.035 202.46 164.855 202.22 164.855 202.1V189.104L163.523 188.564V187.052C165.779 186.668 167.027 186.476 167.267 186.476C167.387 186.476 167.615 186.656 167.951 187.016C168.287 187.352 168.455 187.58 168.455 187.7V188.96C169.151 188.432 169.907 187.892 170.723 187.34C171.539 186.764 171.995 186.476 172.091 186.476C173.843 186.476 175.163 186.92 176.051 187.808C176.939 188.672 177.383 190.196 177.383 192.38V200.66L178.679 201.2V202.712C176.447 203.144 175.223 203.36 175.007 203.36C174.887 203.36 174.623 203.18 174.215 202.82C173.831 202.46 173.639 202.22 173.639 202.1V192.38C173.639 190.364 173.015 189.356 171.767 189.356C171.647 189.356 171.323 189.464 170.795 189.68C170.291 189.896 169.919 190.052 169.679 190.148C169.439 190.268 169.079 190.424 168.599 190.616V200.66L169.859 201.2V202.712C167.627 203.144 166.391 203.36 166.151 203.36Z" fill="white"/>
<defs>
<linearGradient id="paint0_linear_155_1" x1="151.891" y1="71" x2="81.8906" y2="172" gradientUnits="userSpaceOnUse">
<stop stop-color="#FFDCA7"/>
<stop offset="1" stop-color="#FFBB0E"/>
</linearGradient>
</defs>
</svg>
