<svg width="1725" height="1300" viewBox="0 0 1725 1300" fill="none" xmlns="http://www.w3.org/2000/svg">
<mask id="mask0_1262_15623" style="mask-type:alpha" maskUnits="userSpaceOnUse" x="0" y="0" width="1725" height="1300">
<rect width="1725" height="1300" fill="black"/>
</mask>
<g mask="url(#mask0_1262_15623)">
<g opacity="0.2">
<circle r="255.038" transform="matrix(-1 8.74228e-08 8.74228e-08 1 861.897 869.776)" stroke="white"/>
<rect x="-0.249992" y="0.249992" width="366.5" height="0.499984" transform="matrix(-1 8.74228e-08 8.74228e-08 1 616.5 869)" fill="white" stroke="white" stroke-width="0.499984"/>
<mask id="path-4-inside-1_1262_15623" fill="white">
<path d="M864.123 682L864.123 1304L865.123 1304L865.123 682L864.123 682Z"/>
</mask>
<path d="M864.123 682L864.123 1304L865.123 1304L865.123 682L864.123 682Z" fill="white"/>
<path d="M864.123 682L863.123 682L863.123 681L864.123 681L864.123 682ZM864.123 1304L864.123 1305L863.123 1305L863.123 1304L864.123 1304ZM865.123 1304L866.123 1304L866.123 1305L865.123 1305L865.123 1304ZM865.123 682L865.123 681L866.123 681L866.123 682L865.123 682ZM865.123 682L865.123 1304L863.123 1304L863.123 682L865.123 682ZM864.123 1303L865.123 1303L865.123 1305L864.123 1305L864.123 1303ZM864.123 1304L864.123 682L866.123 682L866.123 1304L864.123 1304ZM865.123 683L864.123 683L864.123 681L865.123 681L865.123 683Z" fill="white" mask="url(#path-4-inside-1_1262_15623)"/>
<circle r="124.788" transform="matrix(-1 8.74228e-08 8.74228e-08 1 861.896 869.776)" stroke="white"/>
<path d="M858.493 994.64L864.749 1000.9C864.882 1000.72 865.049 1000.5 865.244 1000.25C865.759 999.591 866.468 998.707 867.236 997.821C868.003 996.937 868.839 996.041 869.608 995.361C869.921 995.085 870.231 994.837 870.527 994.64C870.231 994.442 869.921 994.194 869.608 993.918C868.839 993.239 868.003 992.342 867.236 991.459C866.468 990.573 865.759 989.688 865.244 989.026C865.049 988.777 864.882 988.559 864.749 988.384L858.493 994.64Z" fill="white" stroke="white"/>
<path d="M987.611 875.661L993.867 869.405C993.692 869.272 993.474 869.105 993.225 868.911C992.563 868.395 991.678 867.686 990.792 866.918C989.909 866.152 989.012 865.316 988.333 864.546C988.057 864.233 987.809 863.923 987.611 863.627C987.414 863.923 987.166 864.233 986.89 864.546C986.21 865.316 985.314 866.152 984.43 866.918C983.544 867.686 982.66 868.395 981.998 868.911C981.749 869.105 981.53 869.272 981.355 869.405L987.611 875.661Z" fill="white" stroke="white"/>
<path d="M737.032 875.661L743.288 869.405C743.113 869.272 742.895 869.105 742.646 868.911C741.984 868.395 741.099 867.686 740.213 866.918C739.33 866.152 738.433 865.316 737.754 864.546C737.477 864.233 737.23 863.923 737.032 863.627C736.834 863.923 736.587 864.233 736.311 864.546C735.631 865.316 734.735 866.152 733.851 866.918C732.965 867.686 732.081 868.395 731.419 868.911C731.169 869.105 730.951 869.272 730.776 869.405L737.032 875.661Z" fill="white" stroke="white"/>
<path d="M1117.86 875.661L1124.12 869.405C1123.94 869.272 1123.72 869.105 1123.47 868.911C1122.81 868.395 1121.93 867.686 1121.04 866.918C1120.16 866.152 1119.26 865.316 1118.58 864.546C1118.3 864.233 1118.06 863.923 1117.86 863.627C1117.66 863.923 1117.41 864.233 1117.14 864.546C1116.46 865.316 1115.56 866.152 1114.68 866.918C1113.79 867.686 1112.91 868.395 1112.25 868.911C1112 869.105 1111.78 869.272 1111.6 869.405L1117.86 875.661Z" fill="white" stroke="white"/>
<path d="M1418.06 875.661L1424.31 869.405C1424.14 869.272 1423.92 869.105 1423.67 868.911C1423.01 868.395 1422.12 867.686 1421.24 866.918C1420.36 866.152 1419.46 865.316 1418.78 864.546C1418.5 864.233 1418.26 863.923 1418.06 863.627C1417.86 863.923 1417.61 864.233 1417.34 864.546C1416.66 865.316 1415.76 866.152 1414.88 866.918C1413.99 867.686 1413.11 868.395 1412.44 868.911C1412.19 869.105 1411.98 869.272 1411.8 869.405L1418.06 875.661Z" fill="white" stroke="white"/>
<path d="M606.784 875.661L613.04 869.405C612.865 869.272 612.647 869.105 612.398 868.911C611.736 868.395 610.851 867.686 609.965 866.918C609.082 866.152 608.185 865.316 607.506 864.546C607.229 864.233 606.982 863.923 606.784 863.627C606.586 863.923 606.339 864.233 606.063 864.546C605.383 865.316 604.487 866.152 603.603 866.918C602.717 867.686 601.833 868.395 601.171 868.911C600.921 869.105 600.703 869.272 600.528 869.405L606.784 875.661Z" fill="white" stroke="white"/>
<path d="M307.829 875.661L314.139 869.351L307.829 863.041L301.519 869.351L307.829 875.661Z" fill="white" stroke="white"/>
<circle r="555.234" transform="matrix(-1 8.74228e-08 8.74228e-08 1 861.896 869.776)" stroke="white"/>
<path d="M289.298 869.776C289.298 1101.94 353.421 1312.1 457.069 1464.2C560.718 1616.31 703.855 1710.32 861.899 1710.32C1019.94 1710.32 1163.08 1616.31 1266.73 1464.2C1370.38 1312.1 1434.5 1101.94 1434.5 869.776C1434.5 637.615 1370.38 427.456 1266.73 275.35C1163.08 123.242 1019.94 29.2325 861.899 29.2325C703.855 29.2325 560.717 123.242 457.069 275.35C353.421 427.456 289.298 637.615 289.298 869.776Z" stroke="white"/>
<path opacity="0.3" d="M455.519 869.776C455.519 1101.97 501.049 1312.15 574.64 1464.27C648.248 1616.42 749.839 1710.32 861.895 1710.32C973.951 1710.32 1075.54 1616.42 1149.15 1464.27C1222.74 1312.15 1268.27 1101.97 1268.27 869.776C1268.27 637.587 1222.74 427.403 1149.15 275.286C1075.54 123.134 973.951 29.2324 861.895 29.2325C749.839 29.2325 648.248 123.134 574.64 275.286C501.049 427.404 455.519 637.587 455.519 869.776Z" stroke="white"/>
<path opacity="0.5" d="M606.859 869.776C606.859 1101.99 635.458 1312.2 681.683 1464.34C704.797 1540.41 732.309 1601.94 762.836 1644.43C793.373 1686.94 826.854 1710.32 861.897 1710.32C896.94 1710.32 930.422 1686.94 960.958 1644.43C991.486 1601.94 1019 1540.41 1042.11 1464.34C1088.34 1312.2 1116.94 1101.99 1116.94 869.776C1116.94 637.563 1088.34 427.354 1042.11 275.214C1019 199.141 991.486 137.614 960.958 95.1175C930.422 52.6087 896.94 29.2324 861.897 29.2324C826.854 29.2324 793.372 52.6087 762.836 95.1175C732.309 137.614 704.797 199.141 681.683 275.214C635.457 427.354 606.859 637.563 606.859 869.776Z" stroke="white"/>
<rect x="-0.310119" y="0.310119" width="372.763" height="0.620239" transform="matrix(-1 8.74228e-08 8.74228e-08 1 1028.74 868.535)" fill="white" stroke="white" stroke-width="0.620239"/>
<rect x="3.69691e-08" y="0.438575" width="380.758" height="0.620239" transform="matrix(-0.707107 0.707107 0.707107 0.707107 1043.06 687.553)" fill="white" stroke="white" stroke-width="0.620239"/>
<rect x="-0.249991" y="0.249991" width="410.5" height="0.499982" transform="matrix(-1 8.74228e-08 8.74228e-08 1 1488.5 869)" fill="white" stroke="white" stroke-width="0.499982"/>
</g>
<path fill-rule="evenodd" clip-rule="evenodd" d="M1183.63 895.074C1156.16 885.682 1146.88 875.875 1146.88 875.875C1146.88 875.875 1117.07 843.706 1230.12 843.706C1265.95 843.706 1287.21 847.531 1299.68 852.544L1298.97 853.192L1302.67 853.847C1303.3 854.141 1303.9 854.438 1304.47 854.738L1302.97 856.117L1308.35 857.069C1320.58 865.514 1315.86 874.991 1315.44 875.828C1315.43 875.849 1315.42 875.865 1315.42 875.875C1313.45 880.085 1300.22 888.734 1274.57 896.464C1288.11 889.973 1297.71 883.318 1297.71 883.318C1297.71 883.318 1311.56 864.121 1230.08 864.121C1194.44 864.121 1176.71 867.158 1168.28 870.815L1163.12 870.274L1164.23 873.089C1157.65 878.089 1164.08 883.318 1164.08 883.318C1164.08 883.318 1171.99 889.058 1183.63 895.074Z" fill="white"/>
<rect width="3.0932" height="198.158" transform="matrix(-0.671242 0.741239 0.741239 0.671242 971.957 1150.35)" fill="black"/>
<rect x="1460.5" y="1117.43" width="3.0932" height="198.158" transform="rotate(37.3119 1460.5 1117.43)" fill="black"/>
<path d="M1231.17 919.797L1300.46 914.538L1467.49 987.228V1011.97L1441.51 1057.75L1383.98 1041.05L1405.01 1255.1L1284.99 1328.72L1126 1300.26L1153.84 1071.98V1057.75C1113.91 1061.58 1073.92 1063.89 1033.83 1065.18L1029.5 1004.55L1142.71 925.983L1231.17 919.797Z" fill="black"/>
<rect width="108.881" height="381.082" transform="matrix(-1 0 0 1 1284.99 964.958)" fill="black"/>
<path d="M851.328 1191.38L1183.54 1346.04V1305.21L851.328 1191.38Z" fill="black"/>
<path d="M1599.88 1183.96L1275.09 1346.04L1278.81 1294.69L1599.88 1183.96Z" fill="black"/>
<path d="M1205.02 871.544C1205.02 871.544 1212.28 908.043 1229.99 908.043C1247.7 908.043 1255.58 871.544 1255.58 871.544C1255.58 871.544 1260.82 835.044 1229.99 835.044C1196.08 835.044 1205.02 871.544 1205.02 871.544Z" fill="white"/>
<ellipse opacity="0.45" rx="8.04232" ry="12.3728" transform="matrix(-1 0 0 1 1203.95 888.248)" fill="black" fill-opacity="0.54"/>
<ellipse opacity="0.45" rx="8.66095" ry="12.3728" transform="matrix(-1 0 0 1 1254.68 887.01)" fill="black" fill-opacity="0.54"/>
<path d="M933.401 966.769L940.036 990.555L953.093 1010.12C953.093 1010.12 965.652 1007.54 969.487 999.912C978.44 982.103 951.704 963.955 943.195 951.59L926.801 946.95L933.401 966.769Z" fill="black"/>
<path d="M939.179 1019.4L906.797 999.093L914.758 970.347L930.099 977.326C930.099 977.326 940.552 973.772 948.2 977.084C954.443 979.788 964.543 999.093 964.543 999.093L939.179 1019.4Z" fill="url(#paint0_linear_1262_15623)"/>
<path d="M930.826 1008.57L903.915 988.775L903.915 983.207L897.729 977.949L900.929 964.267C900.929 964.267 918.678 958.035 930.826 1008.57Z" fill="black"/>
<path d="M913.193 902.716L899.274 887.25L869.579 916.326L886.283 911.686L899.274 916.326L913.193 902.716Z" fill="black"/>
<path d="M1057.83 1058.53L1035.37 1067.03L1020.84 1047.24L964.54 1018.16L957.735 1021.5L950.311 1008.81C950.311 1008.81 966.087 1008.81 966.087 995.169C966.995 986.041 954.023 966.128 954.023 966.128L960.828 966.128L973.201 984.446L1042.77 1000.29L1072.54 995.169L1082.09 1010.96L1042.66 1024.79L1057.83 1058.53Z" fill="#1B1B1B"/>
<path d="M872.675 808.682C872.675 808.682 865.515 808.038 861.849 810.228C858.529 812.212 855.662 817.961 855.662 817.961L995.886 1165.79L1014.82 1240.55L1023.63 1251.07L1038.21 1244.93L1017.88 1177.08L872.675 808.682Z" fill="black"/>
<path d="M1034.95 996.133C1034.95 996.133 1038.83 1004.06 1034.01 1019.28C1029.19 1034.5 1018.99 1044.75 1018.99 1044.75" stroke="white" stroke-opacity="0.14" stroke-width="4" stroke-linecap="round"/>
<path d="M974.129 984.754C978.769 995.89 978.459 1007.33 965.752 1017.43" stroke="white" stroke-opacity="0.14" stroke-width="4" stroke-linecap="round"/>
<path d="M1038.78 1064.8L1053.62 1056.76L1038.78 1022.73L1077.75 1007.89L1071.56 995.513" stroke="white" stroke-opacity="0.14" stroke-width="4"/>
<path fill-rule="evenodd" clip-rule="evenodd" d="M991.743 1000.16C994.097 1001.22 996.466 1002.69 998.67 1004.46C1000.87 1006.23 1002.85 1008.26 1004.46 1010.39C1006.06 1012.53 1007.25 1014.7 1007.92 1016.75C1008.6 1018.81 1008.75 1020.68 1008.36 1022.24C1007.97 1023.79 1007.05 1024.99 1005.68 1025.73C1004.3 1026.47 1002.5 1026.73 1000.42 1026.5C998.342 1026.28 996.033 1025.56 993.672 1024.41C991.312 1023.27 988.962 1021.72 986.805 1019.88L993.733 1029.58L1012.67 1042.45C1012.67 1042.45 996.531 1031.48 1004.18 1033.69C1007.32 1034.04 1010.04 1033.64 1012.12 1032.52C1014.2 1031.4 1015.59 1029.59 1016.18 1027.24C1016.77 1024.89 1016.54 1022.05 1015.52 1018.95C1014.5 1015.84 1012.7 1012.55 1010.28 1009.33C1007.85 1006.11 1004.86 1003.04 1001.52 1000.35C1008.55 1001.47 1023.31 996.747 1023.31 996.747L991.743 1000.16Z" fill="#4A4A4A"/>
<path d="M882.301 988.468L777.004 895.213L798.038 791.282L853.716 831.493L860.521 829.328L873.512 816.027L882.301 824.069L913.117 902.871L900.85 895.286L885.384 909.824L882.301 911.916L882.301 988.468Z" fill="url(#paint1_linear_1262_15623)"/>
<path d="M882.301 964.89L794.105 889.416L808.334 799.095L853.716 831.492L860.521 829.327L873.513 816.026L882.301 824.068L912.575 901.17L902.677 898.145L885.385 909.823L882.301 911.915L882.301 964.89Z" fill="#232323"/>
<path d="M840.397 948.365L836.158 958.681L835.041 975.844L851.459 964.783L840.397 948.365Z" fill="black"/>
<path d="M931.235 939.496L947.176 953.863L924.675 950.089L910.034 949.139L916.596 942.309L931.235 939.496Z" fill="url(#paint2_linear_1262_15623)"/>
<path d="M913.978 950.258L905.828 952.902L906.024 957.097L914.58 963.166L929.005 965.186L946.678 964.171L913.978 950.258Z" fill="url(#paint3_linear_1262_15623)"/>
<path d="M905.835 949.723L896.747 959.174L896.192 964.038L905.952 972.136L912.994 959.571L905.835 949.723Z" fill="url(#paint4_linear_1262_15623)"/>
<path d="M902.191 952.888L898.79 958.831L901.47 961.829L910.435 962.114L918.387 949.126L902.191 952.888Z" fill="url(#paint5_linear_1262_15623)"/>
<path d="M925.112 953.351L916.962 955.995L917.158 960.19L925.713 966.258L940.139 968.279L957.812 967.264L925.112 953.351Z" fill="#3C3C3C"/>
<path d="M916.969 952.816L907.881 962.267L907.326 967.131L917.086 975.229L924.127 962.663L916.969 952.816Z" fill="black"/>
<path d="M913.325 955.98L909.924 961.922L912.603 964.921L921.569 965.206L929.521 952.218L913.325 955.98Z" fill="url(#paint6_linear_1262_15623)"/>
<path d="M928.738 967.309L920.589 969.952L920.784 974.147L929.34 980.216L943.765 982.237L951.549 977.881L928.738 967.309Z" fill="#3C3C3C"/>
<path d="M920.064 969.518L910.976 978.969L910.422 983.833L920.182 991.931L927.223 979.365L920.064 969.518Z" fill="black"/>
<path d="M916.42 972.681L913.019 978.624L915.698 981.622L924.664 981.907L932.616 968.919L916.42 972.681Z" fill="url(#paint7_linear_1262_15623)"/>
<path d="M938.254 984.743L930.104 987.387L930.3 991.581L938.856 997.65L953.281 999.671L958.193 994.118L938.254 984.743Z" fill="#3C3C3C"/>
<path d="M930.111 984.207L921.023 993.659L920.468 998.522L930.229 1006.62L937.27 994.055L930.111 984.207Z" fill="url(#paint8_linear_1262_15623)"/>
<path d="M926.466 987.372L923.066 993.315L925.745 996.313L934.711 996.598L942.662 983.611L926.466 987.372Z" fill="url(#paint9_linear_1262_15623)"/>
<path d="M1169.38 966.161C1167.07 988.311 1174.25 1048.47 1211.37 1048.47C1292.41 1048.47 1302.12 998.058 1304.62 974.062C1307.13 950.065 1276.25 927.559 1240.78 923.855C1205.3 920.151 1171.69 944.01 1169.38 966.161Z" fill="url(#paint10_linear_1262_15623)"/>
<path d="M1166.19 1058.25L1233.72 1079.41L1297.18 1065.72C1267.67 1058.25 1247.55 1029.5 1211.38 1027.44C1175.2 1025.38 1166.19 1058.25 1166.19 1058.25Z" fill="#1D1D1D"/>
<path d="M1169.38 966.16C1167.07 988.311 1205.19 1023.11 1205.19 1023.11C1205.19 1023.11 1301.04 994.522 1303.55 970.526C1306.06 946.529 1281.31 923.854 1240.78 923.854C1200.24 923.854 1171.69 944.009 1169.38 966.16Z" fill="url(#paint11_linear_1262_15623)"/>
<path d="M1163.42 1076.54C1163.42 1076.54 1184.13 1045 1210.77 1044.24C1237.41 1043.48 1267.31 1073.57 1267.31 1073.57C1236.01 1099 1184.77 1129.22 1163.42 1076.54Z" fill="black" fill-opacity="0.87"/>
<path d="M1127.07 989.09C1124.7 988.098 1119.49 948.843 1118.25 944.131C1118.25 944.131 1127.52 924.298 1137.26 919.542C1142.1 917.176 1147.42 915.955 1152.81 915.975C1158.2 915.994 1163.51 917.253 1168.34 919.654C1173.16 922.055 1177.37 925.534 1180.63 929.822L1154.8 949.494L1127.07 989.09Z" fill="#2D2D2D"/>
<path d="M1168.62 984.324C1166.06 984.586 1142.73 952.593 1139.38 949.049C1139.38 949.049 1138.05 927.194 1144.33 918.365C1147.45 913.972 1144.33 903.609 1144.33 903.609C1144.33 903.609 1166.3 903.806 1171.68 903.609C1177.07 903.412 1182.43 904.457 1187.35 906.663L1174.06 936.288L1168.62 984.324Z" fill="#1D1D1D"/>
<path d="M1182.92 975.165C1180.35 975.367 1166.59 953.895 1163.33 950.273L1163.33 912.373C1163.33 912.373 1187.07 905.73 1196.68 905.604C1202.07 905.533 1210.84 919.333 1215.71 921.653L1184.77 931.551L1182.92 975.165Z" fill="#2D2D2D"/>
<path opacity="0.2" d="M1208.9 976.093L1274.48 926.634L1232.35 908.661L1186.01 926.634L1208.9 976.093Z" fill="white" fill-opacity="0.5"/>
<path d="M1211.99 966.813L1264.58 928.457L1229.52 914.229L1190.96 928.457L1211.99 966.813Z" fill="black"/>
<path d="M1206.42 1084.66C1191.11 1080.97 1166.83 1092.4 1166.83 1092.4L1176.64 1101.06L1161.26 1148.69L1181.99 1221.38L1202.4 1179.62C1202.4 1179.62 1242.51 1093.36 1206.42 1084.66Z" fill="url(#paint12_linear_1262_15623)"/>
<path d="M1297.35 1095.15C1297.35 1095.15 1283.64 1083.12 1240.45 1083.12L1267.07 1095.15L1263.34 1149L1263.34 1151.79L1261.84 1163.24L1283.64 1218.71L1300.46 1319.44C1300.46 1319.44 1287.45 1241.49 1328.92 1177.77C1322.16 1162.88 1305.41 1143.13 1305.41 1143.13L1291.46 1102.3L1297.35 1095.15Z" fill="url(#paint13_linear_1262_15623)"/>
<path d="M1181.89 1109.49L1197.26 1090.43L1206.38 1172.85L1199.05 1235.99L1202.48 1338.95L1172.24 1332.1L1173.89 1234.84L1182.27 1171.75L1182.27 1135.39L1184.15 1121.78L1182.27 1121.78L1181.89 1109.49Z" fill="url(#paint14_linear_1262_15623)"/>
<path d="M1256.4 1104.43L1242.23 1086.13L1240.69 1170.52L1256.49 1232.09L1267.01 1334.56L1297.66 1329.37L1281.26 1227.55L1264.44 1166.17L1256.4 1104.43Z" fill="url(#paint15_linear_1262_15623)"/>
<path d="M1201.37 1091.41L1215.21 1077.91L1238.12 1087.97L1240.14 1117.14L1236.74 1117.14L1240.14 1119L1245.22 1233.05L1267.34 1334.18L1221.25 1342.51L1206 1181.68L1203.95 1112.81L1206 1109.72L1203.02 1108.79L1201.37 1091.41Z" fill="url(#paint16_linear_1262_15623)"/>
<path d="M1337.01 994.339C1339.18 993.633 1351.86 950.103 1353.77 945.375C1353.77 945.375 1348.88 921.965 1340.7 915.318C1336.64 912.011 1331.91 909.917 1326.88 909.197C1321.85 908.478 1316.65 909.152 1311.7 911.168C1306.74 913.184 1302.16 916.488 1298.3 920.824L1318.65 946.332L1337.01 994.339Z" fill="#343434"/>
<path d="M1296.65 986.987C1298.63 987.533 1327.24 954.747 1330.61 951.639C1330.61 951.639 1336 927.431 1331.82 916.714C1329.74 911.382 1331.82 896.484 1331.82 896.484C1331.82 896.484 1314.1 897.444 1309.11 896.484C1304.12 895.523 1298.93 895.952 1293.92 897.737L1300.69 932.628L1296.65 986.987Z" fill="#1D1D1D"/>
<path d="M1264.78 983.079C1266.62 984.155 1300.01 958.981 1303.88 956.73C1303.88 956.73 1313.51 934.078 1311.49 922.358C1310.48 916.528 1308.33 911.155 1305.2 906.656C1302.07 902.157 1298.04 898.653 1293.44 896.414C1252.21 896.414 1257.34 921.876 1252.21 922.358L1278.7 930.139L1264.78 983.079Z" fill="#2D2D2D"/>
<path d="M1222.37 874.444C1221.78 873.727 1221.28 871.935 1221.28 871.935C1221.28 871.935 1223.23 866.803 1226.08 866.334C1228.94 866.68 1231.11 871.724 1231.11 871.724C1231.11 871.724 1230.69 873.536 1230.12 874.277L1226.18 871.282L1222.37 874.444Z" fill="#484848" fill-opacity="0.87"/>
<path d="M1194.05 895.972C1194.05 895.972 1226.84 915.467 1230.55 915.467C1234.26 915.467 1265.2 895.452 1265.2 895.452C1265.2 895.452 1242.33 884.535 1229.01 884.535C1215.68 884.535 1194.05 895.972 1194.05 895.972Z" fill="black"/>
<rect width="6.80504" height="6.80504" transform="matrix(-0.833797 0.552072 0.552072 0.833797 1241.02 880.203)" fill="black"/>
<rect width="6.80504" height="6.80504" transform="matrix(-0.928792 0.370602 0.370602 0.928792 1252.16 884.535)" fill="black"/>
<rect width="6.80504" height="6.80504" transform="matrix(-0.928943 -0.370222 -0.370222 0.928943 1212.61 887.054)" fill="black"/>
<rect width="6.80504" height="6.80504" transform="matrix(-0.902836 -0.429986 -0.429986 0.902836 1222.51 883.748)" fill="black"/>
<rect width="6.80504" height="6.80504" transform="matrix(-0.724283 0.689503 0.689503 0.724283 1229.57 878.967)" fill="black"/>
<path d="M1337.58 918.25L1314.63 959.086L1335.04 981.975L1324.5 956.611L1337.58 918.25Z" fill="black"/>
<path d="M1301.39 927.531L1280.48 968.106L1293.04 981.972L1289.32 963.412L1301.39 927.531Z" fill="black"/>
<path d="M1177.35 964.648L1151.98 928.767L1168.38 964.648L1168.38 984.135L1177.35 964.648Z" fill="black"/>
<path d="M1128.48 927.84C1012.17 940.213 1155.71 963.104 1176.11 966.815C1171.16 983.518 1203.02 1002.08 1203.02 1002.08C1203.02 1002.08 1250.35 994.653 1290.56 962.484C1334.48 962.484 1442.13 902.476 1345.62 917.942" stroke="black" stroke-width="4"/>
<path d="M1295.51 989.084C1285.63 1013.15 1227.72 1015.45 1204.26 1023.73C1189.72 1011.36 1175.45 1004.44 1166.21 984.754" stroke="black" stroke-width="4"/>
<path d="M1271.08 839.47L1251.93 877.434L1246.48 913.434L1263.67 881.34L1271.08 839.47Z" fill="black"/>
<path d="M1186.81 842.365L1195.38 883.885L1211.9 916.167L1205.33 880.504L1186.81 842.365Z" fill="black"/>
<path d="M1180.32 863.3L1193.26 886.203L1197.89 908.242L1186.34 888.906L1180.32 863.3Z" fill="black"/>
<path d="M1283.88 864.118L1275.72 889.128L1262.6 907.427L1269.06 885.854L1283.88 864.118Z" fill="black"/>
<path d="M1215.7 1108.48L1220.88 1111.52L1215.7 1120.33L1210.53 1111.52L1215.7 1108.48ZM1215.7 1108.48C1210.53 1111.52 1210.53 1111.52 1210.53 1111.52L1210.53 1111.52L1210.53 1111.52L1210.52 1111.5L1210.49 1111.45L1210.37 1111.25C1210.27 1111.07 1210.12 1110.82 1209.93 1110.49C1209.55 1109.84 1209.01 1108.91 1208.37 1107.78C1207.08 1105.52 1205.35 1102.46 1203.62 1099.28C1201.9 1096.1 1200.14 1092.73 1198.79 1089.86C1198.12 1088.43 1197.51 1087.04 1197.05 1085.81C1196.7 1084.86 1196.09 1083.14 1196.09 1081.45C1196.09 1076.11 1200.18 1072.79 1203.34 1071.17C1206.81 1069.38 1211.19 1068.46 1215.7 1068.46C1220.21 1068.46 1224.6 1069.38 1228.07 1071.17C1231.23 1072.79 1235.31 1076.11 1235.31 1081.45C1235.31 1083.14 1234.71 1084.86 1234.35 1085.81C1233.9 1087.04 1233.29 1088.43 1232.62 1089.86C1231.27 1092.73 1229.5 1096.1 1227.78 1099.28C1226.05 1102.46 1224.33 1105.52 1223.04 1107.78C1222.39 1108.91 1221.86 1109.84 1221.48 1110.49C1221.29 1110.82 1221.14 1111.07 1221.04 1111.25L1220.92 1111.45L1220.89 1111.5L1220.88 1111.52L1220.88 1111.52L1220.88 1111.52C1220.88 1111.52 1220.88 1111.52 1215.7 1108.48Z" stroke="black" stroke-width="12"/>
<path d="M1259.01 929.695C1259.01 929.695 1268.41 931.157 1276.94 924.337C1285.47 917.518 1291.04 902.916 1291.04 902.916C1291.04 902.916 1274.66 904.002 1266.13 910.821C1257.6 917.641 1259.01 929.695 1259.01 929.695Z" fill="black"/>
<path d="M1183.64 933.115C1192.33 938.059 1201.78 933.115 1201.78 933.115C1201.78 933.115 1201.31 922.277 1192.61 917.334C1183.92 912.391 1168.07 914.849 1168.07 914.849C1168.07 914.849 1174.94 928.172 1183.64 933.115Z" fill="black" fill-opacity="0.87"/>
<path d="M1204.55 967.092C1203.93 968.616 1203.65 970.951 1203.78 973.953C1203.91 976.877 1204.41 980.072 1205.04 983.09C1205.34 984.512 1205.67 985.875 1205.99 987.127C1207.39 985.451 1209 983.5 1210.65 981.422C1213.13 978.321 1215.69 974.971 1217.85 971.85C1220.05 968.668 1221.68 965.95 1222.45 964.062C1222.98 962.775 1223.05 961.081 1222.56 958.951C1222.07 956.834 1221.1 954.587 1219.92 952.454C1219.16 951.063 1218.34 949.776 1217.59 948.674C1216.5 949.913 1215.22 951.41 1213.87 953.055C1210.09 957.688 1206.19 963.071 1204.55 967.092Z" fill="black" stroke="black" stroke-width="8"/>
<path opacity="0.5" d="M1119.65 944.143C1107.44 955.06 1119.65 995.271 1119.65 995.271C1119.65 995.271 1161.26 1040.43 1171.78 1026.82" stroke="#464646" stroke-width="8"/>
<path opacity="0.5" d="M1105.9 958.462C1092.17 965.776 1110.23 1011.97 1110.23 1011.97C1110.23 1011.97 1143.49 1043.17 1147.04 1025.58" stroke="#464646" stroke-width="8"/>
<path opacity="0.5" d="M1302.93 1021.87C1309.49 1036.78 1354.74 978.474 1365.73 976.091C1365.73 976.091 1377.49 950.57 1360.23 945.716" stroke="#464646" stroke-width="8"/>
<path opacity="0.5" d="M1327.68 1032.39C1337.27 1061.16 1385.73 995.507 1385.73 995.507C1385.73 995.507 1381.05 969.706 1370.55 966.752" stroke="#464646" stroke-width="8"/>
<path d="M1508.94 1226.43C1508.94 1226.43 1439.03 1165.74 1408.1 954.441C1406.38 942.722 1328.3 904.72 1328.3 904.72L1332.01 917.013C1332.01 917.013 1349.06 929.495 1356.75 938.356C1364.45 947.217 1340.67 1117.41 1340.67 1197.57C1340.67 1277.72 1364.75 1274.96 1390.16 1275.51C1415.57 1276.06 1501.55 1232.35 1508.94 1226.43Z" fill="url(#paint17_linear_1262_15623)"/>
<path d="M1251.59 898.763H1207.66L1211.99 923.508H1247.88L1251.59 898.763Z" fill="black"/>
<path opacity="0.15" d="M1230.18 880.049L1225.91 883.606L1227.7 886.081V928.148L1234.82 948.718L1238.59 945.47L1230.86 926.601L1230.18 880.049Z" fill="#C4C4C4"/>
<path opacity="0.15" d="M1216.67 880.222L1214.41 886.757L1216.02 888.246L1219.42 928.148L1204.57 967.432L1216.67 945.161L1218.8 968.051L1222.51 929.386L1216.67 880.222Z" fill="#C4C4C4"/>
<path opacity="0.15" d="M1206.43 886.7L1205.19 890.103L1206.74 891.649L1213.85 922.272L1197.46 938.975L1199.31 942.378L1216.32 924.128L1206.43 886.7Z" fill="#C4C4C4"/>
<path opacity="0.15" d="M1251.28 885.771L1247.26 887.627L1248.18 889.483L1241.07 923.508L1260.25 930.004L1256.54 927.22L1243.54 922.889L1251.28 885.771Z" fill="#C4C4C4"/>
<path opacity="0.15" d="M1240.76 881.132L1236.43 884.535L1238.6 887.937L1234.27 925.056L1247.88 939.285L1250.97 937.119L1237.45 924.437L1240.76 881.132Z" fill="#C4C4C4"/>
<path d="M1063.52 1180.94C1058.66 1175.27 1069.09 1200.12 1069.09 1200.12C1069.09 1200.12 1018.01 1154.92 1022.69 1164.23C1047.8 1214.26 1128.48 1288.25 1128.48 1288.25C1128.48 1288.25 1098.67 1221.91 1063.52 1180.94Z" fill="white"/>
<rect width="6.38258" height="6.38258" transform="matrix(-0.908765 0.417309 -0.184682 0.982798 1463.88 1114.62)" fill="black"/>
<path d="M1483.32 1089.73L1461.72 1111.01L1460.14 1119.41L1467.91 1115.84L1483.32 1089.73Z" fill="black"/>
<rect width="6.38259" height="6.38259" transform="matrix(0.369879 0.92908 0.971964 0.235129 968.152 1148.29)" fill="black"/>
<path d="M944.294 1127.59L964.429 1150.26L972.74 1152.27L969.577 1144.33L944.294 1127.59Z" fill="black"/>
<path d="M1353.97 926.294C1358.51 926.087 1367.64 930.686 1367.89 950.73C1369.06 1045.37 1349.95 1113.43 1353.97 1200.66" stroke="black" stroke-opacity="0.87" stroke-width="2"/>
<path d="M1182.08 1327.17L1049.38 1263.45C1023.31 1190.76 1081.46 1225.4 1081.46 1225.4C1081.46 1225.4 1053.62 1052.02 1053.62 1013.83C1053.62 974.855 1083.87 951.203 1103.42 942.686C1110.6 939.558 1122.29 935.881 1122.29 935.881C1122.29 935.881 1110.62 949.755 1107.13 964.339C1091.33 1030.53 1193.43 1288.51 1193.43 1288.51C1193.43 1288.51 1150.64 1223.76 1182.08 1327.17Z" fill="url(#paint18_linear_1262_15623)"/>
<path d="M1205.81 1051.57L1211.68 1061.47L1217.56 1051.57L1211.68 1041.67L1205.81 1051.57Z" fill="#1F1F1F"/>
<path d="M1205.81 1075.69L1211.68 1085.59L1217.56 1075.69L1211.68 1065.8L1205.81 1075.69Z" fill="#1F1F1F"/>
<path d="M1195.91 1065.18L1202.09 1075.08L1208.28 1065.18L1202.09 1055.28L1195.91 1065.18Z" fill="#313131"/>
<path d="M1190.34 1078.79L1194.67 1088.69L1199 1078.79L1194.67 1068.89L1190.34 1078.79Z" fill="#1F1F1F"/>
<path d="M1535.08 964.007L1567.82 941.333L1553.89 919.989L1543.2 929.647C1543.2 929.647 1533.77 929.462 1528.4 934.141C1524.02 937.96 1524.17 948.414 1524.17 948.414L1535.08 964.007Z" fill="url(#paint19_linear_1262_15623)"/>
<path d="M1563.82 897.594L1561.67 926.654L1549.26 930.919L1552.23 899.088L1544 889.734L1538.69 876.315L1563.82 897.594Z" fill="black"/>
<path d="M1566.56 905.938L1570.38 928.423L1568.16 933.626L1542.69 932.169L1556.61 913.61L1546.75 898.457L1541.99 888.677L1566.56 905.938Z" fill="black"/>
<path d="M1544.24 923.675L1545 944.763L1531.83 950.111L1518.53 950.111C1518.53 950.111 1530.08 928.692 1533.8 916.419L1544.24 916.419L1544.24 923.675Z" fill="black"/>
<path d="M1580.23 903.628L1573 929.314L1558.12 929.694L1567.04 902.35L1559.86 892.113L1552.88 875.819L1580.23 903.628Z" fill="black"/>
<path d="M1578.41 907.76L1581.16 914.547L1578.3 916.723L1569.63 914.455L1560.39 906.121L1551.34 893.994L1578.41 907.76Z" fill="url(#paint20_linear_1262_15623)"/>
<path d="M1580.22 920.753L1570.58 938.709L1565.89 941.878L1558.81 931.418L1571.29 914.972L1580.22 920.753Z" fill="url(#paint21_linear_1262_15623)"/>
<path d="M1583.17 916.922L1581.14 922.412L1577.71 922.305L1572.6 916.592L1576.73 904.253L1583.17 916.922Z" fill="url(#paint22_linear_1262_15623)"/>
<path d="M1554.16 959.579L1568.59 945.677L1565.26 927.339C1565.26 927.339 1553.39 930.492 1554.16 959.579Z" fill="url(#paint23_linear_1262_15623)"/>
<path d="M1547.4 964.003L1561.84 950.101L1558.51 931.763C1558.51 931.763 1546.64 934.916 1547.4 964.003Z" fill="url(#paint24_linear_1262_15623)"/>
<path d="M1533.73 913.395L1531.03 931.532L1543.82 916.817L1552.96 908.235L1557.2 900.493L1533.73 913.395Z" fill="#101010"/>
<path d="M1185.39 1081.88V1086.21L1188.49 1077.86V1071.98L1185.39 1081.88Z" fill="#1F1F1F"/>
<path d="M1190.34 1069.51V1073.84L1193.43 1065.49V1059.61L1190.34 1069.51Z" fill="#1F1F1F"/>
<path d="M1195.35 1057.68L1194.83 1061.98L1198.91 1054.07L1199.62 1048.23L1195.35 1057.68Z" fill="#1F1F1F"/>
<path d="M1215.09 1064.56L1221.89 1074.46L1228.7 1064.56L1221.89 1054.66L1215.09 1064.56Z" fill="#1F1F1F"/>
<path d="M1224.98 1077.55L1231.79 1087.45L1238.59 1077.55L1231.79 1067.65L1224.98 1077.55Z" fill="#373737"/>
<path d="M1218.8 1045.38L1225.6 1055.28L1232.41 1045.38H1225.6H1218.8Z" fill="#111111"/>
<path d="M1229.93 1058.37L1236.74 1068.27L1243.54 1058.37L1236.74 1048.48L1229.93 1058.37Z" fill="#111111"/>
<path d="M1239.83 1071.37L1246.64 1081.26L1253.44 1071.37L1246.64 1061.47L1239.83 1071.37Z" fill="#111111"/>
<path d="M1249.11 1084.36L1255.92 1094.26L1262.72 1084.36L1255.92 1074.46L1249.11 1084.36Z" fill="#111111"/>
<path d="M1261.48 1075.08L1268.29 1084.98L1275.09 1075.08L1268.29 1065.18L1261.48 1075.08Z" fill="#111111"/>
<path d="M1270.76 1088.07L1277.57 1097.97L1284.37 1088.07L1277.57 1078.17L1270.76 1088.07Z" fill="#111111"/>
<path d="M1236.74 1090.54L1243.55 1100.44L1250.35 1090.54L1243.55 1080.64L1236.74 1090.54Z" fill="#1F1F1F"/>
<path d="M1247.88 1103.54L1254.68 1113.43L1261.49 1103.54L1254.68 1093.64L1247.88 1103.54Z" fill="#1F1F1F"/>
<path d="M1257.78 1116.53L1264.58 1126.42L1271.39 1116.53L1264.58 1106.63L1257.78 1116.53Z" fill="#282828"/>
<path d="M1267.06 1129.52L1273.86 1139.42L1280.67 1129.52L1273.86 1119.62L1267.06 1129.52Z" fill="#1F1F1F"/>
<path d="M1276.95 1142.51L1283.76 1152.41L1290.56 1142.51L1283.76 1132.61L1276.95 1142.51Z" fill="#212121"/>
<path d="M1286.85 1155.5L1293.66 1165.4L1300.46 1155.5L1293.66 1145.6L1286.85 1155.5Z" fill="#212121"/>
<path d="M1296.13 1168.49L1302.94 1178.39L1309.74 1168.49L1302.94 1158.59L1296.13 1168.49Z" fill="black"/>
<path d="M1304.79 1180.24L1311.6 1190.14L1318.4 1180.24L1311.6 1170.35L1304.79 1180.24Z" fill="black"/>
<path d="M1313.45 1192L1320.26 1201.9L1327.06 1192L1320.26 1182.1L1313.45 1192Z" fill="black"/>
<path d="M1258.39 1094.25L1265.2 1104.15L1272 1094.25L1265.2 1084.36L1258.39 1094.25Z" fill="#1F1F1F"/>
<path d="M1269.53 1107.25L1276.33 1117.14L1283.14 1107.25L1276.33 1097.35L1269.53 1107.25Z" fill="#1F1F1F"/>
<path d="M1279.43 1120.24L1286.23 1130.14L1293.04 1120.24L1286.23 1110.34L1279.43 1120.24Z" fill="#1F1F1F"/>
<path d="M1288.71 1133.23L1295.51 1143.13L1302.32 1133.23L1295.51 1123.33L1288.71 1133.23Z" fill="black"/>
<path d="M1297.37 1145.6L1304.18 1155.5L1310.98 1145.6L1304.18 1135.7L1297.37 1145.6Z" fill="black"/>
<path d="M1306.03 1157.97L1312.83 1167.87L1319.64 1157.97L1312.83 1148.08L1306.03 1157.97Z" fill="black"/>
<path d="M1314.69 1170.35L1321.5 1180.25L1328.3 1170.35L1321.5 1160.45L1314.69 1170.35Z" fill="black"/>
<path d="M1323.35 1182.72L1330.16 1192.62L1336.96 1182.72L1330.16 1172.82L1323.35 1182.72Z" fill="black"/>
<path d="M1280.66 1099.82L1287.47 1109.72L1294.27 1099.82L1287.47 1089.92L1280.66 1099.82Z" fill="black"/>
<path d="M1289.94 1110.96L1296.75 1120.86L1303.55 1110.96L1296.75 1101.06L1289.94 1110.96Z" fill="black"/>
<path d="M1292.38 990.034C1297.11 998.864 1318.4 1004.55 1318.4 1004.55C1318.4 1004.55 1329.09 981.72 1324.35 972.891C1319.62 964.062 1308.62 960.742 1299.79 965.476C1290.96 970.21 1287.65 981.205 1292.38 990.034Z" fill="black"/>
<path d="M1182.3 921.035C1182.3 921.035 1185.68 927.222 1187.56 927.222C1189.44 927.222 1191.89 926.294 1191.89 926.294C1191.89 926.294 1189.44 921.035 1187.56 921.035C1185.68 921.035 1182.3 921.035 1182.3 921.035Z" fill="#2C2C2C"/>
<path d="M1267.05 920.415C1267.05 920.415 1269.81 920.415 1271.69 920.415C1273.57 920.415 1275.09 914.383 1275.09 914.383C1275.09 914.383 1272.33 914.383 1270.45 914.383C1268.57 914.383 1267.05 920.415 1267.05 920.415Z" fill="#2C2C2C"/>
<path d="M1207.66 967.741C1207.66 969.62 1208.59 973.618 1208.59 973.618C1208.59 973.618 1213.85 969.62 1213.85 967.741C1213.85 965.861 1211.99 963.41 1211.99 963.41C1211.99 963.41 1207.66 965.861 1207.66 967.741Z" fill="#2C2C2C"/>
<path fill-rule="evenodd" clip-rule="evenodd" d="M1603.1 1121.33L1637 1096.5L1611 1077.5L1637 990.324C1637 990.324 1599.88 1055.28 1512.03 1156.12C1466.41 1208.49 1384.88 1281.14 1384.88 1281.14L1561.45 1151.83L1572.07 1139.28C1572.07 1133.79 1639.21 1058.62 1583.04 1129.35C1585.87 1129.35 1590.64 1125.99 1594.91 1122.98C1599.75 1119.57 1603.95 1116.62 1603.95 1119.53C1603.95 1119.97 1603.65 1120.58 1603.1 1121.33Z" fill="white"/>
<path d="M1098.16 922.581L1119.51 956.606L1113.94 981.352L1129.71 958.772L1098.16 922.581Z" fill="black"/>
<path d="M1128.48 929.077L1148.07 963.736L1146.11 983.518L1157.66 963.736L1128.48 929.077Z" fill="black"/>
<path d="M1544.93 968.887L1561.82 952.619L1557.93 931.159C1557.93 931.159 1544.04 934.849 1544.93 968.887Z" fill="url(#paint25_linear_1262_15623)"/>
<path d="M1537.03 974.062L1553.93 957.794L1550.03 936.334C1550.03 936.334 1536.14 940.024 1537.03 974.062Z" fill="url(#paint26_linear_1262_15623)"/>
<path d="M1249.78 857.064C1249.78 857.064 1240.99 855.405 1236.45 857.746C1228.93 861.625 1232.85 875.488 1232.85 875.488C1232.85 875.488 1235.78 876.432 1241.16 877.056C1248.39 872.656 1249.78 857.064 1249.78 857.064Z" fill="url(#paint27_linear_1262_15623)"/>
<path d="M1203.09 857.061C1203.09 857.061 1211.86 855.524 1216.41 857.789C1223.95 861.542 1220.11 874.784 1220.11 874.784C1220.11 874.784 1217.19 875.671 1211.81 876.237C1204.57 871.987 1203.09 857.061 1203.09 857.061Z" fill="url(#paint28_linear_1262_15623)"/>
<path d="M1232.41 862.573C1232.41 866.16 1235.32 869.069 1238.91 869.069C1242.49 869.069 1246.02 867.398 1246.02 863.81C1246.02 860.223 1242.49 856.077 1238.91 856.077C1235.32 856.077 1232.41 860.098 1232.41 862.573Z" fill="#3A3A3A"/>
<path d="M1206.74 863.192C1206.74 866.779 1209.95 869.069 1213.54 869.069C1217.13 869.069 1220.04 866.16 1220.04 862.573C1220.04 860.408 1217.13 856.077 1213.54 856.077C1209.95 856.077 1206.74 859.604 1206.74 863.192Z" fill="#3A3A3A"/>
<path d="M1368.82 903.094L1345.62 946.089L1368.82 961.555L1355.21 942.996L1368.82 903.094Z" fill="black"/>
<path d="M1420.47 984.135L1426.04 964.339L1455.12 967.432L1515.75 947.636V937.737L1527.5 939.593C1527.5 939.593 1523.48 947.636 1518.84 950.11C1523.48 947.636 1532.14 947.636 1532.14 947.636L1542.35 967.432L1538.63 978.568L1530.59 972.381L1472.44 1014.45L1455.12 1039.19L1437.18 1034.86L1455.12 997.127L1420.47 984.135Z" fill="url(#paint29_linear_1262_15623)"/>
<path d="M1427.9 964.958L1422.95 982.899L1458.52 995.89L1441.82 1030.84L1455.74 1036.41" stroke="white" stroke-opacity="0.14" stroke-width="4"/>
<path d="M1473.68 1015.07C1477.08 997.746 1467.8 974.856 1456.05 965.886" stroke="white" stroke-opacity="0.14" stroke-width="4" stroke-linecap="round"/>
<path d="M1528.12 975.785C1530.28 964.65 1520.39 947.946 1509.56 947.946" stroke="white" stroke-opacity="0.14" stroke-width="4" stroke-linecap="round"/>
<path fill-rule="evenodd" clip-rule="evenodd" d="M1512.4 976.521C1510.22 977.988 1507.67 979.16 1504.96 979.945C1502.24 980.731 1499.42 981.109 1496.72 981.052C1494.02 980.994 1491.51 980.502 1489.38 979.614C1487.25 978.725 1485.56 977.463 1484.44 975.925C1483.32 974.386 1482.79 972.613 1482.9 970.739C1483.02 968.866 1483.76 966.943 1485.09 965.118C1486.41 963.292 1488.28 961.613 1490.55 960.209C1492.81 958.805 1495.42 957.712 1498.16 957.016L1486.09 956.402L1464.76 964.915C1464.76 964.915 1482.94 957.66 1476.88 963.331C1474.88 966.092 1473.75 969 1473.58 971.833C1473.41 974.666 1474.2 977.349 1475.9 979.675C1477.6 982.002 1480.16 983.91 1483.38 985.254C1486.6 986.599 1494.48 987.43 1494.48 987.43C1494.48 987.43 1494.05 988.618 1498.16 987.43C1493.39 993.339 1486.09 1004.55 1486.09 1004.55L1512.4 976.521Z" fill="#4A4A4A"/>
<path d="M1113.32 939.283C1069.09 964.957 1131.57 1154.26 1154.46 1216.12" stroke="#171717" stroke-width="2"/>
<rect width="4.94912" height="4.94912" transform="matrix(-0.707107 0.707107 0.707107 0.707107 1353.87 1197.57)" fill="black"/>
<rect width="4.94912" height="4.94912" transform="matrix(-0.783375 0.62155 0.62155 0.783375 1358.01 1093.02)" fill="black"/>
<rect width="4.94912" height="4.94912" transform="matrix(-0.72863 0.684908 0.684908 0.72863 1366.97 994.651)" fill="black"/>
<rect width="4.94912" height="4.94912" transform="matrix(-0.469074 0.883159 0.883159 0.469074 1153.8 1213.65)" fill="black"/>
<rect width="4.94912" height="4.94912" transform="matrix(-0.469074 0.883159 0.883159 0.469074 1119.16 1108.48)" fill="black"/>
<rect width="4.94912" height="4.94912" transform="matrix(-0.669155 0.743122 0.743122 0.669155 1099.44 1006.41)" fill="black"/>
<path d="M1356.16 1263.27L1385.24 1281.83L1395.76 1271.31L1359.88 1254.3L1356.16 1263.27Z" fill="#C4C4C4"/>
<path d="M1433.83 1213.18C1433.83 1213.18 1401.55 1258.9 1420.27 1275.11C1439.26 1291.56 1479.85 1250.85 1479.85 1250.85L1468.35 1230.98L1457.24 1232.59L1456.12 1222.37L1433.83 1213.18Z" fill="#8B8B8B"/>
<path d="M1434.99 1218.87C1434.99 1218.87 1407.61 1257.67 1423.49 1271.42C1439.6 1285.37 1474.04 1250.84 1474.04 1250.84L1464.28 1233.98L1454.85 1235.34L1453.9 1226.67L1434.99 1218.87Z" fill="#B5B5B5"/>
<path d="M1146.76 1293.98C1146.76 1320.98 1133.01 1339.98 1109.95 1339.98C1086.89 1339.98 1093.55 1303.18 1073.76 1283.06C1073.76 1256.07 1109.95 1242.24 1109.95 1242.24C1109.95 1242.24 1146.76 1266.99 1146.76 1293.98Z" fill="#C4C4C4"/>
<path fill-rule="evenodd" clip-rule="evenodd" d="M926.521 1200.17L927.977 1197.69L942.235 1206.65C944.427 1205.38 948.772 1203.26 953.432 1203.26C958.698 1203.26 962.21 1215.05 963.451 1219.99L1142.05 1332.29L1140.4 1334.9L962.844 1223.05C961.061 1224.4 957.262 1226.77 952.504 1226.77C947.134 1226.77 942.785 1214.31 941.299 1209.48L926.521 1200.17ZM946.149 1209.11C946.19 1209.09 946.232 1209.08 946.273 1209.06C948.32 1208.11 950.854 1207.28 953.347 1207.26C953.434 1207.3 953.887 1207.52 954.661 1208.58C955.647 1209.92 956.602 1211.89 957.451 1214.12C957.795 1215.02 958.108 1215.93 958.389 1216.81L946.149 1209.11ZM959.159 1220.73L946.689 1212.87C947.023 1213.75 947.392 1214.66 947.791 1215.57C948.79 1217.85 949.891 1219.89 951 1221.3C951.927 1222.48 952.458 1222.72 952.558 1222.76C952.566 1222.77 952.571 1222.77 952.574 1222.77C954.955 1222.75 957.1 1221.91 958.739 1220.98C958.884 1220.89 959.024 1220.81 959.159 1220.73Z" fill="black" fill-opacity="0.38"/>
<path d="M1319.87 1202.27C1315.96 1208.26 1314.86 1213.72 1314.86 1213.72L1325.23 1213.72C1325.23 1213.72 1342.55 1206.91 1337.92 1203.88C1333.28 1200.86 1323.78 1196.27 1319.87 1202.27Z" fill="#C4C4C4"/>
<path d="M1293.99 1244.25C1293.99 1255.08 1301.15 1269.46 1301.15 1269.46C1301.15 1269.46 1310.1 1253.9 1327.4 1244.25C1327.4 1235.59 1325.31 1221.53 1325.31 1221.53C1325.31 1221.53 1311.44 1220.79 1308.61 1221.53C1302.64 1223.09 1293.99 1233.42 1293.99 1244.25Z" fill="#8B8B8B"/>
<path d="M1133.06 1277.43C1131.49 1279.47 1135.11 1284.89 1135.11 1284.89C1135.11 1284.89 1141.34 1281.06 1142.92 1279.01C1146.98 1273.73 1171.22 1239.05 1171.22 1239.05C1168.1 1239.05 1134.64 1275.38 1133.06 1277.43Z" fill="#E8E8E8"/>
<path d="M1234.63 1338.19C1234.63 1355.58 1227.8 1367.82 1227.8 1367.82C1227.8 1367.82 1284.71 1350.76 1284.71 1333.38C1284.71 1315.99 1273.74 1295.96 1253.12 1304.12C1217.55 1318.19 1234.63 1320.81 1234.63 1338.19Z" fill="#A6A4A4"/>
<path fill-rule="evenodd" clip-rule="evenodd" d="M1534.09 1097.47C1536.8 1097.89 1543.53 1097.94 1552.18 1090.82C1566.37 1079.15 1598.36 1069.63 1598.36 1069.63L1588 1079.77L1598.36 1088.67C1589.28 1088.88 1567.59 1091.44 1553.53 1100.04C1539.36 1108.7 1524.1 1110.98 1518.72 1111.53L1285.33 1325.13V1321.42L1535.15 1092.3L1537.23 1094.59L1534.09 1097.47Z" fill="#C4C4C4"/>
<path d="M1288.5 1296.34C1286.06 1294.52 1284.08 1292.18 1282.7 1289.48C1281.31 1286.78 1280.57 1283.8 1280.52 1280.76C1280.47 1277.73 1281.13 1274.73 1282.42 1271.99C1283.72 1269.24 1285.63 1266.84 1288.01 1264.95C1290.38 1263.06 1293.16 1261.75 1296.12 1261.11C1299.09 1260.46 1302.16 1260.51 1305.1 1261.24C1308.05 1261.98 1310.78 1263.38 1313.1 1265.34C1315.41 1267.3 1317.25 1269.76 1318.46 1272.54L1300.32 1280.45L1288.5 1296.34Z" fill="#8B8B8B"/>
<path d="M1277.28 1325.63C1274.85 1323.82 1273.06 1321.21 1272.06 1318C1271.06 1314.79 1270.86 1311.07 1271.5 1307.12C1272.13 1303.17 1273.57 1299.1 1275.71 1295.23C1277.85 1291.36 1280.63 1287.78 1283.84 1284.78C1287.05 1281.78 1290.59 1279.43 1294.2 1277.91C1297.81 1276.4 1301.4 1275.77 1304.67 1276.05C1307.94 1276.34 1310.82 1277.55 1313.09 1279.58C1315.35 1281.61 1316.94 1284.41 1317.72 1287.76L1294.71 1302.22L1277.28 1325.63Z" fill="#8B8B8B"/>
<path d="M1146.14 1226.96L1147.69 1230.48L1144.59 1232.03L1138.94 1263.89L1104.07 1249.69L1119.54 1223.06V1218.73H1122.8L1146.14 1226.96Z" fill="#A6A4A4"/>
<path d="M1061.38 1227.7C1061.38 1238.46 1066.33 1275.02 1066.33 1275.02C1066.33 1275.02 1008.8 1240.38 1023.03 1221.2C1023.03 1210.44 1057.05 1206.97 1057.05 1206.97C1057.05 1206.97 1061.38 1216.93 1061.38 1227.7Z" fill="#A6A4A4"/>
<path d="M1072.83 1261.1C1072.83 1271.87 1066.33 1275.02 1066.33 1275.02L1063.86 1255.54L1057.05 1209.45C1057.05 1209.45 1072.83 1250.34 1072.83 1261.1Z" fill="#8B8B8B"/>
<path d="M1321.39 1216.5L1317.62 1215.8L1324.55 1211.68C1324.55 1211.68 1330.97 1210.48 1328.83 1212.39C1326.69 1214.3 1321.39 1216.5 1321.39 1216.5Z" fill="#C4C4C4"/>
<path d="M1389.88 1250.61C1389.88 1250.61 1399.98 1255.63 1403.49 1266.98C1408.63 1283.56 1384.31 1299.77 1384.31 1299.77C1384.31 1299.77 1421.59 1287.18 1433.5 1269.46C1440 1259.78 1441.23 1242.57 1441.23 1242.57L1442.78 1266.98L1463.19 1237.91L1417.1 1222.44L1389.88 1250.61Z" fill="#A6A4A4"/>
<path d="M961.163 1230.48C961.163 1230.48 1007.52 1310.88 1036.02 1329.47C1064.51 1348.05 1079.54 1348.64 1089.22 1333.8C1105.76 1308.43 1064.48 1275.64 1064.48 1275.64L1014.98 1247.81L961.163 1230.48Z" fill="#8B8B8B"/>
<path d="M1332.04 1274.4C1341.22 1282.1 1358.95 1285.23 1358.95 1285.23C1358.95 1285.23 1362.02 1266.35 1352.84 1258.65C1343.65 1250.95 1332.3 1249.37 1327.48 1255.12C1322.66 1260.86 1322.85 1266.71 1332.04 1274.4Z" fill="#8B8B8B"/>
<rect width="3.0932" height="198.158" transform="matrix(-0.770744 0.637145 0.637145 0.770744 1031.02 1139.54)" fill="#C4C4C4"/>
<path d="M1293.99 1241.77C1293.99 1252.6 1301.15 1266.98 1301.15 1266.98C1301.15 1266.98 1310.1 1251.42 1327.4 1241.77C1327.4 1233.12 1325.31 1219.06 1325.31 1219.06C1325.31 1219.06 1311.44 1218.32 1308.61 1219.06C1302.64 1220.61 1293.99 1230.95 1293.99 1241.77Z" fill="#A6A4A4"/>
<path d="M1291.21 1238.35C1291.21 1249.11 1296.16 1262.17 1296.16 1262.17C1296.16 1262.17 1298.01 1250.9 1306.67 1246.26C1293.37 1244.09 1302.34 1233.71 1302.34 1233.71C1302.34 1233.71 1291.21 1232.32 1291.21 1238.35Z" fill="#C6C6C6"/>
<path d="M1385.34 1219.82C1387.11 1227.79 1387.41 1226.46 1387.41 1226.46L1390.5 1222.75L1390.19 1227.39L1398.23 1239.14L1413.39 1222.75L1400.09 1202.95C1400.09 1202.95 1383.57 1211.84 1385.34 1219.82Z" fill="#A6A4A4"/>
<path d="M1379.88 1210.82C1381.45 1209.29 1383.62 1208.3 1386.03 1208.03C1388.45 1207.75 1390.95 1208.21 1393.15 1209.32C1395.34 1210.42 1397.08 1212.12 1398.09 1214.13C1399.11 1216.13 1399.32 1218.33 1398.71 1220.35L1388.21 1217.35L1379.88 1210.82Z" fill="#8B8B8B"/>
<path d="M1113.97 1338.12L1092.35 1257.66C1092.35 1257.66 1086 1257.38 1087.98 1253.68C1089.97 1249.98 1098 1247.47 1101.41 1245.03C1104.83 1242.59 1102.71 1238.28 1106.85 1237.6C1129.06 1233.95 1144.02 1262.37 1142.42 1278.74L1117.34 1267.32C1117.34 1267.32 1090.46 1281.21 1074.37 1289.25C1058.29 1297.29 1113.97 1338.12 1113.97 1338.12Z" fill="#8B8B8B"/>
<path d="M1003.89 1268.04C1002.28 1264.46 1001.46 1260.57 1001.48 1256.65C1001.5 1252.72 1002.37 1248.85 1004.02 1245.28C1005.67 1241.72 1008.07 1238.56 1011.05 1236C1014.03 1233.45 1017.53 1231.56 1021.3 1230.48C1025.07 1229.39 1029.04 1229.13 1032.92 1229.71C1036.8 1230.29 1040.52 1231.7 1043.81 1233.84C1047.1 1235.98 1049.89 1238.8 1052 1242.12C1054.1 1245.43 1055.47 1249.16 1056.01 1253.05L1028.87 1256.8L1003.89 1268.04Z" fill="#8B8B8B"/>
<rect width="7.73619" height="7.73619" transform="matrix(-0.152499 0.988304 0.594656 0.80398 1149.2 1129.19)" fill="#C4C4C4"/>
<path d="M1139.67 1090.56L1144.87 1128.28L1151.03 1136.62L1152.61 1126.37L1139.67 1090.56Z" fill="#C4C4C4"/>
<rect width="7.03121" height="7.0312" transform="matrix(0.27191 0.962321 0.940996 0.338421 1024.39 1134.49)" fill="#ADADAD"/>
<path d="M1000.64 1109.01L1020.1 1136.2L1028.96 1139.39L1026.4 1130.33L1000.64 1109.01Z" fill="#ADADAD"/>
<path d="M1331.17 1202.76C1324.97 1212.27 1355.86 1228.93 1355.86 1228.93L1379.36 1222.44L1369.47 1212.27C1369.47 1212.27 1333.47 1199.24 1331.17 1202.76Z" fill="#C4C4C4"/>
<path d="M1337.65 1259.34C1340.53 1266.73 1349.32 1271.67 1349.32 1271.67C1349.32 1271.67 1387.24 1248.58 1384.37 1241.19C1381.5 1233.8 1368.72 1231.88 1355.82 1236.89C1342.91 1241.9 1334.78 1251.96 1337.65 1259.34Z" fill="#C4C4C4"/>
<path d="M1359.46 1227.58C1354.93 1234.52 1370.39 1252.75 1370.39 1252.75C1370.39 1252.75 1379.02 1250.23 1383.54 1243.29C1388.07 1236.35 1386.34 1227.21 1379.69 1222.87C1373.04 1218.53 1372.25 1214.4 1359.46 1227.58Z" fill="#8B8B8B"/>
<path d="M1422.67 1221.51L1432.88 1235.43C1432.88 1235.43 1446.54 1234.89 1443.77 1227.08C1440.99 1219.27 1432.88 1216.87 1432.88 1216.87L1422.67 1221.51Z" fill="#8B8B8B"/>
<path d="M1224.4 1301.62C1224.4 1330.67 1216.97 1336.58 1216.97 1336.58C1216.97 1336.58 1277.29 1320.15 1277.29 1291.11C1277.29 1262.07 1248.21 1243.16 1232.13 1250.28C1221.3 1268.22 1224.4 1272.58 1224.4 1301.62Z" fill="#C4C4C4"/>
<path d="M1224.32 1287.09L1224.32 1307.43C1224.32 1307.43 1245.59 1302.62 1253.7 1290.18C1261.82 1277.74 1260.45 1266.77 1253.7 1262.37C1246.95 1257.97 1224.32 1287.09 1224.32 1287.09Z" fill="#8B8B8B"/>
<path d="M1214.19 1297.91C1197.24 1329.99 1220.36 1356.68 1220.36 1356.68C1220.36 1356.68 1204.25 1352.87 1224.17 1313.07C1244.08 1273.28 1228.29 1249.92 1220.36 1249.87C1212.44 1249.82 1231.14 1265.84 1214.19 1297.91Z" fill="#8B8B8B"/>
<path d="M1232.75 1268.53C1231.81 1275.68 1236.62 1282.81 1245.74 1283.99C1254.85 1285.18 1262.75 1280.32 1263.68 1273.17C1264.61 1266.02 1250.17 1256.59 1250.17 1256.59C1250.17 1256.59 1233.68 1261.38 1232.75 1268.53Z" fill="#8B8B8B"/>
<path d="M1227.89 1271C1226.32 1267.6 1225.56 1263.88 1225.67 1260.14C1225.77 1256.4 1226.73 1252.73 1228.47 1249.42C1231.98 1242.76 1242.68 1243.51 1250.09 1242.24C1298.14 1251.46 1381.84 1274.41 1381.84 1274.41C1381.84 1274.41 1253.78 1242.96 1279.15 1274.4C1279.15 1274.4 1263.06 1255.23 1247.9 1255.23C1232.75 1255.23 1227.89 1271 1227.89 1271Z" fill="#8B8B8B"/>
<path fill-rule="evenodd" clip-rule="evenodd" d="M1303.2 1310.38C1298.22 1307.06 1294.38 1302.96 1292.71 1297.92C1285.12 1275.02 1293.95 1251.49 1312.43 1245.36C1330.92 1239.23 1359.65 1275.73 1359.65 1275.73L1352.76 1324.21C1352.76 1324.21 1347.65 1323.88 1340.39 1322.73C1340.26 1311.39 1331.03 1302.24 1319.67 1302.24C1312.96 1302.24 1306.99 1305.43 1303.2 1310.38Z" fill="#B1AFAF"/>
<path d="M1389.08 1272.55L1371.32 1307.19L1350.02 1312.44C1350.02 1312.44 1350.49 1298.52 1356.99 1295.87C1363.49 1293.22 1389.08 1272.55 1389.08 1272.55Z" fill="white"/>
<path d="M1205.27 1241.79C1205.27 1241.79 1209.53 1243.75 1211.88 1247.95C1213.72 1251.23 1216.91 1260.9 1216.91 1260.9C1216.91 1260.9 1226.66 1260.74 1232.05 1256.59C1237.22 1252.6 1241.83 1243.52 1241.83 1243.52C1241.83 1243.52 1234.71 1239.15 1232.25 1236.38C1229.52 1233.32 1229.08 1226.35 1229.08 1226.35L1212.12 1226.79L1205.27 1241.79Z" fill="#A6A4A4"/>
<path d="M1320.28 1326.68C1320.28 1326.68 1304.05 1294.67 1308.22 1287.7C1313.15 1279.47 1330.67 1279.9 1330.67 1279.9L1296.16 1268.84C1296.16 1268.84 1287.7 1281.11 1290.59 1294.2C1299.15 1291.4 1320.28 1326.68 1320.28 1326.68Z" fill="#C4C4C4"/>
<ellipse rx="28.7549" ry="13.4584" transform="matrix(-0.734689 -0.678404 -0.678404 0.734689 1151.22 1301.64)" fill="#8B8B8B"/>
<path d="M1154.71 1296.88C1154.71 1296.88 1161.6 1339.98 1192.12 1361.95C1208.04 1337.86 1202.43 1296.88 1202.43 1296.88L1179.88 1276.62L1154.71 1296.88Z" fill="#7B7B7B"/>
<path d="M1122.49 1282.44C1115.46 1290.05 1129.12 1317.85 1129.12 1317.85C1129.12 1317.85 1137.55 1310.44 1144.57 1302.84C1151.6 1295.23 1152.35 1284.5 1146.25 1278.87C1140.15 1273.24 1129.51 1274.84 1122.49 1282.44Z" fill="#8B8B8B"/>
<circle r="2.47456" transform="matrix(-1 0 0 1 1304.51 1240.38)" fill="#C4C4C4"/>
<path d="M1335.85 1270.16C1332.92 1269.39 1330.2 1267.97 1327.9 1265.98C1325.61 1264 1323.8 1261.52 1322.61 1258.73C1321.43 1255.93 1320.9 1252.9 1321.08 1249.88C1321.25 1246.85 1322.11 1243.9 1323.61 1241.26C1325.1 1238.62 1327.18 1236.36 1329.68 1234.65C1332.19 1232.94 1335.06 1231.83 1338.06 1231.4C1341.06 1230.97 1344.12 1231.24 1347.01 1232.19C1349.89 1233.13 1336 1231.2 1336.1 1243.79C1336.19 1256.37 1344.84 1262.88 1344.84 1262.88L1335.85 1270.16Z" fill="#C9C9C9"/>
<path d="M1336.13 1265.4C1333.7 1263.59 1331.72 1261.25 1330.33 1258.55C1328.95 1255.85 1328.21 1252.86 1328.16 1249.83C1328.11 1246.8 1328.76 1243.8 1330.06 1241.05C1331.36 1238.31 1333.27 1235.9 1335.64 1234.02C1338.02 1232.13 1340.8 1230.82 1343.76 1230.17C1346.72 1229.53 1349.8 1229.58 1352.74 1230.31C1355.68 1231.05 1358.42 1232.45 1360.74 1234.4C1363.05 1236.36 1350.91 1229.35 1346.27 1241.05C1341.63 1252.75 1347.2 1262.03 1347.2 1262.03L1336.13 1265.4Z" fill="#8B8B8B"/>
<path d="M1393.21 1113.12L1401.67 1108.6L1275.27 1273.85L1274.05 1268.25L1393.21 1113.12Z" fill="#C4C4C4"/>
<path d="M1180.78 1249.35L1183.56 1252.75L1178.62 1255.23L1180.78 1261.72L1183.56 1263.27L1182.02 1265.44L1183.56 1268.53C1183.56 1268.53 1192.65 1276.2 1196.25 1270.69C1199.84 1265.19 1200.58 1267.91 1193.46 1252.75C1186.81 1248.42 1180.78 1249.35 1180.78 1249.35Z" fill="#C4C4C4"/>
<path d="M1200.24 1264.26L1191.01 1275.43L1195.51 1277.19L1218.63 1303.14L1225.94 1301.63L1235.84 1304.1L1231.82 1293.89L1230.99 1284.88L1202.59 1268.2L1200.24 1264.26Z" fill="#C4C4C4"/>
<rect width="3.0932" height="277.442" transform="matrix(-0.965933 0.258793 0.258793 0.965933 1152.25 1133.97)" fill="#C4C4C4"/>
<path d="M1045.93 1295.1C1055.39 1300.22 1058.77 1296.9 1063.55 1291.78C1069.06 1285.88 1069.55 1276.51 1063.55 1271.11C1045.93 1255.23 1013.56 1246.36 1013.56 1246.36C1013.56 1246.36 1036.46 1289.98 1045.93 1295.1Z" fill="#5A5A5A"/>
<path d="M1047.6 1289.55C1055.27 1293.7 1058.01 1291 1061.88 1286.85C1066.35 1282.07 1066.75 1274.48 1061.88 1270.09C1047.6 1257.22 1021.36 1250.03 1021.36 1250.03C1021.36 1250.03 1039.92 1285.39 1047.6 1289.55Z" fill="#484848"/>
<path d="M1053.03 1285.23L1060.17 1289.83C1060.17 1289.83 1060.59 1283.66 1057.05 1278.12C1053.52 1272.57 1053.97 1269.96 1048.78 1273.27C1043.59 1276.58 1053.03 1285.23 1053.03 1285.23Z" fill="#C4C4C4"/>
<path d="M1049.66 1278.02L1053.02 1271.47C1053.02 1271.47 1052.63 1266.58 1051.32 1266.49C1050 1266.41 1049.2 1268.42 1049 1271.57C1048.79 1274.73 1049.66 1278.02 1049.66 1278.02Z" fill="#C4C4C4"/>
<path d="M1061.01 1270.74L1053.67 1271.18C1053.67 1271.18 1049.35 1268.84 1049.8 1267.6C1050.25 1266.37 1052.42 1266.45 1055.39 1267.54C1058.36 1268.62 1061.01 1270.74 1061.01 1270.74Z" fill="#C4C4C4"/>
<path d="M1051.87 1278.83L1060.78 1273.96C1060.78 1273.96 1058.01 1272.43 1053.74 1273.35C1049.47 1274.27 1047.48 1275.59 1047.77 1276.92C1048.05 1278.24 1051.87 1278.83 1051.87 1278.83Z" fill="#E9E9E9"/>
<path d="M1055.26 1283.58L1066.67 1278.18C1066.67 1278.18 1063.28 1276.78 1057.9 1277.94C1052.51 1279.09 1049.96 1280.54 1050.24 1281.86C1050.53 1283.19 1055.26 1283.58 1055.26 1283.58Z" fill="#E9E9E9"/>
<path d="M1055.97 1284.88L1065.5 1281.37C1065.5 1281.37 1064.83 1284.47 1061.33 1287.08C1057.83 1289.69 1055.52 1290.31 1054.71 1289.23C1053.91 1288.14 1055.97 1284.88 1055.97 1284.88Z" fill="#E9E9E9"/>
<path d="M1061.51 1290.77L1068.22 1287.1C1068.22 1287.1 1066.14 1285.94 1062.92 1286.64C1059.7 1287.33 1058.21 1288.33 1058.43 1289.32C1058.64 1290.32 1061.51 1290.77 1061.51 1290.77Z" fill="#E9E9E9"/>
<circle cx="1072.28" cy="1272.78" r="6.41556" transform="rotate(0.0533945 1072.28 1272.78)" fill="white"/>
<path d="M977.421 1266.36C977.421 1266.36 1013.89 1312.69 1024.46 1316.96C1035.04 1321.22 1045.4 1320.26 1047.6 1314.79C1049.81 1309.33 1032.45 1297.17 1032.45 1297.17L977.421 1266.36Z" fill="white"/>
<path d="M1391.38 1248.86L1378.38 1266.49C1378.38 1266.49 1388.61 1271.65 1396.63 1269.59C1404.66 1267.52 1412.1 1252.58 1412.1 1252.58L1391.38 1248.86Z" fill="#A6A4A4"/>
<path d="M1388.95 1242.24L1375.96 1259.87C1375.96 1259.87 1386.19 1265.02 1394.21 1262.96C1402.23 1260.9 1409.68 1245.95 1409.68 1245.95L1388.95 1242.24Z" fill="#8B8B8B"/>
<path d="M1193.84 1217.05C1195.08 1206.94 1204.03 1211.01 1209.42 1208.37C1214.81 1205.73 1221.26 1215.03 1226.74 1216.41C1232.23 1217.79 1223.57 1204.5 1226.74 1209.29C1229.92 1214.09 1259.72 1244.68 1259.72 1244.68C1259.72 1244.68 1243.33 1230.55 1233.55 1228.7C1226.7 1227.4 1215.69 1228.7 1215.69 1228.7L1193.84 1217.05Z" fill="#8B8B8B"/>
</g>
<defs>
<linearGradient id="paint0_linear_1262_15623" x1="933.065" y1="970.853" x2="931.921" y2="1012.22" gradientUnits="userSpaceOnUse">
<stop stop-color="#1E1E1E"/>
<stop offset="1"/>
</linearGradient>
<linearGradient id="paint1_linear_1262_15623" x1="776.848" y1="889.85" x2="912.623" y2="885.897" gradientUnits="userSpaceOnUse">
<stop stop-color="#414141"/>
<stop offset="1" stop-color="#414141" stop-opacity="0"/>
</linearGradient>
<linearGradient id="paint2_linear_1262_15623" x1="907.207" y1="936.072" x2="941.693" y2="961.345" gradientUnits="userSpaceOnUse">
<stop stop-color="#474747"/>
<stop offset="1"/>
</linearGradient>
<linearGradient id="paint3_linear_1262_15623" x1="946.323" y1="956.565" x2="906.086" y2="958.44" gradientUnits="userSpaceOnUse">
<stop stop-color="#474747"/>
<stop offset="1"/>
</linearGradient>
<linearGradient id="paint4_linear_1262_15623" x1="911.968" y1="957.663" x2="897.071" y2="965.673" gradientUnits="userSpaceOnUse">
<stop stop-color="#474747"/>
<stop offset="1"/>
</linearGradient>
<linearGradient id="paint5_linear_1262_15623" x1="917.187" y1="947.784" x2="901.469" y2="961.829" gradientUnits="userSpaceOnUse">
<stop stop-color="#474747"/>
<stop offset="1"/>
</linearGradient>
<linearGradient id="paint6_linear_1262_15623" x1="928.321" y1="950.876" x2="912.603" y2="964.921" gradientUnits="userSpaceOnUse">
<stop stop-color="#474747"/>
<stop offset="1"/>
</linearGradient>
<linearGradient id="paint7_linear_1262_15623" x1="931.416" y1="967.577" x2="915.698" y2="981.622" gradientUnits="userSpaceOnUse">
<stop stop-color="#474747"/>
<stop offset="1"/>
</linearGradient>
<linearGradient id="paint8_linear_1262_15623" x1="936.245" y1="992.148" x2="921.347" y2="1000.16" gradientUnits="userSpaceOnUse">
<stop stop-color="#474747"/>
<stop offset="1"/>
</linearGradient>
<linearGradient id="paint9_linear_1262_15623" x1="941.463" y1="982.268" x2="925.745" y2="996.313" gradientUnits="userSpaceOnUse">
<stop stop-color="#474747"/>
<stop offset="1"/>
</linearGradient>
<linearGradient id="paint10_linear_1262_15623" x1="1181.06" y1="958.154" x2="1272.62" y2="1022.49" gradientUnits="userSpaceOnUse">
<stop stop-color="#5F5F5F"/>
<stop offset="1" stop-color="#0A0A0A"/>
</linearGradient>
<linearGradient id="paint11_linear_1262_15623" x1="1241.82" y1="923.963" x2="1228.06" y2="1055.75" gradientUnits="userSpaceOnUse">
<stop stop-color="#1D1D1D"/>
<stop offset="1" stop-color="#0A0A0A"/>
</linearGradient>
<linearGradient id="paint12_linear_1262_15623" x1="1177" y1="1077.62" x2="1182.66" y2="1326.23" gradientUnits="userSpaceOnUse">
<stop stop-color="#313131"/>
<stop offset="1" stop-color="#363636" stop-opacity="0"/>
</linearGradient>
<linearGradient id="paint13_linear_1262_15623" x1="1268.01" y1="1076.48" x2="1325.11" y2="1313.5" gradientUnits="userSpaceOnUse">
<stop stop-color="#171717"/>
<stop offset="1" stop-color="#363636" stop-opacity="0"/>
</linearGradient>
<linearGradient id="paint14_linear_1262_15623" x1="1197.15" y1="1090.42" x2="1185.85" y2="1338.19" gradientUnits="userSpaceOnUse">
<stop stop-color="#474747"/>
<stop offset="1"/>
</linearGradient>
<linearGradient id="paint15_linear_1262_15623" x1="1238.55" y1="1086.81" x2="1283.46" y2="1331.97" gradientUnits="userSpaceOnUse">
<stop stop-color="#474747"/>
<stop offset="1"/>
</linearGradient>
<linearGradient id="paint16_linear_1262_15623" x1="1219.18" y1="1080.88" x2="1233.89" y2="1297.6" gradientUnits="userSpaceOnUse">
<stop stop-color="#464646"/>
<stop offset="1"/>
</linearGradient>
<linearGradient id="paint17_linear_1262_15623" x1="1395.73" y1="893.814" x2="1395.73" y2="1275.51" gradientUnits="userSpaceOnUse">
<stop/>
<stop offset="1" stop-color="#3C3C3C"/>
</linearGradient>
<linearGradient id="paint18_linear_1262_15623" x1="1046.62" y1="947.891" x2="1168.65" y2="1331.44" gradientUnits="userSpaceOnUse">
<stop stop-color="#202020"/>
<stop offset="1" stop-color="#3C3C3C"/>
</linearGradient>
<linearGradient id="paint19_linear_1262_15623" x1="1539.11" y1="925.145" x2="1550.76" y2="958.535" gradientUnits="userSpaceOnUse">
<stop stop-color="#1E1E1E"/>
<stop offset="1"/>
</linearGradient>
<linearGradient id="paint20_linear_1262_15623" x1="1556.58" y1="889.999" x2="1577.45" y2="917.37" gradientUnits="userSpaceOnUse">
<stop stop-color="#474747"/>
<stop offset="1"/>
</linearGradient>
<linearGradient id="paint21_linear_1262_15623" x1="1573.04" y1="915.56" x2="1564.39" y2="941.374" gradientUnits="userSpaceOnUse">
<stop stop-color="#474747"/>
<stop offset="1"/>
</linearGradient>
<linearGradient id="paint22_linear_1262_15623" x1="1578.27" y1="904.301" x2="1577.71" y2="922.305" gradientUnits="userSpaceOnUse">
<stop stop-color="#474747"/>
<stop offset="1"/>
</linearGradient>
<linearGradient id="paint23_linear_1262_15623" x1="1557.06" y1="928.828" x2="1562.36" y2="958.09" gradientUnits="userSpaceOnUse">
<stop stop-color="#474747"/>
<stop offset="1"/>
</linearGradient>
<linearGradient id="paint24_linear_1262_15623" x1="1550.3" y1="933.252" x2="1555.61" y2="962.513" gradientUnits="userSpaceOnUse">
<stop stop-color="#474747"/>
<stop offset="1"/>
</linearGradient>
<linearGradient id="paint25_linear_1262_15623" x1="1548.33" y1="932.902" x2="1554.54" y2="967.145" gradientUnits="userSpaceOnUse">
<stop stop-color="#474747"/>
<stop offset="1"/>
</linearGradient>
<linearGradient id="paint26_linear_1262_15623" x1="1540.43" y1="938.076" x2="1546.64" y2="972.32" gradientUnits="userSpaceOnUse">
<stop stop-color="#474747"/>
<stop offset="1"/>
</linearGradient>
<linearGradient id="paint27_linear_1262_15623" x1="1239.94" y1="856.718" x2="1242.57" y2="876.871" gradientUnits="userSpaceOnUse">
<stop stop-color="#C4C4C4"/>
<stop offset="1" stop-color="#C4C4C4" stop-opacity="0"/>
</linearGradient>
<linearGradient id="paint28_linear_1262_15623" x1="1212.92" y1="856.785" x2="1210.4" y2="876.052" gradientUnits="userSpaceOnUse">
<stop stop-color="#C4C4C4"/>
<stop offset="1" stop-color="#C4C4C4" stop-opacity="0"/>
</linearGradient>
<linearGradient id="paint29_linear_1262_15623" x1="1481.41" y1="937.737" x2="1481.41" y2="1039.19" gradientUnits="userSpaceOnUse">
<stop stop-color="#474747"/>
<stop offset="1"/>
</linearGradient>
</defs>
</svg>
