<svg width="2000" height="1500" viewBox="0 0 2000 1500" fill="none" xmlns="http://www.w3.org/2000/svg">
<g clip-path="url(#clip0_1243_15418)">
<rect width="2000" height="1500" fill="white"/>
<rect y="685" width="1999" height="713" fill="url(#paint0_linear_1243_15418)"/>
<path opacity="0.1" d="M432 97H835L847 154L805 162L728 263H432V97Z" fill="#A9B9BD"/>
<path d="M920.501 581V591.255M911.501 608.5L912.501 596L915.515 598.072M932.501 615V611L941.501 607L952.501 611.5V605.5H956.501V591H952.501L950.001 596H941.501L947.001 592H943.001L935.501 594L939.501 584.5L945.501 581M928.001 581L920.501 591.255M928.001 615V617H934.001L925.001 620L933.001 635L917.001 620L909.501 617H917.501H920.501L917.501 614.5L919.501 612M915.385 598.25L915.515 598.072M905.501 619.5L904.001 618.5L905.751 616M920.501 591.255V601.5L915.515 598.072M920.501 591.255L915.515 598.072" stroke="#B3B3B3" stroke-width="2"/>
<mask id="path-4-inside-1_1243_15418" fill="white">
<path fill-rule="evenodd" clip-rule="evenodd" d="M1291 326V478H1229V326V324H1229.06C1230.09 307.811 1243.55 295 1260 295C1276.45 295 1289.91 307.811 1290.94 324H1291V326Z"/>
</mask>
<path fill-rule="evenodd" clip-rule="evenodd" d="M1291 326V478H1229V326V324H1229.06C1230.09 307.811 1243.55 295 1260 295C1276.45 295 1289.91 307.811 1290.94 324H1291V326Z" fill="white"/>
<path d="M1291 478V480H1293V478H1291ZM1229 478H1227V480H1229V478ZM1229 324V322H1227V324H1229ZM1229.06 324V326H1230.94L1231.06 324.127L1229.06 324ZM1290.94 324L1288.94 324.127L1289.06 326H1290.94V324ZM1291 324H1293V322H1291V324ZM1289 326V478H1293V326H1289ZM1291 476H1229V480H1291V476ZM1231 478V326H1227V478H1231ZM1231 326V324H1227V326H1231ZM1229 326H1229.06V322H1229V326ZM1231.06 324.127C1232.02 308.985 1244.61 297 1260 297V293C1242.49 293 1228.16 306.638 1227.07 323.873L1231.06 324.127ZM1260 297C1275.39 297 1287.98 308.985 1288.94 324.127L1292.93 323.873C1291.84 306.638 1277.51 293 1260 293V297ZM1290.94 326H1291V322H1290.94V326ZM1289 324V326H1293V324H1289Z" fill="black" mask="url(#path-4-inside-1_1243_15418)"/>
<mask id="path-6-inside-2_1243_15418" fill="white">
<path fill-rule="evenodd" clip-rule="evenodd" d="M1373 326V514H1311V326V324H1311.06C1312.09 307.811 1325.55 295 1342 295C1358.45 295 1371.91 307.811 1372.94 324H1373V326Z"/>
</mask>
<path fill-rule="evenodd" clip-rule="evenodd" d="M1373 326V514H1311V326V324H1311.06C1312.09 307.811 1325.55 295 1342 295C1358.45 295 1371.91 307.811 1372.94 324H1373V326Z" fill="white"/>
<path d="M1373 514V516H1375V514H1373ZM1311 514H1309V516H1311V514ZM1311 324V322H1309V324H1311ZM1311.06 324V326H1312.94L1313.06 324.127L1311.06 324ZM1372.94 324L1370.94 324.127L1371.06 326H1372.94V324ZM1373 324H1375V322H1373V324ZM1371 326V514H1375V326H1371ZM1373 512H1311V516H1373V512ZM1313 514V326H1309V514H1313ZM1313 326V324H1309V326H1313ZM1311 326H1311.06V322H1311V326ZM1313.06 324.127C1314.02 308.985 1326.61 297 1342 297V293C1324.49 293 1310.16 306.638 1309.07 323.873L1313.06 324.127ZM1342 297C1357.39 297 1369.98 308.985 1370.94 324.127L1374.93 323.873C1373.84 306.638 1359.51 293 1342 293V297ZM1372.94 326H1373V322H1372.94V326ZM1371 324V326H1375V324H1371Z" fill="black" mask="url(#path-6-inside-2_1243_15418)"/>
<path d="M1569 124V731H1296L1352 719L1188 677L1352 667L1174.5 609L1152 603V577L1163 562.5L1161.5 548L1166 543L1174.5 545L1170 537V520.5H1196L1211.5 534V480.5L1227 465H1251L1569 124Z" fill="#B7C5D4"/>
<path opacity="0.01" d="M1155 96H1568V291.215H1539V239.5H1553.5L1536 223L1516 125L1496.5 223L1479 239.5H1491V285.5L1427.5 223L1360 291.215H1376V331L1352 354L1314 444L1282.5 409.772L1243.15 451L1247.15 386L1304 308L1281 217L1276 222L1273 219.5L1279 212L1271.5 207L1272.5 202L1248 193L1247 179.5L1238.5 187.5L1233 184.5L1236 180.5L1216 166L1217 159.5L1211 162L1203.5 156L1202.5 150L1194 143.5L1191.5 138L1176 139.5L1174.5 142V144.5L1169.5 152L1152.5 150V143.5H1160L1152.5 103L1155 96Z" fill="#CCCCCC"/>
<path d="M1038.5 575.5L956.5 598.984M979 575.5L973.5 578V575.5M845.5 632L932 609M834 608.5V613M858 609V611.5L862.5 609" stroke="#B3B3B3" stroke-width="2"/>
<path d="M436 336L436 344" stroke="black" stroke-width="2"/>
<path d="M440 336L440 344" stroke="black" stroke-width="2"/>
<path d="M444 336L444 344" stroke="black" stroke-width="2"/>
<path d="M448 336L448 344" stroke="black" stroke-width="2"/>
<path d="M452 336L452 344" stroke="black" stroke-width="2"/>
<path d="M520 336L520 344" stroke="black" stroke-width="2"/>
<path d="M524 336L524 344" stroke="black" stroke-width="2"/>
<path d="M528 336L528 344" stroke="black" stroke-width="2"/>
<path d="M532 336L532 344" stroke="black" stroke-width="2"/>
<path d="M536 336L536 344" stroke="black" stroke-width="2"/>
<path d="M604 336L604 344" stroke="black" stroke-width="2"/>
<path d="M608 336L608 344" stroke="black" stroke-width="2"/>
<path d="M612 336L612 344" stroke="black" stroke-width="2"/>
<path d="M616 336L616 344" stroke="black" stroke-width="2"/>
<path d="M620 336L620 344" stroke="black" stroke-width="2"/>
<path d="M688 336L688 344" stroke="black" stroke-width="2"/>
<path d="M692 336L692 344" stroke="black" stroke-width="2"/>
<path d="M696 336L696 344" stroke="black" stroke-width="2"/>
<path d="M700 336L700 344" stroke="black" stroke-width="2"/>
<path d="M704 336L704 344" stroke="black" stroke-width="2"/>
<path opacity="0.5" d="M776 344H432" stroke="black" stroke-width="2"/>
<path d="M776 336H432" stroke="black" stroke-width="2"/>
<path d="M1288 173C1288 128.583 1339.57 107.657 1368 141C1402.39 89.1307 1448.17 62.8585 1502 101" stroke="black" stroke-width="2"/>
<path d="M525 210C432 210 496.183 205 504 205C504 194.927 501.5 206 524 184" stroke="black" stroke-width="2"/>
<path d="M693 111C649.5 93 626.563 145.5 629.168 131.395C613.499 134 616.908 115.48 626.563 118.162C616.039 111.07 639.095 60.136 687.196 101.642" stroke="black" stroke-width="2"/>
<path d="M733 178C712.5 215.5 664.908 193.633 678.886 165.504C683.672 155.873 691 155 696 155C712 155 712 178.959 696 178.959C689 178.959 686.5 171.5 686.5 171.5M653.954 142.573C705.514 115.962 746.595 145.602 729.097 165.504C738.539 165.504 740.515 178.241 734.814 183.876M671.5 139C671.5 139 661.61 140.497 642.59 152.686M658.5 148.5C658.5 148.5 647.849 152.327 636.437 160.748" stroke="black" stroke-width="2" stroke-linejoin="bevel"/>
<path d="M733 193.946C753.5 156.446 801.092 178.313 787.114 206.442C782.328 216.073 775 216.946 770 216.946C754 216.946 754 192.988 770 192.988C777 192.988 779.5 200.446 779.5 200.446M812.046 229.373C760.486 255.984 719.405 226.345 736.903 206.442C727.461 206.442 725.485 193.706 731.186 188.07M796.243 231.5C796.243 231.5 806.134 230.003 825.153 217.814M809.937 221.5C809.937 221.5 820.5 216.946 838 205" stroke="black" stroke-width="2" stroke-linejoin="bevel"/>
<path d="M708.954 123.994C760.514 150.606 801.595 120.966 784.097 101.064C793.539 101.064 795.515 88.3271 789.814 82.6918M724.757 126.5C724.757 126.5 714.866 125.003 695.847 112.814M711.063 116C711.063 116 700.412 112.173 689 103.752M729.5 96C729.5 112.814 756 112.814 756 96M766 96C766 104.09 759.866 108.287 753.5 108.593M775.5 96C775.5 104.09 769.366 108.287 763 108.593M804.5 88.471C804.5 96.5607 798.366 100.758 792 101.064" stroke="black" stroke-width="2" stroke-linejoin="bevel"/>
<path fill-rule="evenodd" clip-rule="evenodd" d="M516 325V497H456V325V324H456.016C456.544 307.894 469.766 295 486 295C502.234 295 515.456 307.894 515.984 324H516V325Z" fill="white"/>
<path d="M516 497V498H517V497H516ZM456 497H455V498H456V497ZM456 324V323H455V324H456ZM456.016 324V325H456.984L457.016 324.033L456.016 324ZM515.984 324L514.984 324.033L515.016 325H515.984V324ZM516 324H517V323H516V324ZM515 325V497H517V325H515ZM516 496H456V498H516V496ZM457 497V325H455V497H457ZM457 325V324H455V325H457ZM456 325H456.016V323H456V325ZM457.016 324.033C457.526 308.465 470.307 296 486 296V294C469.225 294 455.562 307.324 455.017 323.967L457.016 324.033ZM486 296C501.693 296 514.474 308.465 514.984 324.033L516.983 323.967C516.438 307.324 502.775 294 486 294V296ZM515.984 325H516V323H515.984V325ZM515 324V325H517V324H515Z" fill="black"/>
<path fill-rule="evenodd" clip-rule="evenodd" d="M600 325V497H540V325V324H540.016C540.544 307.894 553.766 295 570 295C586.234 295 599.456 307.894 599.984 324H600V325Z" fill="white"/>
<path d="M600 497V498H601V497H600ZM540 497H539V498H540V497ZM540 324V323H539V324H540ZM540.016 324V325H540.984L541.016 324.033L540.016 324ZM599.984 324L598.984 324.033L599.016 325H599.984V324ZM600 324H601V323H600V324ZM599 325V497H601V325H599ZM600 496H540V498H600V496ZM541 497V325H539V497H541ZM541 325V324H539V325H541ZM540 325H540.016V323H540V325ZM541.016 324.033C541.526 308.465 554.307 296 570 296V294C553.225 294 539.562 307.324 539.017 323.967L541.016 324.033ZM570 296C585.693 296 598.474 308.465 598.984 324.033L600.983 323.967C600.438 307.324 586.775 294 570 294V296ZM599.984 325H600V323H599.984V325ZM599 324V325H601V324H599Z" fill="black"/>
<path fill-rule="evenodd" clip-rule="evenodd" d="M684 325V497H624V325V324H624.016C624.544 307.894 637.766 295 654 295C670.234 295 683.456 307.894 683.984 324H684V325Z" fill="white"/>
<path d="M684 497V498H685V497H684ZM624 497H623V498H624V497ZM624 324V323H623V324H624ZM624.016 324V325H624.984L625.016 324.033L624.016 324ZM683.984 324L682.984 324.033L683.016 325H683.984V324ZM684 324H685V323H684V324ZM683 325V497H685V325H683ZM684 496H624V498H684V496ZM625 497V325H623V497H625ZM625 325V324H623V325H625ZM624 325H624.016V323H624V325ZM625.016 324.033C625.526 308.465 638.307 296 654 296V294C637.225 294 623.562 307.324 623.017 323.967L625.016 324.033ZM654 296C669.693 296 682.474 308.465 682.984 324.033L684.983 323.967C684.438 307.324 670.775 294 654 294V296ZM683.984 325H684V323H683.984V325ZM683 324V325H685V324H683Z" fill="black"/>
<path fill-rule="evenodd" clip-rule="evenodd" d="M768 325V497H708V325V324H708.016C708.544 307.894 721.766 295 738 295C754.234 295 767.456 307.894 767.984 324H768V325Z" fill="white"/>
<path d="M768 497V498H769V497H768ZM708 497H707V498H708V497ZM708 324V323H707V324H708ZM708.016 324V325H708.984L709.016 324.033L708.016 324ZM767.984 324L766.984 324.033L767.016 325H767.984V324ZM768 324H769V323H768V324ZM767 325V497H769V325H767ZM768 496H708V498H768V496ZM709 497V325H707V497H709ZM709 325V324H707V325H709ZM708 325H708.016V323H708V325ZM709.016 324.033C709.526 308.465 722.307 296 738 296V294C721.225 294 707.562 307.324 707.017 323.967L709.016 324.033ZM738 296C753.693 296 766.474 308.465 766.984 324.033L768.983 323.967C768.438 307.324 754.775 294 738 294V296ZM767.984 325H768V323H767.984V325ZM767 324V325H769V324H767Z" fill="black"/>
<path d="M664 470.5V480H696V472L684 465V432L674.5 437.5L664 444V470.5Z" fill="#EEEEEE" stroke="black" stroke-width="2"/>
<path d="M1096 248L1100 252L1096 256M904 248L900 252L904 256M992 204L1000 196L1008 204H1044M1100 276V260L1108 252L1100 244V232M900 236.5V244L892 252L900 260V282M1021 304H1008L1000 312L991.5 304H975" stroke="black" stroke-width="2"/>
<path d="M1122 601L1131 590L1139 587L1145 573.5H1153V579.5L1166 577L1226 562L1241 544.5V562L1234 564.5L1226 573.5L1203.5 590L1209.5 599H1226V614L1234 618.5H1307L1330.5 629L1342.5 630.5L1383 610.5L1471.5 553.5L1480.5 560L1479.5 527L1490 509.5L1521 507L1536 490.5L1541.5 474L1555 441.5L1568 477.5V538L1551.5 555L1529 544.5L1503.5 566H1482.5H1437.5L1421 612.5L1460 627.5L1482.5 649.5L2011 835V1013L1336 671L1319 664L1272 656L1226 649.5L1203.5 632.5H1194L1173.5 618.5L1154.5 609L1144 606.5L1145 602.5L1139 605.5L1122 601Z" fill="#527934"/>
<path d="M1321.5 397L1307 421H1315L1307 434.5L1315 441.5V501.5L1336 504L1366.5 490.5L1385.5 477.5L1394.5 474H1455.5L1529 424L1545 418L1558.5 406L1568 397V378.5H1534.5L1513.5 424L1480.5 428.5L1455.5 449L1432 457.5H1394.5L1374.5 463L1342.5 490.5L1336 474H1348.5L1330.5 457.5H1340L1333 437H1336L1326.5 421H1330.5L1321.5 397Z" fill="#527934"/>
<path d="M1336.5 670L1373.5 636L1384.5 609L1390.5 583L1398 580.5L1417 561.5H1433L1453 576.5V609L1469 620L1476 655H1401L1440 670L1462.5 692L1497 699V714.5L1551 758L2013.5 1077.5L1602.5 1172.5L1469 1007.5L1564 953.5L1433 961.5L1336.5 733L1424.5 714.5L1304 695L1320.5 692H1290.5L1213 676V670H1336.5Z" fill="#73995B"/>
<path d="M-2 279L1037 576H979.5L973.5 572.5L973 575.5L933 576H825.5L933 605L931 609L705.5 606.5L739.5 611.5V614.5L781.5 621L789.5 618.5L797.5 625L865.5 635L950 650L1000 680V708H721L574.5 754H643.5L211 1006L68 650H24L-2 279Z" fill="#73995B"/>
<path d="M1163 576.5L1226 562L1241 545M1241 545H1265L1292 524M1241 545L1223 531.5L1217 538L1191 518.5L1172 519.5L1169 538L1175 544L1166.5 542.5L1170.5 550.5L1153.5 573M1729 315L1558 405C1554.33 410 1545.8 420.2 1541 421C1536.2 421.8 1527.67 426 1524 428C1509.33 438.667 1478.8 460.6 1474 463C1468 466 1459 474 1446 474C1433 474 1404 474 1394 474C1386 474 1372 485.333 1366 491L1336 504H1321L1292 524M1265 554C1265 553.2 1249 553.667 1241 554V562L1233.5 564.5M1336 670L1294 662L1274 653H1231L1217 641L1192 624L1174 609L1183 590L1203 574L1226 567L1233.5 564.5M1336 670L1354 653L1374 636L1384 609M1336 670H1213.5M1384 609C1385.33 599.667 1389.2 581 1394 581C1398.8 581 1410.67 568.333 1416 562H1434C1437.2 563.601 1441.94 566.384 1446 569.643M1384 609L1374 614L1354 624L1343 630C1340.67 630 1335 630 1331 630L1315 624L1307 619H1287H1265H1241H1231L1226 614V599H1210L1203 590L1226 574L1233.5 564.5M2012.5 835L1549 677C1546.33 677.333 1540 677.8 1536 677C1532 676.2 1521 672 1516 670L1491 662L1474 648C1474 640 1472.6 623 1467 619C1461.4 615 1456 610.667 1454 609C1454 602.667 1454 588.2 1454 581C1454 577.257 1450.4 573.172 1446 569.643M2033 1097L1496 719V701.5L1486 694L1458 688L1434 684H1409L1384 688V677C1384 677 1360.67 672.333 1354 670M1212 528V504.094V484M1292 524V484M1250 464H1220L1212 472.188V484M1250 464H1284L1292 472V484M1250 464V444L1282.5 411.5L1307 436M1315 504V444L1307 436M1348 491V392H1336.5V388L1340 379.5V376.5H1354M1348 491L1354 481L1374 463L1394 458H1428L1454 450L1480 428L1512 425L1529 391M1348 491L1336 474H1348.5L1333 458C1333 458 1340 457.167 1340 454.5L1331 437.5L1336 436L1326 421H1331L1321 395L1307 421H1315L1307 436M1558 379L1493.5 376.5M1354 376.5V352L1374 332M1354 376.5H1374M1374 332V376.5M1374 332V292H1359L1428 223L1491 286M1374 376.5H1428M1480 292H1497L1491 286M1428 376.5V352H1416L1428 340H1512M1428 376.5H1448M1448 376.5V372H1464V368H1480V364H1496V360H1512V356H1528V302L1539 292M1448 376.5H1493.5M1539 292H1569M1539 292V239H1552L1536 223L1516 125M1491 286V239H1480L1496 223L1516 125M1516 125V114.25M1558 545L1552 554L1540.5 549.5L1534.75 547.25M1502 567L1529 545L1534.75 547.25M1502 567H1486L1480 560.5M1502 567V528L1491 510M1446 569.643L1474 554L1480 560.5M1480 560.5V528L1491 510M1491 510H1529M1534.75 547.25V525.882L1552 504L1561 514M1529 510V499.5L1536 491L1540 495.25M1529 510H1544V499.5L1540 495.25M1540 495.25V477.5M1540 477.5L1552 444M1540 477.5H1561M1552 444L1561 467.5M1552 444V436M1569 340H1544L1534.75 360H1524L1520 364L1508 367L1493.5 376.5M1131 576H1144L1139 586.5L1131 590L1120 601.5L1139 605.5L1144 601.5V605.5L1154.5 609L1158 605.5V611L1179 622M1516 103.5V114.25M1516 114.25H1508M1516 114.25H1524M1552 428V436M1552 436H1547M1552 436H1558M1210 670H1213.5M1213.5 670V675.5M1213.5 675.5L1290 691.5H1322.5M1213.5 675.5L1187 677L1350 719L1292.5 732L1265 819H1282.5L1265 826.5L1255 1053.5L1322.5 1224.5M1322.5 691.5V688M1322.5 691.5L1307 694.5L1423 714.5L1348 732L1434 943L1540.5 950L1458 1000.5L1647 1224.5M1331 691.5L1327.5 679.5M1331 691.5L1332.5 686.5M1331 691.5L1340 690.25M1183 626L1196 633H1199.5M1212 484H1208M1292 484H1296" stroke="black" stroke-width="2"/>
<path d="M1216 484H1288" stroke="black" stroke-width="2" stroke-dasharray="8 4"/>
<path d="M1298 484H1296V491H1208V484H1206" stroke="black" stroke-width="2"/>
<path d="M766 260H431" stroke="black" stroke-width="2"/>
<path d="M766 264H431" stroke="black" stroke-width="2"/>
<path d="M1392 260H1191" stroke="black" stroke-width="2"/>
<path d="M1389 264H1256" stroke="black" stroke-width="2"/>
<path d="M1352 395L1352 412" stroke="black" stroke-width="2"/>
<path d="M1360 395L1360 412" stroke="black" stroke-width="2"/>
<path d="M1368 395L1368 412" stroke="black" stroke-width="2"/>
<path d="M1376 395L1376 412" stroke="black" stroke-width="2"/>
<path d="M1384 395L1384 412" stroke="black" stroke-width="2"/>
<path d="M1392 395L1392 412" stroke="black" stroke-width="2"/>
<path d="M1400 395L1400 412" stroke="black" stroke-width="2"/>
<path d="M1408 395L1408 412" stroke="black" stroke-width="2"/>
<path d="M1416 395L1416 412" stroke="black" stroke-width="2"/>
<path d="M1424 395L1424 412" stroke="black" stroke-width="2"/>
<path d="M1341 396H1428" stroke="black" stroke-width="2"/>
<path d="M1337 412L1516 412" stroke="black" stroke-width="2"/>
<path d="M1348 396H1346M1340 412V402M1340 402V396H1346M1340 402L1346 396" stroke="black" stroke-width="2"/>
<path d="M1340 412H1342M1348 428V418M1348 418V412H1342M1348 418L1342 412" stroke="black" stroke-width="2"/>
<path d="M432 545L452 557.5L467 589.5L519 604.5L598.5 616.5L642.5 636L682.5 664L686.5 670.5L737 649L777.5 642L866 636L946 649L1032 696L975 718.5L879 726.5L758 723L703 714L729 732H432H166.5V704L264 667C264 667 302.636 627.065 325.5 604.5C362.928 567.561 432 545 432 545Z" fill="white"/>
<g opacity="0.4">
<path opacity="0.3" d="M587 629C594.821 588.216 624 458 624 458L664 469V495L681.999 509C681.999 509 697.018 626.854 699.999 649C707 701 573 702 587 629Z" fill="url(#paint1_linear_1243_15418)"/>
<path opacity="0.3" d="M429 576.5C453.5 544.5 539.5 433.5 539.5 433.5L598.501 450.5C598.501 450.5 542.809 572.248 526 611C490 694 377.568 643.677 429 576.5Z" fill="url(#paint2_linear_1243_15418)"/>
<path opacity="0.3" d="M850.001 628C825.501 596 773 501 773 501L711 487C711 487 755.501 600 767.501 640.5C784.853 699.062 901.981 695.893 850.001 628Z" fill="url(#paint3_linear_1243_15418)"/>
<path opacity="0.3" d="M301 477L457 409.5L516.5 427.5L407 510L301 477Z" fill="url(#paint4_linear_1243_15418)"/>
</g>
<path d="M1000 586L1000 604" stroke="#B3B3B3" stroke-width="2"/>
<path d="M1006 530.5H1000L995 525.5V521L993 519H987V522.5V528.5H990.5V530.5H984V540L990.5 544L991.5 548.375L985 554.5L992.5 558.5L990.5 562.5L1009.5 568L1010.5 559.5L1017 560.5V554.5H1020.5L1023 550V532.5L1017 537L1010.5 540L1006 534.5V530.5Z" fill="#F4CA79"/>
<path d="M987 522.5V519H993L995 521V525.5L1000 530.5H1006V534.5L1010.5 540L1017 537L1023 532.5V550L1020.5 554.5H1017V560.5L1010.5 559.5L1009.5 568L990.5 562.5L992.5 558.5L985 554.5L991.5 548.375L990.5 544L984 540V530.5H990.5V528.5H987V522.5ZM987 522.5H990.5M1006 538.5V544L1000 548L994 544V538.5M994 534.5V530.5H996M1000 534.5V543M997.5 537H1002.5M988 516H993V514H996.5V517" stroke="black" stroke-width="2"/>
<path d="M1009.5 583L1010.5 591.5L1017 590.5V596.5H1020.5L1023 601V618.5L1017 614L1010.5 611L1006 616.5V620.5H1000L995 625.5V630L993 632H987V628.5M990.5 588.5L992.5 592.5L985 596.5L991.5 602.625L990.5 607L984 611V620.5H990.5V622.5H987V628.5M987 628.5H990.5M1006 612.5V607L1000 603L994 607V612.5M994 616.5V620.5H996M1000 616.5V608M997.5 614H1002.5" stroke="#B3B3B3" stroke-width="2"/>
<path d="M1080.5 546L1083.61 549V553.125L1092 555.5H1099.5L1104.5 557H1109.5L1114.5 560.5L1107.5 566L1104.5 573H1102V575.5L1088 570.5L1093.06 576H1085.06L1083.61 574L1077.5 575.5L1077.15 567.5L1077 564H1074L1070 560.5H1074.5L1077 553.5V546H1080.5Z" fill="#6F8058" stroke="black" stroke-width="2"/>
<path opacity="0.3" d="M1074.5 594.5L1077 601.5V609H1080.5L1083.61 606V601.875L1092 599.5H1099.5L1104.5 598H1109.5L1114.5 594.5L1107.5 589L1104.5 582L1094.5 585L1102 579.5L1088 584.5L1093.06 579M1070 594.5L1074 591M1077 591L1077.5 579.5L1083.61 581L1085.06 579" stroke="black" stroke-width="2"/>
<path d="M961.5 103C953.871 122.835 954 131.151 954 151.5L977.5 170.5M868 326L868 370M1138 326L1121 295.5L1099 228.5V212H1095M925 192L896.5 164.5L903.5 170.5L954 168L965.75 161M1042 162L1047.5 168L1089 169L1094.5 162V170.5L1072 192M1013.5 194.5L1018.5 178L1039.5 156L1051.5 148C1051.5 148 1033.17 126.385 1025 111C1019.58 100.783 1013.5 83.5 1013.5 83.5L1008 82.75" stroke="black" stroke-width="2"/>
<path d="M998.999 88.5C1000.5 90 1003.5 111.5 983.5 122M979 99C978.5 100 980.5 105 974.5 115M971.999 107.5C970.833 108.667 969.7 112.8 974.5 120C980.5 129 987.999 139.5 981.999 153.5M1004 93.5C1004.5 95.8333 1007.43 101.15 1011.5 103.5C1015.31 105.702 1021.5 104.833 1023 105M1030 129.5C1030.5 131.833 1042.5 162 1020.5 162M975.499 129.5C974.999 131.833 962.999 162 984.999 162M972.737 117C971 129.5 954.499 161.789 981.999 161.789" stroke="black" stroke-width="2"/>
<path d="M1004.02 88.5C1005.52 90 1008.52 111.5 988.518 122M984.018 99C983.518 100 985.518 105 979.518 115M977.018 107.5C975.851 108.667 974.718 112.8 979.518 120C985.518 129 993.018 139.5 987.018 153.5M1009.02 93.5C1009.52 95.8333 1012.44 101.15 1016.52 103.5C1020.33 105.702 1026.52 104.833 1028.02 105M1035.02 129.5C1035.52 131.833 1047.52 162 1025.52 162" stroke="black" stroke-width="2"/>
<path d="M1112 87C1120.5 100 1113 99 1107 113" stroke="black" stroke-width="2"/>
<path d="M996 127L1005 127" stroke="black" stroke-width="2"/>
<path d="M1008 109C1008 109 1011.16 107.55 1014 107.5C1016.67 107.453 1021 110 1021 110" stroke="black" stroke-width="2"/>
<path d="M1007 109L1013 111.533" stroke="black" stroke-width="2"/>
<path d="M1000 129.467L1004 127" stroke="black" stroke-width="2"/>
<path d="M998 144L1002.62 145.244" stroke="black" stroke-width="2"/>
<path d="M1027.79 116L1026.5 121.5L1026.5 127.5L1023 129.034L1023 132" stroke="black" stroke-width="2"/>
<path d="M1126.75 208.573L1117.62 217.761L1113.96 214.452L1099.66 226.426V218.942L1112.45 205.471L1108.31 204.723L1096.28 209.213H1088L1112.45 192L1116.23 196.973L1126.75 208.573Z" fill="white"/>
<path d="M1126.75 208.573L1116.23 196.973L1112.45 192L1088 209.213H1096.28L1108.31 204.723L1112.45 205.471M1119.41 213.329L1112.45 205.471M1112.45 205.471L1099.66 218.942V226.426L1113.96 214.452L1118.09 218.194M1168.88 308V272.452M1152.33 253.351L1146.31 231.665L1147.81 222.684L1143.67 218.194L1136.15 199.11L1103.8 231.665L1121.48 222.684M1145.18 259.355L1138.03 255.987L1136.15 228.297L1132.76 215.2L1121.48 222.684M1121.48 222.684L1122.61 225.677V250.374H1114.71L1099.66 239.148L1104.93 245.135L1099.66 251.123L1114.71 263.845L1131.45 268.71L1152.33 274.697L1168.88 272.452M1168.88 272.452V253.351M1168.88 253.351V248.129H1208M1168.88 253.351H1164" stroke="black" stroke-width="2"/>
<path d="M992 140L997 138.5H1003.5L1008 140M992 219L981.5 178.5L983.7 167.5M1008.5 83C977.094 89.4146 964.317 114.035 964.2 144.5L966.5 147M1023 136.5C1023 139.067 1021.15 142.509 1018.63 146M983.7 167.5L984 154.584M983.7 167.5L978.825 161.75M1018.63 146C1013.3 153.39 1005 161 1005 161H997C997 161 982.562 150.942 978.5 141C975.705 134.157 975.254 129 975.254 129L972.5 127V116.5M1018.63 146L1017 167.5L1023 174" stroke="black" stroke-width="2"/>
<path d="M1031 180H1008L1004 174V187.5L1008 192L1000 200L992 192L996 187.5V174L992 180H981.5" stroke="black" stroke-width="2"/>
<path d="M1000 547V564" stroke="black" stroke-width="2"/>
<path d="M564 732L552.5 703L521.5 671C521.5 671 515.814 640.452 504.5 625C494.086 610.778 469.5 596.5 469.5 596.5L466.188 589M466.188 589L452.5 558L432 545M466.188 589L521.5 605C521.5 605 569.272 607.152 598 616.5C615.873 622.315 642 636 642 636L682.5 664.5L686.281 671M702 713.5L729 732M702 713.5L756 723.5C828.498 727.674 948.5 732 1010 705M702 713.5L686.281 671M686.281 671L736.5 650.5L778 642L841 636H868.5C868.5 636 918.487 640.139 948.5 650.5C982.705 662.308 1029.5 695.5 1029.5 695.5" stroke="black" stroke-width="2"/>
<rect x="1420" y="267" width="12" height="25" fill="white"/>
<rect x="1438" y="360" width="5" height="11" fill="white"/>
<path d="M-4.5 277C123.489 314.3 1038.5 575.5 1038.5 575.5H979L973.5 573V575.5H887.5H826.5L932 606V609H862L858 607.5V609L834 608.629M897.5 637L868.5 632L849.5 633L800.5 626H797L790.5 618.5L781 621.5L740 614V611L705 606L761 607.5L834 608.629M834 608.629V605M1040.5 576H1044.5" stroke="black" stroke-width="2"/>
<path fill-rule="evenodd" clip-rule="evenodd" d="M920.501 568.745V579H928.001H945.501L939.501 575.5L935.501 566L943.001 568H947.001L941.501 564H950.001L952.501 569H956.501V554.5H952.501V548.5L941.501 553L932.501 549V545H928.001V543H934.001L925.001 540L933.001 525L917.001 540L909.501 543H917.501H920.501L917.501 545.5L919.501 548V551.5H911.501L912.501 564L915.515 561.928L920.501 558.5V568.745Z" fill="#3366FF"/>
<path d="M920.501 579H945.501M920.501 579V568.745M920.501 579H928.001M945.501 579L939.501 575.5L935.501 566L943.001 568H947.001L941.501 564H950.001L952.501 569H956.501V554.5H952.501V548.5L941.501 553L932.501 549V545H928.001V543H934.001L925.001 540L933.001 525L917.001 540L909.501 543H917.501H920.501L917.501 545.5L919.501 548V551.5H911.501L912.501 564L915.515 561.928M945.501 579H928.001M928.001 579L920.501 568.745M903.501 545.5L906.062 549M911.941 557L906.062 549M915.385 561.75L915.515 561.928M906.062 549L903.001 551L901.001 547L899.5 545L898 546M906.062 549L909.001 547L905.751 544L904.001 541.5L905.501 540.5M920.501 568.745V558.5L915.515 561.928M920.501 568.745L915.515 561.928" stroke="black" stroke-width="2"/>
<path d="M871 575.348L877.194 579H887V572H873.065L871 575.348Z" fill="#C4C4C4" stroke="black" stroke-width="2"/>
<path d="M1137 610.739C1137 610.739 1142.24 606.336 1146.29 605C1151.75 603.2 1161 605 1161 605V616H1140.1L1137 610.739Z" fill="#A9B9BD" stroke="black" stroke-width="2"/>
<path d="M714 715.539C714 715.539 719.24 711.136 723.29 709.8C728.746 708 738 709.8 738 709.8V720.8H717.097L714 715.539Z" fill="#A9B9BD" stroke="black" stroke-width="2"/>
<path d="M1007 705.013C1007 705.013 1009.4 708.371 1011.26 709.39C1013.76 710.763 1018 709.39 1018 709.39V701H1008.42L1007 705.013Z" fill="white" stroke="black" stroke-width="2"/>
<path d="M732 720.013C732 720.013 734.62 723.371 736.645 724.39C739.373 725.763 744 724.39 744 724.39V716H733.548L732 720.013Z" fill="#A9B9BD" stroke="black" stroke-width="2"/>
<path opacity="0.3" d="M1137 621.261C1137 621.261 1142.24 625.664 1146.29 627C1151.75 628.8 1161 627 1161 627V616H1140.1L1137 621.261Z" fill="white" stroke="black" stroke-width="2"/>
<path d="M1003.81 572H997.307L994 575.5H1003.81V572Z" fill="#C4C4C4" stroke="black" stroke-width="2"/>
<path opacity="0.3" d="M994 576L997.307 579.5H1003.81V576" stroke="black" stroke-width="2"/>
<path opacity="0.3" d="M873.065 588L871 584.652L877.194 581H887V588" stroke="black" stroke-width="2"/>
<path d="M892 571V580" stroke="black" stroke-width="2"/>
<path opacity="0.3" d="M892 579V588" stroke="black" stroke-width="2"/>
<path d="M1381.5 362H1384L1386 366.5L1390.5 374.5H1387V377H1381.5L1380 373.5L1381.5 366V362Z" fill="#6F8058" stroke="black" stroke-width="2"/>
<path d="M1408 361L1412 365V376H1404V365L1408 361Z" stroke="black" stroke-width="2"/>
<path d="M1436 397L1440 401V412H1432V401L1436 397Z" stroke="black" stroke-width="2"/>
<path d="M1230 504L1232 508.267V520H1228V508.267L1230 504Z" stroke="black" stroke-width="2"/>
<path d="M1252 504L1254 508.267V520H1250V508.267L1252 504Z" stroke="black" stroke-width="2"/>
<path d="M1515 248L1517 252.267V264H1513V252.267L1515 248Z" stroke="black" stroke-width="2"/>
<path d="M1511 268H1515M1519 268H1515M1515 268V277" stroke="black" stroke-width="2"/>
<path d="M1523 268H1527M1531 268H1527M1527 268V277" stroke="black" stroke-width="2"/>
<path d="M1499 268H1503M1507 268H1503M1503 268V277" stroke="black" stroke-width="2"/>
<path d="M1535 268H1539M1543 268H1539M1539 268V293" stroke="black" stroke-width="2"/>
<path d="M1487 268H1491M1495 268H1491M1491 268V287" stroke="black" stroke-width="2"/>
<path d="M1274 504L1276 508.267V520H1272V508.267L1274 504Z" stroke="black" stroke-width="2"/>
<path d="M650.5 245H653L655 249.5L659.5 257.5H656V260H650.5L649 256.5L650.5 249V245Z" fill="url(#paint5_linear_1243_15418)"/>
<path d="M648.5 249V253.5M653 254L646 256M650.5 245H653L655 249.5L659.5 257.5H656V260H650.5L649 256.5L650.5 249V245Z" stroke="black" stroke-width="2"/>
<path d="M488 244.5L478 240.797L484.5 245.797V248.797L478 256L480.833 257.297V259.797H489.214L491.5 257.297L489.214 248.797L488 244.5Z" fill="#7788C4"/>
<path d="M493.5 243.5L485.5 259.797M488 244.5L478 240.797L484.5 245.797V248.797L478 256L480.833 257.297V259.797H489.214L491.5 257.297L489.214 248.797L488 244.5Z" stroke="black" stroke-width="2"/>
<path d="M792 96H680M780.5 732H667M432 732V573M630 96H532.5H432V414" stroke="black" stroke-width="2"/>
<path d="M1161 96H1320M1568 732V96H1545.69" stroke="black" stroke-width="2"/>
<path d="M1154 104L1160 143.75H1152.5V150.5L1180 153.5M1170.5 150.5C1170.5 150.5 1172.9 145.147 1176 143.75C1178.85 142.466 1186 142.5 1186 142.5C1186 142.5 1188.82 150.597 1188.5 155.5C1187.88 164.907 1174.84 171.337 1168 176C1176 203 1221 205 1236 180.5L1216 166L1217 159.5L1211 162.071L1204 156.571C1204 147 1191.5 145.5 1191.5 138C1185 137.5 1176 139.5 1176 139.5L1174 142.5M1273 202L1247.5 193.5V178L1238 187.5L1233 184.613M1273 202L1271 207L1279.5 212.5L1273 220L1276 222L1281 216.5M1273 202C1258 226.5 1208 231.5 1200 204.5" stroke="black" stroke-width="2"/>
<path d="M1109 334V354M1098 156C1102.37 159.711 1117.33 170.996 1121 173.5C1116.37 189.128 1101.02 192.36 1086 187.559" stroke="black" stroke-width="2"/>
<path d="M1105 131.159C1108.5 136.779 1120.5 141.5 1120.5 141.5M1154.5 78.5V86L1150 81.5V88.5L1155.5 96.6983L1152 103.698M1084 96.6983L1085.83 135L1088.5 137L1081 144.5H1112L1103 106L1112 98L1108 89L1118.15 84.5714L1115 78.5L1122 76L1125.5 81.5L1134 80.5L1133 74.5H1140.5L1141 80.5L1146 82V76L1150.33 77.5M1134 171.5L1143 166.5L1141 156L1124.09 147.819L1123.5 150V154H1094V147.819L1085.83 154H1077.5L1070 141.5L1062.5 139.5M1123.5 124.5C1120 122 1113.5 115 1113.5 111.5C1126.25 106.5 1134.98 101.492 1148.5 106V109M1143 126.5C1142.5 122.5 1137 120.5 1137 120.5V115.5L1140.5 114.5M1145.5 129.5L1148 126.5V131.159L1147 135V144.5L1131 144M1161 170L1148 166.5L1145.5 154L1148.5 150L1152 156H1166.5M1140.5 177L1147 171.5L1155.5 176L1152 192.5L1140.5 177Z" stroke="black" stroke-width="2"/>
<path d="M1136 97.5L1141.75 96.5L1143.5 98" stroke="black" stroke-width="2"/>
<path d="M1118 113L1121.5 115L1124.5 111L1128.5 113.5L1132 108.5L1136 112L1140 108L1143.5 112L1146.5 108" stroke="black" stroke-width="2"/>
<path d="M1124 123.5L1123.5 127.5L1129.5 126L1129.5 129.5L1134.5 126.5L1134.5 130L1139.5 127L1139.5 130.5L1144 127L1144 131.5" stroke="black" stroke-width="2"/>
<path d="M1145 86.5001C1145 84.2425 1146.62 80.5 1150.12 81V89L1145 86.5001Z" fill="black" stroke="black" stroke-width="2"/>
<mask id="path-141-outside-3_1243_15418" maskUnits="userSpaceOnUse" x="1114.35" y="76.1946" width="20.2337" height="15.2839" fill="black">
<rect fill="white" x="1114.35" y="76.1946" width="20.2337" height="15.2839"/>
<path d="M1131.46 85.2677C1131.24 84.4188 1130.84 83.623 1130.31 82.9257C1129.77 82.2285 1129.11 81.6435 1128.35 81.204C1127.58 80.7646 1126.74 80.4794 1125.87 80.3647C1125 80.25 1124.12 80.308 1123.27 80.5355C1122.42 80.7629 1121.62 81.1554 1120.93 81.6904C1120.23 82.2254 1119.64 82.8925 1119.2 83.6536C1118.76 84.4147 1118.48 85.2549 1118.36 86.1263C1118.25 86.9976 1118.31 87.883 1118.53 88.7319L1125 86.9998L1131.46 85.2677Z"/>
</mask>
<path d="M1131.46 85.2677C1131.24 84.4188 1130.84 83.623 1130.31 82.9257C1129.77 82.2285 1129.11 81.6435 1128.35 81.204C1127.58 80.7646 1126.74 80.4794 1125.87 80.3647C1125 80.25 1124.12 80.308 1123.27 80.5355C1122.42 80.7629 1121.62 81.1554 1120.93 81.6904C1120.23 82.2254 1119.64 82.8925 1119.2 83.6536C1118.76 84.4147 1118.48 85.2549 1118.36 86.1263C1118.25 86.9976 1118.31 87.883 1118.53 88.7319L1125 86.9998L1131.46 85.2677Z" fill="white"/>
<path d="M1131.46 85.2677C1131.24 84.4188 1130.84 83.623 1130.31 82.9257C1129.77 82.2285 1129.11 81.6435 1128.35 81.204C1127.58 80.7646 1126.74 80.4794 1125.87 80.3647C1125 80.25 1124.12 80.308 1123.27 80.5355C1122.42 80.7629 1121.62 81.1554 1120.93 81.6904C1120.23 82.2254 1119.64 82.8925 1119.2 83.6536C1118.76 84.4147 1118.48 85.2549 1118.36 86.1263C1118.25 86.9976 1118.31 87.883 1118.53 88.7319L1125 86.9998L1131.46 85.2677Z" stroke="black" stroke-width="4" mask="url(#path-141-outside-3_1243_15418)"/>
<circle cx="1125" cy="87" r="4" fill="white" stroke="black" stroke-width="2"/>
<path d="M1032 96V113L1062 146L1042.5 162" stroke="black" stroke-width="2"/>
<path d="M870.5 121L866 122L862.5 121" stroke="black" stroke-width="2"/>
<path d="M796.5 176L741 247" stroke="black" stroke-width="2"/>
<path d="M862 105.5C862 105.5 857.747 111 852.5 111C847.253 111 843 105.5 843 105.5C843 105.5 847.253 100 852.5 100C857.747 100 862 105.5 862 105.5Z" fill="black"/>
<path d="M863 93.5C863 93.5 858.747 99 853.5 99C848.253 99 844 93.5 844 93.5C844 93.5 848.253 88 853.5 88C858.747 88 863 93.5 863 93.5Z" fill="black"/>
<path d="M893 110.5C893 110.5 888.747 116 883.5 116C878.253 116 874 110.5 874 110.5C874 110.5 878.253 105 883.5 105C888.747 105 893 110.5 893 110.5Z" fill="black"/>
<circle cx="883.5" cy="110.5" r="3.5" fill="white"/>
<path d="M864 138C856.5 112.5 855.5 98 864 70.5L841 70V138H864Z" fill="white"/>
<path d="M893 98.5C893 98.5 888.747 104 883.5 104C878.253 104 874 98.5 874 98.5C874 98.5 878.253 93 883.5 93C888.747 93 893 98.5 893 98.5Z" fill="black"/>
<circle cx="883.5" cy="98.5" r="3.5" fill="white"/>
<path d="M893 86.5C893 86.5 888.747 92 883.5 92C878.253 92 874 86.5 874 86.5C874 86.5 878.253 81 883.5 81C888.747 81 893 86.5 893 86.5Z" fill="black"/>
<circle cx="883.5" cy="86.5" r="3.5" fill="white"/>
<path d="M901.556 125L886 119L866.556 115.5L857.056 117V114L867.056 110.5L887.056 115L903.556 120.5L901.556 125Z" fill="white"/>
<path d="M901.556 125L903.556 120.5L887.056 115L867.056 110.5L857.056 114V117L866.556 115.5L886 119L901.556 125ZM901.556 125L879.5 127L859.75 132M861.5 138.5L872.5 136.985M872.5 136.985L885.187 140M872.5 136.985L883 135.5L897 131.5V136.5L891.5 141.5L885.187 140M865 144.5L872.5 142.828M885.187 140L872.5 142.828M886.5 147C885.45 146.2 876.729 143.886 872.5 142.828M867 150L875.5 152.5L870 155.5M859 126.5L876 127.886" stroke="black" stroke-width="2"/>
<path d="M899.5 102C899.5 102 870.5 88.4998 858 92.4998L859.5 85.5C874.5 82.5 902 97.0001 902 97.0001L899.5 102Z" fill="white" stroke="black" stroke-width="2"/>
<path d="M870 75L871 82" stroke="black" stroke-width="2"/>
<path d="M893.5 91.5L877 79.5L884.5 75L897 84L893.5 91.5Z" fill="white"/>
<path d="M861.73 78.5C846.098 122.904 872.5 162 872.5 162M900 119L902 118.5L908 106L907.5 99.8803M856.5 190C882 169.5 913 139.672 913 104.3L874.5 78.5M874.5 152.5H880L897 136.5L899.5 125M902 97.3L898.5 104.3M896 137.441V149.588M905.5 78.5V88.5L920.5 103L927.5 138.5L912 151V157L940 166M846 88L839 97.3C839 97.3 837.795 121.126 844 138.5C849 152.5 848.5 154.5 848.5 154.5L808.5 162L801.5 169.5" stroke="black" stroke-width="2"/>
<path d="M895 171H891.5L889 168.5L880 178.5L883 181.5L882.5 185H878L875.5 182.5C871.5 186.333 864.5 192 864.5 192L867.5 195.5L866.5 198.5L863 199L859.5 195.5L849 205L851.5 208.5L850.5 212.5" stroke="black" stroke-width="2"/>
<path d="M1505 185H1512M1512 185V188M1512 185H1520" stroke="black" stroke-width="2"/>
<path d="M1475 171H1482M1482 171V174M1482 171H1490" stroke="black" stroke-width="2"/>
<path d="M1458 197H1465M1465 197V200M1465 197H1473" stroke="black" stroke-width="2"/>
<path d="M1320 128V220" stroke="black" stroke-width="2"/>
<path d="M1366 174L1274 174" stroke="black" stroke-width="2"/>
<path d="M1340 154L1300 194" stroke="black" stroke-width="2"/>
<path d="M1340 194L1300 154" stroke="black" stroke-width="2"/>
<circle cx="1320" cy="174" r="13" fill="white" stroke="black" stroke-width="2"/>
<circle cx="1320" cy="174" r="29" stroke="black" stroke-width="2"/>
<path d="M941.5 218L997.5 277.5L1059.5 218" stroke="black" stroke-width="2"/>
<path opacity="0.2" d="M1118.5 113.5L1114.5 114.5L1116.5 118L1119.5 120.5L1125 126.5L1148.5 129.5L1147 134.5V144H1130L1120.5 141.5L1110 136.5L1112 144.5L1094 144L1080 144.5L1086.5 153.5L1094 148V154H1123.5V150L1124 148L1141.5 156L1148.5 150L1152.5 150.5V143.5H1159.5L1154 104.5L1148.5 108L1143.5 111L1140 108.75L1135.5 111.5L1132.5 109.5L1128.5 113.5L1125 111.5L1121.5 115.5L1118.5 113.5Z" fill="black"/>
<g opacity="0.2">
<path d="M1039 142.5L1035.5 130.5L1037 130L1051 148L1037 157.5L1039 142.5Z" fill="black"/>
<path d="M971 147.585L966.5 142.317L963.667 139L966.5 123.5L968.62 117.849L955.5 123.5L890.5 122.5L866.5 118.5L959.5 106L994.5 102L1108 115L1044.5 123.5L1019.5 121L1002.5 118.5H1000L993.25 124L983.5 126L998 115L988 109.5L972.648 116.113L973.5 118.5L966.5 142.317L971 147.585L975.5 130.5L980 144.5L983.5 150L994.5 159L1000.5 162L1005.5 161L1017.5 148V161H1034.5L1023 173.5L1017.5 167.5H1013L1004 180V187.5L1007.5 192.5L1000 200L992 192.5L996 187.5V173.5L992 180H982L984.167 163L975.5 159L971 147.585Z" fill="black"/>
<path d="M1004 144.5L994.5 147.585L998 152.5H1005.5L1013 144.5H1004Z" fill="black"/>
<path d="M998 132L996 126L1008.5 128L1002.5 132H998Z" fill="black"/>
</g>
<path d="M798 569L853 592V600H735L601 501L772 563L798 579V569Z" fill="#73995B"/>
<path d="M651 597L726 617L692 653L591 604L586 577L645 588L651 597Z" fill="#73995B"/>
<path d="M613.198 514L654 520.19V524H563.159L557 514H593.183L619.357 520.19L613.198 514Z" fill="#73995B"/>
<path d="M502.46 461L542 464.714V467H453.968L448 461H483.063L508.429 464.714L502.46 461Z" fill="#73995B"/>
<path d="M630 150C626.06 150 622.159 150.776 618.519 152.284C614.88 153.791 611.573 156.001 608.787 158.787C606.001 161.573 603.791 164.88 602.284 168.519C600.776 172.159 600 176.06 600 180C600 183.94 600.776 187.841 602.284 191.481C603.791 195.12 606.001 198.427 608.787 201.213C611.573 203.999 614.88 206.209 618.519 207.716C622.159 209.224 626.06 210 630 210L630 180L630 150Z" fill="white"/>
<path d="M630 150C626.06 150 622.159 150.776 618.519 152.284C614.88 153.791 611.573 156.001 608.787 158.787C606.001 161.573 603.791 164.88 602.284 168.519C600.776 172.159 600 176.06 600 180C600 183.94 600.776 187.841 602.284 191.481C603.791 195.12 606.001 198.427 608.787 201.213C611.573 203.999 614.88 206.209 618.519 207.716C622.159 209.224 626.06 210 630 210" stroke="black" stroke-width="2"/>
<path d="M573 164C582.831 160.01 605 154.5 605 135C605 117.544 580 121.5 580 132C580 142.5 600 135 600 135" stroke="black" stroke-width="2"/>
<path d="M556 166.003C573.5 156 583.5 158.5 597 145M600 135C550 161.5 519.5 112.5 575.5 132" stroke="black" stroke-width="2"/>
<path d="M543.001 169C555.501 160.5 571.001 155.5 571.001 155.5M594.001 142.5C511.501 181.5 499 101.5 573.001 131" stroke="black" stroke-width="2"/>
<path d="M527 210C549.403 210 556 190.5 575.5 190.5C595 190.5 600.661 217.5 565.5 217.5C549.071 217.5 557.571 208 574 208" stroke="black" stroke-width="2"/>
<path d="M627 408.333C676.683 408.333 691.313 365 734.558 365C777.803 365 790.358 425 712.381 425C675.947 425 694.797 403.889 731.232 403.889" stroke="black" stroke-width="2"/>
<path d="M433 209.5C481 209.5 482.448 178.5 463 178.5C452.132 178.5 444.043 184.121 433 189.08" stroke="black" stroke-width="2"/>
<path d="M697.023 155H704.947C722.685 155 722.589 179 703.159 179H696" stroke="black" stroke-width="2"/>
<path d="M585 125C610 109.5 636.5 144 593.5 159.5C593.5 159.5 599.5 158.5 604.5 159.5" stroke="black" stroke-width="2"/>
<path d="M524.5 213.5C532 213.5 538.5 213.5 546 210.5M599.5 216.5C587 242 549.761 237.185 541.5 226.5C534.799 217.834 548.92 208 574 208M519.5 213.5H493M576 208C585.5 208 586.5 212.5 571 213.5" stroke="black" stroke-width="2"/>
<path d="M623.5 416.159C640.12 416.159 652.826 416.159 669.446 409.527M788 422.791C760.3 479.166 677.781 468.52 659.474 444.899C644.625 425.74 675.918 404 731.493 404M735.925 404C756.977 404 759.192 413.948 724.845 416.159" stroke="black" stroke-width="2"/>
<path d="M539.071 189.5C604.5 136 655.071 179.744 641.5 187.846C648.311 194.246 649.047 200.387 647.246 204M535.5 186.5C548.929 172.705 569.5 165 569.5 165M531.5 183.795C537.898 176 552.571 167.5 552.571 167.5M527 182C533.5 175 540 170.5 540 170.5M637 204C641.333 208.5 646.4 220.5 632 232.5M632 225.5C616 241 592.5 260 632 260M636 232.5C647.219 223.151 646.622 213.803 643.762 208M640 232.5C649.448 224.628 650.516 216.755 648.91 211" stroke="black" stroke-width="2"/>
<path d="M431.071 142.5C481.812 183.99 523.618 166.995 533.501 153.495M427.5 145.5C440.929 159.295 461.5 167 461.5 167M423.5 148.205C429.898 156 444.571 164.5 444.571 164.5M419 150C425.5 157 432 161.5 432 161.5M529 128C533.333 123.5 538.4 111.5 524 99.4997M539.246 128C540.26 130.033 540.47 132.866 539.246 136.095M526.5 119.5C526.95 110.495 521.995 102.617 516.312 96" stroke="black" stroke-width="2"/>
<path d="M461 259.679C465.333 264.179 470.5 270 451.5 292.5M454 282C442 297.821 417.5 316.5 457 316.5M471.246 259.679C473.047 256.067 472.311 249.925 465.501 243.526C473.573 238.706 458.948 221.273 432 219.202" stroke="black" stroke-width="2"/>
<path d="M503.071 233.821C568.5 287.321 619.071 243.577 605.501 235.474C612.311 229.075 613.047 222.933 611.246 219.321M499.5 236.821C512.929 250.616 533.5 258.321 533.5 258.321M495.5 239.526C501.898 247.321 516.571 255.821 516.571 255.821M491 241.321C497.5 248.321 504 252.821 504 252.821" stroke="black" stroke-width="2"/>
<path d="M539.999 326.5C636.999 395 722.585 293.35 700.149 289.526C705.966 277.392 703.761 268.762 699.465 264.848M543.5 334C576.5 358.143 612 354.5 612 354.5M546.733 340.862C560 353 584 356.916 584 356.916M548.25 348C558.31 356.682 571.5 358.5 571.5 358.5" stroke="black" stroke-width="2"/>
<path d="M729.5 190C699 244 639.5 209 671 175.5" stroke="black" stroke-width="2"/>
<path d="M500.5 231.5C488.34 220.056 473.5 213.5 450.5 215" stroke="black" stroke-width="2"/>
<path d="M493 231.712C480.84 220.268 466 213.712 443 215.212" stroke="black" stroke-width="2"/>
<path d="M486 231.712C469.5 217.5 455 213.5 432 215" stroke="black" stroke-width="2"/>
<path d="M479 232C467.57 220.358 453.62 213.69 432 215.216" stroke="black" stroke-width="2"/>
<path d="M631 144.5C646 127.5 675 107.5 702.5 122" stroke="black" stroke-width="2"/>
<path d="M721 134C764 155.5 797 147 823.5 111L816 109C819.833 109.5 831.5 109 834.5 96" stroke="black" stroke-width="2"/>
<path d="M487.861 321.975C535.555 298.209 568.758 354.501 534.416 373.325C522.658 379.77 514.623 376.888 509.5 373.325C493.105 361.923 510.061 335.959 526.455 347.361C533.628 352.349 530.881 361.763 530.881 361.763M543.643 414.558C471.872 405.046 450.872 345.44 482.966 337.543C473.292 330.815 480.332 316.373 490.184 314.669M525.937 405.473C525.937 405.473 537.136 410.989 565.299 412.07M547.086 406.387C547.086 406.387 561.149 409.254 587.583 409.5" stroke="black" stroke-width="2" stroke-linejoin="bevel"/>
<path d="M955.5 124C827 124 876 115.5 876 115.5M876 115.5C927.5 115.5 979.4 100.8 1001 102C1022.6 103.2 1089 111.833 1110.5 115.5M876 115.5L966.5 96.5L978.5 76M1110.5 115.5L1043.5 124M1110.5 115.5L1034 94V79" stroke="black" stroke-width="2"/>
<path d="M1000 80H1024L1027.5 102H967L1000 80Z" fill="white"/>
<path d="M954.5 109.5L944 123.5L884.5 121.5L871.5 117.5L954.5 109.5Z" fill="#CCCCCC"/>
<path d="M950 101L941.5 109L895 114L899 112L950 101Z" fill="white"/>
<path d="M1026 131V137.5" stroke="black" stroke-width="2"/>
<circle cx="1180" cy="180" r="3" stroke="black" stroke-width="2"/>
<circle cx="1108" cy="176" r="3" stroke="black" stroke-width="2"/>
<circle cx="1212" cy="210" r="3" stroke="black" stroke-width="2"/>
<rect x="960" y="228" width="33" height="48" fill="#C4C4C4"/>
<rect x="920" y="228" width="33" height="48" fill="#C4C4C4"/>
<rect x="1000" y="228" width="33" height="48" fill="#C4C4C4"/>
<rect x="1038" y="228" width="33" height="48" fill="#C4C4C4"/>
<path d="M1853.95 1454.43L1503.83 1412.14L1928.98 1454.43V1445.59L1999 1458.22V1373H0V1412.14V1440.76L188.396 1454.43L201.734 1445.59L396.799 1458.22L305.102 1429.18L518.506 1458.22V1441.17H583.528L571.857 1458.22L880.294 1474L696.899 1451.27H836.946L780.26 1429.18L1028.68 1458.22L1043.68 1454.43L1062.02 1458.22H1645.55L1312.1 1422.87L1853.95 1454.43Z" fill="black"/>
<circle cx="508" cy="1192" r="50" fill="white"/>
<rect x="458" y="1193" width="100" height="180" fill="white"/>
<circle cx="657" cy="1192" r="50" fill="white"/>
<rect x="607" y="1193" width="100" height="180" fill="white"/>
<circle cx="806" cy="1192" r="50" fill="white"/>
<rect x="756" y="1193" width="100" height="180" fill="white"/>
<circle cx="955" cy="1192" r="50" fill="white"/>
<rect x="905" y="1193" width="100" height="180" fill="white"/>
<circle cx="1104" cy="1192" r="50" fill="white"/>
<rect x="1054" y="1193" width="100" height="180" fill="white"/>
<circle cx="1253" cy="1192" r="50" fill="white"/>
<rect x="1203" y="1193" width="100" height="180" fill="white"/>
<path fill-rule="evenodd" clip-rule="evenodd" d="M1015.12 212L948.208 212L947.846 212.592L946.76 212L908.507 212L907.529 266.53L915.873 280.345L907.511 267.501L907.1 290.401L908.482 291.154L907.627 292.553L907.067 292.248L907 296H925.327L915.873 280.345L926.063 296L1044.34 296L1047.34 293.129L1052.48 296H1076.42L1084.37 293.129L1084.91 296H1091.84C1091.84 296 1089.83 229.5 1091.84 225.5C1092.7 223.78 1089.83 221 1089.83 221L1091.84 212L1019.57 212L1018.46 213.817L1015.12 212Z" fill="#101010"/>
<path d="M1078.69 235.5L1085.31 225H1078.69V235.5Z" fill="#EEEEEE"/>
<path d="M1070.76 235.5L1077.37 225H1070.76V235.5Z" fill="#EEEEEE"/>
<path d="M1062.82 235.5L1069.43 225H1062.82V235.5Z" fill="#EEEEEE"/>
<path d="M1054.88 233L1060.17 225H1054.88V233Z" fill="#EEEEEE"/>
<path d="M1046.94 233L1052.24 225H1046.94V233Z" fill="#EEEEEE"/>
<path d="M1039.01 235L1044.3 225H1039.01V235Z" fill="#EEEEEE"/>
<path d="M1031.07 235.5L1037.68 225H1031.07V235.5Z" fill="#EEEEEE"/>
<path d="M1023.13 232L1028.42 225H1023.13V232Z" fill="#EEEEEE"/>
<path d="M1015.2 235.5L1021.81 225H1015.2V235.5Z" fill="#EEEEEE"/>
<path d="M1005.72 233.83L1014.09 225.17L1008.84 224.908L1005.72 233.83Z" fill="#EEEEEE"/>
<path d="M991.383 235.5L997.997 225H991.383V235.5Z" fill="#EEEEEE"/>
<path d="M997.997 235L991.383 245.5H997.997V235Z" fill="#EEEEEE"/>
<path d="M1013.87 235L1007.26 245.5H1013.87V235Z" fill="#EEEEEE"/>
<path d="M1021.81 237.5L1016.52 245.5H1021.81V237.5Z" fill="#EEEEEE"/>
<path d="M1029.75 237.5L1024.46 245.5H1029.75V237.5Z" fill="#EEEEEE"/>
<path d="M1037.68 235.5L1032.39 245.5H1037.68V235.5Z" fill="#EEEEEE"/>
<path d="M1045.62 235L1039.01 245.5H1045.62V235Z" fill="#EEEEEE"/>
<path d="M1053.56 238.5L1048.27 245.5H1053.56V238.5Z" fill="#EEEEEE"/>
<path d="M1061.5 235L1054.88 245.5H1061.5V235Z" fill="#EEEEEE"/>
<path d="M1070.97 236.67L1062.6 245.33L1067.85 245.592L1070.97 236.67Z" fill="#EEEEEE"/>
<path d="M1077.37 236L1070.76 246.5H1077.37V236Z" fill="#EEEEEE"/>
<path d="M1085.31 235L1078.69 245.5H1085.31V235Z" fill="#EEEEEE"/>
<path d="M979.864 269.381L980.524 260.873L971.563 257.235L931.21 254.494L922.292 256.917L921.673 264.893L907 268.707L923.002 274.249L922.314 283.111L928.735 286.398L969.199 287.722L978.627 285.333L979.287 276.825L992.387 273.439L979.864 269.381Z" fill="#FF4B3C"/>
<path d="M942.855 218.324H939.146L942.855 214.631L944.941 216.016H947.955L948.187 250.631L942.855 249.247V218.324Z" fill="#EEEEEE"/>
<path d="M953.301 230.631L944.169 239.788V243.222L953.301 236.125V247.113L955.584 249.631L959.237 247.571L957.867 245.511V235.667L953.301 230.631Z" fill="#EEEEEE"/>
<path d="M964.247 221.731L962.251 218.5L972.897 216.192L976.889 218.5V248.093L979.328 249.016L978.441 250.632H972.01V221.731H964.247Z" fill="#EEEEEE"/>
<path d="M962.616 227H972.826L972.113 232.571H964.753V242L965.94 245L973.3 245.429V251L964.04 250.571L960.241 244.143V229.571L962.616 227Z" fill="#EEEEEE"/>
<path d="M981.849 215.004L980.094 217.735L983.856 220.141L982.381 221.945L981.973 248.877L985.511 250.213L987.235 248.768L987.741 220.354L987.026 214.897L981.849 215.004Z" fill="#EEEEEE"/>
<path d="M998.474 217.928L991.383 215.337V245.451V248.041L996.488 250.632L998.474 249.013V217.928Z" fill="#EEEEEE"/>
<path d="M1008.4 248.561V219.573L1015.49 221.643V248.561L1013.95 250.632L1008.4 248.561Z" fill="#EEEEEE"/>
<path d="M1003.32 216.749L992.801 223.337L996.418 228.043L1004.64 221.769L1013.19 224.278L1015.49 221.769L1003.32 216.749Z" fill="#EEEEEE"/>
<path d="M1018.51 228.705L1019.51 221L1052.66 215L1086.82 220L1087.82 225.432H1082.8H1080.79H1079.78H1077.27H1075.26H1073.25L1053.16 225L1032.07 225.432L1087.82 245V248.308L1081.79 251L1043.12 252.5L1018.51 245V241.5L1054.67 245.5L1066.22 243.5L1018.51 228.705Z" fill="#EEEEEE"/>
<path d="M939.495 226.757L941.155 227.684L938.664 229.539L934.236 227.684L928.978 220.267L920.675 227.684L921.782 240.896L929.808 245.3L938.664 239.563H940.602V243.909L931.745 250.631H927.317L915.416 240.896L914.032 225.83L927.04 215.631L929.808 217.022L933.129 217.486L939.495 226.757Z" fill="#EEEEEE"/>
<path d="M995.955 255.346L991.383 253.631V286.631L992.63 288.131L995.332 289.631L997.41 288.131L995.955 286.631V255.346Z" fill="#EEEEEE"/>
<path d="M1007.46 255.318L1003.64 253.631L1002.43 285.047V286.945L1005.85 288.631L1007.46 287.788L1006.85 285.89L1007.46 255.318Z" fill="#EEEEEE"/>
<path d="M1020.48 254.857L1013.87 254L1012.48 258.929V288.5L1018.74 290L1021.52 288.5L1020.48 287V254.857Z" fill="#EEEEEE"/>
<path d="M1003.82 254.631L994.396 263.577L998.25 266.631L1007.46 255.94L1003.82 254.631Z" fill="#EEEEEE"/>
<path d="M1013.77 254.631L1003.44 263.391L1006.67 265.631L1018.51 255.242L1013.77 254.631Z" fill="#EEEEEE"/>
<path d="M1053.6 258.886L1046.67 257L1045.63 264.335L1047.71 267.479V291.162L1053.6 292L1055.67 291.162V267.479L1053.6 264.335V258.886Z" fill="#EEEEEE"/>
<path d="M1063.71 255.944L1060.96 254.631L1048.64 255.944L1052.18 260.319L1060.08 258.569V261.85L1052.18 266.006V268.631L1063.71 264.256V255.944Z" fill="#EEEEEE"/>
<path d="M1062.87 287.677V270.493L1050.32 265.631L1049.65 268.753L1059.19 272.818V288.509L1059.69 290.383L1062.2 291.631L1063.71 290.383L1062.87 287.677Z" fill="#EEEEEE"/>
<path d="M1085.99 254.631H1073.16L1073.77 256.998H1081.92L1073.77 259.5L1072.75 282.5L1078.28 289.5H1085.99L1082.73 276.5H1085.99V254.631Z" fill="#EEEEEE"/>
<path d="M1069.74 266.815V253.631L1073.99 254.163V266.815L1074.76 272.131L1074.57 288.93L1073.41 290.631L1069.74 288.93L1070.51 272.131L1069.74 266.815Z" fill="#EEEEEE"/>
<path d="M959.438 284.58L959.237 260.58H970.89L971.292 266.58L970.488 268.08H965.064L967.876 273.08L966.771 275.29L963.657 273.08V282.58L959.438 284.58Z" fill="white"/>
<path d="M933.822 271.345C933.516 262.029 941.111 254.05 942.232 254.029C943.354 254.007 951.207 262.432 951.538 272.494C951.844 281.81 943.371 288.686 943.371 288.686C943.371 288.686 934.145 281.168 933.822 271.345Z" fill="white"/>
<path d="M937.138 271.959C937.052 268.678 940.427 265.928 942.952 265.863C946.249 265.778 948.991 268.37 949.076 271.652C949.161 274.933 945.937 277.679 943.261 277.748C939.965 277.833 937.223 275.241 937.138 271.959Z" fill="#FF4B3C"/>
<path d="M1025.1 271.345C1024.79 262.029 1032.39 254.05 1033.51 254.029C1034.63 254.007 1042.48 262.432 1042.81 272.494C1043.12 281.81 1034.65 288.686 1034.65 288.686C1034.65 288.686 1025.42 281.168 1025.1 271.345Z" fill="#EEEEEE"/>
<path d="M1028.41 271.959C1028.33 268.678 1031.7 265.928 1034.23 265.863C1037.52 265.778 1040.27 268.37 1040.35 271.652C1040.44 274.933 1037.21 277.679 1034.54 277.748C1031.24 277.833 1028.5 275.241 1028.41 271.959Z" fill="#101010"/>
<path fill-rule="evenodd" clip-rule="evenodd" d="M1065.76 317.528L1059.48 286.624L1066.05 294.241L1071.76 310.332L1079.11 314.914L1071.05 320.628L1065.76 317.528ZM1081.51 303.474L1081.37 312.794L1076.27 306.092L1068.28 274.591L1077.86 285.572L1084.49 299.879L1089.26 304.562L1081.51 303.474ZM1094.33 300.457L1094.03 309.244L1088.36 296.833L1079.31 273.339L1086.12 279.864L1096.6 294.743L1101.03 301.796L1094.33 300.457Z" fill="white"/>
<path d="M1100 285.572L1100 279L1104.46 285.011L1104.86 295.742L1103.4 293.018L1100 285.572Z" fill="white"/>
<path d="M1081.51 326.762L1071.05 320.628M1094.03 309.244L1088.36 296.833L1079.31 273.339L1086.12 279.864L1096.6 294.743L1101.03 301.796M1094.03 309.244L1094.33 300.457L1101.03 301.796M1094.03 309.244L1089.26 304.562M1058.5 298.465L1061 312.794L1063.1 314.812M1089.26 331.575L1083.5 329L1083.5 363M1092.85 332.834L1105.95 331.575L1114.53 320.628L1113.06 314.812L1113.1 299.879M1130 349L1120 299.879L1113.1 299.879M1113.1 299.879L1113.11 296.743L1112.13 292.866L1104.46 285.011M1101.03 301.796L1104.42 307.203L1106.33 298.465L1104.86 295.742M1089.26 304.562L1084.49 299.879L1077.86 285.572L1068.28 274.591L1076.27 306.092L1081.37 312.794M1089.26 304.562L1081.51 303.474L1081.37 312.794M1081.37 312.794L1086.46 319.496L1079.11 314.914M1079.11 314.914L1071.76 310.332L1066.05 294.241L1059.48 286.624L1065.76 317.528L1071.05 320.628M1079.11 314.914L1071.05 320.628M1104.86 295.742L1103.4 293.018L1100 285.572L1100 279L1104.46 285.011M1104.86 295.742L1104.46 285.011" stroke="black" stroke-width="2"/>
<path d="M947.05 287.88L940.474 314.05L933.5 320.753L927.416 315.083L920.064 320.753L925.161 314.05L925.014 304.73L917.267 305.818L912.5 310.5L912.197 301.713L905.5 303.052L902.108 308.459L900.198 299.721L901.663 296.998L902.064 286.267L909.732 278.411L907.888 285.681L903.128 294.274L901.663 296.998L900.198 299.721L902.108 308.459L905.5 303.052L909.925 295.999L920.407 281.12L927.221 274.595L918.164 298.089L912.5 310.5L917.267 305.818L922.034 301.135L928.672 286.828L938.252 275.847L930.259 307.348L925.161 314.05L920.064 320.753L927.416 315.083L934.769 310.5L940.474 295.497L947.05 287.88Z" fill="white"/>
<path d="M930.259 323L933.5 320.753M912.5 310.5L918.164 298.089L927.221 274.595L920.407 281.12L909.925 295.999L905.5 303.052M912.5 310.5L912.197 301.713L905.5 303.052M912.5 310.5L917.267 305.818M944.535 298.089L946 299.721L943.5 318.982L928.672 327.5M913.672 337L922.034 330.5L922.034 349M913.672 334.09L900.58 332.831L891.996 321.884L893.471 316.068L893.423 301.135M855.5 376.5L887 301.135L893.423 301.135M893.423 301.135L893.413 297.999L894.397 294.122L902.064 286.267M905.5 303.052L902.108 308.459L900.198 299.721L901.663 296.998M917.267 305.818L922.034 301.135L928.672 286.828L938.252 275.847L930.259 307.348L925.161 314.05M917.267 305.818L925.014 304.73L925.161 314.05M925.161 314.05L920.064 320.753L927.416 315.083M927.416 315.083L934.769 310.5L940.474 295.497L947.05 287.88L940.474 314.05L933.5 320.753M927.416 315.083L933.5 320.753M901.663 296.998L903.128 294.274L907.888 285.681L909.732 278.411L902.064 286.267M901.663 296.998L902.064 286.267" stroke="black" stroke-width="2"/>
<path d="M1133.5 218L1142.5 208V214M1130.5 216.5L1132 203.5V200L1128 206.5L1124 211M1136 227L1144 218L1146 216.5L1147 221.5M1149 240.5L1144 236.5L1137 244.5M1114.5 250L1119.5 256.5L1114.5 263.5M1114 207L1119 197L1120 201.5M1106.5 205.5C1106.5 204.7 1108.83 194.833 1110 190L1105.5 196L1102 199M1153 253L1164.5 245.5L1164 261.5L1154 267.5L1144.5 259M1121 250.5L1126.5 253L1130.5 261.5L1124 270L1122.5 266.5" stroke="black" stroke-width="2"/>
<path d="M879.91 202.1L889.859 191.214L893.063 187L913 204.91H904.456L894.487 198.94V201.135M894.487 201.135L900.361 211.933V218.957L893.063 209.475H888.257L894.487 201.135ZM855.379 238.622H845L854.613 277.953V341M851.853 267.769L857.461 266.365L877.22 260.746L893.063 252.318L900.183 252.669V244.592L893.063 243.538H881.67L883.094 221.415M846.602 247.05L852.12 245.997L864.225 218.605V213.338L866.717 213.689L871.702 200.696L872.77 195.428L905.88 228.087L877.754 213.338L875.974 213.689L871.702 230.896L870.99 248.806L864.225 251.967" stroke="black" stroke-width="2"/>
<g opacity="0.2">
<path d="M913 104.5L908 101L880 87L859 84.5V91L856.5 115.5L861.5 139.5L881.5 126.5V135.5L897 136.5L881.5 151.5L875 152.5L869.5 155.5L878 170L895 151.5L907 132L912 118L913 104.5Z" fill="black"/>
<path d="M900.5 252.5L901 244.5L881.5 243.5L883.5 217L905.5 228L888 210L892.5 209L900.5 219V212L894 198.5L904 204.5H912L895.5 189.5L882.5 203.5L889.5 213L875 202L859 246L850.5 254.5L856.5 277.5V319L869.5 350.5L875 262L892 253.5L900.5 252.5Z" fill="black"/>
<path d="M848 238.5V246H852.5V238.5H848Z" fill="black"/>
<path d="M1112 206C1107.83 209.833 1099.3 217.7 1098.5 218.5V226.5L1114 214.5L1117.5 218.5L1121 214.5L1112 206Z" fill="black"/>
<path d="M1132.5 216L1121 223L1122.5 226.5V251.5L1127 253.5L1130 262L1118.5 258L1115.5 263.5L1153 274.5L1169 273V263.5L1155.5 269C1152.33 266.333 1146 260.7 1146 259.5C1146 258.3 1141 257 1138.5 256.5L1136.5 226.5L1132.5 216Z" fill="black"/>
</g>
<path d="M432 752V1160" stroke="black" stroke-width="2"/>
<path d="M432 752V1160" stroke="black" stroke-width="2"/>
<path d="M671.5 1304.5C667.495 1307.04 659.033 1309.34 659.033 1309.34L659.033 1299L653 1284L656 1272.5L660 1272.5L679 1289C679 1289 677.704 1300.56 671.5 1304.5Z" fill="#364C3C" stroke="black" stroke-width="2"/>
<path d="M648.621 1372L640.621 1372L640.621 1367.88L641.51 1352.5L652.399 1352.5L648.621 1368L648.621 1372Z" fill="black" stroke="black" stroke-width="2"/>
<path d="M662.621 1372L677.121 1372L670.391 1368.04L673.498 1352.5L662.621 1352.5L662.621 1361.05L662.621 1372Z" fill="black" stroke="black" stroke-width="2"/>
<path d="M680 1314L676.488 1299.29L669 1306.5L671.778 1311.58L678.141 1317.11L680 1314Z" fill="#6C6952" stroke="black" stroke-width="2"/>
<path d="M672.832 1319.78L672.832 1315.78L675.832 1312.78L680.832 1313.78L682 1318L678.5 1324L672.832 1319.78Z" fill="#6C6952" stroke="black" stroke-width="2"/>
<path d="M637 1261L643 1269.5C643 1269.5 613.934 1296.42 607 1320C602.417 1335.59 601 1353 601 1353H625L653 1353.5L665 1353V1261H637Z" fill="black"/>
<path d="M660 1300H639.647L632 1326H660V1300Z" fill="#364C3C" stroke="black" stroke-width="2"/>
<path d="M682.829 1341.56L672.621 1308L660.299 1319.44L660.299 1338.09L660.299 1358.1L673.882 1361.48L682.829 1341.56Z" fill="#6C6952" stroke="black" stroke-width="2"/>
<path d="M656.5 1359L660 1300L643 1300L639 1322.83L639 1359L656.5 1359Z" fill="#6C6952" stroke="black" stroke-width="2"/>
<path d="M641.784 1303H672.512L673 1297.58L668.61 1271H650.194L641.414 1274.8L638 1287.27L641.784 1303Z" fill="#364C3C" stroke="black" stroke-width="2"/>
<path d="M641.784 1303H646V1297.5L671.5 1275L650.194 1271L641.414 1274.8L638 1287.27L641.784 1303Z" fill="#364C3C" stroke="black" stroke-width="2"/>
<path d="M673 1303H646V1326H673V1303Z" fill="#364C3C" stroke="black" stroke-width="2"/>
<path d="M655 1323H652V1326H655V1323Z" fill="black" stroke="black" stroke-width="2"/>
<path d="M664 1323H661V1326H664V1323Z" fill="black" stroke="black" stroke-width="2"/>
<path d="M673 1323H670V1326H673V1323Z" fill="black" stroke="black" stroke-width="2"/>
<path d="M670.5 1252.5L652.5 1255.5L653.5 1258.5L647.5 1270L651.5 1276L666 1282.5L673.5 1276L671.5 1270.5L670.5 1252.5Z" fill="#6C6952" stroke="black" stroke-width="2"/>
<path d="M628.204 1316.46L623.956 1321L643.24 1339.05L643.982 1331.23L628.204 1316.46Z" fill="white"/>
<rect width="3.4645" height="21.4972" transform="matrix(-0.613087 0.654846 0.654851 0.613082 613.064 1304.42)" fill="white"/>
<rect width="3.46449" height="17.3225" transform="matrix(0.65485 0.613083 0.613086 -0.654848 618.501 1322.28)" fill="white"/>
<path d="M629.5 1304.5C633.505 1307.04 641.967 1307.5 641.967 1307.5L641.967 1299L648 1284L645 1272.5L641 1272.5L622 1289C622 1289 623.296 1300.56 629.5 1304.5Z" fill="#364C3C" stroke="black" stroke-width="2"/>
<path d="M618.46 1308.13L623.064 1292.57C623.064 1292.57 627.099 1291.74 629.497 1292.88C632.306 1294.22 634.56 1299.06 634.56 1299.06L629.684 1305.07L623.724 1312.4L618.46 1308.13Z" fill="#6C6952" stroke="black" stroke-width="2"/>
<path d="M617.5 1316L619.5 1307.5L623 1308.5L625.793 1312.83L623.992 1315.44L621.791 1318.63L617.5 1316Z" fill="#6C6952" stroke="black" stroke-width="2"/>
<path d="M664.5 1303H673V1309H664.5L668.5 1306L664.5 1303Z" fill="#6C6952" stroke="black" stroke-width="2"/>
<path d="M650.5 1303H642V1309H650.5L646.5 1306L650.5 1303Z" fill="#6C6952" stroke="black" stroke-width="2"/>
<path d="M661.5 1303H653V1309H661.5L657.5 1306L661.5 1303Z" fill="#6C6952" stroke="black" stroke-width="2"/>
<path d="M673 1276L668 1280L659 1271L662.5 1260L670.5 1253.5L671.5 1271L673 1276Z" fill="black" stroke="black" stroke-width="2"/>
<path d="M1255.96 1311H1246.6L1242.42 1308.5L1247.11 1303H1256.47L1255.96 1311Z" fill="#C1C1C1" stroke="black" stroke-width="2"/>
<path d="M1247.3 1301.46L1224.07 1299.02L1221.57 1322.96L1247.3 1334.18L1247.3 1301.46Z" fill="#54609F" stroke="black" stroke-width="2"/>
<path d="M1234 1313H1202.33L1196.5 1319L1185 1372H1210.88H1240.5L1234 1313Z" fill="#54609F" stroke="black" stroke-width="2"/>
<path d="M1234 1313H1214L1214 1372H1210.88H1240.5L1234 1313Z" fill="#263464" stroke="black" stroke-width="2"/>
<path d="M1224.41 1326L1227 1323.41L1229.59 1326L1227 1328.59L1224.41 1326Z" fill="black" stroke="black" stroke-width="2"/>
<path d="M1234 1324.41V1327.59L1232.41 1326L1234 1324.41Z" stroke="black" stroke-width="2"/>
<path d="M1216.41 1326L1219 1323.41L1221.59 1326L1219 1328.59L1216.41 1326Z" fill="black" stroke="black" stroke-width="2"/>
<path d="M1208.41 1326L1211 1323.41L1213.59 1326L1211 1328.59L1208.41 1326Z" stroke="black" stroke-width="2"/>
<path d="M1233 1282H1193L1202.26 1309H1237L1233 1282Z" fill="#54609F" stroke="black" stroke-width="2"/>
<path d="M1234 1313H1193L1202.26 1309H1234V1313Z" fill="#2A3EA4" stroke="black" stroke-width="2"/>
<path d="M1210 1270V1278H1227V1270H1210Z" fill="black" stroke="black" stroke-width="2"/>
<path d="M1191.33 1282L1179.33 1305.5L1179.33 1315.5L1210.83 1335L1210.83 1302L1200.33 1302L1203.83 1293.5L1197.33 1282L1191.33 1282Z" fill="#263464" stroke="black" stroke-width="2"/>
<path d="M1216.33 1305.99L1223.83 1305.99L1240.83 1292.99L1228.33 1292.99L1219.33 1298.49L1210.33 1292.99L1194.83 1292.99L1216.33 1305.99Z" fill="white" stroke="black" stroke-width="2"/>
<path d="M1221.83 1306.5L1216.33 1311.5L1211.06 1311.5L1211.06 1303L1221.83 1303L1221.83 1306.5Z" fill="#C1C1C1" stroke="black" stroke-width="2"/>
<path d="M1189.83 1272.5L1244.83 1275L1224 1265.5L1217.83 1251.5L1211.5 1265.5L1189.83 1272.5Z" fill="#263464" stroke="black" stroke-width="2"/>
<rect width="3.3449" height="124.854" transform="matrix(0.89372 0.0772275 -0.0772344 0.893719 1259.83 1261.09)" fill="black"/>
<path d="M1257.94 1281L1264.91 1281.61L1267.4 1281.82L1266.08 1279.7L1266.59 1273.72L1268.76 1271.9L1266.94 1269.74L1267.28 1265.75L1270.62 1262.03" stroke="black" stroke-width="3"/>
<path d="M1260.92 1281.26L1253.95 1280.66L1251.46 1280.44L1253.13 1278.58L1253.64 1272.6L1251.82 1270.44L1253.99 1268.62L1254.33 1264.63L1251.69 1260.39" stroke="black" stroke-width="3"/>
<path d="M1257.57 1311H1252.46L1250.09 1308.5L1252.46 1303L1256.5 1297.5L1257.57 1311Z" fill="#C1C1C1" stroke="black" stroke-width="2"/>
<path d="M1229.83 1282L1233.83 1275H1224.33L1220 1279.5L1214.83 1275H1199.83L1205.09 1282H1216L1220 1289L1224.33 1282H1229.83Z" fill="#54609F" stroke="black" stroke-width="2"/>
<path d="M1260.29 1312H1256.33L1254.41 1308.88L1256.05 1302H1260L1260.29 1312Z" fill="#C1C1C1" stroke="black" stroke-width="2"/>
<path d="M1213.62 1272.19L1210.45 1272.08L1212.09 1270.55L1213.62 1272.19Z" stroke="black" stroke-width="2"/>
<path d="M1221.61 1272.47L1218.44 1272.36L1220.08 1270.83L1221.61 1272.47Z" stroke="black" stroke-width="2"/>
<path d="M1229.61 1272.75L1226.44 1272.64L1228.08 1271.11L1229.61 1272.75Z" stroke="black" stroke-width="2"/>
<path d="M1214 1367L1220 1373H1208L1214 1367Z" fill="black"/>
<path d="M1040 1266L1045.5 1273C1045.5 1273 1029.69 1292.87 1023 1307.5C1012.81 1329.79 1010.5 1369 1010.5 1369H1038.5H1083L1082 1282.5V1266H1040Z" fill="#B04129" stroke="black" stroke-width="2"/>
<path d="M1057 1266V1273C1057 1273 1044.03 1292.87 1039.14 1307.5C1031.69 1329.79 1030 1369 1030 1369H1050.47H1083L1082 1283V1266H1057Z" fill="#7D2D1C" stroke="black" stroke-width="2"/>
<path d="M1105.56 1330.63L1085.64 1319.13L1084.64 1320.87L1104.56 1332.37L1105.56 1330.63Z" fill="#B28C52" stroke="black" stroke-width="2"/>
<path d="M1073.98 1287.35L1093.51 1287.25L1093.51 1303.62L1078.58 1303.71L1073.98 1287.35Z" fill="#AD793C" stroke="black" stroke-width="2"/>
<path d="M1081 1301L1094 1301L1094 1321L1081 1321L1081 1301Z" fill="#B28C52" stroke="black" stroke-width="2"/>
<path d="M1081.5 1303L1081.5 1299L1088 1301L1094 1299L1093.98 1296L1097 1301L1093.98 1306L1094 1303L1088 1301L1081.5 1303Z" fill="black"/>
<path d="M1088 1301L1094 1303L1093.98 1306L1097 1301L1093.98 1296L1094 1299L1088 1301ZM1088 1301L1081.5 1303L1081.5 1299L1088 1301Z" stroke="black" stroke-width="2"/>
<path d="M1051.76 1372L1043.98 1372L1043.98 1367.38L1044.87 1352L1055.76 1352L1051.76 1367.38L1051.76 1372Z" fill="black" stroke="black" stroke-width="2"/>
<path d="M1063.99 1372L1078 1372L1071.76 1367.54L1074.87 1352L1063.99 1352L1063.99 1360.55L1063.99 1372Z" fill="black" stroke="black" stroke-width="2"/>
<path d="M1032.98 1310.3L1033.13 1296.73L1054.38 1297.12L1054.3 1306.12L1038.98 1312L1032.98 1310.3Z" fill="#B28C52" stroke="black" stroke-width="2"/>
<path d="M1041.8 1356.89L1045.74 1318.11H1064.9L1058.12 1356.89H1041.8Z" fill="#AD793C" stroke="black" stroke-width="2"/>
<path d="M1049.91 1280.35L1032.48 1280.35L1029.98 1304.29L1044.91 1304.29L1049.91 1280.35Z" fill="#B28C52" stroke="black" stroke-width="2"/>
<path d="M1083 1318.35L1065.16 1318.53L1061.98 1357L1078.48 1357L1083 1328L1083 1318.35Z" fill="#AD793C" stroke="black" stroke-width="2"/>
<path d="M1085 1273H1044.98L1048.98 1301H1081.66L1085 1273Z" fill="#B28C52" stroke="black" stroke-width="2"/>
<path d="M1051 1271H1048.69C1037.87 1271 1029.09 1279.51 1029.09 1290L1045.6 1290L1051 1290L1051 1285L1051 1271Z" fill="#C1C1C1"/>
<path d="M1027 1290H1029.09M1029.09 1290L1045.6 1290L1051 1290L1051 1285L1051 1271L1048.69 1271C1037.87 1271 1029.09 1279.51 1029.09 1290Z" stroke="black" stroke-width="2"/>
<path d="M1081.98 1285L1086.09 1290L1098.63 1290C1098.63 1279.96 1090 1271 1081.98 1271L1081.98 1285Z" fill="#B28C52"/>
<path d="M1100.98 1290L1098.63 1290M1098.63 1290L1086.09 1290L1081.98 1285L1081.98 1271C1090 1271 1098.63 1279.96 1098.63 1290Z" stroke="black" stroke-width="2"/>
<path d="M1064 1254H1048L1052 1260L1068 1260V1256H1064V1254Z" fill="#F27155" stroke="black" stroke-width="2"/>
<path d="M1057 1283L1057 1267L1051 1271L1051 1287L1055 1283L1057 1283Z" fill="#F27155" stroke="black" stroke-width="2"/>
<path d="M1076 1283L1076 1273L1082 1266L1082 1287L1078 1287L1078 1283L1076 1283Z" fill="#F27155"/>
<path d="M1076 1273L1075 1273L1075 1272.63L1075.24 1272.35L1076 1273ZM1076 1283L1076 1284L1075 1284L1075 1283L1076 1283ZM1078 1287L1078 1288L1077 1288L1077 1287L1078 1287ZM1082 1287L1083 1287L1083 1288L1082 1288L1082 1287ZM1082 1266L1081.24 1265.35L1083 1266L1082 1266ZM1078 1283L1078 1282L1079 1282L1079 1283L1078 1283ZM1077 1273L1077 1283L1075 1283L1075 1273L1077 1273ZM1078 1286L1082 1286L1082 1288L1078 1288L1078 1286ZM1082.76 1266.65L1076.76 1273.65L1075.24 1272.35L1081.24 1265.35L1082.76 1266.65ZM1076 1282L1078 1282L1078 1284L1076 1284L1076 1282ZM1079 1283L1079 1287L1077 1287L1077 1283L1079 1283ZM1081 1287L1081 1266L1083 1266L1083 1287L1081 1287Z" fill="black"/>
<path d="M1029 1311L1028 1303L1036 1307L1036 1313L1029 1311Z" fill="black" stroke="black" stroke-width="2"/>
<path d="M1094.5 1322L1091.5 1327.5L1088 1327.5L1084.6 1321.01L1091.5 1316L1094.5 1322Z" fill="black" stroke="black" stroke-width="2"/>
<path d="M1057.98 1268.5L1061.5 1277H1065.5H1073L1073.98 1262.5L1071.5 1260H1057.98V1268.5Z" fill="#B28C52" stroke="black" stroke-width="2"/>
<path d="M1081.5 1301H1047.98V1324H1063.98L1069.98 1310.5L1074.48 1324H1087.98L1081.5 1306.5V1301Z" fill="#B28C52" stroke="black" stroke-width="2"/>
<path d="M1070 1266L1070 1277" stroke="black" stroke-width="2"/>
<path d="M1072 1270L1072 1273" stroke="black" stroke-width="2"/>
<path d="M1068 1270L1068 1273" stroke="black" stroke-width="2"/>
<path d="M1064 1270L1064 1273" stroke="black" stroke-width="2"/>
<path d="M1028 1287L1028 1290" stroke="black" stroke-width="2"/>
<path d="M1033 1287L1033 1290" stroke="black" stroke-width="2"/>
<path d="M1039 1287L1039 1290" stroke="black" stroke-width="2"/>
<path d="M1045 1287L1045 1290" stroke="black" stroke-width="2"/>
<path d="M1051 1287L1051 1291" stroke="black" stroke-width="2"/>
<path d="M1088 1287L1088 1290" stroke="black" stroke-width="2"/>
<path d="M1094 1287L1094 1290" stroke="black" stroke-width="2"/>
<path d="M1100 1287L1100 1291" stroke="black" stroke-width="2"/>
<path d="M1060 1270L1060 1273" stroke="black" stroke-width="2"/>
<path d="M1073 1267L1067 1267" stroke="black" stroke-width="2"/>
<circle cx="1080" cy="1284" r="4" fill="#C1C1C1" stroke="black" stroke-width="2"/>
<circle cx="1052.5" cy="1283.5" r="4.5" fill="#B28C52" stroke="black" stroke-width="2"/>
<path d="M1062.98 1342L1069 1342L1073.5 1346L1078 1342L1080.98 1342" stroke="black" stroke-width="2"/>
<path d="M1042.98 1342L1047.48 1342L1051.98 1346L1056.48 1342L1060.98 1342" stroke="black" stroke-width="2"/>
<path d="M1050.39 1296.26L1051.02 1296.77L1051.65 1296.26L1054.45 1294H1066.04V1328.38L1051.02 1335.88L1036 1328.38V1294H1047.59L1050.39 1296.26Z" fill="#AD793C" stroke="black" stroke-width="2"/>
<path d="M1051 1297L1051 1336" stroke="black" stroke-width="2"/>
<path d="M1101.8 1338.73L1109.8 1324.87" stroke="black" stroke-width="2"/>
<path d="M1113.53 1329.73L1098.07 1333.87" stroke="black" stroke-width="2"/>
<path d="M1107.87 1339.53L1103.73 1324.07" stroke="black" stroke-width="2"/>
<path d="M1098.87 1327.8L1112.73 1335.8" stroke="black" stroke-width="2"/>
<path d="M1070 1277L1070 1311" stroke="black" stroke-width="2"/>
<rect x="1100.9" y="1328.97" width="8" height="8" transform="rotate(-15 1100.9 1328.97)" fill="black"/>
<path d="M933.131 1372.5L925.354 1372.5L925.354 1367.88L926.242 1352.5L937.131 1352.5L933.131 1367.88L933.131 1372.5Z" fill="black" stroke="black" stroke-width="2"/>
<path d="M947.354 1372.7L961.854 1372.7L955.123 1368.04L958.231 1352.5L947.354 1352.5L947.354 1361.05L947.354 1372.7Z" fill="black" stroke="black" stroke-width="2"/>
<path d="M976.011 1307.87L970.86 1304.39L985.648 1282.5L988.11 1289.96L976.011 1307.87Z" fill="#919EBF"/>
<rect width="3.4645" height="21.4972" transform="matrix(-0.743327 -0.50216 0.502165 -0.743323 963.928 1322.98)" fill="#919EBF"/>
<rect width="3.46449" height="17.3225" transform="matrix(0.502165 -0.743324 0.743326 0.502161 965.258 1304.36)" fill="#919EBF"/>
<path d="M946.213 1306.76L966.261 1303.37L952.659 1293.92L958.572 1277.09L952.292 1269.33L936.838 1302.34L946.213 1306.76Z" fill="#6C6552" stroke="black" stroke-width="2"/>
<path d="M968.063 1306.47L956.502 1294.91L947.911 1309.92L955.471 1312.03L964.712 1314.6L968.063 1306.47Z" fill="#6C6552" stroke="black" stroke-width="2"/>
<path d="M967.989 1315.25L967.166 1307.69L973.723 1307.1L972.605 1310.88L971.239 1315.51L967.989 1315.25Z" fill="#6C6552" stroke="black" stroke-width="2"/>
<path d="M922.793 1262.5L926.66 1270.5C926.66 1270.5 884.189 1289.03 882.854 1311.5C881.957 1326.58 886.354 1353.5 886.354 1353.5H926.66H951.854L936.713 1295.17L941.354 1262.5H922.793Z" fill="black" stroke="black" stroke-width="2"/>
<path d="M943.354 1300.5H923.001L915.354 1334.5H943.354V1300.5Z" fill="#313131" stroke="black" stroke-width="2"/>
<path d="M967.562 1341.56L957.354 1308L945.032 1319.44L945.032 1338.09L945.032 1358.1L958.615 1361.48L967.562 1341.56Z" fill="#313131" stroke="black" stroke-width="2"/>
<path d="M940.854 1359.5L944.354 1309.5L923.354 1309.5L923.354 1328.85L923.354 1359.5L940.854 1359.5Z" fill="#313131" stroke="black" stroke-width="2"/>
<path d="M925.854 1300.5H957.354L960.854 1295L957.854 1270.5H934.854L925.854 1274L922.354 1285.5L925.854 1300.5Z" fill="#313131" stroke="black" stroke-width="2"/>
<path d="M957.354 1300.5H934.82L926.354 1334.5H957.354V1300.5Z" fill="#313131" stroke="black" stroke-width="2"/>
<path d="M952.354 1286L943.854 1265.5L957.354 1253L961.354 1273L952.354 1286Z" fill="black" stroke="black" stroke-width="2"/>
<path d="M958.354 1252L937.854 1254.5L940.854 1258.5L933.354 1268C933.354 1268 935.353 1274.78 939.354 1277C943.483 1279.29 952.854 1278.5 952.854 1278.5L949.854 1269L958.354 1252Z" fill="#6C6552" stroke="black" stroke-width="2"/>
<path d="M914.689 1315.95L910.294 1320.35L928.974 1339.02L929.972 1331.23L914.689 1315.95Z" fill="#919EBF"/>
<rect width="4.53779" height="28.1569" transform="matrix(-0.484283 0.484279 0.484283 0.484279 899.955 1303.41)" fill="#919EBF"/>
<rect width="4.53779" height="22.6889" transform="matrix(0.484283 0.484282 0.484283 -0.484283 904.801 1321.44)" fill="#919EBF"/>
<path d="M915.354 1305L926.7 1309.34L926.7 1300.5L932.854 1290.5C932.854 1290.5 936.325 1280.97 932.854 1277C930.609 1274.43 924.854 1273.5 924.854 1273.5L903.354 1290.5L915.354 1305Z" fill="#313131" stroke="black" stroke-width="2"/>
<path d="M903.193 1308.13L907.797 1292.57C907.797 1292.57 911.832 1291.74 914.231 1292.88C917.039 1294.22 919.294 1299.06 919.294 1299.06L914.417 1305.06L908.457 1312.4L903.193 1308.13Z" fill="#6C6552" stroke="black" stroke-width="2"/>
<path d="M903.349 1316.44L903.917 1309.37L910.527 1312.83L908.726 1315.44L906.525 1318.63L903.349 1316.44Z" fill="#6C6552" stroke="black" stroke-width="2"/>
<path d="M957.354 1300.5H932.854V1305.5H957.354V1300.5Z" fill="#6C6552" stroke="black" stroke-width="2"/>
<path d="M738.608 1372L730.83 1372L730.83 1367.38L731.719 1352L742.608 1352L737.33 1367.38L738.608 1372Z" fill="black" stroke="black" stroke-width="2"/>
<path d="M789.058 1295.5L765.83 1293.06L763.33 1317L789.058 1328.21L789.058 1295.5Z" fill="#374569" stroke="black" stroke-width="2"/>
<path d="M758.83 1372.2L773.33 1372.2L766.6 1367.54L769.708 1352L758.83 1352L758.83 1360.55L758.83 1372.2Z" fill="black" stroke="black" stroke-width="2"/>
<path d="M772.33 1313H740.66L729.278 1320.74L720.33 1372H782.33L772.33 1313Z" fill="#3C4669" stroke="black" stroke-width="2"/>
<path d="M770.83 1282H730.83L740.093 1313H774.83L770.83 1282Z" fill="#3C4669" stroke="black" stroke-width="2"/>
<path d="M747.831 1266.5V1278.5H765.431V1266.5H747.831Z" fill="black" stroke="black" stroke-width="2"/>
<path d="M729.33 1282L717.33 1305.5L717.33 1315.5L748.83 1335L748.83 1302L738.33 1302L741.83 1293.5L735.33 1282L729.33 1282Z" fill="#3C4669" stroke="black" stroke-width="2"/>
<path d="M754.33 1305.99L761.83 1305.99L778.83 1292.99L766.33 1292.99L757.33 1298.49L748.33 1292.99L732.83 1292.99L754.33 1305.99Z" fill="#919EBF" stroke="black" stroke-width="2"/>
<path d="M759.831 1306.5L754.331 1309.81L749.065 1309.81L749.065 1303L759.831 1303L759.831 1306.5Z" fill="black" stroke="black" stroke-width="2"/>
<path d="M727.83 1272.5L782.83 1275L765.33 1264.5L755.83 1244L746.33 1264.5L727.83 1272.5Z" fill="#3C4669" stroke="black" stroke-width="2"/>
<rect width="3.4645" height="141.575" transform="matrix(0.89705 0 -6.91208e-06 0.89705 792.831 1246)" fill="black"/>
<path d="M792.83 1266H799.83H802.33L800.83 1264V1258L802.83 1256L800.83 1254V1250L803.83 1246" stroke="black" stroke-width="3"/>
<path d="M795.83 1266H788.83H786.33L787.83 1264V1258L785.83 1256L787.83 1254V1250L784.83 1246" stroke="black" stroke-width="3"/>
<path d="M767.83 1282L771.83 1275H762.33L757.83 1279.5L752.83 1275H737.83L743.093 1282H767.83Z" fill="#3C4669" stroke="black" stroke-width="2"/>
<path d="M790.217 1309.24L787.16 1302.32L790.415 1298.93L796.944 1298.72L796.746 1309.03L790.217 1309.24Z" fill="#374569" stroke="black" stroke-width="2"/>
<path d="M770.83 1343L759.33 1355.64L747.83 1343L735.83 1355.64L724.83 1343L722.33 1355.64L781.83 1357L770.83 1343Z" fill="#919EBF"/>
<path d="M759.33 1355.64L758.59 1356.32L759.33 1357.13L760.07 1356.32L759.33 1355.64ZM770.83 1343L771.616 1342.38L770.886 1341.45L770.09 1342.33L770.83 1343ZM781.83 1357L781.807 1358L782.616 1356.38L781.83 1357ZM722.33 1355.64L721.349 1355.45L721.118 1356.62L722.307 1356.64L722.33 1355.64ZM747.83 1343L748.57 1342.33L747.846 1341.53L747.105 1342.31L747.83 1343ZM724.83 1343L725.584 1342.34L724.245 1340.8L723.849 1342.81L724.83 1343ZM735.83 1355.64L735.076 1356.3L735.798 1357.13L736.555 1356.33L735.83 1355.64ZM760.07 1356.32L771.57 1343.67L770.09 1342.33L758.59 1354.97L760.07 1356.32ZM781.853 1356L722.353 1354.64L722.307 1356.64L781.807 1358L781.853 1356ZM770.044 1343.62L781.044 1357.62L782.616 1356.38L771.616 1342.38L770.044 1343.62ZM747.09 1343.67L758.59 1356.32L760.07 1354.97L748.57 1342.33L747.09 1343.67ZM723.311 1355.84L725.811 1343.19L723.849 1342.81L721.349 1355.45L723.311 1355.84ZM724.076 1343.66L735.076 1356.3L736.585 1354.99L725.584 1342.34L724.076 1343.66ZM736.555 1356.33L748.555 1343.69L747.105 1342.31L735.105 1354.96L736.555 1356.33Z" fill="black"/>
<path d="M1022.98 1284.35L1040.41 1284.25L1042.51 1300.62L1027.58 1300.71L1022.98 1284.35Z" fill="#C1C1C1" stroke="black" stroke-width="2"/>
<path d="M1026.98 1295.35L1042.48 1295.25L1042.48 1316.5L1028.91 1316.59L1026.98 1295.35Z" fill="#C1C1C1" stroke="black" stroke-width="2"/>
<path d="M1030.98 1300.44L1042.98 1303L1045.48 1298L1041.98 1292.5L1030.98 1296.58L1030.98 1300.44Z" fill="black" stroke="black" stroke-width="2"/>
<path d="M1068.43 1339.96L1045.8 1317.33L1037.31 1325.82L1059.94 1348.45L1067.37 1347.39L1068.43 1339.96Z" fill="black"/>
<path d="M1047.21 1313.09L1048.63 1314.51L1034.49 1328.65L1033.07 1327.23L1047.21 1313.09Z" fill="black" stroke="black" stroke-width="2"/>
<path d="M1044.39 1322.99L1021.76 1300.36L1020.34 1301.78L1042.97 1324.4L1044.39 1322.99Z" fill="#C1C1C1" stroke="black" stroke-width="2"/>
<path d="M1000.76 1373L992.98 1373L992.979 1368.38L993.868 1353L1004.76 1353L1000.76 1368.38L1000.76 1373Z" fill="black" stroke="black" stroke-width="2"/>
<path d="M1012.99 1373.2L1027.49 1373.2L1020.76 1368.54L1023.87 1353L1012.99 1353L1012.99 1361.55L1012.99 1373.2Z" fill="black" stroke="black" stroke-width="2"/>
<path d="M981.979 1307.3L982.13 1293.73L1003.38 1294.12L1003.3 1303.12L987.979 1309L981.979 1307.3Z" fill="#C1C1C1" stroke="black" stroke-width="2"/>
<path d="M997.328 1263L1001.21 1271C1001.21 1271 953.356 1311.03 952.015 1333.5C951.115 1348.58 990.479 1354 990.479 1354H1022.98L1018.26 1295.67L1022.92 1263H997.328Z" fill="#FF4B3C" stroke="black" stroke-width="2"/>
<path d="M990.798 1353.89L994.743 1315.11H1013.9L1007.12 1353.89H990.798Z" fill="#C1C1C1" stroke="black" stroke-width="2"/>
<path d="M998.913 1277.35L981.48 1277.35L978.98 1301.29L993.912 1301.29L998.913 1277.35Z" fill="#C1C1C1" stroke="black" stroke-width="2"/>
<path d="M1032.98 1315.36L1014.16 1315.53L1010.98 1354L1027.48 1354L1032.98 1315.36Z" fill="#C1C1C1" stroke="black" stroke-width="2"/>
<path d="M1032.58 1270H993.979L993.98 1292.23V1302H1030.66C1033.31 1290.57 1035.52 1282.29 1032.58 1270Z" fill="#C1C1C1" stroke="black" stroke-width="2"/>
<path d="M999.219 1282L993.98 1287L977.979 1287C977.979 1287 977.979 1287 977.979 1287C977.98 1276.51 986.486 1268 996.98 1268L999.218 1268L999.219 1282Z" fill="#C1C1C1"/>
<path d="M993.98 1287L999.219 1282L999.218 1268L996.98 1268C986.486 1268 977.98 1276.51 977.979 1287M993.98 1287L999.218 1287M993.98 1287L977.979 1287M974.979 1287L977.979 1287M977.979 1287C977.979 1287 977.979 1287 977.979 1287Z" stroke="black" stroke-width="2"/>
<path d="M1030.98 1282L1035.09 1287L1047.63 1287C1047.63 1287 1047.63 1287 1047.63 1287C1047.63 1276.51 1040.96 1268 1032.73 1268L1030.98 1268L1030.98 1282Z" fill="#C1C1C1"/>
<path d="M1035.09 1287L1030.98 1282L1030.98 1268L1032.73 1268C1040.96 1268 1047.63 1276.51 1047.63 1287M1035.09 1287L1030.98 1287M1035.09 1287L1047.63 1287M1049.98 1287L1047.63 1287M1047.63 1287C1047.63 1287 1047.63 1287 1047.63 1287Z" stroke="black" stroke-width="2"/>
<path d="M1014.22 1252.37L1006.98 1244.14L1003.98 1249.64L992.979 1256.64L1017.72 1256.64L1017.72 1252.37L1014.22 1252.37Z" fill="#FF4B3C" stroke="black" stroke-width="2"/>
<path d="M993.582 1301.12L988.98 1311L978.805 1307L978.805 1295.98L991.784 1297.71L993.582 1301.12Z" fill="black" stroke="black" stroke-width="2"/>
<path d="M1042.96 1317.28L1039.73 1324.74L1035.54 1322.87L1033.6 1318.01L1041.14 1315.83L1042.96 1317.28Z" fill="black" stroke="black" stroke-width="2"/>
<path d="M1014.98 1274H1022.98V1257H1006.98V1266C1006.98 1270.42 1010.56 1274 1014.98 1274Z" fill="#C1C1C1" stroke="black" stroke-width="2"/>
<path d="M1029.48 1302H994.81L996.98 1307.5L996.979 1325H1012.98L1018.98 1311.5L1023.48 1325H1036.98L1029.48 1307.5V1302Z" fill="#C1C1C1" stroke="black" stroke-width="2"/>
<path d="M1017.98 1263V1269" stroke="black" stroke-width="3"/>
<path d="M1000.35 1293.78L1000.98 1294.28L1001.6 1293.78L1003.83 1292H1012.98L1012.98 1323.04L1000.65 1330.81L988.98 1323.05L988.979 1292H998.128L1000.35 1293.78Z" fill="#C1C1C1" stroke="black" stroke-width="2"/>
<path d="M1000.98 1301L1000.98 1317" stroke="black" stroke-width="3"/>
<path d="M1006.98 1307L994.979 1307" stroke="black" stroke-width="3"/>
<path d="M1023.98 1264L1011.98 1264" stroke="black" stroke-width="3"/>
<circle cx="1031.48" cy="1280.5" r="3.5" fill="#C1C1C1" stroke="black" stroke-width="2"/>
<circle cx="999.479" cy="1280.5" r="3.5" fill="#C1C1C1" stroke="black" stroke-width="2"/>
<path d="M1011.48 1346.5H1028.48" stroke="black" stroke-width="2"/>
<path d="M990.979 1346.5H1007.98" stroke="black" stroke-width="2"/>
<path d="M1011.98 1339L1029.98 1339" stroke="black" stroke-width="2"/>
<path d="M991.979 1339L1009.98 1339" stroke="black" stroke-width="2"/>
<path d="M1012.98 1331L1029.98 1331" stroke="black" stroke-width="2"/>
<path d="M992.979 1331L1009.98 1331" stroke="black" stroke-width="2"/>
<path d="M1012.98 1324L1022.98 1324" stroke="black" stroke-width="2"/>
<path d="M444.778 1372.5L437 1372.5L437 1367.89L437.889 1352.5L448.778 1352.5L444.778 1367.89L444.778 1372.5Z" fill="black" stroke="black" stroke-width="2"/>
<path d="M459 1372.7L473.5 1372.7L466.77 1368.04L469.877 1352.5L459 1352.5L459 1361.05L459 1372.7Z" fill="black" stroke="black" stroke-width="2"/>
<path d="M457.857 1306.76L477.905 1303.37L464.303 1293.92L470.217 1277.09L463.936 1269.33L448.483 1302.34L457.857 1306.76Z" fill="#6C6552" stroke="black" stroke-width="2"/>
<path d="M479.708 1306.47L468.147 1294.91L459.556 1309.92L467.117 1312.03L476.358 1314.6L479.708 1306.47Z" fill="#6C6552" stroke="black" stroke-width="2"/>
<path d="M479.634 1315.25L478.811 1307.69L485.367 1307.1L484.25 1310.88L482.883 1315.51L479.634 1315.25Z" fill="#6C6552" stroke="black" stroke-width="2"/>
<path d="M455 1300.5H434.647L427 1334.5H455V1300.5Z" fill="#313131" stroke="black" stroke-width="2"/>
<path d="M479.208 1341.56L469 1308L456.678 1319.44L456.678 1338.09L456.678 1358.1L470.26 1361.49L479.208 1341.56Z" fill="#313131" stroke="black" stroke-width="2"/>
<path d="M452.5 1359.5L456 1309.5L435 1309.5L435 1328.85L435 1359.5L452.5 1359.5Z" fill="#313131" stroke="black" stroke-width="2"/>
<path d="M437.5 1304.5H469L472.5 1295L469.5 1270.5H446.5L437.5 1274L434 1285.5L437.5 1304.5Z" fill="#313131" stroke="black" stroke-width="2"/>
<path d="M469 1309.5H446.466L438 1327.5H469V1309.5Z" fill="#313131" stroke="black" stroke-width="2"/>
<path d="M464 1286L455.5 1265.5L469 1253L473 1273L464 1286Z" fill="black" stroke="black" stroke-width="2"/>
<path d="M470 1252L449.5 1254.5L452.5 1258.5L445 1268C445 1268 446.999 1274.78 451 1277C455.13 1279.29 459.35 1279.77 464.5 1278.5C468.662 1277.47 474 1273 474 1273L470 1252Z" fill="#6C6552" stroke="black" stroke-width="2"/>
<path d="M427 1305L438.346 1309.34L436.5 1300L443 1290.5C443 1290.5 447.97 1280.97 444.5 1277C442.255 1274.43 436.5 1273.5 436.5 1273.5L415 1290.5L427 1305Z" fill="#313131" stroke="black" stroke-width="2"/>
<path d="M414.839 1308.13L419.444 1292.57C419.444 1292.57 423.478 1291.74 425.877 1292.88C428.685 1294.22 430.94 1299.06 430.94 1299.06L426.064 1305.07L420.104 1312.4L414.839 1308.13Z" fill="#6C6552" stroke="black" stroke-width="2"/>
<path d="M415.3 1314.85L419.881 1308.76L423.462 1317.51L420.425 1318.42L416.714 1319.54L415.3 1314.85Z" fill="#6C6552" stroke="black" stroke-width="2"/>
<path d="M469 1304.5H444.5V1309.5H469V1304.5Z" fill="#6C6552" stroke="black" stroke-width="2"/>
<rect x="462" y="1261.5" width="2" height="2" fill="black"/>
<rect x="466" y="1261.5" width="2" height="2" fill="black"/>
<rect x="462" y="1265.5" width="2" height="2" fill="black"/>
<rect x="466" y="1265.5" width="2" height="2" fill="black"/>
<rect x="462" y="1269.5" width="2" height="2" fill="black"/>
<rect x="466" y="1269.5" width="2" height="2" fill="black"/>
</g>
<defs>
<linearGradient id="paint0_linear_1243_15418" x1="999.5" y1="685" x2="999.5" y2="1398" gradientUnits="userSpaceOnUse">
<stop stop-color="white" stop-opacity="0"/>
<stop offset="1" stop-color="#E6E6E6"/>
</linearGradient>
<linearGradient id="paint1_linear_1243_15418" x1="661.633" y1="457" x2="661.633" y2="630.198" gradientUnits="userSpaceOnUse">
<stop stop-color="white"/>
<stop offset="1" stop-color="white" stop-opacity="0"/>
</linearGradient>
<linearGradient id="paint2_linear_1243_15418" x1="532.998" y1="433.5" x2="532.998" y2="585.067" gradientUnits="userSpaceOnUse">
<stop stop-color="white"/>
<stop offset="1" stop-color="white" stop-opacity="0"/>
</linearGradient>
<linearGradient id="paint3_linear_1243_15418" x1="772.36" y1="487" x2="772.36" y2="621.567" gradientUnits="userSpaceOnUse">
<stop stop-color="white"/>
<stop offset="1" stop-color="white" stop-opacity="0"/>
</linearGradient>
<linearGradient id="paint4_linear_1243_15418" x1="408.75" y1="409.5" x2="408.75" y2="510" gradientUnits="userSpaceOnUse">
<stop stop-color="white"/>
<stop offset="1" stop-color="white" stop-opacity="0"/>
</linearGradient>
<linearGradient id="paint5_linear_1243_15418" x1="652.75" y1="245" x2="652.75" y2="260" gradientUnits="userSpaceOnUse">
<stop stop-color="#FFC800"/>
<stop offset="1" stop-color="#F0A22E"/>
</linearGradient>
<clipPath id="clip0_1243_15418">
<rect width="2000" height="1500" fill="white"/>
</clipPath>
</defs>
</svg>
