<svg width="1200" height="21" viewBox="0 0 1200 21" fill="none" xmlns="http://www.w3.org/2000/svg">
<rect x="10" y="0.201172" width="14.1421" height="14.1421" transform="rotate(45 10 0.201172)" fill="white"/>
<rect x="30" y="0.201172" width="14.1421" height="14.1421" transform="rotate(45 30 0.201172)" fill="white"/>
<rect x="50" y="0.201172" width="14.1421" height="14.1421" transform="rotate(45 50 0.201172)" fill="white"/>
<rect x="70" y="0.201172" width="14.1421" height="14.1421" transform="rotate(45 70 0.201172)" fill="white"/>
<rect x="90" y="0.201172" width="14.1421" height="14.1421" transform="rotate(45 90 0.201172)" fill="white"/>
<rect x="110" y="0.201172" width="14.1421" height="14.1421" transform="rotate(45 110 0.201172)" fill="white"/>
<rect x="130" y="0.201172" width="14.1421" height="14.1421" transform="rotate(45 130 0.201172)" fill="white"/>
<rect x="150" y="0.201172" width="14.1421" height="14.1421" transform="rotate(45 150 0.201172)" fill="white"/>
<rect x="170" y="0.201172" width="14.1421" height="14.1421" transform="rotate(45 170 0.201172)" fill="white"/>
<rect x="190" y="0.201172" width="14.1421" height="14.1421" transform="rotate(45 190 0.201172)" fill="white"/>
<rect x="210" y="0.201172" width="14.1421" height="14.1421" transform="rotate(45 210 0.201172)" fill="white"/>
<rect x="230" y="0.201172" width="14.1421" height="14.1421" transform="rotate(45 230 0.201172)" fill="white"/>
<rect x="250" y="0.201172" width="14.1421" height="14.1421" transform="rotate(45 250 0.201172)" fill="white"/>
<rect x="270" y="0.201172" width="14.1421" height="14.1421" transform="rotate(45 270 0.201172)" fill="white"/>
<rect x="290" y="0.201172" width="14.1421" height="14.1421" transform="rotate(45 290 0.201172)" fill="white"/>
<rect x="310" y="0.201172" width="14.1421" height="14.1421" transform="rotate(45 310 0.201172)" fill="white"/>
<rect x="330" y="0.201172" width="14.1421" height="14.1421" transform="rotate(45 330 0.201172)" fill="white"/>
<rect x="350" y="0.201172" width="14.1421" height="14.1421" transform="rotate(45 350 0.201172)" fill="white"/>
<rect x="370" y="0.201172" width="14.1421" height="14.1421" transform="rotate(45 370 0.201172)" fill="white"/>
<rect x="390" y="0.201172" width="14.1421" height="14.1421" transform="rotate(45 390 0.201172)" fill="white"/>
<rect x="410" y="0.201172" width="14.1421" height="14.1421" transform="rotate(45 410 0.201172)" fill="white"/>
<rect x="430" y="0.201172" width="14.1421" height="14.1421" transform="rotate(45 430 0.201172)" fill="white"/>
<rect x="450" y="0.201172" width="14.1421" height="14.1421" transform="rotate(45 450 0.201172)" fill="white"/>
<rect x="470" y="0.201172" width="14.1421" height="14.1421" transform="rotate(45 470 0.201172)" fill="white"/>
<rect x="490" y="0.201172" width="14.1421" height="14.1421" transform="rotate(45 490 0.201172)" fill="white"/>
<rect x="510" y="0.201172" width="14.1421" height="14.1421" transform="rotate(45 510 0.201172)" fill="white"/>
<rect x="530" y="0.201172" width="14.1421" height="14.1421" transform="rotate(45 530 0.201172)" fill="white"/>
<rect x="550" y="0.201172" width="14.1421" height="14.1421" transform="rotate(45 550 0.201172)" fill="white"/>
<rect x="570" y="0.201172" width="14.1421" height="14.1421" transform="rotate(45 570 0.201172)" fill="white"/>
<rect x="590" y="0.201172" width="14.1421" height="14.1421" transform="rotate(45 590 0.201172)" fill="white"/>
<rect x="610" y="0.201172" width="14.1421" height="14.1421" transform="rotate(45 610 0.201172)" fill="white"/>
<rect x="630" y="0.201172" width="14.1421" height="14.1421" transform="rotate(45 630 0.201172)" fill="white"/>
<rect x="650" y="0.201172" width="14.1421" height="14.1421" transform="rotate(45 650 0.201172)" fill="white"/>
<rect x="670" y="0.201172" width="14.1421" height="14.1421" transform="rotate(45 670 0.201172)" fill="white"/>
<rect x="690" y="0.201172" width="14.1421" height="14.1421" transform="rotate(45 690 0.201172)" fill="white"/>
<rect x="710" y="0.201172" width="14.1421" height="14.1421" transform="rotate(45 710 0.201172)" fill="white"/>
<rect x="730" y="0.201172" width="14.1421" height="14.1421" transform="rotate(45 730 0.201172)" fill="white"/>
<rect x="750" y="0.201172" width="14.1421" height="14.1421" transform="rotate(45 750 0.201172)" fill="white"/>
<rect x="770" y="0.201172" width="14.1421" height="14.1421" transform="rotate(45 770 0.201172)" fill="white"/>
<rect x="790" y="0.201172" width="14.1421" height="14.1421" transform="rotate(45 790 0.201172)" fill="white"/>
<rect x="810" y="0.201172" width="14.1421" height="14.1421" transform="rotate(45 810 0.201172)" fill="white"/>
<rect x="830" y="0.201172" width="14.1421" height="14.1421" transform="rotate(45 830 0.201172)" fill="white"/>
<rect x="850" y="0.201172" width="14.1421" height="14.1421" transform="rotate(45 850 0.201172)" fill="white"/>
<rect x="870" y="0.201172" width="14.1421" height="14.1421" transform="rotate(45 870 0.201172)" fill="white"/>
<rect x="890" y="0.201172" width="14.1421" height="14.1421" transform="rotate(45 890 0.201172)" fill="white"/>
<rect x="910" y="0.201172" width="14.1421" height="14.1421" transform="rotate(45 910 0.201172)" fill="white"/>
<rect x="930" y="0.201172" width="14.1421" height="14.1421" transform="rotate(45 930 0.201172)" fill="white"/>
<rect x="950" y="0.201172" width="14.1421" height="14.1421" transform="rotate(45 950 0.201172)" fill="white"/>
<rect x="970" y="0.201172" width="14.1421" height="14.1421" transform="rotate(45 970 0.201172)" fill="white"/>
<rect x="990" y="0.201172" width="14.1421" height="14.1421" transform="rotate(45 990 0.201172)" fill="white"/>
<rect x="1010" y="0.201172" width="14.1421" height="14.1421" transform="rotate(45 1010 0.201172)" fill="white"/>
<rect x="1030" y="0.201172" width="14.1421" height="14.1421" transform="rotate(45 1030 0.201172)" fill="white"/>
<rect x="1050" y="0.201172" width="14.1421" height="14.1421" transform="rotate(45 1050 0.201172)" fill="white"/>
<rect x="1070" y="0.201172" width="14.1421" height="14.1421" transform="rotate(45 1070 0.201172)" fill="white"/>
<rect x="1090" y="0.201172" width="14.1421" height="14.1421" transform="rotate(45 1090 0.201172)" fill="white"/>
<rect x="1110" y="0.201172" width="14.1421" height="14.1421" transform="rotate(45 1110 0.201172)" fill="white"/>
<rect x="1130" y="0.201172" width="14.1421" height="14.1421" transform="rotate(45 1130 0.201172)" fill="white"/>
<rect x="1150" y="0.201172" width="14.1421" height="14.1421" transform="rotate(45 1150 0.201172)" fill="white"/>
<rect x="1170" y="0.201172" width="14.1421" height="14.1421" transform="rotate(45 1170 0.201172)" fill="white"/>
<rect x="1190" y="0.201172" width="14.1421" height="14.1421" transform="rotate(45 1190 0.201172)" fill="white"/>
</svg>
