<svg width="32" height="32" viewBox="0 0 32 32" fill="none" xmlns="http://www.w3.org/2000/svg">
<path d="M26.3179 6.69156C24.429 5.8078 22.4094 5.16552 20.2978 4.7998C20.0385 5.26864 19.7356 5.89924 19.5267 6.40088C17.2821 6.06332 15.0581 6.06332 12.8548 6.40088C12.646 5.89924 12.3361 5.26864 12.0745 4.7998C9.96069 5.16552 7.93869 5.81016 6.04981 6.69624C2.23992 12.4535 1.20712 18.0677 1.72352 23.6022C4.25044 25.4893 6.69933 26.6356 9.10689 27.3857C9.70133 26.5676 10.2315 25.6979 10.6882 24.7814C9.81837 24.4508 8.98525 24.043 8.19805 23.5694C8.40689 23.4147 8.61117 23.253 8.80853 23.0865C13.6099 25.3322 18.8267 25.3322 23.5707 23.0865C23.7704 23.253 23.9746 23.4147 24.1812 23.5694C23.3916 24.0453 22.5562 24.4532 21.6864 24.7837C22.1431 25.6979 22.671 26.57 23.2677 27.388C25.6776 26.6379 28.1288 25.4916 30.6557 23.6022C31.2616 17.1863 29.6206 11.6236 26.3179 6.69156ZM11.3423 20.1986C9.90101 20.1986 8.71901 18.853 8.71901 17.2144C8.71901 15.5759 9.87577 14.228 11.3423 14.228C12.8089 14.228 13.9909 15.5735 13.9656 17.2144C13.9679 18.853 12.8089 20.1986 11.3423 20.1986ZM21.0369 20.1986C19.5956 20.1986 18.4136 18.853 18.4136 17.2144C18.4136 15.5759 19.5703 14.228 21.0369 14.228C22.5035 14.228 23.6854 15.5735 23.6602 17.2144C23.6602 18.853 22.5035 20.1986 21.0369 20.1986Z" fill="white"/>
</svg>
