<svg width="1290" height="459" viewBox="0 0 1290 459" fill="none" xmlns="http://www.w3.org/2000/svg">
<g opacity="0.1">
<mask id="mask0_1262_15969" style="mask-type:alpha" maskUnits="userSpaceOnUse" x="0" y="0" width="1290" height="459">
<rect width="1290" height="459" fill="black"/>
</mask>
<g mask="url(#mask0_1262_15969)">
<circle cx="646.492" cy="497.822" r="188.944" transform="rotate(90 646.492 497.822)" stroke="black" stroke-opacity="0.87"/>
<circle cx="646.492" cy="497.823" r="92.3825" transform="rotate(90 646.492 497.823)" stroke="black" stroke-opacity="0.87"/>
<path d="M641.604 404.625L646.807 399.423C646.807 399.423 650.629 404.625 652.009 404.625C650.629 404.625 646.807 409.827 646.807 409.827L641.604 404.625Z" fill="black" fill-opacity="0.87"/>
<path d="M646.753 400.183C646.834 400.289 646.928 400.41 647.031 400.543C647.414 401.035 647.941 401.692 648.513 402.352C649.082 403.008 649.706 403.678 650.283 404.187C650.465 404.347 650.646 404.496 650.824 404.625C650.646 404.754 650.465 404.903 650.283 405.063C649.706 405.572 649.082 406.242 648.513 406.898C647.941 407.558 647.414 408.215 647.031 408.707C646.928 408.84 646.834 408.961 646.753 409.067L642.312 404.625L646.753 400.183Z" stroke="black" stroke-opacity="0.87"/>
<path d="M641.604 308.064L646.807 302.862C646.807 302.862 650.629 308.064 652.009 308.064C650.629 308.064 646.807 313.267 646.807 313.267L641.604 308.064Z" fill="black" fill-opacity="0.87"/>
<path d="M646.753 303.623C646.834 303.728 646.928 303.849 647.031 303.982C647.414 304.474 647.941 305.132 648.513 305.791C649.082 306.448 649.706 307.117 650.283 307.626C650.465 307.787 650.646 307.935 650.824 308.064C650.646 308.194 650.465 308.342 650.283 308.502C649.706 309.012 649.082 309.681 648.513 310.338C647.941 310.997 647.414 311.655 647.031 312.147C646.928 312.279 646.834 312.4 646.753 312.506L642.312 308.064L646.753 303.623Z" stroke="black" stroke-opacity="0.87"/>
<path d="M641.604 85.5137L646.807 80.3115C646.807 80.3115 650.629 85.5137 652.009 85.5137C650.629 85.5137 646.807 90.7159 646.807 90.7159L641.604 85.5137Z" fill="black" fill-opacity="0.87"/>
<path d="M646.753 81.0718C646.834 81.1777 646.928 81.2987 647.031 81.4316C647.414 81.9235 647.941 82.5811 648.513 83.2402C649.082 83.8968 649.706 84.5663 650.283 85.0756C650.465 85.236 650.646 85.3846 650.824 85.5137C650.646 85.6427 650.465 85.7914 650.283 85.9517C649.706 86.461 649.082 87.1306 648.513 87.7871C647.941 88.4462 647.414 89.1038 647.031 89.5958C646.928 89.7287 646.834 89.8497 646.753 89.9555L642.312 85.5137L646.753 81.0718Z" stroke="black" stroke-opacity="0.87"/>
<path d="M234.498 497.824C234.498 725.362 418.954 909.817 646.492 909.817C874.029 909.817 1058.49 725.362 1058.49 497.824C1058.49 270.286 874.029 85.8301 646.492 85.8301" stroke="black" stroke-opacity="0.87"/>
<path d="M646.492 922.191C474.402 922.191 318.626 874.659 205.886 797.837C93.1441 721.013 23.4833 614.933 23.4833 497.823C23.4833 380.713 93.1442 274.633 205.886 197.808C318.626 120.986 474.402 73.4541 646.492 73.4541C818.582 73.4541 974.358 120.986 1087.1 197.808C1199.84 274.633 1269.5 380.713 1269.5 497.823C1269.5 614.933 1199.84 721.013 1087.1 797.837C974.358 874.659 818.582 922.191 646.492 922.191Z" stroke="black" stroke-opacity="0.87"/>
<path opacity="0.3" d="M23 498C23 810.041 302.15 1063 646.5 1063C990.849 1063 1270 810.041 1270 498C1270 185.959 990.85 -67 646.5 -67" stroke="black" stroke-opacity="0.87"/>
<path opacity="0.5" d="M646.5 308C419.787 308 236 392.842 236 497.5C236 602.158 419.787 687 646.5 687C873.213 687 1057 602.158 1057 497.5" stroke="black" stroke-opacity="0.87"/>
<rect x="647.411" y="373.674" width="276.808" height="0.919629" transform="rotate(90 647.411 373.674)" fill="black" fill-opacity="0.87"/>
<rect x="647.181" y="373.904" width="276.348" height="0.459814" transform="rotate(90 647.181 373.904)" stroke="black" stroke-opacity="0.87" stroke-width="0.459814"/>
<rect x="781.678" y="363.288" width="282.735" height="0.919629" transform="rotate(135 781.678 363.288)" fill="black" fill-opacity="0.87"/>
<rect x="781.353" y="363.288" width="282.276" height="0.459814" transform="rotate(135 781.353 363.288)" stroke="black" stroke-opacity="0.87" stroke-width="0.459814"/>
<rect x="648" y="-3" width="341" height="1" transform="rotate(90 648 -3)" fill="black" fill-opacity="0.87"/>
<rect x="647.75" y="-2.75" width="340.5" height="0.5" transform="rotate(90 647.75 -2.75)" stroke="black" stroke-opacity="0.87" stroke-width="0.5"/>
</g>
</g>
</svg>
