<svg width="52" height="52" viewBox="0 0 52 52" fill="none" xmlns="http://www.w3.org/2000/svg">
<path d="M24.3805 28.2934C23.1753 27.149 23.3937 24.9623 24.2704 24.039C25.4148 22.8337 27.3195 22.7844 28.5248 23.9288C29.73 25.0733 29.5639 27.2049 28.6349 28.1832C27.4905 29.3885 25.5857 29.4378 24.3805 28.2934Z" fill="black"/>
<path fill-rule="evenodd" clip-rule="evenodd" d="M16.6236 18.0686L23.517 17.8514L26.0404 14.2266L29.5487 17.6613L36.442 17.444L38.9278 19.9183L40.2714 31.0794L38.0056 32.9944L30.8252 33.2207L27.3137 37.8693L23.3672 34.023L16.9045 34.2267L14.4212 31.894L14.2266 20.6968L16.6236 18.0686ZM35.3228 26.1059C35.3228 25.5405 31.359 21.6351 26.6401 21.6977C21.6649 21.7636 17.7688 26.3385 17.7688 26.3385C17.7688 26.3385 21.1663 30.6754 25.8851 30.6128C30.9814 30.5453 35.3228 26.6713 35.3228 26.1059Z" fill="black"/>
</svg>
