<svg width="180" height="82" viewBox="0 0 180 82" fill="none" xmlns="http://www.w3.org/2000/svg">
<path fill-rule="evenodd" clip-rule="evenodd" d="M105.202 0L40.0943 0L39.7421 0.577844L38.6852 0L1.46611 0L0.514362 53.2315L8.63281 66.718L0.497419 54.1791L0.0977254 76.5342L1.44222 77.2693L0.609634 78.6349L0.0654845 78.3374L0 82L17.8321 82L8.63281 66.718L18.548 82L133.625 82L136.547 79.197L141.551 82L164.84 82L172.573 79.1969L173.102 82H179.842C179.842 82 177.888 17.0833 179.842 13.1786C180.683 11.4994 177.888 8.78571 177.888 8.78571L179.842 0L109.527 0L108.446 1.77328L105.202 0Z" fill="#101010"/>
<path d="M167.053 22.9404L173.488 12.6904L167.053 12.6904V22.9404Z" fill="#EEEEEE"/>
<path d="M159.33 22.9404L165.766 12.6904L159.33 12.6904V22.9404Z" fill="#EEEEEE"/>
<path d="M151.607 22.9404L158.043 12.6904L151.607 12.6904V22.9404Z" fill="#EEEEEE"/>
<path d="M143.885 20.5L149.033 12.6904H143.885V20.5Z" fill="#EEEEEE"/>
<path d="M136.161 20.5L141.31 12.6904H136.161V20.5Z" fill="#EEEEEE"/>
<path d="M128.438 22.4523L133.587 12.6904H128.438V22.4523Z" fill="#EEEEEE"/>
<path d="M120.716 22.9404L127.152 12.6904L120.716 12.6904V22.9404Z" fill="#EEEEEE"/>
<path d="M112.993 19.5238L118.142 12.6904H112.993V19.5238Z" fill="#EEEEEE"/>
<path d="M105.271 22.9404L111.706 12.6904L105.271 12.6904V22.9404Z" fill="#EEEEEE"/>
<path d="M96.0474 21.3102L104.195 12.8571L99.0908 12.6006L96.0474 21.3102Z" fill="#EEEEEE"/>
<path d="M82.1016 22.9404L88.5373 12.6904L82.1016 12.6904V22.9404Z" fill="#EEEEEE"/>
<path d="M88.5381 22.4521L82.1023 32.7021H88.5381V22.4521Z" fill="#EEEEEE"/>
<path d="M103.983 22.4521L97.5477 32.7021H103.983V22.4521Z" fill="#EEEEEE"/>
<path d="M111.706 24.8926L106.557 32.7021H111.706V24.8926Z" fill="#EEEEEE"/>
<path d="M119.43 24.8926L114.281 32.7021H119.43V24.8926Z" fill="#EEEEEE"/>
<path d="M127.152 22.9402L122.004 32.7021H127.152V22.9402Z" fill="#EEEEEE"/>
<path d="M134.875 22.4521L128.439 32.7021H134.875V22.4521Z" fill="#EEEEEE"/>
<path d="M142.598 25.8688L137.449 32.7021H142.598V25.8688Z" fill="#EEEEEE"/>
<path d="M150.32 22.4521L143.885 32.7021H150.32V22.4521Z" fill="#EEEEEE"/>
<path d="M159.543 24.0834L151.396 32.5365L156.5 32.793L159.543 24.0834Z" fill="#EEEEEE"/>
<path d="M165.767 23.4287L159.331 33.6787H165.767V23.4287Z" fill="#EEEEEE"/>
<path d="M173.489 22.4521L167.054 32.7021H173.489V22.4521Z" fill="#EEEEEE"/>
<path d="M70.8951 56.0216L71.5372 47.7206L62.8186 44.1693L23.5555 41.4857L14.8786 43.8481L14.2766 51.6305L-0.000217275 55.3486L15.5692 60.7592L14.9005 69.4058L21.1475 72.6144L60.5179 73.9145L69.6913 71.586L70.3334 63.285L83.0791 59.9838L70.8951 56.0216Z" fill="#FF4B3C"/>
<path d="M34.8862 6.17276H31.2773L34.8862 2.56836L36.9162 3.92001L39.8484 3.92001L40.074 37.7112L34.8862 36.3596L34.8862 6.17276Z" fill="#EEEEEE"/>
<path d="M45.0496 18.1875L36.1641 27.1261V30.4781L45.0496 23.5507V34.277L47.2709 36.7351L50.8251 34.7239L49.4923 32.7127V23.1037L45.0496 18.1875Z" fill="#EEEEEE"/>
<path d="M55.699 9.49937L53.7568 6.34552L64.1148 4.09277L67.999 6.34552V35.2339L70.3727 36.135L69.5095 37.7119H63.2516L63.2516 9.49937L55.699 9.49937Z" fill="#EEEEEE"/>
<path d="M54.113 14.6426L64.0469 14.6426L63.3539 20.0814H56.1922V29.2854L57.3473 32.214L64.509 32.6324V38.0711L55.4991 37.6528L51.8027 31.3773V17.1528L54.113 14.6426Z" fill="#EEEEEE"/>
<path d="M72.8262 2.93233L71.1179 5.59831L74.7791 7.94693L73.3438 9.7079L72.9469 35.9989L76.3891 37.3036L78.0662 35.893L78.5586 8.15528L77.8625 2.82809L72.8262 2.93233Z" fill="#EEEEEE"/>
<path d="M89.0009 5.78653L82.1016 3.25781V32.6542V35.1829L87.0691 37.7116L89.0009 36.1311V5.78653Z" fill="#EEEEEE"/>
<path d="M98.6602 35.6906V7.39258L105.559 9.41387V35.6906L104.06 37.7119L98.6602 35.6906Z" fill="#EEEEEE"/>
<path d="M93.7204 4.63574L83.4814 11.0671L87.0011 15.661L95.0003 9.53584L103.319 11.9859L105.559 9.53584L93.7204 4.63574Z" fill="#EEEEEE"/>
<path d="M108.492 16.3074L109.47 8.78585L141.724 2.92871L174.956 7.80966L175.933 13.1121H171.046L169.091 13.1121H168.114H165.67H163.716H161.761L142.213 12.6906L121.687 13.1121L175.933 32.2144V35.4434L170.069 38.0716L132.439 39.5359L108.492 32.2144V28.7978L143.679 32.7025L154.919 30.7501L108.492 16.3074Z" fill="#EEEEEE"/>
<path d="M31.616 14.4058L33.2317 15.3109L30.8081 17.1211L26.4996 15.3109L21.3832 8.07031L13.3046 15.3109L14.3818 28.2083L22.191 32.5074L30.8081 26.9072H32.6931V31.1498L24.076 37.7116H19.7675L8.18822 28.2083L6.8418 13.5008L19.4982 3.54492L22.191 4.90254L25.4224 5.35508L31.616 14.4058Z" fill="#EEEEEE"/>
<path d="M86.5504 42.3131L82.1016 40.6396V72.8539L83.3149 74.3182L85.9438 75.7825L87.966 74.3182L86.5504 72.8539V42.3131Z" fill="#EEEEEE"/>
<path d="M97.7396 42.2862L94.0254 40.6396L92.8525 71.3073V73.1597L96.1757 74.8063L97.7396 73.983L97.1531 72.1306L97.7396 42.2862Z" fill="#EEEEEE"/>
<path d="M110.409 41.8367L103.98 41L102.627 45.8112V74.6786L108.717 76.1428L111.424 74.6786L110.409 73.2143V41.8367Z" fill="#EEEEEE"/>
<path d="M94.1993 41.6162L85.0342 50.3487L88.7836 53.3305L97.7404 42.8941L94.1993 41.6162Z" fill="#EEEEEE"/>
<path d="M103.883 41.6162L93.8301 50.1669L96.9717 52.3543L108.491 42.2128L103.883 41.6162Z" fill="#EEEEEE"/>
<path d="M142.634 45.77L135.893 43.9287L134.882 51.0894L136.904 54.1582V77.277L142.634 78.0954L144.656 77.277V54.1582L142.634 51.0894V45.77Z" fill="#EEEEEE"/>
<path d="M152.476 42.8975L149.803 41.6162L137.814 42.8975L141.256 47.1683L148.943 45.46V48.6631L141.256 52.7204V55.2829L152.476 51.012V42.8975Z" fill="#EEEEEE"/>
<path d="M151.66 73.8751V57.1005L139.443 52.3545L138.791 55.4021L148.076 59.3704V74.6878L148.565 76.5164L151.009 77.7354L152.475 76.5164L151.66 73.8751Z" fill="#EEEEEE"/>
<path d="M174.15 41.6172H161.669L162.263 43.9271H170.188L162.263 46.3699L161.272 68.8223L166.648 75.6556H174.15L170.98 62.9652H174.15V41.6172Z" fill="#EEEEEE"/>
<path d="M158.34 53.5106V40.6406L162.475 41.1596V53.5106L163.227 58.7002L163.039 75.099L161.911 76.7597L158.34 75.099L159.092 58.7002L158.34 53.5106Z" fill="#EEEEEE"/>
<path d="M51.0207 70.8524L50.8252 47.4238H62.1631L62.554 53.281L61.7721 54.7453H56.4941L59.2309 59.6262L58.1557 61.7833L55.1258 59.6262V68.9L51.0207 70.8524Z" fill="white"/>
<path d="M26.0975 57.9322C25.7996 48.8374 33.1889 41.0493 34.2803 41.0281C35.3716 41.0069 43.0125 49.2309 43.3342 59.0533C43.6322 68.1481 35.3886 74.8607 35.3886 74.8607C35.3886 74.8607 26.4116 67.5213 26.0975 57.9322Z" fill="white"/>
<path d="M29.3228 58.5309C29.2398 55.3273 32.5231 52.6437 34.9803 52.5801C38.1879 52.4972 40.8555 55.027 40.9385 58.2306C41.0216 61.4342 37.8849 64.1141 35.281 64.1814C32.0734 64.2643 29.4059 61.7345 29.3228 58.5309Z" fill="#FF4B3C"/>
<path d="M114.904 57.9322C114.606 48.8374 121.996 41.0493 123.087 41.0281C124.178 41.0069 131.819 49.2309 132.141 59.0533C132.439 68.1481 124.195 74.8607 124.195 74.8607C124.195 74.8607 115.218 67.5213 114.904 57.9322Z" fill="#EEEEEE"/>
<path d="M118.129 58.5309C118.046 55.3273 121.33 52.6437 123.787 52.5801C126.995 52.4972 129.662 55.027 129.745 58.2306C129.828 61.4342 126.692 64.1141 124.088 64.1814C120.88 64.2643 118.213 61.7345 118.129 58.5309Z" fill="#101010"/>
</svg>
