<svg width="868" height="134" viewBox="0 0 868 134" fill="none" xmlns="http://www.w3.org/2000/svg">
<path d="M261.5 63.5C257.495 66.0443 249.033 68.3435 249.033 68.3435L249.033 58L243 43L246 31.5L250 31.5L269 48C269 48 267.704 59.5584 261.5 63.5Z" fill="#364C3C" stroke="black" stroke-width="2"/>
<path d="M238.621 131L230.621 131L230.621 126.885L231.51 111.5L242.399 111.5L238.621 127L238.621 131Z" fill="black" stroke="black" stroke-width="2"/>
<path d="M252.621 131L267.121 131L260.391 127.039L263.498 111.5L252.621 111.5L252.621 120.047L252.621 131Z" fill="black" stroke="black" stroke-width="2"/>
<path d="M270 73L266.488 58.2917L259 65.4999L261.778 70.5837L268.141 76.1093L270 73Z" fill="#6C6952" stroke="black" stroke-width="2"/>
<path d="M262.832 78.78L262.832 74.7799L265.832 71.78L270.832 72.7799L272 77L268.5 83L262.832 78.78Z" fill="#6C6952" stroke="black" stroke-width="2"/>
<path d="M227 20L233 28.5C233 28.5 203.934 55.4181 197 79C192.417 94.5858 191 112 191 112H215L243 112.5L255 112V20H227Z" fill="black"/>
<path d="M250 59H229.647L222 85H250V59Z" fill="#364C3C" stroke="black" stroke-width="2"/>
<path d="M272.829 100.56L262.621 67.0002L250.299 78.4442L250.299 97.0911L250.299 117.103L263.882 120.485L272.829 100.56Z" fill="#6C6952" stroke="black" stroke-width="2"/>
<path d="M246.5 118L250 59L233 59L229 81.833L229 118L246.5 118Z" fill="#6C6952" stroke="black" stroke-width="2"/>
<path d="M231.784 62H262.512L263 56.5763L258.61 30H240.194L231.414 33.7966L228 46.2712L231.784 62Z" fill="#364C3C" stroke="black" stroke-width="2"/>
<path d="M231.784 62H236V56.5L261.5 34L240.194 30L231.414 33.7966L228 46.2712L231.784 62Z" fill="#364C3C" stroke="black" stroke-width="2"/>
<path d="M263 62H236V85H263V62Z" fill="#364C3C" stroke="black" stroke-width="2"/>
<path d="M245 82H242V85H245V82Z" fill="black" stroke="black" stroke-width="2"/>
<path d="M254 82H251V85H254V82Z" fill="black" stroke="black" stroke-width="2"/>
<path d="M263 82H260V85H263V82Z" fill="black" stroke="black" stroke-width="2"/>
<path d="M260.5 11.5L242.5 14.5L243.5 17.5L237.5 29L241.5 35L256 41.5L263.5 35L261.5 29.5L260.5 11.5Z" fill="#6C6952" stroke="black" stroke-width="2"/>
<path d="M218.204 75.4619L213.956 79.9993L233.24 98.0536L233.982 90.2335L218.204 75.4619Z" fill="white"/>
<rect width="3.4645" height="21.4972" transform="matrix(-0.613087 0.654846 0.654851 0.613082 203.064 63.417)" fill="white"/>
<rect width="3.46449" height="17.3225" transform="matrix(0.65485 0.613083 0.613086 -0.654848 208.501 81.2783)" fill="white"/>
<path d="M219.5 63.5C223.505 66.0443 231.967 66.5 231.967 66.5L231.967 58L238 43L235 31.5L231 31.5L212 48C212 48 213.296 59.5584 219.5 63.5Z" fill="#364C3C" stroke="black" stroke-width="2"/>
<path d="M208.46 67.1295L213.064 51.5711C213.064 51.5711 217.099 50.7414 219.497 51.8826C222.306 53.2187 224.56 58.0601 224.56 58.0601L219.684 64.065L213.724 71.4045L208.46 67.1295Z" fill="#6C6952" stroke="black" stroke-width="2"/>
<path d="M207.5 75L209.5 66.5L213 67.5L215.793 71.8326L213.992 74.4429L211.791 77.6332L207.5 75Z" fill="#6C6952" stroke="black" stroke-width="2"/>
<path d="M254.5 62H263V68H254.5L258.5 65L254.5 62Z" fill="#6C6952" stroke="black" stroke-width="2"/>
<path d="M240.5 62H232V68H240.5L236.5 65L240.5 62Z" fill="#6C6952" stroke="black" stroke-width="2"/>
<path d="M251.5 62H243V68H251.5L247.5 65L251.5 62Z" fill="#6C6952" stroke="black" stroke-width="2"/>
<path d="M263 35L258 39L249 30L252.5 19L260.5 12.5L261.5 30L263 35Z" fill="black" stroke="black" stroke-width="2"/>
<path d="M845.963 70H836.598L832.415 67.5029L837.105 62L846.47 62L845.963 70Z" fill="#C1C1C1" stroke="black" stroke-width="2"/>
<path d="M837.295 60.4624L814.068 58.023L811.567 81.9624L837.295 93.1755L837.295 60.4624Z" fill="#54609F" stroke="black" stroke-width="2"/>
<path d="M824 72H792.33L786.5 78L775 131H800.875H830.5L824 72Z" fill="#54609F" stroke="black" stroke-width="2"/>
<path d="M824 72H804L804 131H800.875H830.5L824 72Z" fill="#263464" stroke="black" stroke-width="2"/>
<path d="M814.414 85L817 82.4142L819.586 85L817 87.5858L814.414 85Z" fill="black" stroke="black" stroke-width="2"/>
<path d="M824 83.4142V86.5858L822.414 85L824 83.4142Z" stroke="black" stroke-width="2"/>
<path d="M806.414 85L809 82.4142L811.586 85L809 87.5858L806.414 85Z" fill="black" stroke="black" stroke-width="2"/>
<path d="M798.414 85L801 82.4142L803.586 85L801 87.5858L798.414 85Z" stroke="black" stroke-width="2"/>
<path d="M823 41H783L792.263 68H827L823 41Z" fill="#54609F" stroke="black" stroke-width="2"/>
<path d="M824 72H783L792.263 68H824V72Z" fill="#2A3EA4" stroke="black" stroke-width="2"/>
<path d="M800 29V37H817V29H800Z" fill="black" stroke="black" stroke-width="2"/>
<path d="M781.33 41.0003L769.33 64.5001L769.33 74.5002L800.83 94.0003L800.83 61.0002L790.33 61.0002L793.83 52.5002L787.33 41.0003L781.33 41.0003Z" fill="#263464" stroke="black" stroke-width="2"/>
<path d="M806.33 64.9863L813.83 64.9863L830.83 51.9863L818.33 51.9864L809.33 57.4862L800.33 51.9864L784.83 51.9864L806.33 64.9863Z" fill="white" stroke="black" stroke-width="2"/>
<path d="M811.83 65.4998L806.33 70.4998L801.065 70.4998L801.065 61.9994L811.83 61.9996L811.83 65.4998Z" fill="#C1C1C1" stroke="black" stroke-width="2"/>
<path d="M779.83 31.5L834.83 34L814 24.5L807.83 10.5L801.5 24.5L779.83 31.5Z" fill="#263464" stroke="black" stroke-width="2"/>
<rect width="3.3449" height="124.854" transform="matrix(0.89372 0.0772275 -0.0772344 0.893719 849.827 20.0938)" fill="black"/>
<path d="M847.935 40.0048L854.909 40.6075L857.4 40.8227L856.078 38.701L856.594 32.7233L858.759 30.9029L856.939 28.7381L857.283 24.753L860.616 21.0261" stroke="black" stroke-width="3"/>
<path d="M850.924 40.2627L843.95 39.66L841.459 39.4448L843.126 37.5814L843.642 31.6036L841.822 29.4389L843.986 27.6185L844.331 23.6333L841.686 19.3899" stroke="black" stroke-width="3"/>
<path d="M847.573 70H842.456L840.085 67.5029L842.459 62L846.5 56.5L847.573 70Z" fill="#C1C1C1" stroke="black" stroke-width="2"/>
<path d="M819.83 41L823.83 34H814.33L810 38.5L804.83 34H789.83L795.093 41H806L810 48L814.33 41H819.83Z" fill="#54609F" stroke="black" stroke-width="2"/>
<path d="M850.286 71H846.334L844.413 67.8786L846.049 61H850L850.286 71Z" fill="#C1C1C1" stroke="black" stroke-width="2"/>
<path d="M803.617 31.1931L800.448 31.0824L802.088 29.5529L803.617 31.1931Z" stroke="black" stroke-width="2"/>
<path d="M811.612 31.4729L808.443 31.3621L810.083 29.8327L811.612 31.4729Z" stroke="black" stroke-width="2"/>
<path d="M819.607 31.7522L816.438 31.6414L818.078 30.112L819.607 31.7522Z" stroke="black" stroke-width="2"/>
<path d="M804 126L810 132H798L804 126Z" fill="black"/>
<path d="M630 25L635.5 32C635.5 32 619.688 51.8712 613 66.5C602.81 88.7893 600.5 128 600.5 128H628.5H673L672 41.5V25H630Z" fill="#B04129" stroke="black" stroke-width="2"/>
<path d="M647 25V32C647 32 634.027 51.8712 629.138 66.5C621.688 88.7893 620 128 620 128H640.469H673L672 42V25H647Z" fill="#7D2D1C" stroke="black" stroke-width="2"/>
<path d="M695.562 89.6338L675.644 78.1338L674.644 79.8658L694.562 91.3658L695.562 89.6338Z" fill="#B28C52" stroke="black" stroke-width="2"/>
<path d="M663.98 46.3482L683.507 46.2455L683.507 62.6188L668.579 62.7068L663.98 46.3482Z" fill="#AD793C" stroke="black" stroke-width="2"/>
<path d="M671 59.9998L684 59.9999L684 79.9998L671 79.9998L671 59.9998Z" fill="#B28C52" stroke="black" stroke-width="2"/>
<path d="M671.5 62L671.5 58L678 60L684 58L683.98 55L687 60L683.98 65L684 62L678 60L671.5 62Z" fill="black"/>
<path d="M678 60L684 62L683.98 65L687 60L683.98 55L684 58L678 60ZM678 60L671.5 62L671.5 58L678 60Z" stroke="black" stroke-width="2"/>
<path d="M641.757 131L633.98 131L633.979 126.385L634.868 111L645.757 111L641.757 126.385L641.757 131Z" fill="black" stroke="black" stroke-width="2"/>
<path d="M653.994 131L668 131L661.764 126.539L664.872 111L653.994 111L653.994 119.547L653.994 131Z" fill="black" stroke="black" stroke-width="2"/>
<path d="M622.979 69.298L623.13 55.7268L644.381 56.1234L644.301 65.1235L628.979 71L622.979 69.298Z" fill="#B28C52" stroke="black" stroke-width="2"/>
<path d="M631.798 115.89L635.743 77.1098H654.899L648.116 115.89H631.798Z" fill="#AD793C" stroke="black" stroke-width="2"/>
<path d="M639.913 39.3482L622.48 39.3483L619.98 63.2877L634.912 63.2877L639.913 39.3482Z" fill="#B28C52" stroke="black" stroke-width="2"/>
<path d="M673 77.3549L655.158 77.5289L651.98 116L668.48 116L673 86.9998L673 77.3549Z" fill="#AD793C" stroke="black" stroke-width="2"/>
<path d="M675 32H634.979L638.98 60H671.664L675 32Z" fill="#B28C52" stroke="black" stroke-width="2"/>
<path d="M641 30H638.691C627.868 30 619.094 38.5066 619.094 49L635.597 48.9999L641 48.9998L641 43.9998L641 30Z" fill="#C1C1C1"/>
<path d="M617 49H619.094M619.094 49L635.597 48.9999L641 48.9998L641 43.9998L641 30L638.691 30C627.868 30 619.094 38.5066 619.094 49Z" stroke="black" stroke-width="2"/>
<path d="M671.979 43.9998L676.086 48.9999L688.628 49C688.628 38.9624 680 30 671.98 30L671.979 43.9998Z" fill="#B28C52"/>
<path d="M690.979 49L688.628 49M688.628 49L676.086 48.9999L671.979 43.9998L671.98 30C680 30 688.628 38.9624 688.628 49Z" stroke="black" stroke-width="2"/>
<path d="M654 13L638 13L642 19L658 18.9999V15H654V13Z" fill="#F27155" stroke="black" stroke-width="2"/>
<path d="M647 42L647 26L641 30L641 46L645 42L647 42Z" fill="#F27155" stroke="black" stroke-width="2"/>
<path d="M666 42L666 32L672 25L672 46L668 46L668 42L666 42Z" fill="#F27155"/>
<path d="M666 32L665 32L665 31.6301L665.241 31.3492L666 32ZM666 42L666 43L665 43L665 42L666 42ZM668 46L668 47L667 47L667 46L668 46ZM672 46L673 46L673 47L672 47L672 46ZM672 25L671.241 24.3492L673 25L672 25ZM668 42L668 41L669 41L669 42L668 42ZM667 32L667 42L665 42L665 32L667 32ZM668 45L672 45L672 47L668 47L668 45ZM672.759 25.6508L666.759 32.6508L665.241 31.3492L671.241 24.3492L672.759 25.6508ZM666 41L668 41L668 43L666 43L666 41ZM669 42L669 46L667 46L667 42L669 42ZM671 46L671 25L673 25L673 46L671 46Z" fill="black"/>
<path d="M619 70L618 62L626 65.9999L626 72.0001L619 70Z" fill="black" stroke="black" stroke-width="2"/>
<path d="M684.5 81L681.5 86.5001L678 86.5L674.595 80.0114L681.5 75L684.5 81Z" fill="black" stroke="black" stroke-width="2"/>
<path d="M647.979 27.5L651.5 36H655.5H663L663.979 21.5L661.5 19H647.979V27.5Z" fill="#B28C52" stroke="black" stroke-width="2"/>
<path d="M671.5 60H637.979V83H653.98L659.98 69.5L664.48 83H677.98L671.5 65.5V60Z" fill="#B28C52" stroke="black" stroke-width="2"/>
<path d="M660 25L660 36" stroke="black" stroke-width="2"/>
<path d="M662 29L662 32" stroke="black" stroke-width="2"/>
<path d="M658 29L658 32" stroke="black" stroke-width="2"/>
<path d="M654 29L654 32" stroke="black" stroke-width="2"/>
<path d="M618 46L618 49" stroke="black" stroke-width="2"/>
<path d="M623 46L623 49" stroke="black" stroke-width="2"/>
<path d="M629 46L629 49" stroke="black" stroke-width="2"/>
<path d="M635 46L635 49" stroke="black" stroke-width="2"/>
<path d="M641 46L641 50" stroke="black" stroke-width="2"/>
<path d="M678 46L678 49" stroke="black" stroke-width="2"/>
<path d="M684 46L684 49" stroke="black" stroke-width="2"/>
<path d="M690 46L690 50" stroke="black" stroke-width="2"/>
<path d="M650 29L650 32" stroke="black" stroke-width="2"/>
<path d="M663 26L657 26" stroke="black" stroke-width="2"/>
<circle cx="670" cy="43" r="4" fill="#C1C1C1" stroke="black" stroke-width="2"/>
<circle cx="642.5" cy="42.5" r="4.5" fill="#B28C52" stroke="black" stroke-width="2"/>
<path d="M652.979 101L659 101L663.5 105L668 101L670.979 101" stroke="black" stroke-width="2"/>
<path d="M632.979 101L637.479 101L641.979 105L646.479 101L650.979 101" stroke="black" stroke-width="2"/>
<path d="M640.392 55.2647L641.02 55.7715L641.648 55.2646L644.454 53H656.041V87.3816L641.02 94.8822L626 87.3816V53H637.586L640.392 55.2647Z" fill="#AD793C" stroke="black" stroke-width="2"/>
<path d="M641 56L641 95" stroke="black" stroke-width="2"/>
<path d="M691.798 97.7261L699.798 83.8697" stroke="black" stroke-width="2"/>
<path d="M703.525 88.7275L688.071 92.8686" stroke="black" stroke-width="2"/>
<path d="M697.868 98.5254L693.727 83.0706" stroke="black" stroke-width="2"/>
<path d="M688.87 86.7979L702.727 94.7979" stroke="black" stroke-width="2"/>
<path d="M660 36L660 70" stroke="black" stroke-width="2"/>
<rect x="690.898" y="87.9697" width="8" height="8" transform="rotate(-15 690.898 87.9697)" fill="black"/>
<path d="M523.131 131.5L515.354 131.5L515.354 126.884L516.242 111.5L527.131 111.5L523.131 126.884L523.131 131.5Z" fill="black" stroke="black" stroke-width="2"/>
<path d="M537.354 131.7L551.854 131.7L545.123 127.039L548.231 111.5L537.354 111.5L537.354 120.046L537.354 131.7Z" fill="black" stroke="black" stroke-width="2"/>
<path d="M566.011 66.8691L560.86 63.3897L575.648 41.5001L578.11 48.9595L566.011 66.8691Z" fill="#919EBF"/>
<rect width="3.4645" height="21.4972" transform="matrix(-0.743327 -0.50216 0.502165 -0.743323 553.928 81.978)" fill="#919EBF"/>
<rect width="3.46449" height="17.3225" transform="matrix(0.502165 -0.743324 0.743326 0.502161 555.258 63.3555)" fill="#919EBF"/>
<path d="M536.213 65.7604L556.261 62.3673L542.659 52.9159L548.572 36.0924L542.292 28.3337L526.838 61.3378L536.213 65.7604Z" fill="#6C6552" stroke="black" stroke-width="2"/>
<path d="M558.063 65.4662L546.502 53.9085L537.911 68.9225L545.471 71.0286L554.712 73.6027L558.063 65.4662Z" fill="#6C6552" stroke="black" stroke-width="2"/>
<path d="M557.989 74.2507L557.166 66.6902L563.723 66.0993L562.605 69.8823L561.239 74.506L557.989 74.2507Z" fill="#6C6552" stroke="black" stroke-width="2"/>
<path d="M512.793 21.4995L516.66 29.4995C516.66 29.4995 474.189 48.0341 472.854 70.4995C471.957 85.5774 476.354 112.5 476.354 112.5H516.66H541.854L526.713 54.1662L531.354 21.4995H512.793Z" fill="black" stroke="black" stroke-width="2"/>
<path d="M533.354 59.4995H513.001L505.354 93.4995H533.354V59.4995Z" fill="#313131" stroke="black" stroke-width="2"/>
<path d="M557.562 100.559L547.354 66.9993L535.032 78.4432L535.032 97.0901L535.032 117.102L548.615 120.484L557.562 100.559Z" fill="#313131" stroke="black" stroke-width="2"/>
<path d="M530.854 118.5L534.354 68.4995L513.354 68.4995L513.354 87.8495L513.354 118.5L530.854 118.5Z" fill="#313131" stroke="black" stroke-width="2"/>
<path d="M515.854 59.4995H547.354L550.854 53.9995L547.854 29.4995H524.854L515.854 32.9995L512.354 44.4995L515.854 59.4995Z" fill="#313131" stroke="black" stroke-width="2"/>
<path d="M547.354 59.4995H524.82L516.354 93.4995H547.354V59.4995Z" fill="#313131" stroke="black" stroke-width="2"/>
<path d="M542.354 44.9995L533.854 24.4995L547.354 11.9995L551.354 31.9995L542.354 44.9995Z" fill="black" stroke="black" stroke-width="2"/>
<path d="M548.354 10.9995L527.854 13.4995L530.854 17.4995L523.354 26.9995C523.354 26.9995 525.353 33.7801 529.354 35.9995C533.483 38.2905 542.854 37.4995 542.854 37.4995L539.854 27.9995L548.354 10.9995Z" fill="#6C6552" stroke="black" stroke-width="2"/>
<path d="M504.689 74.9502L500.294 79.3454L518.974 98.0248L519.972 90.2334L504.689 74.9502Z" fill="#919EBF"/>
<rect width="4.53779" height="28.1569" transform="matrix(-0.484283 0.484279 0.484283 0.484279 489.955 62.4136)" fill="#919EBF"/>
<rect width="4.53779" height="22.6889" transform="matrix(0.484283 0.484282 0.484283 -0.484283 494.801 80.4448)" fill="#919EBF"/>
<path d="M505.354 63.9995L516.7 68.343L516.7 59.4995L522.854 49.4995C522.854 49.4995 526.325 39.9681 522.854 35.9995C520.609 33.4325 514.854 32.4995 514.854 32.4995L493.354 49.4995L505.354 63.9995Z" fill="#313131" stroke="black" stroke-width="2"/>
<path d="M493.193 67.129L497.797 51.5706C497.797 51.5706 501.832 50.7409 504.231 51.8821C507.039 53.2182 509.294 58.0596 509.294 58.0596L504.417 64.0646L498.457 71.404L493.193 67.129Z" fill="#6C6552" stroke="black" stroke-width="2"/>
<path d="M493.349 75.442L493.917 68.3733L500.527 71.8321L498.726 74.4424L496.525 77.6328L493.349 75.442Z" fill="#6C6552" stroke="black" stroke-width="2"/>
<path d="M547.354 59.4995H522.854V64.4995H547.354V59.4995Z" fill="#6C6552" stroke="black" stroke-width="2"/>
<path d="M328.608 131L320.83 131L320.83 126.385L321.719 111L332.608 111L327.33 126.385L328.608 131Z" fill="black" stroke="black" stroke-width="2"/>
<path d="M379.058 54.5L355.83 52.0606L353.33 76L379.058 87.2131L379.058 54.5Z" fill="#374569" stroke="black" stroke-width="2"/>
<path d="M348.83 131.201L363.33 131.201L356.6 126.539L359.708 111L348.83 111L348.83 119.547L348.83 131.201Z" fill="black" stroke="black" stroke-width="2"/>
<path d="M362.33 72H330.66L319.278 79.7422L310.33 131H372.33L362.33 72Z" fill="#3C4669" stroke="black" stroke-width="2"/>
<path d="M360.83 41H320.83L330.093 72H364.83L360.83 41Z" fill="#3C4669" stroke="black" stroke-width="2"/>
<path d="M337.831 25.5V37.5H355.431V25.5H337.831Z" fill="black" stroke="black" stroke-width="2"/>
<path d="M319.33 41.0003L307.33 64.5001L307.33 74.5002L338.83 94.0003L338.83 61.0002L328.33 61.0002L331.83 52.5002L325.33 41.0003L319.33 41.0003Z" fill="#3C4669" stroke="black" stroke-width="2"/>
<path d="M344.33 64.9863L351.83 64.9863L368.83 51.9863L356.33 51.9864L347.33 57.4862L338.33 51.9864L322.83 51.9864L344.33 64.9863Z" fill="#919EBF" stroke="black" stroke-width="2"/>
<path d="M349.831 65.5L344.331 68.8068L339.065 68.8068L339.065 61.9996L349.831 61.9998L349.831 65.5Z" fill="black" stroke="black" stroke-width="2"/>
<path d="M317.83 31.5L372.83 34L355.33 23.5L345.83 3L336.33 23.5L317.83 31.5Z" fill="#3C4669" stroke="black" stroke-width="2"/>
<rect width="3.4645" height="141.575" transform="matrix(0.89705 0 -6.91208e-06 0.89705 382.831 5)" fill="black"/>
<path d="M382.83 25H389.83H392.33L390.83 23V17L392.83 15L390.83 13V9L393.83 5" stroke="black" stroke-width="3"/>
<path d="M385.83 25H378.83H376.33L377.83 23V17L375.83 15L377.83 13V9L374.83 5" stroke="black" stroke-width="3"/>
<path d="M357.83 41L361.83 34H352.33L347.83 38.5L342.83 34H327.83L333.093 41H357.83Z" fill="#3C4669" stroke="black" stroke-width="2"/>
<path d="M380.217 68.2355L377.16 61.3166L380.415 57.9299L386.944 57.7234L386.746 68.0291L380.217 68.2355Z" fill="#374569" stroke="black" stroke-width="2"/>
<path d="M360.83 102L349.33 114.644L337.83 102L325.83 114.644L314.83 102L312.33 114.643L371.83 116L360.83 102Z" fill="#919EBF"/>
<path d="M349.33 114.644L348.59 115.316L349.33 116.13L350.07 115.316L349.33 114.644ZM360.83 102L361.616 101.382L360.886 100.453L360.09 101.327L360.83 102ZM371.83 116L371.807 117L372.616 115.382L371.83 116ZM312.33 114.643L311.349 114.449L311.118 115.616L312.307 115.643L312.33 114.643ZM337.83 102L338.57 101.327L337.846 100.531L337.105 101.312L337.83 102ZM314.83 102L315.584 101.344L314.245 99.8041L313.849 101.806L314.83 102ZM325.83 114.644L325.076 115.3L325.798 116.13L326.555 115.332L325.83 114.644ZM350.07 115.316L361.57 102.673L360.09 101.327L348.59 113.971L350.07 115.316ZM371.853 115L312.353 113.644L312.307 115.643L371.807 117L371.853 115ZM360.044 102.618L371.044 116.618L372.616 115.382L361.616 101.382L360.044 102.618ZM337.09 102.673L348.59 115.316L350.07 113.971L338.57 101.327L337.09 102.673ZM313.311 114.837L315.811 102.194L313.849 101.806L311.349 114.449L313.311 114.837ZM314.076 102.657L325.076 115.3L326.585 113.987L315.584 101.344L314.076 102.657ZM326.555 115.332L338.555 102.689L337.105 101.312L325.105 113.955L326.555 115.332Z" fill="black"/>
<path d="M612.98 43.3482L630.407 43.2456L632.507 59.6188L617.579 59.7067L612.98 43.3482Z" fill="#C1C1C1" stroke="black" stroke-width="2"/>
<path d="M616.98 54.3482L632.48 54.2456L632.48 75.5L618.908 75.588L616.98 54.3482Z" fill="#C1C1C1" stroke="black" stroke-width="2"/>
<path d="M620.979 59.4384L632.98 62L635.48 57L631.98 51.5L620.979 55.5804L620.979 59.4384Z" fill="black" stroke="black" stroke-width="2"/>
<path d="M658.427 98.9614L635.8 76.334L627.315 84.8193L649.942 107.447L657.367 106.386L658.427 98.9614Z" fill="black"/>
<path d="M637.214 72.0912L638.628 73.5054L624.486 87.6475L623.072 86.2333L637.214 72.0912Z" fill="black" stroke="black" stroke-width="2"/>
<path d="M634.385 81.9907L611.758 59.3633L610.344 60.7775L632.971 83.4049L634.385 81.9907Z" fill="#C1C1C1" stroke="black" stroke-width="2"/>
<path d="M590.757 132L582.98 132L582.979 127.385L583.868 112L594.757 112L590.757 127.385L590.757 132Z" fill="black" stroke="black" stroke-width="2"/>
<path d="M602.994 132.201L617.494 132.201L610.764 127.539L613.872 112L602.994 112L602.994 120.547L602.994 132.201Z" fill="black" stroke="black" stroke-width="2"/>
<path d="M571.979 66.298L572.13 52.7268L593.381 53.1234L593.301 62.1235L577.979 68L571.979 66.298Z" fill="#C1C1C1" stroke="black" stroke-width="2"/>
<path d="M587.328 22L591.21 30C591.21 30 543.356 70.0346 542.015 92.5C541.115 107.578 580.479 113 580.479 113H612.979L608.259 54.6667L612.917 22H587.328Z" fill="#FF4B3C" stroke="black" stroke-width="2"/>
<path d="M580.798 112.89L584.743 74.1098H603.899L597.116 112.89H580.798Z" fill="#C1C1C1" stroke="black" stroke-width="2"/>
<path d="M588.913 36.3482L571.48 36.3483L568.98 60.2877L583.912 60.2877L588.913 36.3482Z" fill="#C1C1C1" stroke="black" stroke-width="2"/>
<path d="M622.98 74.3551L604.158 74.5291L600.98 113L617.48 113L622.98 74.3551Z" fill="#C1C1C1" stroke="black" stroke-width="2"/>
<path d="M622.579 29H583.979L583.98 51.2324V61H620.664C623.314 49.5708 625.522 41.2919 622.579 29Z" fill="#C1C1C1" stroke="black" stroke-width="2"/>
<path d="M589.219 41L583.98 46.0001L567.979 46.0003C567.979 46.0003 567.979 46.0002 567.979 46.0003C567.98 35.5067 576.486 27 586.98 27L589.218 27L589.219 41Z" fill="#C1C1C1"/>
<path d="M583.98 46.0001L589.219 41L589.218 27L586.98 27C576.486 27 567.98 35.5067 567.979 46.0003M583.98 46.0001L589.218 46.0001M583.98 46.0001L567.979 46.0003M564.979 46.0002L567.979 46.0003M567.979 46.0003C567.979 46.0002 567.979 46.0003 567.979 46.0003Z" stroke="black" stroke-width="2"/>
<path d="M620.979 40.9998L625.086 45.9999L637.628 46C637.628 46 637.628 46 637.628 46C637.628 35.5066 630.96 27 622.734 27L620.98 27L620.979 40.9998Z" fill="#C1C1C1"/>
<path d="M625.086 45.9999L620.979 40.9998L620.98 27L622.734 27C630.96 27 637.628 35.5066 637.628 46M625.086 45.9999L620.98 45.9998M625.086 45.9999L637.628 46M639.979 46L637.628 46M637.628 46C637.628 46 637.628 46 637.628 46Z" stroke="black" stroke-width="2"/>
<path d="M604.218 11.372L596.979 3.14142L593.979 8.64136L582.979 15.6413L607.719 15.6413L607.718 11.3719L604.218 11.372Z" fill="#FF4B3C" stroke="black" stroke-width="2"/>
<path d="M583.582 60.1202L578.98 70L568.805 66L568.805 54.9763L581.784 56.7068L583.582 60.1202Z" fill="black" stroke="black" stroke-width="2"/>
<path d="M632.955 76.275L629.734 83.7359L625.538 81.8737L623.596 77.0111L631.145 74.8331L632.955 76.275Z" fill="black" stroke="black" stroke-width="2"/>
<path d="M604.979 33H612.979V16H596.979V25C596.979 29.4183 600.561 33 604.979 33Z" fill="#C1C1C1" stroke="black" stroke-width="2"/>
<path d="M619.48 61H584.81L586.98 66.5L586.979 84H602.98L608.98 70.5L613.48 84H626.98L619.48 66.5V61Z" fill="#C1C1C1" stroke="black" stroke-width="2"/>
<path d="M607.979 22V28" stroke="black" stroke-width="3"/>
<path d="M590.355 52.7809L590.98 53.2806L591.604 52.7808L593.83 51H602.979L602.979 82.0361L590.648 89.8088L578.98 82.0518L578.979 51H588.128L590.355 52.7809Z" fill="#C1C1C1" stroke="black" stroke-width="2"/>
<path d="M590.979 60L590.979 76" stroke="black" stroke-width="3"/>
<path d="M596.979 66L584.979 66" stroke="black" stroke-width="3"/>
<path d="M613.979 23L601.979 23" stroke="black" stroke-width="3"/>
<circle cx="621.479" cy="39.5" r="3.5" fill="#C1C1C1" stroke="black" stroke-width="2"/>
<circle cx="589.479" cy="39.5" r="3.5" fill="#C1C1C1" stroke="black" stroke-width="2"/>
<path d="M601.479 105.5H618.479" stroke="black" stroke-width="2"/>
<path d="M580.979 105.5H597.979" stroke="black" stroke-width="2"/>
<path d="M601.979 98L619.979 98" stroke="black" stroke-width="2"/>
<path d="M581.979 98L599.979 98" stroke="black" stroke-width="2"/>
<path d="M602.979 90L619.979 90" stroke="black" stroke-width="2"/>
<path d="M582.979 90L599.979 90" stroke="black" stroke-width="2"/>
<path d="M602.979 83L612.979 83" stroke="black" stroke-width="2"/>
<path d="M34.7777 131.5L27 131.5L27 126.885L27.889 111.5L38.7778 111.5L34.7777 126.885L34.7777 131.5Z" fill="black" stroke="black" stroke-width="2"/>
<path d="M49 131.701L63.5 131.701L56.7695 127.04L59.8774 111.5L49 111.5L49 120.047L49 131.701Z" fill="black" stroke="black" stroke-width="2"/>
<path d="M47.8573 65.7608L67.9054 62.3678L54.3031 52.9163L60.2166 36.0929L53.9363 28.3342L38.4826 61.3382L47.8573 65.7608Z" fill="#6C6552" stroke="black" stroke-width="2"/>
<path d="M69.7085 65.4668L58.1474 53.909L49.5561 68.9231L57.1168 71.0292L66.3576 73.6033L69.7085 65.4668Z" fill="#6C6552" stroke="black" stroke-width="2"/>
<path d="M69.6336 74.2513L68.8106 66.6907L75.3672 66.0998L74.2495 69.8829L72.8835 74.5066L69.6336 74.2513Z" fill="#6C6552" stroke="black" stroke-width="2"/>
<path d="M45 59.5005H24.6471L17 93.5005H45V59.5005Z" fill="#313131" stroke="black" stroke-width="2"/>
<path d="M69.2076 100.561L58.9995 67.0007L46.678 78.4446L46.678 97.0916L46.678 117.103L60.2605 120.485L69.2076 100.561Z" fill="#313131" stroke="black" stroke-width="2"/>
<path d="M42.5 118.5L46 68.5005L25 68.5005L25 87.8505L25 118.5L42.5 118.5Z" fill="#313131" stroke="black" stroke-width="2"/>
<path d="M27.5 63.5005H59L62.5 54.0005L59.5 29.5005H36.5L27.5 33.0005L24 44.5005L27.5 63.5005Z" fill="#313131" stroke="black" stroke-width="2"/>
<path d="M59 68.5005H36.4664L28 86.5005H59V68.5005Z" fill="#313131" stroke="black" stroke-width="2"/>
<path d="M54 45.0005L45.5 24.5005L59 12.0005L63 32.0005L54 45.0005Z" fill="black" stroke="black" stroke-width="2"/>
<path d="M60 11.0005L39.5 13.5005L42.5 17.5005L35 27.0005C35 27.0005 36.9992 33.7811 41 36.0005C45.1299 38.2915 49.35 38.7714 54.5 37.5005C58.662 36.4734 64 32.0005 64 32.0005L60 11.0005Z" fill="#6C6552" stroke="black" stroke-width="2"/>
<path d="M16.9996 64.0005L28.3458 68.344L26.4996 59.0005L32.9995 49.5005C32.9995 49.5005 37.9701 39.9691 34.4996 36.0005C32.2547 33.4335 26.4996 32.5005 26.4996 32.5005L4.99957 49.5005L16.9996 64.0005Z" fill="#313131" stroke="black" stroke-width="2"/>
<path d="M4.83942 67.13L9.44355 51.5716C9.44355 51.5716 13.4785 50.7419 15.8771 51.8831C18.6854 53.2192 20.9402 58.0606 20.9402 58.0606L16.0638 64.0655L10.1037 71.405L4.83942 67.13Z" fill="#6C6552" stroke="black" stroke-width="2"/>
<path d="M5.30002 73.848L9.88054 67.7619L13.4615 76.51L10.4251 77.4245L6.71384 78.5423L5.30002 73.848Z" fill="#6C6552" stroke="black" stroke-width="2"/>
<path d="M59 63.5005H34.5V68.5005H59V63.5005Z" fill="#6C6552" stroke="black" stroke-width="2"/>
<rect x="52" y="20.5005" width="2" height="2" fill="black"/>
<rect x="56" y="20.5005" width="2" height="2" fill="black"/>
<rect x="52" y="24.5005" width="2" height="2" fill="black"/>
<rect x="56" y="24.5005" width="2" height="2" fill="black"/>
<rect x="52" y="28.5005" width="2" height="2" fill="black"/>
<rect x="56" y="28.5005" width="2" height="2" fill="black"/>
</svg>
